<?xml version="1.0" encoding="UTF-8" standalone="no"?>
<svg
   width="512" height="512"
   viewBox="0 0 512 512"
   version="1.1"
   id="svg8"
   sodipodi:docname="scratchers.svg"
   inkscape:version="1.1.1 (3bf5ae0d25, 2021-09-20)"
   xmlns:inkscape="http://www.inkscape.org/namespaces/inkscape"
   xmlns:sodipodi="http://sodipodi.sourceforge.net/DTD/sodipodi-0.dtd"
   xmlns="http://www.w3.org/2000/svg"
   xmlns:svg="http://www.w3.org/2000/svg">
  <defs
     id="defs12">
    <filter
       style="color-interpolation-filters:sRGB;"
       inkscape:label="Drop Shadow"
       id="filter911"
       x="-0.15948265"
       y="-0.16054428"
       width="1.310497"
       height="1.3125842">
      <feFlood
         flood-opacity="1"
         flood-color="rgb(58,63,94)"
         result="flood"
         id="feFlood901" />
      <feComposite
         in="flood"
         in2="SourceGraphic"
         operator="out"
         result="composite1"
         id="feComposite903" />
      <feGaussianBlur
         in="composite1"
         stdDeviation="15"
         result="blur"
         id="feGaussianBlur905" />
      <feOffset
         dx="0"
         dy="0"
         result="offset"
         id="feOffset907" />
      <feComposite
         in="offset"
         in2="SourceGraphic"
         operator="atop"
         result="composite2"
         id="feComposite909" />
    </filter>
    <filter
       style="color-interpolation-filters:sRGB;"
       inkscape:label="Drop Shadow"
       id="filter937"
       x="-0.062329148"
       y="-0.06275243"
       width="1.1246583"
       height="1.1255049">
      <feFlood
         flood-opacity="1"
         flood-color="rgb(58,63,94)"
         result="flood"
         id="feFlood927" />
      <feComposite
         in="flood"
         in2="SourceGraphic"
         operator="out"
         result="composite1"
         id="feComposite929" />
      <feGaussianBlur
         in="composite1"
         stdDeviation="12.3821"
         result="blur"
         id="feGaussianBlur931" />
      <feOffset
         dx="0"
         dy="0"
         result="offset"
         id="feOffset933" />
      <feComposite
         in="offset"
         in2="SourceGraphic"
         operator="atop"
         result="composite2"
         id="feComposite935" />
    </filter>
  </defs>
  <sodipodi:namedview
     id="namedview10"
     pagecolor="#505050"
     bordercolor="#eeeeee"
     borderopacity="1"
     inkscape:pageshadow="0"
     inkscape:pageopacity="0"
     inkscape:pagecheckerboard="0"
     showgrid="false"
     inkscape:zoom="1.7558594"
     inkscape:cx="256"
     inkscape:cy="256"
     inkscape:window-width="1716"
     inkscape:window-height="1414"
     inkscape:window-x="3160"
     inkscape:window-y="587"
     inkscape:window-maximized="1"
     inkscape:current-layer="svg8" />
  <path
     d="M0 0h512v512H0z"
     fill="#b90202"
     fill-opacity="1"
     id="path2"
     style="fill:#1b1f21;fill-opacity:0" />
  <g
     class=""
     style="fill:#ff0ec0;fill-opacity:1;filter:url(#filter937)"
     transform="translate(0,0)"
     id="g6">
    <path
       d="M140.2 23.414c15.085 32.345 32.656 63.74 52.378 93.875l5.117 6.558-.023-34.914 71.494 120.16 12.21-30.672 62.49 111.574 10.792-23.053 46.98 65.72c28.694 19.943 58.638 37.808 89.563 53.27-9.573-53.755-22.974-106.946-46.167-158.7l-15.385 36.853-60.82-106.8-7.33 21.812-58.623-100.784-9.523 36.104-57.16-69.95-8.792 27.077-87.2-48.13zM32.905 30.65c.498 1.085 1.01 2.16 1.512 3.24l128.55 182.686-15.07 2.442 85.834 57.697-31.3 9.924 138.322 85.465-34.393 16.145 5.4 3.322c-.7-1.014-1.393-2.032-2.098-3.043 4.165 3.215 8.367 6.367 12.584 9.49l109.297 67.22c14.582 7.255 29.39 13.985 44.418 20.156-10.046-21.494-21.62-43.198-34.51-64.898l-83.413-116.693-12.685 27.093-61.118-109.127-11.734 29.474-56.094-94.275.014 21.255-48.426-62.06C123.39 81.91 77.68 52.7 32.904 30.65zM19.557 136.71l29.308 61.67-34.44-.745 81.34 67.69L60.59 275.1l123.84 95.517-44.7 3.76 148.02 83.487-32.973 12.033 117.977 27.077c-11.174-23.545-23.634-46.537-37.254-68.864l-68.41-42.074 34.47-16.183-143.597-88.726 33.185-10.52L98.2 208.132l30.69-4.97C94.145 177.7 57.52 155.358 19.556 136.71z"
       fill="#ffffff"
       fill-opacity="1"
       stroke="#ffffff"
       stroke-opacity="1"
       stroke-width="0"
       id="path4"
       style="fill:#ff0ec0;fill-opacity:1" />
  </g>
</svg>
