<?xml version="1.0" encoding="UTF-8" standalone="no"?>
<!-- Created with Inkscape (http://www.inkscape.org/) -->

<svg
   version="1.1"
   id="svg2"
   width="512"
   height="512"
   viewBox="0 0 512 512"
   sodipodi:docname="brain-injury.svg"
   inkscape:version="1.1.1 (3bf5ae0d25, 2021-09-20)"
   xmlns:inkscape="http://www.inkscape.org/namespaces/inkscape"
   xmlns:sodipodi="http://sodipodi.sourceforge.net/DTD/sodipodi-0.dtd"
   xmlns="http://www.w3.org/2000/svg"
   xmlns:svg="http://www.w3.org/2000/svg">
  <defs
     id="defs6" />
  <sodipodi:namedview
     id="namedview4"
     pagecolor="#505050"
     bordercolor="#eeeeee"
     borderopacity="1"
     inkscape:pageshadow="0"
     inkscape:pageopacity="0"
     inkscape:pagecheckerboard="0"
     showgrid="false"
     inkscape:zoom="1.2788086"
     inkscape:cx="140.36502"
     inkscape:cy="234.20237"
     inkscape:window-width="1716"
     inkscape:window-height="1414"
     inkscape:window-x="3160"
     inkscape:window-y="587"
     inkscape:window-maximized="1"
     inkscape:current-layer="g827" />
  <g
     inkscape:groupmode="layer"
     inkscape:label="Image"
     id="g8">
    <g
       id="g827"
       style="fill:#ff0ec0">
      <path
         id="path829"
         style="fill:#ff0ec0;fill-opacity:1;stroke:none;stroke-width:77.9599;stroke-linejoin:round;stroke-miterlimit:4;stroke-dasharray:none;stroke-opacity:1;paint-order:markers stroke fill"
         d="m 299.93312,22.882766 -73.43616,1.44412 44.52702,98.465334 z m 65.06115,2.177322 -35.73973,109.421032 92.53509,-60.557195 z m -193.10866,4.312302 -63.4343,9.311006 98.78626,97.012294 z m 3.63481,117.61106 -0.78892,63.85549 53.36557,31.78401 -16.01903,7.2362 -53.61517,-18.08716 -9.43134,18.08716 13.68793,10.33837 -4.3903,15.4931 -25.83369,-8.77393 -18.08717,32.02692 42.50348,30.49366 31.39177,-12.33296 11.73348,-36.24785 12.04101,5.17699 v 11.36799 l 64.07835,-4.13625 10.33393,-28.93365 v -32.018 l -49.60595,-15.53543 16.53383,-23.49369 20.15527,-31.79514 -31.40514,-13.94869 z m 122.33789,2.55173 -38.75946,58.46678 45.22234,14.15594 -2.32663,46.30098 17.59463,6.55647 26.86553,-40.31278 3.08212,-76.82359 z m -140.94653,8.72711 -73.500787,28.55925 -14.991656,25.82924 49.614873,21.70413 H 54.985458 c -3.108804,-8.3e-4 -6.206594,51.67854 -6.206594,51.67854 h 59.939886 l 32.05143,-62.008 -34.11955,-20.51185 50.26115,-0.67526 z m 221.56986,24.42078 -14.47241,13.69908 2.05921,35.38984 -16.5316,21.18042 v 27.90405 h 28.9448 l 51.65848,-43.4105 z m 53.72882,77.51445 -57.88735,42.36531 -54.76289,-16.52938 -54.77404,32.03583 -62.008,-2.06812 -3.10664,27.90851 41.34015,16.01903 -4.12732,16.02571 -32.03584,-10.34283 -51.68076,-21.70191 -20.6723,11.36798 v 35.14024 l 32.04029,21.70191 h 99.21859 l 18.5975,-41.33569 -21.18043,-26.47998 59.42286,2.70772 -26.47998,25.18964 30.61845,1.16331 39.27648,-14.98496 27.76142,23.89928 61.38177,-0.36326 5.24163,-57.78707 -66.47631,2.20629 -5.18145,16.52938 23.78118,11.37913 -34.10618,-4.13848 12.40427,-32.03583 74.40558,-5.16139 z m -382.081076,38.74609 64.604296,53.52603 36.17208,-14.47239 -56.855526,-39.05364 z m 241.651586,84.88215 -10.97576,27.91073 31.00177,27.89736 69.88604,-15.63349 v -40.1746 z m -18.82705,37.5939 c 0,0 -32.04482,9.29987 -39.27648,9.29987 l 55.95518,58.3977 31.01069,-14.46125 z" />
      <g
         id="g990"
         transform="matrix(0.73936319,0,0,0.73936319,73.498499,134.07584)">
        <g
           id="g928">
          <g
             id="g926" />
        </g>
        <g
           id="g930" />
        <g
           id="g932" />
        <g
           id="g934" />
        <g
           id="g936" />
        <g
           id="g938" />
        <g
           id="g940" />
        <g
           id="g942" />
        <g
           id="g944" />
        <g
           id="g946" />
        <g
           id="g948" />
        <g
           id="g950" />
        <g
           id="g952" />
        <g
           id="g954" />
        <g
           id="g956" />
        <g
           id="g958" />
      </g>
    </g>
  </g>
</svg>
