<?xml version="1.0" encoding="UTF-8" standalone="no"?>
<!-- Created with Inkscape (http://www.inkscape.org/) -->

<svg
   version="1.1"
   id="svg2"
   width="512"
   height="512"
   viewBox="0 0 512 512"
   sodipodi:docname="broken_arm.svg"
   inkscape:version="1.1.1 (3bf5ae0d25, 2021-09-20)"
   xmlns:inkscape="http://www.inkscape.org/namespaces/inkscape"
   xmlns:sodipodi="http://sodipodi.sourceforge.net/DTD/sodipodi-0.dtd"
   xmlns="http://www.w3.org/2000/svg"
   xmlns:svg="http://www.w3.org/2000/svg">
  <defs
     id="defs6" />
  <sodipodi:namedview
     id="namedview4"
     pagecolor="#505050"
     bordercolor="#eeeeee"
     borderopacity="1"
     inkscape:pageshadow="0"
     inkscape:pageopacity="0"
     inkscape:pagecheckerboard="0"
     showgrid="false"
     inkscape:zoom="1"
     inkscape:cx="483.5"
     inkscape:cy="257.5"
     inkscape:window-width="1716"
     inkscape:window-height="1414"
     inkscape:window-x="3160"
     inkscape:window-y="587"
     inkscape:window-maximized="1"
     inkscape:current-layer="g12" />
  <g
     inkscape:groupmode="layer"
     inkscape:label="Image"
     id="g8">
    <g
       id="g12"
       style="fill:#000000;fill-opacity:1;stroke:#ffffff;stroke-width:100;stroke-miterlimit:4;stroke-dasharray:none;stroke-opacity:1;paint-order:markers stroke fill"
       transform="translate(-39.671441,-9.8787708)">
      <path
         id="path2798"
         style="mix-blend-mode:normal;fill:#ff0ec0;fill-opacity:1;stroke:none;stroke-width:69.9766;stroke-linecap:butt;stroke-linejoin:round;stroke-miterlimit:4;stroke-dasharray:none;stroke-opacity:1;paint-order:markers stroke fill"
         d="m 121.90397,69.691217 c -2.3867,-0.01207 -4.69079,0.144597 -6.87423,0.441482 -38.669127,8.61336 -52.554691,46.855481 -50.478477,58.951881 3.431679,15.4063 15.797938,35.02915 33.994016,40.62381 18.639721,36.77122 100.699171,83.95581 119.027371,86.07359 0,0 -0.79907,43.47609 4.96808,53.48359 3.9235,5.86017 52.88166,24.12664 86.92054,24.54861 2.9126,0.0361 60.48494,30.55346 84.54831,41.29644 0.0931,11.18046 3.06878,20.91757 6.74913,30.30112 -7.0362,20.12629 4.96915,24.42419 8.47915,45.1125 2.24893,7.41046 14.43607,3.95135 14.19558,-8.04707 -6.38893,-16.27819 -5.40221,-31.7965 1.84168,-31.31292 l 22.55724,19.60137 33.94667,30.63459 c 3.92267,2.52933 15.27299,-2.45479 10.62389,-9.597 l -29.85586,-33.97506 1.74699,-1.83603 49.94415,33.88222 c 4.04307,2.66753 13.30239,-7.4954 8.83538,-11.3705 l -46.81405,-31.84534 1.82091,-1.50067 41.48401,15.95395 c 4.76766,1.97636 11.12748,-8.3687 4.71984,-11.11282 l -40.89099,-19.93673 26.47751,6.65063 c 3.59508,0.39786 5.63088,-7.15221 1.63135,-7.95991 L 479.8804,377.22517 c -16.95102,-8.4114 -38.89864,-24.28458 -58.9424,-24.01616 -23.52266,-22.65199 -58.00403,-62.04689 -70.21817,-68.26466 l -80.60717,-3.38597 2.69055,-80.11642 C 237.70434,149.49401 208.76578,134.87516 170.60516,105.46063 159.33549,78.182472 138.61086,69.775772 121.90397,69.691217 Z m 196.81136,51.084823 -16.4447,94.51665 c 0.74941,0.18386 60.85985,-68.7839 60.48666,-69.39963 -0.32539,-0.53687 -44.04196,-25.11702 -44.04196,-25.11702 z m 98.30619,82.59857 -68.18509,52.40357 81.0354,-3.69668 c 0.81161,-0.49182 -11.92297,-48.75986 -12.85031,-48.70689 z m -181.4391,143.83746 -77.18145,45.42515 35.76941,31.47586 z" />
      <g
         id="g882"
         transform="translate(676.96757,135.4308)">
        <g
           class=""
           id="g871" />
      </g>
    </g>
  </g>
</svg>
