<?xml version="1.0" encoding="UTF-8" standalone="no"?>
<!-- Created with Inkscape (http://www.inkscape.org/) -->

<svg
   version="1.1"
   id="svg2"
   width="682.66669"
   height="682.66669"
   viewBox="0 0 682.66669 682.66669"
   sodipodi:docname="broken_ribs.svg"
   inkscape:version="1.1.1 (3bf5ae0d25, 2021-09-20)"
   xmlns:inkscape="http://www.inkscape.org/namespaces/inkscape"
   xmlns:sodipodi="http://sodipodi.sourceforge.net/DTD/sodipodi-0.dtd"
   xmlns="http://www.w3.org/2000/svg"
   xmlns:svg="http://www.w3.org/2000/svg">
  <defs
     id="defs6" />
  <sodipodi:namedview
     id="namedview4"
     pagecolor="#505050"
     bordercolor="#eeeeee"
     borderopacity="1"
     inkscape:pageshadow="0"
     inkscape:pageopacity="0"
     inkscape:pagecheckerboard="0"
     showgrid="false"
     inkscape:zoom="1.2788086"
     inkscape:cx="378.08629"
     inkscape:cy="314.74608"
     inkscape:window-width="1716"
     inkscape:window-height="1414"
     inkscape:window-x="3160"
     inkscape:window-y="587"
     inkscape:window-maximized="1"
     inkscape:current-layer="g3909" />
  <g
     inkscape:groupmode="layer"
     inkscape:label="Image"
     id="g8">
    <g
       id="g827"
       style="fill:#ff0ec0">
      <g
         id="g4021"
         transform="matrix(1.1028347,0,0,1.1028347,-35.101209,-35.111803)"
         style="fill:#ff0ec0;fill-opacity:1;stroke:none">
        <g
           id="g3909"
           style="fill:#ff0ec0;fill-opacity:1;stroke:none">
          <g
             id="g1865"
             transform="matrix(2.3801936,0,0,2.3801936,-1575.3187,-529.15273)"
             style="fill:#ff0ec0;fill-opacity:1;stroke:none">
            <g
               class=""
               id="g1854"
               transform="translate(-207.31097,21.649087)"
               style="fill:#ff0ec0;fill-opacity:1;stroke:none">
              <path
                 id="path1852"
                 style="fill:#ff0ec0;fill-opacity:1;stroke:none;stroke-width:22.6204;stroke-linejoin:round;stroke-miterlimit:4;stroke-dasharray:none;stroke-opacity:1;paint-order:markers stroke fill"
                 d="m 986.89501,222.91697 c 9.3546,5.2613 16.30909,12.16946 19.98809,19.88691 13.5464,28.42794 -22.5345,61.05719 -80.59433,73.30759 -1.32123,0.28159 -2.64108,0.51145 -3.95324,0.72411 -2.81909,-5.37869 -5.95728,-8.66509 -9.2372,-8.66509 v 121.79819 c 3.41353,0 6.64927,-0.86573 9.55662,-2.72593 16.19855,23.95162 35.72237,35.56267 51.85623,37.65492 9.86367,1.27926 18.87505,-1.05943 24.19456,-7.43688 3.74196,-4.48494 5.04746,-10.59568 3.81986,-17.27894 2.243,-0.92983 4.2991,-2.1187 6.1582,-3.58479 l 0.051,0.0671 c 7.5232,-6.10446 12.1519,-13.27345 13.5108,-20.67818 0.8346,-4.55115 0.3264,-9.12036 -1.3298,-13.30756 1.6422,-1.17373 3.1468,-2.48238 4.4928,-3.90377 0.011,-0.0118 0.022,-0.0223 0.034,-0.0336 1.2891,-1.06872 2.4762,-2.18977 3.564,-3.35462 l -10.5004,0.45374 -1.3431,-3.61175 c -17.18821,10.09803 -48.20003,7.70857 -81.23222,-5.36835 -0.0139,-3.73548 -0.17481,-7.72099 -0.47097,-11.82798 33.12739,4.2634 62.29567,2.31778 81.07009,-5.65508 l 0.9971,-2.08576 -5.1545,-1.81006 2.7649,-3.62235 -4.271,-3.61484 c -18.18902,6.87826 -45.79775,8.12206 -76.75322,3.66432 -0.37524,-2.86594 -0.80096,-5.73576 -1.27854,-8.58071 27.76786,-1.58668 52.70254,-6.77632 71.79926,-14.35773 l 7.1895,-11.68173 1.5449,-6.68096 c -18.48698,11.05226 -48.34138,18.73649 -82.9075,20.55625 -0.90128,-3.9503 -1.89946,-7.74048 -2.97726,-11.23904 1.64962,-0.28752 3.29657,-0.58145 4.92954,-0.92603 45.14826,-9.52605 77.98572,-30.70897 87.37342,-53.2855 h 4e-4 c 8.0105,4.89952 12.4898,13.40744 13.0739,22.27663 -1.0165,5.30534 -4.1827,10.34499 -9.1454,14.98774 l 9.8735,-0.11044 9.084,-7.40065 c 0.18,-1.10921 0.2844,-2.22698 0.2844,-3.35286 0,-0.37527 -0.015,-0.75372 -0.034,-1.12791 0.2745,-14.20591 -7.0122,-28.44927 -20.5434,-35.33282 0.5351,-5.4896 -0.3877,-10.97275 -2.9279,-16.30299 -5.3066,-11.14127 -16.8793,-20.16236 -32.55657,-26.43267 z m 76.14049,89.61545 -11.0062,4.0182 -9.3654,-3.12885 c -3.5905,1.59703 -7.7076,2.8704 -12.275,3.82115 l -3.6476,5.80663 -10.6179,8.68365 c 8.818,-0.39104 16.7677,-1.54704 23.5787,-3.46816 v 4.5e-4 c 3.154,5.32397 3.06,9.78682 0.6985,13.81077 -0.8674,1.47841 -2.1635,2.94291 -3.8821,4.31775 -5.3026,3.54698 -12.3994,5.35628 -20.8174,5.59147 l 2.8513,4.81434 -3.7982,2.51695 4.2776,3.39836 -1.6254,1.64439 c 2.5533,-0.17386 4.9903,-0.48281 7.284,-0.94724 v 10e-4 c 2.2198,6.07998 1.2533,11.24523 -2.3349,15.62704 -2.2129,2.70221 -5.5959,5.09776 -10.1531,6.73795 -0.5519,0.1412 -1.1129,0.26639 -1.6802,0.37995 l 0.087,3.85208 10.0701,3.00957 c 3.7876,-2.00083 6.9839,-4.55233 9.4718,-7.59106 5.6561,-6.90746 7.2404,-16.28368 4.1031,-25.19915 1.8432,-0.92368 3.5314,-2.00313 5.0556,-3.23401 0.362,-0.29334 0.7049,-0.59658 1.0425,-0.90349 3.7455,-2.45486 6.6941,-5.43831 8.7371,-8.92134 3.9404,-6.71343 3.8208,-14.91023 0.1014,-22.43656 4.6923,-2.26007 8.4906,-5.05877 11.252,-8.36864 l 0.1996,0.14005 c 0.4256,-0.64113 0.8151,-1.30764 1.1999,-1.97088 0.019,-0.0275 0.03,-0.0614 0.049,-0.0902 0.4173,-0.61962 0.7931,-1.26009 1.1447,-1.91213 z m 43.9352,10.46146 -53.1402,33.56029 58.1943,-2.28147 z m -59.3908,48.2348 49.2196,27.94364 7.0308,-24.97473 z m -4.4583,21.71155 13.6659,47.88887 28.1014,-14.07322 z m -107.9159,7.58136 4.3e-4,10e-4 c 30.24885,11.15581 58.42845,13.762 76.79077,6.81438 0.6785,2.15202 0.7794,4.42909 0.3358,6.84708 -0.6891,3.76077 -2.8784,7.96375 -7.0834,12.11381 -15.71769,8.38839 -42.91811,0.55057 -71.17102,-18.96134 0.45869,-2.10516 0.83457,-4.37303 1.12742,-6.81525 z m -5.4845,19.16499 c 23.62156,16.01388 46.3697,24.35332 63.1121,22.7984 0.68644,3.87653 -0.22625,6.58336 -1.85122,8.53078 -2.42176,2.90202 -7.62899,4.88216 -15.17635,3.90334 -12.69407,-1.64645 -30.83679,-11.85484 -46.08453,-35.23252 z" />
            </g>
          </g>
        </g>
      </g>
    </g>
  </g>
</svg>
