<?xml version="1.0" encoding="UTF-8" standalone="no"?>
<svg
   width="512" height="512"
   viewBox="0 0 512 512"
   version="1.1"
   id="svg2871"
   sodipodi:docname="choking1.svg"
   inkscape:version="1.1.2 (0a00cf5339, 2022-02-04, custom)"
   xmlns:inkscape="http://www.inkscape.org/namespaces/inkscape"
   xmlns:sodipodi="http://sodipodi.sourceforge.net/DTD/sodipodi-0.dtd"
   xmlns="http://www.w3.org/2000/svg"
   xmlns:svg="http://www.w3.org/2000/svg">
  <defs
     id="defs2875" />
  <sodipodi:namedview
     id="namedview2873"
     pagecolor="#000000"
     bordercolor="#666666"
     borderopacity="1.0"
     inkscape:pageshadow="2"
     inkscape:pageopacity="0"
     inkscape:pagecheckerboard="false"
     showgrid="false"
     inkscape:zoom="1.2402344"
     inkscape:cx="391.45827"
     inkscape:cy="256"
     inkscape:window-width="1716"
     inkscape:window-height="1413"
     inkscape:window-x="1440"
     inkscape:window-y="673"
     inkscape:window-maximized="1"
     inkscape:current-layer="svg2871" />
  <path
     d="m 19.455,17.016 1.717,345.656 c 15.677,8.52 35.932,6.66 49.75,-1.625 16.377,-10.994 19.86,-25.201 11.346,-39.719 C 23.28,223.543 36.424,131.91 87.955,80.486 c 51.53,-51.424 140.25,-61.074 224.688,-1.627 13.64,9.602 20.365,9.61 24.593,7.657 18.702,-19.697 21.81,-43.01 26.063,-68.813 z M 192.08,56.295 c -4.418,0.057 -8.754,0.3 -13.033,0.75 l 98.97,66.691 16.53,-34.595 C 261.985,71.343 224.73,56.293 192.08,56.295 Z m -71.123,33.271 -3.73,17.61 c 57.04,18.075 102.46,11.942 144.98,59.682 15.383,17.271 33.365,57.686 53.016,69.8 32.681,12.43 53.701,-6.904 81.691,-12.902 37.77,-0.187 56.574,56.11 65.28,86.252 l 17.353,-4.781 c -14.027,-43.894 -48.127,-105.21 -86.27,-99.1 -21.857,3.607 -51.379,24.162 -68.85,15.064 -12.645,-16.527 -33.477,-59.212 -45.416,-71.924 -54.314,-42.71 -91.503,-45.302 -158.054,-59.7 z m -31.658,31.842 -7.338,16.436 c 49.115,25.31 108.604,49.194 151.504,88.33 20.722,23.473 27.135,60.83 51.875,75.26 20.624,13.592 58.792,-6.191 75.812,3.017 29.144,25.403 43.935,56.729 57.233,92.516 l 16.94,-6.086 c -16.039,-34.888 -32.092,-81.84 -65.151,-102.006 -20.793,-14.056 -58.732,5.845 -76.078,-3.168 -24.742,-18.789 -28.585,-53.611 -48.334,-72.678 -50.073,-39.844 -98.611,-65.607 -156.463,-91.62 z M 79.516,161.66 68,175.494 c 0,0 78.82,66.142 107.45,104.465 16.519,26.386 20.846,65.049 44.046,81.766 26.927,20.17 81.684,-3.604 102.795,12.418 22.115,27.829 28.526,61.222 32.219,96.017 l 17.92,-1.685 C 365.911,432.807 361.188,383.623 333.605,360.143 306.353,337.22 252.729,361.82 229.735,346.92 206.585,325.922 206.078,291.511 189.869,269.186 157.864,226.344 79.516,161.66 79.516,161.66 Z m -17.782,32.856 0.002,0.004 v -0.004 z m 0.002,0.004 c 0.081,32.477 9.462,69.047 31.094,107.84 l 22.125,-13.126 z"
     fill="#ff0ec0"
     fill-opacity="1"
     id="path2867"
     sodipodi:nodetypes="ccccccccccccccccccccccccccccccccccccccccccccccccccccccccc" />
</svg>
