<?xml version="1.0" encoding="UTF-8" standalone="no"?>
<svg
   width="512" height="512"
   viewBox="0 0 512 512"
   version="1.1"
   id="svg2871"
   sodipodi:docname="choking2.svg"
   inkscape:version="1.1.2 (0a00cf5339, 2022-02-04, custom)"
   xmlns:inkscape="http://www.inkscape.org/namespaces/inkscape"
   xmlns:sodipodi="http://sodipodi.sourceforge.net/DTD/sodipodi-0.dtd"
   xmlns="http://www.w3.org/2000/svg"
   xmlns:svg="http://www.w3.org/2000/svg">
  <defs
     id="defs2875" />
  <sodipodi:namedview
     id="namedview2873"
     pagecolor="#000000"
     bordercolor="#666666"
     borderopacity="1.0"
     inkscape:pageshadow="2"
     inkscape:pageopacity="0"
     inkscape:pagecheckerboard="false"
     showgrid="false"
     inkscape:zoom="1.2402344"
     inkscape:cx="391.45827"
     inkscape:cy="256"
     inkscape:window-width="1716"
     inkscape:window-height="1413"
     inkscape:window-x="1440"
     inkscape:window-y="673"
     inkscape:window-maximized="1"
     inkscape:current-layer="svg2871" />
  <path
     d="m 19.455,17.016 1.717,345.656 c 15.677,8.52 35.932,6.66 49.75,-1.625 16.377,-10.994 19.86,-25.201 11.346,-39.719 C 23.28,223.543 36.424,131.91 87.955,80.486 c 51.53,-51.424 140.25,-61.074 224.688,-1.627 13.64,9.602 20.365,9.61 24.593,7.657 18.702,-19.697 21.81,-43.01 26.063,-68.813 z M 192.08,56.295 c -4.418,0.057 -8.754,0.3 -13.033,0.75 l 98.97,66.691 16.53,-34.595 C 261.985,71.343 224.73,56.293 192.08,56.295 Z m -102.781,65.113 -7.338,16.436 c 49.115,25.31 108.604,49.194 151.504,88.33 20.722,23.473 27.135,60.83 51.875,75.26 20.624,13.592 58.792,-6.191 75.812,3.017 29.144,25.403 43.935,56.729 57.233,92.516 l 16.94,-6.086 c -16.039,-34.888 -32.092,-81.84 -65.151,-102.006 -20.793,-14.056 -58.732,5.845 -76.078,-3.168 -24.742,-18.789 -28.585,-53.611 -48.334,-72.678 -50.073,-39.844 -98.611,-65.607 -156.463,-91.62 z m -27.565,73.108 0.002,0.004 v -0.004 z m 0.002,0.004 c 0.081,32.477 9.462,69.047 31.094,107.84 l 22.125,-13.126 z"
     fill="#ff0ec0"
     fill-opacity="1"
     id="path2867"
     sodipodi:nodetypes="cccccccccccccccccccccccccccccccccc" />
</svg>
