<?xml version="1.0" encoding="UTF-8" standalone="no"?>
<!-- Created with Inkscape (http://www.inkscape.org/) -->

<svg
   version="1.1"
   id="svg2"
   width="512"
   height="512"
   viewBox="0 0 512 512"
   sodipodi:docname="concussion.svg"
   inkscape:version="1.1.1 (3bf5ae0d25, 2021-09-20)"
   xmlns:inkscape="http://www.inkscape.org/namespaces/inkscape"
   xmlns:sodipodi="http://sodipodi.sourceforge.net/DTD/sodipodi-0.dtd"
   xmlns="http://www.w3.org/2000/svg"
   xmlns:svg="http://www.w3.org/2000/svg">
  <defs
     id="defs6" />
  <sodipodi:namedview
     id="namedview4"
     pagecolor="#505050"
     bordercolor="#eeeeee"
     borderopacity="1"
     inkscape:pageshadow="0"
     inkscape:pageopacity="0"
     inkscape:pagecheckerboard="0"
     showgrid="false"
     inkscape:zoom="1.2788086"
     inkscape:cx="256.87972"
     inkscape:cy="270.17335"
     inkscape:window-width="1716"
     inkscape:window-height="1414"
     inkscape:window-x="3160"
     inkscape:window-y="587"
     inkscape:window-maximized="1"
     inkscape:current-layer="g827" />
  <g
     inkscape:groupmode="layer"
     inkscape:label="Image"
     id="g8">
    <g
       id="g827"
       style="fill:#ff0ec0">
      <path
         id="path1228"
         style="fill:#ff0ec0;fill-opacity:1;stroke:none;stroke-width:86.1686;stroke-linejoin:round;stroke-miterlimit:4;stroke-dasharray:none;stroke-opacity:1;paint-order:markers stroke fill"
         d="m 160.16019,21.555738 c -5.59303,-0.27397 -11.90686,1.857417 -17.1358,2.786828 -9.28016,1.598459 -30.26078,10.421942 -40.10773,16.868592 C 92.645659,47.905355 82.811321,55.245067 74.157781,65.045638 49.786578,92.278387 37.853024,122.87736 37.97832,157.81002 c 0.02946,8.21473 0.201356,15.71214 0.382047,16.65999 1.21328,5.89608 3.919621,9.61426 10.022243,9.62145 6.48192,-0.30369 10.278284,-5.98308 10.364448,-7.76747 0.03396,-0.70372 0.01282,-7.48569 -0.04454,-15.06854 -0.257109,-33.99416 11.234109,-62.540571 34.501264,-85.714121 8.280368,-8.247036 21.001048,-17.600782 28.306518,-20.813265 10.34355,-4.582095 17.50082,-7.309099 31.16835,-10.751174 8.38635,-1.247111 9.61207,-1.531197 12.87235,-2.974335 6.66299,-2.949325 6.59491,-14.651439 -0.10551,-18.237388 -1.63765,-0.758848 -3.421,-1.118093 -5.28534,-1.209429 z m 25.95799,47.694748 c -4.29611,-0.456377 -10.91221,0.521431 -19.43511,2.896981 -4.98482,1.476121 -9.8185,3.393497 -16.08574,6.307261 -2.24825,0.441641 -14.35451,8.391834 -19.70932,12.942662 -24.02938,20.42165 -38.813562,54.62711 -36.123208,83.5742 0.80012,8.60902 2.752282,12.77296 6.783058,14.46617 3.75968,1.57933 8.81452,0.32598 11.83404,-2.93215 2.46717,-2.66209 2.6468,-3.68957 2.24772,-12.92157 -1.26641,-29.29754 13.0993,-56.68653 37.80843,-72.08705 10.01134,-6.239789 19.54328,-9.764424 31.57149,-11.669966 5.9559,-0.943573 9.08364,-3.511647 9.95897,-8.177643 0.91539,-4.879468 -1.12019,-9.24889 -5.34161,-11.46136 -0.9007,-0.472061 -2.07669,-0.785418 -3.50872,-0.937535 z m 89.59316,50.071394 c -9.34999,0 -16.95297,7.60538 -16.95297,16.96 v 197.16355 c 0,0.21804 -0.14064,0.43615 -0.14064,0.67738 0,0.87909 0.14064,1.74335 0.14064,2.59461 v 44.91262 0.18751 0.26015 h 0.009 c 0.30385,15.85624 12.34048,26.63068 27.11351,26.63068 14.4135,0 26.23878,-11.26804 27.08772,-25.46814 2.28009,0.44535 4.57075,0.68676 6.83228,0.68676 19.95252,0 36.18182,-16.22458 36.18182,-36.17245 0,-3.06408 -0.3993,-6.08254 -1.15084,-9.01674 21.47877,-6.38563 37.19201,-26.29837 37.19201,-49.82293 0,-14.41118 -5.90072,-27.47014 -15.41307,-36.89668 4.29344,-8.11136 6.58385,-17.20919 6.58385,-26.44551 0,-24.73072 -16.17185,-46.62828 -39.58507,-54.00435 0.69818,-3.10584 1.0477,-6.21982 1.0477,-9.2816 0,-23.68461 -19.27092,-42.95548 -42.95785,-42.95548 z m -47.49786,0.49689 -25.9908,0.009 c -23.6823,0 -42.95081,19.26619 -42.95081,42.95081 0,3.06408 0.35184,6.17809 1.04769,9.28392 -23.41323,7.37841 -39.58036,29.27129 -39.58036,54.002 0,9.23866 2.28799,18.33655 6.5768,26.45255 -9.50771,9.4219 -15.41072,22.48085 -15.41072,36.89433 0,23.52458 15.71326,43.43729 37.19433,49.82061 -0.75616,2.93882 -1.1555,5.95965 -1.1555,9.02143 0,19.95251 16.23161,36.1818 36.1818,36.1818 2.26618,0 4.55223,-0.22731 6.83462,-0.67034 0.84896,14.20242 12.66721,25.49627 27.0807,25.49627 14.8774,0 27.12757,-12.03416 27.12757,-26.87444 v -0.075 -245.53802 c -0.002,-9.34997 -7.60302,-16.9553 -16.95532,-16.9553 z m 180.31607,208.31786 c -8.91763,0.043 -10.6119,7.01345 -11.30902,16.4139 -2.75487,38.81102 -33.9326,70.90232 -71.98861,74.09806 -11.90284,0.99953 -13.67506,1.5861 -15.50683,5.12831 -3.105,6.00442 -1.35469,12.60555 4.14391,15.62168 4.49104,2.46349 26.80169,-0.0538 36.06462,-4.0689 19.62229,-8.50546 24.90123,-11.82183 36.59198,-22.98836 13.49438,-12.88927 21.02761,-24.58916 26.45254,-41.08043 2.17516,-6.79272 12.04045,-42.46847 -4.44859,-43.12426 z m 58.0662,14.56227 c -8.47005,-1.25156 -13.03778,8.04284 -14.21067,19.61792 -2.52289,26.48457 -10.99749,46.40942 -28.70029,67.47905 -5.91068,7.03482 -19.04184,17.81339 -27.79321,22.81258 -17.65983,10.08809 -29.19936,13.59098 -51.12846,15.52323 -13.02271,1.14748 -17.2319,4.0698 -17.2319,11.96059 0.28479,16.98557 30.64859,8.5719 41.62655,6.1432 0.56279,-0.34781 2.66192,-0.8915 4.66423,-1.20707 7.37596,-1.16247 31.36454,-12.11052 38.46003,-17.553 19.18888,-14.71847 30.09332,-25.51869 37.28341,-36.9248 1.03953,-1.64907 2.57219,-3.71773 3.40559,-4.59628 2.46267,-2.59602 10.04355,-18.78504 13.58957,-29.01903 3.81407,-11.00761 8.17239,-25.98654 7.36434,-39.52882 -0.3093,-5.18351 0.116,-9.41774 -3.45951,-13.50049 -1.37081,-0.63328 -2.65967,-1.02828 -3.86968,-1.20708 z" />
      <g
         id="g1428"
         transform="matrix(0.48321537,0,0,0.48321537,-285.26778,214.42144)">
        <g
           id="g1364">
          <g
             id="g1362" />
        </g>
        <g
           id="g1370">
          <g
             id="g1368" />
        </g>
        <g
           id="g1372" />
        <g
           id="g1374" />
        <g
           id="g1376" />
        <g
           id="g1378" />
        <g
           id="g1380" />
        <g
           id="g1382" />
        <g
           id="g1384" />
        <g
           id="g1386" />
        <g
           id="g1388" />
        <g
           id="g1390" />
        <g
           id="g1392" />
        <g
           id="g1394" />
        <g
           id="g1396" />
        <g
           id="g1398" />
        <g
           id="g1400" />
      </g>
    </g>
  </g>
</svg>
