<?xml version="1.0" encoding="UTF-8" standalone="no"?>
<!-- Created with Inkscape (http://www.inkscape.org/) -->

<svg
   version="1.1"
   id="svg2"
   width="512"
   height="512"
   viewBox="0 0 512 512"
   sodipodi:docname="crushed-windpipe.svg"
   inkscape:version="1.1.1 (3bf5ae0d25, 2021-09-20)"
   xmlns:inkscape="http://www.inkscape.org/namespaces/inkscape"
   xmlns:sodipodi="http://sodipodi.sourceforge.net/DTD/sodipodi-0.dtd"
   xmlns="http://www.w3.org/2000/svg"
   xmlns:svg="http://www.w3.org/2000/svg">
  <defs
     id="defs6" />
  <sodipodi:namedview
     id="namedview4"
     pagecolor="#505050"
     bordercolor="#eeeeee"
     borderopacity="1"
     inkscape:pageshadow="0"
     inkscape:pageopacity="0"
     inkscape:pagecheckerboard="0"
     showgrid="false"
     inkscape:zoom="0.9042542"
     inkscape:cx="393.14166"
     inkscape:cy="269.28269"
     inkscape:window-width="1716"
     inkscape:window-height="1414"
     inkscape:window-x="3160"
     inkscape:window-y="587"
     inkscape:window-maximized="1"
     inkscape:current-layer="g827" />
  <g
     inkscape:groupmode="layer"
     inkscape:label="Image"
     id="g8">
    <g
       id="g827"
       style="fill:#ff0ec0">
      <g
         id="g958"
         transform="matrix(8.3092999,0,0,8.3092999,-601.22909,65.721365)"
         style="fill:#ff0ec0;fill-opacity:1;stroke:none">
        <g
           id="g903"
           style="fill:#ff0ec0;fill-opacity:1;stroke:none">
          <g
             id="g901"
             style="fill:#ff0ec0;fill-opacity:1;stroke:none">
            <path
               id="path899"
               style="fill:#ff0ec0;fill-opacity:1;stroke:none;stroke-width:60;stroke-linejoin:round;stroke-miterlimit:4;stroke-dasharray:none;stroke-opacity:1;paint-order:markers stroke fill"
               d="m -485.19922,-0.13671875 c 0,0 -115.88563,6.66235695 -99.7539,137.10937875 0,0 2.16785,7.93961 -7.49024,7.67773 -11.89977,-0.31425 -13.01088,28.67196 12.72656,48.48047 0,0 5.99253,33.58359 21.5586,46.24805 0,0 10.71536,51.725 -8.03516,78.70898 0,0 -12.27637,28.59766 -100.84375,41.77539 0,0 -87.72896,0.8592 -99.66016,119.7207 l 580.65821,0.0312 c -12.11975,-118.8615 -99.70313,-119.7207 -99.70313,-119.7207 -88.52547,-13.17773 -100.84375,-41.77539 -100.84375,-41.77539 -18.75051,-26.98398 -8.03515,-78.70898 -8.03515,-78.70898 15.55559,-12.65398 21.55859,-46.24805 21.55859,-46.24805 25.83171,-19.80851 24.56401,-48.79277 12.63281,-48.47852 -9.57428,0.25141 -7.40625,-7.67968 -7.40625,-7.67968 C -351.68326,6.5254628 -467.51758,-0.13671875 -467.51758,-0.13671875 Z M -464.33398,241.89258 c 4.01135,0.24034 7.18294,2.49491 9.13476,6.58789 0.75448,12.35685 -13.42502,33.08599 -18.72851,42.81641 -2.42575,2.62472 -0.67844,5.4337 7.88867,12.68554 15.85961,13.42473 16.24804,13.90629 16.24804,20.11524 0,6.65925 -0.0324,6.6882 -22.24804,20.44922 -9.26999,5.74209 -15.56902,10.43752 -15.35352,11.4414 0.20101,0.93633 10.30362,6.65709 22.45117,12.71484 24.13175,12.03405 26.6579,14.31755 24.43164,22.08008 -1.4357,5.00598 -5.66932,7.96698 -14.96093,10.4668 -18.7776,5.41901 -35.41113,9.83928 -56.16992,15.96094 -7.42471,2.18855 -15.58061,2.46429 -17.9375,0.60742 -3.51333,-2.76793 -5.04359,-8.24391 -3.55469,-12.7207 1.31018,-3.9394 7.19698,-8.3353 11.17969,-8.34571 3.10626,-1.6665 33.3593,-8.25035 35.39843,-10.53125 2.02356,-2.43824 -0.33895,-4.079 -19.2207,-13.35742 -13.96251,-6.86111 -16.46501,-8.55135 -17.95899,-12.12695 -3.01688,-7.22043 -0.69255,-10.80183 12.20899,-18.82031 4.33221,-3.15323 29.91634,-15.84789 30.16601,-19.60157 -4.29113,-8.64385 -14.97756,-11.96117 -18.67382,-21.32226 0,0 11.09665,-27.60847 23.41015,-50.6543 3.01629,-5.6479 4.51001,-7.14146 8.01172,-8.00781 1.51005,-0.3736 2.94023,-0.51762 4.27735,-0.4375 z"
               transform="matrix(0.09546404,0,0,0.09546404,148.64105,0.01300309)" />
          </g>
        </g>
        <g
           id="g905"
           style="fill:#ff0ec0;fill-opacity:1;stroke:none" />
        <g
           id="g907"
           style="fill:#ff0ec0;fill-opacity:1;stroke:none" />
        <g
           id="g909"
           style="fill:#ff0ec0;fill-opacity:1;stroke:none" />
        <g
           id="g911"
           style="fill:#ff0ec0;fill-opacity:1;stroke:none" />
        <g
           id="g913"
           style="fill:#ff0ec0;fill-opacity:1;stroke:none" />
        <g
           id="g915"
           style="fill:#ff0ec0;fill-opacity:1;stroke:none" />
        <g
           id="g917"
           style="fill:#ff0ec0;fill-opacity:1;stroke:none" />
        <g
           id="g919"
           style="fill:#ff0ec0;fill-opacity:1;stroke:none" />
        <g
           id="g921"
           style="fill:#ff0ec0;fill-opacity:1;stroke:none" />
        <g
           id="g923"
           style="fill:#ff0ec0;fill-opacity:1;stroke:none" />
        <g
           id="g925"
           style="fill:#ff0ec0;fill-opacity:1;stroke:none" />
        <g
           id="g927"
           style="fill:#ff0ec0;fill-opacity:1;stroke:none" />
        <g
           id="g929"
           style="fill:#ff0ec0;fill-opacity:1;stroke:none" />
        <g
           id="g931"
           style="fill:#ff0ec0;fill-opacity:1;stroke:none" />
        <g
           id="g933"
           style="fill:#ff0ec0;fill-opacity:1;stroke:none" />
      </g>
    </g>
  </g>
</svg>
