<?xml version="1.0" encoding="UTF-8" standalone="no"?>
<!-- Created with Inkscape (http://www.inkscape.org/) -->

<svg
   version="1.1"
   id="svg2"
   width="512"
   height="512"
   viewBox="0 0 512 512"
   sodipodi:docname="damaged-ear.svg"
   inkscape:version="1.1.1 (3bf5ae0d25, 2021-09-20)"
   xmlns:inkscape="http://www.inkscape.org/namespaces/inkscape"
   xmlns:sodipodi="http://sodipodi.sourceforge.net/DTD/sodipodi-0.dtd"
   xmlns="http://www.w3.org/2000/svg"
   xmlns:svg="http://www.w3.org/2000/svg">
  <defs
     id="defs6" />
  <sodipodi:namedview
     id="namedview4"
     pagecolor="#505050"
     bordercolor="#eeeeee"
     borderopacity="1"
     inkscape:pageshadow="0"
     inkscape:pageopacity="0"
     inkscape:pagecheckerboard="0"
     showgrid="false"
     inkscape:zoom="1.2788086"
     inkscape:cx="245.93203"
     inkscape:cy="258.44368"
     inkscape:window-width="1716"
     inkscape:window-height="1414"
     inkscape:window-x="3160"
     inkscape:window-y="587"
     inkscape:window-maximized="1"
     inkscape:current-layer="g4177" />
  <g
     inkscape:groupmode="layer"
     inkscape:label="Image"
     id="g8">
    <g
       id="g827"
       style="fill:#ff0ec0">
      <g
         id="g2968">
        <g
           id="g2978"
           transform="matrix(0.68651129,0,0,0.68651129,-30.260265,30.807018)">
          <g
             id="g965"
             style="stroke:none">
            <g
               id="g4177"
               transform="translate(-8.3868503,-27.244827)"
               style="stroke:none">
              <g
                 id="g2972"
                 transform="matrix(1.1767013,0,0,1.1767013,-765.65926,-21.246947)"
                 style="fill:#ff0ec0;fill-opacity:1;stroke:none">
                <path
                   style="fill:#ff0ec0;fill-opacity:1;stroke:none;stroke-width:100;stroke-linejoin:round;stroke-miterlimit:4;stroke-dasharray:none;stroke-opacity:1;paint-order:markers stroke fill"
                   d="m 757.77229,517.94315 c 1.656,-5.99766 8.9979,-12.62377 15.2968,-13.80544 9.7831,-1.83533 20.4203,5.11316 22.72,14.8414 1.9932,8.43135 10.3637,22.05878 17.6266,28.69664 13.8027,12.61496 29.1948,18.08948 47.3594,16.84444 8.985,-0.61584 12.4551,-1.60506 21.6994,-6.18578 14.4195,-7.14514 21.4942,-14.18988 28.5499,-28.42887 5.4295,-10.95705 5.7114,-12.14059 6.8659,-28.81963 1.5086,-21.79356 5.7454,-38.78885 13.5283,-54.26631 11.5907,-23.04984 23.9308,-36.89015 62.1849,-69.7452 40.81401,-35.05363 51.68191,-46.62441 65.70131,-69.95051 12.4844,-20.77205 18.8398,-42.84848 20.9654,-72.826 2.3163,-32.66844 -1.6788,-54.98564 -14.4527,-80.73344 -22.8501,-46.05823 -63.2687,-73.98364 -114.72521,-79.264069 -22.9508,-2.355197 -51.0583,1.888239 -70.3016,10.613539 -45.0794,20.44002 -74.6474,57.37537 -84.454,105.49738 -1.5326,7.52031 -3.7326,15.27493 -4.889,17.23249 -6.6506,11.25872 -25.4745,10.98188 -32.4616,-0.47741 -8.219,-13.47959 4.5365,-58.0994 26.0393,-91.08763 9.857,-15.12185 32.5631,-38.31546 47.5778,-48.59923 20.9573,-14.353985 46.6861,-25.215215 71.4488,-30.161663 15.7744,-3.150992 51.1392,-3.161558 66.9881,-0.02001 37.00291,7.334705 68.83521,24.459029 95.98031,51.633073 21.2181,21.24067 35.5169,44.62435 44.4146,72.63353 6.8769,21.64805 8.2505,31.50073 8.179,58.66666 -0.1284,48.74751 -9.538,81.86955 -33.4648,117.79819 -13.0261,19.56018 -30.4985,37.66962 -62.4425,64.71921 -29.87961,25.30156 -42.37101,37.67084 -50.70981,50.21417 -10.7847,16.2225 -14.3761,28.02003 -15.9547,52.41047 -1.4491,22.39009 -6.9824,38.65115 -19.3475,56.85798 -11.9942,17.66065 -34.5931,33.02428 -57.0099,38.75752 -48.272,18.17222 -132.0042,-28.08835 -122.9125,-83.0455 z m 310.23471,-33.40624 107.9876,64.67136 -42.0544,43.63499 z m 54.0557,-76.43954 118.4745,25.54582 -15.6837,45.45544 z m -273.68931,-9.47456 c -3.1094,-1.13665 -8.0616,-6.023 -10.1267,-9.99214 -4.1324,-7.94235 -0.8952,-19.2392 6.9945,-24.40874 1.9181,-1.25681 7.6443,-2.80705 12.7247,-3.44497 11.9601,-1.50176 19.5434,-4.94489 26.7392,-12.14067 8.7969,-8.79696 12.249,-16.98313 12.2596,-29.07184 0.011,-12.54295 -3.5321,-21.08391 -12.3315,-29.72704 -7.6898,-7.55325 -15.4702,-11.03753 -27.3446,-12.24571 -7.4522,-0.75821 -9.9053,-1.64472 -13.6502,-4.93278 -6.9879,-6.13544 -7.6269,-10.20551 -6.993,-44.54391 0.5379,-29.1419 0.7338,-31.04239 4.2471,-41.21723 12.2695,-35.53395 37.0425,-58.67147 73.0789,-68.25426 11.4277,-3.03886 36.0746,-2.98845 47.7353,0.0976 43.53271,11.52123 75.53771,51.02978 76.45131,94.37523 0.2341,11.1047 -1.335,14.66925 -8.9648,20.36567 -5.0289,3.75466 -15.2774,3.75466 -20.3063,0 -6.8797,-5.13642 -8.5562,-8.74133 -9.83661,-21.1514 -3.4685,-33.61889 -28.4823,-56.76617 -61.3436,-56.76617 -26.9898,0 -49.0502,15.37658 -58.6493,40.87977 -2.2792,6.05535 -3.0924,11.78949 -3.6574,25.7869 l -0.7265,18 10.8223,4.42097 c 13.8108,5.64179 24.4815,13.523 33.28,24.58023 13.1407,16.51424 18.3147,32.62622 17.2304,53.65701 -1.2014,23.30206 -8.8225,39.55963 -25.9959,55.45488 -10.5749,9.78779 -22.1535,16.11715 -35.0408,19.1547 -8.4029,1.9806 -22.6102,2.58097 -26.5961,1.1239 z m 296.00001,-80.37509 123.5013,-34.10706 -5.1281,65.45774 z"
                   id="path829"
                   sodipodi:nodetypes="cssssssssssssssscsssssssssssssccccccccccssssscsssssscssssssscsssssscccc" />
              </g>
            </g>
          </g>
        </g>
      </g>
    </g>
  </g>
</svg>
