<?xml version="1.0" encoding="UTF-8" standalone="no"?>
<!-- Created with Inkscape (http://www.inkscape.org/) -->

<svg
   version="1.1"
   id="svg2"
   width="682.66669"
   height="682.66669"
   viewBox="0 0 682.66669 682.66669"
   sodipodi:docname="dismembered_leg.svg"
   inkscape:version="1.1.1 (3bf5ae0d25, 2021-09-20)"
   xmlns:inkscape="http://www.inkscape.org/namespaces/inkscape"
   xmlns:sodipodi="http://sodipodi.sourceforge.net/DTD/sodipodi-0.dtd"
   xmlns="http://www.w3.org/2000/svg"
   xmlns:svg="http://www.w3.org/2000/svg">
  <defs
     id="defs6" />
  <sodipodi:namedview
     id="namedview4"
     pagecolor="#505050"
     bordercolor="#eeeeee"
     borderopacity="1"
     inkscape:pageshadow="0"
     inkscape:pageopacity="0"
     inkscape:pagecheckerboard="0"
     showgrid="false"
     inkscape:zoom="0.90425423"
     inkscape:cx="296.92977"
     inkscape:cy="309.09449"
     inkscape:window-width="1716"
     inkscape:window-height="1414"
     inkscape:window-x="3160"
     inkscape:window-y="587"
     inkscape:window-maximized="1"
     inkscape:current-layer="g827" />
  <g
     inkscape:groupmode="layer"
     inkscape:label="Image"
     id="g8">
    <g
       id="g827"
       style="fill:#ff0ec0"
       transform="translate(596.48684,77.211438)">
      <g
         id="g955"
         transform="matrix(5.2948318,0,0,5.2948318,-792.05926,-456.232)"
         style="fill:#ff0ec0;fill-opacity:1;stroke:none;stroke-width:15.5289;stroke-linejoin:round;stroke-miterlimit:4;stroke-dasharray:none;stroke-opacity:1;paint-order:markers stroke fill">
        <g
           id="g900"
           style="fill:#ff0ec0;fill-opacity:1;stroke:none;stroke-width:15.5289;stroke-linejoin:round;stroke-miterlimit:4;stroke-dasharray:none;stroke-opacity:1;paint-order:markers stroke fill">
          <g
             id="g898"
             transform="translate(-5.2918473,-11.455657)"
             style="fill:#ff0ec0;fill-opacity:1;stroke:none;stroke-width:15.5289;stroke-linejoin:round;stroke-miterlimit:4;stroke-dasharray:none;stroke-opacity:1;paint-order:markers stroke fill">
            <path
               id="path896"
               style="fill:#ff0ec0;fill-opacity:1;stroke:none;stroke-width:80;stroke-linejoin:round;stroke-miterlimit:4;stroke-dasharray:none;stroke-opacity:1;paint-order:markers stroke fill"
               d="m -352.48633,6.2910156 c 0,0 -27.4023,65.8282674 -21.35937,114.9238244 4.45105,36.54605 13.03422,114.55817 21.77148,145.36524 4.56439,15.93932 1.8638,56.14881 5.52149,66.18945 1.64854,4.36347 0.78459,8.38078 -2.75977,18.26172 -12.29707,34.5678 -10.7315,58.91612 20.19922,150.63672 0,0 9.52066,20.32275 4.70898,56.83789 0,0 -19.76316,40.65673 -7.10547,41.4707 0,0 0.99044,2.6953 5.27149,0.5625 0,0 6.83514,7.05623 14.22266,3.22852 0,0 6.84228,5.46084 12.68945,0.59765 0,0 4.68716,5.39543 11.52344,1.03711 0,0 8.97465,6.05223 14.30664,-0.50586 0,0 9.47403,2.10309 -7.39258,-40.625 0,0 -6.45972,-45.29977 -10.01953,-54.20703 -6.78993,-16.87177 -1.9945,-63.11355 -0.54688,-73.02539 2.33371,-16.56782 1.082,-44.79287 -3.18359,-66.63086 -3.12192,-15.65082 5.33316,-45.20234 8.45508,-63.36718 6.41385,-38.24097 18.98338,-135.86395 17.41211,-154.3379 l 5.19336,1.82227 c 3.71952,0.0103 6.06835,-1.80665 6.06835,-1.80664 -1.56611,18.44303 10.9519,116.06086 17.41211,154.33789 3.07556,18.13393 11.50895,47.68031 8.47461,63.36719 -0.2373,1.19753 -0.46095,2.42119 -0.67968,3.65429 l 5.07812,-7.75585 6.12305,-45.29883 12.16015,56.19531 2.92383,-46.85547 12.61524,3.94141 2.67187,-18.64844 13.05664,-2.85547 c 0.553,-15.82038 0.49168,-35.96487 3.38867,-46.20508 8.71665,-30.80193 17.31491,-108.91705 21.79688,-145.36523 C -146.46596,72.134908 -173.82031,6.3066406 -173.82031,6.3066406 Z M 4.2792969,109.11523 c -9.4854688,0.34624 -17.1113279,38.01172 -17.1113279,38.01172 -18.413978,31.88646 -38.259766,42.29493 -38.259766,42.29493 -80.285053,54.07986 -96.317923,72.46307 -107.492183,107.43359 -3.29451,10.04244 -4.99408,13.71496 -8.89844,16.18359 -3.2349,2.0429 -8.21123,7.7356 -13.83399,14.58008 l 12.10743,5.66211 13.44921,-13.19141 7.62696,10.79493 30.7832,-35.44727 -24.47266,52.02734 32.37891,-32.26562 8.74414,-3.07617 c 15.924067,-14.61224 32.586242,-34.75768 40.253908,-48.49805 4.881736,-8.86141 29.146765,-48.3952 44.779296,-57.6875 8.1914891,-4.87808 40.900391,-36.96094 40.900391,-36.96094 39.396638,-23.66411 30.533203,-27.79687 30.533203,-27.79687 -0.257069,-8.28973 -10.984375,-9.03516 -10.984375,-9.03516 -2.783507,-7.6146 -9.820312,-6.20312 -9.820312,-6.20312 -1.710617,-7.42327 -10.460938,-7.2461 -10.460938,-7.2461 -3.531429,-7.51847 -13.248047,-6.06445 -13.248047,-6.06445 -2.0685559,-4.26642 -4.5273435,-2.75391 -4.5273435,-2.75391 -0.8270709,-0.55233 -1.6434123,-0.79106 -2.4472656,-0.76172 z M -140.875,370.16016 l 39.46289,61.375 17.107422,-22.29493 z m -39.93164,13.77343 21.10937,74.12696 25.23829,-20.13086 z m -37.68945,2.00391 -15.23438,66.24414 22.01172,9.07227 z"
               transform="matrix(0.19411124,0,0,0.19411124,154.25065,88.314803)" />
          </g>
        </g>
        <g
           id="g902"
           style="fill:#ff0ec0;fill-opacity:1;stroke:none;stroke-width:15.5289;stroke-linejoin:round;stroke-miterlimit:4;stroke-dasharray:none;stroke-opacity:1;paint-order:markers stroke fill" />
        <g
           id="g904"
           style="fill:#ff0ec0;fill-opacity:1;stroke:none;stroke-width:15.5289;stroke-linejoin:round;stroke-miterlimit:4;stroke-dasharray:none;stroke-opacity:1;paint-order:markers stroke fill" />
        <g
           id="g906"
           style="fill:#ff0ec0;fill-opacity:1;stroke:none;stroke-width:15.5289;stroke-linejoin:round;stroke-miterlimit:4;stroke-dasharray:none;stroke-opacity:1;paint-order:markers stroke fill" />
        <g
           id="g908"
           style="fill:#ff0ec0;fill-opacity:1;stroke:none;stroke-width:15.5289;stroke-linejoin:round;stroke-miterlimit:4;stroke-dasharray:none;stroke-opacity:1;paint-order:markers stroke fill" />
        <g
           id="g910"
           style="fill:#ff0ec0;fill-opacity:1;stroke:none;stroke-width:15.5289;stroke-linejoin:round;stroke-miterlimit:4;stroke-dasharray:none;stroke-opacity:1;paint-order:markers stroke fill" />
        <g
           id="g912"
           style="fill:#ff0ec0;fill-opacity:1;stroke:none;stroke-width:15.5289;stroke-linejoin:round;stroke-miterlimit:4;stroke-dasharray:none;stroke-opacity:1;paint-order:markers stroke fill" />
        <g
           id="g914"
           style="fill:#ff0ec0;fill-opacity:1;stroke:none;stroke-width:15.5289;stroke-linejoin:round;stroke-miterlimit:4;stroke-dasharray:none;stroke-opacity:1;paint-order:markers stroke fill" />
        <g
           id="g916"
           style="fill:#ff0ec0;fill-opacity:1;stroke:none;stroke-width:15.5289;stroke-linejoin:round;stroke-miterlimit:4;stroke-dasharray:none;stroke-opacity:1;paint-order:markers stroke fill" />
        <g
           id="g918"
           style="fill:#ff0ec0;fill-opacity:1;stroke:none;stroke-width:15.5289;stroke-linejoin:round;stroke-miterlimit:4;stroke-dasharray:none;stroke-opacity:1;paint-order:markers stroke fill" />
        <g
           id="g920"
           style="fill:#ff0ec0;fill-opacity:1;stroke:none;stroke-width:15.5289;stroke-linejoin:round;stroke-miterlimit:4;stroke-dasharray:none;stroke-opacity:1;paint-order:markers stroke fill" />
        <g
           id="g922"
           style="fill:#ff0ec0;fill-opacity:1;stroke:none;stroke-width:15.5289;stroke-linejoin:round;stroke-miterlimit:4;stroke-dasharray:none;stroke-opacity:1;paint-order:markers stroke fill" />
        <g
           id="g924"
           style="fill:#ff0ec0;fill-opacity:1;stroke:none;stroke-width:15.5289;stroke-linejoin:round;stroke-miterlimit:4;stroke-dasharray:none;stroke-opacity:1;paint-order:markers stroke fill" />
        <g
           id="g926"
           style="fill:#ff0ec0;fill-opacity:1;stroke:none;stroke-width:15.5289;stroke-linejoin:round;stroke-miterlimit:4;stroke-dasharray:none;stroke-opacity:1;paint-order:markers stroke fill" />
        <g
           id="g928"
           style="fill:#ff0ec0;fill-opacity:1;stroke:none;stroke-width:15.5289;stroke-linejoin:round;stroke-miterlimit:4;stroke-dasharray:none;stroke-opacity:1;paint-order:markers stroke fill" />
        <g
           id="g930"
           style="fill:#ff0ec0;fill-opacity:1;stroke:none;stroke-width:15.5289;stroke-linejoin:round;stroke-miterlimit:4;stroke-dasharray:none;stroke-opacity:1;paint-order:markers stroke fill" />
      </g>
    </g>
  </g>
</svg>
