<?xml version="1.0" encoding="UTF-8" standalone="no"?>
<!-- Created with Inkscape (http://www.inkscape.org/) -->

<svg
   version="1.1"
   id="svg2"
   width="512"
   height="512"
   viewBox="0 0 512 512"
   sodipodi:docname="foreign-object.svg"
   inkscape:version="1.1.1 (3bf5ae0d25, 2021-09-20)"
   xmlns:inkscape="http://www.inkscape.org/namespaces/inkscape"
   xmlns:sodipodi="http://sodipodi.sourceforge.net/DTD/sodipodi-0.dtd"
   xmlns="http://www.w3.org/2000/svg"
   xmlns:svg="http://www.w3.org/2000/svg">
  <defs
     id="defs6" />
  <sodipodi:namedview
     id="namedview4"
     pagecolor="#505050"
     bordercolor="#eeeeee"
     borderopacity="1"
     inkscape:pageshadow="0"
     inkscape:pageopacity="0"
     inkscape:pagecheckerboard="0"
     showgrid="false"
     inkscape:zoom="1"
     inkscape:cx="291.5"
     inkscape:cy="246.5"
     inkscape:window-width="1716"
     inkscape:window-height="1414"
     inkscape:window-x="3160"
     inkscape:window-y="587"
     inkscape:window-maximized="1"
     inkscape:current-layer="g930"
     showguides="true"
     inkscape:guide-bbox="true" />
  <g
     inkscape:groupmode="layer"
     inkscape:label="Image"
     id="g8">
    <g
       id="g827"
       style="fill:#ff0ec0">
      <g
         id="g987"
         transform="matrix(12.442771,0,0,12.442771,-608.27472,5.3889781)">
        <g
           id="g932"
           transform="translate(-2.9121609,1.731791)">
          <g
             id="g930"
             style="stroke:#ffffff;stroke-width:4.82208;stroke-linejoin:round;stroke-miterlimit:4;stroke-dasharray:none;stroke-opacity:1;paint-order:markers stroke fill"
             transform="matrix(1.0168878,0,0,1.0168878,-40.762901,-1.3981404)">
            <path
               id="path928"
               style="fill:#ff0ec0;fill-opacity:1;stroke:none;stroke-width:5.25895;stroke-linejoin:round;stroke-miterlimit:4;stroke-dasharray:none;stroke-opacity:1;paint-order:markers stroke fill"
               d="m 110.30907,1.3916934 c 0,0 -12.065268,0.693608 -10.385743,14.2748336 0,0 0.225763,0.826721 -0.779768,0.799456 -1.238926,-0.03272 -1.354597,2.984867 1.325011,5.047189 0,0 0.62384,3.496521 2.24447,4.815055 0,0 1.11574,5.385303 -0.83644,8.194686 0,0 -0.69504,1.618761 -4.756848,3.019103 l 28.272848,0.02328 c -4.11265,-1.404857 -4.81659,-3.039132 -4.81659,-3.039131 -1.95217,-2.809383 -0.83661,-8.194686 -0.83661,-8.194686 1.61954,-1.317442 2.24447,-4.815055 2.24447,-4.815055 2.68942,-2.062322 2.55745,-5.079907 1.31525,-5.04719 -0.9968,0.02618 -0.77104,-0.799456 -0.77104,-0.799456 C 124.20978,2.0852856 112.14987,1.3916967 112.14987,1.3916967 Z m 0.80699,5.5539105 c 2.02283,0 3.6444,0.5332111 4.8647,1.5995975 1.23129,1.0663864 1.8468,2.4735476 1.8468,4.2215416 0,0.83552 -0.19775,1.632615 -0.59352,2.391179 -0.39578,0.747569 -1.08847,1.594144 -2.0779,2.539601 l -1.45118,1.418136 c -0.5167,0.516702 -0.88498,0.923412 -1.10486,1.220241 -0.20888,0.285835 -0.35731,0.566214 -0.44526,0.841056 -0.066,0.230866 -0.11544,0.511245 -0.14843,0.841054 -0.0329,0.329811 -0.0495,0.780558 -0.0495,1.352229 v 2.028256 h -3.14955 v -2.539428 c 0,-1.110362 0.15387,-2.022908 0.4617,-2.737498 0.30782,-0.714587 0.95648,-1.544669 1.94591,-2.490126 l 1.48405,-1.46761 c 0.62663,-0.582664 1.07738,-1.132368 1.35222,-1.649071 0.28584,-0.516704 0.42883,-1.044303 0.42883,-1.582992 0,-0.978438 -0.36284,-1.770093 -1.08843,-2.374745 -0.71458,-0.6046528 -1.66555,-0.9069644 -2.85287,-0.9069644 -0.8685,0 -1.79754,0.1924732 -2.78697,0.5772524 -0.97843,0.384778 -2.00082,0.945364 -3.06721,1.681939 V 8.8090054 c 1.03341,-0.62664 2.07789,-1.0937084 3.13329,-1.4015314 1.06639,-0.3078223 2.1658,-0.4618701 3.29814,-0.4618701 z m -2.40762,20.8771111 h 3.34745 v 4.188501 h -3.34745 z" />
          </g>
        </g>
        <g
           id="g934" />
        <g
           id="g936" />
        <g
           id="g938" />
        <g
           id="g940" />
        <g
           id="g942" />
        <g
           id="g944" />
        <g
           id="g946" />
        <g
           id="g948" />
        <g
           id="g950" />
        <g
           id="g952" />
        <g
           id="g954" />
        <g
           id="g956" />
        <g
           id="g958" />
        <g
           id="g960" />
        <g
           id="g962" />
      </g>
    </g>
  </g>
</svg>
