<?xml version="1.0" encoding="UTF-8" standalone="no"?>
<!-- Created with Inkscape (http://www.inkscape.org/) -->

<svg
   version="1.1"
   id="svg2"
   width="512"
   height="512"
   viewBox="0 0 512 512"
   sodipodi:docname="hidden.svg"
   inkscape:version="1.1.1 (3bf5ae0d25, 2021-09-20)"
   xmlns:inkscape="http://www.inkscape.org/namespaces/inkscape"
   xmlns:sodipodi="http://sodipodi.sourceforge.net/DTD/sodipodi-0.dtd"
   xmlns="http://www.w3.org/2000/svg"
   xmlns:svg="http://www.w3.org/2000/svg">
  <defs
     id="defs6" />
  <sodipodi:namedview
     id="namedview4"
     pagecolor="#505050"
     bordercolor="#eeeeee"
     borderopacity="1"
     inkscape:pageshadow="0"
     inkscape:pageopacity="0"
     inkscape:pagecheckerboard="0"
     showgrid="false"
     showguides="true"
     inkscape:guide-bbox="true"
     inkscape:zoom="1.2788086"
     inkscape:cx="326.47575"
     inkscape:cy="173.20809"
     inkscape:window-width="1716"
     inkscape:window-height="1414"
     inkscape:window-x="3160"
     inkscape:window-y="587"
     inkscape:window-maximized="1"
     inkscape:current-layer="g827" />
  <g
     inkscape:groupmode="layer"
     inkscape:label="Image"
     id="g8">
    <g
       id="g827"
       style="fill:#ff0ec0">
      <g
         id="g882"
         transform="matrix(0.98850618,0,0,0.98850618,2.9415622,2.9424179)"
         style="fill:#ff0ec0;fill-opacity:1;stroke:none;stroke-width:100;stroke-linejoin:round;stroke-miterlimit:4;stroke-dasharray:none;stroke-opacity:1;paint-order:markers stroke fill">
        <g
           class=""
           id="g871"
           style="fill:#ff0ec0;fill-opacity:1;stroke:none;stroke-width:100;stroke-linejoin:round;stroke-miterlimit:4;stroke-dasharray:none;stroke-opacity:1;paint-order:markers stroke fill">
          <path
             d="m 280.054,19.867 c -64.315,0 -121.76,28.793 -159.643,73.934 27.387,0.07 87.928,3.05 96.12,25.726 -38.414,-12.105 -79.753,-11.26 -108.534,-9.302 a 201.013,201.013 0 0 0 -13.656,23.314 c 31.507,-8.307 147.998,-3.37 154.8,21.268 -75.985,-18.624 -140.59,-8.65 -162.058,-4.895 -8.768,22.446 -13.584,46.805 -13.584,72.272 0,111.736 96.248,269.949 210.324,269.949 57.808,0 109.1,-40.63 145.637,-95.248 -31.403,23.812 -98.04,57.308 -139.002,34.648 81.592,-8.994 139.965,-50.978 156.19,-63.353 25.207,-47.142 39.959,-100.432 39.959,-145.996 0,-111.737 -92.477,-202.317 -206.553,-202.317 z m -0.002,151.692 c 105.084,0 190.273,27.727 190.273,61.931 0,22.047 -4.495,33.48 -57.797,44.453 -29.39,6.052 -95.127,-31.181 -132.476,-31.181 -34.864,0 -87.12,41.345 -115.219,36.017 C 108.236,272.047 89.78,256.346 89.78,233.49 c 0,-34.204 85.188,-61.931 190.272,-61.931 z m 83.885,39.894 c -20.14,-0.12 -41.571,3.295 -41.475,9.91 0.182,12.453 17.364,22.298 38.377,21.99 21.013,-0.306 18.555,-16.216 37.717,-23.101 -0.085,-5.837 -16.85,-8.693 -34.62,-8.799 z m -172.682,2.883 c -17.77,0.105 -34.534,2.964 -34.62,8.8 19.162,6.885 16.704,22.796 37.718,23.102 21.013,0.307 38.195,-9.54 38.377,-21.992 0.096,-6.615 -21.336,-10.03 -41.475,-9.91 z m 92.57,82.441 c 31.032,0 56.188,25.235 56.188,25.235 0,0 -28.184,-11.104 -59.217,-11.104 -31.032,0 -53.16,11.104 -53.16,11.104 0,0 25.156,-25.235 56.19,-25.235 z M 31.25,411.39 c 4.344,2.046 7.783,-40.336 52.246,-61.265 C 75.385,341.66 71.058,325.487 69.256,314.623 36.523,318.781 14.244,399.51 31.25,411.39 Z m 56.31,-41.694 c -7.511,-0.052 -17.26,-0.228 -17.445,16.937 -0.498,46.31 -42.805,96.953 -40.128,98.215 7.138,3.364 49.598,-32.077 61.906,-59.44 4.159,-9.244 11.516,-55.603 -4.333,-55.712 z"
             fill="#000000"
             fill-opacity="1"
             stroke="#ffffff"
             stroke-opacity="1"
             stroke-width="0"
             id="path869"
             style="fill:#ff0ec0;fill-opacity:1;stroke:none;stroke-width:100;stroke-linejoin:round;stroke-miterlimit:4;stroke-dasharray:none;stroke-opacity:1;paint-order:markers stroke fill" />
        </g>
      </g>
    </g>
  </g>
</svg>
