<?xml version="1.0" encoding="UTF-8" standalone="no"?>
<!-- Created with Inkscape (http://www.inkscape.org/) -->

<svg
   version="1.1"
   id="svg2"
   width="512"
   height="512"
   viewBox="0 0 512 512"
   sodipodi:docname="lost-ear.svg"
   inkscape:version="1.1.1 (3bf5ae0d25, 2021-09-20)"
   xmlns:inkscape="http://www.inkscape.org/namespaces/inkscape"
   xmlns:sodipodi="http://sodipodi.sourceforge.net/DTD/sodipodi-0.dtd"
   xmlns="http://www.w3.org/2000/svg"
   xmlns:svg="http://www.w3.org/2000/svg">
  <defs
     id="defs6" />
  <sodipodi:namedview
     id="namedview4"
     pagecolor="#505050"
     bordercolor="#eeeeee"
     borderopacity="1"
     inkscape:pageshadow="0"
     inkscape:pageopacity="0"
     inkscape:pagecheckerboard="0"
     showgrid="false"
     inkscape:zoom="1.8085084"
     inkscape:cx="297.20625"
     inkscape:cy="291.67683"
     inkscape:window-width="1716"
     inkscape:window-height="1414"
     inkscape:window-x="3160"
     inkscape:window-y="587"
     inkscape:window-maximized="1"
     inkscape:current-layer="g2841" />
  <g
     inkscape:groupmode="layer"
     inkscape:label="Image"
     id="g8">
    <g
       id="g827"
       style="fill:#ff0ec0"
       transform="matrix(0.752992,0,0,0.752992,14.173322,51.532699)">
      <g
         id="g2841"
         style="fill:#ff0ec0;fill-opacity:1;stroke:none">
        <g
           id="g2731"
           style="fill:#ff0ec0;fill-opacity:1;stroke:none"
           transform="matrix(1.2251822,0,0,1.2251822,-72.319603,-61.231875)">
          <path
             style="fill:#ff0ec0;fill-opacity:1;stroke:none;stroke-width:100;stroke-linejoin:round;stroke-miterlimit:4;stroke-dasharray:none;stroke-opacity:1;paint-order:markers stroke fill"
             d="m 152.80982,526.99668 c -31.82753,-8.26884 -53.756123,-28.89199 -63.941663,-60.13509 -6.71948,-20.61133 -4.46547,-51.40273 4.26557,-58.27056 10.656773,-8.38262 27.218423,-1.81809 27.458463,10.8837 0.045,2.37992 -0.46136,8.22712 -1.12521,12.99378 -0.66384,4.76667 -0.74795,12.14523 -0.1869,16.3968 3.82287,28.96945 33.38426,51.25446 61.75384,46.55347 18.23576,-3.02177 30.39486,-11.66293 42.6972,-30.34384 21.09329,-32.02984 48.28205,-47.43605 99.9222,-56.6198 32.40334,-5.76264 55.7047,-10.84457 64.85035,-14.1436 5.16179,-1.86196 9.58563,-3.18483 9.83076,-2.93971 0.24512,0.24514 2.22957,7.50454 4.40989,16.13203 3.67676,14.54889 3.79844,15.77507 1.67807,16.90985 -4.33387,2.31942 -32.81689,9.28883 -52.1024,12.74875 -69.1831,12.41184 -82.24791,18.9398 -104.40728,52.1681 -14.55035,21.81845 -35.15769,34.93152 -61.48562,39.12514 -12.05164,1.91964 -22.3294,1.47358 -33.61727,-1.45902 z m 318.53725,-139.33303 108.92204,59.7692 -49.35577,68.26919 z M 232.65296,367.27046 c -6.0502,-2.10599 -12.55031,-4.84463 -14.4447,-6.08588 -3.6447,-2.3881 -7.22161,-9.39094 -7.22161,-14.1384 0,-5.34607 4.24496,-11.98178 9.32176,-14.57176 5.86127,-2.9902 10.97373,-2.60312 18.87787,1.42926 3.27049,1.66848 9.32407,3.20827 14.12968,3.59402 7.62831,0.61232 9.30064,0.2389 18.03923,-4.02803 9.41533,-4.59737 10.0728,-4.71687 29.29813,-5.32455 10.81667,-0.34189 19.66104,-0.259 19.65416,0.18422 -0.0455,2.93052 -9.67593,16.69736 -16.11636,23.03857 -18.58309,18.2968 -46.70223,24.54753 -71.53816,15.90255 z M 63.730857,242.00208 163.25684,281.93271 62.041857,318.73134 Z m 454.929963,39.62892 -11.32893,-12.27968 5.65497,-8.77475 c 7.93181,-12.3077 11.83092,-20.44336 15.73592,-32.83364 4.92434,-15.62454 6.39442,-25.41997 6.86872,-45.76758 0.67662,-29.02642 -1.9228,-41.66482 -13.36072,-64.96007 -16.86856,-34.355664 -52.36951,-61.065404 -90.14817,-67.824484 -14.76527,-2.64169 -40.77422,-1.77797 -54.69391,1.81631 -46.64421,12.04427 -84.00203,51.694634 -93.1453,98.861344 -3.07315,15.85324 -4.91541,19.07328 -12.58904,22.00385 -7.20283,2.75079 -13.58313,1.06239 -18.62407,-4.92844 -4.91392,-5.83985 -4.92924,-11.98749 -0.0797,-31.96784 17.14365,-70.632454 82.61058,-121.542555 156.07578,-121.371701 44.09359,0.102547 84.07704,16.998575 114.82136,48.520697 26.90163,27.58221 40.30188,55.900184 45.22031,95.561504 3.0856,24.88173 0.008,54.53824 -8.38361,80.78199 -5.28186,16.51865 -9.78359,26.0818 -19.19875,40.78435 -7.31982,13.96598 -11.33554,12.50955 -22.82486,2.37814 z M 338.98666,227.724 c -9.19638,-1.15387 -15.34061,-4.77893 -17.21541,-10.15699 -2.21634,-6.3578 -1.85861,-50.98773 0.49851,-62.19309 5.45953,-25.95374 23.0612,-48.60539 46.76978,-60.188254 13.8709,-6.77665 24.84802,-9.34441 39.94712,-9.34441 38.70435,0 71.4524,23.389744 84.25973,60.181114 4.60614,13.23192 5.74998,30.41164 2.43471,36.56771 -5.02712,9.33481 -18.70824,11.14668 -26.36345,3.49147 -3.30728,-3.30728 -4.09339,-5.45305 -5.04307,-13.76554 -3.07065,-26.87748 -16.71039,-43.77419 -41.19659,-51.03376 -19.98361,-5.92467 -43.0646,1.67259 -56.89704,18.72803 -8.49884,10.47909 -11.32565,19.47422 -12.18661,38.77877 l -0.72788,16.32055 c 18.38762,7.56347 36.84044,20.25469 45.33386,34.73916 3.51055,6.18289 8.71633,18.23948 8.38634,22.76521 l -34,22.33538 c 2.8847,-25.91273 -9.83654,-43.80825 -34,-47.22535 z M 82.319977,152.84298 132.31998,75.207296 219.22876,215.03317 Z"
             id="path829"
             sodipodi:nodetypes="sssssssssssssssssccccsssssssssssccccccsssssssssssssscccsssssssssssccccccccc" />
        </g>
      </g>
    </g>
  </g>
</svg>
