<?xml version="1.0" encoding="UTF-8" standalone="no"?>
<!-- Created with Inkscape (http://www.inkscape.org/) -->

<svg
   version="1.1"
   id="svg2"
   width="512"
   height="512"
   viewBox="0 0 512 512"
   sodipodi:docname="netrunning.svg"
   inkscape:version="1.1.1 (3bf5ae0d25, 2021-09-20)"
   xmlns:inkscape="http://www.inkscape.org/namespaces/inkscape"
   xmlns:sodipodi="http://sodipodi.sourceforge.net/DTD/sodipodi-0.dtd"
   xmlns="http://www.w3.org/2000/svg"
   xmlns:svg="http://www.w3.org/2000/svg">
  <defs
     id="defs6" />
  <sodipodi:namedview
     id="namedview4"
     pagecolor="#505050"
     bordercolor="#eeeeee"
     borderopacity="1"
     inkscape:pageshadow="0"
     inkscape:pageopacity="0"
     inkscape:pagecheckerboard="0"
     showgrid="false"
     showguides="true"
     inkscape:guide-bbox="true"
     inkscape:zoom="1.8085084"
     inkscape:cx="229.74734"
     inkscape:cy="246.3356"
     inkscape:window-width="1716"
     inkscape:window-height="1414"
     inkscape:window-x="3160"
     inkscape:window-y="587"
     inkscape:window-maximized="1"
     inkscape:current-layer="g4422" />
  <g
     inkscape:groupmode="layer"
     inkscape:label="Image"
     id="g8">
    <g
       id="g827"
       style="fill:#ff0ec0">
      <g
         id="g4422"
         style="fill:#ff0ec0;fill-opacity:1;stroke:none"
         transform="translate(-43.189133,-15.061726)">
        <path
           d="m 457.86753,428.02103 -14.82517,-11.36032 c 9.09282,-11.87076 17.03575,-24.67319 23.6125,-38.05626 l 16.76251,8.23705 c -7.11563,14.48172 -15.7113,28.33536 -25.54984,41.17953 z m 50.66325,-149.65961 c 0,-1.8216 -0.019,-3.63751 -0.0588,-5.44963 l -18.67329,0.40797 c 0.0361,1.67739 0.0551,3.35857 0.0551,5.04166 0,27.88756 -4.98092,55.11668 -14.80428,80.93596 l 17.45509,6.64315 c 10.63357,-27.94827 16.02626,-57.41455 16.02626,-87.57911 z m -1.59389,-28.16461 c -3.60905,-31.7129 -13.20661,-61.98372 -28.52323,-89.96806 l -16.38301,8.96759 c 14.14965,25.85154 23.01288,53.8169 26.34868,83.1143 z M 466.55998,140.76798 C 448.72728,114.32632 426.28175,91.869408 399.85147,74.023414 l -10.45143,15.479812 c 24.436,16.500654 45.18707,37.261214 61.67445,61.708594 z M 380.4002,62.162144 C 352.42726,46.830341 322.16404,37.215708 290.45302,33.587688 l -2.1233,18.557551 c 29.2955,3.350984 57.25135,12.233186 83.09151,26.396125 z M 262.14231,50.653804 c 1.73052,0 3.45725,0.02087 5.17828,0.05882 l 0.41936,-18.6714 c -1.85766,-0.04175 -3.72101,-0.06452 -5.59195,-0.06452 -30.11712,0 -59.53786,5.37372 -87.4463,15.973156 l 6.63177,17.460797 c 25.78134,-9.791103 52.97063,-14.75686 80.80884,-14.75686 z m -100.24493,23.20263 -8.23515,-16.764412 c -14.47792,7.111824 -28.33157,15.709405 -41.17765,25.54984 l 11.36034,14.827069 C 135.71758,88.372312 148.52,80.427472 161.89738,73.856434 Z M 425.85481,276.37093 c 0,0 0.29601,-5.81393 -0.59012,-15.4058 v -0.0796 c -4.91262,-38.37696 -22.74344,-72.75776 -48.99725,-98.63586 l -51.75049,56.61187 -234.669541,86.95863 15.073741,40.65964 234.05093,-86.72714 z m -94.42908,-87.21289 c -32.56299,-33.49278 -91.27164,-47.30279 -140.13418,-29.18925 -53.86433,19.96929 -86.32676,71.1942 -86.87324,124.51776 L 315.93075,206.1103 Z m -208.8749,166.72384 c 16.33558,27.44735 42.29716,47.72971 73.68371,57.81493 v 96.44994 h 160.75241 l -0.12904,-77.91326 18.31467,-7.48753 c 26.30315,-9.73797 41.28201,-39.21374 30.89699,-67.27017 l -13.00735,-35.04305 15.50257,-5.73803 c 9.01122,-3.3358 11.35465,-14.99404 4.32819,-21.54991 l -7.56153,-7.0568 -65.11841,-12.86126 z"
           id="path3634"
           style="fill:#ff0ec0;fill-opacity:1;stroke:none;stroke-width:81.7886;stroke-linejoin:round;stroke-miterlimit:4;stroke-dasharray:none;stroke-opacity:1;paint-order:markers stroke fill" />
      </g>
    </g>
  </g>
</svg>
