<?xml version="1.0" encoding="UTF-8" standalone="no"?>
<!-- Created with Inkscape (http://www.inkscape.org/) -->

<svg
   version="1.1"
   id="svg2"
   width="512"
   height="512"
   viewBox="0 0 512 512"
   sodipodi:docname="on_fire.svg"
   inkscape:version="1.1.1 (3bf5ae0d25, 2021-09-20)"
   xmlns:inkscape="http://www.inkscape.org/namespaces/inkscape"
   xmlns:sodipodi="http://sodipodi.sourceforge.net/DTD/sodipodi-0.dtd"
   xmlns="http://www.w3.org/2000/svg"
   xmlns:svg="http://www.w3.org/2000/svg">
  <defs
     id="defs6" />
  <sodipodi:namedview
     id="namedview4"
     pagecolor="#505050"
     bordercolor="#eeeeee"
     borderopacity="1"
     inkscape:pageshadow="0"
     inkscape:pageopacity="0"
     inkscape:pagecheckerboard="0"
     showgrid="false"
     inkscape:zoom="1.2788086"
     inkscape:cx="410.14738"
     inkscape:cy="209.17907"
     inkscape:window-width="1716"
     inkscape:window-height="1414"
     inkscape:window-x="3160"
     inkscape:window-y="587"
     inkscape:window-maximized="1"
     inkscape:current-layer="g1220" />
  <g
     inkscape:groupmode="layer"
     inkscape:label="Image"
     id="g8">
    <g
       id="g883"
       transform="translate(216.10609,10.52105)"
       style="stroke:#ffffff;stroke-width:100;stroke-linejoin:round;stroke-miterlimit:4;stroke-dasharray:none;stroke-opacity:1;paint-order:markers stroke fill">
      <g
         id="g1220"
         style="fill:#ff0ec0;fill-opacity:1;stroke:none">
        <g
           class=""
           id="g872"
           style="fill:#ff0ec0;fill-opacity:1;stroke:none;stroke-width:100;stroke-linejoin:round;stroke-miterlimit:4;stroke-dasharray:none;stroke-opacity:1;paint-order:markers stroke fill"
           transform="matrix(0.98000595,0,0,0.98000595,-214.72151,-4.7670393)">
          <path
             d="M 272.95,16.707 C 121.66,64.421 330.272,127.587 246.414,148.051 190.7,161.648 137.3,96.283 192.947,45.313 c -90.766,32.524 -66.292,89.67 -12.396,113.25 34.31,15.01 31.884,61.38 8.643,64.637 46.37,-54.285 -116.637,-44.737 -86.03,-147.47 -126.44,158.063 132.535,163.37 51.6,273.194 16.4,-51.26 -51.074,-33.42 -65.52,-77.88 -48.557,115.975 86.87,96.047 107.81,222.95 h 36.394 L 226.073,385.291 H 196.93 c 0,-49.724 3.178,-108.336 45.2,-116.245 -7.75,-9.352 -12.786,-24.51 -12.786,-39.207 0,-26.536 15.774,-48.523 35.98,-51.15 h 0.002 c 1.348,-0.17 2.78,0 4.164,0 22.13,0 40.145,22.846 40.145,51.15 0,14.334 -4.772,29.304 -12.192,38.613 45.905,7.12 44.903,66.976 44.903,116.84 H 314.69 l -6.524,108.704 h 36.752 c 14.29,-138.24 137.056,-121.245 77.576,-235.742 9.728,46.034 -32.646,93.67 -53.514,52.13 -19.04,-37.903 125.515,-105.092 70.21,-215.175 4.588,81.484 -114.155,120.303 -118.663,65.824 52.768,23.022 73.61,-45.905 30.02,-71.985 C 309.857,64.702 234.103,52.288 272.951,16.71 Z m 69.488,20.635 c 44.895,15.685 63.888,78.675 48.73,110.674 18.238,-3.568 70.807,-106.98 -48.73,-110.674 z"
             fill="#000000"
             fill-opacity="1"
             stroke="#ffffff"
             stroke-opacity="1"
             stroke-width="0"
             id="path870"
             style="fill:#ff0ec0;fill-opacity:1;stroke:none;stroke-width:100;stroke-linejoin:round;stroke-miterlimit:4;stroke-dasharray:none;stroke-opacity:1;paint-order:markers stroke fill" />
        </g>
      </g>
    </g>
  </g>
</svg>
