<?xml version="1.0" encoding="UTF-8" standalone="no"?>
<!-- Generator: Adobe Illustrator 19.0.0, SVG Export Plug-In . SVG Version: 6.00 Build 0)  -->

<svg
   version="1.1"
   id="Layer_1"
   x="0px"
   y="0px"
   height="512"
   width="512"
   viewBox="0 0 297.001 297.001"
   style="enable-background:new 0 0 297.001 297.001;"
   xml:space="preserve"
   sodipodi:docname="radiation_low.svg"
   inkscape:version="1.1.2 (0a00cf5339, 2022-02-04, custom)"
   xmlns:inkscape="http://www.inkscape.org/namespaces/inkscape"
   xmlns:sodipodi="http://sodipodi.sourceforge.net/DTD/sodipodi-0.dtd"
   xmlns="http://www.w3.org/2000/svg"
   xmlns:svg="http://www.w3.org/2000/svg"><defs
   id="defs215" /><sodipodi:namedview
   id="namedview213"
   pagecolor="#ffffff"
   bordercolor="#666666"
   borderopacity="1.0"
   inkscape:pageshadow="2"
   inkscape:pageopacity="0.0"
   inkscape:pagecheckerboard="0"
   showgrid="false"
   inkscape:zoom="2.1380399"
   inkscape:cx="148.5005"
   inkscape:cy="148.5005"
   inkscape:window-width="1716"
   inkscape:window-height="1413"
   inkscape:window-x="1440"
   inkscape:window-y="673"
   inkscape:window-maximized="1"
   inkscape:current-layer="Layer_1" />
<g
   id="g180"
   style="fill:#ffffff">
	<g
   id="g178"
   style="fill:#ffffff">
		<path
   d="M294.084,150.689c-1.869-1.87-4.378-2.925-7.05-2.921h-96.71c-0.993-4.163-2.626-8.245-4.945-12.104    c-2.073-3.45-4.566-6.493-7.364-9.125l48.381-83.799c1.323-2.29,1.68-5.012,0.994-7.566c-0.685-2.554-2.359-4.731-4.65-6.051    C176.911,2.721,120.016,2.728,74.259,29.145c-2.289,1.321-3.959,3.498-4.643,6.051c-0.684,2.553-0.326,5.272,0.996,7.561    l48.473,83.957c-5.845,5.55-10.015,12.644-12.012,20.653c-0.033,0.133-0.058,0.267-0.09,0.401H9.965    c-5.499-0.001-9.96,4.455-9.965,9.955c-0.024,25.968,6.861,51.644,19.912,74.25c13.051,22.605,31.843,41.405,54.345,54.368    c1.514,0.872,3.16,1.302,4.792,1.331c3.505,0.061,6.936-1.733,8.813-4.982l48.472-83.954c4.008,1.202,8.18,1.84,12.387,1.84    c4.016,0,8.056-0.583,12.002-1.742l48.405,83.839c1.321,2.289,3.498,3.959,6.051,4.643c0.792,0.212,1.599,0.324,2.405,0.338    c1.793,0.031,3.577-0.422,5.157-1.334c45.755-26.416,74.21-75.684,74.26-128.578C297.002,155.097,295.954,152.56,294.084,150.689z     M75.776,263.762c-15.746-10.798-28.976-25.08-38.604-41.755c-9.627-16.676-15.38-35.275-16.86-54.31h86.65    c1.011,4.21,2.665,8.288,4.958,12.106c2.025,3.37,4.445,6.359,7.163,8.949L75.776,263.762z M93.05,41.76    c34.945-16.681,75.903-16.684,110.905-0.009l-43.239,74.893c-7.848-2.301-16.332-2.373-24.402,0.052L93.05,41.76z     M160.456,177.381c-5.249,3.152-11.41,4.071-17.35,2.592c-5.94-1.481-10.949-5.187-14.102-10.434    c-3.153-5.247-4.074-11.409-2.592-17.349c1.481-5.94,5.187-10.948,10.435-14.102c3.612-2.17,7.656-3.282,11.764-3.282    c1.861,0,3.734,0.229,5.586,0.69c5.94,1.481,10.948,5.187,14.1,10.434C174.806,156.763,171.288,170.872,160.456,177.381z     M221.21,263.739l-43.191-74.809c6.187-5.823,10.368-13.252,12.278-21.233l86.373-0.001    C273.611,206.346,253.129,241.815,221.21,263.739z"
   id="path176"
   style="fill:#ffffff" />
	</g>
</g>
<g
   id="g182">
</g>
<g
   id="g184">
</g>
<g
   id="g186">
</g>
<g
   id="g188">
</g>
<g
   id="g190">
</g>
<g
   id="g192">
</g>
<g
   id="g194">
</g>
<g
   id="g196">
</g>
<g
   id="g198">
</g>
<g
   id="g200">
</g>
<g
   id="g202">
</g>
<g
   id="g204">
</g>
<g
   id="g206">
</g>
<g
   id="g208">
</g>
<g
   id="g210">
</g>
</svg>
