<?xml version="1.0" encoding="UTF-8" standalone="no"?>
<!-- Generator: Adobe Illustrator 19.0.0, SVG Export Plug-In . SVG Version: 6.00 Build 0)  -->

<svg
   version="1.1"
   id="Layer_1"
   x="0px"
   y="0px"
   height="512"
   width="512"
   viewBox="0 0 511.999 511.999"
   style="enable-background:new 0 0 511.999 511.999;"
   xml:space="preserve"
   sodipodi:docname="radiation_high.svg"
   inkscape:version="1.1.2 (0a00cf5339, 2022-02-04, custom)"
   xmlns:inkscape="http://www.inkscape.org/namespaces/inkscape"
   xmlns:sodipodi="http://sodipodi.sourceforge.net/DTD/sodipodi-0.dtd"
   xmlns="http://www.w3.org/2000/svg"
   xmlns:svg="http://www.w3.org/2000/svg"><defs
   id="defs59" /><sodipodi:namedview
   id="namedview57"
   pagecolor="#ffffff"
   bordercolor="#666666"
   borderopacity="1.0"
   inkscape:pageshadow="2"
   inkscape:pageopacity="0.0"
   inkscape:pagecheckerboard="0"
   showgrid="false"
   inkscape:zoom="1.2402368"
   inkscape:cx="255.9995"
   inkscape:cy="255.9995"
   inkscape:window-width="1716"
   inkscape:window-height="1413"
   inkscape:window-x="1440"
   inkscape:window-y="673"
   inkscape:window-maximized="1"
   inkscape:current-layer="Layer_1" />
<g
   id="g6"
   style="fill:#ffffff">
	<g
   id="g4"
   style="fill:#ffffff">
		<path
   d="M255.999,219.038c-29.155,0-52.877,23.72-52.877,52.877c0,29.157,23.72,52.877,52.877,52.877    c29.157,0,52.878-23.72,52.877-52.877C308.876,242.758,285.155,219.038,255.999,219.038z"
   id="path2"
   style="fill:#ffffff" />
	</g>
</g>
<g
   id="g12"
   style="fill:#ffffff">
	<g
   id="g10"
   style="fill:#ffffff">
		<path
   d="M384.011,50.27c-78.959-45.767-177.061-45.768-256.023,0c-8.814,5.108-11.826,16.389-6.732,25.211l75.281,130.372    c5.104,8.838,16.419,11.858,25.247,6.747c21.105-12.221,47.326-12.22,68.431,0c8.823,5.108,20.141,2.095,25.248-6.747    l75.281-130.372C395.836,66.66,392.825,55.379,384.011,50.27z"
   id="path8"
   style="fill:#ffffff" />
	</g>
</g>
<g
   id="g18"
   style="fill:#ffffff">
	<g
   id="g16"
   style="fill:#ffffff">
		<path
   d="M221.775,331.228c-21.124-12.216-34.246-34.944-34.246-59.312c0-10.199-8.268-18.467-18.467-18.467H18.467    C8.268,253.449,0,261.718,0,271.916c0,92.285,49.567,176.192,127.989,221.647c8.796,5.099,20.128,2.131,25.253-6.743    l75.281-130.372C233.62,347.62,230.6,336.332,221.775,331.228z"
   id="path14"
   style="fill:#ffffff" />
	</g>
</g>
<g
   id="g24"
   style="fill:#ffffff">
	<g
   id="g22"
   style="fill:#ffffff">
		<path
   d="M493.532,253.449H342.936c-10.199,0-18.467,8.268-18.467,18.467c0,24.368-13.122,47.095-34.246,59.312    c-8.825,5.104-11.845,16.392-6.747,25.221l75.281,130.372c5.118,8.859,16.439,11.851,25.253,6.743    c78.475-45.487,127.989-129.427,127.989-221.647C511.999,261.718,503.731,253.449,493.532,253.449z"
   id="path20"
   style="fill:#ffffff" />
	</g>
</g>
<g
   id="g26">
</g>
<g
   id="g28">
</g>
<g
   id="g30">
</g>
<g
   id="g32">
</g>
<g
   id="g34">
</g>
<g
   id="g36">
</g>
<g
   id="g38">
</g>
<g
   id="g40">
</g>
<g
   id="g42">
</g>
<g
   id="g44">
</g>
<g
   id="g46">
</g>
<g
   id="g48">
</g>
<g
   id="g50">
</g>
<g
   id="g52">
</g>
<g
   id="g54">
</g>
</svg>
