<?xml version="1.0" encoding="UTF-8" standalone="no"?>
<!-- Created with Inkscape (http://www.inkscape.org/) -->

<svg
   version="1.1"
   id="svg2"
   width="512"
   height="512"
   viewBox="0 0 512 512"
   sodipodi:docname="readied_action.svg"
   inkscape:version="1.1.1 (3bf5ae0d25, 2021-09-20)"
   xmlns:inkscape="http://www.inkscape.org/namespaces/inkscape"
   xmlns:sodipodi="http://sodipodi.sourceforge.net/DTD/sodipodi-0.dtd"
   xmlns="http://www.w3.org/2000/svg"
   xmlns:svg="http://www.w3.org/2000/svg">
  <defs
     id="defs6" />
  <sodipodi:namedview
     id="namedview4"
     pagecolor="#505050"
     bordercolor="#eeeeee"
     borderopacity="1"
     inkscape:pageshadow="0"
     inkscape:pageopacity="0"
     inkscape:pagecheckerboard="0"
     showgrid="false"
     inkscape:zoom="1.2788086"
     inkscape:cx="342.11531"
     inkscape:cy="341.33333"
     inkscape:window-width="1716"
     inkscape:window-height="1414"
     inkscape:window-x="3160"
     inkscape:window-y="587"
     inkscape:window-maximized="1"
     inkscape:current-layer="g3935" />
  <g
     inkscape:groupmode="layer"
     inkscape:label="Image"
     id="g8">
    <g
       id="g3935"
       transform="matrix(0.61362953,0,0,0.61362953,98.020475,100.66946)"
       style="fill:#000000;fill-opacity:1">
      <g
         id="g1233"
         transform="matrix(1.1773009,0,0,1.1773009,-695.32871,11.37069)"
         style="fill:#ff0ec0;fill-opacity:1;stroke:#ffffff;stroke-width:8.14824;stroke-linejoin:round;stroke-miterlimit:4;stroke-dasharray:none;stroke-opacity:1;paint-order:markers stroke fill">
        <g
           class=""
           id="g1222"
           transform="matrix(1.5757802,0,0,1.5757802,405.89184,-155.99466)"
           style="fill:#ff0ec0;fill-opacity:1;stroke:#ffffff;stroke-width:5.17092;stroke-linejoin:round;stroke-miterlimit:4;stroke-dasharray:none;stroke-opacity:1;paint-order:markers stroke fill">
          <path
             d="m 208.242,24.629 -52.058,95.205 95.207,52.059 17.271,-31.586 -42.424,-23.198 A 143.26,143.26 0 0 1 256,114 c 78.638,0 142,63.362 142,142 0,78.638 -63.362,142 -142,142 -78.638,0 -142,-63.362 -142,-142 0,-16.46 2.785,-32.247 7.896,-46.928 l -32.32,-16.16 C 82.106,212.535 78,233.798 78,256 c 0,98.093 79.907,178 178,178 98.093,0 178,-79.907 178,-178 0,-98.093 -79.907,-178 -178,-178 -13.103,0 -25.875,1.44 -38.18,4.148 l 22.008,-40.25 -31.586,-17.27 z M 312.512,155.008 247,253.275 V 368 h 18 V 258.725 l 62.488,-93.733 z"
             fill="#000000"
             fill-opacity="1"
             stroke="#ffffff"
             stroke-opacity="1"
             stroke-width="0"
             id="path1220"
             style="fill:#ff0ec0;fill-opacity:1;stroke:#ffffff;stroke-width:5.17092;stroke-linejoin:round;stroke-miterlimit:4;stroke-dasharray:none;stroke-opacity:1;paint-order:markers stroke fill" />
        </g>
      </g>
    </g>
  </g>
</svg>
