<?xml version="1.0" encoding="UTF-8" standalone="no"?>
<!-- Created with Inkscape (http://www.inkscape.org/) -->

<svg
   version="1.1"
   id="svg2"
   width="512"
   height="512"
   viewBox="0 0 512 512"
   sodipodi:docname="spinal_injury.svg"
   inkscape:version="1.1.1 (3bf5ae0d25, 2021-09-20)"
   xmlns:inkscape="http://www.inkscape.org/namespaces/inkscape"
   xmlns:sodipodi="http://sodipodi.sourceforge.net/DTD/sodipodi-0.dtd"
   xmlns="http://www.w3.org/2000/svg"
   xmlns:svg="http://www.w3.org/2000/svg">
  <defs
     id="defs6" />
  <sodipodi:namedview
     id="namedview4"
     pagecolor="#505050"
     bordercolor="#eeeeee"
     borderopacity="1"
     inkscape:pageshadow="0"
     inkscape:pageopacity="0"
     inkscape:pagecheckerboard="0"
     showgrid="false"
     inkscape:zoom="1.4142136"
     inkscape:cx="249.96224"
     inkscape:cy="305.82367"
     inkscape:window-width="1716"
     inkscape:window-height="1414"
     inkscape:window-x="3160"
     inkscape:window-y="587"
     inkscape:window-maximized="1"
     inkscape:current-layer="g8" />
  <g
     inkscape:groupmode="layer"
     inkscape:label="Image"
     id="g8">
    <g
       id="g84"
       style="fill:#ff0ec0;fill-opacity:1;stroke:none;stroke-width:50;stroke-linecap:round;stroke-linejoin:round;stroke-miterlimit:4;stroke-dasharray:none;stroke-dashoffset:0;stroke-opacity:1;paint-order:markers stroke fill"
       transform="matrix(0.80968432,0,0,0.80968432,-20.627096,-18.38681)">
      <path
         id="path16861"
         style="fill:#ff0ec0;fill-opacity:1;stroke:none;stroke-width:59.5238;stroke-linecap:round;stroke-linejoin:round;stroke-miterlimit:4;stroke-dasharray:none;stroke-dashoffset:0;stroke-opacity:1;paint-order:markers stroke fill"
         d="m 200.34878,44.56762 c -1.31168,0.195935 -2.46248,1.084801 -2.9493,2.391378 l -7.16897,19.239115 c -0.39463,1.059701 -0.28828,2.240735 0.29013,3.213684 0.58181,0.973864 1.57026,1.634028 2.68835,1.792237 0.0755,0.01002 7.64322,1.097352 16.80484,3.572474 12.22481,3.302677 21.41415,7.429264 26.81839,12.020368 -3.58831,7.094571 -11.29784,24.005694 -7.99984,32.497254 0.96236,2.47697 2.74892,4.23058 5.169,5.07287 0.878,0.30548 1.84797,0.60293 2.88233,0.88237 3.8184,1.0316 8.24508,1.75924 12.52338,2.46348 4.08682,0.67162 8.3126,1.36807 11.75086,2.29696 1.815,0.49034 3.30593,1.01706 4.45829,1.57422 l -10.24188,21.7129 c -0.5066,1.07314 -0.47263,2.32192 0.0909,3.36645 0.56386,1.04368 1.58967,1.75833 2.7639,1.92443 0.28495,0.0406 28.83668,4.13119 58.82637,12.23325 19.65395,5.30883 35.49496,11.11414 47.08239,17.25462 0.24615,0.13024 0.51555,0.23634 0.78453,0.30901 0.57022,0.15404 14.05764,3.54982 21.36957,-16.01001 1.65861,-4.43746 3.15528,-8.62383 4.6042,-12.67272 3.97565,-11.10978 7.73169,-21.60392 13.71992,-34.09379 1.14908,-2.39638 2.2238,-4.51237 3.17247,-6.37927 3.5296,-6.94473 5.66057,-11.13635 4.1304,-15.49843 -1.37478,-3.919486 -5.28124,-6.335689 -11.56545,-9.186098 -1.15173,-0.522372 -2.50818,-0.991011 -4.14585,-1.433446 -6.10264,-1.648696 -15.35369,-2.684748 -26.06475,-3.883193 -14.51529,-1.625273 -30.96775,-3.468488 -45.36397,-7.357805 -11.10899,-3.001216 -19.15085,-6.71638 -24.57292,-11.356007 -0.54873,-0.580716 -1.69164,-1.581083 -3.38192,-2.037735 -1.8498,-0.499739 -3.7415,-0.195184 -5.47114,0.878959 -2.38423,1.481794 -5.80391,5.023706 -8.89254,18.367046 C 278.5332,86.133116 272.3314,82.657388 268.10366,75.59537 267.8583,75.185851 267.62004,74.775181 267.38092,74.362781 263.0974,66.991623 258.6678,59.369469 223.51393,49.872247 217.1389,48.149964 209.79815,46.379985 201.69459,44.61226 201.2406,44.51331 200.78592,44.502287 200.3487,44.56767 Z m -38.94863,99.36123 c -1.31463,0.17492 -2.47964,1.04534 -2.98707,2.34331 l -7.47454,19.12239 c -0.41151,1.05326 -0.32418,2.23677 0.23862,3.21883 0.56376,0.98509 1.5446,1.65764 2.65919,1.83344 0.0753,0.0113 7.62383,1.22089 16.74474,3.84199 12.17052,3.49746 21.29245,7.76931 26.62268,12.44612 -3.70112,7.03637 -11.67855,23.82193 -8.51658,32.36506 0.9227,2.49204 2.68029,4.27445 5.08661,5.15528 0.87386,0.31971 1.83883,0.63281 2.86861,0.92873 3.80227,1.09267 8.2131,1.89162 12.48044,2.66433 4.07643,0.73704 8.29098,1.49843 11.71481,2.48235 1.80695,0.51927 3.28753,1.07085 4.43083,1.64633 l -10.58693,21.54638 c -0.52369,1.06492 -0.50907,2.31306 0.0377,3.36646 0.54712,1.05255 1.56374,1.78304 2.733,1.96906 0.28426,0.0451 28.78758,4.59649 58.6238,13.17058 19.56559,5.6226 35.31123,11.68009 46.79914,18.00481 0.24403,0.13415 0.51159,0.24406 0.77938,0.32103 0.56768,0.16313 13.99859,3.77392 21.62191,-15.66667 1.72976,-4.41209 3.29632,-8.57541 4.81021,-12.60234 4.15204,-11.04319 8.07426,-21.4745 14.26068,-33.86547 1.1872,-2.37771 2.29563,-4.47538 3.27376,-6.32606 3.64004,-6.88748 5.83792,-11.04551 4.3776,-15.43148 -1.31201,-3.94093 -5.17991,-6.41938 -11.4178,-9.36977 -1.14325,-0.54071 -2.49143,-1.03188 -4.12183,-1.50041 -6.07553,-1.74594 -15.30895,-2.92931 -25.99951,-4.29862 -14.4875,-1.85687 -30.90811,-3.96185 -45.24037,-8.08055 -11.05965,-3.17822 -19.04195,-7.0218 -24.38924,-11.74741 -0.53939,-0.58941 -1.66653,-1.60738 -3.34929,-2.09096 -1.84159,-0.52922 -3.7366,-0.25498 -5.48315,0.79141 -2.4076,1.44354 -5.88334,4.92965 -9.18439,18.22112 -3.90139,-1.65159 -10.04584,-5.22626 -14.16111,-12.35513 -0.23879,-0.4134 -0.4711,-0.82758 -0.70384,-1.2429 -4.16527,-7.43863 -8.47187,-15.12991 -43.47044,-25.18752 -6.34587,-1.82363 -13.65748,-3.70987 -21.73178,-5.60675 -0.45236,-0.10622 -0.90769,-0.12526 -1.34591,-0.067 z m 342.97731,33.54788 -99.03678,117.0914 137.49615,-57.10797 z M 327.71637,297.75948 c -1.98043,0.009 -4.22818,0.23422 -6.79129,0.58711 -1.25202,0.17211 -2.65077,0.49798 -4.27289,0.9974 -6.04155,1.86014 -14.41915,5.91752 -24.118,10.61612 -13.14535,6.36673 -28.04412,13.58413 -42.29622,17.97219 -10.99863,3.38636 -19.78309,4.53152 -26.84412,3.49865 -0.77388,-0.19857 -2.27507,-0.43448 -3.94844,0.0807 -1.83127,0.56383 -3.26847,1.82918 -4.15786,3.66001 -1.22652,2.52508 -2.23065,7.34586 2.27293,20.27945 -4.1696,0.75038 -11.269,1.11791 -18.61253,-2.60081 -0.42596,-0.21556 -0.84669,-0.43703 -1.26865,-0.6575 -7.55475,-3.95072 -15.36705,-8.03538 -50.16903,2.67978 -6.3112,1.94315 -13.46378,4.36125 -21.2614,7.18786 -1.74726,0.63361 -2.76284,2.45648 -2.38279,4.27631 l 4.19734,20.09749 c 0.23162,1.10769 0.95256,2.04934 1.96048,2.56303 1.00924,0.51789 2.19472,0.54739 3.22741,0.0842 0.0685,-0.0312 7.02255,-3.13738 16.12159,-5.93981 12.10245,-3.7262 22.07468,-5.13688 29.09474,-4.13554 0.74846,7.91509 3.24624,26.3324 10.56461,31.75564 2.13514,1.58202 4.58333,2.11296 7.0797,1.53473 0.90563,-0.20985 1.88409,-0.47612 2.90809,-0.7914 3.78102,-1.16413 7.91187,-2.90675 11.90708,-4.59391 3.81635,-1.61093 7.76079,-3.27782 11.16547,-4.32609 1.79768,-0.55348 3.3383,-0.90363 4.61107,-1.0472 l 2.91668,23.82961 c 0.1438,1.17796 0.83906,2.21527 1.87292,2.79823 1.03302,0.58322 2.28173,0.63916 3.36303,0.1545 0.26267,-0.11762 26.61829,-11.89052 56.28737,-21.02622 19.45672,-5.99143 35.95124,-9.52792 49.02914,-10.51311 0.27766,-0.021 0.56285,-0.0759 0.82917,-0.15794 0.56448,-0.17384 13.78483,-4.49491 9.53802,-24.94034 -0.96442,-4.64078 -1.93066,-8.98404 -2.86519,-13.18432 -2.56176,-11.51645 -4.98079,-22.3942 -6.57671,-36.15039 -0.30581,-2.63909 -0.52437,-5.00137 -0.71758,-7.08656 -0.71817,-7.75702 -1.15249,-12.43949 -4.77417,-15.31302 -2.03316,-1.61341 -4.58926,-2.20303 -7.88997,-2.1888 z m 217.72299,15.65292 -144.43337,27.22525 158.50348,31.13934 z m -142.81967,88.40352 109.79882,122.56767 28.21407,-67.1627 z m -56.4865,3.45058 c -1.98005,-0.0362 -4.23282,0.13954 -6.8033,0.43433 -6.18083,0.70882 -16.09611,5.23575 -28.6484,10.96975 -21.3762,9.76342 -50.62286,23.1219 -69.61931,19.90005 -0.89836,-0.24672 -2.87882,-0.5924 -4.9321,0.36394 -6.68407,3.11324 -4.51076,14.07511 -1.43344,23.52575 -4.12956,0.64546 -11.26206,0.87042 -18.54386,-3.02655 -0.42155,-0.22641 -0.83782,-0.4553 -1.25492,-0.6867 -8.79039,-4.8543 -17.8795,-9.87234 -71.633,8.25393 -0.13336,0.0447 -0.26108,0.0966 -0.38626,0.15451 -1.52661,0.71105 -2.40726,2.3754 -2.09438,4.06516 l 3.74414,20.18674 c 0.20547,1.11148 0.90468,2.0708 1.90039,2.60768 0.9957,0.53689 2.18189,0.59259 3.22397,0.1528 0.29762,-0.125 28.51014,-11.90134 45.43091,-9.05564 0.56833,7.9276 2.65112,26.40258 9.84703,31.99083 2.09825,1.63 4.53282,2.21535 7.04194,1.69439 4.57766,-0.95114 9.84234,-3.03504 14.93363,-5.05055 5.58154,-2.20993 11.76679,-4.6583 15.89326,-5.02309 l 2.37936,23.89828 c 0.11748,1.18058 0.7884,2.23477 1.80769,2.84114 1.02012,0.60598 2.26793,0.69254 3.36131,0.23176 0.63861,-0.26934 64.34441,-26.96011 105.99975,-29.15311 0.2595,-0.0133 0.51792,-0.0554 0.76908,-0.12187 0.20087,-0.0539 0.75237,-0.21721 1.52443,-0.57682 2.82774,-1.31706 11.80744,-6.9517 8.63675,-24.15749 -0.85805,-4.65884 -1.72419,-9.02134 -2.56303,-13.23924 -2.30151,-11.57378 -4.47479,-22.50463 -5.75955,-36.29633 -0.24624,-2.6458 -0.41302,-5.01307 -0.55794,-7.10201 -0.54279,-7.77077 -0.87106,-12.46209 -4.42567,-15.41602 -1.99627,-1.65908 -4.53839,-2.3054 -7.83848,-2.36561 z m 17.05548,108.38939 c -6.21965,0.14581 -16.50364,3.75656 -29.52392,8.32946 -22.17301,7.78611 -52.50885,18.44055 -71.13515,13.51049 -0.87232,-0.32713 -2.81436,-0.85219 -4.94584,-0.0858 -6.9387,2.49471 -5.76867,13.61023 -3.56044,23.30086 -4.17107,0.26858 -11.29326,-0.15435 -18.19194,-4.69519 -0.3993,-0.26368 -0.79355,-0.53003 -1.18795,-0.79827 -8.31432,-5.63093 -16.91127,-11.45345 -72.08622,1.727 -0.13687,0.0324 -0.26835,0.0738 -0.39827,0.12012 -1.58476,0.56978 -2.61165,2.14801 -2.45318,3.85917 l 1.89868,20.44253 c 0.10383,1.12552 0.71367,2.14414 1.65662,2.76904 0.94294,0.62491 2.11885,0.78819 3.1965,0.44463 0.30771,-0.0976 29.4711,-9.26858 46.06438,-4.90119 -0.15242,7.94648 0.24814,26.53397 6.90803,32.75132 1.94189,1.81345 4.31395,2.61759 6.85996,2.32613 4.64502,-0.53239 10.07548,-2.13131 15.32847,-3.67717 5.75883,-1.69502 12.14041,-3.57284 16.28295,-3.56217 l 0.2043,24.01501 c 0.01,1.18637 0.58317,2.2977 1.54331,2.99392 0.96101,0.69594 2.19463,0.89371 3.32527,0.5339 0.66039,-0.21035 66.52302,-21.01714 108.2057,-19.42625 0.25964,0.01 0.52151,-0.009 0.77768,-0.0515 0.2049,-0.0353 0.76931,-0.14783 1.57079,-0.43603 2.93544,-1.0554 12.38791,-5.85448 10.78949,-23.27682 -0.43233,-4.71745 -0.8996,-9.13952 -1.35277,-13.41606 -1.24321,-11.73474 -2.41664,-22.81748 -2.4463,-36.66885 -0.005,-2.65724 0.0426,-5.02916 0.0876,-7.12262 0.16366,-7.78799 0.26289,-12.49029 -3.00938,-15.75422 -2.94035,-2.93304 -7.51066,-3.4131 -14.40832,-3.25143 z" />
    </g>
    <g
       id="g15583"
       transform="translate(-445.11686,-7.9096755)">
      <g
         id="g15526">
        <g
           id="g16507"
           transform="rotate(180,232.60138,190.9802)" />
      </g>
      <g
         id="g15528" />
      <g
         id="g15530" />
      <g
         id="g15532" />
      <g
         id="g15534" />
      <g
         id="g15536" />
      <g
         id="g15538" />
      <g
         id="g15540" />
      <g
         id="g15542" />
      <g
         id="g15544" />
      <g
         id="g15546" />
      <g
         id="g15548" />
      <g
         id="g15550" />
      <g
         id="g15552" />
      <g
         id="g15554" />
      <g
         id="g15556" />
    </g>
  </g>
</svg>
