<?xml version="1.0" encoding="UTF-8" standalone="no"?>
<!-- Created with Inkscape (http://www.inkscape.org/) -->

<svg
   version="1.1"
   id="svg2"
   width="512"
   height="512"
   viewBox="0 0 512 512"
   sodipodi:docname="whiplash.svg"
   inkscape:version="1.1.1 (3bf5ae0d25, 2021-09-20)"
   xmlns:inkscape="http://www.inkscape.org/namespaces/inkscape"
   xmlns:sodipodi="http://sodipodi.sourceforge.net/DTD/sodipodi-0.dtd"
   xmlns="http://www.w3.org/2000/svg"
   xmlns:svg="http://www.w3.org/2000/svg">
  <defs
     id="defs6" />
  <sodipodi:namedview
     id="namedview4"
     pagecolor="#505050"
     bordercolor="#eeeeee"
     borderopacity="1"
     inkscape:pageshadow="0"
     inkscape:pageopacity="0"
     inkscape:pagecheckerboard="0"
     showgrid="false"
     inkscape:zoom="1.2788086"
     inkscape:cx="326.47575"
     inkscape:cy="335.85949"
     inkscape:window-width="1716"
     inkscape:window-height="1414"
     inkscape:window-x="3160"
     inkscape:window-y="587"
     inkscape:window-maximized="1"
     inkscape:current-layer="g827" />
  <g
     inkscape:groupmode="layer"
     inkscape:label="Image"
     id="g8">
    <g
       id="g827"
       style="fill:#ff0ec0">
      <path
         style="fill:#ff0ec0;fill-opacity:1;stroke:none;stroke-width:80.1553;stroke-linejoin:round;stroke-miterlimit:4;stroke-dasharray:none;stroke-opacity:1;paint-order:markers stroke fill"
         d="m 143.26211,449.59947 -3.1058,-0.35427 0.71235,-22.92001 c 0.60556,-19.48399 0.48029,-23.00908 -0.83553,-23.51401 -0.85134,-0.32668 -6.47677,1.85066 -12.50097,4.83856 -11.30222,5.6057 -13.56068,6.18679 -16.96489,4.36492 -1.81641,-0.97212 -14.1992,-22.60662 -16.436915,-28.71764 -1.152757,-3.14813 -14.904366,-28.74198 -16.977539,-31.59779 -1.477912,-2.03586 -1.753642,-2.02251 -17.677587,0.85635 -17.2103,3.1114 -19.897558,-3.52972 -22.455207,-8.04895 -2.861021,-5.05526 -0.329527,-9.72769 -0.123536,-43.50678 L 37.187337,253.306 34.43773,246.89357 C 28.194793,232.33423 22.994211,208.0665 22.184586,189.71612 21.497574,174.14459 23.039139,164.0249 28.987801,145.05614 32.190599,134.84323 34.073095,131.0403 41.259341,120.26572 53.867763,101.36148 72.074106,85.49408 91.41293,76.555255 221.73179,27.16392 326.78175,110.21198 267.04237,234.60309 c 0.87026,10.2866 1.85441,25.19549 2.18701,33.13087 0.88269,21.06012 2.40886,31.67403 7.22262,50.23067 2.36349,9.11099 4.72947,19.45103 5.25776,22.97786 0.52828,3.52684 2.82377,13.62641 5.10109,22.44349 4.13732,16.01847 6.21961,24.95257 7.22366,30.9934 0.2931,1.76341 3.35534,14.50686 6.80496,28.31878 3.44964,13.81194 5.86662,25.51804 5.37107,26.0136 -0.834,0.83399 -156.00826,1.67934 -162.94843,0.88771 z m 176.08604,-38.65466 72.56929,-13.01031 -16.22212,-36.57247 c -0.39954,-0.42203 114.27174,22.53529 114.27174,22.53529 l -73.45992,15.63358 21.85649,38.66598 z m 27.40805,-74.7921 55.57435,-50.69802 -32.32333,-21.29219 111.22322,-46.89442 -57.52512,56.15879 c 9.67919,6.18224 37.06063,19.04254 37.06063,19.04254 z m -45.95572,-40.96405 27.78718,-77.99786 -37.40581,-1.33554 70.35496,-93.83747 -20.12429,72.64471 42.11854,-3.01741 z"
         id="path829"
         sodipodi:nodetypes="scssssssssscssssccssssssssccccccccccccccccccccc" />
    </g>
  </g>
</svg>
