<?xml version="1.0" encoding="UTF-8" standalone="no"?>
<svg
   width="512" height="512"
   viewBox="0 0 512 512"
   version="1.1"
   id="svg908"
   sodipodi:docname="air_hypo.svg"
   inkscape:version="1.1.1 (3bf5ae0d25, 2021-09-20)"
   xmlns:inkscape="http://www.inkscape.org/namespaces/inkscape"
   xmlns:sodipodi="http://sodipodi.sourceforge.net/DTD/sodipodi-0.dtd"
   xmlns="http://www.w3.org/2000/svg"
   xmlns:svg="http://www.w3.org/2000/svg">
  <defs
     id="defs912">
    <filter
       style="color-interpolation-filters:sRGB;"
       inkscape:label="Drop Shadow"
       id="filter1030"
       x="-0.25410684"
       y="-0.17836573"
       width="1.4947209"
       height="1.347283">
      <feFlood
         flood-opacity="1"
         flood-color="rgb(58,63,94)"
         result="flood"
         id="feFlood1020" />
      <feComposite
         in="flood"
         in2="SourceGraphic"
         operator="out"
         result="composite1"
         id="feComposite1022" />
      <feGaussianBlur
         in="composite1"
         stdDeviation="15"
         result="blur"
         id="feGaussianBlur1024" />
      <feOffset
         dx="0"
         dy="0"
         result="offset"
         id="feOffset1026" />
      <feComposite
         in="offset"
         in2="SourceGraphic"
         operator="atop"
         result="composite2"
         id="feComposite1028" />
    </filter>
    <filter
       style="color-interpolation-filters:sRGB;"
       inkscape:label="Drop Shadow"
       id="filter940"
       x="-0.06658826"
       y="-0.046746674"
       width="1.1331765"
       height="1.0934933">
      <feFlood
         flood-opacity="1"
         flood-color="rgb(58,63,94)"
         result="flood"
         id="feFlood930" />
      <feComposite
         in="flood"
         in2="SourceGraphic"
         operator="out"
         result="composite1"
         id="feComposite932" />
      <feGaussianBlur
         in="composite1"
         stdDeviation="8.30229"
         result="blur"
         id="feGaussianBlur934" />
      <feOffset
         dx="0"
         dy="0"
         result="offset"
         id="feOffset936" />
      <feComposite
         in="offset"
         in2="SourceGraphic"
         operator="atop"
         result="composite2"
         id="feComposite938" />
    </filter>
  </defs>
  <sodipodi:namedview
     id="namedview910"
     pagecolor="#505050"
     bordercolor="#eeeeee"
     borderopacity="1"
     inkscape:pageshadow="0"
     inkscape:pageopacity="0"
     inkscape:pagecheckerboard="0"
     showgrid="false"
     inkscape:zoom="1.1708985"
     inkscape:cx="283.11591"
     inkscape:cy="173.79816"
     inkscape:window-width="1716"
     inkscape:window-height="1414"
     inkscape:window-x="3160"
     inkscape:window-y="587"
     inkscape:window-maximized="1"
     inkscape:current-layer="svg908" />
  <path
     d="M0 0h512v512H0z"
     fill="#b90202"
     fill-opacity="1"
     id="path902"
     style="fill:#1b1f21;fill-opacity:0" />
  <path
     id="path904"
     d="m 346.5664,42.877927 -14.17578,14.21875 59.05274,58.867183 14.17382,-14.21875 z m -11.68163,25.302735 -66.03907,66.166008 8.76759,8.90625 66.21483,-66.423821 z m -1.05273,29.779297 -4.64454,4.660151 21.19336,21.125 4.64453,-4.6582 z m 22.5078,1.125 -4.64453,4.658201 8.92773,8.90039 4.64454,-4.6582 z m 16.79689,7.464841 -0.002,0.002 -66.2129,66.42188 8.29688,8.64062 66.97852,-66.61914 z m -37.56642,13.36914 -4.64452,4.6582 8.92773,8.90235 4.64648,-4.66016 z m -157.13281,2.86719 -51.93555,51.48828 32.63086,16.5293 c 8.15993,-0.54741 16.99207,-4.8065 23.79492,-11.55079 6.80285,-6.74428 11.13792,-15.53846 11.75586,-23.69335 z m 124.14844,6.51953 -4.64649,4.6582 21.19336,21.12695 4.64453,-4.6582 z m 22.50585,1.12305 -4.64452,4.66015 8.92968,8.90039 4.64453,-4.66015 z m -68.21289,2.41796 -14.16796,14.21094 59.05273,58.86719 14.16601,-14.21094 z m 47.44337,18.41797 -4.64454,4.65821 8.92969,8.90039 4.64453,-4.65821 z m -74.85548,5.61133 -63.48046,63.47852 c 8.27511,1.73377 16.96525,3.18421 25.5664,3.50195 16.80719,0.62167 32.05583,-2.50895 44.75586,-15.20898 l 8.78906,-8.78907 24.36914,24.36914 0.10157,0.0996 6.78906,6.78907 13.67578,-13.67579 -11.24022,-11.24023 6.93554,-6.95508 -36.28516,-36.17187 -6.87891,6.89843 -13.0957,-13.0957 z m 93.78321,62.51758 -29.30664,29.30859 29.30273,29.30469 29.30664,-29.30664 -29.30078,-29.30664 z m -78.15039,19.55469 v 0.002 c -2.44938,0 -4.89885,0.97055 -6.83984,2.91016 -3.87923,3.87922 -3.87923,9.79575 0,13.67773 3.88198,3.88199 9.79575,3.88199 13.67773,0 3.87923,-3.88198 3.87923,-9.79851 0,-13.67773 -1.94099,-1.94099 -4.38851,-2.91211 -6.83789,-2.91211 z m -99.91016,2.20703 -38.80664,38.80469 129.19142,129.1875 c 2.66212,-0.95876 7.36395,-3.41379 12.78906,-7.09961 5.57568,-3.79356 11.93939,-8.77358 18.56639,-14.45704 -9.95224,3.64991 -20.89866,2.72187 -29.65039,-6.03124 l -46.89062,-46.88868 c -22.22262,-22.22539 5.8537,-58.63324 31.83398,-56.83593 2.30709,0.16026 4.59793,0.62785 6.83594,1.42773 -3.02545,-1.57213 -5.85826,-3.61998 -8.38086,-6.14258 -6.98067,-6.98066 -10.31093,-16.32286 -10.00976,-25.5664 -6.79693,1.08447 -13.55127,1.39272 -20.03321,1.15234 -17.85436,-0.66035 -33.50178,-4.70215 -45.44336,-7.55078 z m 130.17188,24.13476 c -1.52931,2.81824 -3.47059,5.46083 -5.83985,7.83008 -9.91909,9.91909 -24.60828,12.47917 -36.99609,7.69922 2.33196,1.24748 4.58507,2.88666 6.70703,5.00586 l 46.88867,46.88672 c 9.41761,9.41623 9.79959,21.38012 5.14258,31.9043 11.64595,-12.01619 22.24066,-24.52265 29.02931,-34.50391 3.68856,-5.42234 6.14866,-10.1236 7.10741,-12.78711 z m -55.58399,37.42969 c -5.18112,0.0578 -15.22542,10.94979 -11.80664,14.36719 l 46.88867,46.89062 c 3.90963,3.90685 17.58655,-9.76697 13.67969,-13.67382 l -46.89258,-46.89063 c -0.48722,-0.48722 -1.12759,-0.70123 -1.86719,-0.69336 z m -54.62695,66.74024 -53.64063,61.75976 4.58399,29.94141 31.0039,7.96094 69.38477,-47.84376 z"
     style="fill:#ff0ec0;fill-opacity:1;filter:url(#filter940)" />
  <g
     id="g1524"
     transform="matrix(0.65299367,0.65095314,-0.65095314,0.65299367,760.96027,405.16803)">
    <g
       class=""
       id="g1513" />
  </g>
  <g
     id="g1741"
     transform="matrix(0.73148951,-0.72519164,0.72519164,0.73148951,174.72172,-127.52936)">
    <g
       class=""
       id="g1730" />
  </g>
</svg>
