<?xml version="1.0" encoding="UTF-8" standalone="no"?>
<!-- Generator: Adobe Illustrator 18.0.0, SVG Export Plug-In . SVG Version: 6.00 Build 0)  -->

<svg
   version="1.1"
   id="Capa_1"
   x="0px"
   y="0px"
   viewBox="0 0 512 512"
   height="512"
   width="512"
   style="enable-background:new 0 0 512 512;"
   xml:space="preserve"
   sodipodi:docname="audio_recorder.svg"
   inkscape:version="1.1.1 (3bf5ae0d25, 2021-09-20)"
   xmlns:inkscape="http://www.inkscape.org/namespaces/inkscape"
   xmlns:sodipodi="http://sodipodi.sourceforge.net/DTD/sodipodi-0.dtd"
   xmlns="http://www.w3.org/2000/svg"
   xmlns:svg="http://www.w3.org/2000/svg"><defs
   id="defs43"><filter
     style="color-interpolation-filters:sRGB;"
     inkscape:label="Drop Shadow"
     id="filter932"
     x="-0.18721603"
     y="-0.23038863"
     width="1.3644911"
     height="1.448573"><feFlood
       flood-opacity="1"
       flood-color="rgb(58,63,94)"
       result="flood"
       id="feFlood922" /><feComposite
       in="flood"
       in2="SourceGraphic"
       operator="out"
       result="composite1"
       id="feComposite924" /><feGaussianBlur
       in="composite1"
       stdDeviation="15"
       result="blur"
       id="feGaussianBlur926" /><feOffset
       dx="0"
       dy="0"
       result="offset"
       id="feOffset928" /><feComposite
       in="offset"
       in2="SourceGraphic"
       operator="atop"
       result="composite2"
       id="feComposite930" /></filter></defs><sodipodi:namedview
   id="namedview41"
   pagecolor="#505050"
   bordercolor="#eeeeee"
   borderopacity="1"
   inkscape:pageshadow="0"
   inkscape:pageopacity="0"
   inkscape:pagecheckerboard="0"
   showgrid="false"
   inkscape:zoom="1.7050781"
   inkscape:cx="256"
   inkscape:cy="256"
   inkscape:window-width="1716"
   inkscape:window-height="1414"
   inkscape:window-x="3160"
   inkscape:window-y="587"
   inkscape:window-maximized="1"
   inkscape:current-layer="Capa_1" />
<g
   id="g949"><path
     d="M 0,0 H 512 V 512 H 0 Z"
     fill="#b90202"
     fill-opacity="1"
     id="path902"
     style="fill:#1b1f21;fill-opacity:0" /><g
     id="g1524"
     transform="matrix(0.65299367,0.65095314,-0.65095314,0.65299367,760.96027,405.16803)"><g
       class=""
       id="g1513" /></g><g
     id="g1741"
     transform="matrix(0.73148951,-0.72519164,0.72519164,0.73148951,174.72172,-127.52936)"><g
       class=""
       id="g1730" /></g></g><g
   id="g8"
   style="fill:#ffffff"
   transform="matrix(0.79325675,0,0,0.79325675,52.926272,52.926272)">
	<path
   id="path2"
   style="fill:#ff0ec0;stroke-width:0.793257;fill-opacity:1;filter:url(#filter932)"
   d="M 78.310547 91.001953 C 64.292114 91.001953 52.925781 102.3667 52.925781 116.38672 L 52.925781 395.61328 C 52.925781 409.63171 64.292114 420.99805 78.310547 420.99805 L 433.68945 420.99805 C 447.70789 420.99805 459.07422 409.63171 459.07422 395.61328 L 459.07422 116.38672 C 459.07422 102.3667 447.70789 91.001953 433.68945 91.001953 L 78.310547 91.001953 z M 167.1543 141.77148 C 209.21277 141.77148 243.30859 175.86536 243.30859 217.92383 C 243.30859 259.9823 209.21277 294.07617 167.1543 294.07617 C 125.09582 294.07617 91.001953 259.9823 91.001953 217.92383 C 91.001953 175.86536 125.09582 141.77148 167.1543 141.77148 z M 344.8457 141.77148 C 386.90418 141.77148 420.99805 175.86536 420.99805 217.92383 C 420.99805 259.9823 386.90418 294.07617 344.8457 294.07617 C 302.78723 294.07617 268.69141 259.9823 268.69141 217.92383 C 268.69141 175.86536 302.78723 141.77148 344.8457 141.77148 z M 133.03906 167.25977 C 130.1979 167.3594 127.37204 168.40821 125.07422 170.43359 C 114.89198 179.45054 108.01925 191.48004 105.19922 205.23828 C 104.52336 208.53506 105.18601 211.96805 107.03906 214.77539 C 108.89528 217.58273 111.79032 219.54174 115.08789 220.2168 L 143.0957 225.95508 C 143.17027 226.17481 143.30343 226.36743 143.38672 226.58398 C 143.8238 227.78973 144.36966 228.92692 144.98047 230.03906 C 145.10739 230.26831 145.21708 230.50048 145.35352 230.72656 C 146.17771 232.12745 147.11972 233.42853 148.19141 234.64062 L 139.05078 262.06055 C 136.83839 268.70407 140.42288 275.88673 147.06641 278.10547 C 153.41881 280.2314 160.00613 281.29688 166.64648 281.29688 C 173.48832 281.29688 180.38867 280.16813 187.15039 277.91211 C 193.80026 275.69496 197.39525 268.50729 195.17969 261.85742 L 186.10938 234.6543 C 187.17869 233.44299 188.12576 232.13722 188.95312 230.73633 C 189.08639 230.51342 189.19608 230.27881 189.32617 230.05273 C 189.93698 228.94059 190.47771 227.80182 190.91797 226.59766 C 190.99888 226.3811 191.13637 226.18653 191.21094 225.9668 L 219.42578 220.19141 C 226.28587 218.79051 230.71406 212.09251 229.32031 205.23242 C 226.60896 191.90809 219.62467 179.94009 209.11719 170.60742 C 206.60098 168.37044 203.27278 167.16706 199.93555 167.43359 C 196.57372 167.63191 193.42796 169.16348 191.19336 171.67969 L 172.24805 193.05469 C 170.71706 192.74135 169.13112 192.59838 167.51367 192.57617 C 167.33678 192.573 167.16127 192.55505 166.98438 192.55664 C 165.30822 192.56775 163.66269 192.72872 162.07617 193.05078 L 142.98242 171.51758 C 140.37122 168.57172 136.69199 167.13167 133.03906 167.25977 z M 310.72852 167.25977 C 307.88735 167.3594 305.06149 168.40821 302.76367 170.43359 C 292.58143 179.45054 285.7087 191.48004 282.88867 205.23828 C 282.21282 208.53506 282.87547 211.96805 284.72852 214.77539 C 286.58474 217.58273 289.47978 219.54174 292.77734 220.2168 L 320.78516 225.95508 C 320.85972 226.17481 320.99483 226.36743 321.07812 226.58398 C 321.51521 227.78973 322.05911 228.92692 322.66992 230.03906 C 322.79684 230.26831 322.90653 230.50048 323.04297 230.72656 C 323.86716 232.12745 324.80917 233.42853 325.88086 234.64062 L 316.74023 262.06055 C 314.52784 268.70407 318.11233 275.88673 324.75586 278.10547 C 331.10826 280.2314 337.69559 281.29688 344.33594 281.29688 C 351.17778 281.29688 358.07812 280.16813 364.83984 277.91211 C 371.48972 275.69337 375.08471 268.50534 372.86914 261.85547 L 363.79883 234.65234 C 364.86814 233.44104 365.81521 232.13527 366.64258 230.73438 C 366.77585 230.51147 366.88553 230.27686 367.01562 230.05078 C 367.62643 228.93864 368.16716 227.79987 368.60742 226.5957 C 368.68833 226.37914 368.82582 226.18458 368.90039 225.96484 L 397.11523 220.18945 C 403.97532 218.78856 408.40352 212.09055 407.00977 205.23047 C 404.29841 191.90614 397.31412 179.93813 386.80664 170.60547 C 384.29122 168.36928 380.97175 167.16706 377.625 167.43359 C 374.26318 167.63191 371.11742 169.16348 368.88281 171.67969 L 349.9375 193.05469 C 348.40651 192.74135 346.82058 192.59838 345.20312 192.57617 C 345.02623 192.573 344.85072 192.55505 344.67383 192.55664 C 342.99768 192.56775 341.35214 192.72872 339.76562 193.05078 L 320.67188 171.51758 C 318.06067 168.57172 314.38144 167.13167 310.72852 167.25977 z M 129.07812 319.46094 L 179.84766 319.46094 L 179.84766 370.22852 L 129.07812 370.22852 L 129.07812 319.46094 z M 217.92383 319.46094 L 294.07617 319.46094 L 294.07617 370.22852 L 217.92383 370.22852 L 217.92383 319.46094 z M 332.15234 319.46094 L 382.92188 319.46094 L 382.92188 370.22852 L 332.15234 370.22852 L 332.15234 319.46094 z "
   transform="matrix(1.2606259,0,0,1.2606259,-66.720229,-66.720229)" />


</g>
<g
   id="g10">
</g>
<g
   id="g12">
</g>
<g
   id="g14">
</g>
<g
   id="g16">
</g>
<g
   id="g18">
</g>
<g
   id="g20">
</g>
<g
   id="g22">
</g>
<g
   id="g24">
</g>
<g
   id="g26">
</g>
<g
   id="g28">
</g>
<g
   id="g30">
</g>
<g
   id="g32">
</g>
<g
   id="g34">
</g>
<g
   id="g36">
</g>
<g
   id="g38">
</g>
</svg>
