<?xml version="1.0" encoding="UTF-8" standalone="no"?>
<!-- Generator: Adobe Illustrator 19.0.0, SVG Export Plug-In . SVG Version: 6.00 Build 0)  -->

<svg
   version="1.1"
   id="Capa_1"
   x="0px"
   y="0px"
   viewBox="0 0 512 512"
   xml:space="preserve"
   sodipodi:docname="auto_leveldampeningear_protectors.svg"
   width="512"
   height="512"
   inkscape:version="1.2.1 (9c6d41e410, 2022-07-14)"
   xmlns:inkscape="http://www.inkscape.org/namespaces/inkscape"
   xmlns:sodipodi="http://sodipodi.sourceforge.net/DTD/sodipodi-0.dtd"
   xmlns="http://www.w3.org/2000/svg"
   xmlns:svg="http://www.w3.org/2000/svg"><defs
   id="defs45"><filter
   style="color-interpolation-filters:sRGB;"
   inkscape:label="Drop Shadow"
   id="filter891"
   x="-1.3339912"
   y="-1.3576312"
   width="3.5971491"
   height="3.6433455"><feFlood
     flood-opacity="1"
     flood-color="rgb(58,63,94)"
     result="flood"
     id="feFlood881" /><feComposite
     in="flood"
     in2="SourceGraphic"
     operator="out"
     result="composite1"
     id="feComposite883" /><feGaussianBlur
     in="composite1"
     stdDeviation="15"
     result="blur"
     id="feGaussianBlur885" /><feOffset
     dx="0"
     dy="0"
     result="offset"
     id="feOffset887" /><feComposite
     in="offset"
     in2="SourceGraphic"
     operator="atop"
     result="composite2"
     id="feComposite889" /></filter><filter
   style="color-interpolation-filters:sRGB;"
   inkscape:label="Drop Shadow"
   id="filter1007"
   x="-0.19170189"
   y="-0.19512514"
   width="1.3834038"
   height="1.3902503"><feFlood
     flood-opacity="1"
     flood-color="rgb(58,63,94)"
     result="flood"
     id="feFlood997" /><feComposite
     in="flood"
     in2="SourceGraphic"
     operator="out"
     result="composite1"
     id="feComposite999" /><feGaussianBlur
     in="composite1"
     stdDeviation="4.55292"
     result="blur"
     id="feGaussianBlur1001" /><feOffset
     dx="0"
     dy="0"
     result="offset"
     id="feOffset1003" /><feComposite
     in="offset"
     in2="SourceGraphic"
     operator="atop"
     result="composite2"
     id="feComposite1005" /></filter><filter
   style="color-interpolation-filters:sRGB;"
   inkscape:label="Drop Shadow"
   id="filter1014"
   x="-0.49531855"
   y="-0.20955785"
   width="1.9906371"
   height="1.4191157"><feFlood
     flood-opacity="1"
     flood-color="rgb(58,63,94)"
     result="flood"
     id="feFlood1003" /><feComposite
     in="flood"
     in2="SourceGraphic"
     operator="out"
     result="composite1"
     id="feComposite1006" /><feGaussianBlur
     in="composite1"
     stdDeviation="2.27021"
     result="blur"
     id="feGaussianBlur1008" /><feOffset
     dx="0"
     dy="0"
     result="offset"
     id="feOffset1010" /><feComposite
     in="offset"
     in2="SourceGraphic"
     operator="atop"
     result="composite2"
     id="feComposite1012" /></filter>
</defs><sodipodi:namedview
   id="namedview43"
   pagecolor="#505050"
   bordercolor="#eeeeee"
   borderopacity="1"
   inkscape:pageshadow="0"
   inkscape:pageopacity="0"
   inkscape:pagecheckerboard="0"
   showgrid="false"
   inkscape:zoom="0.909375"
   inkscape:cx="187.49141"
   inkscape:cy="306.80412"
   inkscape:window-width="1920"
   inkscape:window-height="1057"
   inkscape:window-x="-8"
   inkscape:window-y="-8"
   inkscape:window-maximized="1"
   inkscape:current-layer="Capa_1"
   inkscape:showpageshadow="2"
   inkscape:deskcolor="#505050" />
<path
   d="M 0,0 H 512 V 512 H 0 Z"
   fill="#b90202"
   fill-opacity="1"
   id="path902"
   style="fill:#1b1f21;fill-opacity:0" /><path
   d="M 33.443,18.124 C 33.831,17.22 33.935,16.199 33.735,15.249 33.579,14.508 33.5,13.751 33.5,13 c 0,-0.751 0.079,-1.508 0.235,-2.249 0.2,-0.95 0.096,-1.971 -0.292,-2.875 C 31.39,3.092 26.702,0 21.5,0 c -2.757,0 -5,2.243 -5,5 v 1 h -2 v 14 h 2 v 1 c 0,2.757 2.243,5 5,5 5.202,0 9.89,-3.092 11.943,-7.876 z"
   id="path2"
   style="fill:#ff0ec0;fill-opacity:1;filter:url(#filter1014)"
   transform="matrix(7.5576765,0,0,7.5576765,29.269705,44.385058)" /><path
   d="m 43.5,27 c 0,-2.757 -2.243,-5 -5,-5 -5.202,0 -9.89,3.092 -11.943,7.876 -0.388,0.904 -0.492,1.925 -0.292,2.875 0.156,0.741 0.235,1.498 0.235,2.249 0,0.751 -0.079,1.508 -0.235,2.249 -0.2,0.95 -0.096,1.971 0.292,2.875 C 28.61,44.908 33.298,48 38.5,48 c 2.757,0 5,-2.243 5,-5 v -1 h 2 V 28 h -2 z"
   id="path4"
   style="fill:#ff0ec0;fill-opacity:1;filter:url(#filter1014)"
   transform="matrix(7.5576765,0,0,7.5576765,29.269705,44.385058)" /><path
   d="M 1.5,15 V 31.32 C 1.5,32.798 2.702,34 4.18,34 H 5.5 c 3.32,0 0,0 2,0 h 1.32 c 1.478,0 2.68,-1.202 2.68,-2.68 V 20.68 C 11.5,20.305 11.805,20 12.18,20 H 12.5 V 6 h -2 c -4.962,0 -9,4.037 -9,9 z"
   id="path6"
   style="fill:#ff0ec0;fill-opacity:1;filter:url(#filter1014)"
   sodipodi:nodetypes="sssccssssccss"
   transform="matrix(7.5576765,0,0,7.5576765,29.269705,44.385058)" /><path
   d="m 49.5,28 h -2 v 14 h 0.32 c 0.375,0 0.68,0.305 0.68,0.68 v 10.64 c 0,1.478 1.202,2.68 2.68,2.68 h 1.32 c 2,0 0,0 2,0 h 1.32 c 1.478,0 2.68,-1.202 2.68,-2.68 V 37 c 0,-4.963 -4.038,-9 -9,-9 z"
   id="path8"
   style="fill:#ff0ec0;fill-opacity:1;filter:url(#filter1014)"
   sodipodi:nodetypes="sccssssccssss"
   transform="matrix(7.5576765,0,0,7.5576765,29.269705,44.385058)" />
</svg>
