<?xml version="1.0" encoding="UTF-8" standalone="no"?>
<svg
   width="512" height="512"
   viewBox="0 0 512 512"
   version="1.1"
   id="svg8"
   sodipodi:docname="duct_tape.svg"
   inkscape:version="1.1.1 (3bf5ae0d25, 2021-09-20)"
   xmlns:inkscape="http://www.inkscape.org/namespaces/inkscape"
   xmlns:sodipodi="http://sodipodi.sourceforge.net/DTD/sodipodi-0.dtd"
   xmlns="http://www.w3.org/2000/svg"
   xmlns:svg="http://www.w3.org/2000/svg">
  <defs
     id="defs12">
    <filter
       style="color-interpolation-filters:sRGB;"
       inkscape:label="Drop Shadow"
       id="filter891"
       x="-0.19293261"
       y="-0.16154598"
       width="1.3757109"
       height="1.3145895">
      <feFlood
         flood-opacity="1"
         flood-color="rgb(58,63,94)"
         result="flood"
         id="feFlood881" />
      <feComposite
         in="flood"
         in2="SourceGraphic"
         operator="out"
         result="composite1"
         id="feComposite883" />
      <feGaussianBlur
         in="composite1"
         stdDeviation="15"
         result="blur"
         id="feGaussianBlur885" />
      <feOffset
         dx="0"
         dy="0"
         result="offset"
         id="feOffset887" />
      <feComposite
         in="offset"
         in2="SourceGraphic"
         operator="atop"
         result="composite2"
         id="feComposite889" />
    </filter>
    <filter
       style="color-interpolation-filters:sRGB;"
       inkscape:label="Drop Shadow"
       id="filter1161"
       x="-0.12463272"
       y="-0.096354779"
       width="1.2492654"
       height="1.1927096">
      <feFlood
         flood-opacity="1"
         flood-color="rgb(58,63,94)"
         result="flood"
         id="feFlood1151" />
      <feComposite
         in="flood"
         in2="SourceGraphic"
         operator="out"
         result="composite1"
         id="feComposite1153" />
      <feGaussianBlur
         in="composite1"
         stdDeviation="12.9765"
         result="blur"
         id="feGaussianBlur1155" />
      <feOffset
         dx="0"
         dy="0"
         result="offset"
         id="feOffset1157" />
      <feComposite
         in="offset"
         in2="SourceGraphic"
         operator="atop"
         result="composite2"
         id="feComposite1159" />
    </filter>
  </defs>
  <sodipodi:namedview
     id="namedview10"
     pagecolor="#505050"
     bordercolor="#eeeeee"
     borderopacity="1"
     inkscape:pageshadow="0"
     inkscape:pageopacity="0"
     inkscape:pagecheckerboard="0"
     showgrid="false"
     inkscape:zoom="1.2056723"
     inkscape:cx="278.26798"
     inkscape:cy="259.19149"
     inkscape:window-width="1716"
     inkscape:window-height="1414"
     inkscape:window-x="3160"
     inkscape:window-y="587"
     inkscape:window-maximized="1"
     inkscape:current-layer="svg8" />
  <path
     d="M0 0h512v512H0z"
     fill="#b90202"
     fill-opacity="1"
     id="path2"
     style="fill:#1b1f21;fill-opacity:0" />
  <g
     id="g531"
     transform="matrix(0.73268283,0,0,0.73268283,140.29587,219.46412)">
    <g
       id="g470">
      <g
         id="g468">
        <g
           id="Layer_5_19_">
          <g
             id="g465">
            <g
               id="g457" />
            <g
               id="g463" />
          </g>
        </g>
      </g>
    </g>
    <g
       id="g472" />
    <g
       id="g474" />
    <g
       id="g476" />
    <g
       id="g478" />
    <g
       id="g480" />
    <g
       id="g482" />
    <g
       id="g484" />
    <g
       id="g486" />
    <g
       id="g488" />
    <g
       id="g490" />
    <g
       id="g492" />
    <g
       id="g494" />
    <g
       id="g496" />
    <g
       id="g498" />
    <g
       id="g500" />
  </g>
  <g
     id="g1083"
     transform="matrix(1.4514909,0,0,1.4514909,21.426733,21.426007)"
     style="fill:#ff0ec0;fill-opacity:1;filter:url(#filter1161)">
    <g
       id="g1024"
       style="fill:#ff0ec0;fill-opacity:1">
	<path
   d="m 66.172,28.604 c 0,-0.362 -0.135,-0.677 -0.205,-1.018 L 145.813,0 c 1.897,31.277 15.053,76.542 34.703,96.994 h -59.068 c -2.609,0 -5.189,0.168 -7.74,0.425 -0.646,-0.273 -1.349,-0.425 -2.092,-0.425 -24.636,0 -45.444,-31.316 -45.444,-68.39 z"
   id="path1012"
   style="fill:#ff0ec0;fill-opacity:1" />

	<path
   d="m 121.448,323.218 c -46.751,0 -84.781,-48.326 -84.781,-107.733 0,-59.403 38.035,-107.734 84.781,-107.734 h 40.638 c -32.918,18.73 -55.851,59.964 -55.851,107.734 0,47.775 22.932,89.004 55.851,107.733 z"
   id="path1014"
   style="fill:#ff0ec0;fill-opacity:1" />

	<g
   id="g1022"
   style="fill:#ff0ec0;fill-opacity:1">
		<path
   d="m 201.772,107.745 c -46.749,0 -84.786,48.331 -84.786,107.734 0,59.402 38.037,107.733 84.786,107.733 46.752,0 84.778,-48.331 84.778,-107.733 0,-59.403 -38.026,-107.734 -84.778,-107.734 z m 0,186.883 c -13.302,0 -26.278,-6.897 -36.53,-19.412 -12.5,-15.254 -19.665,-37.029 -19.665,-59.731 0,-22.71 7.165,-44.479 19.665,-59.731 10.252,-12.521 23.229,-19.41 36.53,-19.41 30.462,0 56.195,36.248 56.195,79.146 0,42.903 -25.733,79.138 -56.195,79.138 z"
   id="path1016"
   style="fill:#ff0ec0;fill-opacity:1" />

		<path
   d="m 178.392,242.98 c 0.408,-1.319 0.781,-2.646 1.122,-3.989 0.221,-0.883 0.441,-1.766 0.641,-2.651 0.31,-1.381 0.572,-2.778 0.818,-4.188 0.153,-0.867 0.314,-1.738 0.447,-2.62 0.226,-1.543 0.394,-3.108 0.54,-4.678 0.08,-0.766 0.179,-1.521 0.23,-2.288 0.18,-2.342 0.278,-4.705 0.278,-7.081 0,-2.379 -0.099,-4.736 -0.278,-7.082 -0.052,-0.767 -0.15,-1.517 -0.23,-2.279 -0.146,-1.574 -0.314,-3.138 -0.54,-4.693 -0.133,-0.87 -0.289,-1.742 -0.447,-2.603 -0.246,-1.417 -0.514,-2.819 -0.818,-4.204 -0.199,-0.888 -0.42,-1.764 -0.641,-2.631 -0.341,-1.36 -0.725,-2.688 -1.122,-4.01 -0.252,-0.841 -0.504,-1.686 -0.787,-2.511 -0.463,-1.354 -0.967,-2.683 -1.493,-3.989 -0.288,-0.734 -0.556,-1.47 -0.87,-2.184 -0.672,-1.553 -1.396,-3.06 -2.152,-4.534 -0.216,-0.432 -0.41,-0.872 -0.631,-1.291 -0.959,-1.797 -1.994,-3.519 -3.075,-5.188 -8.357,12.873 -13.055,29.67 -13.055,47.199 0,17.526 4.698,34.325 13.055,47.196 1.086,-1.67 2.121,-3.386 3.075,-5.181 0.226,-0.421 0.42,-0.871 0.636,-1.302 0.751,-1.475 1.476,-2.978 2.147,-4.521 0.31,-0.725 0.582,-1.47 0.87,-2.199 0.526,-1.312 1.025,-2.629 1.486,-3.979 0.279,-0.834 0.542,-1.675 0.794,-2.519 z"
   id="path1018"
   style="fill:#ff0ec0;fill-opacity:1" />

		<path
   d="m 201.772,147.089 c -8.907,0 -17.807,4.341 -25.418,12.31 0.295,0.412 0.552,0.874 0.841,1.294 0.607,0.884 1.187,1.788 1.758,2.7 0.73,1.155 1.434,2.332 2.116,3.539 0.535,0.956 1.05,1.927 1.554,2.919 0.641,1.239 1.238,2.509 1.815,3.8 0.462,1.013 0.914,2.026 1.334,3.072 0.546,1.332 1.044,2.688 1.532,4.057 0.374,1.055 0.751,2.111 1.094,3.181 0.449,1.429 0.839,2.878 1.227,4.342 0.284,1.065 0.589,2.127 0.841,3.218 0.351,1.543 0.639,3.114 0.935,4.688 0.188,1.045 0.408,2.075 0.566,3.13 0.272,1.763 0.446,3.547 0.631,5.339 0.094,0.891 0.224,1.769 0.293,2.667 0.2,2.696 0.32,5.417 0.32,8.151 0,2.735 -0.109,5.454 -0.32,8.152 -0.072,0.893 -0.199,1.773 -0.293,2.667 -0.18,1.784 -0.358,3.581 -0.631,5.344 -0.158,1.045 -0.379,2.068 -0.566,3.106 -0.296,1.576 -0.579,3.15 -0.935,4.703 -0.252,1.083 -0.557,2.138 -0.841,3.204 -0.388,1.463 -0.787,2.917 -1.239,4.355 -0.335,1.077 -0.714,2.122 -1.091,3.171 -0.488,1.376 -0.987,2.74 -1.532,4.074 -0.421,1.034 -0.872,2.047 -1.335,3.065 -0.576,1.292 -1.176,2.562 -1.815,3.807 -0.504,0.981 -1.013,1.952 -1.553,2.908 -0.673,1.213 -1.387,2.377 -2.116,3.542 -0.572,0.914 -1.15,1.816 -1.759,2.698 -0.288,0.426 -0.546,0.883 -0.841,1.291 7.611,7.97 16.511,12.316 25.418,12.316 24.635,0 45.444,-31.323 45.444,-68.395 0.009,-37.097 -20.799,-68.415 -45.434,-68.415 z"
   id="path1020"
   style="fill:#ff0ec0;fill-opacity:1" />

	</g>

</g>
    <g
       id="g1026"
       style="fill:#ff0ec0;fill-opacity:1">
</g>
    <g
       id="g1028"
       style="fill:#ff0ec0;fill-opacity:1">
</g>
    <g
       id="g1030"
       style="fill:#ff0ec0;fill-opacity:1">
</g>
    <g
       id="g1032"
       style="fill:#ff0ec0;fill-opacity:1">
</g>
    <g
       id="g1034"
       style="fill:#ff0ec0;fill-opacity:1">
</g>
    <g
       id="g1036"
       style="fill:#ff0ec0;fill-opacity:1">
</g>
    <g
       id="g1038"
       style="fill:#ff0ec0;fill-opacity:1">
</g>
    <g
       id="g1040"
       style="fill:#ff0ec0;fill-opacity:1">
</g>
    <g
       id="g1042"
       style="fill:#ff0ec0;fill-opacity:1">
</g>
    <g
       id="g1044"
       style="fill:#ff0ec0;fill-opacity:1">
</g>
    <g
       id="g1046"
       style="fill:#ff0ec0;fill-opacity:1">
</g>
    <g
       id="g1048"
       style="fill:#ff0ec0;fill-opacity:1">
</g>
    <g
       id="g1050"
       style="fill:#ff0ec0;fill-opacity:1">
</g>
    <g
       id="g1052"
       style="fill:#ff0ec0;fill-opacity:1">
</g>
    <g
       id="g1054"
       style="fill:#ff0ec0;fill-opacity:1">
</g>
  </g>
</svg>
