<?xml version="1.0" encoding="UTF-8" standalone="no"?>
<!-- Generator: Adobe Illustrator 16.0.0, SVG Export Plug-In . SVG Version: 6.00 Build 0)  -->

<svg
   version="1.1"
   id="Capa_1"
   x="0px"
   y="0px"
   width="512"
   height="512"
   viewBox="0 0 512 512"
   xml:space="preserve"
   sodipodi:docname="electric_guitar.svg"
   inkscape:version="1.2.1 (9c6d41e410, 2022-07-14)"
   xmlns:inkscape="http://www.inkscape.org/namespaces/inkscape"
   xmlns:sodipodi="http://sodipodi.sourceforge.net/DTD/sodipodi-0.dtd"
   xmlns="http://www.w3.org/2000/svg"
   xmlns:svg="http://www.w3.org/2000/svg"><defs
   id="defs41"><filter
   style="color-interpolation-filters:sRGB;"
   inkscape:label="Drop Shadow"
   id="filter924"
   x="-0.16185325"
   y="-0.1567828"
   width="1.3151879"
   height="1.3053139"><feFlood
     flood-opacity="1"
     flood-color="rgb(58,63,94)"
     result="flood"
     id="feFlood914" /><feComposite
     in="flood"
     in2="SourceGraphic"
     operator="out"
     result="composite1"
     id="feComposite916" /><feGaussianBlur
     in="composite1"
     stdDeviation="15"
     result="blur"
     id="feGaussianBlur918" /><feOffset
     dx="0"
     dy="0"
     result="offset"
     id="feOffset920" /><feComposite
     in="offset"
     in2="SourceGraphic"
     operator="atop"
     result="composite2"
     id="feComposite922" /></filter><filter
   style="color-interpolation-filters:sRGB;"
   inkscape:label="Drop Shadow"
   id="filter974"
   x="-0.030901789"
   y="-0.029933714"
   width="1.0618036"
   height="1.0598674"><feFlood
     flood-opacity="1"
     flood-color="rgb(58,63,94)"
     result="flood"
     id="feFlood964" /><feComposite
     in="flood"
     in2="SourceGraphic"
     operator="out"
     result="composite1"
     id="feComposite966" /><feGaussianBlur
     in="composite1"
     stdDeviation="15"
     result="blur"
     id="feGaussianBlur968" /><feOffset
     dx="0"
     dy="0"
     result="offset"
     id="feOffset970" /><feComposite
     in="offset"
     in2="SourceGraphic"
     operator="atop"
     result="composite2"
     id="feComposite972" /></filter><filter
   style="color-interpolation-filters:sRGB;"
   inkscape:label="Drop Shadow"
   id="filter981"
   x="-0.043782258"
   y="-0.04241067"
   width="1.0875645"
   height="1.0848213"><feFlood
     flood-opacity="1"
     flood-color="rgb(58,63,94)"
     result="flood"
     id="feFlood970" /><feComposite
     in="flood"
     in2="SourceGraphic"
     operator="out"
     result="composite1"
     id="feComposite973" /><feGaussianBlur
     in="composite1"
     stdDeviation="15"
     result="blur"
     id="feGaussianBlur975" /><feOffset
     dx="0"
     dy="0"
     result="offset"
     id="feOffset977" /><feComposite
     in="offset"
     in2="SourceGraphic"
     operator="atop"
     result="composite2"
     id="feComposite979" /></filter>
</defs><sodipodi:namedview
   id="namedview39"
   pagecolor="#505050"
   bordercolor="#eeeeee"
   borderopacity="1"
   inkscape:pageshadow="0"
   inkscape:pageopacity="0"
   inkscape:pagecheckerboard="0"
   showgrid="false"
   inkscape:zoom="0.9004716"
   inkscape:cx="523.61451"
   inkscape:cy="352.03775"
   inkscape:window-width="1920"
   inkscape:window-height="1057"
   inkscape:window-x="-8"
   inkscape:window-y="-8"
   inkscape:window-maximized="1"
   inkscape:current-layer="Capa_1"
   inkscape:showpageshadow="2"
   inkscape:deskcolor="#505050" />
<path
   d="M 0,0 H 512 V 512 H 0 Z"
   fill="#b90202"
   fill-opacity="1"
   id="path902"
   style="fill:#1b1f21;fill-opacity:0" /><path
   d="m 16.321,300.903 121.595,7.927 c 10.788,0.705 20.091,10.015 20.773,20.807 l 9.349,146.476 c 0.689,10.78 4.921,11.577 9.454,1.763 L 287.145,240.48 c 4.528,-9.814 8.308,-17.853 8.384,-18.001 0.071,-0.15 0.071,-0.307 0.084,-0.336 0.016,-0.032 -0.021,-0.096 -0.068,-0.167 -0.053,-0.068 -0.044,-0.068 0.008,-0.006 0.048,0.06 -0.12,-0.18 -0.353,-0.561 -0.236,-0.375 -0.461,-0.782 -0.521,-0.886 -0.061,-0.11 -4.453,-8.674 -2.04,-19.208 0.309,-1.347 0.773,-2.615 1.19,-3.909 l 96.534,-94.88 c 11.598,-7.743 28.188,-1.801 28.188,-1.801 C 415.874,81.447 469.265,23.322 475.733,16.848 482.213,10.37 465.11,9.679 452.659,7.306 440.197,4.945 440.385,0 440.385,0 c -22.934,33.015 -75.227,56.841 -75.227,56.841 5.213,10.247 3.662,18.685 1.631,23.798 l -90.147,88.614 c -1.214,0.296 -2.416,0.557 -3.583,0.737 -9.758,1.563 -17.824,-0.385 -17.868,-0.361 -0.045,0.022 -0.116,0.054 -0.161,0.076 -0.048,0.022 -7.896,3.983 -17.552,8.839 L 14.273,290.841 c -9.655,4.856 -8.738,9.357 2.048,10.062 z"
   id="path2"
   style="fill:#ff0ec0;fill-opacity:1;filter:url(#filter981)"
   transform="matrix(0.88660874,0,0,0.88660874,41.110936,41.109508)" />
</svg>
