<?xml version="1.0" encoding="UTF-8" standalone="no"?>
<svg
   width="512" height="512"
   viewBox="0 0 512 512"
   version="1.1"
   id="svg8"
   sodipodi:docname="generic.svg"
   inkscape:version="1.1.1 (3bf5ae0d25, 2021-09-20)"
   xmlns:inkscape="http://www.inkscape.org/namespaces/inkscape"
   xmlns:sodipodi="http://sodipodi.sourceforge.net/DTD/sodipodi-0.dtd"
   xmlns="http://www.w3.org/2000/svg"
   xmlns:svg="http://www.w3.org/2000/svg">
  <defs
     id="defs12">
    <filter
       style="color-interpolation-filters:sRGB;"
       inkscape:label="Drop Shadow"
       id="filter905"
       x="-0.16800155"
       y="-0.16798655"
       width="1.3270824"
       height="1.3270744">
      <feFlood
         flood-opacity="1"
         flood-color="rgb(58,63,94)"
         result="flood"
         id="feFlood895" />
      <feComposite
         in="flood"
         in2="SourceGraphic"
         operator="out"
         result="composite1"
         id="feComposite897" />
      <feGaussianBlur
         in="composite1"
         stdDeviation="30"
         result="blur"
         id="feGaussianBlur899" />
      <feOffset
         dx="0"
         dy="0"
         result="offset"
         id="feOffset901" />
      <feComposite
         in="offset"
         in2="SourceGraphic"
         operator="atop"
         result="composite2"
         id="feComposite903" />
    </filter>
  </defs>
  <sodipodi:namedview
     id="namedview10"
     pagecolor="#505050"
     bordercolor="#eeeeee"
     borderopacity="1"
     inkscape:pageshadow="0"
     inkscape:pageopacity="0"
     inkscape:pagecheckerboard="0"
     showgrid="false"
     inkscape:zoom="1.7050781"
     inkscape:cx="256"
     inkscape:cy="256"
     inkscape:window-width="1716"
     inkscape:window-height="1414"
     inkscape:window-x="3160"
     inkscape:window-y="587"
     inkscape:window-maximized="1"
     inkscape:current-layer="g6" />
  <path
     d="M0 0h512v512H0z"
     fill="#b90202"
     fill-opacity="1"
     id="path2"
     style="fill:#1b1f21;fill-opacity:0" />
  <g
     class=""
     style=""
     transform="translate(0,0)"
     id="g6">
    <path
       d="M314 29.72l-11.4 11.35 32.5 32.54 11.4-11.39-32.5-32.5zm38.3 2.74c-3.5-.04-6.8.1-9.6.39 0 0-.1.01-.1.02l61.9 61.87 30.8-30.82c-19.8-17.03-43.2-26-63.5-29.57-5.6-.99-11-1.56-15.9-1.79-1.2-.05-2.4-.09-3.6-.1zm-51.1 32.69L65.15 301.3 108.9 345l4.9-4.9 6.4-6.3 58 58-11.3 11.3 43.8 43.8 236.2-236.1L301.2 65.15zm58.1 9.83l-11.4 11.39 77.7 77.73 11.4-11.4-77.7-77.72zm88.8 1.7l-30.8 30.82 61.9 62v-.2c.8-7.6.5-17.9-1.5-29.1-3.6-20.3-12.6-43.73-29.6-63.52zm1.7 88.82l-11.4 11.4 32.5 32.5 11.4-11.4-32.5-32.5zm-227.7 11.3l33.9 33.9 33.9-33.9 45.3 45.3-33.9 33.9 33.9 33.9-45.3 45.3-33.9-33.9-33.9 33.9-45.3-45.3 33.9-33.9-33.9-33.9 45.3-45.3zM40.94 302.6L29.7 314l55.14 55.1 11.31-11.3-55.21-55.2zm-8.08 40c0 .1-.01.1-.01.1-.78 7.6-.48 17.9 1.5 29.1 3.98 22.6 14.65 49.1 35.68 70.1 21.03 21.1 47.57 31.8 70.17 35.8 11.2 2 21.5 2.3 29.1 1.5h.2l-39.4-39.4-9.9 9.9-57.96-57.9 9.9-9.9-39.28-39.3zm87.34 16.6l-32.5 32.6 32.5 32.5 32.6-32.5-32.6-32.6zm34 56.6l-11.4 11.3 55.2 55.2 11.4-11.3-55.2-55.2z"
       fill="#ffffff"
       fill-opacity="1"
       stroke="#ffffff"
       stroke-opacity="1"
       stroke-width="0"
       id="path4"
       style="fill:#ff0ec0;fill-opacity:1;filter:url(#filter905)" />
  </g>
</svg>
