<?xml version="1.0" encoding="UTF-8" standalone="no"?>
<svg
   version="1.1"
   x="0px"
   y="0px"
   viewBox="0 0 512 512"
   enable-background="new 0 0 100 100"
   xml:space="preserve"
   id="svg10"
   sodipodi:docname="glowstick.svg"
   width="512"
   height="512"
   inkscape:version="1.2.1 (9c6d41e410, 2022-07-14)"
   xmlns:inkscape="http://www.inkscape.org/namespaces/inkscape"
   xmlns:sodipodi="http://sodipodi.sourceforge.net/DTD/sodipodi-0.dtd"
   xmlns="http://www.w3.org/2000/svg"
   xmlns:svg="http://www.w3.org/2000/svg"><defs
     id="defs14"><filter
   style="color-interpolation-filters:sRGB;"
   inkscape:label="Drop Shadow"
   id="filter909"
   x="-5.9226934"
   y="-0.80420726"
   width="12.533666"
   height="2.5660878"><feFlood
     flood-opacity="1"
     flood-color="rgb(58,63,94)"
     result="flood"
     id="feFlood899" /><feComposite
     in="flood"
     in2="SourceGraphic"
     operator="out"
     result="composite1"
     id="feComposite901" /><feGaussianBlur
     in="composite1"
     stdDeviation="15"
     result="blur"
     id="feGaussianBlur903" /><feOffset
     dx="0"
     dy="0"
     result="offset"
     id="feOffset905" /><feComposite
     in="offset"
     in2="SourceGraphic"
     operator="atop"
     result="composite2"
     id="feComposite907" /></filter><filter
   style="color-interpolation-filters:sRGB;"
   inkscape:label="Drop Shadow"
   id="filter1109"
   x="-0.47556991"
   y="-0.57874438"
   width="1.9511398"
   height="2.1574888"><feFlood
     flood-opacity="1"
     flood-color="rgb(58,63,94)"
     result="flood"
     id="feFlood1099" /><feComposite
     in="flood"
     in2="SourceGraphic"
     operator="out"
     result="composite1"
     id="feComposite1101" /><feGaussianBlur
     in="composite1"
     stdDeviation="2.13412"
     result="blur"
     id="feGaussianBlur1103" /><feOffset
     dx="0"
     dy="0"
     result="offset"
     id="feOffset1105" /><feComposite
     in="offset"
     in2="SourceGraphic"
     operator="atop"
     result="composite2"
     id="feComposite1107" /></filter>
</defs><sodipodi:namedview
     id="namedview12"
     pagecolor="#505050"
     bordercolor="#eeeeee"
     borderopacity="1"
     inkscape:pageshadow="0"
     inkscape:pageopacity="0"
     inkscape:pagecheckerboard="0"
     showgrid="false"
     inkscape:zoom="1.746"
     inkscape:cx="247.70905"
     inkscape:cy="258.87743"
     inkscape:window-width="1920"
     inkscape:window-height="1057"
     inkscape:window-x="-8"
     inkscape:window-y="-8"
     inkscape:window-maximized="1"
     inkscape:current-layer="svg10"
     inkscape:showpageshadow="2"
     inkscape:deskcolor="#505050" /><path
     d="M 0,0 H 512 V 512 H 0 Z"
     fill="#b90202"
     fill-opacity="1"
     id="path902"
     style="fill:#1b1f21;fill-opacity:0" /><rect
     x="43.584"
     y="88.401001"
     width="12.832"
     height="8.8500004"
     id="rect2"
     style="fill:#ff0ec0;fill-opacity:1;filter:url(#filter1109)"
     transform="matrix(3.5861815,3.6611473,-3.6611473,3.5861815,269.70356,-116.48484)" /><path
     d="m 54.352,13.689 c 0,-2.146 -0.723,-4.032 -2.238,-4.918 v -3.91 c 0,-1.167 -0.947,-2.113 -2.114,-2.113 -1.167,0 -2.112,0.946 -2.112,2.113 v 3.91 C 46.371,9.658 45.65,11.543 45.65,13.689 L 44.617,87.81 h 5.384 5.386 z M 49.999,3.471 c 0.733,0 1.329,0.594 1.329,1.328 0,0.734 -0.596,1.328 -1.329,1.328 -0.732,0 -1.327,-0.594 -1.327,-1.328 0,-0.734 0.595,-1.328 1.327,-1.328 z"
     id="path4"
     style="fill:#ff0ec0;fill-opacity:1;filter:url(#filter1109)"
     transform="matrix(3.5861815,3.6611473,-3.6611473,3.5861815,269.70356,-116.48484)" /></svg>
