<?xml version="1.0" encoding="UTF-8" standalone="no"?>
<svg
   width="512" height="512"
   viewBox="0 0 512 512"
   version="1.1"
   id="svg8"
   sodipodi:docname="grapple_gun.svg"
   inkscape:version="1.1.1 (3bf5ae0d25, 2021-09-20)"
   xmlns:inkscape="http://www.inkscape.org/namespaces/inkscape"
   xmlns:sodipodi="http://sodipodi.sourceforge.net/DTD/sodipodi-0.dtd"
   xmlns="http://www.w3.org/2000/svg"
   xmlns:svg="http://www.w3.org/2000/svg">
  <defs
     id="defs12">
    <filter
       style="color-interpolation-filters:sRGB;"
       inkscape:label="Drop Shadow"
       id="filter887"
       x="-0.21218254"
       y="-0.1862548"
       width="1.4131976"
       height="1.3627067">
      <feFlood
         flood-opacity="1"
         flood-color="rgb(58,63,94)"
         result="flood"
         id="feFlood877" />
      <feComposite
         in="flood"
         in2="SourceGraphic"
         operator="out"
         result="composite1"
         id="feComposite879" />
      <feGaussianBlur
         in="composite1"
         stdDeviation="15"
         result="blur"
         id="feGaussianBlur881" />
      <feOffset
         dx="0"
         dy="0"
         result="offset"
         id="feOffset883" />
      <feComposite
         in="offset"
         in2="SourceGraphic"
         operator="atop"
         result="composite2"
         id="feComposite885" />
    </filter>
    <filter
       style="color-interpolation-filters:sRGB;"
       inkscape:label="Drop Shadow"
       id="filter1021"
       x="-0.059089039"
       y="-0.051868629"
       width="1.1181781"
       height="1.1037373">
      <feFlood
         flood-opacity="1"
         flood-color="rgb(58,63,94)"
         result="flood"
         id="feFlood1011" />
      <feComposite
         in="flood"
         in2="SourceGraphic"
         operator="out"
         result="composite1"
         id="feComposite1013" />
      <feGaussianBlur
         in="composite1"
         stdDeviation="8.8186"
         result="blur"
         id="feGaussianBlur1015" />
      <feOffset
         dx="0"
         dy="0"
         result="offset"
         id="feOffset1017" />
      <feComposite
         in="offset"
         in2="SourceGraphic"
         operator="atop"
         result="composite2"
         id="feComposite1019" />
    </filter>
  </defs>
  <sodipodi:namedview
     id="namedview10"
     pagecolor="#505050"
     bordercolor="#eeeeee"
     borderopacity="1"
     inkscape:pageshadow="0"
     inkscape:pageopacity="0"
     inkscape:pagecheckerboard="0"
     showgrid="false"
     inkscape:zoom="0.85253906"
     inkscape:cx="455.6976"
     inkscape:cy="285.61741"
     inkscape:window-width="1716"
     inkscape:window-height="1414"
     inkscape:window-x="3160"
     inkscape:window-y="587"
     inkscape:window-maximized="1"
     inkscape:current-layer="svg8" />
  <path
     d="M0 0h512v512H0z"
     fill="#b90202"
     fill-opacity="1"
     id="path2"
     style="fill:#1b1f21;fill-opacity:0" />
  <g
     class=""
     transform="matrix(0.61435917,0,0,0.61435917,131.71769,36.365475)"
     id="g6" />
  <g
     id="g450"
     transform="matrix(1.1075847,0,0,1.1075847,-2.0788561,-16.399409)"
     style="fill:#ff0ec0;fill-opacity:1;filter:url(#filter1021)">
    <path
       d="M 317.67457,41.918434 264.83968,95.957465 302.4999,82.859328 c 1.35159,16.722857 2.82605,33.433432 4.17764,50.266872 l -11.42708,0.98297 c -5.22205,5.09919 -10.44411,10.38267 -15.66616,15.60473 l 15.85047,15.85046 15.48185,-15.42041 1.47446,-10.81272 c 17.93929,2.33456 35.5714,4.85343 53.51068,7.06513 l -12.10287,27.33898 58.30268,-41.77642 c -23.52995,-4.91488 -47.05991,-9.58401 -70.58986,-14.31457 l 2.27312,-11.24277 14.06883,2.82605 9.95262,-35.172069 -32.74535,12.016866 2.02739,17.257353 -11.42708,1.35159 -2.33457,-20.249282 c -1.84307,-14.173266 -3.74759,-28.340389 -5.6521,-42.513654 z m -65.12207,63.868786 -29.79642,50.86894 40.5477,-26.23314 14.99037,4.30051 15.72759,-15.66616 -0.18431,-1.84307 z m 72.1872,46.75273 -11.7957,11.7957 2.76462,6.75795 -30.28791,45.21683 55.47664,-33.91262 -10.44411,-29.12063 z"
       fill="#ffffff"
       fill-opacity="1"
       stroke="#ffffff"
       stroke-opacity="1"
       stroke-width="0"
       id="path4"
       sodipodi:nodetypes="ccccccccccccccccccccccccccccccccccc"
       style="fill:#ff0ec0;fill-opacity:1" />
    <g
       id="g160"
       transform="matrix(-0.43481355,0.43402116,0.43402116,0.43481355,220.17527,93.827387)"
       style="fill:#ff0ec0;fill-opacity:1">
      <path
         d="m 416.687,232.641 v -37.91 h -1.011 c 11.744,0 22.178,-7.52 25.896,-18.664 0,0 17.464,-54.162 24.462,-75.147 5.41,-16.225 -11.055,-32.601 -26.126,-32.601 H 260.864 c -10.202,0 -19.565,5.7 -24.246,14.775 l -8.306,16.082 H 27.294 c -8.772,0 -17.014,4.214 -22.147,11.338 -5.133,7.116 -6.517,16.268 -3.747,24.59 l 13.655,40.965 c 3.717,11.143 14.152,18.664 25.896,18.664 h 41.043 l 8.896,21.183 c 4.262,10.132 14.184,16.727 25.165,16.727 h 60.453 l 40.716,66.712 c 5.397,8.834 15.195,14.326 25.553,14.326 h 49.007 l 5.94,47.582 c 2.676,21.425 20.887,37.506 42.474,37.506 h 63.143 c 13.174,0 25.615,-6.065 33.734,-16.455 8.103,-10.381 10.981,-23.919 7.793,-36.705 z m -172.852,49.186 -30.017,-49.186 h 44.823 l -7.045,6.245 c -6.579,5.832 -7.2,15.894 -1.368,22.481 3.156,3.553 7.527,5.365 11.929,5.365 3.763,0 7.528,-1.322 10.56,-4.005 l 11.462,-10.14 3.639,29.24 z m 77.468,-170.054 -15.926,49.769 c -1.618,5.071 -6.314,8.305 -11.369,8.305 -1.198,0 -2.426,-0.178 -3.639,-0.567 -6.283,-2.014 -9.751,-8.734 -7.73,-15.016 l 15.926,-49.769 c 2.007,-6.269 8.68,-9.744 15.009,-7.739 6.281,2.015 9.75,8.734 7.729,15.017 z m 47.778,0 -15.926,49.769 c -1.618,5.071 -6.315,8.305 -11.369,8.305 -1.198,0 -2.426,-0.178 -3.639,-0.567 -6.283,-2.014 -9.751,-8.734 -7.73,-15.016 l 15.926,-49.769 c 2.007,-6.269 8.694,-9.744 15.009,-7.739 6.281,2.015 9.75,8.734 7.729,15.017 z m 31.852,49.769 c -1.618,5.071 -6.315,8.305 -11.369,8.305 -1.198,0 -2.426,-0.178 -3.639,-0.567 -6.283,-2.014 -9.751,-8.734 -7.73,-15.016 l 15.926,-49.769 c 2.007,-6.269 8.694,-9.744 15.008,-7.739 6.283,2.015 9.751,8.734 7.73,15.017 z"
         id="path107"
         style="fill:#ff0ec0;fill-opacity:1" />
      <g
         id="g109"
         style="fill:#ff0ec0;fill-opacity:1" />
      <g
         id="g111"
         style="fill:#ff0ec0;fill-opacity:1" />
      <g
         id="g113"
         style="fill:#ff0ec0;fill-opacity:1" />
      <g
         id="g115"
         style="fill:#ff0ec0;fill-opacity:1" />
      <g
         id="g117"
         style="fill:#ff0ec0;fill-opacity:1" />
      <g
         id="g119"
         style="fill:#ff0ec0;fill-opacity:1" />
      <g
         id="g121"
         style="fill:#ff0ec0;fill-opacity:1" />
      <g
         id="g123"
         style="fill:#ff0ec0;fill-opacity:1" />
      <g
         id="g125"
         style="fill:#ff0ec0;fill-opacity:1" />
      <g
         id="g127"
         style="fill:#ff0ec0;fill-opacity:1" />
      <g
         id="g129"
         style="fill:#ff0ec0;fill-opacity:1" />
      <g
         id="g131"
         style="fill:#ff0ec0;fill-opacity:1" />
      <g
         id="g133"
         style="fill:#ff0ec0;fill-opacity:1" />
      <g
         id="g135"
         style="fill:#ff0ec0;fill-opacity:1" />
      <g
         id="g137"
         style="fill:#ff0ec0;fill-opacity:1" />
    </g>
  </g>
</svg>
