<?xml version="1.0" encoding="UTF-8" standalone="no"?>
<svg
   width="512" height="512"
   viewBox="0 0 512 512"
   version="1.1"
   id="svg8"
   sodipodi:docname="handcuffs.svg"
   inkscape:version="1.1.1 (3bf5ae0d25, 2021-09-20)"
   xmlns:inkscape="http://www.inkscape.org/namespaces/inkscape"
   xmlns:sodipodi="http://sodipodi.sourceforge.net/DTD/sodipodi-0.dtd"
   xmlns="http://www.w3.org/2000/svg"
   xmlns:svg="http://www.w3.org/2000/svg">
  <defs
     id="defs12">
    <filter
       style="color-interpolation-filters:sRGB;"
       inkscape:label="Drop Shadow"
       id="filter934"
       x="-0.15973107"
       y="-0.16073737"
       width="1.3110552"
       height="1.3130149">
      <feFlood
         flood-opacity="1"
         flood-color="rgb(58,63,94)"
         result="flood"
         id="feFlood924" />
      <feComposite
         in="flood"
         in2="SourceGraphic"
         operator="out"
         result="composite1"
         id="feComposite926" />
      <feGaussianBlur
         in="composite1"
         stdDeviation="15"
         result="blur"
         id="feGaussianBlur928" />
      <feOffset
         dx="0"
         dy="0"
         result="offset"
         id="feOffset930" />
      <feComposite
         in="offset"
         in2="SourceGraphic"
         operator="atop"
         result="composite2"
         id="feComposite932" />
    </filter>
    <filter
       style="color-interpolation-filters:sRGB;"
       inkscape:label="Drop Shadow"
       id="filter1075"
       x="-0.040657826"
       y="-0.04091397"
       width="1.0813157"
       height="1.0818279">
      <feFlood
         flood-opacity="1"
         flood-color="rgb(58,63,94)"
         result="flood"
         id="feFlood1065" />
      <feComposite
         in="flood"
         in2="SourceGraphic"
         operator="out"
         result="composite1"
         id="feComposite1067" />
      <feGaussianBlur
         in="composite1"
         stdDeviation="8.06041"
         result="blur"
         id="feGaussianBlur1069" />
      <feOffset
         dx="0"
         dy="0"
         result="offset"
         id="feOffset1071" />
      <feComposite
         in="offset"
         in2="SourceGraphic"
         operator="atop"
         result="composite2"
         id="feComposite1073" />
    </filter>
  </defs>
  <sodipodi:namedview
     id="namedview10"
     pagecolor="#505050"
     bordercolor="#eeeeee"
     borderopacity="1"
     inkscape:pageshadow="0"
     inkscape:pageopacity="0"
     inkscape:pagecheckerboard="0"
     showgrid="false"
     inkscape:zoom="1.7558594"
     inkscape:cx="255.43047"
     inkscape:cy="245.17908"
     inkscape:window-width="1716"
     inkscape:window-height="1414"
     inkscape:window-x="3160"
     inkscape:window-y="587"
     inkscape:window-maximized="1"
     inkscape:current-layer="svg8" />
  <path
     d="M0 0h512v512H0z"
     fill="#b90202"
     fill-opacity="1"
     id="path2"
     style="fill:#1b1f21;fill-opacity:0" />
  <g
     class=""
     transform="translate(0,0)"
     id="g6"
     style="filter:url(#filter1075)">
    <path
       d="m 147.406,20.03 c -1.046,-0.002 -2.094,0.05 -3.156,0.157 -4.238,0.433 -8.576,1.774 -12.656,4.125 -0.008,0.005 -0.023,-0.004 -0.03,0 l -29.783,17.22 c -7.858,4.534 -12.662,12.15 -13.874,19.78 -1.212,7.63 0.62,15.126 4.22,21.47 0.11,0.197 0.227,0.397 0.343,0.593 l -11.72,40.22 c -1.79,1.224 -3.467,2.613 -5,4.124 -5.196,5.117 -9.01,11.83 -9.844,19.56 -0.835,7.732 1.923,16.39 8.406,22.876 L 98.626,194.5 c 6.633,6.63 15.296,9.602 23.188,9.03 4.63,-0.333 8.935,-1.755 12.78,-3.905 l 7.095,6.688 c -2.305,2.97 -4.1,6.49 -5.157,10.437 l -1.624,6.03 18.063,4.845 1.624,-6.063 c 1.06,-3.953 2.712,-5.37 5.125,-6.437 1.205,-0.533 2.67,-0.867 4.28,-0.938 1.61,-0.07 3.366,0.126 5.063,0.594 3.393,0.938 6.375,2.963 7.968,5.157 1.594,2.195 2.284,4.266 1.282,8 l -1.625,6.032 18.063,4.843 1.625,-6.032 c 2.35,-8.762 0.32,-17.56 -4.22,-23.81 -4.537,-6.253 -11.093,-10.28 -18.124,-12.22 -3.514,-0.97 -7.204,-1.417 -10.905,-1.25 -1.67,0.075 -3.34,0.28 -5,0.625 l -10.344,-9.75 c 2.06,-3.75 3.42,-7.944 3.75,-12.438 0.586,-7.917 -2.42,-16.574 -9.093,-23.25 l -24.343,-24.312 c -4.677,-4.68 -10.516,-7.357 -16.313,-8.156 l 6.157,-21.095 c 0.177,0.072 0.353,0.15 0.532,0.22 7.25,2.806 16.336,2.394 24.28,-2.19 l 29.813,-17.186 c 6.104,-3.528 10.526,-8.694 12.968,-14.345 l 21.095,5.938 c -0.88,3.745 -1.122,7.688 -0.5,11.687 1.194,7.683 6.06,15.35 14,19.938 l 29.813,17.218 c 3.8,2.195 7.813,3.47 11.78,3.97 L 255,140.78 c -2.735,1.553 -5.224,3.477 -7.438,5.657 -5.195,5.12 -8.977,11.833 -9.812,19.563 -0.835,7.73 1.89,16.39 8.375,22.875 l 4.22,4.22 13.218,-13.22 -4.22,-4.22 c -2.893,-2.893 -3.314,-5.032 -3.03,-7.655 0.283,-2.623 1.867,-5.78 4.375,-8.25 2.507,-2.47 5.77,-4.06 8.468,-4.344 0.337,-0.035 0.68,-0.052 1,-0.062 2.252,-0.07 4.17,0.544 6.563,2.937 v 0.032 l 4.217,4.188 13.188,-13.188 -4.188,-4.218 c -4.76,-4.763 -10.75,-7.442 -16.656,-8.188 l -3.25,-18.28 c 4.92,-2.895 8.87,-7.066 11.658,-11.845 3.74,-6.412 5.516,-14.137 4.03,-21.936 -1.484,-7.8 -6.637,-15.374 -14.812,-20.094 l -29.78,-17.188 c -3.93,-2.27 -8.145,-3.506 -12.282,-3.812 -4.137,-0.306 -8.206,0.305 -11.813,1.688 -4.304,1.65 -8.01,4.21 -11.093,7.343 l -29.093,-8.186 c -0.762,-3.026 -1.937,-5.915 -3.47,-8.594 -3.684,-6.445 -9.47,-11.856 -16.968,-14.47 -2.81,-0.98 -5.862,-1.488 -9,-1.5 z m -0.187,18.564 c 1.063,0.03 2.05,0.252 3.03,0.593 2.614,0.912 5.225,3.153 6.906,6.094 1.682,2.942 2.312,6.365 1.78,9.126 -0.528,2.756 -1.805,5.11 -5.717,7.375 -0.01,0.006 -0.024,-0.004 -0.032,0 l -29.782,17.19 c -3.545,2.044 -5.726,1.89 -8.187,0.936 -0.648,-0.25 -1.318,-0.603 -1.97,-1.03 l 0.094,-0.345 -0.906,-0.25 c -1.53,-1.183 -2.977,-2.804 -4.063,-4.718 -1.737,-3.06 -2.425,-6.634 -2,-9.312 0.425,-2.678 1.4,-4.598 4.75,-6.53 v -0.032 l 29.78,-17.188 h 0.032 c 2.02,-1.166 3.688,-1.72 5.188,-1.875 0.375,-0.038 0.74,-0.04 1.094,-0.03 z M 226.5,62.22 c 0.31,-0.02 0.618,-0.024 0.938,0 1.276,0.09 2.637,0.53 4.312,1.5 v 0.03 l 29.813,17.188 c 4.04,2.332 5.294,4.686 5.812,7.406 0.518,2.72 -0.138,6.105 -1.844,9.03 -1.705,2.927 -4.343,5.174 -7,6.095 -2.654,0.92 -5.316,1.02 -9.25,-1.25 L 219.47,85 c -3.544,-2.048 -4.47,-3.985 -4.876,-6.594 -0.406,-2.608 0.28,-6.09 2.062,-9.125 1.783,-3.034 4.532,-5.435 7.063,-6.405 0.948,-0.364 1.85,-0.598 2.78,-0.656 z M 98.344,136.624 c 2.246,-0.065 4.14,0.575 6.53,2.97 l 24.345,24.31 c 3.296,3.3 3.89,5.896 3.686,8.657 -0.204,2.762 -1.688,5.865 -4.094,8.25 -2.405,2.386 -5.54,3.892 -8.343,4.094 -2.805,0.203 -5.415,-0.415 -8.626,-3.625 L 87.53,156.97 c -2.89,-2.895 -3.313,-5.065 -3.03,-7.69 0.283,-2.622 1.867,-5.778 4.375,-8.25 2.508,-2.47 5.773,-4.06 8.47,-4.343 0.336,-0.035 0.678,-0.053 1,-0.062 z M 320,149.875 l -62.094,62.094 48.844,48.843 c 9.61008,-10.41516 20.66344,-19.83865 30.314,-29.844 27.69,-27.693 72.59,-27.693 100.28,0 27.205,27.203 27.684,71.022 1.438,98.81 -0.004,0.014 -0.025,0.02 -0.03,0.033 -1.03,2.514 -1.372,4.965 -1.28,7.343 0.18,4.757 2.415,9.505 5.936,13.063 3.52,3.556 8.17,5.75 12.875,5.936 3.614,0.144 7.41,-0.73 11.47,-3.625 37.58,-42.338 36.114,-107.29 -4.438,-147.842 -29.2,-29.2 -71.177,-37.894 -108.062,-26.563 l -5.375,1.656 -3.97,-3.968 z m -11.75,40.688 18.313,18.312 -13.22,13.22 -18.312,-18.314 13.22,-13.218 z m -186.53,48 -17.876,66.78 c 13.68566,3.24701 28.48126,7.97321 41,11.314 37.828,10.135 60.26,49.015 50.125,86.843 -9.962,37.175 -47.675,59.485 -84.876,50.625 -2.695,0.375 -4.986,1.326 -7,2.594 -4.03,2.533 -7.024,6.796 -8.344,11.624 -1.32,4.828 -0.908,9.988 1.28,14.156 1.686,3.206 4.35,6.085 8.907,8.156 55.445,11.366 110.96,-22.407 125.813,-77.78 0.003,-0.01 -0.003,-0.022 0,-0.032 10.673,-39.878 -2.783,-80.572 -31.03,-106.844 l -4.126,-3.844 1.437,-5.437 9.5,-35.44 -84.81,-22.717 z m 159.655,23.28 c -6.083,33.48 3.736,69.08 29.72,95.063 36.204,36.205 91.507,41.554 133.06,15.625 -5.342,-2.01 -10.13,-5.214 -14.06,-9.186 -5.135,-5.186 -8.89,-11.79 -10.47,-19.156 -26.67,13.713 -60.22,9.406 -82.563,-12.938 -14.735,-14.735 -21.633,-34.33 -20.687,-53.625 l -3,3 -6.625,6.625 -6.594,-6.625 -18.78,-18.78 z m -131.656,4.094 18.06,4.844 -6.686,25.033 -18.063,-4.844 6.69,-25.033 z m -59.47,17.938 c -32.02,11.48 -57.93,37.8 -67.438,73.28 -13.252,49.46 9.77,100.012 53,123.033 -0.936,-5.626 -0.568,-11.36 0.907,-16.75 1.923,-7.036 5.783,-13.63 11.374,-18.688 C 62.872,428.512 49.82,397.34 58,366.812 63.395,346.678 76.935,330.888 94.125,322.062 L 90,320.97 l -9.03,-2.44 2.405,-9.03 6.875,-25.625 z"
       fill="#ffffff"
       fill-opacity="1"
       stroke="#ffffff"
       stroke-opacity="1"
       stroke-width="0"
       id="path4"
       sodipodi:nodetypes="cccccscccccccccccccccccccccccccccccccccccccccccccssccscccccccccccccccscccccccccccccccccccsccccccccccccscscccccccccccccccccccccccccccccccsccccccccccccccccscccccccccccccccccccccccccccccccccccccccc"
       style="fill:#ff0ec0;fill-opacity:1" />
  </g>
</svg>
