<?xml version="1.0" encoding="UTF-8" standalone="no"?>
<svg
   width="512" height="512"
   viewBox="0 0 512 512"
   version="1.1"
   id="svg8"
   sodipodi:docname="kibble.svg"
   inkscape:version="1.1.1 (3bf5ae0d25, 2021-09-20)"
   xmlns:inkscape="http://www.inkscape.org/namespaces/inkscape"
   xmlns:sodipodi="http://sodipodi.sourceforge.net/DTD/sodipodi-0.dtd"
   xmlns="http://www.w3.org/2000/svg"
   xmlns:svg="http://www.w3.org/2000/svg">
  <defs
     id="defs12">
    <filter
       style="color-interpolation-filters:sRGB;"
       inkscape:label="Drop Shadow"
       id="filter891"
       x="-0.19293261"
       y="-0.16154598"
       width="1.3757109"
       height="1.3145895">
      <feFlood
         flood-opacity="1"
         flood-color="rgb(58,63,94)"
         result="flood"
         id="feFlood881" />
      <feComposite
         in="flood"
         in2="SourceGraphic"
         operator="out"
         result="composite1"
         id="feComposite883" />
      <feGaussianBlur
         in="composite1"
         stdDeviation="15"
         result="blur"
         id="feGaussianBlur885" />
      <feOffset
         dx="0"
         dy="0"
         result="offset"
         id="feOffset887" />
      <feComposite
         in="offset"
         in2="SourceGraphic"
         operator="atop"
         result="composite2"
         id="feComposite889" />
    </filter>
  </defs>
  <sodipodi:namedview
     id="namedview10"
     pagecolor="#505050"
     bordercolor="#eeeeee"
     borderopacity="1"
     inkscape:pageshadow="0"
     inkscape:pageopacity="0"
     inkscape:pagecheckerboard="0"
     showgrid="false"
     inkscape:zoom="1.2056723"
     inkscape:cx="278.26798"
     inkscape:cy="259.19149"
     inkscape:window-width="1716"
     inkscape:window-height="1414"
     inkscape:window-x="3160"
     inkscape:window-y="587"
     inkscape:window-maximized="1"
     inkscape:current-layer="svg8" />
  <path
     d="M0 0h512v512H0z"
     fill="#b90202"
     fill-opacity="1"
     id="path2"
     style="fill:#1b1f21;fill-opacity:0" />
  <g
     class=""
     style="fill:#ff0ec0;fill-opacity:1;filter:url(#filter891)"
     transform="translate(0,0)"
     id="g6">
    <path
       id="path4"
       d="M 241.09961 21.910156 C 151.39961 21.760156 68.110156 24.379687 69.160156 30.179688 L 91.240234 66.320312 C 150.60023 61.220313 207.20039 59.37 263.90039 59.75 C 317.10039 60.1 370.4 62.419844 426 65.839844 L 457.19922 32.560547 C 452.69922 25.820547 342.79961 22.080156 241.09961 21.910156 z M 241.67578 77.777344 C 217.66341 77.88738 198.32826 79.957383 95.210938 84.039062 C 73.420938 207.69906 61.350938 358.59922 89.710938 451.69922 L 63.279297 482.69922 C 191.3993 492.29922 321.80039 495.4 445.90039 489 L 416 453.40039 C 435.3 347.20039 429.29922 202.1993 416.19922 83.279297 C 294.37604 79.517473 265.68816 77.667308 241.67578 77.777344 z M 182.25781 253.68945 C 194.97817 253.25 225.65581 262.28714 257.73633 273.90039 C 258.43751 274.15463 259.83208 274.72582 258.99609 275.43945 C 257.22447 277.05575 256.8294 277.43235 254.61523 279.54102 C 253.60413 280.45174 252.63985 279.87459 252.0625 279.66211 C 220.5652 268.04542 201.5627 262.52684 195.53125 263.25 C 182.95988 264.76152 162.24458 289.28516 158.25586 301.61328 C 157.44551 304.11613 158.81747 306.80245 161.32031 307.61133 C 163.82242 308.42021 166.50948 307.04703 167.31836 304.54492 C 170.79274 293.80965 189.44567 273.57599 196.66992 272.70703 C 201.10192 272.17217 218.57513 277.60051 243.44531 286.67188 C 244.94951 287.36719 245.04659 288.79618 244.4707 289.36328 C 233.75522 299.91831 222.5981 311.4345 219.98242 315.05469 C 214.47045 322.68485 214.05389 333.8819 214.91992 341.24023 C 215.04301 342.28944 214.35901 343.87359 211.95508 343.02734 C 176.51668 331.53008 149.13724 322.23032 144.25977 320.57812 C 144.25977 320.57812 142.44074 319.87909 142.24805 317.97852 C 141.774 313.3018 141.2408 301.75446 142.4043 297.4668 C 146.17248 283.59125 168.11077 255.9094 179.95898 253.90625 C 180.64249 253.79067 181.40979 253.71875 182.25781 253.68945 z M 296.13672 288.84375 C 296.27983 288.85132 296.43097 288.88182 296.5918 288.9375 C 329.61821 302.51997 354.94308 315.29935 355.7168 319.99805 C 357.21806 329.12434 353.63035 348.66548 352.32031 350.86719 C 345.7965 361.82959 324.35782 374.32227 319.82617 374.32227 C 312.98438 374.32227 285.30445 366.28371 252.37109 355.94922 C 250.90206 355.50595 250.40043 353.82478 250.2832 352.9375 C 249.56884 347.53177 249.39689 340.08235 252.36133 334.38867 C 253.63986 331.93418 269.88769 315.03284 282.91992 301.66211 C 303.78893 309.92384 324.32915 318.57002 339.27734 325.56641 C 339.93016 325.87193 340.6167 326.01758 341.29297 326.01758 C 343.08584 326.01758 344.80245 325.00062 345.61133 323.27148 C 346.72574 320.8888 345.69836 318.05386 343.31641 316.93945 C 330.49885 310.94025 311.88454 303.02223 291.25586 294.77148 C 290.70561 294.38536 290.56231 293.83811 291.10156 293.22266 C 292.68562 291.41733 293.6245 290.59738 295.01953 289.30859 C 295.35089 289.00252 295.70738 288.82105 296.13672 288.84375 z M 140.44531 332.9082 C 140.541 332.86091 140.69206 332.8799 140.92578 333.01562 C 142.93406 334.18206 145.07605 335.37584 147.47266 336.44922 C 150.52135 337.81567 153.10024 338.80526 156.82227 339.93945 C 157.91176 340.27429 158.03656 340.69816 158.2168 340.94141 C 162.33667 346.47756 168.00367 350.65848 174.8418 352.625 L 292.03516 386.30859 C 298.08565 388.04725 302.55213 388.32169 308.35352 386.51562 C 310.33835 385.85181 311.30156 386.29708 311.84961 386.41211 C 317.01502 387.49868 318.73472 387.5 319.82422 387.5 C 322.36223 387.5 326.02039 386.42205 331.1543 383.88477 C 331.95439 383.43929 332.25631 383.84759 332.36328 384.04688 C 332.73768 384.74219 332.88854 385.02685 333.25781 385.72656 C 333.43439 386.11195 333.20195 386.48798 333.06055 386.6543 C 323.21549 398.19478 308.39735 403.77024 294.30859 399.7207 L 165.79688 362.78711 C 152.23492 358.8907 142.78504 347.03426 140.37305 333.79102 C 140.37305 333.79102 140.15826 333.05008 140.44531 332.9082 z "
       style="fill:#ff0ec0;fill-opacity:1" />
  </g>
  <g
     id="g531"
     transform="matrix(0.73268283,0,0,0.73268283,140.29587,219.46412)">
    <g
       id="g470">
      <g
         id="g468">
        <g
           id="Layer_5_19_">
          <g
             id="g465">
            <g
               id="g457" />
            <g
               id="g463" />
          </g>
        </g>
      </g>
    </g>
    <g
       id="g472" />
    <g
       id="g474" />
    <g
       id="g476" />
    <g
       id="g478" />
    <g
       id="g480" />
    <g
       id="g482" />
    <g
       id="g484" />
    <g
       id="g486" />
    <g
       id="g488" />
    <g
       id="g490" />
    <g
       id="g492" />
    <g
       id="g494" />
    <g
       id="g496" />
    <g
       id="g498" />
    <g
       id="g500" />
  </g>
</svg>
