<?xml version="1.0" encoding="UTF-8" standalone="no"?>
<svg
   viewBox="0 0 512 512"
   version="1.1"
   id="svg19"
   sodipodi:docname="medscanner.svg"
   width="512"
   height="512"
   inkscape:version="1.1.1 (3bf5ae0d25, 2021-09-20)"
   xmlns:inkscape="http://www.inkscape.org/namespaces/inkscape"
   xmlns:sodipodi="http://sodipodi.sourceforge.net/DTD/sodipodi-0.dtd"
   xmlns="http://www.w3.org/2000/svg"
   xmlns:svg="http://www.w3.org/2000/svg">
  <sodipodi:namedview
     id="namedview21"
     pagecolor="#505050"
     bordercolor="#eeeeee"
     borderopacity="1"
     inkscape:pageshadow="0"
     inkscape:pageopacity="0"
     inkscape:pagecheckerboard="0"
     showgrid="false"
     inkscape:zoom="1.7050781"
     inkscape:cx="244.27034"
     inkscape:cy="264.79725"
     inkscape:window-width="1716"
     inkscape:window-height="1414"
     inkscape:window-x="3160"
     inkscape:window-y="587"
     inkscape:window-maximized="1"
     inkscape:current-layer="svg19" />
  <defs
     id="defs4">
    <style
       id="style2">.cls-1{fill:none;}</style>
    <filter
       style="color-interpolation-filters:sRGB;"
       inkscape:label="Drop Shadow"
       id="filter930"
       x="-0.16192957"
       y="-0.16192957"
       width="1.3153365"
       height="1.3153365">
      <feFlood
         flood-opacity="1"
         flood-color="rgb(58,63,94)"
         result="flood"
         id="feFlood920" />
      <feComposite
         in="flood"
         in2="SourceGraphic"
         operator="out"
         result="composite1"
         id="feComposite922" />
      <feGaussianBlur
         in="composite1"
         stdDeviation="15"
         result="blur"
         id="feGaussianBlur924" />
      <feOffset
         dx="0"
         dy="0"
         result="offset"
         id="feOffset926" />
      <feComposite
         in="offset"
         in2="SourceGraphic"
         operator="atop"
         result="composite2"
         id="feComposite928" />
    </filter>
  </defs>
  <g
     id="g182"
     transform="matrix(3.5554521,0,0,3.5554521,176.00233,67.882005)">
    <g
       id="g128" />
    <g
       id="g130" />
    <g
       id="g132" />
    <g
       id="g134" />
    <g
       id="g136" />
    <g
       id="g138" />
    <g
       id="g140" />
    <g
       id="g142" />
    <g
       id="g144" />
    <g
       id="g146" />
    <g
       id="g148" />
    <g
       id="g150" />
    <g
       id="g152" />
    <g
       id="g154" />
    <g
       id="g156" />
    <g
       id="g158" />
  </g>
  <g
     id="g760"
     transform="translate(84.675541,240.11025)">
    <g
       id="g949"
       transform="translate(-84.675541,-240.11025)">
      <path
         d="M 0,0 H 512 V 512 H 0 Z"
         fill="#b90202"
         fill-opacity="1"
         id="path902"
         style="fill:#1b1f21;fill-opacity:0" />
      <g
         id="g1524"
         transform="matrix(0.65299367,0.65095314,-0.65095314,0.65299367,760.96027,405.16803)">
        <g
           class=""
           id="g1513" />
      </g>
      <g
         id="g1741"
         transform="matrix(0.73148951,-0.72519164,0.72519164,0.73148951,174.72172,-127.52936)">
        <g
           class=""
           id="g1730" />
      </g>
    </g>
    <g
       id="g8"
       style="fill:#ffffff"
       transform="matrix(0.79325675,0,0,0.79325675,52.926272,52.926272)" />
    <g
       id="g10" />
    <g
       id="g12" />
    <g
       id="g14" />
    <g
       id="g16" />
    <g
       id="g18" />
    <g
       id="g20" />
    <g
       id="g22" />
    <g
       id="g24" />
    <g
       id="g26" />
    <g
       id="g28" />
    <g
       id="g30" />
    <g
       id="g32" />
    <g
       id="g34" />
    <g
       id="g36" />
    <g
       id="g38" />
  </g>
  <path
     id="path14"
     style="fill:#ff0ec0;stroke-width:15.6447;fill-opacity:1;filter:url(#filter930)"
     d="M 162.13281 21.330078 A 46.934013 46.934013 0 0 0 115.19727 68.263672 L 115.19727 274.42969 A 46.934013 46.934013 0 0 1 130.8418 271.64453 L 381.1582 271.64453 A 46.934013 46.934013 0 0 1 396.80273 274.42969 L 396.80273 68.263672 A 46.934013 46.934013 0 0 0 349.86719 21.330078 L 162.13281 21.330078 z M 231.55664 67.882812 L 280.44336 67.882812 C 287.3196 67.882812 292.88867 73.457038 292.88867 80.326172 L 292.88867 110.99219 L 323.55273 110.99219 C 330.42898 110.99219 335.99805 116.56641 335.99805 123.43555 L 335.99805 172.32422 C 335.99805 179.20046 330.42898 184.76758 323.55273 184.76758 L 292.88867 184.76758 L 292.88867 215.43359 C 292.88867 222.30984 287.3196 227.87695 280.44336 227.87695 L 231.55664 227.87695 C 224.6804 227.87695 219.11133 222.30984 219.11133 215.43359 L 219.11133 184.76758 L 188.44727 184.76758 C 181.57102 184.76758 176.00195 179.20046 176.00195 172.32422 L 176.00195 123.43555 C 176.00195 116.56641 181.57102 110.99219 188.44727 110.99219 L 219.11133 110.99219 L 219.11133 80.326172 C 219.11133 73.457038 224.6804 67.882813 231.55664 67.882812 z M 130.8418 302.93359 A 15.738539 15.738539 0 0 0 122.16016 305.5625 L 28.291016 368.14062 A 14.486965 14.486965 0 0 0 26.947266 369.39258 A 16.17659 16.17659 0 0 0 25.382812 370.80078 A 15.175331 15.175331 0 0 0 23.222656 373.92969 A 15.926275 15.926275 0 0 0 22.441406 375.36914 A 15.050174 15.050174 0 0 0 21.330078 380.96875 L 21.330078 381.1582 L 21.330078 443.73633 A 46.934013 46.934013 0 0 0 68.263672 490.66992 L 443.73633 490.66992 A 46.934013 46.934013 0 0 0 490.66992 443.73633 L 490.66992 381.1582 L 490.66992 380.96875 A 15.050174 15.050174 0 0 0 489.55859 375.44727 A 15.926275 15.926275 0 0 0 488.77734 374.00781 A 15.175331 15.175331 0 0 0 486.61719 370.87891 A 16.17659 16.17659 0 0 0 485.05273 369.4707 A 14.486965 14.486965 0 0 0 483.70898 368.21875 L 389.83984 305.64062 A 15.738539 15.738539 0 0 0 381.1582 302.93359 L 130.8418 302.93359 z M 135.53516 334.22266 L 376.46484 334.22266 L 423.39844 365.51367 L 88.601562 365.51367 L 135.53516 334.22266 z M 162.13281 412.44727 L 193.42188 412.44727 A 15.644671 15.644671 0 0 1 193.42188 443.73633 L 162.13281 443.73633 A 15.644671 15.644671 0 0 1 162.13281 412.44727 z M 240.35547 412.44727 L 271.64453 412.44727 A 15.644671 15.644671 0 0 1 271.64453 443.73633 L 240.35547 443.73633 A 15.644671 15.644671 0 0 1 240.35547 412.44727 z M 318.57812 412.44727 L 349.86719 412.44727 A 15.644671 15.644671 0 0 1 349.86719 443.73633 L 318.57812 443.73633 A 15.644671 15.644671 0 0 1 318.57812 412.44727 z " />
</svg>
