<?xml version="1.0" encoding="UTF-8" standalone="no"?>
<svg
   width="512" height="512"
   viewBox="0 0 512 512"
   version="1.1"
   id="svg2175"
   sodipodi:docname="rope.svg"
   inkscape:version="1.1.1 (3bf5ae0d25, 2021-09-20)"
   xmlns:inkscape="http://www.inkscape.org/namespaces/inkscape"
   xmlns:sodipodi="http://sodipodi.sourceforge.net/DTD/sodipodi-0.dtd"
   xmlns="http://www.w3.org/2000/svg"
   xmlns:svg="http://www.w3.org/2000/svg">
  <defs
     id="defs2179">
    <filter
       style="color-interpolation-filters:sRGB;"
       inkscape:label="Drop Shadow"
       id="filter890"
       x="-0.1675517"
       y="-0.19118747"
       width="1.3262849"
       height="1.3723124">
      <feFlood
         flood-opacity="1"
         flood-color="rgb(58,63,94)"
         result="flood"
         id="feFlood880" />
      <feComposite
         in="flood"
         in2="SourceGraphic"
         operator="out"
         result="composite1"
         id="feComposite882" />
      <feGaussianBlur
         in="composite1"
         stdDeviation="30"
         result="blur"
         id="feGaussianBlur884" />
      <feOffset
         dx="0"
         dy="-4"
         result="offset"
         id="feOffset886" />
      <feComposite
         in="offset"
         in2="SourceGraphic"
         operator="atop"
         result="composite2"
         id="feComposite888" />
    </filter>
    <filter
       style="color-interpolation-filters:sRGB;"
       inkscape:label="Drop Shadow"
       id="filter991"
       x="-0.055715879"
       y="-0.063575467"
       width="1.1114318"
       height="1.1271509">
      <feFlood
         flood-opacity="1"
         flood-color="rgb(58,63,94)"
         result="flood"
         id="feFlood981" />
      <feComposite
         in="flood"
         in2="SourceGraphic"
         operator="out"
         result="composite1"
         id="feComposite983" />
      <feGaussianBlur
         in="composite1"
         stdDeviation="10.5301"
         result="blur"
         id="feGaussianBlur985" />
      <feOffset
         dx="0"
         dy="0"
         result="offset"
         id="feOffset987" />
      <feComposite
         in="offset"
         in2="SourceGraphic"
         operator="atop"
         result="composite2"
         id="feComposite989" />
    </filter>
  </defs>
  <sodipodi:namedview
     id="namedview2177"
     pagecolor="#505050"
     bordercolor="#eeeeee"
     borderopacity="1"
     inkscape:pageshadow="0"
     inkscape:pageopacity="0"
     inkscape:pagecheckerboard="0"
     showgrid="false"
     inkscape:zoom="1.1708984"
     inkscape:cx="344.60718"
     inkscape:cy="213.08424"
     inkscape:window-width="1716"
     inkscape:window-height="1414"
     inkscape:window-x="3160"
     inkscape:window-y="587"
     inkscape:window-maximized="1"
     inkscape:current-layer="svg2175" />
  <path
     d="M0 0h512v512H0z"
     fill="#b90202"
     fill-opacity="1"
     id="path2169"
     style="fill:#1b1f21;fill-opacity:0" />
  <g
     id="g3696"
     transform="translate(457.81103,227.15279)">
    <g
       class=""
       id="g3685" />
  </g>
  <g
     id="g942"
     transform="translate(-0.00433317,-0.00705292)"
     style="fill:#ff0ec0;fill-opacity:1;filter:url(#filter991)">
    <g
       class=""
       id="g931"
       style="fill:#ff0ec0;fill-opacity:1">
      <path
         d="m 248.9,57.48 c 0,3.7 0.2,7.9 1.1,12.6 20.6,-0.3 43,0.3 61.4,2.1 -0.4,-4.3 -0.4,-8.3 0.2,-12.1 -22.7,-2.4 -41.8,-3.3 -62.7,-2.6 z m -18,1 c -30.5,2.3 -57.8,7.8 -78.9,15.2 1.5,2.6 3.5,5.7 5.6,9.2 18.1,-5.9 44.5,-10.2 74.3,-12 -0.7,-4.6 -1,-8.8 -1,-12.4 z m 98.5,4.2 c -0.5,3.2 -0.4,7.1 0.6,11.9 17.3,2.8 31,6.6 39.8,11.1 6.2,-2.2 12.7,-3.5 19,-4.1 -18.7,-10.1 -40.6,-15.6 -59.4,-18.9 z m -194.2,18 c -7.4,3.7 -13.5,7.6 -17.9,11.4 -6.8,6 -9.2,11.22 -9.2,15.82 2.9,14.4 16.6,21.4 28,26.7 3.6,-7.3 7.9,-14.2 13.3,-20.3 -10.4,-4.1 -15.9,-8.9 -16,-13.8 0,-3.42 2.6,-6.82 7.6,-10.12 -2.1,-3.4 -4.1,-6.6 -5.8,-9.7 z m 243.9,20.92 c -3.4,5.5 -13.3,10.6 -28.4,14.9 2.5,8.6 3.3,17 3.6,25.4 15.8,-5 33.1,-11.3 45.4,-21.9 5.4,-5.5 10.7,-12.1 8.6,-19.4 -9.6,-2.12 -19.9,-1.52 -29.2,1 z m -203.6,13.8 c -13.2,8.3 -21.9,21.6 -27.6,37.8 0.9,14.7 1.6,34.9 13,45.5 4.4,-31.8 21.3,-64.2 39.6,-81.5 -8.2,-7.8 -16.5,-7.1 -25,-1.8 z m 157.5,5.3 c -17.9,3.5 -39.2,5.8 -61.7,6.7 -6.6,12.4 -6.9,17.5 -8.3,27.4 26.7,-0.5 51.7,-3.5 73.2,-8.3 -0.2,-9 -0.3,-17.6 -3.2,-25.8 z m -116.2,6 c -9.2,7.6 -16.3,15.7 -21.7,24 15.4,2.3 32.1,3.8 49.7,4.2 1.5,-9.6 2.2,-16.8 6.4,-27.1 -11.7,0 -23.3,-0.4 -34.4,-1.1 z m -120.36,0.1 c -10.37,22.3 13.36,36.6 28.26,44 1.2,-6.5 2.8,-13.1 4.8,-19.4 -13,-6.4 -25.3,-13.4 -33.06,-24.6 z m 318.16,3.9 c -9.5,8.9 -22,15.9 -32,20.2 2.9,10 3.6,20.3 1,29.7 11.6,-4.6 21,-9.8 27.4,-15.2 7.8,-6.4 11,-12.5 11.2,-18.2 0.2,-5.1 -2.1,-10.5 -7.6,-16.5 z m -48.9,26.5 c -19.5,6.4 -42.7,11.1 -68.1,13.6 -8.2,7.1 -8.3,18.1 -7.2,27.2 24.3,-1.2 46.8,-4.3 66,-9 10.2,-11.2 13,-18.5 9.3,-31.8 z m -279.88,7.4 c -16.43,29.7 13.58,45.8 34.28,54.7 0.2,-9.6 0.7,-19.7 1.8,-29.8 C 108,182.2 95.3,175.3 85.82,164.6 Z m 348.98,0.6 c -6.3,9.9 -14.8,16.8 -24,22.2 2.1,7.4 2.3,14.4 0.5,21.1 11.6,-6.9 26.5,-19.5 26.6,-32.6 0,-3.5 -1,-7 -3.1,-10.7 z m -248.4,2.4 c -2.8,7.2 -4.7,14.4 -6,21.8 5.1,1.1 10.4,2.1 15.9,3.1 0.4,-8.7 2.7,-16 7.3,-22.4 -5.9,-0.7 -11.6,-1.5 -17.2,-2.5 z m 39.8,4.5 c -7.2,6.4 -13,14.6 -11.9,23 20.9,2.4 38.8,3.5 58,3.4 -0.6,-9.6 -0.5,-17.9 2.6,-26 -16.3,0.7 -33.6,0.5 -48.7,-0.4 z M 63.79,194.2 c -5.2,10.1 -1.05,22.2 4.29,29.4 1.34,-4 2.89,-8.8 4.97,-14.3 -4.05,-4.7 -7.22,-9.7 -9.26,-15.1 z m 330.81,1.4 c -21.7,8.8 -47.2,14.4 -67.5,17.2 -6.3,6.7 -3.7,16 -2.4,23.4 24.5,-3.9 46.3,-9.7 64.1,-16.8 2.8,-7.6 7.3,-16.4 5.8,-23.8 z m -255.5,3 c -1.7,20.8 -1.1,41.8 -0.9,58.8 4.9,20.2 23.5,7.1 23.5,4.4 -0.3,-12.2 -1.8,-27.1 -1.7,-43.3 -10.2,-5.3 -16.7,-11.2 -20.9,-19.9 z m 303.2,8.4 c -0.9,1 -1.8,1.9 -2.8,2.8 1.4,10.5 1.7,22.4 1.4,32 4.7,-5.6 7,-11.1 7.3,-16.7 0.3,-5.8 -1.5,-11.8 -5.9,-18.1 z m -264,0.4 c -0.5,9.6 -0.3,19.1 0.2,28.3 10.6,1.8 21.9,3.3 33.6,4.3 -2.1,-9.6 -2.2,-18.6 2,-26.8 -12.5,-1.4 -24.4,-3.4 -35.8,-5.8 z m 127.8,7.6 c -25.5,1.7 -47.4,1.9 -70.7,0.3 -9.1,6.9 -6.9,18.2 -3.9,26 25.4,1.1 51.8,0 75.3,-2.7 -1.3,-8.4 -2.6,-15.9 -0.7,-23.6 z m -218.49,7.1 c -1.93,5.7 -3.42,10.6 -5.27,15.4 13.3,9.2 24.56,15.3 37.86,20.8 -0.1,-6 -0.2,-12.6 -0.3,-19.6 -12.4,-4.8 -23.26,-10.3 -32.29,-16.6 z m 335.09,0.6 c -16.5,9.8 -33.3,16.3 -50.3,21.3 -1.4,11.2 -4.9,22 -1.1,31.8 16.4,-4 32.7,-9.4 46.9,-16.9 4.9,-11.3 5.1,-26.1 4.5,-36.2 z m 38.3,23.7 c 1.3,4.8 1.8,9.9 1.7,15 6.7,-3.2 13.7,-3.8 20.1,-1.2 0,-6.3 -0.8,-12.6 -2.4,-18.8 -5.2,-14.1 -21.7,-5.2 -19.4,5 z M 53.99,234.8 c -3.31,5.4 -4.88,10.7 -4.88,16 2.71,17.2 12,26.6 24.31,35.3 C 72.5,276 75.32,266 81.33,258.7 70.6,251.4 61.22,244.3 53.99,234.8 Z m 298.81,14.3 c -18,4.1 -37.6,7.2 -58.5,8.9 -7.4,7.5 -7.7,18.4 -4.3,27.6 22.7,-0.5 44,-2.7 63.2,-6.1 -1.8,-10 -1.6,-21.5 -0.4,-30.4 z m -173.4,5 c 0.5,7.1 -0.1,15.4 -4,20.9 5.1,1.1 10.4,2.2 15.8,3.2 -1.1,-7.9 -1.2,-15.3 1.5,-22.1 -4.5,-0.6 -9,-1.3 -13.3,-2 z m 32.7,4 c -5.8,6.5 -3.4,16.3 -1.8,23.1 21.7,2.7 40.8,4.2 60.9,4.5 -1.8,-9.2 -1.6,-18.1 1.2,-26.4 -20.1,0.8 -42.1,0.3 -60.3,-1.2 z m 235.3,2.6 c -11.1,9.2 -24.8,16.7 -36,21.3 -2.2,7 -0.4,13.4 1.2,19.6 14.3,-6.1 26,-13 34.7,-20.2 -0.5,-7 1.4,-14.4 0.1,-20.7 z m -349.96,7 c -9.27,8.4 -5.52,22.6 -2.7,30.7 13.96,6.6 29.76,11.9 43.16,15.6 -2.4,-10.8 -2.3,-20.6 2.9,-29.3 -15.8,-5.2 -29.9,-10.3 -43.36,-17 z m 375.86,8.8 c -20.1,14.4 -27.9,35 -44.1,52.7 2.7,7 6.2,13.1 9.2,19.4 20.3,-20.6 36.1,-43.9 42,-68 -1.9,-2.2 -4.5,-4.7 -7.1,-4.1 z m -80.9,12.2 c -20.7,6.3 -44.7,10.8 -70.9,13.2 -3.9,7.1 -0.5,16.1 1.7,22.5 27.1,-3.5 51.7,-9.2 72.5,-16.3 -1.8,-6.8 -3.4,-12.9 -3.3,-19.4 z m -232.9,1.2 c -9,9 -3.9,22 -0.3,29.1 17.7,3.7 37,6.4 57.4,8 -2.8,-9.1 -3,-18.6 0.4,-26.8 -20.3,-2.4 -39.6,-5.9 -57.5,-10.3 z m 77.9,12.3 c -7.9,6.9 -4.9,18.4 -0.6,26 22.7,0.8 47.2,0.1 68.1,-1.8 -2.4,-7.7 -4,-15.8 -2.9,-23.2 -23.6,0.8 -43.5,0.6 -64.6,-1 z M 51.5,359 c 0.46,7.7 3.53,15.5 6.97,21.5 19.87,-17.9 41.63,-25.4 65.13,-20.2 0.9,-6.9 4.6,-13.9 8.8,-18.6 -28.2,-7.4 -60.89,0.3 -80.9,17.3 z m 362.8,-15.1 c -10.8,9.8 -22.9,19 -35.6,27.2 3.4,5.9 7.6,11.7 10.4,17.2 12.5,-8.1 24.4,-17 35.4,-26.7 -2.2,-4.4 -8.1,-19.4 -10.2,-17.7 z m -262.2,4.6 c -6.4,4.7 -11.1,10.2 -10.8,17.5 18.5,7.5 37.1,19.4 56.3,31.2 1.3,-6 3.5,-14.1 6.3,-19.6 -16.5,-10.3 -33.6,-21.3 -51.8,-29.1 z M 36.81,376.4 c -6.69,11.2 -9.67,24.8 -6.04,38.5 1.92,7.2 5.61,14.2 11.05,20.8 3.15,-7.2 6.85,-12.5 13.04,-15.9 C 50.63,413.5 48.5,406 49.4,399 43.73,392.2 39.51,384.3 36.81,376.4 Z m 326.49,4.1 c -19.4,11 -39.4,19.7 -57.8,24.9 -1.8,5.3 -2.4,12.2 -0.5,20.9 22.2,-5.6 45.9,-15.5 68.7,-28.6 -3.3,-6.4 -7,-11.5 -10.4,-17.2 z m -144.2,6.4 c -3.1,5.6 -5.1,11.7 -3.4,21.2 22.4,12.8 46.1,23 71.6,21.2 -1.4,-7.1 -1.7,-13.8 -1,-20 -22,1.6 -43.9,-8.6 -67.2,-22.4 z M 61.46,453 c 4.6,3.2 10.89,1.9 13.98,-2.7 3.09,-4.7 1.78,-10.9 -2.91,-14 C 60.7,428.9 53.77,447.7 61.46,453 Z"
         fill="#ffffff"
         fill-opacity="1"
         stroke="#ffffff"
         stroke-opacity="1"
         stroke-width="0"
         id="path929"
         style="fill:#ff0ec0;fill-opacity:1" />
    </g>
  </g>
</svg>
