<?xml version="1.0" encoding="UTF-8" standalone="no"?>
<svg
   width="512" height="512"
   viewBox="0 0 512 512"
   version="1.1"
   id="svg8"
   sodipodi:docname="scrambler_descrambler.svg"
   inkscape:version="1.1.1 (3bf5ae0d25, 2021-09-20)"
   xmlns:inkscape="http://www.inkscape.org/namespaces/inkscape"
   xmlns:sodipodi="http://sodipodi.sourceforge.net/DTD/sodipodi-0.dtd"
   xmlns="http://www.w3.org/2000/svg"
   xmlns:svg="http://www.w3.org/2000/svg">
  <defs
     id="defs12">
    <filter
       style="color-interpolation-filters:sRGB;"
       inkscape:label="Drop Shadow"
       id="filter893"
       x="-0.16521739"
       y="-0.25350234"
       width="1.3217391"
       height="1.4936624">
      <feFlood
         flood-opacity="1"
         flood-color="rgb(58,63,94)"
         result="flood"
         id="feFlood883" />
      <feComposite
         in="flood"
         in2="SourceGraphic"
         operator="out"
         result="composite1"
         id="feComposite885" />
      <feGaussianBlur
         in="composite1"
         stdDeviation="15"
         result="blur"
         id="feGaussianBlur887" />
      <feOffset
         dx="0"
         dy="0"
         result="offset"
         id="feOffset889" />
      <feComposite
         in="offset"
         in2="SourceGraphic"
         operator="atop"
         result="composite2"
         id="feComposite891" />
    </filter>
    <filter
       style="color-interpolation-filters:sRGB;"
       inkscape:label="Drop Shadow"
       id="filter985"
       x="-0.044276351"
       y="-0.067935696"
       width="1.0885527"
       height="1.1358714">
      <feFlood
         flood-opacity="1"
         flood-color="rgb(58,63,94)"
         result="flood"
         id="feFlood975" />
      <feComposite
         in="flood"
         in2="SourceGraphic"
         operator="out"
         result="composite1"
         id="feComposite977" />
      <feGaussianBlur
         in="composite1"
         stdDeviation="8.4863"
         result="blur"
         id="feGaussianBlur979" />
      <feOffset
         dx="0"
         dy="0"
         result="offset"
         id="feOffset981" />
      <feComposite
         in="offset"
         in2="SourceGraphic"
         operator="atop"
         result="composite2"
         id="feComposite983" />
    </filter>
  </defs>
  <sodipodi:namedview
     id="namedview10"
     pagecolor="#505050"
     bordercolor="#eeeeee"
     borderopacity="1"
     inkscape:pageshadow="0"
     inkscape:pageopacity="0"
     inkscape:pagecheckerboard="0"
     showgrid="false"
     inkscape:zoom="1.7050781"
     inkscape:cx="256"
     inkscape:cy="256"
     inkscape:window-width="1716"
     inkscape:window-height="1414"
     inkscape:window-x="3160"
     inkscape:window-y="587"
     inkscape:window-maximized="1"
     inkscape:current-layer="svg8" />
  <path
     d="M0 0h512v512H0z"
     fill="#b90202"
     fill-opacity="1"
     id="path2"
     style="fill:#1b1f21;fill-opacity:0" />
  <g
     class=""
     style="fill:#ff0ec0;fill-opacity:1;filter:url(#filter985)"
     transform="translate(0,0)"
     id="g6">
    <path
       d="M468.53 236.03H486v39.94h-17.47v-39.94zm-34.426 51.634h17.47v-63.328h-17.47v63.328zm-33.848 32.756h17.47V191.58h-17.47v128.84zm-32.177 25.276h17.47V167.483h-17.47v178.17zm-34.448-43.521h17.47v-92.35h-17.47v92.35zm-34.994 69.879h17.47v-236.06h-17.525v236.06zM264.2 405.9h17.47V106.1H264.2V405.9zm-33.848-46.284h17.47V152.383h-17.47v207.234zm-35.016-58.85h17.47v-87.35h-17.47v87.35zm-33.847-20.823h17.47V231.98h-17.47v48.042zm-33.848 25.66h17.47v-99.24h-17.47v99.272zm-33.302 48.04h17.47V152.678H94.34v201zm-33.847-30.702h17.47V187.333h-17.47v135.642zM26 287.664h17.47v-63.328H26v63.328z"
       fill="#ffffff"
       fill-opacity="1"
       stroke="#ffffff"
       stroke-opacity="1"
       stroke-width="0"
       id="path4"
       style="fill:#ff0ec0;fill-opacity:1" />
  </g>
</svg>
