<?xml version="1.0" encoding="UTF-8" standalone="no"?>
<svg
   width="512" height="512"
   viewBox="0 0 512 512"
   version="1.1"
   id="svg8"
   sodipodi:docname="tech_tool.svg"
   inkscape:version="1.1.1 (3bf5ae0d25, 2021-09-20)"
   xmlns:inkscape="http://www.inkscape.org/namespaces/inkscape"
   xmlns:sodipodi="http://sodipodi.sourceforge.net/DTD/sodipodi-0.dtd"
   xmlns="http://www.w3.org/2000/svg"
   xmlns:svg="http://www.w3.org/2000/svg">
  <defs
     id="defs12">
    <filter
       style="color-interpolation-filters:sRGB;"
       inkscape:label="Drop Shadow"
       id="filter887"
       x="-0.16351435"
       y="-0.1631264"
       width="1.3184227"
       height="1.3176672">
      <feFlood
         flood-opacity="1"
         flood-color="rgb(58,63,94)"
         result="flood"
         id="feFlood877" />
      <feComposite
         in="flood"
         in2="SourceGraphic"
         operator="out"
         result="composite1"
         id="feComposite879" />
      <feGaussianBlur
         in="composite1"
         stdDeviation="15"
         result="blur"
         id="feGaussianBlur881" />
      <feOffset
         dx="0"
         dy="0"
         result="offset"
         id="feOffset883" />
      <feComposite
         in="offset"
         in2="SourceGraphic"
         operator="atop"
         result="composite2"
         id="feComposite885" />
    </filter>
    <filter
       style="color-interpolation-filters:sRGB;"
       inkscape:label="Drop Shadow"
       id="filter1021"
       x="-0.065490077"
       y="-0.065334696"
       width="1.1309802"
       height="1.1306694">
      <feFlood
         flood-opacity="1"
         flood-color="rgb(58,63,94)"
         result="flood"
         id="feFlood1011" />
      <feComposite
         in="flood"
         in2="SourceGraphic"
         operator="out"
         result="composite1"
         id="feComposite1013" />
      <feGaussianBlur
         in="composite1"
         stdDeviation="12.683"
         result="blur"
         id="feGaussianBlur1015" />
      <feOffset
         dx="0"
         dy="0"
         result="offset"
         id="feOffset1017" />
      <feComposite
         in="offset"
         in2="SourceGraphic"
         operator="atop"
         result="composite2"
         id="feComposite1019" />
    </filter>
  </defs>
  <sodipodi:namedview
     id="namedview10"
     pagecolor="#505050"
     bordercolor="#eeeeee"
     borderopacity="1"
     inkscape:pageshadow="0"
     inkscape:pageopacity="0"
     inkscape:pagecheckerboard="0"
     showgrid="false"
     inkscape:zoom="1.7050781"
     inkscape:cx="256"
     inkscape:cy="256"
     inkscape:window-width="1716"
     inkscape:window-height="1414"
     inkscape:window-x="3160"
     inkscape:window-y="587"
     inkscape:window-maximized="1"
     inkscape:current-layer="svg8" />
  <path
     d="M0 0h512v512H0z"
     fill="#b90202"
     fill-opacity="1"
     id="path2"
     style="fill:#1b1f21;fill-opacity:0" />
  <g
     class=""
     style="fill:#ff0ec0;fill-opacity:1;filter:url(#filter1021)"
     transform="translate(0,0)"
     id="g6">
    <path
       id="path4"
       d="M 181.98633 23.802734 C 165.66333 23.374734 164.16245 59.069066 188.68945 71.414062 C 205.76345 29.904063 280.44931 74.684094 270.19531 92.746094 C 261.71531 107.68609 223.87231 82.798156 220.57031 86.785156 C 211.59631 97.620156 245.66658 118.76409 276.01758 132.74609 L 306.20508 102.55859 C 316.66408 92.098614 327.89503 85.05425 339.20703 80.90625 C 305.72703 61.82425 242.09839 29.466565 182.77539 23.851562 C 182.50939 23.825563 182.24533 23.810734 181.98633 23.802734 z M 49.5 47.337891 C 40.301 63.770891 29.534922 79.439604 41.419922 129.72461 L 88.628906 323.54297 C 92.350906 317.61297 96.964614 311.79908 102.55859 306.20508 L 141.76172 267.00195 L 92.935547 118.14453 C 82.872547 89.376536 66.722 64.109891 49.5 47.337891 z M 365.02734 93.498047 C 350.48734 93.454047 334.48764 99.728136 318.93164 115.28516 L 115.28516 318.93164 C 84.172136 350.04364 90.182886 382.92509 109.62891 402.37109 C 129.07391 421.81609 161.95536 427.82784 193.06836 396.71484 L 396.71484 193.06836 C 427.82784 161.95636 421.81709 129.07491 402.37109 109.62891 C 392.64809 99.906886 379.56734 93.542047 365.02734 93.498047 z M 70.015625 115.6582 L 84.96875 169.08984 L 67.634766 173.94141 L 52.681641 120.50781 L 70.015625 115.6582 z M 360.54883 130.4668 L 360.64453 136.9375 L 348.49609 137.11914 L 348.86328 158.21875 L 342.39453 158.32812 L 342.02734 137.2168 L 329.91406 137.40039 L 329.81836 130.92969 L 360.54883 130.4668 z M 386.52539 155.67188 L 386.98633 186.4043 L 380.51758 186.50195 L 380.33594 174.38867 L 359.22266 174.6582 L 359.13672 168.1875 L 380.23828 167.91992 L 380.05469 155.77148 L 386.52539 155.67188 z M 311.42578 156.45312 L 311.60742 168.56641 L 332.7207 168.29688 L 332.80469 174.76758 L 311.70508 175.03516 L 311.88867 187.18359 L 305.41797 187.2832 L 304.95508 156.55078 L 311.42578 156.45312 z M 345.69727 166.14453 C 346.70941 166.1056 347.7293 166.36018 348.61914 166.9082 L 346.54883 169.04102 C 345.72046 168.81152 344.78801 169.02607 344.13672 169.69727 C 343.48641 170.36745 343.29936 171.30684 343.55469 172.12891 L 341.48438 174.26172 C 340.17129 172.26656 340.37324 169.54742 342.12305 167.74414 C 343.10732 166.7298 344.39593 166.19458 345.69727 166.14453 z M 350.22461 168.4668 C 351.5377 170.46195 351.33477 173.18211 349.58594 174.98438 C 347.83711 176.78664 345.12462 177.07375 343.08984 175.82031 L 345.16016 173.6875 C 345.98852 173.91699 346.92293 173.70244 347.57422 173.03125 C 348.22453 172.36107 348.41157 171.42167 348.15625 170.59961 L 350.22461 168.4668 z M 349.54883 184.62695 L 349.91602 205.73828 L 362.0293 205.55469 L 362.125 212.02539 L 331.39453 212.48828 L 331.29688 206.01758 L 343.44727 205.83594 L 343.08008 184.73633 L 349.54883 184.62695 z M 423.42383 188.375 C 419.69283 194.333 415.06141 200.17492 409.44141 205.79492 L 383.54492 231.69141 L 401.88281 244.07031 L 389.29102 263.21484 L 411.26953 275.35938 L 398.44727 295.02539 L 420.02344 308.92578 L 403.27734 331.33984 L 426.13867 341.23438 L 415.11133 361.43164 L 435.34375 376.11914 L 427.45117 411.53125 L 483.58984 381.79883 L 423.42383 188.375 z M 287.81641 327.41992 L 275.08984 340.14648 L 289.17383 354.02734 C 291.4511 356.27217 294.74859 357.13941 297.83594 356.30664 L 310.83789 352.79688 L 298.52539 380.37109 C 295.08339 388.08409 303.20077 395.8627 310.75977 392.0957 L 328.45117 383.27148 L 317.90625 402.36523 C 313.60725 410.15323 322.00611 418.79184 329.91211 414.71484 L 346.63672 406.08594 L 339.46484 419.08203 C 335.71784 425.87603 341.74836 433.91094 349.31836 432.21094 L 372.26562 427.05469 C 379.86363 427.75969 380.81833 427.75486 385.86133 426.42188 L 381.55469 410.84961 C 379.37334 408.64436 376.21003 407.71863 373.18359 408.39844 L 364.89062 410.26172 L 376.70117 388.86133 C 380.99217 381.07433 372.59831 372.44268 364.69531 376.51562 L 347.98633 385.13477 L 358.18945 366.66211 C 362.46045 358.93011 354.19797 350.31286 346.29297 354.25586 L 325.20117 364.77734 L 334.99609 342.84375 C 338.08409 335.91975 331.75359 328.51433 324.43359 330.48633 L 298.13086 337.58398 L 287.81641 327.41992 z M 102.72266 420.2793 L 18.798828 489.69531 L 131.57227 434.02344 C 120.89427 431.65744 111.03366 426.9053 102.72266 420.2793 z "
       style="fill:#ff0ec0;fill-opacity:1" />
  </g>
  <g
     id="g186"
     transform="matrix(0.16864108,0.16364085,-0.16364085,0.16864108,345.12396,115.1554)">
    <g
       id="g126">
      <g
         id="g124" />
    </g>
    <g
       id="g128" />
    <g
       id="g130" />
    <g
       id="g132" />
    <g
       id="g134" />
    <g
       id="g136" />
    <g
       id="g138" />
    <g
       id="g140" />
    <g
       id="g142" />
    <g
       id="g144" />
    <g
       id="g146" />
    <g
       id="g148" />
    <g
       id="g150" />
    <g
       id="g152" />
    <g
       id="g154" />
    <g
       id="g156" />
  </g>
</svg>
