<?xml version="1.0" encoding="UTF-8" standalone="no"?>
<svg
   width="512" height="512"
   viewBox="0 0 512 512"
   version="1.1"
   id="svg8"
   sodipodi:docname="tent_and_camping_equipment.svg"
   inkscape:version="1.1.1 (3bf5ae0d25, 2021-09-20)"
   xmlns:inkscape="http://www.inkscape.org/namespaces/inkscape"
   xmlns:sodipodi="http://sodipodi.sourceforge.net/DTD/sodipodi-0.dtd"
   xmlns="http://www.w3.org/2000/svg"
   xmlns:svg="http://www.w3.org/2000/svg">
  <defs
     id="defs12">
    <filter
       style="color-interpolation-filters:sRGB;"
       inkscape:label="Drop Shadow"
       id="filter875"
       x="-0.16277855"
       y="-0.23064481"
       width="1.3169898"
       height="1.4491504">
      <feFlood
         flood-opacity="1"
         flood-color="rgb(58,63,94)"
         result="flood"
         id="feFlood865" />
      <feComposite
         in="flood"
         in2="SourceGraphic"
         operator="out"
         result="composite1"
         id="feComposite867" />
      <feGaussianBlur
         in="composite1"
         stdDeviation="15"
         result="blur"
         id="feGaussianBlur869" />
      <feOffset
         dx="0"
         dy="0"
         result="offset"
         id="feOffset871" />
      <feComposite
         in="offset"
         in2="SourceGraphic"
         operator="atop"
         result="composite2"
         id="feComposite873" />
    </filter>
  </defs>
  <sodipodi:namedview
     id="namedview10"
     pagecolor="#505050"
     bordercolor="#eeeeee"
     borderopacity="1"
     inkscape:pageshadow="0"
     inkscape:pageopacity="0"
     inkscape:pagecheckerboard="0"
     showgrid="false"
     inkscape:zoom="1.7050781"
     inkscape:cx="256"
     inkscape:cy="256"
     inkscape:window-width="1716"
     inkscape:window-height="1414"
     inkscape:window-x="3160"
     inkscape:window-y="587"
     inkscape:window-maximized="1"
     inkscape:current-layer="svg8" />
  <path
     d="M0 0h512v512H0z"
     fill="#b90202"
     fill-opacity="1"
     id="path2"
     style="fill:#1b1f21;fill-opacity:0" />
  <g
     class=""
     style="fill:#ff0ec0;fill-opacity:1;filter:url(#filter875)"
     transform="translate(0,0)"
     id="g6">
    <path
       d="M361.155 91.245l-18 .193.42 38.98c-45.773 13.285-108.533 19.738-166.474 23.573 35.097 96.284 99.357 173.77 157.845 257.13 20.718-19.655 51.11-31.983 83.46-36.01-20.8-18.109-36.634-27.966-58.833-70.438 31.27 37.085 52.579 48.467 77.623 62.006 3.263-13.094 8.938-24.638 18.721-32.674 8.667-7.12 20.026-10.654 33.53-10.344-46.874-59.763-101.67-117.054-127.83-189.435l-.462-42.98zM163.25 102.92l-17.998.244s.25 18.34.56 36.97c.156 9.316.325 18.703.489 25.929.06 2.636.117 4.58.174 6.542-34.378 83.733-69.154 160.993-123.92 233.442 33.635-1.387 66.326-1.203 98.552-.041 22.263-62.617 23.346-134.855 35.627-202.006 11.417 68.562 10.566 139.445 33.483 205.83 42.962 3.082 85.69 7.198 129.35 10.926-55.67-79.151-118.213-155.037-155.118-249.365-.05-1.782-.1-3.396-.152-5.737-.162-7.156-.333-16.523-.488-25.82-.31-18.594-.559-36.914-.559-36.914z"
       fill="#ffffff"
       fill-opacity="1"
       stroke="#ffffff"
       stroke-opacity="1"
       stroke-width="0"
       id="path4"
       style="fill:#ff0ec0;fill-opacity:1" />
  </g>
</svg>
