<?xml version="1.0" encoding="UTF-8" standalone="no"?>
<svg
   width="512" height="512"
   viewBox="0 0 512 512"
   version="1.1"
   id="svg2175"
   sodipodi:docname="vial_biotoxin.svg"
   inkscape:version="1.1.1 (3bf5ae0d25, 2021-09-20)"
   xmlns:inkscape="http://www.inkscape.org/namespaces/inkscape"
   xmlns:sodipodi="http://sodipodi.sourceforge.net/DTD/sodipodi-0.dtd"
   xmlns="http://www.w3.org/2000/svg"
   xmlns:svg="http://www.w3.org/2000/svg">
  <defs
     id="defs2179">
    <filter
       style="color-interpolation-filters:sRGB;"
       inkscape:label="Drop Shadow"
       id="filter907"
       x="-0.45238095"
       y="-0.19164613"
       width="1.8809524"
       height="1.3732056">
      <feFlood
         flood-opacity="1"
         flood-color="rgb(58,63,94)"
         result="flood"
         id="feFlood897" />
      <feComposite
         in="flood"
         in2="SourceGraphic"
         operator="out"
         result="composite1"
         id="feComposite899" />
      <feGaussianBlur
         in="composite1"
         stdDeviation="15"
         result="blur"
         id="feGaussianBlur901" />
      <feOffset
         dx="0"
         dy="0"
         result="offset"
         id="feOffset903" />
      <feComposite
         in="offset"
         in2="SourceGraphic"
         operator="atop"
         result="composite2"
         id="feComposite905" />
    </filter>
    <filter
       style="color-interpolation-filters:sRGB;"
       inkscape:label="Drop Shadow"
       id="filter1029"
       x="-0.11617771"
       y="-0.049217386"
       width="1.2323554"
       height="1.0984348">
      <feFlood
         flood-opacity="1"
         flood-color="rgb(58,63,94)"
         result="flood"
         id="feFlood1019" />
      <feComposite
         in="flood"
         in2="SourceGraphic"
         operator="out"
         result="composite1"
         id="feComposite1021" />
      <feGaussianBlur
         in="composite1"
         stdDeviation="8.13244"
         result="blur"
         id="feGaussianBlur1023" />
      <feOffset
         dx="0"
         dy="0"
         result="offset"
         id="feOffset1025" />
      <feComposite
         in="offset"
         in2="SourceGraphic"
         operator="atop"
         result="composite2"
         id="feComposite1027" />
    </filter>
  </defs>
  <sodipodi:namedview
     id="namedview2177"
     pagecolor="#505050"
     bordercolor="#eeeeee"
     borderopacity="1"
     inkscape:pageshadow="0"
     inkscape:pageopacity="0"
     inkscape:pagecheckerboard="0"
     showgrid="false"
     inkscape:zoom="1.6559005"
     inkscape:cx="260.88524"
     inkscape:cy="299.23296"
     inkscape:window-width="1143"
     inkscape:window-height="1414"
     inkscape:window-x="3733"
     inkscape:window-y="587"
     inkscape:window-maximized="1"
     inkscape:current-layer="svg2175"
     showguides="true"
     inkscape:guide-bbox="true" />
  <path
     d="M0 0h512v512H0z"
     fill="#b90202"
     fill-opacity="1"
     id="path2169"
     style="fill:#1b1f21;fill-opacity:0" />
  <g
     class=""
     transform="matrix(1.1907283,0,0,1.1928948,-48.826437,-95.140274)"
     id="g2173"
     style="fill:#ff0ec0;fill-opacity:1;filter:url(#filter1029)">
    <path
       id="path2171"
       style="fill:#ff0ec0;fill-opacity:1;stroke-width:0.838787"
       d="m 183.98633,115.58594 c 0.52445,0.85029 -0.0486,-0.093 0.47609,0.75821 0,0 0,0 0.018,2.45741 0.006,102.32602 -0.005,204.65213 0.0122,306.97809 0.1428,13.99415 5.03555,27.8506 13.57429,38.92451 8.40943,11.01021 20.19332,19.32581 33.27484,23.83295 0.75276,0.25899 1.79541,0.59717 2.66558,0.86535 18.73155,5.69539 39.70707,3.86132 57.01028,-5.37545 14.50402,-7.64774 26.33103,-20.48921 32.18757,-35.85938 3.08951,-8.00997 4.49999,-16.63148 4.3143,-25.20708 V 116.39453 C 331.67926,109.62148 335.83991,102.849 340,96.076172 H 172 c 3.99544,6.503258 7.99089,13.006508 11.98633,19.509768 z m 12.24219,6.05859 h 121.2207 V 236.35547 H 194.55078 V 121.64453 Z m 82.10742,180.83008 c 1.41672,1.04414 3.03124,1.8628 4.28288,3.10435 6.03322,7.07033 9.19839,16.60251 8.20344,25.87996 -0.30832,3.1667 -1.05327,6.29286 -2.21288,9.25592 10.36538,1.57299 19.86827,8.09545 24.96914,17.26967 1.09358,1.96903 2.10337,4.03319 2.6832,6.20885 l 0.63867,8.57812 c -2.21923,-2.07282 -4.5498,-4.02727 -6.7168,-6.15429 -4.31482,-7.0442 -12.50234,-11.52929 -20.76757,-11.31055 1.25083,9.09011 -1.41484,18.64254 -7.23905,25.74076 -3.45264,4.24914 -7.93121,7.6722 -12.96994,9.82369 3.73773,6.62944 10.8538,11.25739 18.46862,11.79465 1.08294,0.0854 2.17732,0.0831 3.1854,0.5459 2.37882,0.76982 4.75789,1.53892 7.137,2.30789 -2.75932,1.27028 -5.44926,2.69073 -8.23633,3.89844 -9.2043,1.80211 -19.16038,-0.16736 -26.78553,-5.6925 -2.61512,-1.85392 -4.97236,-4.07282 -6.97619,-6.57508 -5.96488,7.48157 -15.1536,12.32785 -24.72767,12.83486 -3.14752,0.18612 -6.34584,0.0223 -9.41894,-0.69101 -2.61623,-1.26594 -5.23285,-2.53109 -7.84948,-3.79619 2.90467,-0.88194 5.76335,-1.91572 8.6875,-2.73047 6.7946,-0.0972 13.48311,-3.26954 17.77496,-8.55254 0.85336,-1.02274 1.61171,-2.12418 2.27386,-3.27949 -9.51533,-3.99461 -16.98905,-12.5571 -19.54836,-22.56772 -1.11866,-4.24821 -1.38975,-8.71752 -0.80515,-13.07095 -8.11424,-0.1355 -16.09539,4.23081 -20.43641,11.07443 -0.6992,1.05284 -1.82649,1.73752 -2.70614,2.63518 -1.38766,1.25086 -2.77605,2.5009 -4.16409,3.75132 0.28431,-3.02594 0.40329,-6.06742 0.7539,-9.08593 3.19372,-9.29021 10.52581,-17.04576 19.63057,-20.7414 2.56762,-1.06071 5.26188,-1.81435 8.00811,-2.23517 -3.80902,-9.69083 -2.98144,-21.09447 2.31155,-30.07867 1.18875,-2.02046 2.51896,-4.00799 4.17282,-5.66742 2.36298,-1.61112 4.72624,-3.22184 7.08985,-4.83203 -0.64134,2.92402 -1.21302,5.8731 -1.89605,8.78192 -3.36921,6.14016 -3.78139,13.78789 -1.19185,20.28448 0.13487,0.31014 0.40761,0.99003 0.63132,1.43669 0.33293,0.70689 0.71106,1.39149 1.11282,2.06136 7.41426,-5.58793 17.19634,-7.87693 26.32059,-6.15352 5.16071,0.95508 10.09338,3.1303 14.27121,6.30782 4.1296,-6.60959 4.68396,-15.3232 1.27527,-22.35338 -0.4676,-0.98736 -1.02372,-1.93776 -1.12943,-3.04824 -0.52557,-2.44482 -1.05059,-4.88976 -1.57553,-7.33471 1.15691,0.79167 2.31381,1.58333 3.47071,2.375 z m -23.01953,34.7168 c -4.08369,0.0977 -8.13389,1.33002 -11.57422,3.5332 3.55483,2.18185 7.69256,3.28314 11.83984,3.48242 1.04949,0.15917 2.14092,-0.13704 3.20313,-0.20898 3.31672,-0.40146 6.55582,-1.45941 9.42187,-3.18555 -3.79961,-2.47374 -8.36019,-3.74383 -12.89062,-3.62109 z m 0.87695,17.84765 c -1.45693,0.48005 -3.00804,1.24382 -3.50167,2.75779 -0.47271,1.17807 -0.24033,2.50283 0.10909,3.65237 1.08827,1.12088 2.56146,2.11139 4.20117,1.80664 1.16967,-0.14647 2.11938,-0.89209 2.91797,-1.69531 0.41341,-0.37365 0.32466,-1.10016 0.47266,-1.63282 0.39355,-1.99512 -0.98559,-4.02864 -2.91713,-4.55484 -0.43261,-0.0683 -0.88622,-0.27405 -1.28209,-0.33383 z m -22.84961,3.22266 c -0.47742,6.78783 2.26788,13.73718 7.3621,18.27134 1.55504,1.41542 3.31096,2.60862 5.19649,3.53921 0.2082,-4.33395 -0.89008,-8.66795 -2.88509,-12.50208 -0.44633,-1.08021 -1.30794,-1.95895 -1.97784,-2.918 -2.05814,-2.69643 -4.67988,-4.96085 -7.68199,-6.54672 l -0.009,0.0996 z m 44.91406,0.043 c -3.41611,1.89577 -6.28705,4.68232 -8.45898,7.91601 -0.73284,0.8297 -1.03979,1.9609 -1.54704,2.93964 -1.54446,3.37439 -2.30428,7.10215 -2.15023,10.81232 6.49976,-3.24935 11.23672,-9.79605 12.17573,-17.01594 0.22159,-1.5715 0.27359,-3.16649 0.16607,-4.74969 -0.0618,0.0326 -0.1237,0.0651 -0.18555,0.0977 z"
       sodipodi:nodetypes="ccccccccccccccccccccccccccccccccccccccccccccccccccccccccccccccccccccccccccccccccccccccscccccss" />
  </g>
  <g
     id="g3696"
     transform="translate(457.81103,227.15279)">
    <g
       class=""
       id="g3685" />
  </g>
</svg>
