<?xml version="1.0" encoding="UTF-8" standalone="no"?>
<!-- Generator: Adobe Illustrator 18.0.0, SVG Export Plug-In . SVG Version: 6.00 Build 0)  -->

<svg
   version="1.1"
   id="Capa_1"
   x="0px"
   y="0px"
   viewBox="0 0 512 512"
   height="512"
   width="512"
   style="enable-background:new 0 0 512 512;"
   xml:space="preserve"
   sodipodi:docname="generic_hat.svg"
   inkscape:version="1.2.1 (9c6d41e410, 2022-07-14)"
   xmlns:inkscape="http://www.inkscape.org/namespaces/inkscape"
   xmlns:sodipodi="http://sodipodi.sourceforge.net/DTD/sodipodi-0.dtd"
   xmlns="http://www.w3.org/2000/svg"
   xmlns:svg="http://www.w3.org/2000/svg"><defs
   id="defs43"><filter
   style="color-interpolation-filters:sRGB;"
   inkscape:label="Drop Shadow"
   id="filter960"
   x="-0.16661116"
   y="-0.26216319"
   width="1.3243755"
   height="1.510439"><feFlood
     flood-opacity="1"
     flood-color="rgb(58,63,94)"
     result="flood"
     id="feFlood950" /><feComposite
     in="flood"
     in2="SourceGraphic"
     operator="out"
     result="composite1"
     id="feComposite952" /><feGaussianBlur
     in="composite1"
     stdDeviation="15"
     result="blur"
     id="feGaussianBlur954" /><feOffset
     dx="0"
     dy="0"
     result="offset"
     id="feOffset956" /><feComposite
     in="offset"
     in2="SourceGraphic"
     operator="atop"
     result="composite2"
     id="feComposite958" /></filter><filter
   style="color-interpolation-filters:sRGB;"
   inkscape:label="Drop Shadow"
   id="filter1125"
   x="-0.12039686"
   y="-0.24085423"
   width="1.2407937"
   height="1.4817085"><feFlood
     flood-opacity="1"
     flood-color="rgb(58,63,94)"
     result="flood"
     id="feFlood1115" /><feComposite
     in="flood"
     in2="SourceGraphic"
     operator="out"
     result="composite1"
     id="feComposite1117" /><feGaussianBlur
     in="composite1"
     stdDeviation="15"
     result="blur"
     id="feGaussianBlur1119" /><feOffset
     dx="0"
     dy="0"
     result="offset"
     id="feOffset1121" /><feComposite
     in="offset"
     in2="SourceGraphic"
     operator="atop"
     result="composite2"
     id="feComposite1123" /></filter>
		</defs><sodipodi:namedview
   id="namedview41"
   pagecolor="#505050"
   bordercolor="#eeeeee"
   borderopacity="1"
   inkscape:pageshadow="0"
   inkscape:pageopacity="0"
   inkscape:pagecheckerboard="0"
   showgrid="false"
   inkscape:zoom="0.85253905"
   inkscape:cx="-123.748"
   inkscape:cy="383.56014"
   inkscape:window-width="1920"
   inkscape:window-height="1009"
   inkscape:window-x="1912"
   inkscape:window-y="-8"
   inkscape:window-maximized="1"
   inkscape:current-layer="Capa_1"
   inkscape:showpageshadow="2"
   inkscape:deskcolor="#505050" />
<path
   d="M 0,0 H 512 V 512 H 0 Z"
   fill="#b90202"
   fill-opacity="1"
   id="path902"
   style="fill:#1b1f21;fill-opacity:0" />
<path
   d="m 256.0005,294.04805 c 124.731,0 149.694,-52.344 149.504,-52.408 -18.082,-219.593 -127.797,-95.958 -149.504,-95.958 -21.708,0 -131.422,-123.634 -149.505,95.958 -0.188,0.065 24.775,52.408 149.505,52.408 z"
   id="path3758"
   style="fill:#ff0ec0;fill-opacity:1;filter:url(#filter1125)" /><path
   d="m 430.0755,251.53205 c -8.338,16.843 -25.565,31.903 -50.491,43.748 -33.226,15.787 -77.113,24.479 -123.583,24.479 -46.469,0 -90.358,-8.692 -123.582,-24.479 -24.926,-11.845 -42.155,-26.904 -50.493,-43.748 -33.75,15.826 -54.115,36.31 -54.115,58.689 0.001,50.137 102.163,90.779 228.189,90.779 126.026,0 228.188,-40.643 228.188,-90.779 0,-22.378 -20.363,-42.865 -54.113,-58.689 z"
   id="path3760"
   style="fill:#ff0ec0;fill-opacity:1;filter:url(#filter1125)" /></svg>
