<?xml version="1.0" encoding="UTF-8" standalone="no"?>
<!-- Generator: Adobe Illustrator 18.0.0, SVG Export Plug-In . SVG Version: 6.00 Build 0)  -->

<svg
   version="1.1"
   id="Capa_1"
   x="0px"
   y="0px"
   viewBox="0 0 512 512"
   height="512"
   width="512"
   style="enable-background:new 0 0 512 512;"
   xml:space="preserve"
   sodipodi:docname="generic_jacket.svg"
   inkscape:version="1.2.1 (9c6d41e410, 2022-07-14)"
   xmlns:inkscape="http://www.inkscape.org/namespaces/inkscape"
   xmlns:sodipodi="http://sodipodi.sourceforge.net/DTD/sodipodi-0.dtd"
   xmlns="http://www.w3.org/2000/svg"
   xmlns:svg="http://www.w3.org/2000/svg"><defs
   id="defs43"><filter
   style="color-interpolation-filters:sRGB;"
   inkscape:label="Drop Shadow"
   id="filter929"
   x="-0.15911976"
   y="-0.14856114"
   width="1.3097905"
   height="1.2892526"><feFlood
     flood-opacity="1"
     flood-color="rgb(58,63,94)"
     result="flood"
     id="feFlood919" /><feComposite
     in="flood"
     in2="SourceGraphic"
     operator="out"
     result="composite1"
     id="feComposite921" /><feGaussianBlur
     in="composite1"
     stdDeviation="15"
     result="blur"
     id="feGaussianBlur923" /><feOffset
     dx="0"
     dy="0"
     result="offset"
     id="feOffset925" /><feComposite
     in="offset"
     in2="SourceGraphic"
     operator="atop"
     result="composite2"
     id="feComposite927" /></filter><filter
   style="color-interpolation-filters:sRGB;"
   inkscape:label="Drop Shadow"
   id="filter997"
   x="-0.58269399"
   y="-0.42187665"
   width="2.165388"
   height="1.8437533"><feFlood
     flood-opacity="1"
     flood-color="rgb(58,63,94)"
     result="flood"
     id="feFlood987" /><feComposite
     in="flood"
     in2="SourceGraphic"
     operator="out"
     result="composite1"
     id="feComposite989" /><feGaussianBlur
     in="composite1"
     stdDeviation="15"
     result="blur"
     id="feGaussianBlur991" /><feOffset
     dx="0"
     dy="0"
     result="offset"
     id="feOffset993" /><feComposite
     in="offset"
     in2="SourceGraphic"
     operator="atop"
     result="composite2"
     id="feComposite995" /></filter>
	</defs><sodipodi:namedview
   id="namedview41"
   pagecolor="#505050"
   bordercolor="#eeeeee"
   borderopacity="1"
   inkscape:pageshadow="0"
   inkscape:pageopacity="0"
   inkscape:pagecheckerboard="0"
   showgrid="false"
   inkscape:zoom="1.2056723"
   inkscape:cx="100.77365"
   inkscape:cy="239.70029"
   inkscape:window-width="1920"
   inkscape:window-height="1009"
   inkscape:window-x="1912"
   inkscape:window-y="-8"
   inkscape:window-maximized="1"
   inkscape:current-layer="Capa_1"
   inkscape:showpageshadow="2"
   inkscape:deskcolor="#505050" />
<path
   d="M 0,0 H 512 V 512 H 0 Z"
   fill="#b90202"
   fill-opacity="1"
   id="path902"
   style="fill:#1b1f21;fill-opacity:0" />
<path
   d="m 150.493,332.564 c -5.504,25.967 -11.665,55.962 -16.205,85.333 h 21.862 c 22.009,0 39.92,-17.911 39.92,-39.919 v -45.414 z"
   id="path1421"
   style="fill:#ff0ec0;fill-opacity:1;filter:url(#filter997)"
   transform="matrix(0.93829863,0,0,0.93829863,15.909089,15.909085)" /><path
   d="m 361.272,332.561 h -45.585 v 45.414 c 0,22.007 17.911,39.919 39.919,39.919 h 21.871 c -4.54,-29.389 -10.701,-59.392 -16.205,-85.333 z"
   id="path1427"
   style="fill:#ff0ec0;fill-opacity:1;filter:url(#filter997)"
   transform="matrix(0.93829863,0,0,0.93829863,15.909089,15.909085)" /><path
   d="M 494.633,459.085 C 489.846,435.755 483.719,403.507 476.628,366.166 440.6,176.572 420.974,83.977 406.808,70.597 397.421,61.731 369.654,51.619 356.359,47.113 354.243,40.338 350.582,34.023 345.3,28.928 338.243,22.042 329.462,13.466 318.813,9.165 318.796,9.157 318.77,9.157 318.753,9.148 318.719,9.139 318.702,9.114 318.668,9.105 306.874,4.565 282.887,0 255.879,0 c -27.008,0 -50.995,4.565 -62.788,9.105 -0.034,0.009 -0.051,0.034 -0.085,0.043 -0.017,0.009 -0.043,0.009 -0.06,0.017 -10.65,4.301 -19.43,12.877 -26.718,19.985 -5.171,5.001 -8.781,11.238 -10.863,17.971 -13.312,4.514 -41.037,14.626 -50.415,23.484 -14.165,13.372 -33.792,105.967 -69.82,295.561 -7.091,37.342 -13.218,69.589 -18.005,92.919 -0.478,2.313 0.017,4.702 1.382,6.63 1.348,1.92 3.439,3.2 5.76,3.541 L 84,477.789 c 4.557,0.649 8.798,-2.432 9.609,-6.938 10.65,-59.025 39.313,-215.262 43.964,-229.214 2.944,-8.841 9.114,-24.209 14.404,-37.035 5.504,21.632 9.02,45.653 9.796,67.831 l -7.876,43.059 h 50.705 c 4.719,0 8.533,3.814 8.533,8.533 v 53.948 c 0,31.42 -25.566,56.986 -56.986,56.986 h -24.294 c -2.381,18.202 -3.977,35.755 -3.977,51.2 0,0.136 0.068,0.256 0.077,0.393 0.034,0.768 0.205,1.493 0.444,2.21 0.085,0.265 0.111,0.546 0.222,0.802 0.418,0.956 0.99,1.835 1.724,2.577 0.017,0.017 0.017,0.034 0.034,0.051 0.111,0.111 0.265,0.154 0.375,0.247 0.563,0.512 1.135,1.007 1.843,1.357 0.145,0.068 0.324,0.119 0.478,0.196 0.051,0.026 0.102,0.043 0.162,0.068 35.917,17.664 88.055,17.698 122.641,17.698 34.586,0 86.724,-0.034 122.641,-17.698 0.06,-0.026 0.111,-0.051 0.171,-0.077 0.154,-0.068 0.324,-0.12 0.469,-0.188 0.708,-0.35 1.28,-0.845 1.843,-1.357 0.111,-0.094 0.265,-0.137 0.375,-0.247 0.017,-0.009 0.017,-0.034 0.034,-0.043 0.734,-0.751 1.306,-1.63 1.724,-2.586 0.111,-0.256 0.137,-0.529 0.222,-0.802 0.239,-0.717 0.41,-1.442 0.444,-2.21 0.009,-0.137 0.077,-0.256 0.077,-0.393 0,-15.471 -1.596,-33.016 -3.968,-51.2 h -24.302 c -31.42,0 -56.986,-25.566 -56.986,-56.986 v -53.948 c 0,-4.719 3.814,-8.533 8.533,-8.533 h 50.756 l -7.927,-43.059 c 0.777,-22.187 4.301,-46.208 9.796,-67.831 5.291,12.826 11.46,28.194 14.404,37.035 4.651,13.952 33.314,170.189 43.964,229.214 0.802,4.514 5.035,7.595 9.609,6.938 l 59.733,-8.533 c 2.321,-0.341 4.412,-1.621 5.76,-3.541 1.366,-1.926 1.861,-4.316 1.383,-6.628 z M 296.267,68.266 v 0 c -1.476,6.119 -2.987,11.99 -4.514,17.639 -8.644,31.522 -19.533,61.594 -31.189,77.124 -0.068,0.085 -0.128,0.154 -0.188,0.239 -1.399,1.843 -2.816,3.473 -4.233,4.872 -0.06,0.06 -0.111,0.137 -0.171,0.188 -0.034,0.034 -0.068,0.051 -0.111,0.085 C 242.327,155.348 227.966,119.782 215.49,68.266 Z m -31.855,160.871 v 154.624 c 0,-4.719 -3.814,-8.533 -8.533,-8.533 -4.719,0 -8.533,3.814 -8.533,8.533 V 229.137 c 2.918,0.811 5.768,1.263 8.533,1.263 2.764,0 5.614,-0.452 8.533,-1.263 z M 176.169,76.663 c -1.118,-1.357 -2.065,-2.85 -2.867,-4.429 -0.094,-0.179 -0.188,-0.367 -0.273,-0.555 -1.562,-3.243 -2.466,-6.844 -2.611,-10.539 v -0.213 c -0.051,-1.818 0.077,-3.661 0.393,-5.487 0.964,-5.325 3.499,-10.368 7.561,-14.293 3.439,-3.362 7.364,-7.194 11.52,-10.419 2.347,12.672 6.434,32.845 12.16,54.622 -0.538,0.009 -1.092,0.009 -1.638,0.009 -1.314,-0.009 -2.628,-0.009 -4.207,-0.026 -1.86,-0.009 -3.61,-0.222 -5.308,-0.512 -0.486,-0.085 -0.964,-0.188 -1.442,-0.29 -1.451,-0.333 -2.842,-0.751 -4.164,-1.289 -0.205,-0.085 -0.427,-0.137 -0.623,-0.222 -1.476,-0.648 -2.825,-1.459 -4.104,-2.372 -0.316,-0.213 -0.614,-0.444 -0.913,-0.683 -1.257,-0.989 -2.443,-2.056 -3.484,-3.302 z m 33.706,104.09 c -0.794,-0.802 -1.587,-1.604 -2.355,-2.398 -0.742,-0.759 -1.459,-1.519 -2.176,-2.27 -0.64,-0.666 -1.28,-1.331 -1.903,-1.988 -0.725,-0.768 -1.434,-1.519 -2.142,-2.27 -0.58,-0.623 -1.161,-1.246 -1.724,-1.852 -0.674,-0.734 -1.348,-1.459 -1.997,-2.167 -0.589,-0.631 -1.161,-1.263 -1.724,-1.877 -0.589,-0.648 -1.186,-1.297 -1.749,-1.911 -0.521,-0.572 -1.007,-1.118 -1.502,-1.664 -0.572,-0.631 -1.161,-1.28 -1.698,-1.877 -0.905,-1.007 -1.784,-1.98 -2.577,-2.867 l -4.403,-4.898 c -3.618,-4.13 -5.265,-9.472 -4.625,-15.053 0.674,-5.828 3.814,-11.145 8.704,-14.626 l 20.471,-15.078 c 1.425,4.608 2.935,9.182 4.497,13.705 8.9,26.12 18.389,44.86 28.399,56.09 0.077,0.094 0.154,0.171 0.23,0.256 1.835,2.031 3.678,3.857 5.538,5.385 0.068,0.06 0.137,0.137 0.205,0.196 v 27.452 c -0.597,-0.273 -1.203,-0.563 -1.826,-0.879 -0.486,-0.256 -0.973,-0.478 -1.468,-0.76 -1.058,-0.589 -2.142,-1.254 -3.234,-1.954 -0.444,-0.282 -0.879,-0.555 -1.331,-0.853 -1.212,-0.811 -2.449,-1.673 -3.695,-2.586 -0.589,-0.435 -1.195,-0.913 -1.784,-1.365 -0.87,-0.666 -1.732,-1.323 -2.603,-2.031 -0.674,-0.538 -1.34,-1.092 -2.014,-1.655 -0.819,-0.674 -1.638,-1.365 -2.458,-2.074 -0.7,-0.597 -1.391,-1.212 -2.091,-1.826 -0.802,-0.708 -1.604,-1.425 -2.398,-2.159 -0.708,-0.64 -1.417,-1.289 -2.125,-1.946 -0.811,-0.751 -1.613,-1.519 -2.415,-2.287 -0.674,-0.64 -1.348,-1.28 -2.022,-1.929 -0.905,-0.879 -1.801,-1.766 -2.697,-2.662 -1.115,-1.112 -2.215,-2.213 -3.308,-3.322 z m 98.407,299.486 c 0.111,0.051 0.213,0.12 0.324,0.171 3.575,1.732 7.33,3.268 11.162,4.702 0.998,0.375 1.997,0.734 3.012,1.084 3.763,1.314 7.603,2.517 11.588,3.533 0.137,0.043 0.273,0.094 0.418,0.137 -26.948,4.83 -56.721,4.83 -78.908,4.83 -22.187,0 -51.959,0 -78.908,-4.83 0.145,-0.043 0.282,-0.094 0.418,-0.137 3.985,-1.015 7.825,-2.219 11.588,-3.533 1.015,-0.35 2.014,-0.708 3.012,-1.084 3.831,-1.434 7.586,-2.97 11.162,-4.702 0.111,-0.051 0.213,-0.12 0.324,-0.171 3.49,-1.707 6.818,-3.592 10.061,-5.581 0.845,-0.512 1.681,-1.041 2.509,-1.57 3.26,-2.108 6.417,-4.301 9.387,-6.673 0.051,-0.043 0.102,-0.094 0.154,-0.145 2.918,-2.338 5.641,-4.855 8.26,-7.458 0.674,-0.666 1.34,-1.34 1.997,-2.022 2.586,-2.705 5.069,-5.487 7.33,-8.431 0.034,-0.043 0.06,-0.085 0.094,-0.128 2.227,-2.918 4.232,-5.982 6.135,-9.122 0.486,-0.802 0.964,-1.613 1.425,-2.432 1.843,-3.243 3.567,-6.545 5.052,-10.001 1.485,3.456 3.209,6.758 5.052,10.001 0.461,0.819 0.939,1.63 1.425,2.432 1.903,3.14 3.908,6.204 6.135,9.122 0.034,0.043 0.06,0.085 0.094,0.128 2.261,2.944 4.745,5.726 7.33,8.431 0.657,0.683 1.323,1.357 1.997,2.022 2.62,2.603 5.342,5.12 8.26,7.458 0.051,0.051 0.102,0.102 0.154,0.145 2.97,2.372 6.127,4.565 9.387,6.673 0.828,0.529 1.664,1.058 2.509,1.57 3.243,1.988 6.571,3.874 10.061,5.581 z m 19.106,-327.04 -3.959,4.412 c -0.794,0.887 -1.673,1.86 -2.577,2.867 -0.563,0.631 -1.186,1.314 -1.801,1.988 -0.444,0.495 -0.879,0.981 -1.348,1.493 -0.597,0.666 -1.237,1.357 -1.869,2.048 -0.538,0.589 -1.084,1.178 -1.638,1.783 -0.657,0.717 -1.331,1.442 -2.014,2.185 -0.563,0.606 -1.143,1.229 -1.724,1.852 -0.708,0.751 -1.417,1.502 -2.142,2.27 -0.623,0.657 -1.263,1.323 -1.903,1.988 -0.717,0.759 -1.442,1.51 -2.176,2.27 -0.725,0.751 -1.468,1.502 -2.21,2.253 -1.195,1.212 -2.398,2.423 -3.627,3.635 -0.836,0.828 -1.664,1.655 -2.509,2.475 -0.691,0.666 -1.382,1.323 -2.074,1.98 -0.794,0.751 -1.587,1.51 -2.381,2.253 -0.708,0.657 -1.417,1.306 -2.125,1.946 -0.794,0.734 -1.596,1.451 -2.398,2.159 -0.7,0.614 -1.399,1.229 -2.091,1.826 -0.819,0.708 -1.63,1.391 -2.441,2.065 -0.683,0.563 -1.365,1.126 -2.039,1.673 -0.87,0.7 -1.724,1.357 -2.586,2.014 -0.597,0.461 -1.203,0.939 -1.792,1.374 -1.246,0.913 -2.483,1.775 -3.695,2.586 -0.452,0.299 -0.887,0.572 -1.331,0.853 -1.092,0.7 -2.176,1.365 -3.234,1.954 -0.503,0.282 -0.981,0.503 -1.476,0.76 -0.614,0.316 -1.22,0.606 -1.818,0.879 v -27.452 c 0.068,-0.06 0.137,-0.137 0.205,-0.196 1.86,-1.527 3.703,-3.354 5.538,-5.385 0.077,-0.085 0.154,-0.162 0.23,-0.256 10.01,-11.23 19.499,-29.969 28.399,-56.09 1.562,-4.523 3.072,-9.097 4.497,-13.705 l 20.582,15.155 c 4.779,3.405 7.919,8.721 8.593,14.549 0.643,5.581 -1.004,10.922 -5.066,15.539 z m 13.96,-92.169 v 0.051 c -0.137,3.721 -1.05,7.339 -2.62,10.59 -0.085,0.188 -0.179,0.384 -0.273,0.563 -0.802,1.579 -1.749,3.072 -2.867,4.429 -1.041,1.246 -2.227,2.313 -3.482,3.302 -0.299,0.239 -0.597,0.469 -0.913,0.683 -1.28,0.913 -2.628,1.724 -4.104,2.372 -0.196,0.085 -0.418,0.137 -0.623,0.222 -1.323,0.538 -2.714,0.956 -4.164,1.289 -0.478,0.102 -0.956,0.205 -1.442,0.29 -1.698,0.29 -3.447,0.503 -5.308,0.512 -2.227,0.017 -4.053,0.017 -5.845,0.017 5.726,-21.777 9.805,-41.95 12.16,-54.622 4.19,3.268 8.192,7.177 11.81,10.709 3.806,3.678 6.263,8.482 7.253,13.619 0.009,0.077 -0.008,0.145 0.009,0.222 0.341,1.912 0.478,3.841 0.409,5.752 z"
   id="path1433"
   style="fill:#ff0ec0;fill-opacity:1;filter:url(#filter997)"
   transform="matrix(0.93829863,0,0,0.93829863,15.909089,15.909085)" /></svg>
