<?xml version="1.0" encoding="UTF-8" standalone="no"?>
<!-- Generator: Adobe Illustrator 18.0.0, SVG Export Plug-In . SVG Version: 6.00 Build 0)  -->

<svg
   version="1.1"
   id="Capa_1"
   x="0px"
   y="0px"
   viewBox="0 0 512 512"
   height="512"
   width="512"
   style="enable-background:new 0 0 512 512;"
   xml:space="preserve"
   sodipodi:docname="generic_glasses.svg"
   inkscape:version="1.2.1 (9c6d41e410, 2022-07-14)"
   xmlns:inkscape="http://www.inkscape.org/namespaces/inkscape"
   xmlns:sodipodi="http://sodipodi.sourceforge.net/DTD/sodipodi-0.dtd"
   xmlns="http://www.w3.org/2000/svg"
   xmlns:svg="http://www.w3.org/2000/svg"><defs
   id="defs43"><filter
   style="color-interpolation-filters:sRGB;"
   inkscape:label="Drop Shadow"
   id="filter894"
   x="-0.14851074"
   y="-0.35531946"
   width="1.2891357"
   height="1.6918168"><feFlood
     flood-opacity="1"
     flood-color="rgb(58,63,94)"
     result="flood"
     id="feFlood884" /><feComposite
     in="flood"
     in2="SourceGraphic"
     operator="out"
     result="composite1"
     id="feComposite886" /><feGaussianBlur
     in="composite1"
     stdDeviation="15"
     result="blur"
     id="feGaussianBlur888" /><feOffset
     dx="0"
     dy="0"
     result="offset"
     id="feOffset890" /><feComposite
     in="offset"
     in2="SourceGraphic"
     operator="atop"
     result="composite2"
     id="feComposite892" /></filter><filter
   style="color-interpolation-filters:sRGB;"
   inkscape:label="Drop Shadow"
   id="filter1101"
   x="-1.2179215"
   y="-1.2522107"
   width="3.4358429"
   height="3.5044214"><feFlood
     flood-opacity="1"
     flood-color="rgb(58,63,94)"
     result="flood"
     id="feFlood1091" /><feComposite
     in="flood"
     in2="SourceGraphic"
     operator="out"
     result="composite1"
     id="feComposite1093" /><feGaussianBlur
     in="composite1"
     stdDeviation="15"
     result="blur"
     id="feGaussianBlur1095" /><feOffset
     dx="0"
     dy="0"
     result="offset"
     id="feOffset1097" /><feComposite
     in="offset"
     in2="SourceGraphic"
     operator="atop"
     result="fbSourceGraphic"
     id="feComposite1099" /><feColorMatrix
     result="fbSourceGraphicAlpha"
     in="fbSourceGraphic"
     values="0 0 0 -1 0 0 0 0 -1 0 0 0 0 -1 0 0 0 0 1 0"
     id="feColorMatrix1182" /><feFlood
     id="feFlood1184"
     flood-opacity="1"
     flood-color="rgb(58,63,94)"
     result="flood"
     in="fbSourceGraphic" /><feComposite
     in2="fbSourceGraphic"
     id="feComposite1186"
     in="flood"
     operator="out"
     result="composite1" /><feGaussianBlur
     id="feGaussianBlur1188"
     in="composite1"
     stdDeviation="15"
     result="blur" /><feOffset
     id="feOffset1190"
     dx="0"
     dy="0"
     result="offset" /><feComposite
     in2="fbSourceGraphic"
     id="feComposite1192"
     in="offset"
     operator="atop"
     result="composite2" /></filter>
	</defs><sodipodi:namedview
   id="namedview41"
   pagecolor="#505050"
   bordercolor="#eeeeee"
   borderopacity="1"
   inkscape:pageshadow="0"
   inkscape:pageopacity="0"
   inkscape:pagecheckerboard="0"
   showgrid="false"
   inkscape:zoom="0.42626953"
   inkscape:cx="-214.65292"
   inkscape:cy="140.75601"
   inkscape:window-width="1920"
   inkscape:window-height="1009"
   inkscape:window-x="1912"
   inkscape:window-y="-8"
   inkscape:window-maximized="1"
   inkscape:current-layer="Capa_1"
   inkscape:showpageshadow="2"
   inkscape:deskcolor="#505050" />
<path
   d="M 0,0 H 512 V 512 H 0 Z"
   fill="#b90202"
   fill-opacity="1"
   id="path902"
   style="fill:#1b1f21;fill-opacity:0" />
<path
   d="m 278.757,249.941 c -7.248,-2.052 -14.931,-3.129 -22.649,-3.129 -7.974,0 -15.699,1.155 -23.165,3.343 0.011,0.224 0.131,0.446 0.131,0.672 v 40.228 c 0,0.172 -0.162,0.34 -0.163,0.511 6.903,-4.22 14.844,-6.547 23.165,-6.547 8.028,0 15.941,2.175 22.676,6.116 0,-0.027 0.173,-0.054 0.173,-0.082 v -40.226 c 0,-0.299 -0.188,-0.591 -0.168,-0.886 z"
   id="path1969"
   style="fill:#ff0ec0;fill-opacity:1;filter:url(#filter1101)"
   transform="matrix(0.94028146,0,0,0.94028146,15.287946,15.287476)" /><path
   d="m 215.984,238.764 c -3.505,-4.253 -8.811,-6.963 -14.75,-6.963 H 65.898 l 45.354,-44.577 h 17.385 c 10.551,0 19.104,-8.554 19.104,-19.104 0,-10.551 -8.554,-19.104 -19.104,-19.104 h -25.201 c -5.009,0 -9.82,1.968 -13.392,5.479 L 5.712,237.38 C 2.058,240.971 0,245.881 0,251.005 v 36.292 c 0,40.529 32.666,73.715 73.543,75.598 1.215,0.056 2.435,0.09 3.664,0.09 h 67.197 c 20.364,0 39.443,-7.816 53.722,-22.008 14.325,-14.238 22.212,-33.302 22.212,-53.678 v -36.393 c 0,-4.612 -1.634,-8.841 -4.354,-12.142 z"
   id="path1975"
   style="fill:#ff0ec0;fill-opacity:1;filter:url(#filter1101)"
   transform="matrix(0.94028146,0,0,0.94028146,15.287946,15.287476)" /><path
   d="m 506.288,237.38 -84.331,-82.885 c -3.573,-3.511 -8.383,-5.479 -13.392,-5.479 h -25.201 c -10.551,0 -19.104,8.554 -19.104,19.104 0,10.551 8.554,19.104 19.104,19.104 h 17.385 l 45.354,44.577 H 310.766 c -6.032,0 -11.404,2.803 -14.905,7.171 -2.622,3.269 -4.199,7.415 -4.199,11.934 v 36.391 c 0,20.377 7.889,39.442 22.212,53.678 14.277,14.193 33.358,22.008 53.722,22.008 h 67.197 c 0.978,0 1.949,-0.037 2.919,-0.073 C 478.935,361.398 512,328.07 512,287.296 v -36.292 c 0,-5.123 -2.058,-10.033 -5.712,-13.624 z"
   id="path1981"
   style="fill:#ff0ec0;fill-opacity:1;filter:url(#filter1101)"
   transform="matrix(0.94028146,0,0,0.94028146,15.287946,15.287476)" /></svg>
