<?xml version="1.0" encoding="UTF-8" standalone="no"?>
<!-- Generator: Adobe Illustrator 18.0.0, SVG Export Plug-In . SVG Version: 6.00 Build 0)  -->

<svg
   version="1.1"
   id="Capa_1"
   x="0px"
   y="0px"
   viewBox="0 0 512 512"
   height="512"
   width="512"
   style="enable-background:new 0 0 512 512;"
   xml:space="preserve"
   sodipodi:docname="generic_contact_lenses.svg"
   inkscape:version="1.2.1 (9c6d41e410, 2022-07-14)"
   xmlns:inkscape="http://www.inkscape.org/namespaces/inkscape"
   xmlns:sodipodi="http://sodipodi.sourceforge.net/DTD/sodipodi-0.dtd"
   xmlns="http://www.w3.org/2000/svg"
   xmlns:svg="http://www.w3.org/2000/svg"><defs
   id="defs43"><filter
   style="color-interpolation-filters:sRGB;"
   inkscape:label="Drop Shadow"
   id="filter890"
   x="-0.1789004"
   y="-0.16701966"
   width="1.3483014"
   height="1.3251919"><feFlood
     flood-opacity="1"
     flood-color="rgb(58,63,94)"
     result="flood"
     id="feFlood880" /><feComposite
     in="flood"
     in2="SourceGraphic"
     operator="out"
     result="composite1"
     id="feComposite882" /><feGaussianBlur
     in="composite1"
     stdDeviation="15"
     result="blur"
     id="feGaussianBlur884" /><feOffset
     dx="-4.0375"
     dy="-4.02735"
     result="offset"
     id="feOffset886" /><feComposite
     in="offset"
     in2="SourceGraphic"
     operator="atop"
     result="composite2"
     id="feComposite888" /></filter><filter
   style="color-interpolation-filters:sRGB;"
   inkscape:label="Drop Shadow"
   id="filter976"
   x="-0.033315531"
   y="-0.031107206"
   width="1.0666311"
   height="1.0622144"><feFlood
     flood-opacity="1"
     flood-color="rgb(58,63,94)"
     result="flood"
     id="feFlood966" /><feComposite
     in="flood"
     in2="SourceGraphic"
     operator="out"
     result="composite1"
     id="feComposite968" /><feGaussianBlur
     in="composite1"
     stdDeviation="15"
     result="blur"
     id="feGaussianBlur970" /><feOffset
     dx="0"
     dy="0"
     result="offset"
     id="feOffset972" /><feComposite
     in="offset"
     in2="SourceGraphic"
     operator="atop"
     result="composite2"
     id="feComposite974" /></filter><filter
   style="color-interpolation-filters:sRGB;"
   inkscape:label="Drop Shadow"
   id="filter1161"
   x="-0.58877271"
   y="-0.205452"
   width="2.1775454"
   height="1.410904"><feFlood
     flood-opacity="1"
     flood-color="rgb(58,63,94)"
     result="flood"
     id="feFlood1151" /><feComposite
     in="flood"
     in2="SourceGraphic"
     operator="out"
     result="composite1"
     id="feComposite1153" /><feGaussianBlur
     in="composite1"
     stdDeviation="15"
     result="blur"
     id="feGaussianBlur1155" /><feOffset
     dx="0"
     dy="0"
     result="offset"
     id="feOffset1157" /><feComposite
     in="offset"
     in2="SourceGraphic"
     operator="atop"
     result="composite2"
     id="feComposite1159" /></filter>
</defs><sodipodi:namedview
   id="namedview41"
   pagecolor="#505050"
   bordercolor="#eeeeee"
   borderopacity="1"
   inkscape:pageshadow="0"
   inkscape:pageopacity="0"
   inkscape:pagecheckerboard="0"
   showgrid="false"
   inkscape:zoom="1.7050781"
   inkscape:cx="240.75144"
   inkscape:cy="255.70676"
   inkscape:window-width="1920"
   inkscape:window-height="1009"
   inkscape:window-x="1912"
   inkscape:window-y="-8"
   inkscape:window-maximized="1"
   inkscape:current-layer="Capa_1"
   inkscape:showpageshadow="2"
   inkscape:deskcolor="#505050" />
<path
   d="M 0,0 H 512 V 512 H 0 Z"
   fill="#b90202"
   fill-opacity="1"
   id="path902"
   style="fill:#1b1f21;fill-opacity:0" />
<path
   style="fill:#ff0ec0;fill-opacity:1;filter:url(#filter1161)"
   d="m 123.2195,483.6 c 44.862,0 85.789,-22.5 116.596,-59.347 13.233,35.985 31.758,59.347 55.38,59.347 95.568,0 173.318,-102.103 173.318,-227.6 0,-125.497 -77.75,-227.6 -173.318,-227.6 -23.622,0 -42.147,23.362 -55.38,59.347 C 209.0085,50.9 168.0805,28.4 123.2195,28.4 c -52.348,0 -79.733,114.499 -79.733,227.6 0,113.101 27.385,227.6 79.733,227.6 z m 46.69,-416.142 c 23.166,10.876 43.642,29.702 59.867,53.966 8.177,12.225 15.274,25.816 21.045,40.562 10.974,28.027 17.265,60.013 17.265,94.015 0,34.002 -6.292,65.988 -17.265,94.015 -5.771,14.745 -12.868,28.336 -21.045,40.562 -16.233,24.264 -36.701,43.09 -59.867,53.966 0.195,-0.382 0.374,-0.805 0.561,-1.195 0.935,-1.894 1.853,-3.845 2.747,-5.844 0.293,-0.658 0.602,-1.301 0.894,-1.975 1.171,-2.691 2.309,-5.462 3.406,-8.332 0.146,-0.374 0.276,-0.78 0.423,-1.154 0.943,-2.495 1.853,-5.048 2.739,-7.665 0.317,-0.943 0.634,-1.902 0.943,-2.861 0.715,-2.187 1.414,-4.414 2.089,-6.674 0.301,-1 0.602,-2 0.902,-3.016 0.772,-2.658 1.512,-5.373 2.235,-8.129 0.154,-0.585 0.317,-1.146 0.463,-1.731 0.854,-3.341 1.674,-6.755 2.463,-10.218 0.211,-0.943 0.415,-1.91 0.626,-2.861 0.569,-2.585 1.122,-5.194 1.65,-7.836 0.244,-1.211 0.48,-2.43 0.715,-3.658 0.496,-2.585 0.967,-5.202 1.431,-7.836 0.195,-1.105 0.39,-2.203 0.577,-3.325 0.618,-3.699 1.211,-7.43 1.756,-11.209 0.065,-0.455 0.122,-0.927 0.187,-1.382 0.48,-3.365 0.927,-6.771 1.357,-10.201 0.154,-1.252 0.301,-2.512 0.447,-3.772 0.325,-2.747 0.626,-5.503 0.91,-8.283 0.138,-1.317 0.276,-2.634 0.398,-3.95 0.301,-3.089 0.577,-6.202 0.829,-9.323 0.073,-0.91 0.163,-1.813 0.228,-2.723 0.309,-4.007 0.585,-8.031 0.829,-12.079 0.057,-1.016 0.106,-2.04 0.163,-3.056 0.171,-3.089 0.325,-6.178 0.447,-9.283 0.057,-1.366 0.106,-2.731 0.154,-4.105 0.106,-2.902 0.187,-5.812 0.252,-8.722 0.033,-1.276 0.065,-2.544 0.089,-3.812 0.073,-4.105 0.122,-8.21 0.122,-12.323 0,-4.113 -0.049,-8.218 -0.122,-12.323 -0.024,-1.276 -0.057,-2.544 -0.089,-3.812 -0.065,-2.91 -0.146,-5.82 -0.252,-8.722 -0.049,-1.374 -0.098,-2.739 -0.154,-4.105 -0.13,-3.105 -0.285,-6.194 -0.447,-9.283 -0.057,-1.016 -0.106,-2.04 -0.163,-3.056 -0.244,-4.04 -0.512,-8.072 -0.829,-12.079 -0.073,-0.91 -0.154,-1.813 -0.228,-2.723 -0.252,-3.121 -0.528,-6.235 -0.829,-9.323 -0.13,-1.325 -0.268,-2.634 -0.398,-3.95 -0.285,-2.78 -0.593,-5.536 -0.91,-8.283 -0.146,-1.26 -0.293,-2.52 -0.447,-3.772 -0.423,-3.43 -0.878,-6.828 -1.357,-10.201 -0.065,-0.455 -0.122,-0.927 -0.187,-1.382 -0.545,-3.78 -1.138,-7.519 -1.756,-11.209 -0.187,-1.114 -0.39,-2.211 -0.577,-3.325 -0.463,-2.642 -0.935,-5.251 -1.431,-7.836 -0.236,-1.227 -0.471,-2.447 -0.715,-3.658 -0.528,-2.642 -1.081,-5.251 -1.65,-7.836 -0.211,-0.951 -0.406,-1.918 -0.626,-2.861 -0.788,-3.463 -1.601,-6.877 -2.463,-10.218 -0.146,-0.585 -0.309,-1.146 -0.463,-1.731 -0.723,-2.756 -1.463,-5.471 -2.235,-8.129 -0.293,-1.016 -0.593,-2.016 -0.902,-3.016 -0.683,-2.26 -1.374,-4.487 -2.089,-6.674 -0.317,-0.959 -0.626,-1.918 -0.943,-2.861 -0.886,-2.617 -1.805,-5.17 -2.739,-7.665 -0.146,-0.382 -0.276,-0.78 -0.423,-1.154 -1.097,-2.869 -2.243,-5.641 -3.406,-8.332 -0.293,-0.675 -0.593,-1.309 -0.894,-1.975 -0.894,-2 -1.813,-3.95 -2.747,-5.844 -0.187,-0.41 -0.366,-0.833 -0.561,-1.215 z M 440.0635,256 c 0,87.366 -41.131,161.767 -98.177,188.534 0.187,-0.366 0.35,-0.772 0.536,-1.138 0.959,-1.935 1.894,-3.926 2.812,-5.975 0.276,-0.626 0.569,-1.227 0.845,-1.861 1.179,-2.707 2.325,-5.495 3.43,-8.381 0.13,-0.333 0.244,-0.683 0.374,-1.024 0.959,-2.536 1.886,-5.145 2.796,-7.812 0.309,-0.919 0.618,-1.853 0.919,-2.788 0.723,-2.219 1.431,-4.471 2.122,-6.763 0.293,-0.984 0.593,-1.959 0.878,-2.951 0.78,-2.691 1.528,-5.43 2.26,-8.218 0.146,-0.553 0.301,-1.089 0.447,-1.65 0.862,-3.349 1.674,-6.771 2.463,-10.242 0.211,-0.935 0.406,-1.886 0.618,-2.829 0.569,-2.593 1.122,-5.21 1.65,-7.868 0.244,-1.211 0.48,-2.422 0.715,-3.642 0.496,-2.593 0.975,-5.21 1.431,-7.86 0.195,-1.105 0.39,-2.195 0.577,-3.308 0.618,-3.699 1.211,-7.438 1.756,-11.217 0.065,-0.447 0.122,-0.91 0.187,-1.357 0.48,-3.373 0.935,-6.787 1.357,-10.226 0.154,-1.252 0.301,-2.504 0.447,-3.764 0.325,-2.747 0.626,-5.511 0.919,-8.291 0.138,-1.317 0.276,-2.626 0.398,-3.951 0.301,-3.089 0.577,-6.202 0.829,-9.323 0.073,-0.91 0.163,-1.813 0.228,-2.723 0.309,-4.007 0.585,-8.031 0.829,-12.079 0.057,-1.016 0.106,-2.04 0.163,-3.056 0.171,-3.089 0.325,-6.178 0.447,-9.283 0.057,-1.366 0.106,-2.731 0.154,-4.105 0.106,-2.902 0.187,-5.812 0.252,-8.722 0.033,-1.276 0.065,-2.544 0.089,-3.812 0.073,-4.105 0.122,-8.21 0.122,-12.323 0,-4.113 -0.049,-8.218 -0.122,-12.323 -0.024,-1.276 -0.057,-2.544 -0.089,-3.812 -0.065,-2.91 -0.146,-5.82 -0.252,-8.722 -0.049,-1.374 -0.098,-2.739 -0.154,-4.105 -0.13,-3.105 -0.285,-6.194 -0.447,-9.283 -0.057,-1.016 -0.106,-2.04 -0.163,-3.056 -0.244,-4.048 -0.512,-8.072 -0.829,-12.079 -0.073,-0.91 -0.154,-1.813 -0.228,-2.723 -0.26,-3.121 -0.528,-6.235 -0.829,-9.323 -0.13,-1.325 -0.268,-2.634 -0.398,-3.95 -0.285,-2.78 -0.593,-5.544 -0.919,-8.291 -0.146,-1.252 -0.293,-2.512 -0.447,-3.764 -0.423,-3.438 -0.878,-6.844 -1.357,-10.226 -0.065,-0.447 -0.122,-0.91 -0.187,-1.357 -0.553,-3.788 -1.138,-7.519 -1.756,-11.217 -0.187,-1.114 -0.382,-2.203 -0.577,-3.308 -0.463,-2.642 -0.935,-5.267 -1.431,-7.86 -0.236,-1.219 -0.471,-2.43 -0.715,-3.642 -0.528,-2.658 -1.081,-5.275 -1.65,-7.868 -0.203,-0.943 -0.406,-1.894 -0.618,-2.829 -0.788,-3.471 -1.609,-6.893 -2.463,-10.242 -0.146,-0.561 -0.301,-1.097 -0.447,-1.65 -0.732,-2.788 -1.479,-5.527 -2.26,-8.218 -0.284,-0.992 -0.585,-1.975 -0.878,-2.951 -0.691,-2.292 -1.398,-4.544 -2.122,-6.763 -0.309,-0.935 -0.61,-1.87 -0.919,-2.788 -0.902,-2.666 -1.837,-5.267 -2.796,-7.812 -0.13,-0.333 -0.244,-0.691 -0.374,-1.024 -1.105,-2.886 -2.252,-5.674 -3.43,-8.381 -0.276,-0.634 -0.561,-1.236 -0.845,-1.861 -0.919,-2.048 -1.853,-4.04 -2.812,-5.974 -0.187,-0.366 -0.35,-0.772 -0.536,-1.138 57.054,26.781 98.177,101.182 98.177,188.548 z M 295.1955,56.85 c 17.411,0 51.291,70.288 51.291,199.15 0,128.862 -33.88,199.15 -51.291,199.15 -9.437,0 -23.695,-20.825 -34.79,-60.29 22.63,-38.456 36.14,-86.61 36.14,-138.86 0,-52.25 -13.51,-100.404 -36.14,-138.86 11.095,-39.465 25.353,-60.29 34.79,-60.29 z m -171.976,0 c 17.411,0 51.291,70.288 51.291,199.15 0,128.862 -33.88,199.15 -51.291,199.15 -17.411,0 -51.283,-70.288 -51.283,-199.15 0,-128.862 33.871,-199.15 51.283,-199.15 z"
   id="path1351" /><path
   style="fill:#ff0ec0;fill-opacity:1;filter:url(#filter1161)"
   d="m 222.0305,350.007 c 6.096,3.26 13.843,2.536 17.639,-5.568 3.113,-6.625 5.576,-13.274 7.747,-19.948 9.202,-28.239 10.9,-57.054 10.925,-87.602 0.008,-8.925 -6.674,-13.493 -13.583,-13.802 -7.405,-0.333 -15.07,4.243 -15.079,13.802 -0.024,29.035 -0.772,57.266 -11.136,84.31 -1.122,2.934 -2.268,5.869 -3.633,8.779 -4.016,8.576 0.625,16.558 7.12,20.029 z"
   id="path1353" /><path
   style="fill:#ff0ec0;fill-opacity:1;filter:url(#filter1161)"
   d="m 411.6455,344.439 c 16.265,-34.644 18.647,-69.784 18.679,-107.549 0.016,-18.484 -28.653,-18.484 -28.661,0 -0.024,32.189 -0.829,63.403 -14.761,93.088 -7.812,16.623 16.891,31.19 24.743,14.461 z"
   id="path1355" /></svg>
