<?xml version="1.0" encoding="UTF-8" standalone="no"?>
<!-- Generator: Adobe Illustrator 18.0.0, SVG Export Plug-In . SVG Version: 6.00 Build 0)  -->

<svg
   version="1.1"
   id="Capa_1"
   x="0px"
   y="0px"
   viewBox="0 0 512 512"
   height="512"
   width="512"
   style="enable-background:new 0 0 512 512;"
   xml:space="preserve"
   sodipodi:docname="generic_jewelry.svg"
   inkscape:version="1.2.1 (9c6d41e410, 2022-07-14)"
   xmlns:inkscape="http://www.inkscape.org/namespaces/inkscape"
   xmlns:sodipodi="http://sodipodi.sourceforge.net/DTD/sodipodi-0.dtd"
   xmlns="http://www.w3.org/2000/svg"
   xmlns:svg="http://www.w3.org/2000/svg"><defs
   id="defs43"><filter
   style="color-interpolation-filters:sRGB;"
   inkscape:label="Drop Shadow"
   id="filter942"
   x="-0.17052987"
   y="-0.15954937"
   width="1.3320048"
   height="1.310647"><feFlood
     flood-opacity="1"
     flood-color="rgb(58,63,94)"
     result="flood"
     id="feFlood932" /><feComposite
     in="flood"
     in2="SourceGraphic"
     operator="out"
     result="composite1"
     id="feComposite934" /><feGaussianBlur
     in="composite1"
     stdDeviation="15"
     result="blur"
     id="feGaussianBlur936" /><feOffset
     dx="-4.0375"
     dy="-4.02735"
     result="offset"
     id="feOffset938" /><feComposite
     in="offset"
     in2="SourceGraphic"
     operator="atop"
     result="composite2"
     id="feComposite940" /></filter><filter
   style="color-interpolation-filters:sRGB;"
   inkscape:label="Drop Shadow"
   id="filter1004"
   x="-0.042048343"
   y="-0.039346083"
   width="1.0840967"
   height="1.0786922"><feFlood
     flood-opacity="1"
     flood-color="rgb(58,63,94)"
     result="flood"
     id="feFlood994" /><feComposite
     in="flood"
     in2="SourceGraphic"
     operator="out"
     result="composite1"
     id="feComposite996" /><feGaussianBlur
     in="composite1"
     stdDeviation="8"
     result="blur"
     id="feGaussianBlur998" /><feOffset
     dx="0"
     dy="0"
     result="offset"
     id="feOffset1000" /><feComposite
     in="offset"
     in2="SourceGraphic"
     operator="atop"
     result="composite2"
     id="feComposite1002" /></filter>
</defs><sodipodi:namedview
   id="namedview41"
   pagecolor="#505050"
   bordercolor="#eeeeee"
   borderopacity="1"
   inkscape:pageshadow="0"
   inkscape:pageopacity="0"
   inkscape:pagecheckerboard="0"
   showgrid="false"
   inkscape:zoom="0.85253905"
   inkscape:cx="48.678122"
   inkscape:cy="239.28523"
   inkscape:window-width="1920"
   inkscape:window-height="1009"
   inkscape:window-x="1912"
   inkscape:window-y="-8"
   inkscape:window-maximized="1"
   inkscape:current-layer="Capa_1"
   inkscape:showpageshadow="2"
   inkscape:deskcolor="#505050" />
<path
   d="M 0,0 H 512 V 512 H 0 Z"
   fill="#b90202"
   fill-opacity="1"
   id="path902"
   style="fill:#1b1f21;fill-opacity:0" />
<path
   d="m 34.0325,17.7445 c -2.63,10.297 0.047,21.72 8.044,29.72 10.035,10.034 25.46,11.696 37.29,5 5.914,5.346 11.686,10.373 17.357,15.12 -0.338,1.818 -0.522,3.687 -0.522,5.597 0,17.024 14.008,31 31.03,31 4.917,0 9.576,-1.17 13.72,-3.24 5.755,3.91 11.562,7.715 17.482,11.48 -0.474,2.142 -0.732,4.36 -0.732,6.635 0,17.024 14.008,31 31.03,31 7.577,0 14.55,-2.772 19.964,-7.345 l 13.873,8.125 c -0.263,1.535 -0.414,3.113 -0.414,4.732 v 38.904 l -103.07,59.667 v 160.064 l 138.284,80.053 138.283,-80.053 v -160.064 l -104.047,-60.233 v -38.337 c 0,-0.983 -0.067,-1.946 -0.172,-2.897 5.393,-3.07 10.655,-6.08 15.697,-8.994 5.226,3.992 11.736,6.377 18.762,6.377 17.023,0 31,-13.976 31,-31 0,-1.867 -0.176,-3.695 -0.498,-5.476 6.047,-3.987 12.012,-8.058 17.978,-12.298 3.97,1.855 8.38,2.9 13.02,2.9 17.023,0 31.03,-13.976 31.03,-31 0,-1.973 -0.194,-3.903 -0.553,-5.78 5.273,-4.45 10.697,-9.14 16.318,-14.116 11.6,5.714 26.135,3.778 35.736,-5.822 7.998,-7.998 10.675,-19.42 8.045,-29.72 h -20.413 c 4.018,4.888 3.736,11.916 -0.85,16.5 -4.887,4.888 -12.55,4.89 -17.437,0 -4.585,-4.585 -4.867,-11.614 -0.85,-16.5 h -20.414 c -1.915,7.5 -1,15.592 2.72,22.528 -4.12,3.636 -8.123,7.105 -12.034,10.434 -5.575,-5.288 -13.083,-8.555 -21.297,-8.555 -17.024,0 -31.03,14.01 -31.03,31.032 0,5.45 1.438,10.583 3.948,15.05 -4.245,2.958 -8.5,5.84 -12.797,8.673 -5.6,-5.48 -13.24,-8.88 -21.62,-8.88 -17.025,0 -31.032,14.01 -31.032,31.032 0,3.166 0.484,6.225 1.383,9.11 -4.23,2.445 -8.744,5.028 -13.247,7.605 -1.028,-0.994 -2.112,-1.91 -3.246,-2.716 -6.692,-4.768 -14.72,-6.882 -22.714,-7.014 -7.996,-0.132 -16.15,1.718 -22.97,6.504 -0.807,0.565 -1.586,1.186 -2.337,1.85 -4.367,-2.573 -8.764,-5.164 -12.947,-7.622 0.642,-2.47 0.984,-5.056 0.984,-7.716 0,-17.024 -14.007,-31.032 -31.03,-31.032 -7.977,0 -15.29,3.075 -20.812,8.094 -4.47,-2.838 -8.894,-5.69 -13.248,-8.596 2.267,-4.297 3.56,-9.178 3.56,-14.34 0,-17.025 -13.977,-31.033 -31,-31.033 -8.26,0 -15.804,3.304 -21.388,8.642 -4.515,-3.827 -9.1,-7.833 -13.79,-12.067 3.063,-6.575 3.715,-14.03 1.94,-20.98 h -20.417 c 4.018,4.887 3.736,11.915 -0.85,16.5 -4.887,4.887 -12.55,4.888 -17.437,0 -4.584,-4.586 -4.865,-11.615 -0.848,-16.5 h -20.415 z m 93.2,43.094 c 6.924,0 12.313,5.42 12.313,12.343 0,6.923 -5.387,12.312 -12.31,12.312 -6.926,0 -12.345,-5.39 -12.345,-12.313 0,-6.923 5.42,-12.343 12.344,-12.343 z m 260.157,0 c 6.924,0 12.344,5.42 12.344,12.343 0,6.923 -5.42,12.312 -12.345,12.312 -6.924,0 -12.344,-5.39 -12.344,-12.313 0,-6.923 5.42,-12.343 12.345,-12.343 z m -198.655,45.874 c 6.922,0 12.343,5.42 12.343,12.344 0,6.923 -5.42,12.312 -12.344,12.312 -6.926,0 -12.345,-5.39 -12.345,-12.313 0,-6.923 5.42,-12.343 12.344,-12.343 z m 137.155,0 c 6.924,0 12.313,5.42 12.313,12.344 0,6.923 -5.39,12.312 -12.313,12.312 -6.924,0 -12.344,-5.39 -12.344,-12.313 0,-6.923 5.42,-12.343 12.345,-12.343 z m -69.164,38.013 c 4.695,0.078 9.355,1.536 12.18,3.55 2.826,2.012 4.01,3.805 4.01,7.292 v 27.52 l -15.546,-9 -16.526,9.565 v -28.083 c 0,-4.09 1.258,-5.835 3.953,-7.725 2.696,-1.89 7.237,-3.195 11.93,-3.118 z m -8.122,56.03 v 32.728 l -74.182,43.21 -28.558,-16.462 z m 18.687,0.67 102.16,59.138 -28.624,16.502 -73.533,-42.83 -0.002,-32.81 z m -9.988,48.62 72.256,42.085 -0.002,84.316 -72.253,42.086 -72.256,-42.086 0.003,-84.314 72.254,-42.088 z m 0.465,18.33 -56.883,98.15 v 0.724 l 56.566,32.977 56.564,-32.977 v -66.085 l -56.248,-32.79 z m -119.994,8.764 28.586,16.48 v 84.027 l -28.586,16.48 v -116.985 z m 239.19,0.668 -0.003,115.648 -28.715,-16.553 v -82.54 l 28.717,-16.555 z m -38.456,115.052 28.414,16.38 -99.63,57.677 v -32.574 z m -161.77,0.375 71.864,41.86 v 32.494 l -100.21,-58.013 28.345,-16.342 z"
   fill="#000000"
   fill-opacity="1"
   stroke="#ffffff"
   stroke-opacity="1"
   stroke-width="0"
   id="path999"
   style="fill:#ff0ec0;fill-opacity:1;filter:url(#filter1004)" /></svg>
