<?xml version="1.0" encoding="UTF-8" standalone="no"?>
<!-- Generator: Adobe Illustrator 18.0.0, SVG Export Plug-In . SVG Version: 6.00 Build 0)  -->

<svg
   version="1.1"
   id="Capa_1"
   x="0px"
   y="0px"
   viewBox="0 0 512 512"
   height="512"
   width="512"
   style="enable-background:new 0 0 512 512;"
   xml:space="preserve"
   sodipodi:docname="generic_bottoms.svg"
   inkscape:version="1.2.1 (9c6d41e410, 2022-07-14)"
   xmlns:inkscape="http://www.inkscape.org/namespaces/inkscape"
   xmlns:sodipodi="http://sodipodi.sourceforge.net/DTD/sodipodi-0.dtd"
   xmlns="http://www.w3.org/2000/svg"
   xmlns:svg="http://www.w3.org/2000/svg"><defs
   id="defs43"><filter
   style="color-interpolation-filters:sRGB;"
   inkscape:label="Drop Shadow"
   id="filter929"
   x="-0.29702148"
   y="-0.14849092"
   width="1.5782715"
   height="1.2891159"><feFlood
     flood-opacity="1"
     flood-color="rgb(58,63,94)"
     result="flood"
     id="feFlood919" /><feComposite
     in="flood"
     in2="SourceGraphic"
     operator="out"
     result="composite1"
     id="feComposite921" /><feGaussianBlur
     in="composite1"
     stdDeviation="15"
     result="blur"
     id="feGaussianBlur923" /><feOffset
     dx="-4.0375"
     dy="-4.02735"
     result="offset"
     id="feOffset925" /><feComposite
     in="offset"
     in2="SourceGraphic"
     operator="atop"
     result="composite2"
     id="feComposite927" /></filter><filter
   style="color-interpolation-filters:sRGB;"
   inkscape:label="Drop Shadow"
   id="filter979"
   x="-0.40758991"
   y="-0.50388397"
   width="1.8151798"
   height="2.0077679"><feFlood
     flood-opacity="1"
     flood-color="rgb(58,63,94)"
     result="flood"
     id="feFlood969" /><feComposite
     in="flood"
     in2="SourceGraphic"
     operator="out"
     result="composite1"
     id="feComposite971" /><feGaussianBlur
     in="composite1"
     stdDeviation="15"
     result="blur"
     id="feGaussianBlur973" /><feOffset
     dx="0"
     dy="0"
     result="offset"
     id="feOffset975" /><feComposite
     in="offset"
     in2="SourceGraphic"
     operator="atop"
     result="composite2"
     id="feComposite977" /></filter>
</defs><sodipodi:namedview
   id="namedview41"
   pagecolor="#505050"
   bordercolor="#eeeeee"
   borderopacity="1"
   inkscape:pageshadow="0"
   inkscape:pageopacity="0"
   inkscape:pagecheckerboard="0"
   showgrid="false"
   inkscape:zoom="1.7050781"
   inkscape:cx="240.75144"
   inkscape:cy="255.70676"
   inkscape:window-width="1920"
   inkscape:window-height="1009"
   inkscape:window-x="1912"
   inkscape:window-y="-8"
   inkscape:window-maximized="1"
   inkscape:current-layer="Capa_1"
   inkscape:showpageshadow="2"
   inkscape:deskcolor="#505050" />
<path
   d="M 0,0 H 512 V 512 H 0 Z"
   fill="#b90202"
   fill-opacity="1"
   id="path902"
   style="fill:#1b1f21;fill-opacity:0" />
<path
   d="m 324.267,51.2 h -59.733 v 143.394 c 0.179,0.7 0.435,1.365 0.461,2.125 l 16.614,307.208 c 0.247,4.523 3.994,8.073 8.525,8.073 h 59.733 c 4.523,0 8.269,-3.541 8.516,-8.055 l 21.709,-390.784 -7.091,-2.577 C 345.634,103.876 324.267,77.892 324.267,51.2 Z m 8.533,273.067 h -25.6 c -4.719,0 -8.533,-3.823 -8.533,-8.533 0,-4.71 3.814,-8.533 8.533,-8.533 h 25.6 c 4.719,0 8.533,3.823 8.533,8.533 0,4.71 -3.814,8.533 -8.533,8.533 z m 8.533,-136.534 H 307.2 c -4.719,0 -8.533,-3.823 -8.533,-8.533 0,-4.71 3.814,-8.533 8.533,-8.533 h 34.133 c 4.719,0 8.533,3.823 8.533,8.533 0.001,4.71 -3.814,8.533 -8.533,8.533 z"
   id="path928"
   style="fill:#ff0ec0;fill-opacity:1;filter:url(#filter979)"
   transform="matrix(0.91980469,0,0,0.91980469,20.529999,20.529999)" /><path
   d="m 134.575,94.095 c 19.9,-4.693 36.087,-23.936 36.087,-42.897 h -42.197 l 2.449,44.16 2.705,-0.981 c 0.316,-0.111 0.632,-0.205 0.956,-0.282 z"
   id="path930"
   style="fill:#ff0ec0;fill-opacity:1;filter:url(#filter979)"
   transform="matrix(0.91980469,0,0,0.91980469,20.529999,20.529999)" /><path
   d="M 375.467,0 H 136.533 C 131.814,0 128,3.823 128,8.533 v 25.6 H 145.067 366.934 384 V 8.533 C 384,3.823 380.186,0 375.467,0 Z"
   id="path932"
   style="fill:#ff0ec0;fill-opacity:1;filter:url(#filter979)"
   transform="matrix(0.91980469,0,0,0.91980469,20.529999,20.529999)" /><path
   d="m 377.425,94.095 c 0.324,0.077 0.64,0.171 0.956,0.282 l 2.705,0.981 2.449,-44.16 h -42.197 c 0,18.961 16.187,38.204 36.087,42.897 z"
   id="path934"
   style="fill:#ff0ec0;fill-opacity:1;filter:url(#filter979)"
   transform="matrix(0.91980469,0,0,0.91980469,20.529999,20.529999)" /><path
   d="m 138.999,110.583 -7.091,2.577 21.709,390.784 c 0.247,4.514 3.994,8.055 8.516,8.055 h 59.733 c 4.523,0 8.269,-3.541 8.516,-8.055 L 247.466,196.479 V 51.2 h -59.733 c 0,26.692 -21.367,52.676 -48.734,59.383 z M 204.8,324.267 h -25.6 c -4.719,0 -8.533,-3.823 -8.533,-8.533 0,-4.71 3.814,-8.533 8.533,-8.533 h 25.6 c 4.719,0 8.533,3.823 8.533,8.533 0,4.71 -3.814,8.533 -8.533,8.533 z M 213.333,179.2 c 0,4.71 -3.814,8.533 -8.533,8.533 h -34.133 c -4.719,0 -8.533,-3.823 -8.533,-8.533 0,-4.71 3.814,-8.533 8.533,-8.533 H 204.8 c 4.719,0 8.533,3.823 8.533,8.533 z"
   id="path936"
   style="fill:#ff0ec0;fill-opacity:1;filter:url(#filter979)"
   transform="matrix(0.91980469,0,0,0.91980469,20.529999,20.529999)" /></svg>
