<?xml version="1.0" encoding="UTF-8" standalone="no"?>
<!-- Generator: Adobe Illustrator 18.0.0, SVG Export Plug-In . SVG Version: 6.00 Build 0)  -->

<svg
   version="1.1"
   id="Capa_1"
   x="0px"
   y="0px"
   viewBox="0 0 512 512"
   height="512"
   width="512"
   style="enable-background:new 0 0 512 512;"
   xml:space="preserve"
   sodipodi:docname="generic_footwear.svg"
   inkscape:version="1.1.1 (3bf5ae0d25, 2021-09-20)"
   xmlns:inkscape="http://www.inkscape.org/namespaces/inkscape"
   xmlns:sodipodi="http://sodipodi.sourceforge.net/DTD/sodipodi-0.dtd"
   xmlns="http://www.w3.org/2000/svg"
   xmlns:svg="http://www.w3.org/2000/svg"><defs
   id="defs43"><filter
     style="color-interpolation-filters:sRGB;"
     inkscape:label="Drop Shadow"
     id="filter894"
     x="-0.14851074"
     y="-0.35531946"
     width="1.2891357"
     height="1.6918168"><feFlood
       flood-opacity="1"
       flood-color="rgb(58,63,94)"
       result="flood"
       id="feFlood884" /><feComposite
       in="flood"
       in2="SourceGraphic"
       operator="out"
       result="composite1"
       id="feComposite886" /><feGaussianBlur
       in="composite1"
       stdDeviation="15"
       result="blur"
       id="feGaussianBlur888" /><feOffset
       dx="-4.0375"
       dy="-4.02735"
       result="offset"
       id="feOffset890" /><feComposite
       in="offset"
       in2="SourceGraphic"
       operator="atop"
       result="composite2"
       id="feComposite892" /></filter><filter
     style="color-interpolation-filters:sRGB;"
     inkscape:label="Drop Shadow"
     id="filter3333"
     x="-0.22870957"
     y="-0.27055794"
     width="1.4574191"
     height="1.5411159"><feFlood
       flood-opacity="1"
       flood-color="rgb(58,63,94)"
       result="flood"
       id="feFlood3323" /><feComposite
       in="flood"
       in2="SourceGraphic"
       operator="out"
       result="composite1"
       id="feComposite3325" /><feGaussianBlur
       in="composite1"
       stdDeviation="15"
       result="blur"
       id="feGaussianBlur3327" /><feOffset
       dx="0"
       dy="0"
       result="offset"
       id="feOffset3329" /><feComposite
       in="offset"
       in2="SourceGraphic"
       operator="atop"
       result="composite2"
       id="feComposite3331" /></filter><filter
     style="color-interpolation-filters:sRGB;"
     inkscape:label="Drop Shadow"
     id="filter1165"
     x="-0.15195269"
     y="-0.17975638"
     width="1.3039054"
     height="1.3595128"><feFlood
       flood-opacity="1"
       flood-color="rgb(58,63,94)"
       result="flood"
       id="feFlood1155" /><feComposite
       in="flood"
       in2="SourceGraphic"
       operator="out"
       result="composite1"
       id="feComposite1157" /><feGaussianBlur
       in="composite1"
       stdDeviation="3"
       result="blur"
       id="feGaussianBlur1159" /><feOffset
       dx="0"
       dy="0"
       result="offset"
       id="feOffset1161" /><feComposite
       in="offset"
       in2="SourceGraphic"
       operator="atop"
       result="composite2"
       id="feComposite1163" /></filter></defs><sodipodi:namedview
   id="namedview41"
   pagecolor="#505050"
   bordercolor="#eeeeee"
   borderopacity="1"
   inkscape:pageshadow="0"
   inkscape:pageopacity="0"
   inkscape:pagecheckerboard="0"
   showgrid="false"
   inkscape:zoom="1.2056723"
   inkscape:cx="246.7503"
   inkscape:cy="251.72678"
   inkscape:window-width="1716"
   inkscape:window-height="1414"
   inkscape:window-x="3160"
   inkscape:window-y="587"
   inkscape:window-maximized="1"
   inkscape:current-layer="g1089" />
<g
   id="g949"
   style="fill:#1b1f21;fill-opacity:0"><path
     d="M 0,0 H 512 V 512 H 0 Z"
     fill="#b90202"
     fill-opacity="1"
     id="path902"
     style="fill:#1b1f21;fill-opacity:0" /><g
     id="g1524"
     transform="matrix(0.65299367,0.65095314,-0.65095314,0.65299367,760.96027,405.16803)"
     style="fill:#1b1f21;fill-opacity:0"><g
       class=""
       id="g1513"
       style="fill:#1b1f21;fill-opacity:0" /></g><g
     id="g1741"
     transform="matrix(0.73148951,-0.72519164,0.72519164,0.73148951,174.72172,-127.52936)"
     style="fill:#1b1f21;fill-opacity:0"><g
       class=""
       id="g1730"
       style="fill:#1b1f21;fill-opacity:0" /></g></g>
<g
   id="g10">
</g>
<g
   id="g12">
</g>
<g
   id="g14">
</g>
<g
   id="g16">
</g>
<g
   id="g18">
</g>
<g
   id="g20">
</g>
<g
   id="g22">
</g>
<g
   id="g24">
</g>
<g
   id="g26">
</g>
<g
   id="g28">
</g>
<g
   id="g30">
</g>
<g
   id="g32">
</g>
<g
   id="g34">
</g>
<g
   id="g36">
</g>
<g
   id="g38">
</g>
<g
   id="g1089"
   transform="matrix(7.6164197,0,0,7.6164197,18.759548,18.775166)"
   style="fill:#ff0ec0;fill-opacity:1"><g
     id="g1033"
     style="fill:#ff0ec0;fill-opacity:1;filter:url(#filter1165)">
	<g
   id="g1031"
   style="fill:#ff0ec0;fill-opacity:1">
		<path
   d="m 61.072,50.062 -0.526,0.29 c -0.268,0.147 -6.692,3.627 -17.688,3.627 -4.118,0 -8.374,-0.497 -12.648,-1.478 -5.174,-1.188 -9.721,-1.891 -13.562,-2.297 -3.645,-0.386 -6.654,-0.503 -8.942,-0.503 -3.902,0 -6.031,0.334 -6.053,0.337 L 0.824,50.171 0.763,50.017 0.544,49.457 c -0.082,0.409 -0.161,0.832 -0.23,1.264 -0.106,0.28 -0.158,0.583 -0.133,0.901 0,0.002 0.001,0.004 0.001,0.006 -0.269,2.033 -0.298,3.882 0.337,3.769 1.292,-0.235 13.724,0.933 16.738,0.933 1.474,0 2.134,-1.288 2.427,-2.604 2.862,0.321 5.588,0.843 7.729,1.673 3.723,1.444 8.769,2.079 13.924,2.077 7.757,0 15.762,-1.435 19.881,-3.702 1.008,-0.556 1.374,-1.821 0.818,-2.831 -0.225,-0.406 -0.57,-0.702 -0.964,-0.881 z"
   id="path1027"
   style="fill:#ff0ec0;fill-opacity:1" />
		<path
   d="m 1.112,47.2 c 0.139,1.192 0.374,1.81 0.374,1.81 0,0 2.164,-0.35 6.218,-0.35 0.728,0 1.525,0.013 2.373,0.039 2.842,0.09 6.347,0.353 10.458,0.938 1.332,0.189 2.727,0.413 4.185,0.675 1.814,0.328 3.719,0.715 5.72,1.172 4.606,1.057 8.765,1.451 12.417,1.451 10.854,0 17.187,-3.496 17.187,-3.496 -0.108,-5.274 -4.799,-6.495 -9.474,-6.888 -0.489,-0.043 -0.986,-0.057 -1.488,-0.057 -0.993,0 -2.003,0.054 -3.012,0.054 -2.82,0 -5.622,-0.421 -7.947,-3.61 -0.384,0.518 -0.753,1.047 -1.067,1.617 -0.535,0.968 -1.938,-0.033 -1.407,-0.995 0.421,-0.76 0.93,-1.452 1.459,-2.128 -1.039,-1.512 -2.084,-2.678 -3.059,-3.627 -0.814,0.671 -1.481,1.541 -2.066,2.434 -0.605,0.922 -2.115,0.089 -1.503,-0.842 0.66,-1.005 1.409,-1.977 2.301,-2.765 -0.911,-0.806 -1.7,-1.462 -2.286,-2.106 -1.254,0.788 -2.34,1.85 -3.286,2.996 -0.703,0.853 -2.1,-0.157 -1.391,-1.017 1.076,-1.304 2.324,-2.54 3.765,-3.448 -0.143,-0.44 -0.196,-0.916 -0.111,-1.469 0.068,-0.454 0.085,-1.069 0.063,-1.8 -2.038,0.058 -4.067,0.203 -6.092,0.472 -1.099,0.146 -1.084,-1.578 0,-1.722 1.991,-0.264 3.986,-0.411 5.988,-0.471 -0.127,-1.567 -0.348,-3.409 -0.606,-5.33 -2.477,-0.019 -4.937,0.121 -7.377,0.675 -1.082,0.245 -1.541,-1.416 -0.458,-1.661 2.513,-0.57 5.045,-0.741 7.598,-0.735 -0.579,-4.133 -1.217,-8.255 -1.27,-10.18 -0.042,-1.572 -1.172,-2.019 -2.949,-2.019 -2.331,0 -5.775,0.767 -9.347,0.767 -0.563,0 -1.131,-0.019 -1.697,-0.063 -0.53,-0.042 -1.042,-0.061 -1.538,-0.061 -5.939,0 -9.334,2.751 -9.334,2.751 0,0 6.563,14.21 1.719,24.759 C 0.939,40.021 0.83,44.798 1.112,47.2 Z"
   id="path1029"
   style="fill:#ff0ec0;fill-opacity:1" />
	</g>
</g><g
     id="g1035"
     style="fill:#ff0ec0;fill-opacity:1">
</g><g
     id="g1037"
     style="fill:#ff0ec0;fill-opacity:1">
</g><g
     id="g1039"
     style="fill:#ff0ec0;fill-opacity:1">
</g><g
     id="g1041"
     style="fill:#ff0ec0;fill-opacity:1">
</g><g
     id="g1043"
     style="fill:#ff0ec0;fill-opacity:1">
</g><g
     id="g1045"
     style="fill:#ff0ec0;fill-opacity:1">
</g><g
     id="g1047"
     style="fill:#ff0ec0;fill-opacity:1">
</g><g
     id="g1049"
     style="fill:#ff0ec0;fill-opacity:1">
</g><g
     id="g1051"
     style="fill:#ff0ec0;fill-opacity:1">
</g><g
     id="g1053"
     style="fill:#ff0ec0;fill-opacity:1">
</g><g
     id="g1055"
     style="fill:#ff0ec0;fill-opacity:1">
</g><g
     id="g1057"
     style="fill:#ff0ec0;fill-opacity:1">
</g><g
     id="g1059"
     style="fill:#ff0ec0;fill-opacity:1">
</g><g
     id="g1061"
     style="fill:#ff0ec0;fill-opacity:1">
</g><g
     id="g1063"
     style="fill:#ff0ec0;fill-opacity:1">
</g></g></svg>
