<?xml version="1.0" encoding="UTF-8" standalone="no"?>
<!-- Generator: Adobe Illustrator 18.0.0, SVG Export Plug-In . SVG Version: 6.00 Build 0)  -->

<svg
   version="1.1"
   id="Capa_1"
   x="0px"
   y="0px"
   viewBox="0 0 512 512"
   height="512"
   width="512"
   style="enable-background:new 0 0 512 512;"
   xml:space="preserve"
   sodipodi:docname="generic_mirrorshades.svg"
   inkscape:version="1.2.1 (9c6d41e410, 2022-07-14)"
   xmlns:inkscape="http://www.inkscape.org/namespaces/inkscape"
   xmlns:sodipodi="http://sodipodi.sourceforge.net/DTD/sodipodi-0.dtd"
   xmlns="http://www.w3.org/2000/svg"
   xmlns:svg="http://www.w3.org/2000/svg"><defs
   id="defs43"><filter
   style="color-interpolation-filters:sRGB;"
   inkscape:label="Drop Shadow"
   id="filter919"
   x="-0.14851074"
   y="-0.38881113"
   width="1.2891357"
   height="1.757026"><feFlood
     flood-opacity="1"
     flood-color="rgb(58,63,94)"
     result="flood"
     id="feFlood909" /><feComposite
     in="flood"
     in2="SourceGraphic"
     operator="out"
     result="composite1"
     id="feComposite911" /><feGaussianBlur
     in="composite1"
     stdDeviation="15"
     result="blur"
     id="feGaussianBlur913" /><feOffset
     dx="0"
     dy="0"
     result="offset"
     id="feOffset915" /><feComposite
     in="offset"
     in2="SourceGraphic"
     operator="atop"
     result="composite2"
     id="feComposite917" /></filter><filter
   style="color-interpolation-filters:sRGB;"
   inkscape:label="Drop Shadow"
   id="filter1213"
   x="-0.040373772"
   y="-0.10571537"
   width="1.0807475"
   height="1.2114307"><feFlood
     flood-opacity="1"
     flood-color="rgb(58,63,94)"
     result="flood"
     id="feFlood1203" /><feComposite
     in="flood"
     in2="SourceGraphic"
     operator="out"
     result="composite1"
     id="feComposite1205" /><feGaussianBlur
     in="composite1"
     stdDeviation="15"
     result="blur"
     id="feGaussianBlur1207" /><feOffset
     dx="0"
     dy="0"
     result="offset"
     id="feOffset1209" /><feComposite
     in="offset"
     in2="SourceGraphic"
     operator="atop"
     result="composite2"
     id="feComposite1211" /></filter><filter
   style="color-interpolation-filters:sRGB;"
   inkscape:label="Drop Shadow"
   id="filter1097"
   x="-0.33448979"
   y="-0.33449374"
   width="1.6689796"
   height="1.6689875"><feFlood
     flood-opacity="1"
     flood-color="rgb(58,63,94)"
     result="flood"
     id="feFlood1087" /><feComposite
     in="flood"
     in2="SourceGraphic"
     operator="out"
     result="composite1"
     id="feComposite1089" /><feGaussianBlur
     in="composite1"
     stdDeviation="7"
     result="blur"
     id="feGaussianBlur1091" /><feOffset
     dx="0"
     dy="0"
     result="offset"
     id="feOffset1093" /><feComposite
     in="offset"
     in2="SourceGraphic"
     operator="atop"
     result="composite2"
     id="feComposite1095" /></filter>
	</defs><sodipodi:namedview
   id="namedview41"
   pagecolor="#505050"
   bordercolor="#eeeeee"
   borderopacity="1"
   inkscape:pageshadow="0"
   inkscape:pageopacity="0"
   inkscape:pagecheckerboard="0"
   showgrid="false"
   inkscape:zoom="0.85253905"
   inkscape:cx="-95.596794"
   inkscape:cy="102.04811"
   inkscape:window-width="1920"
   inkscape:window-height="1009"
   inkscape:window-x="1912"
   inkscape:window-y="-8"
   inkscape:window-maximized="1"
   inkscape:current-layer="Capa_1"
   inkscape:showpageshadow="2"
   inkscape:deskcolor="#505050" />
<path
   d="M 0,0 H 512 V 512 H 0 Z"
   fill="#b90202"
   fill-opacity="1"
   id="path902"
   style="fill:#1b1f21;fill-opacity:0" />
<path
   d="m 492.773,290.106 c -9.17705,-9.18985 -11.42873,-12.24651 -27.158,-19.485 -19.625,-9.412 -44.873,-14.484 -74.634,-14.484 -40.841,0 -73.189,9.651 -94.139,26.818 -7.855,-2.94 -24.175,-8.166 -40.843,-8.166 -11.854,0 -24.334,2.623 -30.718,4.183 -4.457,1.09 -8.134,2.103 -11.132,3.178 -20.975,-16.653 -52.945,-25.969 -93.132,-25.969 -29.761,0 -55.009,5.118 -74.634,14.531 -12.758709,6.1677 -20.49666,10.85149 -27.156,19.303 C 6.755,303.332 0,320.221 0,339.919 c 0,27.613 12.984,55.785 35.623,77.257 23.439,22.232 53.766,34.487 85.395,34.487 31.63,0 61.957,-12.238 85.396,-34.469 22.639,-21.472 35.623,-49.618 35.623,-77.232 0,-16.307 -4.627,-30.658 -13.295,-42.673 7.691,-1.931 18.175,-3.87 27.259,-3.87 9.698,0 19.55,2.283 26.818,4.483 -8.384,11.89 -12.855,26.033 -12.855,42.064 0,27.613 12.984,55.763 35.623,77.234 23.439,22.232 53.766,34.475 85.395,34.475 31.63,0 61.957,-12.243 85.396,-34.475 C 499.016,395.727 512,367.577 512,339.964 c 0,-19.697 -6.754,-36.541 -19.227,-49.858 z M 121.018,433.055 c -48.339,0 -102.4,-39.811 -102.4,-93.091 0,-60.465 78.377,-65.164 102.4,-65.164 24.023,0 102.4,4.699 102.4,65.164 0,53.28 -54.061,93.091 -102.4,93.091 z m 269.964,0 c -48.339,0 -102.4,-39.811 -102.4,-93.091 0,-60.465 78.377,-65.164 102.4,-65.164 24.023,0 102.4,4.699 102.4,65.164 0,53.28 -54.062,93.091 -102.4,93.091 z"
   id="path3050"
   sodipodi:nodetypes="ccscsccsccscscscscscscscssssssssss"
   style="fill:#ff0ec0;fill-opacity:1;filter:url(#filter1097)"
   transform="matrix(0.95250923,0,0,0.95250923,12.157637,-81.098732)" /><path
   d="m 86.171,305.454 c -3.632,-3.634 -9.532,-3.634 -13.164,0 l -23.734,23.734 c -3.636,3.636 -3.636,9.529 0,13.166 1.816,1.817 4.2,2.726 6.582,2.726 2.382,0 4.766,-0.909 6.582,-2.726 L 86.171,318.62 c 3.636,-3.636 3.636,-9.53 0,-13.166 z"
   id="path3056"
   style="fill:#ff0ec0;fill-opacity:1;filter:url(#filter1097)"
   transform="matrix(0.95250923,0,0,0.95250923,12.157637,-81.098732)" /><path
   d="m 356.134,305.454 c -3.632,-3.634 -9.532,-3.634 -13.164,0 l -23.734,23.734 c -3.636,3.636 -3.636,9.529 0,13.166 1.816,1.817 4.2,2.726 6.582,2.726 2.382,0 4.766,-0.909 6.582,-2.726 l 23.734,-23.734 c 3.637,-3.636 3.637,-9.53 0,-13.166 z"
   id="path3062"
   style="fill:#ff0ec0;fill-opacity:1;filter:url(#filter1097)"
   transform="matrix(0.95250923,0,0,0.95250923,12.157637,-81.098732)" /><path
   d="m 146.218,296.145 c -3.632,-3.634 -9.532,-3.634 -13.164,0 l -74.473,74.473 c -3.636,3.636 -3.636,9.53 0,13.166 1.816,1.817 4.2,2.726 6.582,2.726 2.382,0 4.766,-0.909 6.582,-2.726 l 74.473,-74.473 c 3.637,-3.636 3.637,-9.53 0,-13.166 z"
   id="path3068"
   style="fill:#ff0ec0;fill-opacity:1;filter:url(#filter1097)"
   transform="matrix(0.95250923,0,0,0.95250923,12.157637,-81.098732)" /><path
   d="m 416.182,296.145 c -3.632,-3.634 -9.532,-3.634 -13.164,0 l -74.473,74.473 c -3.636,3.636 -3.636,9.53 0,13.166 1.816,1.817 4.2,2.726 6.582,2.726 2.382,0 4.766,-0.909 6.582,-2.726 l 74.473,-74.473 c 3.636,-3.636 3.636,-9.53 0,-13.166 z"
   id="path3074"
   style="fill:#ff0ec0;fill-opacity:1;filter:url(#filter1097)"
   transform="matrix(0.95250923,0,0,0.95250923,12.157637,-81.098732)" /></svg>
