<?xml version="1.0" encoding="UTF-8" standalone="no"?>
<svg
   width="512"
   height="512"
   viewBox="0 0 512 512"
   version="1.1"
   id="svg8"
   sodipodi:docname="scavenged-armor.svg"
   inkscape:version="1.2.1 (9c6d41e410, 2022-07-14)"
   xml:space="preserve"
   xmlns:inkscape="http://www.inkscape.org/namespaces/inkscape"
   xmlns:sodipodi="http://sodipodi.sourceforge.net/DTD/sodipodi-0.dtd"
   xmlns="http://www.w3.org/2000/svg"
   xmlns:svg="http://www.w3.org/2000/svg"><defs
     id="defs12"><filter
       style="color-interpolation-filters:sRGB;"
       inkscape:label="Drop Shadow"
       id="filter875"
       x="-0.31291152"
       y="-0.16857506"
       width="1.6092078"
       height="1.3282203"><feFlood
         flood-opacity="1"
         flood-color="rgb(58,63,94)"
         result="flood"
         id="feFlood865" /><feComposite
         in="flood"
         in2="SourceGraphic"
         operator="out"
         result="composite1"
         id="feComposite867" /><feGaussianBlur
         in="composite1"
         stdDeviation="15"
         result="blur"
         id="feGaussianBlur869" /><feOffset
         dx="0"
         dy="0"
         result="offset"
         id="feOffset871" /><feComposite
         in="offset"
         in2="SourceGraphic"
         operator="atop"
         result="composite2"
         id="feComposite873" /></filter><filter
       style="color-interpolation-filters:sRGB;"
       inkscape:label="Drop Shadow"
       id="filter1015"
       x="-0.081997928"
       y="-0.044180702"
       width="1.1639959"
       height="1.0883614"><feFlood
         flood-opacity="1"
         flood-color="rgb(58,63,94)"
         result="flood"
         id="feFlood1005" /><feComposite
         in="flood"
         in2="SourceGraphic"
         operator="out"
         result="composite1"
         id="feComposite1007" /><feGaussianBlur
         in="composite1"
         stdDeviation="8.30229"
         result="blur"
         id="feGaussianBlur1009" /><feOffset
         dx="0"
         dy="0"
         result="offset"
         id="feOffset1011" /><feComposite
         in="offset"
         in2="SourceGraphic"
         operator="atop"
         result="composite2"
         id="feComposite1013" /></filter><filter
       style="color-interpolation-filters:sRGB;"
       inkscape:label="Drop Shadow"
       id="filter35638"
       x="-0.057142887"
       y="-0.13067032"
       width="1.1142858"
       height="1.2613406"><feFlood
         flood-opacity="1"
         flood-color="rgb(58,63,94)"
         result="flood"
         id="feFlood35628" /><feComposite
         in="flood"
         in2="SourceGraphic"
         operator="out"
         result="composite1"
         id="feComposite35630" /><feGaussianBlur
         in="composite1"
         stdDeviation="6"
         result="blur"
         id="feGaussianBlur35632" /><feOffset
         dx="0"
         dy="0"
         result="offset"
         id="feOffset35634" /><feComposite
         in="offset"
         in2="SourceGraphic"
         operator="atop"
         result="composite2"
         id="feComposite35636" /></filter><filter
       style="color-interpolation-filters:sRGB;"
       inkscape:label="Drop Shadow"
       id="filter35813"
       x="-0.053321701"
       y="-0.069584126"
       width="1.1066434"
       height="1.1391683"><feFlood
         flood-opacity="1"
         flood-color="rgb(58,63,94)"
         result="flood"
         id="feFlood35803" /><feComposite
         in="flood"
         in2="SourceGraphic"
         operator="out"
         result="composite1"
         id="feComposite35805" /><feGaussianBlur
         in="composite1"
         stdDeviation="8"
         result="blur"
         id="feGaussianBlur35807" /><feOffset
         dx="0"
         dy="0"
         result="offset"
         id="feOffset35809" /><feComposite
         in="offset"
         in2="SourceGraphic"
         operator="atop"
         result="composite2"
         id="feComposite35811" /></filter><filter
       style="color-interpolation-filters:sRGB;"
       inkscape:label="Drop Shadow"
       id="filter36051"
       x="-0.028125"
       y="-0.038976963"
       width="1.05625"
       height="1.0779539"><feFlood
         flood-opacity="1"
         flood-color="rgb(58,63,94)"
         result="flood"
         id="feFlood36041" /><feComposite
         in="flood"
         in2="SourceGraphic"
         operator="out"
         result="composite1"
         id="feComposite36043" /><feGaussianBlur
         in="composite1"
         stdDeviation="6"
         result="blur"
         id="feGaussianBlur36045" /><feOffset
         dx="0"
         dy="0"
         result="offset"
         id="feOffset36047" /><feComposite
         in="offset"
         in2="SourceGraphic"
         operator="atop"
         result="composite2"
         id="feComposite36049" /></filter><filter
       style="color-interpolation-filters:sRGB;"
       inkscape:label="Drop Shadow"
       id="filter36337"
       x="-0.031246302"
       y="-0.031246303"
       width="1.0624926"
       height="1.0624926"><feFlood
         flood-opacity="1"
         flood-color="rgb(58,63,94)"
         result="flood"
         id="feFlood36327" /><feComposite
         in="flood"
         in2="SourceGraphic"
         operator="out"
         result="composite1"
         id="feComposite36329" /><feGaussianBlur
         in="composite1"
         stdDeviation="6"
         result="blur"
         id="feGaussianBlur36331" /><feOffset
         dx="0"
         dy="0"
         result="offset"
         id="feOffset36333" /><feComposite
         in="offset"
         in2="SourceGraphic"
         operator="atop"
         result="composite2"
         id="feComposite36335" /></filter><filter
       style="color-interpolation-filters:sRGB;"
       inkscape:label="Drop Shadow"
       id="filter1651"
       x="-0.065343256"
       y="-0.053154622"
       width="1.1306865"
       height="1.1063092"><feFlood
         flood-opacity="1"
         flood-color="rgb(58,63,94)"
         result="flood"
         id="feFlood1641" /><feComposite
         in="flood"
         in2="SourceGraphic"
         operator="out"
         result="composite1"
         id="feComposite1643" /><feGaussianBlur
         in="composite1"
         stdDeviation="23.9195"
         result="blur"
         id="feGaussianBlur1645" /><feOffset
         dx="0"
         dy="0"
         result="offset"
         id="feOffset1647" /><feComposite
         in="offset"
         in2="SourceGraphic"
         operator="atop"
         result="composite2"
         id="feComposite1649" /></filter><filter
       style="color-interpolation-filters:sRGB;"
       inkscape:label="Drop Shadow"
       id="filter2460"
       x="-0.055034241"
       y="-0.04783849"
       width="1.1100685"
       height="1.095677"><feFlood
         flood-opacity="1"
         flood-color="rgb(58,63,94)"
         result="flood"
         id="feFlood2450" /><feComposite
         in="flood"
         in2="SourceGraphic"
         operator="out"
         result="composite1"
         id="feComposite2452" /><feGaussianBlur
         in="composite1"
         stdDeviation="23.9195"
         result="blur"
         id="feGaussianBlur2454" /><feOffset
         dx="0"
         dy="0"
         result="offset"
         id="feOffset2456" /><feComposite
         in="offset"
         in2="SourceGraphic"
         operator="atop"
         result="composite2"
         id="feComposite2458" /></filter><filter
       style="color-interpolation-filters:sRGB;"
       inkscape:label="Drop Shadow"
       id="filter3393"
       x="-0.043597231"
       y="-0.047813213"
       width="1.0871945"
       height="1.0956264"><feFlood
         flood-opacity="1"
         flood-color="rgb(58,63,94)"
         result="flood"
         id="feFlood3383" /><feComposite
         in="flood"
         in2="SourceGraphic"
         operator="out"
         result="composite1"
         id="feComposite3385" /><feGaussianBlur
         in="composite1"
         stdDeviation="20.3254"
         result="blur"
         id="feGaussianBlur3387" /><feOffset
         dx="0"
         dy="0"
         result="offset"
         id="feOffset3389" /><feComposite
         in="offset"
         in2="SourceGraphic"
         operator="atop"
         result="composite2"
         id="feComposite3391" /></filter><filter
       style="color-interpolation-filters:sRGB;"
       inkscape:label="Drop Shadow"
       id="filter4405"
       x="-0.046458051"
       y="-0.04645802"
       width="1.0929161"
       height="1.092916"><feFlood
         flood-opacity="1"
         flood-color="rgb(58,63,94)"
         result="flood"
         id="feFlood4395" /><feComposite
         in="flood"
         in2="SourceGraphic"
         operator="out"
         result="composite1"
         id="feComposite4397" /><feGaussianBlur
         in="composite1"
         stdDeviation="20.3254"
         result="blur"
         id="feGaussianBlur4399" /><feOffset
         dx="0"
         dy="0"
         result="offset"
         id="feOffset4401" /><feComposite
         in="offset"
         in2="SourceGraphic"
         operator="atop"
         result="composite2"
         id="feComposite4403" /></filter><filter
       style="color-interpolation-filters:sRGB;"
       inkscape:label="Drop Shadow"
       id="filter6546"
       x="-0.045088306"
       y="-0.041489669"
       width="1.0901766"
       height="1.0829793"><feFlood
         flood-opacity="1"
         flood-color="rgb(58,63,94)"
         result="flood"
         id="feFlood6536" /><feComposite
         in="flood"
         in2="SourceGraphic"
         operator="out"
         result="composite1"
         id="feComposite6538" /><feGaussianBlur
         in="composite1"
         stdDeviation="18.8"
         result="blur"
         id="feGaussianBlur6540" /><feOffset
         dx="0"
         dy="0"
         result="offset"
         id="feOffset6542" /><feComposite
         in="offset"
         in2="SourceGraphic"
         operator="atop"
         result="composite2"
         id="feComposite6544" /></filter><filter
       style="color-interpolation-filters:sRGB;"
       inkscape:label="Drop Shadow"
       id="filter7837"
       x="-0.046995845"
       y="-0.052469336"
       width="1.0939917"
       height="1.1049387"><feFlood
         flood-opacity="1"
         flood-color="rgb(58,63,94)"
         result="flood"
         id="feFlood7827" /><feComposite
         in="flood"
         in2="SourceGraphic"
         operator="out"
         result="composite1"
         id="feComposite7829" /><feGaussianBlur
         in="composite1"
         stdDeviation="18.8"
         result="blur"
         id="feGaussianBlur7831" /><feOffset
         dx="0"
         dy="0"
         result="offset"
         id="feOffset7833" /><feComposite
         in="offset"
         in2="SourceGraphic"
         operator="atop"
         result="composite2"
         id="feComposite7835" /></filter><filter
       style="color-interpolation-filters:sRGB;"
       inkscape:label="Drop Shadow"
       id="filter9439"
       x="-0.094375522"
       y="-0.080923279"
       width="1.188751"
       height="1.1618466"><feFlood
         flood-opacity="1"
         flood-color="rgb(58,63,94)"
         result="flood"
         id="feFlood9429" /><feComposite
         in="flood"
         in2="SourceGraphic"
         operator="out"
         result="composite1"
         id="feComposite9431" /><feGaussianBlur
         in="composite1"
         stdDeviation="14.9"
         result="blur"
         id="feGaussianBlur9433" /><feOffset
         dx="0"
         dy="0"
         result="offset"
         id="feOffset9435" /><feComposite
         in="offset"
         in2="SourceGraphic"
         operator="atop"
         result="composite2"
         id="feComposite9437" /></filter></defs><sodipodi:namedview
     id="namedview10"
     pagecolor="#505050"
     bordercolor="#eeeeee"
     borderopacity="1"
     inkscape:pageshadow="0"
     inkscape:pageopacity="0"
     inkscape:pagecheckerboard="0"
     showgrid="false"
     inkscape:zoom="2.4831602"
     inkscape:cx="219.67975"
     inkscape:cy="258.94423"
     inkscape:window-width="2560"
     inkscape:window-height="1351"
     inkscape:window-x="2391"
     inkscape:window-y="222"
     inkscape:window-maximized="1"
     inkscape:current-layer="svg8"
     inkscape:showpageshadow="2"
     inkscape:deskcolor="#505050"
     showguides="true" /><path
     d="M0 0h512v512H0z"
     fill="#b90202"
     fill-opacity="1"
     id="path2"
     style="fill:#1b1f21;fill-opacity:0" /><style
     type="text/css"
     id="style35976">
	.st0{fill:#000000;}
</style><path
     d="m 381.69383,248.34862 h 45.7069 v -30.47123 c 0,0 -38.089,-30.47124 -45.7069,-76.17808 -5.18007,-31.00428 0,-91.413701 0,-91.413701 -0.012,-4.037449 -1.62039,-7.905054 -4.4756,-10.760007 -2.85521,-2.854953 -6.72268,-4.464236 -10.75995,-4.475616 h -22.7771 l -6.78,81.435394 c -0.56658,6.61469 -3.27728,12.86455 -7.71784,17.80007 -7.96138,7.61016 -11.67862,11.22833 -19.95172,12.78219 -1.8278,0.32755 -12.69165,35.42148 -12.69165,35.42148 0,0 -18.91934,-26.18856 -21.89787,-28.91023 -5.25351,-4.80045 -3.24851,-3.41884 -11.15992,-3.32545 -17.62737,-0.20791 -38.87162,-2.97957 -56.16182,-6.42031 -6.51796,-1.26013 -12.4473,-4.61334 -16.8875,-9.54765 -4.44068,-4.93552 -7.15138,-11.18538 -7.71784,-17.80007 l -6.78,-81.435394 h -22.77698 c -4.03751,0.01084 -7.9051,1.620374 -10.76007,4.475616 -2.85496,2.85523 -4.46428,6.722763 -4.4756,10.760007 0,0 10.64618,79.518241 -0.0951,111.817761 -2.40327,6.47253 23.99793,61.51579 23.99793,61.51579 0,0 -44.96578,-24.3649 -51.42519,-22.12662 -12.69868,4.40027 -13.38174,5.81816 -25.802307,16.38485 v 30.47123 H 130.3046 V 438.79384 H 84.597703 v 22.85342 c 57.757157,10.85387 116.444817,15.95759 175.209557,15.23563 24.98708,-5.29364 37.12972,-14.29209 75.18135,-37.99779 0,0 19.39144,30.19312 22.1903,29.93932 28.03128,-2.54192 42.54324,-1.86656 70.22013,-7.17716 v -22.85342 h -45.70677 z m -173.83539,-50.22711 148.06188,-2.81278 -32.37987,49.99188 -143.04199,-1.43743 z m 122.3198,223.2218 -161.4783,2.21492 c -2.72151,0.0373 -5.23582,-1.45215 -6.59719,-3.80891 -1.36017,-2.35677 -1.36017,-5.26096 0,-7.6178 1.36161,-2.35677 3.87709,-3.90044 6.59719,-3.80891 l 150.27072,5.0566 c 9.38709,0.42013 14.0033,1.92033 11.20758,7.9641 z m 20.7397,-35.87413 h -182.218 c -2.72177,0 -5.23582,-1.45213 -6.59719,-3.8089 -1.36017,-2.35676 -1.36017,-5.26096 0,-7.61781 1.36161,-2.35676 3.87554,-3.80891 6.59719,-3.80891 h 182.218 c 2.72178,0 5.23571,1.45215 6.5972,3.80891 1.36017,2.35677 1.36017,5.26096 0,7.61781 -1.36173,2.35677 -3.87554,3.8089 -6.5972,3.8089 z m 0,-38.08904 h -182.218 c 0,0 -4.73489,-1.69474 -3.37549,-4.9833 1.3594,-3.28856 9.96954,-2.37853 15.05163,-2.91763 58.72854,-6.22989 175.77757,-5.88255 177.13906,-3.52578 1.36017,2.35676 1.36017,5.26096 0,7.61781 -1.36173,2.35676 -3.87554,3.8089 -6.5972,3.8089 z m 0,-38.08905 h -182.218 c -2.72177,0 -5.23582,-1.45213 -6.59719,-3.8089 -1.36017,-2.35677 -1.36017,-5.26096 0,-7.61781 1.36161,-2.35677 3.87554,-3.8089 6.59719,-3.8089 18.67589,1.75458 187.96092,12.56575 187.96092,12.56575 0,0 -3.02126,2.66986 -5.74292,2.66986 z M 197.95238,115.18933 191.2486,35.049986 c 21.91536,8.633511 45.04867,13.773808 68.56034,15.235623 23.51035,-1.461694 46.64535,-6.602112 68.56022,-15.235623 l -6.70365,80.139344 c -0.25072,3.30422 -1.57909,6.43553 -3.78029,8.91304 -2.20131,2.47739 -5.15622,4.16278 -8.4081,4.79902 -16.36704,3.21378 -29.31565,5.88401 -45.99398,6.11559 -16.67832,-0.2317 -36.97509,-2.90181 -53.34225,-6.11559 -3.25176,-0.63641 -6.20679,-2.32183 -8.40799,-4.79902 -2.20119,-2.47739 -3.52956,-5.60874 -3.78028,-8.91304 z m 238.43236,151.93684 8.21705,64.83955 -47.67228,0.17881 v -68.56028 z m -39.45523,87.87178 47.67228,-0.17881 v 68.56028 l -47.67228,0.17881 z m -281.8589,-22.85342 -42.518065,-1.24027 -4.133273,-67.9334 46.651338,0.61339 z m 0,91.4137 -49.38062,-0.6063 11.007369,-70.11214 38.373251,2.15816 z"
     id="path8883"
     style="fill:#ff0ec0;fill-opacity:1;stroke-width:0.406282;filter:url(#filter9439)"
     sodipodi:nodetypes="cccccsccccccsccccccscccsccccccccsccccccccccsccsccssccssccssccaccsssccccscccccccccccccccccccccccccccccccc" /></svg>
