<?xml version="1.0" encoding="UTF-8" standalone="no"?>
<!-- Uploaded to: SVG Repo, www.svgrepo.com; https://www.svgrepo.com/svg/431315/terminal-box -->

<svg
   width="600"
   height="600"
   viewBox="0 0 18 18"
   version="1.1"
   id="svg1"
   xmlns="http://www.w3.org/2000/svg"
   xmlns:svg="http://www.w3.org/2000/svg">
  <defs
     id="defs1" />
  <title
     id="title1">terminal_box_line</title>
  <g
     id="terminal-1"
     stroke="none"
     stroke-width="1"
     fill="none"
     fill-rule="evenodd"
     transform="translate(-3,-3)">
    <g
       id="Development"
       transform="translate(-912)"
       fill-rule="nonzero">
      <g
         id="terminal_box_line"
         transform="translate(912)">
        <path
           d="m 19,3 c 1.1046,0 2,0.89543 2,2 v 14 c 0,1.1046 -0.8954,2 -2,2 H 5 C 3.89543,21 3,20.1046 3,19 V 5 C 3,3.89543 3.89543,3 5,3 Z m 0,2 H 5 v 14 h 14 z m -2.9999,9.0001 c 0.5523,0 1,0.4477 1,1 0,0.51285 -0.386027,0.935509 -0.883376,0.993273 L 16.0001,16.0001 h -2 c -0.5523,0 -1,-0.4477 -1,-1 0,-0.51285 0.386027,-0.935509 0.883376,-0.993272 L 14.0001,14.0001 Z M 9.05037,8.46459 11.8788,11.293 c 0.3905,0.3905 0.3905,1.0237 0,1.4142 l -2.82843,2.8285 c -0.39052,0.3905 -1.02369,0.3905 -1.41421,0 -0.39053,-0.3906 -0.39053,-1.0237 0,-1.4143 L 9.75748,12.0001 7.63616,9.8788 c -0.39053,-0.39052 -0.39053,-1.02369 0,-1.41421 0.39052,-0.39053 1.02369,-0.39053 1.41421,0 z"
           id="terminal"
           fill="rgb(150, 5, 112)"
           style="display:inline;fill:rgb(150, 5, 112);fill-opacity:1" />
      </g>
    </g>
  </g>
</svg>
