<?xml version="1.0" encoding="UTF-8" standalone="no"?>
<svg
   width="512" height="512"
   viewBox="0 0 512 512"
   version="1.1"
   id="svg8"
   sodipodi:docname="bayonet.svg"
   inkscape:version="1.1.1 (3bf5ae0d25, 2021-09-20)"
   xmlns:inkscape="http://www.inkscape.org/namespaces/inkscape"
   xmlns:sodipodi="http://sodipodi.sourceforge.net/DTD/sodipodi-0.dtd"
   xmlns="http://www.w3.org/2000/svg"
   xmlns:svg="http://www.w3.org/2000/svg">
  <defs
     id="defs12">
    <filter
       style="color-interpolation-filters:sRGB;"
       inkscape:label="Drop Shadow"
       id="filter869"
       x="-0.16942453"
       y="-0.16615904"
       width="1.329932"
       height="1.3235729">
      <feFlood
         flood-opacity="1"
         flood-color="rgb(58,63,94)"
         result="flood"
         id="feFlood859" />
      <feComposite
         in="flood"
         in2="SourceGraphic"
         operator="out"
         result="composite1"
         id="feComposite861" />
      <feGaussianBlur
         in="composite1"
         stdDeviation="15"
         result="blur"
         id="feGaussianBlur863" />
      <feOffset
         dx="0"
         dy="0"
         result="offset"
         id="feOffset865" />
      <feComposite
         in="offset"
         in2="SourceGraphic"
         operator="atop"
         result="composite2"
         id="feComposite867" />
    </filter>
    <filter
       style="color-interpolation-filters:sRGB;"
       inkscape:label="Drop Shadow"
       id="filter1017"
       x="-0.055040148"
       y="-0.053979304"
       width="1.1100803"
       height="1.1079586">
      <feFlood
         flood-opacity="1"
         flood-color="rgb(58,63,94)"
         result="flood"
         id="feFlood1007" />
      <feComposite
         in="flood"
         in2="SourceGraphic"
         operator="out"
         result="composite1"
         id="feComposite1009" />
      <feGaussianBlur
         in="composite1"
         stdDeviation="10.2874"
         result="blur"
         id="feGaussianBlur1011" />
      <feOffset
         dx="0"
         dy="0"
         result="offset"
         id="feOffset1013" />
      <feComposite
         in="offset"
         in2="SourceGraphic"
         operator="atop"
         result="composite2"
         id="feComposite1015" />
    </filter>
  </defs>
  <sodipodi:namedview
     id="namedview10"
     pagecolor="#505050"
     bordercolor="#eeeeee"
     borderopacity="1"
     inkscape:pageshadow="0"
     inkscape:pageopacity="0"
     inkscape:pagecheckerboard="0"
     showgrid="false"
     inkscape:zoom="1.7050781"
     inkscape:cx="256"
     inkscape:cy="256"
     inkscape:window-width="1716"
     inkscape:window-height="1414"
     inkscape:window-x="3160"
     inkscape:window-y="587"
     inkscape:window-maximized="1"
     inkscape:current-layer="svg8" />
  <path
     d="M0 0h512v512H0z"
     fill="#b90202"
     fill-opacity="1"
     id="path2"
     style="fill:#1b1f21;fill-opacity:0" />
  <g
     class=""
     transform="matrix(0,1,1,0,8.0138389e-4,-7.9859129e-4)"
     id="g6"
     style="fill:#ff0ec0;fill-opacity:1;filter:url(#filter1017)">
    <path
       d="m 238.219,131.963 -0.24,0.19 -6.41,-8 a 14.89,14.89 0 0 1 2.27,-20.94 l 1.51,-1.21 a 14.89,14.89 0 0 1 20.94,2.3 l 6.41,8 z m -7.18,40.88 18.76,23.32 11.85,-9.53 -18.76,-23.33 z m 72.91,40.85 176.34,-141.83 v -44.56 h -86.42 l -145.58,117.13 z m 142.81,-4 c -2,1.64 -3.7,2.31 -5.16,2.31 -4.79,0 -7.29,-7.26 -13.09,-11.09 a 10.74,10.74 0 0 0 -6,-1.74 c -3.71,0 -7.59,1.59 -10.91,3.69 -3.32,2.1 -28.75,33.49 -41.36,43.63 -11.87,9.55 -38.27,21.46 -53.46,36.38 l -27.16,-33.76 113.22,-91.06 a 22.73,22.73 0 0 1 14.19,-5 19.46,19.46 0 0 1 16.37,8.29 c 7.04,10.4 23.13,40.51 13.36,48.37 z m -113.62,31.89 a 7.26,7.26 0 1 0 -1.11,10.21 7.26,7.26 0 0 0 1.11,-10.21 z m 82.3,-66.19 a 7.26,7.26 0 1 0 -1.15,10.2 7.26,7.26 0 0 0 1.15,-10.21 z m -164.48,95.37 36.33,45.17 -144,115.84 c -11.65,9.37 -106.88,58.17 -111.47,52.46 -3,-3.67 57.76,-83.64 75.14,-97.63 z m -64.14,80.76 c -38.85,31.24 -68.65,58.67 -66.56,61.27 2.09,2.6 35.27,-20.63 74.11,-51.87 38.84,-31.24 68.65,-58.67 66.56,-61.27 -2.09,-2.6 -35.26,20.65 -74.11,51.87 z m 40.65,-135.5 102,126.77 9.09,-7.31 -102,-126.77 z m -16.43,27.36 18.75,23.32 10.87,-8.74 -18.76,-23.32 z m 77.25,-23.69 -18.8,-23.32 -13.55,10.93 18.76,23.32 z"
       fill="#ffffff"
       fill-opacity="1"
       stroke="#ffffff"
       stroke-opacity="1"
       stroke-width="0"
       id="path4"
       style="fill:#ff0ec0;fill-opacity:1" />
  </g>
</svg>
