<?xml version="1.0" encoding="UTF-8" standalone="no"?>
<svg
   viewBox="0 0 512 512"
   style="height: 512px; width: 512px;"
   version="1.1"
   id="svg21"
   sodipodi:docname="combat_plow.svg"
   xml:space="preserve"
   inkscape:version="1.2.2 (b0a8486541, 2022-12-01)"
   xmlns:inkscape="http://www.inkscape.org/namespaces/inkscape"
   xmlns:sodipodi="http://sodipodi.sourceforge.net/DTD/sodipodi-0.dtd"
   xmlns="http://www.w3.org/2000/svg"
   xmlns:svg="http://www.w3.org/2000/svg"><sodipodi:namedview
     id="namedview23"
     pagecolor="#ffffff"
     bordercolor="#666666"
     borderopacity="1.0"
     inkscape:showpageshadow="2"
     inkscape:pageopacity="0.0"
     inkscape:pagecheckerboard="0"
     inkscape:deskcolor="#d1d1d1"
     showgrid="false"
     inkscape:zoom="0.921875"
     inkscape:cx="320.54237"
     inkscape:cy="201.76271"
     inkscape:window-width="1716"
     inkscape:window-height="1402"
     inkscape:window-x="3160"
     inkscape:window-y="684"
     inkscape:window-maximized="1"
     inkscape:current-layer="svg21" /><defs
     id="defs13"><filter
       id="shadow-1"
       height="1.1504303"
       width="1.1521184"
       x="-0.076059192"
       y="-0.075215146"><feFlood
         flood-color="rgba(58, 63, 94, 1)"
         result="flood"
         id="feFlood2" /><feComposite
         in="flood"
         in2="SourceGraphic"
         operator="out"
         result="composite"
         id="feComposite4" /><feGaussianBlur
         in="composite"
         stdDeviation="15"
         result="blur"
         id="feGaussianBlur6" /><feOffset
         dx="0"
         dy="0"
         result="offset"
         id="feOffset8" /><feComposite
         in2="SourceGraphic"
         in="offset"
         operator="atop"
         id="feComposite10" /></filter><filter
       style="color-interpolation-filters:sRGB;"
       inkscape:label="Drop Shadow"
       id="filter1210"
       x="-0.081074304"
       y="-0.15999861"
       width="1.1621486"
       height="1.3199972"><feFlood
         flood-opacity="1"
         flood-color="rgb(58,63,94)"
         result="flood"
         id="feFlood1200" /><feComposite
         in="flood"
         in2="SourceGraphic"
         operator="out"
         result="composite1"
         id="feComposite1202" /><feGaussianBlur
         in="composite1"
         stdDeviation="15"
         result="blur"
         id="feGaussianBlur1204" /><feOffset
         dx="0"
         dy="0"
         result="offset"
         id="feOffset1206" /><feComposite
         in="offset"
         in2="SourceGraphic"
         operator="atop"
         result="composite2"
         id="feComposite1208" /></filter></defs><path
     d="M0 0h512v512H0z"
     fill="#1b1f21"
     fill-opacity="0"
     id="path15"
     style="height:512px;width:512px" /><path
     id="path428"
     style="height:512px;width:512px;fill:#ff0ec0;stroke:none;stroke-width:1px;stroke-linecap:butt;stroke-linejoin:miter;stroke-opacity:1;fill-opacity:1;filter:url(#filter1210)"
     d="M 49.787109 160.57422 L 47.753906 335.79102 L 34.466797 346.20508 L 34.744141 367.01367 L 343.17969 385.57617 L 452.9082 346.14453 L 452.77148 322.22461 L 443.99219 319.98047 C 429.65317 245.21165 446.02938 203.49982 478.50391 179.11328 L 467.8418 165.54883 L 362.17188 208.57227 L 344.96094 227.21484 L 324.61914 209.83789 L 49.787109 160.57422 z M 55.140625 164.08008 L 323.35156 211.59766 L 323.00586 223.01953 L 54.832031 174.10352 L 55.140625 164.08008 z M 467.53125 168.06055 L 476.01758 178.56836 L 377.71484 220.77344 L 368.23633 210.76953 L 467.53125 168.06055 z M 51.560547 208.96094 L 62.583984 256.92188 L 301.36523 291.01562 L 54.113281 268.5918 L 51.560547 208.96094 z M 441.39844 224.375 C 438.2655 238.58156 434.59613 252.61056 434.79492 267.91602 C 434.79492 267.91602 352.62643 290.5084 350.95117 290.81055 L 428.66211 262.37891 C 430.26921 247.66467 436.25405 236.34525 441.39844 224.375 z M 441.23047 322.00977 L 449.23633 324.23633 L 340.78711 363.46875 L 40.607422 347.81055 L 54.873047 335.80078 L 338.90234 354.14648 L 441.23047 322.00977 z " /></svg>
