<?xml version="1.0" encoding="UTF-8" standalone="no"?>
<svg
   viewBox="0 0 512 512"
   style="height: 512px; width: 512px;"
   version="1.1"
   id="svg21"
   sodipodi:docname="enhanced_interface_plug_integration.svg"
   xml:space="preserve"
   inkscape:version="1.2.2 (b0a8486541, 2022-12-01)"
   xmlns:inkscape="http://www.inkscape.org/namespaces/inkscape"
   xmlns:sodipodi="http://sodipodi.sourceforge.net/DTD/sodipodi-0.dtd"
   xmlns="http://www.w3.org/2000/svg"
   xmlns:svg="http://www.w3.org/2000/svg"><sodipodi:namedview
     id="namedview23"
     pagecolor="#ffffff"
     bordercolor="#666666"
     borderopacity="1.0"
     inkscape:showpageshadow="2"
     inkscape:pageopacity="0.0"
     inkscape:pagecheckerboard="0"
     inkscape:deskcolor="#d1d1d1"
     showgrid="false"
     inkscape:zoom="0.921875"
     inkscape:cx="317.83051"
     inkscape:cy="201.76271"
     inkscape:window-width="1716"
     inkscape:window-height="1402"
     inkscape:window-x="3160"
     inkscape:window-y="684"
     inkscape:window-maximized="1"
     inkscape:current-layer="g1282" /><defs
     id="defs13"><filter
       id="shadow-1"
       height="1.1504303"
       width="1.1521184"
       x="-0.076059192"
       y="-0.075215146"><feFlood
         flood-color="rgba(58, 63, 94, 1)"
         result="flood"
         id="feFlood2" /><feComposite
         in="flood"
         in2="SourceGraphic"
         operator="out"
         result="composite"
         id="feComposite4" /><feGaussianBlur
         in="composite"
         stdDeviation="15"
         result="blur"
         id="feGaussianBlur6" /><feOffset
         dx="0"
         dy="0"
         result="offset"
         id="feOffset8" /><feComposite
         in2="SourceGraphic"
         in="offset"
         operator="atop"
         id="feComposite10" /></filter><filter
       style="color-interpolation-filters:sRGB;"
       inkscape:label="Drop Shadow"
       id="filter1210"
       x="-0.081074304"
       y="-0.15999861"
       width="1.1621486"
       height="1.3199972"><feFlood
         flood-opacity="1"
         flood-color="rgb(58,63,94)"
         result="flood"
         id="feFlood1200" /><feComposite
         in="flood"
         in2="SourceGraphic"
         operator="out"
         result="composite1"
         id="feComposite1202" /><feGaussianBlur
         in="composite1"
         stdDeviation="15"
         result="blur"
         id="feGaussianBlur1204" /><feOffset
         dx="0"
         dy="0"
         result="offset"
         id="feOffset1206" /><feComposite
         in="offset"
         in2="SourceGraphic"
         operator="atop"
         result="composite2"
         id="feComposite1208" /></filter><filter
       style="color-interpolation-filters:sRGB;"
       inkscape:label="Drop Shadow"
       id="filter1557"
       x="-0.50234014"
       y="-0.52168795"
       width="2.0046803"
       height="2.0433759"><feFlood
         flood-opacity="1"
         flood-color="rgb(58,63,94)"
         result="flood"
         id="feFlood1547" /><feComposite
         in="flood"
         in2="SourceGraphic"
         operator="out"
         result="composite1"
         id="feComposite1549" /><feGaussianBlur
         in="composite1"
         stdDeviation="3.5955"
         result="blur"
         id="feGaussianBlur1551" /><feOffset
         dx="0"
         dy="0"
         result="offset"
         id="feOffset1553" /><feComposite
         in="offset"
         in2="SourceGraphic"
         operator="atop"
         result="composite2"
         id="feComposite1555" /></filter><filter
       style="color-interpolation-filters:sRGB;"
       inkscape:label="Drop Shadow"
       id="filter1771"
       x="-0.16498831"
       y="-0.12649076"
       width="1.3299766"
       height="1.2529815"><feFlood
         flood-opacity="1"
         flood-color="rgb(58,63,94)"
         result="flood"
         id="feFlood1761" /><feComposite
         in="flood"
         in2="SourceGraphic"
         operator="out"
         result="composite1"
         id="feComposite1763" /><feGaussianBlur
         in="composite1"
         stdDeviation="26.9848"
         result="blur"
         id="feGaussianBlur1765" /><feOffset
         dx="0"
         dy="0"
         result="offset"
         id="feOffset1767" /><feComposite
         in="offset"
         in2="SourceGraphic"
         operator="atop"
         result="composite2"
         id="feComposite1769" /></filter></defs><path
     d="M0 0h512v512H0z"
     fill="#1b1f21"
     fill-opacity="0"
     id="path15"
     style="height:512px;width:512px" /><g
     style="fill:#000000"
     id="g1282"
     transform="matrix(25,0,0,25,-66.945127,-198.23729)"><g
       style="fill:#ff0ec0;fill-opacity:1;filter:url(#filter1771)"
       id="g1723"
       transform="matrix(0.03098389,0,0,0.03098389,4.9859292,10.237585)"><g
         id="g1709"
         style="fill:#ff0ec0;fill-opacity:1">
	<g
   id="g1707"
   style="fill:#ff0ec0;fill-opacity:1">
		<g
   id="g1705"
   style="fill:#ff0ec0;fill-opacity:1">
			<rect
   x="230.39999"
   y="341.33701"
   width="51.200001"
   height="17.066999"
   id="rect1697"
   style="fill:#ff0ec0;fill-opacity:1" />
			<path
   d="m 435.2,256.001 h -8.533 v -59.733 c 4.71,0 8.533,-3.814 8.533,-8.533 0,-4.719 -3.823,-8.533 -8.533,-8.533 v -8.533 c 0,-9.412 -7.654,-17.067 -17.067,-17.067 h -34.133 v 59.733 c 0,4.719 -3.823,8.533 -8.533,8.533 -4.71,0 -8.533,-3.814 -8.533,-8.533 v -59.733 h -17.067 v 59.733 c 0,4.719 -3.823,8.533 -8.533,8.533 -4.71,0 -8.533,-3.814 -8.533,-8.533 V 153.602 H 187.734 v 59.733 c 0,4.719 -3.823,8.533 -8.533,8.533 -4.71,0 -8.533,-3.814 -8.533,-8.533 V 153.602 H 153.6 v 59.733 c 0,4.719 -3.823,8.533 -8.533,8.533 -4.71,0 -8.533,-3.814 -8.533,-8.533 V 153.602 H 102.4 c -9.412,0 -17.067,7.654 -17.067,17.067 v 8.533 c -4.71,0 -8.533,3.814 -8.533,8.533 0,4.719 3.823,8.533 8.533,8.533 v 59.733 H 76.8 c -9.412,0 -17.067,7.654 -17.067,17.067 v 170.667 c 0,9.404 7.654,17.067 17.067,17.067 h 136.533 v 34.133 c 0,9.404 7.654,17.067 17.067,17.067 h 51.2 c 9.412,0 17.067,-7.663 17.067,-17.067 V 460.802 H 435.2 c 9.412,0 17.067,-7.663 17.067,-17.067 V 273.068 c 0,-9.413 -7.654,-17.067 -17.067,-17.067 z M 230.4,494.934 v -34.133 h 51.2 l 0.009,34.133 z m 68.267,-135.842 c 0,9.028 -7.347,16.375 -16.375,16.375 H 229.71 c -9.028,0 -16.375,-7.347 -16.375,-16.375 v -18.449 c 0,-9.028 7.347,-16.375 16.375,-16.375 h 52.582 c 9.028,0 16.375,7.347 16.375,16.375 z"
   id="path1699"
   style="fill:#ff0ec0;fill-opacity:1" />
			<path
   d="M 384,51.2 H 128 c -4.702,0 -8.533,3.823 -8.533,8.533 0,4.71 3.831,8.533 8.533,8.533 h 256 c 4.702,0 8.533,-3.823 8.533,-8.533 C 392.534,55.023 388.702,51.2 384,51.2 Z"
   id="path1701"
   style="fill:#ff0ec0;fill-opacity:1" />
			<path
   d="M 426.667,0 H 85.334 c -14.114,0 -25.6,11.486 -25.6,25.6 v 68.267 c 0,14.114 11.486,25.6 25.6,25.6 h 341.333 c 14.114,0 25.6,-11.486 25.6,-25.6 V 25.6 C 452.267,11.486 440.781,0 426.667,0 Z M 384,85.333 H 128 c -14.114,0 -25.6,-11.486 -25.6,-25.6 0,-14.114 11.486,-25.6 25.6,-25.6 h 256 c 14.114,0 25.6,11.486 25.6,25.6 0,14.114 -11.485,25.6 -25.6,25.6 z"
   id="path1703"
   style="fill:#ff0ec0;fill-opacity:1" />
		</g>
	</g>
</g></g></g><g
     style="fill:#000000"
     id="g1333"
     transform="matrix(0.28106743,-0.16670326,0,0.28106743,257.95102,101.721)" /></svg>
