<?xml version="1.0" encoding="UTF-8" standalone="no"?>
<svg
   viewBox="0 0 512 512"
   style="height: 512px; width: 512px;"
   version="1.1"
   id="svg3120"
   sodipodi:docname="housing_capacity.svg"
   xml:space="preserve"
   inkscape:version="1.2.2 (b0a8486541, 2022-12-01)"
   xmlns:inkscape="http://www.inkscape.org/namespaces/inkscape"
   xmlns:sodipodi="http://sodipodi.sourceforge.net/DTD/sodipodi-0.dtd"
   xmlns="http://www.w3.org/2000/svg"
   xmlns:svg="http://www.w3.org/2000/svg"><sodipodi:namedview
     id="namedview3122"
     pagecolor="#ffffff"
     bordercolor="#666666"
     borderopacity="1.0"
     inkscape:showpageshadow="2"
     inkscape:pageopacity="0.0"
     inkscape:pagecheckerboard="0"
     inkscape:deskcolor="#d1d1d1"
     showgrid="false"
     inkscape:zoom="0.4609375"
     inkscape:cx="135.59322"
     inkscape:cy="256"
     inkscape:window-width="1716"
     inkscape:window-height="1402"
     inkscape:window-x="3160"
     inkscape:window-y="684"
     inkscape:window-maximized="1"
     inkscape:current-layer="svg3120" /><defs
     id="defs3112"><filter
       id="shadow-1"
       height="1.2517483"
       width="1.1558442"
       x="-0.077922078"
       y="-0.12587413"><feFlood
         flood-color="rgba(58, 63, 94, 1)"
         result="flood"
         id="feFlood3101" /><feComposite
         in="flood"
         in2="SourceGraphic"
         operator="out"
         result="composite"
         id="feComposite3103" /><feGaussianBlur
         in="composite"
         stdDeviation="15"
         result="blur"
         id="feGaussianBlur3105" /><feOffset
         dx="0"
         dy="0"
         result="offset"
         id="feOffset3107" /><feComposite
         in2="SourceGraphic"
         in="offset"
         operator="atop"
         id="feComposite3109" /></filter><filter
       style="color-interpolation-filters:sRGB;"
       inkscape:label="Drop Shadow"
       id="filter3689"
       x="-0.060000001"
       y="-0.072633567"
       width="1.12"
       height="1.1452671"><feFlood
         flood-opacity="1"
         flood-color="rgb(58,63,94)"
         result="flood"
         id="feFlood3679" /><feComposite
         in="flood"
         in2="SourceGraphic"
         operator="out"
         result="composite1"
         id="feComposite3681" /><feGaussianBlur
         in="composite1"
         stdDeviation="0.8"
         result="blur"
         id="feGaussianBlur3683" /><feOffset
         dx="0"
         dy="0"
         result="offset"
         id="feOffset3685" /><feComposite
         in="offset"
         in2="SourceGraphic"
         operator="atop"
         result="composite2"
         id="feComposite3687" /></filter></defs><path
     d="M0 0h512v512H0z"
     fill="#1b1f21"
     fill-opacity="0"
     id="path3114" /><g
     style="fill:#ff0ec0;fill-opacity:1;filter:url(#filter3689)"
     id="g3314"
     transform="matrix(13.853189,0,0,13.853189,34.348976,72.897296)"><g
       id="bed"
       style="fill:#ff0ec0;fill-opacity:1">
	<g
   id="bed_1_"
   style="fill:#ff0ec0;fill-opacity:1">
		<path
   d="M 31.094,11.061 20.103,15.077 C 19.556,15.275 19,15.914 19,16.494 v 9.193 c 0,0.58 0.578,0.889 1.123,0.684 l 10.98,-4.102 C 31.648,22.064 32,21.424 32,20.844 v -9.092 c 0,-0.58 -0.359,-0.891 -0.906,-0.691 z"
   id="path3290"
   style="fill:#ff0ec0;fill-opacity:1" />
		<path
   d="M 10.971,3.588 3.536,6.316 C 3.018,6.505 2.919,6.976 3.312,7.361 l 2.786,2.725 C 6.494,10.471 7.231,10.611 7.74,10.4 L 15.29,7.254 C 15.798,7.043 15.87,6.578 15.448,6.223 L 12.677,3.889 C 12.256,3.533 11.488,3.398 10.971,3.588 Z"
   id="path3292"
   style="fill:#ff0ec0;fill-opacity:1" />
		<path
   d="M 16.223,7.816 C 16.068,7.96 15.89,8.087 15.674,8.176 L 8.123,11.323 C 7.845,11.439 7.537,11.498 7.209,11.498 7.19,11.498 7.174,11.493 7.156,11.493 6.488,11.488 5.834,11.226 5.397,10.8 L 3.458,8.953 C 3.458,8.953 2,9.312 2,10.598 v 2.512 c 0,0.549 0.655,1.211 1.143,1.467 L 18,22.307 v -5.813 c 0,-1.074 0.895,-2.043 1.76,-2.357 l 5.272,-1.926 z"
   id="path3294"
   style="fill:#ff0ec0;fill-opacity:1" />
		<path
   d="M 1,13.109 V 10.597 C 1,9.278 1.939,8.516 2.708,8.168 L 2.613,8.076 C 2.174,7.648 1.989,7.094 2.105,6.556 2.22,6.018 2.617,5.588 3.191,5.378 l 7.436,-2.729 c 0.266,-0.098 0.561,-0.147 0.875,-0.147 0.535,0 1.068,0.149 1.498,0.402 V 0.752 C 13,0.172 12.641,-0.139 12.094,0.061 L 1.103,4.076 C 0.556,4.275 0,4.914 0,5.494 v 9.193 c 0,0.58 0.578,0.889 1.123,0.684 L 2.055,15.023 C 1.521,14.563 1,13.871 1,13.109 Z"
   id="path3296"
   style="fill:#ff0ec0;fill-opacity:1" />
	</g>
</g><g
       id="Layer_1"
       style="fill:#ff0ec0;fill-opacity:1">
</g></g></svg>
