<?xml version="1.0" encoding="UTF-8" standalone="no"?>
<svg
   viewBox="0 0 512 512"
   style="height: 512px; width: 512px;"
   version="1.1"
   id="svg2110"
   sodipodi:docname="nos.svg"
   inkscape:version="1.2.2 (b0a8486541, 2022-12-01)"
   xmlns:inkscape="http://www.inkscape.org/namespaces/inkscape"
   xmlns:sodipodi="http://sodipodi.sourceforge.net/DTD/sodipodi-0.dtd"
   xmlns="http://www.w3.org/2000/svg"
   xmlns:svg="http://www.w3.org/2000/svg">
  <sodipodi:namedview
     id="namedview2112"
     pagecolor="#ffffff"
     bordercolor="#666666"
     borderopacity="1.0"
     inkscape:showpageshadow="2"
     inkscape:pageopacity="0.0"
     inkscape:pagecheckerboard="0"
     inkscape:deskcolor="#d1d1d1"
     showgrid="false"
     inkscape:zoom="0.4609375"
     inkscape:cx="161.62712"
     inkscape:cy="256"
     inkscape:window-width="1716"
     inkscape:window-height="1386"
     inkscape:window-x="1440"
     inkscape:window-y="702"
     inkscape:window-maximized="1"
     inkscape:current-layer="svg2110" />
  <defs
     id="defs2102">
    <filter
       id="shadow-1"
       height="1.1526315"
       width="1.2097888"
       x="-0.10489442"
       y="-0.076315738">
      <feFlood
         flood-color="rgba(58, 63, 94, 1)"
         result="flood"
         id="feFlood2091" />
      <feComposite
         in="flood"
         in2="SourceGraphic"
         operator="out"
         result="composite"
         id="feComposite2093" />
      <feGaussianBlur
         in="composite"
         stdDeviation="15"
         result="blur"
         id="feGaussianBlur2095" />
      <feOffset
         dx="0"
         dy="0"
         result="offset"
         id="feOffset2097" />
      <feComposite
         in2="SourceGraphic"
         in="offset"
         operator="atop"
         id="feComposite2099" />
    </filter>
  </defs>
  <path
     d="M0 0h512v512H0z"
     fill="#1b1f21"
     fill-opacity="0"
     id="path2104" />
  <g
     class=""
     transform="matrix(0.93826507,0.14796039,-0.14796039,0.93826507,61.496211,-21.067022)"
     id="g2108">
    <path
       d="m 336.438,20.375 c -0.93,-0.01 -1.855,0.01 -2.782,0.03 -23.67,0.532 -46.656,11.083 -62.437,29.907 l 143.06,82.594 C 427.945,95.379 413.154,52.316 377.374,31.656 364.449,24.193 350.367,20.528 336.436,20.376 Z m -88.72,37.97 -9.812,17 44.22,25.53 c 10.07,5.815 16.038,16.205 19.374,27 3.336,10.795 4.395,22.475 -1.375,32.47 l -47.063,81.53 c -5.4,9.354 -14.777,15.994 -25.53,19.313 -10.754,3.318 -23.383,3.12 -34.47,-3.282 l -45.437,-26.22 -68.438,118.534 168.875,97.53 23.094,-40 -45.906,-26.594 -8.063,-4.687 4.657,-8.064 114.876,-199.655 4.655,-8.125 8.125,4.72 46.125,26.718 20.938,-36.25 -168.844,-97.47 z m -74.343,1.03 -9.344,16.188 17.095,9.874 -52.906,91.72 -17.126,-9.876 -9.344,16.19 17.125,9.874 -0.063,0.125 83.594,48.25 c 5.86,3.38 12.94,3.655 19.625,1.593 6.686,-2.063 12.448,-6.63 14.845,-10.782 L 283.938,151 c 1.39,-2.408 2.03,-10.11 -0.282,-17.594 -2.313,-7.484 -7.217,-14.232 -10.875,-16.344 l -16.467,-9.5 0.125,-0.218 -83.063,-47.97 z m 45.375,54.094 c 4.968,0.015 10.01,1.284 14.656,3.968 14.163,8.176 18.958,26.024 10.78,40.187 -8.176,14.163 -26.02,18.928 -40.186,10.75 -14.163,-8.177 -18.958,-25.993 -10.78,-40.156 5.11,-8.853 14.003,-14.04 23.405,-14.69 0.705,-0.047 1.415,-0.064 2.125,-0.06 z m -52.156,51.624 c 2.72,0.05 5.505,0.8 8.125,2.312 7.982,4.61 10.583,14.204 6.28,21.656 -4.303,7.454 -13.92,10.017 -21.906,5.407 -7.984,-4.61 -10.553,-14.205 -6.25,-21.657 2.69,-4.658 7.452,-7.41 12.594,-7.688 0.385,-0.02 0.767,-0.038 1.156,-0.03 z m 181.656,21.094 -105.563,183.438 41.125,23.844 105.563,-183.44 -41.125,-23.843 z m -137.313,4.5 c 2.727,0.05 5.537,0.8 8.157,2.312 7.983,4.61 10.553,14.204 6.25,21.656 -4.303,7.453 -13.89,10.017 -21.875,5.406 -7.976,-4.604 -10.565,-14.175 -6.282,-21.625 v -0.03 c 2.69,-4.66 7.45,-7.41 12.593,-7.688 0.387,-0.022 0.768,-0.04 1.157,-0.032 z M 83.313,374.217 c -17.224,38.714 -2.76,84.968 34.75,106.626 37.522,21.664 84.817,11.05 109.72,-23.25 L 83.31,374.22 Z"
       fill="#ff0ec0"
       fill-opacity="1"
       filter="url(#shadow-1)"
       id="path2106" />
  </g>
</svg>
