<?xml version="1.0" encoding="UTF-8" standalone="no"?>
<svg
   viewBox="0 0 512 512"
   style="height: 512px; width: 512px;"
   version="1.1"
   id="svg21"
   sodipodi:docname="seating_upgrade.svg"
   inkscape:version="1.2.2 (b0a8486541, 2022-12-01)"
   xmlns:inkscape="http://www.inkscape.org/namespaces/inkscape"
   xmlns:sodipodi="http://sodipodi.sourceforge.net/DTD/sodipodi-0.dtd"
   xmlns="http://www.w3.org/2000/svg"
   xmlns:svg="http://www.w3.org/2000/svg">
  <sodipodi:namedview
     id="namedview23"
     pagecolor="#ffffff"
     bordercolor="#000000"
     borderopacity="0.25"
     inkscape:showpageshadow="2"
     inkscape:pageopacity="0.0"
     inkscape:pagecheckerboard="0"
     inkscape:deskcolor="#d1d1d1"
     showgrid="false"
     inkscape:zoom="2.0058594"
     inkscape:cx="234.5628"
     inkscape:cy="256.24927"
     inkscape:window-width="1716"
     inkscape:window-height="1402"
     inkscape:window-x="3160"
     inkscape:window-y="684"
     inkscape:window-maximized="1"
     inkscape:current-layer="svg21" />
  <defs
     id="defs13">
    <filter
       id="shadow-1"
       height="1.1536426"
       width="1.1836397"
       x="-0.091819868"
       y="-0.076821308">
      <feFlood
         flood-color="rgba(58, 63, 94, 1)"
         result="flood"
         id="feFlood2" />
      <feComposite
         in="flood"
         in2="SourceGraphic"
         operator="out"
         result="composite"
         id="feComposite4" />
      <feGaussianBlur
         in="composite"
         stdDeviation="15"
         result="blur"
         id="feGaussianBlur6" />
      <feOffset
         dx="0"
         dy="0"
         result="offset"
         id="feOffset8" />
      <feComposite
         in2="SourceGraphic"
         in="offset"
         operator="atop"
         id="feComposite10" />
    </filter>
  </defs>
  <path
     d="M0 0h512v512H0z"
     fill="#1b1f21"
     fill-opacity="0"
     id="path15" />
  <g
     class=""
     transform="matrix(0.92184471,0,0,0.92184471,53.194168,23.059051)"
     id="g19">
    <path
       d="m 72.034037,18.38001 -0.01,0.01 c -6.580004,-0.1 -14.250008,0.79 -21.520012,2.409999 -8.310005,1.84 -16.18001,4.69 -21.300013,7.56 -2.570001,1.44 -4.420002,2.9 -5.240003,3.8 l 25.860015,90.540001 c 7.220004,-9.1 15.410009,-16.6 23.750014,-22.2 9.690005,-6.440004 19.190011,-10.670003 27.890012,-12.470003 0,-13.14 -0.3,-25.919999 -1.799997,-36.759999 C 97.764052,38.220009 94.06405,28.240009 88.164046,22.360009 c -1.300001,-1.35 -6.280003,-3.439999 -13.390007,-3.879999 -0.890001,0 -1.810002,-0.1 -2.740002,-0.1 z m 29.030013,92.12 c -6.7,0.4 -14.200005,3.5 -21.100009,8.7 C 66.284034,129.50001 55.924028,147.9 55.624028,159.4 l 45.740022,240.29999 c 7.60001,-9.5 19.20001,-15.7 32.20002,-15.7 11.50001,0 22.00001,4.9 29.50002,12.7 5.1,-1.1 10.50001,-2.2 16.40001,-3.3 1.5,-0.3 3.1,-0.5 4.7,-0.8 C 170.66409,300.1 148.86408,193 118.96406,117.30001 c -5.2,-4.8 -10.3,-6.7 -15.60001,-6.8 z m 244.30014,284.79998 c -21.50001,0.1 -46.30002,1.4 -71.00004,3.7 -33.00002,2.9 -66.00004,7.4 -91.60005,12.1 -3.5,0.6 -6.8,1.3 -10.00001,1.9 1.20001,3.8 1.80001,7.8 1.80001,12 0,22.5 -18.50001,41 -41.00003,41 -5.6,0 -11,-1.2 -15.90001,-3.2 -3.1,8.9 -5.4,17.6 -6.7,24.2 h 287.60016 c 5.00001,0 7.70001,-1.8 10.70001,-6.4 3.1,-4.7 5.4,-12.4 6.3,-21.5 1.9,-18.1 -2.1,-41.2 -9.1,-55.1 0.3,0.5 -2.8,-2.5 -10.20001,-4.4 -7.4,-1.9 -18.10001,-3.3 -30.70002,-3.9 -6.3,-0.3 -13.1,-0.4 -20.20001,-0.4 z m -211.80012,6.7 c -12.80001,0 -23.00001,10.2 -23.00001,23 0,12.8 10.2,23 23.00001,23 12.80001,0 23.00002,-10.2 23.00002,-23 0,-12.8 -10.20001,-23 -23.00002,-23 z"
       fill="#ff0ec0"
       fill-opacity="1"
       filter="url(#shadow-1)"
       id="path17"
       sodipodi:nodetypes="ccccccccccccccccsccccccccccssccscccsscsssss" />
  </g>
</svg>
