<?xml version="1.0" encoding="UTF-8" standalone="no"?>
<svg
   viewBox="0 0 512 512"
   style="height: 512px; width: 512px;"
   version="1.1"
   id="svg21"
   sodipodi:docname="security_upgrade.svg"
   inkscape:version="1.2.2 (b0a8486541, 2022-12-01)"
   xml:space="preserve"
   xmlns:inkscape="http://www.inkscape.org/namespaces/inkscape"
   xmlns:sodipodi="http://sodipodi.sourceforge.net/DTD/sodipodi-0.dtd"
   xmlns="http://www.w3.org/2000/svg"
   xmlns:svg="http://www.w3.org/2000/svg"><sodipodi:namedview
     id="namedview23"
     pagecolor="#ffffff"
     bordercolor="#000000"
     borderopacity="0.25"
     inkscape:showpageshadow="2"
     inkscape:pageopacity="0.0"
     inkscape:pagecheckerboard="0"
     inkscape:deskcolor="#d1d1d1"
     showgrid="false"
     inkscape:zoom="0.70917839"
     inkscape:cx="413.8592"
     inkscape:cy="280.60641"
     inkscape:window-width="1716"
     inkscape:window-height="1402"
     inkscape:window-x="3160"
     inkscape:window-y="684"
     inkscape:window-maximized="1"
     inkscape:current-layer="svg21" /><defs
     id="defs13"><filter
       id="shadow-1"
       height="1.1536426"
       width="1.1836397"
       x="-0.091819868"
       y="-0.076821308"><feFlood
         flood-color="rgba(58, 63, 94, 1)"
         result="flood"
         id="feFlood2" /><feComposite
         in="flood"
         in2="SourceGraphic"
         operator="out"
         result="composite"
         id="feComposite4" /><feGaussianBlur
         in="composite"
         stdDeviation="15"
         result="blur"
         id="feGaussianBlur6" /><feOffset
         dx="0"
         dy="0"
         result="offset"
         id="feOffset8" /><feComposite
         in2="SourceGraphic"
         in="offset"
         operator="atop"
         id="feComposite10" /></filter><filter
       style="color-interpolation-filters:sRGB;"
       inkscape:label="Drop Shadow"
       id="filter1251"
       x="-0.060000001"
       y="-0.060000001"
       width="1.12"
       height="1.12"><feFlood
         flood-opacity="1"
         flood-color="rgb(58,63,94)"
         result="flood"
         id="feFlood1241" /><feComposite
         in="flood"
         in2="SourceGraphic"
         operator="out"
         result="composite1"
         id="feComposite1243" /><feGaussianBlur
         in="composite1"
         stdDeviation="0.8"
         result="blur"
         id="feGaussianBlur1245" /><feOffset
         dx="0"
         dy="0"
         result="offset"
         id="feOffset1247" /><feComposite
         in="offset"
         in2="SourceGraphic"
         operator="atop"
         result="composite2"
         id="feComposite1249" /></filter></defs><path
     d="M0 0h512v512H0z"
     fill="#1b1f21"
     fill-opacity="0"
     id="path15" /><g
     class=""
     transform="matrix(0.92184471,0,0,0.92184471,53.194168,23.059051)"
     id="g19" /><g
     style="fill:#ff0ec0;fill-opacity:1;filter:url(#filter1251)"
     id="g685"
     transform="matrix(13.788816,0,0,13.788816,35.378944,35.378944)"><path
       d="M 16,0 C 7.2,0 0,7.2 0,16 0,24.8 7.2,32 16,32 24.8,32 32,24.8 32,16 32,7.2 24.8,0 16,0 Z m 0,28 C 9.4,28 4,22.6 4,16 4,9.4 9.4,4 16,4 c 6.6,0 12,5.4 12,12 0,6.6 -5.4,12 -12,12 z"
       id="path674"
       style="fill:#ff0ec0;fill-opacity:1" /><path
       d="M 16,6 C 10.5,6 6,10.5 6,16 6,21.5 10.5,26 16,26 21.5,26 26,21.5 26,16 26,10.5 21.5,6 16,6 Z m 6.3,6.9 1,-0.3 c 0.5,-0.2 1.1,0.1 1.3,0.6 0.2,0.5 -0.1,1.1 -0.6,1.3 l -1,0.3 c -0.1,0 -0.2,0 -0.3,0 -0.4,0 -0.8,-0.3 -1,-0.7 -0.2,-0.5 0.1,-1 0.6,-1.2 z m -3,-3.2 0.6,-0.8 c 0.3,-0.4 0.9,-0.5 1.4,-0.2 0.4,0.3 0.5,1 0.2,1.4 l -0.6,0.8 c -0.2,0.3 -0.5,0.4 -0.8,0.4 -0.2,0 -0.4,-0.1 -0.6,-0.2 C 19.1,10.8 19,10.2 19.3,9.7 Z M 15,8 c 0,-0.6 0.4,-1 1,-1 0.6,0 1,0.4 1,1 v 1 c 0,0.6 -0.4,1 -1,1 -0.6,0 -1,-0.4 -1,-1 z m 1,8 c 0.6,0 1,-0.4 1,-1 v -3.9 c 2.3,0.5 4,2.5 4,4.9 0,2.8 -2.2,5 -5,5 -2.8,0 -5,-2.2 -5,-5 0,-2.4 1.7,-4.4 4,-4.9 V 15 c 0,0.6 0.4,1 1,1 z M 10.7,8.7 c 0.4,-0.3 1.1,-0.2 1.4,0.2 l 0.6,0.8 c 0.3,0.4 0.2,1.1 -0.2,1.4 -0.2,0.1 -0.4,0.2 -0.6,0.2 -0.3,0 -0.6,-0.1 -0.8,-0.4 L 10.5,10.1 C 10.2,9.7 10.3,9 10.7,8.7 Z m -3.3,4.5 c 0.2,-0.5 0.7,-0.8 1.3,-0.6 l 1,0.3 c 0.5,0.2 0.8,0.7 0.6,1.3 -0.1,0.4 -0.5,0.7 -1,0.7 -0.1,0 -0.2,0 -0.3,0 L 8,14.6 C 7.6,14.3 7.3,13.7 7.4,13.2 Z m 2.3,5.9 -1,0.3 c -0.1,0 -0.2,0 -0.3,0 C 8,19.4 7.6,19.1 7.4,18.7 7.2,18.2 7.5,17.6 8,17.4 l 1,-0.3 c 0.5,-0.2 1.1,0.1 1.3,0.6 0.2,0.7 -0.1,1.2 -0.6,1.4 z m 3,3.2 -0.6,0.8 c -0.2,0.3 -0.5,0.4 -0.8,0.4 -0.2,0 -0.4,-0.1 -0.6,-0.2 -0.4,-0.3 -0.5,-1 -0.2,-1.4 l 0.6,-0.8 c 0.3,-0.4 0.9,-0.5 1.4,-0.2 0.4,0.3 0.5,0.9 0.2,1.4 z M 17,24 c 0,0.6 -0.4,1 -1,1 -0.6,0 -1,-0.4 -1,-1 v -1 c 0,-0.6 0.4,-1 1,-1 0.6,0 1,0.4 1,1 z m 4.3,-0.7 c -0.2,0.1 -0.4,0.2 -0.6,0.2 -0.3,0 -0.6,-0.1 -0.8,-0.4 l -0.6,-0.8 c -0.3,-0.4 -0.2,-1.1 0.2,-1.4 0.4,-0.3 1.1,-0.2 1.4,0.2 l 0.6,0.8 c 0.3,0.4 0.2,1.1 -0.2,1.4 z m 3.3,-4.5 c -0.1,0.4 -0.5,0.7 -1,0.7 -0.1,0 -0.2,0 -0.3,0 l -1,-0.3 C 21.8,19 21.5,18.5 21.7,17.9 21.9,17.4 22.4,17.1 23,17.3 l 1,0.3 c 0.4,0.1 0.7,0.7 0.6,1.2 z"
       id="path676"
       style="fill:#ff0ec0;fill-opacity:1" /></g></svg>
