<?xml version="1.0" encoding="UTF-8" standalone="no"?>
<svg
   viewBox="0 0 512 512"
   style="height: 512px; width: 512px;"
   version="1.1"
   id="svg21"
   sodipodi:docname="smuggling_upgrade.svg"
   xml:space="preserve"
   inkscape:version="1.2.2 (b0a8486541, 2022-12-01)"
   xmlns:inkscape="http://www.inkscape.org/namespaces/inkscape"
   xmlns:sodipodi="http://sodipodi.sourceforge.net/DTD/sodipodi-0.dtd"
   xmlns="http://www.w3.org/2000/svg"
   xmlns:svg="http://www.w3.org/2000/svg"><sodipodi:namedview
     id="namedview23"
     pagecolor="#ffffff"
     bordercolor="#666666"
     borderopacity="1.0"
     inkscape:showpageshadow="2"
     inkscape:pageopacity="0.0"
     inkscape:pagecheckerboard="0"
     inkscape:deskcolor="#d1d1d1"
     showgrid="false"
     inkscape:zoom="0.921875"
     inkscape:cx="79.728814"
     inkscape:cy="376.40678"
     inkscape:window-width="1716"
     inkscape:window-height="1402"
     inkscape:window-x="3160"
     inkscape:window-y="684"
     inkscape:window-maximized="1"
     inkscape:current-layer="g1282" /><defs
     id="defs13"><filter
       id="shadow-1"
       height="1.1504303"
       width="1.1521184"
       x="-0.076059192"
       y="-0.075215146"><feFlood
         flood-color="rgba(58, 63, 94, 1)"
         result="flood"
         id="feFlood2" /><feComposite
         in="flood"
         in2="SourceGraphic"
         operator="out"
         result="composite"
         id="feComposite4" /><feGaussianBlur
         in="composite"
         stdDeviation="15"
         result="blur"
         id="feGaussianBlur6" /><feOffset
         dx="0"
         dy="0"
         result="offset"
         id="feOffset8" /><feComposite
         in2="SourceGraphic"
         in="offset"
         operator="atop"
         id="feComposite10" /></filter><filter
       style="color-interpolation-filters:sRGB;"
       inkscape:label="Drop Shadow"
       id="filter1210"
       x="-0.081074304"
       y="-0.15999861"
       width="1.1621486"
       height="1.3199972"><feFlood
         flood-opacity="1"
         flood-color="rgb(58,63,94)"
         result="flood"
         id="feFlood1200" /><feComposite
         in="flood"
         in2="SourceGraphic"
         operator="out"
         result="composite1"
         id="feComposite1202" /><feGaussianBlur
         in="composite1"
         stdDeviation="15"
         result="blur"
         id="feGaussianBlur1204" /><feOffset
         dx="0"
         dy="0"
         result="offset"
         id="feOffset1206" /><feComposite
         in="offset"
         in2="SourceGraphic"
         operator="atop"
         result="composite2"
         id="feComposite1208" /></filter><filter
       style="color-interpolation-filters:sRGB;"
       inkscape:label="Drop Shadow"
       id="filter1557"
       x="-0.50234014"
       y="-0.52168795"
       width="2.0046803"
       height="2.0433759"><feFlood
         flood-opacity="1"
         flood-color="rgb(58,63,94)"
         result="flood"
         id="feFlood1547" /><feComposite
         in="flood"
         in2="SourceGraphic"
         operator="out"
         result="composite1"
         id="feComposite1549" /><feGaussianBlur
         in="composite1"
         stdDeviation="3.5955"
         result="blur"
         id="feGaussianBlur1551" /><feOffset
         dx="0"
         dy="0"
         result="offset"
         id="feOffset1553" /><feComposite
         in="offset"
         in2="SourceGraphic"
         operator="atop"
         result="composite2"
         id="feComposite1555" /></filter><filter
       style="color-interpolation-filters:sRGB;"
       inkscape:label="Drop Shadow"
       id="filter3025"
       x="-0.071140136"
       y="-0.073880344"
       width="1.1422803"
       height="1.1477607"><feFlood
         flood-opacity="1"
         flood-color="rgb(58,63,94)"
         result="flood"
         id="feFlood3015" /><feComposite
         in="flood"
         in2="SourceGraphic"
         operator="out"
         result="composite1"
         id="feComposite3017" /><feGaussianBlur
         in="composite1"
         stdDeviation="0.8"
         result="blur"
         id="feGaussianBlur3019" /><feOffset
         dx="0"
         dy="0"
         result="offset"
         id="feOffset3021" /><feComposite
         in="offset"
         in2="SourceGraphic"
         operator="atop"
         result="composite2"
         id="feComposite3023" /></filter></defs><path
     d="M0 0h512v512H0z"
     fill="#1b1f21"
     fill-opacity="0"
     id="path15"
     style="height:512px;width:512px" /><g
     style="fill:#000000"
     id="g1282"
     transform="matrix(25,0,0,25,-66.945127,-198.23729)"><g
       style="fill:#ff0ec0;fill-opacity:1;filter:url(#filter3025)"
       id="g2481"
       transform="matrix(0.60068182,0,0,0.60068182,3.6075349,8.5585898)"><path
         id="path2472"
         d="M 15.45298,3.0060037 2.0900116,8.7630349 15.465012,14.474988 28.978996,8.749988 Z M 2.0050116,9.6739724 V 22.824988 l 13.0389844,6.168984 v -13.8 z m 26.9889844,0 -12.993984,5.5199996 v 13.8 L 28.993996,22.824988 Z M 4.2460273,12.772176 12.643137,25.305769 12.04009,25.610926 10.458527,23.248113 C 9.791008,23.183877 9.0969571,22.973756 8.3763398,22.617801 7.6026243,22.235617 6.8630362,21.718586 6.1575898,21.066707 5.4824851,20.437401 4.8851615,19.725139 4.3655585,18.92991 3.8459555,18.134681 3.4495721,17.324527 3.176496,16.499363 c 0.1820507,-0.372787 0.4228749,-0.686208 0.7225,-0.940234 0.2996251,-0.254027 0.6467287,-0.435327 1.0411719,-0.543907 l -0.21625,-0.334375 -1.0808594,-1.603515 z m 2.2415625,2.142656 c 0.6068356,0.07977 1.2364016,0.280735 1.88875,0.602969 0.7737154,0.382183 1.5133035,0.899292 2.2187502,1.551171 0.68269,0.633053 1.281924,1.346254 1.797734,2.13961 0.51581,0.793355 0.910283,1.60257 1.18336,2.427734 -0.341346,0.718887 -0.879915,1.203794 -1.615704,1.454766 l -1.388125,-2.07375 c 0.113782,-0.224458 0.170625,-0.484637 0.170625,-0.780469 0,-0.424785 -0.106201,-0.871689 -0.318593,-1.340703 C 10.211994,18.427145 9.9257109,17.997467 9.5654023,17.607097 9.2050936,17.216727 8.8087102,16.914733 8.3763398,16.70116 8.0880928,16.558778 7.7998211,16.473276 7.5115741,16.444676 Z m -0.2275782,2.072187 c -0.1668798,0.251328 -0.2503125,0.555281 -0.2503125,0.911797 0,0.424785 0.1062013,0.871689 0.3185938,1.340703 0.2123925,0.469015 0.5005861,0.899632 0.8646875,1.291875 0.3641014,0.392244 0.7585744,0.693299 1.1833594,0.903125 0.3565159,0.176104 0.7054518,0.264989 1.0467968,0.266719 L 8.6835273,20.607722 C 8.5849165,20.581769 8.482536,20.542523 8.3763398,20.490066 8.1184346,20.362672 7.8814312,20.181118 7.665246,19.945379 7.4490608,19.70964 7.2764642,19.451824 7.1475116,19.171941 7.0185591,18.892059 6.9540741,18.623206 6.9540741,18.365301 c 0,-0.09103 0.015205,-0.185972 0.045547,-0.284766 z m 2.0480469,0.636172 0.079688,0.03938 c 0.2579052,0.127395 0.4949086,0.307038 0.7110938,0.538985 0.2161852,0.231946 0.3868714,0.488823 0.5120312,0.770625 0.1251599,0.281801 0.1877344,0.551704 0.1877344,0.809609 v 0.0682 z"
         style="fill:#ff0ec0;fill-opacity:1" /></g><g
       style="fill:#ffffff"
       id="g2468"
       transform="matrix(0.01137818,0.00562035,0,0.01137818,-0.19185454,13.43565)" /></g><g
     style="fill:#000000"
     id="g1333"
     transform="matrix(0.28106743,-0.16670326,0,0.28106743,257.95102,101.721)" /></svg>
