<?xml version="1.0" encoding="UTF-8" standalone="no"?>
<svg
   width="512"
   height="512"
   viewBox="0 0 512 512"
   version="1.1"
   id="svg8"
   sodipodi:docname="savannah-panther.svg"
   inkscape:version="1.2.2 (b0a8486541, 2022-12-01)"
   xml:space="preserve"
   xmlns:inkscape="http://www.inkscape.org/namespaces/inkscape"
   xmlns:sodipodi="http://sodipodi.sourceforge.net/DTD/sodipodi-0.dtd"
   xmlns="http://www.w3.org/2000/svg"
   xmlns:svg="http://www.w3.org/2000/svg"><defs
     id="defs12"><filter
       style="color-interpolation-filters:sRGB;"
       inkscape:label="Drop Shadow"
       id="filter875"
       x="-0.31291152"
       y="-0.16857506"
       width="1.6092078"
       height="1.3282203"><feFlood
         flood-opacity="1"
         flood-color="rgb(58,63,94)"
         result="flood"
         id="feFlood865" /><feComposite
         in="flood"
         in2="SourceGraphic"
         operator="out"
         result="composite1"
         id="feComposite867" /><feGaussianBlur
         in="composite1"
         stdDeviation="15"
         result="blur"
         id="feGaussianBlur869" /><feOffset
         dx="0"
         dy="0"
         result="offset"
         id="feOffset871" /><feComposite
         in="offset"
         in2="SourceGraphic"
         operator="atop"
         result="composite2"
         id="feComposite873" /></filter><filter
       style="color-interpolation-filters:sRGB;"
       inkscape:label="Drop Shadow"
       id="filter1015"
       x="-0.081997928"
       y="-0.044180702"
       width="1.1639959"
       height="1.0883614"><feFlood
         flood-opacity="1"
         flood-color="rgb(58,63,94)"
         result="flood"
         id="feFlood1005" /><feComposite
         in="flood"
         in2="SourceGraphic"
         operator="out"
         result="composite1"
         id="feComposite1007" /><feGaussianBlur
         in="composite1"
         stdDeviation="8.30229"
         result="blur"
         id="feGaussianBlur1009" /><feOffset
         dx="0"
         dy="0"
         result="offset"
         id="feOffset1011" /><feComposite
         in="offset"
         in2="SourceGraphic"
         operator="atop"
         result="composite2"
         id="feComposite1013" /></filter><filter
       style="color-interpolation-filters:sRGB;"
       inkscape:label="Drop Shadow"
       id="filter35638"
       x="-0.057142887"
       y="-0.13067032"
       width="1.1142858"
       height="1.2613406"><feFlood
         flood-opacity="1"
         flood-color="rgb(58,63,94)"
         result="flood"
         id="feFlood35628" /><feComposite
         in="flood"
         in2="SourceGraphic"
         operator="out"
         result="composite1"
         id="feComposite35630" /><feGaussianBlur
         in="composite1"
         stdDeviation="6"
         result="blur"
         id="feGaussianBlur35632" /><feOffset
         dx="0"
         dy="0"
         result="offset"
         id="feOffset35634" /><feComposite
         in="offset"
         in2="SourceGraphic"
         operator="atop"
         result="composite2"
         id="feComposite35636" /></filter></defs><sodipodi:namedview
     id="namedview10"
     pagecolor="#505050"
     bordercolor="#eeeeee"
     borderopacity="1"
     inkscape:pageshadow="0"
     inkscape:pageopacity="0"
     inkscape:pagecheckerboard="0"
     showgrid="false"
     inkscape:zoom="1.7558594"
     inkscape:cx="302.98554"
     inkscape:cy="308.11123"
     inkscape:window-width="1716"
     inkscape:window-height="1402"
     inkscape:window-x="3160"
     inkscape:window-y="684"
     inkscape:window-maximized="1"
     inkscape:current-layer="svg8"
     inkscape:showpageshadow="2"
     inkscape:deskcolor="#505050"
     showguides="true" /><path
     d="M0 0h512v512H0z"
     fill="#b90202"
     fill-opacity="1"
     id="path2"
     style="fill:#1b1f21;fill-opacity:0" /><g
     style="fill:#ff0ec0;fill-opacity:1;filter:url(#filter35638)"
     id="g35566"
     transform="matrix(1.9238366,0,0,1.9238366,9.7481924,145.37843)"><path
       d="m 252.358,44.991 -6.622,5.943 c -1.104,0.991 -2.516,1.511 -3.946,1.511 -0.786,0 -1.578,-0.157 -2.328,-0.479 l -16.975,-7.283 -18.702,-1.969 -18.702,22.721 v 35.354 h 4.922 c 3.262,0 5.906,2.644 5.906,5.906 0,3.262 -2.644,5.906 -5.906,5.906 H 175.24 L 164.905,65.354 H 131.93 c -6.546,0 -12.698,-1.408 -18.259,-4.833 L 96.357,50.855 74.315,74.189 c -1.133,1.2 -2.375,2.293 -3.709,3.264 l -21.358,15.56 2.796,7.805 5.497,0.019 c 3.24,0.012 5.862,2.642 5.862,5.882 0,3.249 -2.634,5.882 -5.882,5.882 H 43.717 l -9.44,-26.567 c -0.679,-1.988 -0.335,-4.183 0.925,-5.876 L 52.664,58.798 49.262,35.804 32.753,49.602 c -3.501,2.927 -7.765,4.365 -12.011,4.365 -5.048,0 -10.071,-2.033 -13.757,-6.016 -3.528,-3.813 -5.283,-8.767 -4.943,-13.949 0.34,-5.183 2.727,-9.865 6.722,-13.184 2.089,-1.737 5.193,-1.451 6.931,0.64 1.737,2.09 1.451,5.193 -0.64,6.931 -1.896,1.575 -3.029,3.797 -3.19,6.257 -0.161,2.46 0.672,4.812 2.346,6.621 3.22,3.479 8.593,3.826 12.23,0.784 0,0 19.471,-16.309 25.984,-21.718 8.49,-7.051 19.586,-10.218 30.301,-10.218 h 66.942 c 4.683,0 9.285,-1.225 13.348,-3.553 3.997,-2.283 8.02,-4.162 12.492,-4.162 5.27,0 28.52,5.077 40.735,7.399 0.9,-2.91 2.772,-5.132 4.404,-6.605 1.383,-1.249 3.571,-0.838 4.405,0.829 l 4.201,8.402 15.383,10.919 c 1.299,0.915 2.057,2.402 2.057,3.987 v 2.038 l 6.406,9.099 c 1.442,2.046 1.124,4.85 -0.741,6.523 z m -23.393,31.005 v 0 l -26.09,-22.882 -11.845,14.391 28.074,15.046 8.282,11.656 c 1.81,2.724 5.486,3.463 8.208,1.653 2.723,-1.81 3.463,-5.485 1.653,-8.208 z M 114.875,67.8 c -1.441,-0.643 -2.843,-1.36 -4.187,-2.182 L 97.494,58.252 77.799,79.063 88.621,112.601 h 13.78 c 3.262,0 5.906,-2.644 5.906,-5.906 0,-3.262 -2.644,-5.906 -5.906,-5.906 h -4.82 L 93.304,87.621 Z"
       id="path35558"
       style="fill:#ff0ec0;fill-opacity:1" /></g></svg>
