<?xml version="1.0" encoding="UTF-8" standalone="no"?>
<svg
   width="512"
   height="512"
   viewBox="0 0 512 512"
   version="1.1"
   id="svg8"
   sodipodi:docname="savannah-eagle.svg"
   inkscape:version="1.2.2 (b0a8486541, 2022-12-01)"
   xml:space="preserve"
   xmlns:inkscape="http://www.inkscape.org/namespaces/inkscape"
   xmlns:sodipodi="http://sodipodi.sourceforge.net/DTD/sodipodi-0.dtd"
   xmlns="http://www.w3.org/2000/svg"
   xmlns:svg="http://www.w3.org/2000/svg"><defs
     id="defs12"><filter
       style="color-interpolation-filters:sRGB;"
       inkscape:label="Drop Shadow"
       id="filter875"
       x="-0.31291152"
       y="-0.16857506"
       width="1.6092078"
       height="1.3282203"><feFlood
         flood-opacity="1"
         flood-color="rgb(58,63,94)"
         result="flood"
         id="feFlood865" /><feComposite
         in="flood"
         in2="SourceGraphic"
         operator="out"
         result="composite1"
         id="feComposite867" /><feGaussianBlur
         in="composite1"
         stdDeviation="15"
         result="blur"
         id="feGaussianBlur869" /><feOffset
         dx="0"
         dy="0"
         result="offset"
         id="feOffset871" /><feComposite
         in="offset"
         in2="SourceGraphic"
         operator="atop"
         result="composite2"
         id="feComposite873" /></filter><filter
       style="color-interpolation-filters:sRGB;"
       inkscape:label="Drop Shadow"
       id="filter1015"
       x="-0.081997928"
       y="-0.044180702"
       width="1.1639959"
       height="1.0883614"><feFlood
         flood-opacity="1"
         flood-color="rgb(58,63,94)"
         result="flood"
         id="feFlood1005" /><feComposite
         in="flood"
         in2="SourceGraphic"
         operator="out"
         result="composite1"
         id="feComposite1007" /><feGaussianBlur
         in="composite1"
         stdDeviation="8.30229"
         result="blur"
         id="feGaussianBlur1009" /><feOffset
         dx="0"
         dy="0"
         result="offset"
         id="feOffset1011" /><feComposite
         in="offset"
         in2="SourceGraphic"
         operator="atop"
         result="composite2"
         id="feComposite1013" /></filter><filter
       style="color-interpolation-filters:sRGB;"
       inkscape:label="Drop Shadow"
       id="filter35638"
       x="-0.057142887"
       y="-0.13067032"
       width="1.1142858"
       height="1.2613406"><feFlood
         flood-opacity="1"
         flood-color="rgb(58,63,94)"
         result="flood"
         id="feFlood35628" /><feComposite
         in="flood"
         in2="SourceGraphic"
         operator="out"
         result="composite1"
         id="feComposite35630" /><feGaussianBlur
         in="composite1"
         stdDeviation="6"
         result="blur"
         id="feGaussianBlur35632" /><feOffset
         dx="0"
         dy="0"
         result="offset"
         id="feOffset35634" /><feComposite
         in="offset"
         in2="SourceGraphic"
         operator="atop"
         result="composite2"
         id="feComposite35636" /></filter><filter
       style="color-interpolation-filters:sRGB;"
       inkscape:label="Drop Shadow"
       id="filter35813"
       x="-0.053321701"
       y="-0.069584126"
       width="1.1066434"
       height="1.1391683"><feFlood
         flood-opacity="1"
         flood-color="rgb(58,63,94)"
         result="flood"
         id="feFlood35803" /><feComposite
         in="flood"
         in2="SourceGraphic"
         operator="out"
         result="composite1"
         id="feComposite35805" /><feGaussianBlur
         in="composite1"
         stdDeviation="8"
         result="blur"
         id="feGaussianBlur35807" /><feOffset
         dx="0"
         dy="0"
         result="offset"
         id="feOffset35809" /><feComposite
         in="offset"
         in2="SourceGraphic"
         operator="atop"
         result="composite2"
         id="feComposite35811" /></filter></defs><sodipodi:namedview
     id="namedview10"
     pagecolor="#505050"
     bordercolor="#eeeeee"
     borderopacity="1"
     inkscape:pageshadow="0"
     inkscape:pageopacity="0"
     inkscape:pagecheckerboard="0"
     showgrid="false"
     inkscape:zoom="1.7558594"
     inkscape:cx="302.98554"
     inkscape:cy="308.11123"
     inkscape:window-width="1716"
     inkscape:window-height="1402"
     inkscape:window-x="3160"
     inkscape:window-y="684"
     inkscape:window-maximized="1"
     inkscape:current-layer="svg8"
     inkscape:showpageshadow="2"
     inkscape:deskcolor="#505050"
     showguides="true" /><path
     d="M0 0h512v512H0z"
     fill="#b90202"
     fill-opacity="1"
     id="path2"
     style="fill:#1b1f21;fill-opacity:0" /><g
     style="fill:#ff0ec0;fill-opacity:1;filter:url(#filter35813)"
     id="g35789"
     transform="matrix(1.271351,0,0,1.271351,27.103468,-12.89467)"><path
       d="m 358.839,130.772 c -0.666,-0.618 -1.432,-0.931 -2.278,-0.931 -3.092,0 -6.364,4.36 -9.251,8.208 -1.091,1.454 -2.527,3.368 -3.262,4.005 -0.086,-1.467 1.019,-5.633 1.85,-8.764 2.099,-7.914 4.27,-16.096 0.735,-18 -0.368,-0.198 -0.757,-0.299 -1.157,-0.299 -2.545,0 -4.492,3.814 -7.458,10.037 -2.322,4.871 -5.211,10.934 -7.597,10.934 -0.152,0 -0.302,-0.026 -0.456,-0.081 -0.42,-0.75 -0.383,-4.184 -0.355,-6.71 0.072,-6.618 0.153,-14.118 -4.047,-14.678 -0.125,-0.017 -0.25,-0.025 -0.374,-0.025 -3.63,0 -5.748,6.793 -7.99,13.986 -1.092,3.504 -2.743,8.8 -3.677,9.158 -1.255,-0.251 -3.792,-4.038 -5.83,-7.081 -3.343,-4.99 -6.533,-9.684 -9.487,-9.441 -3.081,0.257 -3.033,4.63 -2.983,9.261 0.041,3.803 0.093,8.537 -1.81,9.561 -0.184,0.099 -0.384,0.147 -0.61,0.147 -2.116,0 -5.594,-3.792 -8.389,-6.839 -3.259,-3.552 -5.348,-5.73 -7.152,-5.73 -0.446,0 -0.866,0.138 -1.214,0.399 -1.985,1.489 -1.873,5.99 -1.754,10.755 0.06,2.402 0.15,5.988 -0.344,6.747 -0.916,-0.125 -3.528,-1.861 -5.844,-3.398 -5.123,-3.402 -11.498,-7.637 -16.64,-7.637 -0.846,0 -1.641,0.118 -2.363,0.351 -5.578,1.796 -6.648,4.437 -7.356,6.185 -0.371,0.916 -0.557,1.33 -1.071,1.55 -0.643,0.274 -1.683,0.166 -2.827,-0.007 -0.757,-0.115 -1.541,-0.233 -2.374,-0.233 -1.837,0 -3.357,0.627 -4.649,1.919 -1.313,1.313 -2.487,2.87 -3.623,4.375 -1.689,2.24 -3.286,4.356 -4.824,4.933 -0.813,0.305 -2.441,2.006 -7.028,6.88 -10.088,10.717 -31.079,33.019 -41.837,33.02 -2.013,0 -3.517,-0.806 -4.597,-2.464 -1.786,-2.741 -4.461,-7.761 -7.848,-14.118 C 150.373,156.676 134.21,126.343 120.46,119.239 84.014,100.41 52.865,70.21 36.131,53.986 27.005,45.138 23.763,42.078 22.073,42.078 c -0.479,0 -0.899,0.218 -1.154,0.599 -0.489,0.729 -0.313,1.869 0.648,4.208 2.911,7.082 9.584,16.8 14.947,24.608 3.098,4.511 6.55,9.539 7.476,11.644 C 41.47,81.971 36.622,76.848 32.64,72.64 25.625,65.23 21.154,60.73 18.201,60.73 c -0.564,0 -1.063,0.162 -1.48,0.479 -2.261,1.718 0.989,6.297 6.928,14.243 2.367,3.167 5.852,7.83 6.29,9.438 -1.261,-0.268 -4.061,-2.483 -6.338,-4.285 -3.86,-3.054 -7.853,-6.212 -10.77,-6.212 -0.56,0 -1.073,0.115 -1.526,0.341 -0.667,0.333 -1.102,0.876 -1.26,1.571 -0.481,2.12 1.733,5.176 5.167,9.597 1.496,1.925 3.712,4.779 3.886,5.796 -0.138,0.028 -0.29,0.042 -0.453,0.042 -1.562,0 -3.849,-1.215 -6.061,-2.391 -2.423,-1.288 -4.712,-2.504 -6.602,-2.504 -0.645,0 -1.22,0.144 -1.709,0.427 -2.151,1.245 -0.206,5.114 1.854,9.209 0.563,1.121 1.296,2.578 1.563,3.347 -0.509,0.071 -1.345,0.072 -1.95,0.073 -1.945,0.003 -3.957,0.006 -5.05,1.119 -0.46,0.467 -0.697,1.086 -0.687,1.79 0.042,2.656 42.16,92.95 91.761,127.749 6.636,4.656 9.21,12.982 11.699,21.034 0.909,2.94 1.767,5.717 2.806,8.239 0.374,0.909 0.379,1.669 0.017,2.394 -1.564,3.123 -9.652,5.201 -18.215,7.4 -4.941,1.27 -10.049,2.582 -15.005,4.292 -61.734,7.598 -61.731,11.024 -61.731,12.672 0,3.317 2.206,4.9 3.817,6.056 1.625,1.166 1.86,1.497 1.573,2.215 -0.376,0.941 -1.279,1.909 -2.234,2.934 -2.065,2.217 -4.636,4.975 -3.093,9.09 0.558,1.487 2.389,2.21 5.597,2.21 5.546,0 14.548,-2.09 21.165,-3.857 -14.858,8.494 -14.859,10.045 -14.859,10.603 0,0.755 0,2.162 8.549,2.162 8.537,0 22.06,-1.545 32.073,-5.898 3.096,-1.346 5.734,-2.64 8.285,-3.89 2.409,-1.181 4.688,-2.298 6.98,-3.265 26.126,1.41 66.339,3.05 94.063,3.05 15.604,0 25.431,-0.522 29.205,-1.551 5.059,-1.38 10.855,-3.62 16.993,-5.991 11.324,-4.375 23.033,-8.9 32.104,-8.9 1.857,0 3.552,0.198 5.037,0.589 13.288,3.496 18.372,14.022 18.422,14.128 l 0.201,0.427 0.456,0.117 c 0.079,0.02 0.506,0.121 1.167,0.121 0,0 0,0 0,0 1.913,0 6.598,-0.903 8.793,-9.264 1.29,-4.914 -1.226,-8.538 -2.162,-9.672 0.235,-2.671 0.776,-15.885 -10.323,-24.661 -6.735,-5.326 -13.414,-7.774 -17.833,-9.395 -2.089,-0.766 -4.951,-1.815 -4.901,-2.371 0.454,-2.894 28.565,-60.374 68.724,-73.151 31.045,-9.878 38.504,-29.301 40.27,-37.192 1.081,-4.845 0.85,-9.148 -0.565,-10.462 z"
       id="path35781"
       style="fill:#ff0ec0;fill-opacity:1" /></g></svg>
