<?xml version="1.0" encoding="UTF-8" standalone="no"?>
<svg
   width="512"
   height="512"
   viewBox="0 0 512 512"
   version="1.1"
   id="svg8"
   sodipodi:docname="the-observer.svg"
   inkscape:version="1.2.2 (b0a8486541, 2022-12-01)"
   xml:space="preserve"
   xmlns:inkscape="http://www.inkscape.org/namespaces/inkscape"
   xmlns:sodipodi="http://sodipodi.sourceforge.net/DTD/sodipodi-0.dtd"
   xmlns="http://www.w3.org/2000/svg"
   xmlns:svg="http://www.w3.org/2000/svg"><defs
     id="defs12"><filter
       style="color-interpolation-filters:sRGB;"
       inkscape:label="Drop Shadow"
       id="filter875"
       x="-0.31291152"
       y="-0.16857506"
       width="1.6092078"
       height="1.3282203"><feFlood
         flood-opacity="1"
         flood-color="rgb(58,63,94)"
         result="flood"
         id="feFlood865" /><feComposite
         in="flood"
         in2="SourceGraphic"
         operator="out"
         result="composite1"
         id="feComposite867" /><feGaussianBlur
         in="composite1"
         stdDeviation="15"
         result="blur"
         id="feGaussianBlur869" /><feOffset
         dx="0"
         dy="0"
         result="offset"
         id="feOffset871" /><feComposite
         in="offset"
         in2="SourceGraphic"
         operator="atop"
         result="composite2"
         id="feComposite873" /></filter><filter
       style="color-interpolation-filters:sRGB;"
       inkscape:label="Drop Shadow"
       id="filter1015"
       x="-0.081997928"
       y="-0.044180702"
       width="1.1639959"
       height="1.0883614"><feFlood
         flood-opacity="1"
         flood-color="rgb(58,63,94)"
         result="flood"
         id="feFlood1005" /><feComposite
         in="flood"
         in2="SourceGraphic"
         operator="out"
         result="composite1"
         id="feComposite1007" /><feGaussianBlur
         in="composite1"
         stdDeviation="8.30229"
         result="blur"
         id="feGaussianBlur1009" /><feOffset
         dx="0"
         dy="0"
         result="offset"
         id="feOffset1011" /><feComposite
         in="offset"
         in2="SourceGraphic"
         operator="atop"
         result="composite2"
         id="feComposite1013" /></filter><filter
       style="color-interpolation-filters:sRGB;"
       inkscape:label="Drop Shadow"
       id="filter35638"
       x="-0.057142887"
       y="-0.13067032"
       width="1.1142858"
       height="1.2613406"><feFlood
         flood-opacity="1"
         flood-color="rgb(58,63,94)"
         result="flood"
         id="feFlood35628" /><feComposite
         in="flood"
         in2="SourceGraphic"
         operator="out"
         result="composite1"
         id="feComposite35630" /><feGaussianBlur
         in="composite1"
         stdDeviation="6"
         result="blur"
         id="feGaussianBlur35632" /><feOffset
         dx="0"
         dy="0"
         result="offset"
         id="feOffset35634" /><feComposite
         in="offset"
         in2="SourceGraphic"
         operator="atop"
         result="composite2"
         id="feComposite35636" /></filter><filter
       style="color-interpolation-filters:sRGB;"
       inkscape:label="Drop Shadow"
       id="filter35813"
       x="-0.053321701"
       y="-0.069584126"
       width="1.1066434"
       height="1.1391683"><feFlood
         flood-opacity="1"
         flood-color="rgb(58,63,94)"
         result="flood"
         id="feFlood35803" /><feComposite
         in="flood"
         in2="SourceGraphic"
         operator="out"
         result="composite1"
         id="feComposite35805" /><feGaussianBlur
         in="composite1"
         stdDeviation="8"
         result="blur"
         id="feGaussianBlur35807" /><feOffset
         dx="0"
         dy="0"
         result="offset"
         id="feOffset35809" /><feComposite
         in="offset"
         in2="SourceGraphic"
         operator="atop"
         result="composite2"
         id="feComposite35811" /></filter><filter
       style="color-interpolation-filters:sRGB;"
       inkscape:label="Drop Shadow"
       id="filter36051"
       x="-0.028125"
       y="-0.038976963"
       width="1.05625"
       height="1.0779539"><feFlood
         flood-opacity="1"
         flood-color="rgb(58,63,94)"
         result="flood"
         id="feFlood36041" /><feComposite
         in="flood"
         in2="SourceGraphic"
         operator="out"
         result="composite1"
         id="feComposite36043" /><feGaussianBlur
         in="composite1"
         stdDeviation="6"
         result="blur"
         id="feGaussianBlur36045" /><feOffset
         dx="0"
         dy="0"
         result="offset"
         id="feOffset36047" /><feComposite
         in="offset"
         in2="SourceGraphic"
         operator="atop"
         result="composite2"
         id="feComposite36049" /></filter></defs><sodipodi:namedview
     id="namedview10"
     pagecolor="#505050"
     bordercolor="#eeeeee"
     borderopacity="1"
     inkscape:pageshadow="0"
     inkscape:pageopacity="0"
     inkscape:pagecheckerboard="0"
     showgrid="false"
     inkscape:zoom="1.7558594"
     inkscape:cx="302.98554"
     inkscape:cy="308.11123"
     inkscape:window-width="1716"
     inkscape:window-height="1402"
     inkscape:window-x="3160"
     inkscape:window-y="684"
     inkscape:window-maximized="1"
     inkscape:current-layer="svg8"
     inkscape:showpageshadow="2"
     inkscape:deskcolor="#505050"
     showguides="true" /><path
     d="M0 0h512v512H0z"
     fill="#b90202"
     fill-opacity="1"
     id="path2"
     style="fill:#1b1f21;fill-opacity:0" /><style
     type="text/css"
     id="style35976">
	.st0{fill:#000000;}
</style><g
     id="g35990"
     transform="matrix(0.94587399,0,0,0.94587399,13.856259,13.855786)"
     style="fill:#ff0ec0;fill-opacity:1;filter:url(#filter36051)">
	<path
   class="st0"
   d="m 425.797,130.088 c -12.509,0 -22.646,10.136 -22.646,22.629 v 15.163 l -62.255,12.053 c -22.642,0 -50.941,-14.16 -84.892,-14.16 -33.965,0 -62.259,14.16 -84.901,14.16 L 108.845,167.88 v -15.163 c 0,-12.493 -10.133,-22.629 -22.638,-22.629 -12.505,0 -22.637,10.136 -22.637,22.63 v 70.757 c 0,12.492 10.132,22.63 22.637,22.63 12.505,0 22.638,-10.137 22.638,-22.63 v -13.338 c 18.087,3.782 43.018,8.959 59.43,12.244 25.968,5.193 35.346,41.26 76.046,47.191 v 37.477 c -6.533,0.547 -11.68,5.964 -11.68,12.634 0,0.099 0.029,0.191 0.029,0.29 -23.036,9.257 -39.315,31.762 -39.315,58.107 0,34.598 28.046,62.645 62.645,62.645 34.599,0 62.645,-28.046 62.645,-62.645 0,-26.346 -16.279,-48.85 -39.314,-58.107 0,-0.1 0.029,-0.191 0.029,-0.29 0,-6.67 -5.148,-12.086 -11.68,-12.634 v -37.477 c 40.696,-5.932 50.082,-41.998 76.045,-47.191 16.407,-3.285 41.343,-8.461 59.426,-12.244 v 13.338 c 0,12.492 10.137,22.63 22.646,22.63 12.501,0 22.629,-10.137 22.629,-22.63 v -70.757 c 0,-12.494 -10.128,-22.63 -22.629,-22.63 z M 297.409,378.079 c 0,22.87 -18.539,41.409 -41.409,41.409 -22.87,0 -41.409,-18.54 -41.409,-41.409 0,-22.87 18.54,-41.409 41.409,-41.409 22.87,0 41.409,18.539 41.409,41.409 z"
   id="path35978"
   style="fill:#ff0ec0;fill-opacity:1" />
	<rect
   y="90.992996"
   class="st0"
   width="172.414"
   height="29.556"
   id="rect35980"
   x="0"
   style="fill:#ff0ec0;fill-opacity:1" />
	<rect
   x="339.577"
   y="90.992996"
   class="st0"
   width="172.423"
   height="29.556"
   id="rect35982"
   style="fill:#ff0ec0;fill-opacity:1" />
	<path
   class="st0"
   d="m 86.207,71.276 c -7.142,0 -12.928,5.79 -12.928,12.94 h 25.86 c 0,-7.15 -5.795,-12.94 -12.932,-12.94 z"
   id="path35984"
   style="fill:#ff0ec0;fill-opacity:1" />
	<path
   class="st0"
   d="m 425.797,71.276 c -7.15,0 -12.94,5.79 -12.94,12.94 h 25.864 c -10e-4,-7.15 -5.79,-12.94 -12.924,-12.94 z"
   id="path35986"
   style="fill:#ff0ec0;fill-opacity:1" />
	<path
   class="st0"
   d="m 267.555,354.28 c -3.509,-1.7 -7.395,-2.745 -11.555,-2.745 -14.662,0 -26.544,11.887 -26.544,26.544 0,14.657 11.883,26.544 26.544,26.544 14.661,0 26.544,-11.887 26.544,-26.544 0,-3.584 -0.73,-7.001 -2.02,-10.12 -1.506,4.031 -5.317,6.934 -9.875,6.934 -5.864,0 -10.618,-4.753 -10.618,-10.618 10e-4,-4.76 3.198,-8.651 7.524,-9.995 z"
   id="path35988"
   style="fill:#ff0ec0;fill-opacity:1" />
</g></svg>
