<?xml version="1.0" encoding="UTF-8" standalone="no"?>
<svg
   width="512" height="512"
   viewBox="0 0 512 512"
   version="1.1"
   id="svg1589"
   sodipodi:docname="asp.svg"
   inkscape:version="1.1.1 (3bf5ae0d25, 2021-09-20)"
   xmlns:inkscape="http://www.inkscape.org/namespaces/inkscape"
   xmlns:sodipodi="http://sodipodi.sourceforge.net/DTD/sodipodi-0.dtd"
   xmlns="http://www.w3.org/2000/svg"
   xmlns:svg="http://www.w3.org/2000/svg">
  <defs
     id="defs1593">
    <filter
       style="color-interpolation-filters:sRGB;"
       inkscape:label="Drop Shadow"
       id="filter1716"
       x="-0.21358323"
       y="-0.16172973"
       width="1.4158255"
       height="1.3148922">
      <feFlood
         flood-opacity="1"
         flood-color="rgb(58,63,94)"
         result="flood"
         id="feFlood1706" />
      <feComposite
         in="flood"
         in2="SourceGraphic"
         operator="out"
         result="composite1"
         id="feComposite1708" />
      <feGaussianBlur
         in="composite1"
         stdDeviation="15"
         result="blur"
         id="feGaussianBlur1710" />
      <feOffset
         dx="0"
         dy="0"
         result="offset"
         id="feOffset1712" />
      <feComposite
         in="offset"
         in2="SourceGraphic"
         operator="atop"
         result="composite2"
         id="feComposite1714" />
    </filter>
    <filter
       style="color-interpolation-filters:sRGB;"
       inkscape:label="Drop Shadow"
       id="filter937"
       x="-0.10078404"
       y="-0.076325987"
       width="1.2015681"
       height="1.152652">
      <feFlood
         flood-opacity="1"
         flood-color="rgb(58,63,94)"
         result="flood"
         id="feFlood927" />
      <feComposite
         in="flood"
         in2="SourceGraphic"
         operator="out"
         result="composite1"
         id="feComposite929" />
      <feGaussianBlur
         in="composite1"
         stdDeviation="14.95"
         result="blur"
         id="feGaussianBlur931" />
      <feOffset
         dx="0"
         dy="0"
         result="offset"
         id="feOffset933" />
      <feComposite
         in="offset"
         in2="SourceGraphic"
         operator="atop"
         result="composite2"
         id="feComposite935" />
    </filter>
    <filter
       style="color-interpolation-filters:sRGB;"
       inkscape:label="Drop Shadow"
       id="filter974"
       x="-0.041925555"
       y="-0.031751152"
       width="1.0838511"
       height="1.0635023">
      <feFlood
         flood-opacity="1"
         flood-color="rgb(58,63,94)"
         result="flood"
         id="feFlood964" />
      <feComposite
         in="flood"
         in2="SourceGraphic"
         operator="out"
         result="composite1"
         id="feComposite966" />
      <feGaussianBlur
         in="composite1"
         stdDeviation="6.21911"
         result="blur"
         id="feGaussianBlur968" />
      <feOffset
         dx="0"
         dy="0"
         result="offset"
         id="feOffset970" />
      <feComposite
         in="offset"
         in2="SourceGraphic"
         operator="atop"
         result="composite2"
         id="feComposite972" />
    </filter>
  </defs>
  <sodipodi:namedview
     id="namedview1591"
     pagecolor="#505050"
     bordercolor="#eeeeee"
     borderopacity="1"
     inkscape:pageshadow="0"
     inkscape:pageopacity="0"
     inkscape:pagecheckerboard="0"
     showgrid="false"
     inkscape:zoom="1.7050781"
     inkscape:cx="256"
     inkscape:cy="256"
     inkscape:window-width="1716"
     inkscape:window-height="1414"
     inkscape:window-x="3160"
     inkscape:window-y="587"
     inkscape:window-maximized="1"
     inkscape:current-layer="svg1589" />
  <path
     d="M -1.5e-5,0 H 512.00001 V 512 H -1.5e-5 Z"
     fill="#b90202"
     fill-opacity="1"
     id="path1583"
     style="fill:#1b1f21;fill-opacity:0" />
  <g
     class=""
     transform="translate(-606.85372,-16.837078)"
     id="g1587"
     style="filter:url(#filter974)">
    <path
       d="m 921.8781,39.806314 c -15.3,0.23 -28.6,3.6 -40.4,10.47 -15.4,2.32 -31.2,0.89 -45.4,4.01 -23.6,5.29 -44.3,18.98 -54.5,56.049996 1.7,-2.63 3.7,-5.01 5.9,-7.08 5.9,-5.549996 14.2,-8.949996 22.7,-7.249996 8,1.59 14.1,7.269996 17.7,14.079996 3.4,-8.45 8,-16.939996 13.7,-25.519996 9.5,-12.42 24.3,-13.31 37.6,-12.68 l 58.3,10.15 45.5,-6.98 c -7.8,-18.12 -27.2,-30.54 -53.6,-34.39 11.4,8.12 12.8,19.86 13.4,30.1 -10.6,-7.83 -17.4,-12.76 -34.6,-18.61 l 16.4,-12.1 c -0.9,-0.1 -1.8,-0.18 -2.7,-0.25 z m -49.9,49.38 c -5.8,0 -11.3,1.51 -15.4,5.32 -7.9,11.929996 -13.2,22.909996 -16,33.449996 22.3,-2.2 43,-3.2 64.6,-0.7 -8.9,-11.04 -17.3,-23.12 -22.6,-36.559996 -3.5,-0.95 -7.1,-1.5 -10.6,-1.51 z m 109.6,4.23 -15.1,2.31 5.7,30.029996 z m -76.9,1.13 c 7.9,13.699996 19.7,27.209996 30.7,40.809996 4.1,2.3 7.7,3.3 10.7,3.6 -6.3,-13.4 -9.7,-26.53 -12.5,-39.389996 z m -105.1,21.969996 c -2.7,2.54 -5.3,6.94 -6.4,12.44 -1.1,5.5 -0.4,10.7 1.1,14.1 1.7,3.5 3.6,4.9 5.5,5.2 2,0.4 4.3,-0.1 7.1,-2.7 2.8,-2.6 5.4,-7.1 6.5,-12.6 1.1,-5.5 0.3,-10.6 -1.2,-14 -3.3,-6.39 -8.1,-6.47 -12.6,-2.44 z m 76.6,27.14 c -13,0 -26.2,1 -38.3,2.5 -0.1,3.9 0.1,7.9 0.7,11.8 0.7,5.3 2.1,10.7 4,16.2 28.6,-5.5 53.5,-8.6 80.8,-4.1 -0.3,-7.3 -0.8,-14.5 -1.5,-21.4 -13,-3.7 -29.2,-5.1 -45.7,-5 z m -55.8,13.8 c -0.4,0.4 -0.8,0.9 -1.3,1.3 -5.9,5.5 -14.2,8.9 -22.8,7.2 -3.6,-0.7 -6.9,-2.3 -9.7,-4.4 6.3,14 16,28.5 28.2,42.1 15.9,17.8 35.5,33.9 55.6,45.5 -3.2,-3.5 -6.2,-7 -9.1,-10.5 -23,-27.7 -36.9,-52.7 -40.5,-78.1 -0.1,-1 -0.3,-2.1 -0.4,-3.1 z m 73,28.4 c -14.8,0.2 -30,2 -43.4,4.9 6,11.3 14.3,23.3 25.1,36.4 0.3,0.4 0.7,0.8 1,1.2 18.7,-10.4 34,-14 47.2,-14.5 0.3,-8.4 0.5,-17 0.5,-25.7 -9.4,-1.7 -19.8,-2.4 -30.4,-2.3 z m -5.2,56.1 c 8.2,8.8 17.3,18.1 26.4,28.1 10.3,-7.5 23.2,-13.3 38.3,-15.6 -7.3,-7.7 -14.5,-15.2 -21.4,-22.7 -16,-0.8 -32.6,4.7 -43.3,10.2 z m 38.2,41.5 c 7.6,8.9 14.9,18.5 21.6,28.8 13.7,-7.4 28.6,-13.8 43.4,-15.6 -7.3,-8.8 -14.9,-17.2 -22.6,-25.5 -14.9,0.1 -31.6,5 -42.4,12.3 z m 74.5,30.8 c -12.5,0.1 -28.6,5.6 -43.8,13.4 7.3,13.6 13.3,28.4 16.9,44.8 5.2,23.7 4.4,43.2 -7.5,57.8 -1.6,1.7 -2,2.3 -3,3.4 -44.6,53.7 -203.7,39.5 -202.2,31.9 2.2,-13.6 96.1,7.5 168.5,-30.3 -56.7,0.1 -117.1,-1.9 -170.4,4.7 -15.02,2.7 -71.52001,5.1 -72.51001,24.8 1.54,16.1 19.23,24.4 31.20001,29.1 21.11,8.1 67.31,13.1 99.91,15.1 65.2,3.9 141.1,-4.7 176.1,-19.3 22.5,-9.4 35,-22.6 42,-38.2 6.9,-15.5 8.1,-33.9 5.6,-52.8 -4.2,-31.7 -18.3,-59.2 -36.4,-84.2 -1.4,-0.1 -2.9,-0.2 -4.4,-0.2 z m -99.5,45.8 c -49.1,-0.1 -194.74001,14.9 -194.37001,49.5 0.1,8.1 6.1,14.4 16.23001,19.3 10.16,-3 21.61,-5.1 33.84,-6.7 37.2,-4.8 81.5,-4.7 112.6,-5.3 13.4,-0.3 32.6,0.3 50,0.4 8.8,0.1 17.1,0.1 23.8,-0.1 4.7,-0.1 8.3,-0.5 10.9,-0.8 4,-6.3 5.5,-14 4.5,-25 l -202.3,9.8 c 27.4,-14.4 86.1,-21.2 134.5,-25.2 24.8,-5 27.3,-9.3 26.1,-14.3 -0.9,-1 -6.7,-1.6 -15.8,-1.6 z"
       fill="#ffffff"
       fill-opacity="1"
       stroke="#ffffff"
       stroke-opacity="1"
       stroke-width="0"
       id="path1585"
       style="fill:#ff0ec0;fill-opacity:1"
       sodipodi:nodetypes="ccccccccccccccccccccccccccccccccsccsscccccccccccccccccccccccccccccccccccccccccccccccccccccccccccccccc" />
  </g>
</svg>
