<?xml version="1.0" encoding="UTF-8" standalone="no"?>
<svg
   width="512" height="512"
   viewBox="0 0 512 512"
   version="1.1"
   id="svg8"
   sodipodi:docname="hellhound.svg"
   inkscape:version="1.1.1 (3bf5ae0d25, 2021-09-20)"
   xmlns:inkscape="http://www.inkscape.org/namespaces/inkscape"
   xmlns:sodipodi="http://sodipodi.sourceforge.net/DTD/sodipodi-0.dtd"
   xmlns="http://www.w3.org/2000/svg"
   xmlns:svg="http://www.w3.org/2000/svg">
  <defs
     id="defs12">
    <filter
       style="color-interpolation-filters:sRGB;"
       inkscape:label="Drop Shadow"
       id="filter1081"
       x="-0.16074562"
       y="-0.15937579"
       width="1.3129558"
       height="1.3103091">
      <feFlood
         flood-opacity="1"
         flood-color="rgb(58,63,94)"
         result="flood"
         id="feFlood1071" />
      <feComposite
         in="flood"
         in2="SourceGraphic"
         operator="out"
         result="composite1"
         id="feComposite1073" />
      <feGaussianBlur
         in="composite1"
         stdDeviation="15"
         result="blur"
         id="feGaussianBlur1075" />
      <feOffset
         dx="0"
         dy="0"
         result="offset"
         id="feOffset1077" />
      <feComposite
         in="offset"
         in2="SourceGraphic"
         operator="atop"
         result="composite2"
         id="feComposite1079" />
    </filter>
    <filter
       style="color-interpolation-filters:sRGB;"
       inkscape:label="Drop Shadow"
       id="filter936"
       x="-0.048058092"
       y="-0.047654915"
       width="1.0961162"
       height="1.0953098">
      <feFlood
         flood-opacity="1"
         flood-color="rgb(58,63,94)"
         result="flood"
         id="feFlood926" />
      <feComposite
         in="flood"
         in2="SourceGraphic"
         operator="out"
         result="composite1"
         id="feComposite928" />
      <feGaussianBlur
         in="composite1"
         stdDeviation="9.47205"
         result="blur"
         id="feGaussianBlur930" />
      <feOffset
         dx="0"
         dy="0"
         result="offset"
         id="feOffset932" />
      <feComposite
         in="offset"
         in2="SourceGraphic"
         operator="atop"
         result="composite2"
         id="feComposite934" />
    </filter>
  </defs>
  <sodipodi:namedview
     id="namedview10"
     pagecolor="#505050"
     bordercolor="#eeeeee"
     borderopacity="1"
     inkscape:pageshadow="0"
     inkscape:pageopacity="0"
     inkscape:pagecheckerboard="0"
     showgrid="false"
     inkscape:zoom="1.7050781"
     inkscape:cx="256"
     inkscape:cy="256"
     inkscape:window-width="1716"
     inkscape:window-height="1414"
     inkscape:window-x="3160"
     inkscape:window-y="587"
     inkscape:window-maximized="1"
     inkscape:current-layer="svg8" />
  <path
     d="M0 0h512v512H0z"
     fill="#b90202"
     fill-opacity="1"
     id="path2"
     style="fill:#1b1f21;fill-opacity:0" />
  <path
     fill="#000000"
     d="m 137.235,17.484 -15.313,78.782 20.313,56.876 h 45.97 z m -63.249999,1.72 -54.5,359.156 V 494.516 H 227.485 L 209.61,386.704 h -96.845 l -2.218,-6.156 -25.779999,-71.594 17.561999,-6.344 23.562,65.406 h 90.344 l 230.688,-2.968 9.812,-33.406 h -178.75 v -18.688 h 184.22 l 7.374,-25.156 -54.564,-78.094 H 290.955 L 270.61,172.11 h -75.28 l -0.095,-0.28 h -46.313 l 10.126,28.374 -17.593,6.28 -26.532,-74.25 -0.126,0.72 z M 207.36,197.424 h 56.094 l 21.405,38.874 -26.094,-0.438 -51.405,-38.437 z m 230.47,12.28 38.53,55.094 16.155,-55.094 h -54.686 z m -82.814,15.938 c 6.613,0 11.97,5.356 11.97,11.968 0,6.613 -5.357,11.97 -11.97,11.97 -6.61,0 -11.967,-5.357 -11.967,-11.97 0,-6.612 5.356,-11.97 11.968,-11.97 z m 44.595,0 c 6.612,0 12,5.356 12,11.968 0,6.613 -5.388,11.97 -12,11.97 -6.612,0 -11.97,-5.357 -11.97,-11.97 0,-6.612 5.358,-11.97 11.97,-11.97 z m -66.188,29.187 c 6.612,0 11.97,5.356 11.97,11.97 0,6.61 -5.358,11.967 -11.97,11.967 -6.61,0 -11.968,-5.356 -11.968,-11.968 0,-6.613 5.356,-11.97 11.967,-11.97 z m 43.125,0 c 6.612,0 12,5.356 12,11.97 0,6.61 -5.388,11.967 -12,11.967 -6.61,0 -11.968,-5.356 -11.968,-11.968 0,-6.613 5.357,-11.97 11.97,-11.97 z m 42.063,0 c 6.612,0 11.97,5.356 11.97,11.97 0,6.61 -5.358,11.967 -11.97,11.967 -6.612,0 -11.97,-5.356 -11.97,-11.968 0,-6.613 5.358,-11.97 11.97,-11.97 z"
     id="path829"
     style="fill:#ff0ec0;fill-opacity:1;filter:url(#filter936)" />
</svg>
