<?xml version="1.0" encoding="UTF-8" standalone="no"?>
<svg
   width="512" height="512"
   viewBox="0 0 512 512"
   version="1.1"
   id="svg8"
   sodipodi:docname="killer.svg"
   inkscape:version="1.1.1 (3bf5ae0d25, 2021-09-20)"
   xmlns:inkscape="http://www.inkscape.org/namespaces/inkscape"
   xmlns:sodipodi="http://sodipodi.sourceforge.net/DTD/sodipodi-0.dtd"
   xmlns="http://www.w3.org/2000/svg"
   xmlns:svg="http://www.w3.org/2000/svg">
  <defs
     id="defs12">
    <filter
       style="color-interpolation-filters:sRGB;"
       inkscape:label="Drop Shadow"
       id="filter893"
       x="-0.19018885"
       y="-0.16039525"
       width="1.3702789"
       height="1.312294">
      <feFlood
         flood-opacity="1"
         flood-color="rgb(58,63,94)"
         result="flood"
         id="feFlood883" />
      <feComposite
         in="flood"
         in2="SourceGraphic"
         operator="out"
         result="composite1"
         id="feComposite885" />
      <feGaussianBlur
         in="composite1"
         stdDeviation="15"
         result="blur"
         id="feGaussianBlur887" />
      <feOffset
         dx="0"
         dy="0"
         result="offset"
         id="feOffset889" />
      <feComposite
         in="offset"
         in2="SourceGraphic"
         operator="atop"
         result="composite2"
         id="feComposite891" />
    </filter>
    <filter
       style="color-interpolation-filters:sRGB;"
       inkscape:label="Drop Shadow"
       id="filter937"
       x="-0.05686073"
       y="-0.047959746"
       width="1.1137215"
       height="1.0959195">
      <feFlood
         flood-opacity="1"
         flood-color="rgb(58,63,94)"
         result="flood"
         id="feFlood927" />
      <feComposite
         in="flood"
         in2="SourceGraphic"
         operator="out"
         result="composite1"
         id="feComposite929" />
      <feGaussianBlur
         in="composite1"
         stdDeviation="9.47205"
         result="blur"
         id="feGaussianBlur931" />
      <feOffset
         dx="0"
         dy="0"
         result="offset"
         id="feOffset933" />
      <feComposite
         in="offset"
         in2="SourceGraphic"
         operator="atop"
         result="composite2"
         id="feComposite935" />
    </filter>
  </defs>
  <sodipodi:namedview
     id="namedview10"
     pagecolor="#505050"
     bordercolor="#eeeeee"
     borderopacity="1"
     inkscape:pageshadow="0"
     inkscape:pageopacity="0"
     inkscape:pagecheckerboard="0"
     showgrid="false"
     inkscape:zoom="1.7050781"
     inkscape:cx="256"
     inkscape:cy="256"
     inkscape:window-width="1716"
     inkscape:window-height="1414"
     inkscape:window-x="3160"
     inkscape:window-y="587"
     inkscape:window-maximized="1"
     inkscape:current-layer="g6" />
  <path
     d="M0 0h512v512H0z"
     fill="#b90202"
     fill-opacity="1"
     id="path2"
     style="fill:#1b1f21;fill-opacity:0" />
  <g
     class=""
     style="fill:#ff0ec0;fill-opacity:1"
     transform="translate(0,0)"
     id="g6">
    <path
       d="M256 19c-13.8 0-27.9 3.02-41.5 8.48L256 79.44l41.5-51.96C283.9 22.02 269.8 19 256 19zm-59.4 16.96c-18.5 10.27-35.9 24.69-50.9 41.74-10.8 12.21-20.2 25.7-24.8 32.4l-64.8 87.1 59.1 83L95.9 348l71.6 64.2-6.9-27.3 36.1-108.2-40.7 27.1-75.98-106.3 42.28-56.3 97.4 48.7h72.7l97.4-48.7 42.3 56.3-76 106.3-40.8-27.2 1 3.2 35.2 105.1-6.9 27.3 71.5-64.2-19.4-67.8 59.2-83-64.8-87.1c-4.6-6.7-14-20.19-24.8-32.4-15-17.05-32.4-31.47-50.9-41.74L256 110.2zm15.1 256.44l-5 15h98.6l-5-15zm-11.5 34.2l-16.3 49.1h144.2l-16.4-49.1zm-17.3 68.3l12.3 49.2h121.6l12.2-49.2zm33.6 68.4L256 493l39.5-29.7z"
       fill="#ffffff"
       fill-opacity="1"
       stroke="#ffffff"
       stroke-opacity="1"
       stroke-width="0"
       id="path4"
       style="fill:#ff0ec0;fill-opacity:1;filter:url(#filter937)" />
  </g>
</svg>
