<?xml version="1.0" encoding="UTF-8" standalone="no"?>
<svg
   width="512" height="512"
   viewBox="0 0 512 512"
   version="1.1"
   id="svg8"
   sodipodi:docname="raven.svg"
   inkscape:version="1.1.1 (3bf5ae0d25, 2021-09-20)"
   xmlns:inkscape="http://www.inkscape.org/namespaces/inkscape"
   xmlns:sodipodi="http://sodipodi.sourceforge.net/DTD/sodipodi-0.dtd"
   xmlns="http://www.w3.org/2000/svg"
   xmlns:svg="http://www.w3.org/2000/svg">
  <defs
     id="defs12">
    <filter
       style="color-interpolation-filters:sRGB;"
       inkscape:label="Drop Shadow"
       id="filter893"
       x="-0.2086426"
       y="-0.16161686"
       width="1.4062065"
       height="1.3146725">
      <feFlood
         flood-opacity="1"
         flood-color="rgb(58,63,94)"
         result="flood"
         id="feFlood883" />
      <feComposite
         in="flood"
         in2="SourceGraphic"
         operator="out"
         result="composite1"
         id="feComposite885" />
      <feGaussianBlur
         in="composite1"
         stdDeviation="15"
         result="blur"
         id="feGaussianBlur887" />
      <feOffset
         dx="0"
         dy="0"
         result="offset"
         id="feOffset889" />
      <feComposite
         in="offset"
         in2="SourceGraphic"
         operator="atop"
         result="composite2"
         id="feComposite891" />
    </filter>
  </defs>
  <sodipodi:namedview
     id="namedview10"
     pagecolor="#505050"
     bordercolor="#eeeeee"
     borderopacity="1"
     inkscape:pageshadow="0"
     inkscape:pageopacity="0"
     inkscape:pagecheckerboard="0"
     showgrid="false"
     inkscape:zoom="1.7050781"
     inkscape:cx="256"
     inkscape:cy="256"
     inkscape:window-width="1716"
     inkscape:window-height="1414"
     inkscape:window-x="3160"
     inkscape:window-y="587"
     inkscape:window-maximized="1"
     inkscape:current-layer="svg8" />
  <path
     d="M0 0h512v512H0z"
     fill="#b90202"
     fill-opacity="1"
     id="path2"
     style="fill:#1b1f21;fill-opacity:0" />
  <g
     class=""
     style="fill:#ff0ec0;fill-opacity:1;filter:url(#filter893)"
     transform="translate(-52.250501,-1.4285947)"
     id="g6">
    <path
       d="m 343.313,22.22 c -57.33,0 -61.26,36.153 -91.125,54.874 C 154.782,42.52 133.115,221.496 169.844,330 c -15.396,31.924 -30.736,75.9 -43.813,134.906 56.828,30.66 119.124,38.655 182.22,9.906 -6.2,-37.715 -14.18,-68.858 -21.97,-95.375 25.025,-12.63 59.594,-14.573 86.5,14.407 0.24,-28.626 -19.022,-40.956 -40.53,-42.25 l -22.03,-47.313 c 42.606,-45.056 74.38,-100.18 57.905,-157.06 C 357.823,108.771 426.329,84.996 490.47,93.471 465.947,72.307 434.48,62.989 404.625,59.595 395.782,37.832 372.009,22.22 343.312,22.22 Z m 10.968,21.936 c 9.808,0 17.783,7.944 17.783,17.75 0,9.807 -7.974,17.75 -17.782,17.75 -9.807,0 -17.75,-7.943 -17.75,-17.75 0,-9.806 7.945,-17.75 17.75,-17.75 z m -58.092,274.25 16.28,34.938 c -11.62,2.698 -22.325,8.217 -29.312,15.687 -3.298,-10.84 -6.498,-20.903 -9.47,-30.28 7.58,-6.45 15.128,-13.253 22.502,-20.344 z"
       fill="#ffffff"
       fill-opacity="1"
       stroke="#ffffff"
       stroke-opacity="1"
       stroke-width="0"
       id="path4"
       style="fill:#ff0ec0;fill-opacity:1" />
  </g>
</svg>
