<?xml version="1.0" encoding="UTF-8" standalone="no"?>
<svg
   width="512" height="512"
   viewBox="0 0 512 512"
   version="1.1"
   id="svg8"
   sodipodi:docname="skunk.svg"
   inkscape:version="1.1.1 (3bf5ae0d25, 2021-09-20)"
   xmlns:inkscape="http://www.inkscape.org/namespaces/inkscape"
   xmlns:sodipodi="http://sodipodi.sourceforge.net/DTD/sodipodi-0.dtd"
   xmlns="http://www.w3.org/2000/svg"
   xmlns:svg="http://www.w3.org/2000/svg">
  <defs
     id="defs12">
    <filter
       style="color-interpolation-filters:sRGB;"
       inkscape:label="Drop Shadow"
       id="filter887"
       x="-0.1607765"
       y="-0.16248002"
       width="1.313016"
       height="1.3163531">
      <feFlood
         flood-opacity="1"
         flood-color="rgb(58,63,94)"
         result="flood"
         id="feFlood877" />
      <feComposite
         in="flood"
         in2="SourceGraphic"
         operator="out"
         result="composite1"
         id="feComposite879" />
      <feGaussianBlur
         in="composite1"
         stdDeviation="15"
         result="blur"
         id="feGaussianBlur881" />
      <feOffset
         dx="0"
         dy="0"
         result="offset"
         id="feOffset883" />
      <feComposite
         in="offset"
         in2="SourceGraphic"
         operator="atop"
         result="composite2"
         id="feComposite885" />
    </filter>
    <filter
       style="color-interpolation-filters:sRGB;"
       inkscape:label="Drop Shadow"
       id="filter937"
       x="-0.059489092"
       y="-0.06012744"
       width="1.1189782"
       height="1.1202549">
      <feFlood
         flood-opacity="1"
         flood-color="rgb(58,63,94)"
         result="flood"
         id="feFlood927" />
      <feComposite
         in="flood"
         in2="SourceGraphic"
         operator="out"
         result="composite1"
         id="feComposite929" />
      <feGaussianBlur
         in="composite1"
         stdDeviation="11.7228"
         result="blur"
         id="feGaussianBlur931" />
      <feOffset
         dx="0"
         dy="0"
         result="offset"
         id="feOffset933" />
      <feComposite
         in="offset"
         in2="SourceGraphic"
         operator="atop"
         result="composite2"
         id="feComposite935" />
    </filter>
  </defs>
  <sodipodi:namedview
     id="namedview10"
     pagecolor="#ffffff"
     bordercolor="#666666"
     borderopacity="1.0"
     inkscape:pageshadow="2"
     inkscape:pageopacity="0.0"
     inkscape:pagecheckerboard="0"
     showgrid="false"
     inkscape:zoom="1.2056723"
     inkscape:cx="250.06795"
     inkscape:cy="318.90921"
     inkscape:window-width="1716"
     inkscape:window-height="1414"
     inkscape:window-x="3160"
     inkscape:window-y="587"
     inkscape:window-maximized="1"
     inkscape:current-layer="svg8" />
  <path
     d="M0 0h512v512H0z"
     fill="#b90202"
     fill-opacity="1"
     id="path2"
     style="fill:#1b1f21;fill-opacity:0" />
  <g
     class=""
     transform="rotate(-90,255.99943,255.99424)"
     id="g6"
     style="fill:#ff0ec0;fill-opacity:1;filter:url(#filter937)">
    <path
       d="m 144.734,22.04 c -5.61,-0.035 -11.163,0.12 -16.634,0.456 -43.77,2.7 -82.904,17.003 -103.862,44.996 -7.506,10.027 -5.682,23.91 2.95,31.42 8.635,7.51 23.004,8.053 36.234,-0.52 22.84,-14.805 47.933,-9.572 64.27,6.172 16.34,15.745 23.736,41.453 7.54,71.145 -19.17,35.143 -32.716,96.153 -20.146,156.526 12.57,60.374 52.968,119.76 139.728,145.772 33.476,10.036 78.825,16.75 121.645,7.666 44.507,-8.788 95.85,-34.758 106.892,-63.11 -9.25,8.885 -19.44,15.14 -30.202,19.79 18.306,-20.92 31.735,-49.732 36.79,-88.174 l 2.53,-19.24 -16.322,10.496 c -10.503,6.755 -20.585,13.403 -30.093,18.396 2.638,-5.872 5.038,-13.22 7.73,-22.777 -11.097,15.19 -23.73,25.355 -38.598,31.472 -9.234,-0.503 -18.353,-4.867 -29.21,-16.097 -11.358,-11.747 -18.12,-32.095 -22.463,-57.666 -4.344,-25.572 -6.46,-55.927 -10.668,-86.877 C 344.425,149.984 326.933,84.013 263.105,50.851 226.15,31.651 184.013,22.274 144.733,22.038 Z m -0.123,18.01 c 36.462,0.255 76.11,9.065 110.197,26.774 56.393,29.3 71.994,87.14 80.203,147.488 4.104,30.175 6.186,60.554 10.758,87.465 1.316,7.753 2.835,15.242 4.693,22.385 -15.448,0.04 -27.254,-8.307 -41.704,-24.717 7.385,30.41 11.99,36.534 25.705,55.55 -28.22,-8.235 -60.64,-34.74 -80.95,-64.063 -3.274,40.047 20.223,71.574 33.275,83.93 -25.176,-14.196 -60.713,-41.536 -84.623,-88.655 -1.016,41.426 11.93,87.732 36.45,116.465 -34.515,-11.536 -64.97,-99.472 -85.42,-127.633 -13.04,33.217 -2.948,89.085 16.072,130.122 -19.628,-22.838 -30.887,-49.375 -36.555,-76.596 -11.524,-55.342 1.75,-113.847 18.325,-144.238 19.55,-35.842 10.915,-71.75 -10.85,-92.726 -21.768,-20.976 -56.854,-27.564 -86.554,-8.315 -8.56,5.55 -12.688,3.732 -14.626,2.045 -1.94,-1.687 -2.76,-3.84 -0.356,-7.053 16.106,-21.514 50.135,-35.324 90.56,-37.817 5.052,-0.312 10.195,-0.45 15.403,-0.414 z"
       fill="#ffffff"
       fill-opacity="1"
       stroke="#ffffff"
       stroke-opacity="1"
       stroke-width="0"
       id="path4"
       style="fill:#ff0ec0;fill-opacity:1" />
  </g>
</svg>
