<?xml version="1.0" encoding="UTF-8" standalone="no"?>
<svg
   width="512" height="512"
   viewBox="0 0 512 512"
   version="1.1"
   id="svg8"
   sodipodi:docname="wisp.svg"
   inkscape:version="1.1.1 (3bf5ae0d25, 2021-09-20)"
   xmlns:inkscape="http://www.inkscape.org/namespaces/inkscape"
   xmlns:sodipodi="http://sodipodi.sourceforge.net/DTD/sodipodi-0.dtd"
   xmlns="http://www.w3.org/2000/svg"
   xmlns:svg="http://www.w3.org/2000/svg">
  <defs
     id="defs12">
    <filter
       style="color-interpolation-filters:sRGB;"
       inkscape:label="Drop Shadow"
       id="filter893"
       x="-0.15678708"
       y="-0.15676421"
       width="1.305249"
       height="1.3052243">
      <feFlood
         flood-opacity="1"
         flood-color="rgb(58,63,94)"
         result="flood"
         id="feFlood883" />
      <feComposite
         in="flood"
         in2="SourceGraphic"
         operator="out"
         result="composite1"
         id="feComposite885" />
      <feGaussianBlur
         in="composite1"
         stdDeviation="15"
         result="blur"
         id="feGaussianBlur887" />
      <feOffset
         dx="0"
         dy="0"
         result="offset"
         id="feOffset889" />
      <feComposite
         in="offset"
         in2="SourceGraphic"
         operator="atop"
         result="composite2"
         id="feComposite891" />
    </filter>
    <filter
       style="color-interpolation-filters:sRGB;"
       inkscape:label="Drop Shadow"
       id="filter1451"
       x="-0.0739835"
       y="-0.073982584"
       width="1.147967"
       height="1.1479652">
      <feFlood
         flood-opacity="1"
         flood-color="rgb(58,63,94)"
         result="flood"
         id="feFlood1441" />
      <feComposite
         in="flood"
         in2="SourceGraphic"
         operator="out"
         result="composite1"
         id="feComposite1443" />
      <feGaussianBlur
         in="composite1"
         stdDeviation="14.95"
         result="blur"
         id="feGaussianBlur1445" />
      <feOffset
         dx="0"
         dy="0"
         result="offset"
         id="feOffset1447" />
      <feComposite
         in="offset"
         in2="SourceGraphic"
         operator="atop"
         result="composite2"
         id="feComposite1449" />
    </filter>
  </defs>
  <sodipodi:namedview
     id="namedview10"
     pagecolor="#505050"
     bordercolor="#eeeeee"
     borderopacity="1"
     inkscape:pageshadow="0"
     inkscape:pageopacity="0"
     inkscape:pagecheckerboard="0"
     showgrid="false"
     inkscape:zoom="1.7050781"
     inkscape:cx="256"
     inkscape:cy="256"
     inkscape:window-width="1716"
     inkscape:window-height="1414"
     inkscape:window-x="3160"
     inkscape:window-y="587"
     inkscape:window-maximized="1"
     inkscape:current-layer="svg8" />
  <path
     d="M0 0h512v512H0z"
     fill="#b90202"
     fill-opacity="1"
     id="path2"
     style="fill:#1b1f21;fill-opacity:0" />
  <path
     fill="#000000"
     d="m 256.0395,13.511504 -22.315,51.056001 c -42.626,4.47 -81.168,22.782 -111.04,50.359995 l -16.64,-16.639995 -13.213996,13.215995 16.743996,16.744 c -26.083996,29.167 -43.484996,66.252 -48.116996,107.174 l -47.944,20.956 47.717,20.853 c 4.285,42.03 22.02,80.11501 48.835996,109.87 l -17.234996,17.237 13.213996,13.21501 17.18,-17.18001 c 30.096,27.574 68.902,45.784 111.78,49.99201 l 21.034,48.12499 21.224,-48.558 c 40.46,-4.82999 77.114,-22.153 106.002,-47.98799 l 15.61,15.61 13.214,-13.21601 -15.504,-15.50399 c 27.326,-29.60001 45.554,-67.712 50.235,-109.875 l 51.666,-22.58301 -51.907,-22.68699 c -5.02,-41.05301 -22.904,-78.167 -49.49,-107.18401 l 15,-15 -13.212,-13.216995 -15.055,15.055995 C 355.1565,87.510505 318.7605,70.105505 278.5565,65.033504 l -22.519,-51.523 z m -21.452,69.752001 21.452,49.078005 21.26,-48.640005 c 35.623,4.698001 67.85,20.063995 93.368,42.796005 l -18.664,18.664 c 4.716,4.07999 9.17,8.457 13.342,13.08799 l 18.606,-18.605 c 23.548,25.95401 39.397,59.022 43.996,95.62501 l -48.287,21.10499 48.52,21.207 c -4.306,37.63401 -20.492,71.617 -44.733,98.11001 l -17.45,-17.45201 c -4.145,4.66001 -8.575,9.05701 -13.263,13.168 l 17.38,17.38001 c -25.155,22.216 -56.75,37.31299 -91.66,42.152 l -22.413,-51.282 -22.618,51.746 c -37.173,-4.36001 -70.762,-20.32 -97.054,-44.17501 l 17.172,-17.17 c -4.632,-4.175 -9.005,-8.63 -13.086,-13.345 l -17.235,17.23401 c -23.037,-25.86 -38.509996,-58.61 -42.977996,-94.8 L 132.3425,256.3775 80.490504,233.7145 c 4.74,-35.168 19.881996,-67 42.237996,-92.313 l 18.374,18.374 c 4.112,-4.69 8.51,-9.116 13.17,-13.25999 l -18.45,-18.45001 c 26.647,-24.38 60.872,-40.609995 98.766,-44.801995 z m 22.555,69.199995 c -58.85,0 -106.355,47.504 -106.355,106.353 0,58.84701 47.506,106.35401 106.355,106.35401 58.85,0 106.356,-47.507 106.356,-106.355 0,-58.85001 -47.506,-106.35501 -106.355,-106.35501 z m -1.596,41.235 c 6.653,0 13.077,1.015 19.13,2.89001 -9.224,1.82699 -16.944,7.813 -21.138,15.924 -24.378,1.24499 -43.942,21.57799 -43.942,46.24999 0,25.466 20.844,46.31201 46.31,46.31201 25.467,0 46.313,-20.84601 46.313,-46.31201 0,-3.337 -0.365,-6.59 -1.045,-9.73299 6.114,-5.57501 9.95,-13.60601 9.95,-22.534 0,-0.49 -0.015,-0.977 -0.038,-1.46 5.98,9.822 9.43,21.34 9.43,33.63399 0,35.772 -29.2,64.97001 -64.97,64.97001 -35.772,0 -64.97,-29.19801 -64.97,-64.97001 0,-35.772 29.198,-64.97 64.97,-64.97 z m -4.964,37.95 c 2.45,14.385 14.968,25.34 30.05,25.34 0.953,0 1.896,-0.05 2.827,-0.136 0.043,0.63001 0.07,1.267 0.07,1.91 0,15.366 -12.256,27.62301 -27.622,27.62301 -15.366,0 -27.62,-12.25701 -27.62,-27.62301 0,-13.54199 9.52,-24.663 22.296,-27.113 z"
     id="path1243"
     style="stroke-width:1;fill:#ff0ec0;fill-opacity:1;filter:url(#filter1451)" />
</svg>
