<?xml version="1.0" encoding="UTF-8" standalone="no"?>
<svg
   style="height: 512px; width: 512px;"
   viewBox="0 0 512 512"
   version="1.1"
   id="svg8"
   sodipodi:docname="cybermatrix_gang_jazzler.svg"
   inkscape:version="1.2.2 (b0a8486541, 2022-12-01)"
   xmlns:inkscape="http://www.inkscape.org/namespaces/inkscape"
   xmlns:sodipodi="http://sodipodi.sourceforge.net/DTD/sodipodi-0.dtd"
   xmlns="http://www.w3.org/2000/svg"
   xmlns:svg="http://www.w3.org/2000/svg">
  <defs
     id="defs12">
    <filter
       style="color-interpolation-filters:sRGB;"
       inkscape:label="Drop Shadow"
       id="filter859"
       x="-0.077494516"
       y="-0.076295109"
       width="1.154989"
       height="1.1525902">
      <feFlood
         flood-opacity="1"
         flood-color="rgb(58,63,94)"
         result="flood"
         id="feFlood849" />
      <feComposite
         in="flood"
         in2="SourceGraphic"
         operator="out"
         result="composite1"
         id="feComposite851" />
      <feGaussianBlur
         in="composite1"
         stdDeviation="15"
         result="blur"
         id="feGaussianBlur853" />
      <feOffset
         dx="0"
         dy="0"
         result="offset"
         id="feOffset855" />
      <feComposite
         in="offset"
         in2="SourceGraphic"
         operator="atop"
         result="composite2"
         id="feComposite857" />
    </filter>
  </defs>
  <sodipodi:namedview
     id="namedview10"
     pagecolor="#ffffff"
     bordercolor="#666666"
     borderopacity="1.0"
     inkscape:showpageshadow="2"
     inkscape:pageopacity="0.0"
     inkscape:pagecheckerboard="0"
     inkscape:deskcolor="#d1d1d1"
     showgrid="false"
     inkscape:zoom="0.4609375"
     inkscape:cx="137.76271"
     inkscape:cy="256"
     inkscape:window-width="1716"
     inkscape:window-height="1402"
     inkscape:window-x="3160"
     inkscape:window-y="684"
     inkscape:window-maximized="1"
     inkscape:current-layer="svg8" />
  <path
     d="M0 0h512v512H0z"
     fill="#1b1f21"
     fill-opacity="0"
     id="path2" />
  <g
     class=""
     style="fill:#ff0ec0;fill-opacity:1;filter:url(#filter859)"
     transform="translate(0,0)"
     id="g6">
    <path
       d="M91.773 25.994C189.313 167.854 104.52 157.17 65.64 169.2c38.8 52.918 16.554 102.644-44.503 133.788 52.5 21.085 122.25 30.452 42.027 141.707 79.578-45.024 134.707-48.82 127.13 53.15 57.795-58.495 133.043-87.973 208.054-38.53-8.558-73.916 12.66-106.284 86.88-74.4-79.58-73.01-46.696-116.363.458-158.83-81.492-3.232-92.92-65.497-89.922-139.92-49.183 53.518-86.497 47.756-104.002-56.962-33.806 76.857-79.335 125.91-199.99-3.21zM202.15 135.336c16.1.356 25.565 12.198 34.666 24.678L177.312 263.08c-20.422 1.985-35.31-4.577-41.787-24.123l59.51-103.074c1.93-.326 3.772-.503 5.537-.545.534-.013 1.06-.014 1.578-.002zm69.037 11.197c16.1.352 25.567 12.2 34.668 24.676L238.947 290.24c-20.423 1.985-35.31-4.586-41.785-24.127l66.91-119.03c1.93-.327 3.772-.507 5.537-.55.533-.013 1.058-.013 1.577-.002zm58.704 32.05c16.102.357 25.567 12.198 34.67 24.673l-65.945 117.547c-20.423 1.98-35.31-4.58-41.783-24.123l65.94-117.55c1.93-.325 3.773-.502 5.54-.544.532-.013 1.06-.013 1.58-.002zm46.342 55.233c16.773.098 26.746 11.977 36.354 24.485l-55.557 96.227c-20.026 1.297-34.856-5.367-41.786-24.125l55.56-96.224c1.887-.255 3.693-.372 5.428-.362zM127.55 271.713l105.83 47.52c3.015 21.69-2.782 38.788-21.958 48.91L105.588 320.62c-4.508-21.618 8.273-35.485 21.96-48.907z"
       fill="#ffffff"
       fill-opacity="1"
       id="path4"
       style="fill:#ff0ec0;fill-opacity:1" />
  </g>
</svg>
