<?xml version="1.0" encoding="UTF-8" standalone="no"?>
<svg
   style="height: 512px; width: 512px;"
   viewBox="0 0 512 512"
   version="1.1"
   id="svg892"
   sodipodi:docname="wyzard-technologies_romanova-cyberlegs.svg"
   inkscape:version="1.2.2 (b0a8486541, 2022-12-01)"
   xmlns:inkscape="http://www.inkscape.org/namespaces/inkscape"
   xmlns:sodipodi="http://sodipodi.sourceforge.net/DTD/sodipodi-0.dtd"
   xmlns="http://www.w3.org/2000/svg"
   xmlns:svg="http://www.w3.org/2000/svg">
  <sodipodi:namedview
     id="namedview894"
     pagecolor="#ffffff"
     bordercolor="#666666"
     borderopacity="1.0"
     inkscape:showpageshadow="2"
     inkscape:pageopacity="0.0"
     inkscape:pagecheckerboard="0"
     inkscape:deskcolor="#d1d1d1"
     showgrid="false"
     inkscape:zoom="1.3037281"
     inkscape:cx="234.328"
     inkscape:cy="273.8301"
     inkscape:window-width="1716"
     inkscape:window-height="1402"
     inkscape:window-x="3160"
     inkscape:window-y="684"
     inkscape:window-maximized="1"
     inkscape:current-layer="svg892" />
  <defs
     id="defs884">
    <filter
       id="shadow-1"
       height="1.3955371"
       width="1.2361659"
       x="-0.11808297"
       y="-0.19776857">
      <feFlood
         flood-color="rgba(58, 63, 94, 1)"
         result="flood"
         id="feFlood873" />
      <feComposite
         in="flood"
         in2="SourceGraphic"
         operator="out"
         result="composite"
         id="feComposite875" />
      <feGaussianBlur
         in="composite"
         stdDeviation="15"
         result="blur"
         id="feGaussianBlur877" />
      <feOffset
         dx="0"
         dy="0"
         result="offset"
         id="feOffset879" />
      <feComposite
         in2="SourceGraphic"
         in="offset"
         operator="atop"
         id="feComposite881" />
    </filter>
    <filter
       style="color-interpolation-filters:sRGB;"
       inkscape:label="Drop Shadow"
       id="filter1724"
       x="-0.13003353"
       y="-0.070312363"
       width="1.2600671"
       height="1.1406247">
      <feFlood
         flood-opacity="1"
         flood-color="rgb(58,63,94)"
         result="flood"
         id="feFlood1714" />
      <feComposite
         in="flood"
         in2="SourceGraphic"
         operator="out"
         result="composite1"
         id="feComposite1716" />
      <feGaussianBlur
         in="composite1"
         stdDeviation="15"
         result="blur"
         id="feGaussianBlur1718" />
      <feOffset
         dx="0"
         dy="0"
         result="offset"
         id="feOffset1720" />
      <feComposite
         in="offset"
         in2="SourceGraphic"
         operator="atop"
         result="composite2"
         id="feComposite1722" />
    </filter>
  </defs>
  <path
     d="M0 0h512v512H0z"
     fill="#1b1f21"
     fill-opacity="0"
     id="path886" />
  <g
     id="g1176"
     transform="matrix(0.91019399,0,0,0.91019399,35.972576,20.05516)"
     style="fill:#ff0ec0;fill-opacity:1;filter:url(#filter1724)">
	<g
   id="g1174"
   style="fill:#ff0ec0;fill-opacity:1">
		<g
   id="g1172"
   style="fill:#ff0ec0;fill-opacity:1">
			<path
   d="M 186.884,68.267 H 345.348 C 325.166,36.54 305.523,6.332 303.927,3.883 302.348,1.459 299.66,0 296.776,0 H 126.109 c -3.558,0 -6.741,2.202 -7.987,5.53 -1.254,3.328 -0.307,7.074 2.355,9.421 12.109,10.607 13.577,11.494 14.225,11.878 18.919,11.349 35.866,26.334 52.182,41.438 z"
   id="path1168"
   style="fill:#ff0ec0;fill-opacity:1" />

			<path
   d="m 389.888,141.568 c -3.26,-7.262 -17.638,-30.703 -33.732,-56.235 H 205.304 c 9.199,8.465 18.671,16.896 28.604,24.636 4.932,3.84 10.095,7.433 15.258,11.008 5.82,4.036 11.307,7.851 16.503,12.049 18.466,14.925 22.758,24.038 22.374,27.068 -0.154,1.212 -2.415,2.381 -3.371,2.825 -35.354,16.29 -43.938,38.298 -61.047,82.133 l -3.063,7.834 c -18.859,48.068 -48.341,85.308 -70.11,88.542 -8.337,1.237 -20.062,3.908 -25.574,12.749 -5.76,9.25 -2.244,20.258 1.63,32.418 6.05,18.97 1.34,47.292 -0.247,55.526 -2.628,13.602 2.534,44.757 15.036,59.913 6.81,8.235 14.054,9.967 18.944,9.967 11.341,0 18.825,-2.603 22.878,-7.945 3.021,-3.985 3.226,-8.525 2.364,-11.58 -3.379,-11.23 -4.147,-23.509 -2.295,-36.48 3.695,-25.822 16.555,-50.338 27.349,-68.821 11.674,-19.977 26.206,-39.646 43.187,-58.462 11.119,-12.331 23.142,-24.337 34.765,-35.942 4.787,-4.779 9.566,-9.557 14.31,-14.37 l 2.364,-2.398 c 18.68,-18.961 37.99,-38.562 58.01,-56.585 l 0.802,-0.717 c 6.554,-5.897 13.338,-11.989 18.893,-19.524 12.234,-16.564 15.059,-39.715 7.02,-57.609 z"
   id="path1170"
   style="fill:#ff0ec0;fill-opacity:1" />

		</g>

	</g>

</g>
</svg>
