<svg style="height: 512px; width: 512px;" xmlns="http://www.w3.org/2000/svg" viewBox="0 0 512 512"><g class="" style="" transform="translate(0,0)"><g><path d="M256 54.28C131.397 54.28 30 155.678 30 280.28C30 328.144 44.975 372.573 70.465 409.156L100.255 389.296C83.067 364.751 71.547 335.934 67.559 304.719L96 304.719L96 286.719L66.115 286.719C66.045 284.579 66 282.435 66 280.279C66 234.901 81.816 193.309 108.236 160.681L125.636 178.081L138.363 165.354L120.23 147.222C152.735 114.057 197.335 92.8 247 90.498L247 119.718L265 119.718L265 90.5C314.665 92.802 359.265 114.06 391.77 147.225L373.637 165.357L386.363 178.084L403.763 160.684C430.183 193.314 446 234.904 446 280.284C446 282.438 445.956 284.584 445.885 286.721L416 286.721L416 304.721L444.44 304.721C440.453 335.935 428.933 364.751 411.746 389.296L441.536 409.156C467.025 372.574 482 328.146 482 280.282C482 155.68 380.603 54.282 256 54.282Z" class="" fill="#892378" fill-opacity="1"></path><path d="M271.83 120.51C308.318 140.637 335.426 176.994 346.438 220.572L396.404 203.004C395.031 200.63 393.597 198.292 392.104 195.992L386.969 201.145L356.601 170.855L350.841 165.109L358.691 157.235C334.084 136.544 303.815 123.746 271.829 120.509Z" class="" fill="#f5a623" fill-opacity="1"></path><path d="M427.98 210.354L252.648 270.954C240.505 272.618 231 283.155 231 295.72C231 309.42 242.3 320.72 256 320.72C262.77 320.72 268.95 317.956 273.473 313.512L427.98 210.354Z" class="" fill="#892378" fill-opacity="1"></path><path d="M411.467 242.676L350.754 283.396C345.92 326.55 325.485 365.658 294.154 391.719L370.211 391.719C389.007 372.559 402.681 348.978 409.974 323.147L398.48 323.147L398.48 270.632L415.502 270.632C414.984 261.212 413.634 251.857 411.467 242.675Z" class="selected" fill="#d0021b" fill-opacity="1"></path><path d="M128 421.72L128 457.72L384 457.72L384 421.72L128 421.72Z" class="" fill="#892378" fill-opacity="1"></path></g></g></svg>