<svg width="512" height="512" xml:space="preserve" xmlns="http://www.w3.org/2000/svg"><defs><filter style="color-interpolation-filters:sRGB" id="a" x="-.081" y="-.065" width="1.162" height="1.13"><feFlood flood-opacity="1" flood-color="#3A3F5E" result="flood"/><feComposite in="flood" in2="SourceGraphic" operator="out" result="composite1"/><feGaussianBlur in="composite1" stdDeviation="15" result="blur"/><feOffset result="offset"/><feComposite in="offset" in2="SourceGraphic" operator="atop" result="composite2"/></filter></defs><path d="M0 0h512v512H0Z" fill="#b90202" style="fill:#1b1f21;fill-opacity:0"/><g style="fill:#fff;filter:url(#a)"><g style="fill:#fff"><path style="fill:#ff0ec0;stroke-width:.500324;fill-opacity:1" d="m198.26 54.494-56.174.39c-13 3.108-29.067 22.49-33.887 38.604 0 0-13.931 99.642-13.931 163.01 0 63.36 13.931 162.984 13.931 162.984 6.492 21.26 17.028 38.024 38.014 38.024H366.73c20.995 0 31.36-16.534 38.006-38.024 0 0 13.598-104.692 12.975-162.984-.358-65.27-12.975-163.01-12.975-163.01-7.183-22.172-17.01-38.013-38.006-38.013l-168.47-.98zm-40.197 48.08h195.214c8.292.009 15.024 6.722 15.024 15.014v165.928c0 8.309-6.732 15.023-15.024 15.023H158.063c-8.301 0-15.024-6.714-15.024-15.023V117.588c0-8.3 6.723-15.014 15.024-15.014zm59.404 12.602-46.272 46.273 9.74 9.744 18.239-18.24 31.863 31.713 9.723-9.758-31.846-31.697 18.295-18.291-9.742-9.744zm77.064 0-9.74 9.744 18.293 18.29-31.844 31.698 9.723 9.758 31.863-31.713 18.238 18.24 9.74-9.744-46.273-46.273zm-41.26 73.37c-4.965 1.103-8.687 5.561-8.687 10.911s3.723 9.807 8.687 10.908v-6.33a5.207 5.207 0 0 1-2.716-4.578 5.213 5.213 0 0 1 2.716-4.58v-6.33zm4.764 0v6.331a5.21 5.21 0 0 1 2.717 4.58 5.21 5.21 0 0 1-2.717 4.578v6.33c4.968-1.101 8.688-5.561 8.688-10.908 0-5.347-3.723-9.808-8.688-10.91zm-26.998 25.696-31.863 31.717-18.238-18.24-9.74 9.744 46.27 46.273 9.743-9.744-18.295-18.29 31.846-31.698-9.723-9.762zm49.926 0-9.723 9.762 31.844 31.697-18.293 18.291 9.74 9.744 46.274-46.273-9.74-9.744-18.239 18.24-31.863-31.717zm-24.965 130.824c13.99 0 25.31 11.322 25.31 25.313-.008 14-11.328 25.31-25.31 25.31s-25.31-11.31-25.31-25.31c0-13.99 11.328-25.313 25.31-25.313zm-105.742 11.082h54.582c7.857 0 14.238 6.365 14.238 14.23-.008 7.866-6.39 14.247-14.238 14.247h-54.582c-7.866 0-14.236-6.38-14.236-14.246 0-7.866 6.37-14.23 14.236-14.23zm160.17 0h54.572c7.866 0 14.246 6.365 14.246 14.23 0 7.866-6.389 14.247-14.246 14.247h-54.572c-7.857 0-14.238-6.38-14.238-14.246 0-7.866 6.38-14.23 14.238-14.23z" transform="translate(.002) scale(.99999)"/></g></g></svg>