<svg width="512" height="512" xml:space="preserve" xmlns="http://www.w3.org/2000/svg"><defs><filter style="color-interpolation-filters:sRGB" id="a" x="-.187" y="-.189" width="1.364" height="1.368"><feFlood flood-opacity="1" flood-color="#3A3F5E" result="flood"/><feComposite in="flood" in2="SourceGraphic" operator="out" result="composite1"/><feGaussianBlur in="composite1" stdDeviation="15" result="blur"/><feOffset result="offset"/><feComposite in="offset" in2="SourceGraphic" operator="atop" result="composite2"/></filter></defs><path d="M0 0h512v512H0Z" fill="#b90202" style="fill:#1b1f21;fill-opacity:0"/><g style="fill:#ff0ec0;fill-opacity:1;filter:url(#a)" transform="translate(-17.36 -61.694) scale(1.15518)"><path style="fill:#ff0ec0;stroke-width:1.15518;fill-opacity:1" d="M204.219 19.078c5.15 27.232 33.526 45.413 46.699 51.492 20.86 9.628 80.454 24.335 102.064-13.408 5.765 14.77 1.875 137.619-32.189 168.854-17.26-16.457-42.176-26.79-69.875-26.79-22.744 0-43.602 6.967-59.895 18.567-21.508-34.521-62.2-57.83-108.9-57.83-22.39 0-43.392 5.382-61.58 14.766v12.068a1.55 1.55 0 0 0-.066-.014v296.49s86.415 4.47 93.328-95.353a.057.057 0 0 1-.004-.018c21.022 30.528 88 53.765 129.273 52.395 64.83-2.15 150.974-4.992 223.95-74.95 6.743-6.71 12.153-14.636 15.828-23.404v-.004c26.884-55.924-30.57-239.755-64.12-322.86H204.22zm25.777 212.285 75.873.442c9.456 0 13.882 7.133 17.117 17.119 0 0 5.683 44.02 5.844 73.416.28 26.253-5.844 73.402-5.844 73.402-2.993 9.678-7.661 17.125-17.117 17.125h-99.314c-9.452 0-14.196-7.55-17.12-17.125 0 0-6.275-44.867-6.275-73.402 0-28.54 6.276-73.416 6.276-73.416 2.17-7.258 9.407-15.988 15.261-17.387l25.3-.174zm-18.103 21.653a6.76 6.76 0 0 0-6.766 6.761v74.73a6.76 6.76 0 0 0 6.766 6.766h87.918a6.763 6.763 0 0 0 6.765-6.765v-74.73c0-3.735-3.03-6.758-6.765-6.762h-87.918zm26.753 5.675 4.387 4.39-8.238 8.237 14.342 14.276-4.38 4.394-14.35-14.283-8.214 8.215-4.386-4.389 20.84-20.84zm34.708 0 20.84 20.84-4.387 4.389-8.213-8.215-14.352 14.283-4.379-4.394 14.342-14.276-8.238-8.238 4.387-4.389zm-18.583 33.045v2.85a2.348 2.348 0 0 0 0 4.125v2.851a5.023 5.023 0 0 1-3.912-4.914 5.02 5.02 0 0 1 3.912-4.912zm2.145 0a5.023 5.023 0 0 1 3.914 4.912 5.024 5.024 0 0 1-3.914 4.914v-2.851a2.348 2.348 0 0 0 0-4.125v-2.85zm-12.158 11.573 4.379 4.396-14.342 14.275 8.238 8.237-4.387 4.388-20.84-20.84 4.387-4.388 8.213 8.215 14.352-14.283zm22.484 0 14.352 14.283 8.213-8.215 4.386 4.389-20.84 20.84-4.386-4.39 8.238-8.236-14.342-14.275 4.38-4.396zM256 362.229c-6.297 0-11.4 5.097-11.4 11.398 0 6.305 5.103 11.4 11.4 11.4 6.297 0 11.395-5.095 11.398-11.4A11.391 11.391 0 0 0 256 362.229zm-47.623 4.99a6.407 6.407 0 0 0-6.412 6.408 6.414 6.414 0 0 0 6.412 6.416h24.582c3.535 0 6.408-2.874 6.412-6.416a6.41 6.41 0 0 0-6.412-6.408h-24.582zm72.135 0a6.41 6.41 0 0 0-6.412 6.408 6.417 6.417 0 0 0 6.412 6.416h24.578a6.42 6.42 0 0 0 6.416-6.416 6.41 6.41 0 0 0-6.416-6.408h-24.578z" transform="translate(15.028 53.407) scale(.86567)"/></g></svg>