<svg width="512" height="512" xml:space="preserve" xmlns="http://www.w3.org/2000/svg"><defs><filter style="color-interpolation-filters:sRGB" id="a" x="-.386" y="-.176" width="1.772" height="1.352"><feFlood flood-opacity="1" flood-color="#3A3F5E" result="flood"/><feComposite in="flood" in2="SourceGraphic" operator="out" result="composite1"/><feGaussianBlur in="composite1" stdDeviation="3.011" result="blur"/><feOffset result="offset"/><feComposite in="offset" in2="SourceGraphic" operator="atop" result="composite2"/></filter></defs><path d="M0 0h512v512H0Z" fill="#b90202" style="fill:#1b1f21;fill-opacity:0"/><g style="fill:#ff0ec0;fill-opacity:1;filter:url(#a)" transform="translate(31.828 34.212) scale(11.11412)"><g style="fill:#ff0ec0;fill-opacity:1"><path style="stroke-width:11.3123;fill:#ff0ec0;fill-opacity:1" d="M214.172 28.12c-15.622 0-28.28 12.658-28.28 28.28v43.881h-5.656c-15.622 0-28.28 12.657-28.28 28.28V455.6c0 15.622 12.658 28.28 28.28 28.28h151.528c15.633 0 28.28-12.658 28.28-28.28V128.56c0-15.61-12.647-28.279-28.28-28.279h-5.657v-43.88c0-15.623-12.645-28.282-28.279-28.282h-83.656zm6.02 30.157h26.402V84.68H220.19V58.277zm45.247 0h26.405V84.68h-26.405V58.277zM256 160.4c13.178 0 23.9 10.723 23.9 23.9 0 8.807-4.842 16.429-11.95 20.575v4.53c27.239 5.55 47.8 29.689 47.8 58.544 0 10.992-3.035 21.266-8.234 30.123l7.82 6.705c2.046-.572 4.162-.978 6.389-.978 13.178 0 23.9 10.722 23.9 23.9 0 13.178-10.722 23.9-23.9 23.9-13.179 0-23.9-10.722-23.9-23.9 0-2.002.32-3.917.786-5.777l-7.066-6.057c-9.948 7.4-22.223 11.834-35.545 11.834-13.322 0-25.598-4.436-35.545-11.836l-7.066 6.059c.466 1.86.787 3.775.787 5.777 0 13.178-10.722 23.9-23.9 23.9-13.179 0-23.901-10.722-23.901-23.9 0-13.178 10.722-23.9 23.9-23.9 2.227 0 4.342.406 6.39.978l7.82-6.705c-5.2-8.857-8.235-19.13-8.235-30.123 0-28.855 20.561-52.994 47.8-58.545v-4.529c-7.108-4.146-11.95-11.768-11.95-20.574 0-13.178 10.722-23.9 23.9-23.9zm0 17.924a5.973 5.973 0 0 0-5.975 5.975c0 3.3 2.674 5.974 5.975 5.974a5.974 5.974 0 1 0 0-11.95zm-11.95 55.867c-13.9 4.937-23.9 18.184-23.9 33.758 0 5.036 1.054 9.828 2.936 14.18l9.8-8.4c-.465-1.86-.786-3.776-.786-5.778 0-8.806 4.842-16.43 11.95-20.576v-13.184zm23.9 0v13.184c7.108 4.146 11.95 11.768 11.95 20.574 0 2.003-.32 3.92-.787 5.78l9.801 8.4a35.635 35.635 0 0 0 2.936-14.18c0-15.574-10-28.82-23.9-33.758zM256 261.973a5.975 5.975 0 0 0-5.975 5.976c0 3.3 2.674 5.975 5.975 5.975a5.976 5.976 0 0 0 0-11.951zm-6.389 28.9-10.263 8.797A35.602 35.602 0 0 0 256 303.799a35.605 35.605 0 0 0 16.652-4.13l-10.263-8.796c-2.047.573-4.162.977-6.389.977-2.227 0-4.342-.404-6.389-.977zm-59.336 30.85a5.975 5.975 0 0 0-5.974 5.976 5.974 5.974 0 1 0 11.95 0 5.977 5.977 0 0 0-5.976-5.976zm131.45 0a5.975 5.975 0 0 0-5.975 5.976 5.974 5.974 0 1 0 11.949 0c0-3.3-2.674-5.976-5.974-5.976z" transform="translate(-2.864 -3.078) scale(.08998)"/></g></g></svg>