<svg xml:space="preserve" width="512" height="512" xmlns="http://www.w3.org/2000/svg"><defs><filter style="color-interpolation-filters:sRGB" id="a" x="-.211" y="-.234" width="1.411" height="1.455"><feFlood flood-opacity="1" flood-color="#3A3F5E" result="flood"/><feComposite in="flood" in2="SourceGraphic" operator="out" result="composite1"/><feGaussianBlur in="composite1" stdDeviation="15" result="blur"/><feOffset result="offset"/><feComposite in="offset" in2="SourceGraphic" operator="atop" result="composite2"/></filter></defs><path d="M0 0h512v512H0Z" fill="#b90202" style="fill:#1b1f21;fill-opacity:0"/><g transform="translate(45.081 45.08) scale(1.17177)" style="fill:#ff0ec0;fill-opacity:1;filter:url(#a)"><path style="fill:#ff0ec0;fill-opacity:1" d="M149.535 200.125h60.932v25.384h-60.932z"/><path d="M345 67.129h-84c-7.25 0-7.053-4.879-7.053-4.879V37.266c0-11.028-8.972-20-20-20H126.053c-11.028 0-20 8.972-20 20V62s.197 5.13-6.303 5.13H15c-8.271 0-15 6.729-15 14.999v98.585c0 8.271 6.729 14.999 15 14.999 0 0 10 .787 10 10.787v121.235c0 8.271 6.729 15 15 15h280c8.271 0 15-6.729 15-15V208c0-11.5 10-12.287 10-12.287 8.271 0 15-6.729 15-14.999V82.129c0-8.271-6.729-15-15-15zm-114.535 158.38c0 11.028-8.972 20-20 20h-60.93c-11.028 0-20-8.972-20-20v-25.384c0-11.028 8.972-20 20-20h60.93c11.028 0 20 8.972 20 20zM133 67.129c-7 0-6.947-5.379-6.947-5.379V37.265h107.894l.001 25.484s.802 4.379-5.198 4.379l-95.75.001z" style="fill:#ff0ec0;fill-opacity:1"/></g></svg>