<svg width="512" height="512" xml:space="preserve" xmlns="http://www.w3.org/2000/svg"><defs><filter style="color-interpolation-filters:sRGB" id="a" x="-.084" y="-.086" width="1.164" height="1.167"><feFlood flood-opacity="1" flood-color="#3A3F5E" result="flood"/><feComposite in="flood" in2="SourceGraphic" operator="out" result="composite1"/><feGaussianBlur in="composite1" stdDeviation="30" result="blur"/><feOffset result="offset"/><feComposite in="offset" in2="SourceGraphic" operator="atop" result="composite2"/></filter></defs><path d="M0 0h512v512H0Z" fill="#b90202" style="fill:#1b1f21;fill-opacity:0"/><g style="fill:#ff0ec0;fill-opacity:1;filter:url(#a)" transform="translate(66.425 66.425) scale(.41876)"><path style="fill:#ff0ec0;fill-opacity:1" d="M408.1 169.35h89.201v371.6H408.1zm-42.7-125c0-19.3-15.7-35-35-35H227c-19.3 0-35 15.7-35 35v90.9h173.4zm-51.6 547.2c0-28.5 23.1-51.601 51.6-51.601v-370.6H140.3c-19.3 0-35 15.7-35 35v81.7c0 81.5-18 162-52.6 235.8C18 595.65.1 676.15.1 757.65v29.5h313.8v-195.6zM0 861.05c0 19.3 15.7 35 35 35h243.8c19.3 0 35-15.7 35-35v-44.9H0Zm713.4-816.7c0-19.3-15.701-35-35-35H574.9c-19.301 0-35 15.7-35 35v90.9h173.4v-90.9zm192 713.3c0-81.5-18-162-52.6-235.8-34.8-73.8-52.7-154.3-52.7-235.8v-81.7c0-19.3-15.699-35-35-35H539.9v370.6c28.5 0 51.6 23.101 51.6 51.601v195.5h313.801v-29.4h.099zm-313.8 103.4c0 19.3 15.701 35 35 35h243.8c19.299 0 35-15.7 35-35v-44.9H591.6Z"/></g></svg>