<svg height="512" width="512" xmlns="http://www.w3.org/2000/svg"><defs><filter style="color-interpolation-filters:sRGB" id="a" x="-.069" y="-.034" width="1.137" height="1.069"><feFlood flood-opacity="1" flood-color="#3A3F5E" result="flood"/><feComposite in="flood" in2="SourceGraphic" operator="out" result="composite1"/><feGaussianBlur in="composite1" stdDeviation="15" result="blur"/><feOffset result="offset"/><feComposite in="offset" in2="SourceGraphic" operator="atop" result="composite2"/></filter></defs><path d="M0 0h512v512H0Z" fill="#b90202" style="fill:#1b1f21;fill-opacity:0"/><g transform="translate(6.475 6.475) scale(.41587)" style="fill:#ff0ec0;fill-opacity:1;filter:url(#a)"><path d="M600 487.5c41.25 0 75-33.75 75-75s-33.75-75-75-75-75 33.75-75 75 33.75 75 75 75zm0-112.5c20.625 0 37.5 16.875 37.5 37.5S620.625 450 600 450s-37.5-16.875-37.5-37.5S579.375 375 600 375zm37.5 412.5c0 20.711-16.789 37.5-37.5 37.5s-37.5-16.789-37.5-37.5S579.289 750 600 750s37.5 16.789 37.5 37.5m112.5 300h75v37.5h-75z" style="fill:#ff0ec0;fill-opacity:1"/><path d="M600 975c103.12 0 187.5-84.375 187.5-187.5S703.125 600 600 600s-187.5 84.375-187.5 187.5S496.875 975 600 975Zm0-337.5c82.5 0 150 67.5 150 150h-37.5c0-61.875-50.625-112.5-112.5-112.5Zm0 75c41.25 0 75 33.75 75 75s-33.75 75-75 75-75-33.75-75-75 33.75-75 75-75zm-225 375h75v37.5h-75z" style="fill:#ff0ec0;fill-opacity:1"/><path d="M337.5 1050h525V262.5h-525zM600 300c61.875 0 112.5 50.625 112.5 112.5S661.875 525 600 525s-112.5-50.625-112.5-112.5S538.125 300 600 300Zm0 262.5c123.75 0 225 101.25 225 225s-101.25 225-225 225-225-101.25-225-225 101.25-225 225-225zM337.5 75v150h525V75ZM825 187.5h-37.5V150h-375v37.5H375v-75h450z" style="fill:#ff0ec0;fill-opacity:1"/></g></svg>