<?xml version="1.0" encoding="UTF-8" standalone="no"?>
<!-- Generator: Adobe Illustrator 19.0.0, SVG Export Plug-In . SVG Version: 6.00 Build 0)  -->

<svg
   version="1.1"
   id="Layer_1"
   x="0px"
   y="0px"
   viewBox="0 0 512.00001 512.00001"
   xml:space="preserve"
   sodipodi:docname="chipware_socket.svg"
   width="512"
   height="512"
   inkscape:version="1.2.1 (9c6d41e410, 2022-07-14)"
   xmlns:inkscape="http://www.inkscape.org/namespaces/inkscape"
   xmlns:sodipodi="http://sodipodi.sourceforge.net/DTD/sodipodi-0.dtd"
   xmlns="http://www.w3.org/2000/svg"
   xmlns:svg="http://www.w3.org/2000/svg"><defs
   id="defs53"><filter
   style="color-interpolation-filters:sRGB;"
   inkscape:label="Drop Shadow"
   id="filter997"
   x="-0.16671534"
   y="-0.16849731"
   width="1.3245783"
   height="1.3280689"><feFlood
     flood-opacity="1"
     flood-color="rgb(58,63,94)"
     result="flood"
     id="feFlood987" /><feComposite
     in="flood"
     in2="SourceGraphic"
     operator="out"
     result="composite1"
     id="feComposite989" /><feGaussianBlur
     in="composite1"
     stdDeviation="15"
     result="blur"
     id="feGaussianBlur991" /><feOffset
     dx="0"
     dy="0"
     result="offset"
     id="feOffset993" /><feComposite
     in="offset"
     in2="SourceGraphic"
     operator="atop"
     result="composite2"
     id="feComposite995" /></filter>
<filter
   style="color-interpolation-filters:sRGB;"
   inkscape:label="Drop Shadow"
   id="filter2425"
   x="-0.035651612"
   y="-0.036037491"
   width="1.0713032"
   height="1.072075"><feFlood
     flood-opacity="1"
     flood-color="rgb(58,63,94)"
     result="flood"
     id="feFlood2415" /><feComposite
     in="flood"
     in2="SourceGraphic"
     operator="out"
     result="composite1"
     id="feComposite2417" /><feGaussianBlur
     in="composite1"
     stdDeviation="15"
     result="blur"
     id="feGaussianBlur2419" /><feOffset
     dx="0"
     dy="0"
     result="offset"
     id="feOffset2421" /><feComposite
     in="offset"
     in2="SourceGraphic"
     operator="atop"
     result="composite2"
     id="feComposite2423" /></filter>

</defs><sodipodi:namedview
   id="namedview51"
   pagecolor="#505050"
   bordercolor="#eeeeee"
   borderopacity="1"
   inkscape:pageshadow="0"
   inkscape:pageopacity="0"
   inkscape:pagecheckerboard="0"
   showgrid="false"
   inkscape:zoom="1.7334946"
   inkscape:cx="281.8007"
   inkscape:cy="229.59402"
   inkscape:window-width="1920"
   inkscape:window-height="1009"
   inkscape:window-x="1912"
   inkscape:window-y="-8"
   inkscape:window-maximized="1"
   inkscape:current-layer="Layer_1"
   inkscape:showpageshadow="2"
   inkscape:deskcolor="#505050" />
<path
   d="M 0,0 H 512 V 512 H 0 Z"
   fill="#b90202"
   fill-opacity="1"
   id="path902"
   style="fill:#1b1f21;fill-opacity:0" /><path
   id="path494"
   style="fill:#ff0ec0;fill-opacity:1;stroke-width:1;filter:url(#filter2425)"
   d="m 570.40595,-212.57216 c -7.41554,-0.15752 -14.35697,2.99741 -19.40681,8.04725 -6.73311,6.73312 -10.09688,16.83315 -10.09688,26.93083 v 94.244925 h -67.31842 v -94.244925 c 0,-10.09768 -3.36379,-20.19771 -10.09691,-26.93083 -6.73311,-6.73312 -16.83316,-6.7327 -26.93082,-6.7327 C 187.47477,-177.60004 2.3548744,37.82085 2.3548744,286.90217 c 0,249.08131 185.1239256,464.49818 434.2012356,498.15977 10.09766,3.36457 20.19771,4.2e-4 26.93082,-6.73269 6.73312,-6.73314 10.09691,-16.83317 10.09691,-26.93085 v -94.2449 h 67.31842 v 94.2449 c 0,10.09768 3.36377,20.19771 10.09688,26.93085 6.73312,3.36454 16.83321,6.73269 23.56232,6.73269 h 3.36419 c 249.07731,-33.65758 434.20125,-249.07846 434.20125,-498.15977 0,-249.077313 -185.1196,-464.4982 -434.19694,-498.15978 -2.5244,-0.84114 -5.05216,-1.26204 -7.52401,-1.31455 z m -164.13622,75.37 v 87.516534 c 0,20.19536 13.45955,33.659222 33.65488,33.659222 h 134.64117 c 20.19536,0 33.6549,-13.463862 33.6549,-33.659222 v -87.516534 c 195.22437,43.75525 336.59211,222.155149 336.59211,424.10864 0,201.9535 -141.36774,380.34507 -336.59211,424.10435 v -87.51224 c 0,-20.19534 -13.45954,-33.6592 -33.6549,-33.6592 H 439.92461 c -16.83079,0 -33.65488,16.83241 -33.65488,33.6592 v 87.51224 C 211.04535,667.25556 69.67762,488.85998 69.67762,286.90648 c 0,-201.953491 141.36773,-380.35339 336.59211,-424.10864 z m 276.65501,113.219313 c -15.327,0 -29.7279,5.975275 -40.5519,16.8252829 L 610.21843,25.05306 c -22.31499,22.368988 -22.26918,58.71032 0.0908,81.01734 l 40.89356,40.79838 c 10.812,10.78799 25.18177,16.73015 40.45679,16.73015 15.32598,0 29.7279,-5.97962 40.55189,-16.8296 l 32.15442,-32.21063 c 10.81299,-10.839 16.75348,-25.229297 16.73446,-40.530286 -0.0199,-15.301011 -5.99327,-29.682052 -16.82528,-40.487051 L 723.38153,-7.2526983 C 712.56854,-18.040693 698.19874,-23.982847 682.92474,-23.982847 Z m -338.14879,0.294037 c -5.48201,-0.0066 -10.96434,2.080044 -15.15184,6.257046 l -87.85816,87.646266 c -8.375,8.355001 -8.38959,21.919022 -0.0345,30.295038 4.18499,4.19398 9.67379,6.28731 15.16481,6.28731 5.47299,0 10.94921,-2.08073 15.1302,-6.25273 l 87.85383,-87.650586 c 8.37501,-8.3550004 8.39392,-21.9157008 0.039,-30.290694 -4.17848,-4.188005 -9.66117,-6.285141 -15.14318,-6.29165 z m 338.14879,42.545353 c 3.689,0 7.38167,1.404054 10.2007,4.216035 l 40.89351,40.798401 c 5.64499,5.632995 5.65894,14.775969 0.0259,20.422978 l -32.16307,32.223593 c -2.81999,2.827 -6.51929,4.24199 -10.22228,4.24199 -3.689,0 -7.38269,-1.40837 -10.20069,-4.22038 L 640.56098,75.740784 c -5.64602,-5.633017 -5.65463,-14.776987 -0.0221,-20.422978 l 32.15873,-32.21928 c 2.82101,-2.826992 6.52362,-4.241983 10.22662,-4.241983 z M 409.39176,41.07837 c -5.48174,-0.0066 -10.96866,2.075217 -15.15615,6.252728 l -87.85383,87.650582 c -8.37499,8.355 -8.39492,21.91471 -0.039,30.2907 4.184,4.194 9.67482,6.29165 15.16481,6.29165 5.47302,0 10.94922,-2.08505 15.13023,-6.25707 l 87.85382,-87.646268 c 8.375,-8.355001 8.39393,-21.914683 0.039,-30.290694 -4.17751,-4.1865 -9.65712,-6.284876 -15.13888,-6.291628 z m 98.71178,74.72569 c -17.07799,0 -33.73789,3.24386 -49.51587,9.64286 -16.35701,6.633 -31.01385,16.36261 -43.56586,28.91563 -12.552,12.55299 -22.28161,27.20883 -28.9156,43.56583 -6.39801,15.77801 -9.64386,32.43789 -9.64287,49.51588 0,17.07701 3.24486,33.73456 9.64287,49.51157 6.633,16.35699 16.36261,31.01816 28.9156,43.57016 12.55201,12.55301 27.20885,22.2783 43.56586,28.9113 15.77699,6.39799 32.43788,9.64287 49.51587,9.64287 17.07701,0 33.73788,-3.24389 49.51589,-9.64287 16.35699,-6.633 31.01385,-16.35829 43.56584,-28.9113 12.552,-12.55299 22.28262,-27.21317 28.91562,-43.57016 6.39799,-15.77701 9.64287,-32.43456 9.64287,-49.51157 0,-17.07699 -3.24386,-33.73787 -9.64287,-49.51588 -6.633,-16.357 -16.36261,-31.01384 -28.91562,-43.56583 -12.55199,-12.55302 -27.20885,-22.28163 -43.56584,-28.91563 -15.77801,-6.399 -32.43888,-9.64286 -49.51589,-9.64286 z m 0,42.83939 c 22.72601,0 45.45205,8.66978 62.79104,26.00979 34.678,34.678 34.678,90.90206 0,125.58205 -17.33899,17.33802 -40.06503,26.00548 -62.79104,26.00548 -22.72699,0 -45.45203,-8.66746 -62.79104,-26.00548 -34.679,-34.67999 -34.679,-90.90405 0,-125.58205 17.33802,-17.33901 40.06405,-26.00979 62.79104,-26.00979 z m -62.00836,269.39477 c -11.83,0 -21.41753,9.59385 -21.41753,21.42185 0,11.83 9.58753,21.41754 21.41753,21.41754 h 124.09888 c 11.82999,0 21.42187,-9.58754 21.42187,-21.41754 0,-11.828 -9.59188,-21.42185 -21.42187,-21.42185 z m 0,91.4861 c -11.83,0 -21.41753,9.59186 -21.41753,21.42186 0,11.83 9.58753,21.41753 21.41753,21.41753 h 124.09888 c 11.82999,0 21.42187,-9.58753 21.42187,-21.41753 0,-11.83 -9.59188,-21.42186 -21.42187,-21.42186 z"
   transform="matrix(0.45167799,0,0,0.45167799,26.890456,126.41266)" /></svg>
