<?xml version="1.0" encoding="UTF-8" standalone="no"?>
<svg
   width="512" height="512"
   viewBox="0 0 512 512"
   version="1.1"
   id="svg8"
   sodipodi:docname="grip_foot.svg"
   inkscape:version="1.1.1 (3bf5ae0d25, 2021-09-20)"
   xmlns:inkscape="http://www.inkscape.org/namespaces/inkscape"
   xmlns:sodipodi="http://sodipodi.sourceforge.net/DTD/sodipodi-0.dtd"
   xmlns="http://www.w3.org/2000/svg"
   xmlns:svg="http://www.w3.org/2000/svg">
  <defs
     id="defs12">
    <filter
       style="color-interpolation-filters:sRGB;"
       inkscape:label="Drop Shadow"
       id="filter889"
       x="-0.21954624"
       y="-0.25249234"
       width="1.4274348"
       height="1.4916096">
      <feFlood
         flood-opacity="1"
         flood-color="rgb(58,63,94)"
         result="flood"
         id="feFlood879" />
      <feComposite
         in="flood"
         in2="SourceGraphic"
         operator="out"
         result="composite1"
         id="feComposite881" />
      <feGaussianBlur
         in="composite1"
         stdDeviation="15"
         result="blur"
         id="feGaussianBlur883" />
      <feOffset
         dx="0"
         dy="0"
         result="offset"
         id="feOffset885" />
      <feComposite
         in="offset"
         in2="SourceGraphic"
         operator="atop"
         result="composite2"
         id="feComposite887" />
    </filter>
    <filter
       style="color-interpolation-filters:sRGB;"
       inkscape:label="Drop Shadow"
       id="filter939"
       x="-0.067826631"
       y="-0.078015417"
       width="1.1356533"
       height="1.1560308">
      <feFlood
         flood-opacity="1"
         flood-color="rgb(58,63,94)"
         result="flood"
         id="feFlood929" />
      <feComposite
         in="flood"
         in2="SourceGraphic"
         operator="out"
         result="composite1"
         id="feComposite931" />
      <feGaussianBlur
         in="composite1"
         stdDeviation="9.78793"
         result="blur"
         id="feGaussianBlur933" />
      <feOffset
         dx="0"
         dy="0"
         result="offset"
         id="feOffset935" />
      <feComposite
         in="offset"
         in2="SourceGraphic"
         operator="atop"
         result="composite2"
         id="feComposite937" />
    </filter>
  </defs>
  <sodipodi:namedview
     id="namedview10"
     pagecolor="#505050"
     bordercolor="#eeeeee"
     borderopacity="1"
     inkscape:pageshadow="0"
     inkscape:pageopacity="0"
     inkscape:pagecheckerboard="0"
     showgrid="false"
     showguides="true"
     inkscape:guide-bbox="true"
     inkscape:zoom="1.7050781"
     inkscape:cx="227.26232"
     inkscape:cy="261.27835"
     inkscape:window-width="1716"
     inkscape:window-height="1414"
     inkscape:window-x="3160"
     inkscape:window-y="587"
     inkscape:window-maximized="1"
     inkscape:current-layer="svg8" />
  <path
     d="M0 0h512v512H0z"
     fill="#b90202"
     fill-opacity="1"
     id="path2"
     style="fill:#1b1f21;fill-opacity:0" />
  <g
     class=""
     transform="matrix(1.2757913,0,0,1.2757913,-1.9556315,82.294547)"
     id="g6"
     style="fill:#ff0ec0;fill-opacity:1;filter:url(#filter939)">
    <path
       id="path4"
       d="M 22.398438 103.93164 L 22.398438 300.07227 C 91.827 329.16031 256.64646 337.45308 329.49414 323.92969 C 318.53451 387.87098 327.75054 442.07016 340.0625 488.08203 C 451.59304 487.95445 340.06182 488.08235 450.89453 487.95898 C 455.12902 421.35006 461.78908 345.26268 463.83594 304.91992 C 464.85657 284.89 469.83276 204.24746 387.28906 176.70312 C 285.09818 142.56295 154.96591 117.14884 22.398438 103.93164 z M 277.40039 156.22461 C 286.9256 156.2209 294.63477 166.23888 294.63477 178.5957 C 294.63477 188.47301 289.63155 197.14614 282.36719 200 C 275.99234 220.79237 269.32 262.4499 275.32422 266.11914 C 282.81096 270.71496 297.11737 264.30408 308.19922 256.00195 C 307.30971 250.0348 310.64604 243.54796 316.53906 239.73047 C 324.43349 234.65283 334.25528 235.87543 338.48047 242.47266 C 342.70566 249.03282 339.77729 258.48486 331.91992 263.5625 C 325.91571 267.41706 318.57764 267.71258 313.5 264.33984 C 286.88873 275.68114 286.7772 315.22849 258.53516 319.89844 C 238.6323 323.19705 218.61778 298.5121 193.4668 286.31836 C 187.12531 289.54284 178.39645 288.43143 171.80664 283.57617 C 163.36738 277.31252 161.20644 267.04667 166.98828 260.63477 C 172.76641 254.22286 184.27889 254.07423 192.70703 260.33789 C 198.75202 264.82252 201.79125 271.60521 200.41992 277.64648 C 208.90736 282.98356 216.76509 284.76249 221.02734 279.12891 C 228.73646 268.82538 214.68937 233.69012 202.125 212.3418 C 194.97183 211.41522 188.17844 205.70674 184.67969 197.66406 C 179.72806 186.24864 182.89624 173.89948 191.76172 170.04492 C 200.64203 166.18666 211.83629 172.3168 216.80273 183.72852 C 219.99016 191.067 219.87869 199.14594 216.58008 204.96484 C 220.80527 231.20549 225.62359 258.78228 247.93555 256.48438 C 266.05938 253.59346 269.87631 227.23973 267.80078 197.14453 C 263.01965 192.99347 260.16602 186.02685 260.16602 178.5957 C 260.16602 166.23888 267.87519 156.22461 277.40039 156.22461 z "
       transform="matrix(0.78382726,0,0,0.78382726,1.5328773,-64.504709)"
       style="fill:#ff0ec0;fill-opacity:1" />
    <g
       id="g615"
       transform="matrix(0.78382726,0,0,0.78382726,147.94786,92.943113)"
       style="fill:#ff0ec0;fill-opacity:1">
      <g
         class=""
         id="g604"
         style="fill:#ff0ec0;fill-opacity:1"
         transform="matrix(0.37063053,0,0,0.37063053,-29.590353,-57.540639)" />
    </g>
  </g>
</svg>
