<?xml version="1.0" encoding="UTF-8" standalone="no"?>
<svg
   width="512" height="512"
   viewBox="0 0 512 512"
   version="1.1"
   id="svg8"
   sodipodi:docname="jump_booster.svg"
   inkscape:version="1.1.1 (3bf5ae0d25, 2021-09-20)"
   xmlns:inkscape="http://www.inkscape.org/namespaces/inkscape"
   xmlns:sodipodi="http://sodipodi.sourceforge.net/DTD/sodipodi-0.dtd"
   xmlns="http://www.w3.org/2000/svg"
   xmlns:svg="http://www.w3.org/2000/svg">
  <defs
     id="defs12">
    <filter
       style="color-interpolation-filters:sRGB;"
       inkscape:label="Drop Shadow"
       id="filter891"
       x="-0.21954624"
       y="-0.25249234"
       width="1.4274348"
       height="1.4916096">
      <feFlood
         flood-opacity="1"
         flood-color="rgb(58,63,94)"
         result="flood"
         id="feFlood881" />
      <feComposite
         in="flood"
         in2="SourceGraphic"
         operator="out"
         result="composite1"
         id="feComposite883" />
      <feGaussianBlur
         in="composite1"
         stdDeviation="15"
         result="blur"
         id="feGaussianBlur885" />
      <feOffset
         dx="0"
         dy="0"
         result="offset"
         id="feOffset887" />
      <feComposite
         in="offset"
         in2="SourceGraphic"
         operator="atop"
         result="composite2"
         id="feComposite889" />
    </filter>
    <filter
       style="color-interpolation-filters:sRGB;"
       inkscape:label="Drop Shadow"
       id="filter941"
       x="-0.088146147"
       y="-0.10138729"
       width="1.1762923"
       height="1.2027746">
      <feFlood
         flood-opacity="1"
         flood-color="rgb(58,63,94)"
         result="flood"
         id="feFlood931" />
      <feComposite
         in="flood"
         in2="SourceGraphic"
         operator="out"
         result="composite1"
         id="feComposite933" />
      <feGaussianBlur
         in="composite1"
         stdDeviation="12.7202"
         result="blur"
         id="feGaussianBlur935" />
      <feOffset
         dx="0"
         dy="0"
         result="offset"
         id="feOffset937" />
      <feComposite
         in="offset"
         in2="SourceGraphic"
         operator="atop"
         result="composite2"
         id="feComposite939" />
    </filter>
  </defs>
  <sodipodi:namedview
     id="namedview10"
     pagecolor="#505050"
     bordercolor="#eeeeee"
     borderopacity="1"
     inkscape:pageshadow="0"
     inkscape:pageopacity="0"
     inkscape:pagecheckerboard="0"
     showgrid="false"
     showguides="true"
     inkscape:guide-bbox="true"
     inkscape:zoom="1.7050781"
     inkscape:cx="265.38374"
     inkscape:cy="306.43758"
     inkscape:window-width="1716"
     inkscape:window-height="1414"
     inkscape:window-x="3160"
     inkscape:window-y="587"
     inkscape:window-maximized="1"
     inkscape:current-layer="svg8" />
  <path
     d="M0 0h512v512H0z"
     fill="#b90202"
     fill-opacity="1"
     id="path2"
     style="fill:#1b1f21;fill-opacity:0" />
  <g
     class=""
     transform="matrix(1.2757913,0,0,1.2757913,-1.9556315,82.294547)"
     id="g6"
     style="fill:#ff0ec0;fill-opacity:1;filter:url(#filter941)">
    <path
       id="path4"
       style="fill:#ff0ec0;fill-opacity:1"
       d="M 22.398438 103.93164 L 22.398438 300.07227 C 91.826999 329.16031 256.64646 337.45308 329.49414 323.92969 C 318.53451 387.87098 327.75054 442.07016 340.0625 488.08203 C 451.59304 487.95445 340.06182 488.08235 450.89453 487.95898 C 455.12902 421.35006 461.78908 345.26268 463.83594 304.91992 C 464.85657 284.89 469.83276 204.24746 387.28906 176.70312 C 285.09818 142.56296 154.96591 117.14884 22.398438 103.93164 z M 284.86328 170.11328 C 286.0154 170.11328 287.11667 170.27999 288.16406 170.63086 C 294.86731 172.87226 298.89814 182.3466 295.49414 192.55859 C 292.03777 202.77059 283.13686 207.90263 276.43359 205.70312 C 269.73034 203.45125 265.75031 193.96785 269.1543 183.75586 C 272.0346 175.14113 278.78845 170.11328 284.86328 170.11328 z M 225.32031 193.99805 C 237.15574 196.08234 248.83437 198.22076 260.09375 200.83398 C 262.34562 207.22303 266.90113 212.41182 273.44727 214.61133 C 280.41238 216.96794 287.5874 215.23896 293.40039 210.93945 C 299.57995 213.45841 305.44496 216.23394 310.99609 219.5332 L 336.70898 197.59766 C 341.4222 193.34528 353.93905 204.72896 349.12109 210.73047 C 339.17094 220.68585 328.17384 229.58868 315.29102 239.22461 C 309.84462 240.11489 294.91939 234.24911 284.75977 229.64062 C 281.40813 236.71047 278.05628 243.67733 271.5625 251.74219 C 280.51763 252.94668 292.56227 252.37017 297.85156 255.87891 L 338.80469 288.29492 C 341.52789 290.96575 333.25236 306.57092 325.1875 301.33398 C 269.36194 257.13439 247.10574 274.94089 214.375 300.91602 C 196.72657 298.87362 180.80734 294.42126 166.00781 288.45117 C 157.61827 285.62324 162.93269 268.44685 171.68359 270.9082 C 182.48212 274.05035 193.11293 277.76966 205.10547 277.50781 C 228.09555 261.63995 235.8462 242.26256 247.68164 218.01562 L 227.93945 214.29688 L 204.58203 237.18164 C 197.1456 243.98963 186.51554 233.14941 190.70508 227.12695 C 200.28864 215.02967 209.87139 205.70256 225.32031 193.99805 z "
       transform="matrix(0.78382726,0,0,0.78382726,1.5328773,-64.504709)" />
    <g
       id="g615"
       transform="matrix(0.78382726,0,0,0.78382726,147.94786,92.943113)"
       style="fill:#ff0ec0;fill-opacity:1">
      <g
         class=""
         id="g604"
         style="fill:#ff0ec0;fill-opacity:1"
         transform="matrix(0.37063053,0,0,0.37063053,-29.590353,-57.540639)" />
    </g>
    <g
       id="g118"
       transform="matrix(0.78382726,0,0,0.78382726,158.9807,96.16103)"
       style="fill:#ff0ec0;fill-opacity:1">
      <g
         class=""
         id="g107"
         style="fill:#ff0ec0;fill-opacity:1" />
    </g>
  </g>
</svg>
