<?xml version="1.0" encoding="UTF-8" standalone="no"?>
<svg
   width="512"
   height="512"
   viewBox="0 0 512 512"
   version="1.1"
   id="svg8"
   sodipodi:docname="kerenzikov.svg"
   inkscape:version="1.2.1 (9c6d41e410, 2022-07-14)"
   xmlns:inkscape="http://www.inkscape.org/namespaces/inkscape"
   xmlns:sodipodi="http://sodipodi.sourceforge.net/DTD/sodipodi-0.dtd"
   xmlns="http://www.w3.org/2000/svg"
   xmlns:svg="http://www.w3.org/2000/svg">
  <defs
     id="defs12">
    <filter
       style="color-interpolation-filters:sRGB;"
       inkscape:label="Drop Shadow"
       id="filter875"
       x="-0.16822456"
       y="-0.18844773"
       width="1.3275166"
       height="1.3669129">
      <feFlood
         flood-opacity="1"
         flood-color="rgb(58,63,94)"
         result="flood"
         id="feFlood865" />
      <feComposite
         in="flood"
         in2="SourceGraphic"
         operator="out"
         result="composite1"
         id="feComposite867" />
      <feGaussianBlur
         in="composite1"
         stdDeviation="15"
         result="blur"
         id="feGaussianBlur869" />
      <feOffset
         dx="0"
         dy="0"
         result="offset"
         id="feOffset871" />
      <feComposite
         in="offset"
         in2="SourceGraphic"
         operator="atop"
         result="composite2"
         id="feComposite873" />
    </filter>
    <filter
       style="color-interpolation-filters:sRGB;"
       inkscape:label="Drop Shadow"
       id="filter967"
       x="-0.075501769"
       y="-0.084589529"
       width="1.1510035"
       height="1.1691791">
      <feFlood
         flood-opacity="1"
         flood-color="rgb(58,63,94)"
         result="flood"
         id="feFlood957" />
      <feComposite
         in="flood"
         in2="SourceGraphic"
         operator="out"
         result="composite1"
         id="feComposite959" />
      <feGaussianBlur
         in="composite1"
         stdDeviation="15"
         result="blur"
         id="feGaussianBlur961" />
      <feOffset
         dx="0"
         dy="0"
         result="offset"
         id="feOffset963" />
      <feComposite
         in="offset"
         in2="SourceGraphic"
         operator="atop"
         result="composite2"
         id="feComposite965" />
    </filter>
  </defs>
  <sodipodi:namedview
     id="namedview10"
     pagecolor="#505050"
     bordercolor="#eeeeee"
     borderopacity="1"
     inkscape:pageshadow="0"
     inkscape:pageopacity="0"
     inkscape:pagecheckerboard="0"
     showgrid="false"
     inkscape:zoom="1.7558594"
     inkscape:cx="254.86095"
     inkscape:cy="256.28476"
     inkscape:window-width="1920"
     inkscape:window-height="1057"
     inkscape:window-x="-8"
     inkscape:window-y="-8"
     inkscape:window-maximized="1"
     inkscape:current-layer="svg8"
     inkscape:showpageshadow="2"
     inkscape:deskcolor="#505050" />
  <path
     d="M0 0h512v512H0z"
     fill="#b90202"
     fill-opacity="1"
     id="path2"
     style="fill:#1b1f21;fill-opacity:0" />
  <path
     d="m 256,54.28 c -124.603,0 -226,101.398 -226,226 0,47.864 14.975,92.293 40.465,128.876 l 29.79,-19.86 C 83.067,364.751 71.547,335.934 67.559,304.719 H 96 v -18 H 66.115 c -0.07,-2.14 -0.115,-4.284 -0.115,-6.44 0,-45.378 15.816,-86.97 42.236,-119.598 l 17.4,17.4 12.727,-12.727 -18.133,-18.132 C 152.735,114.057 197.335,92.8 247,90.498 v 29.22 h 18 V 90.5 c 49.665,2.302 94.265,23.56 126.77,56.725 l -18.133,18.132 12.726,12.727 17.4,-17.4 c 26.42,32.63 42.237,74.22 42.237,119.6 0,2.154 -0.044,4.3 -0.115,6.437 H 416 v 18 h 28.44 c -3.987,31.214 -15.507,60.03 -32.694,84.575 l 29.79,19.86 C 467.025,372.574 482,328.146 482,280.282 c 0,-124.602 -101.397,-226 -226,-226 z m 15.83,66.23 a 144,160 0 0 1 74.608,100.062 l 49.966,-17.568 a 160,160 0 0 0 -4.3,-7.012 l -5.135,5.153 -30.368,-30.29 -5.76,-5.746 7.85,-7.874 a 160,160 0 0 0 -86.862,-36.726 z m 156.15,89.844 -175.332,60.6 C 240.505,272.618 231,283.155 231,295.72 c 0,13.7 11.3,25 25,25 6.77,0 12.95,-2.764 17.473,-7.208 z m -16.513,32.322 -60.713,40.72 a 144,160 0 0 1 -56.6,108.323 h 76.057 a 160,160 0 0 0 39.763,-68.572 H 398.48 v -52.515 h 17.022 a 160,160 0 0 0 -4.035,-27.957 z M 128,421.72 v 36 h 256 v -36 z"
     fill="#ffffff"
     fill-opacity="1"
     stroke="#ffffff"
     stroke-opacity="1"
     stroke-width="0"
     id="path4"
     style="fill:#ff0ec0;fill-opacity:1;filter:url(#filter967)" />
</svg>
