<?xml version="1.0" encoding="UTF-8" standalone="no"?>
<svg
   width="512" height="512"
   viewBox="0 0 512 512"
   version="1.1"
   id="svg8"
   sodipodi:docname="meatleg.svg"
   inkscape:version="1.1.1 (3bf5ae0d25, 2021-09-20)"
   xmlns:inkscape="http://www.inkscape.org/namespaces/inkscape"
   xmlns:sodipodi="http://sodipodi.sourceforge.net/DTD/sodipodi-0.dtd"
   xmlns="http://www.w3.org/2000/svg"
   xmlns:svg="http://www.w3.org/2000/svg">
  <defs
     id="defs12">
    <filter
       style="color-interpolation-filters:sRGB;"
       inkscape:label="Drop Shadow"
       id="filter855"
       x="-0.17208633"
       y="-0.19791038"
       width="1.3350351"
       height="1.385337">
      <feFlood
         flood-opacity="1"
         flood-color="rgb(58,63,94)"
         result="flood"
         id="feFlood845" />
      <feComposite
         in="flood"
         in2="SourceGraphic"
         operator="out"
         result="composite1"
         id="feComposite847" />
      <feGaussianBlur
         in="composite1"
         stdDeviation="15"
         result="blur"
         id="feGaussianBlur849" />
      <feOffset
         dx="0"
         dy="0"
         result="offset"
         id="feOffset851" />
      <feComposite
         in="offset"
         in2="SourceGraphic"
         operator="atop"
         result="composite2"
         id="feComposite853" />
    </filter>
    <filter
       style="color-interpolation-filters:sRGB;"
       inkscape:label="Drop Shadow"
       id="filter1366"
       x="-0.23965374"
       y="-0.38870498"
       width="1.4666941"
       height="1.7569518">
      <feFlood
         flood-opacity="1"
         flood-color="rgb(58,63,94)"
         result="flood"
         id="feFlood1356" />
      <feComposite
         in="flood"
         in2="SourceGraphic"
         operator="out"
         result="composite1"
         id="feComposite1358" />
      <feGaussianBlur
         in="composite1"
         stdDeviation="15"
         result="blur"
         id="feGaussianBlur1360" />
      <feOffset
         dx="0"
         dy="0"
         result="offset"
         id="feOffset1362" />
      <feComposite
         in="offset"
         in2="SourceGraphic"
         operator="atop"
         result="composite2"
         id="feComposite1364" />
    </filter>
    <filter
       style="color-interpolation-filters:sRGB;"
       inkscape:label="Drop Shadow"
       id="filter1118"
       x="-0.26768827"
       y="-0.24126966"
       width="1.5212877"
       height="1.4698409">
      <feFlood
         flood-opacity="1"
         flood-color="rgb(58,63,94)"
         result="flood"
         id="feFlood1108" />
      <feComposite
         in="flood"
         in2="SourceGraphic"
         operator="out"
         result="composite1"
         id="feComposite1110" />
      <feGaussianBlur
         in="composite1"
         stdDeviation="15"
         result="blur"
         id="feGaussianBlur1112" />
      <feOffset
         dx="0"
         dy="0"
         result="offset"
         id="feOffset1114" />
      <feComposite
         in="offset"
         in2="SourceGraphic"
         operator="atop"
         result="composite2"
         id="feComposite1116" />
    </filter>
    <filter
       style="color-interpolation-filters:sRGB;"
       inkscape:label="Drop Shadow"
       id="filter980"
       x="-0.093239201"
       y="-0.084037267"
       width="1.1864784"
       height="1.1680745">
      <feFlood
         flood-opacity="1"
         flood-color="rgb(58,63,94)"
         result="flood"
         id="feFlood970" />
      <feComposite
         in="flood"
         in2="SourceGraphic"
         operator="out"
         result="composite1"
         id="feComposite972" />
      <feGaussianBlur
         in="composite1"
         stdDeviation="11.0299"
         result="blur"
         id="feGaussianBlur974" />
      <feOffset
         dx="0"
         dy="0"
         result="offset"
         id="feOffset976" />
      <feComposite
         in="offset"
         in2="SourceGraphic"
         operator="atop"
         result="composite2"
         id="feComposite978" />
    </filter>
  </defs>
  <sodipodi:namedview
     id="namedview10"
     pagecolor="#505050"
     bordercolor="#eeeeee"
     borderopacity="1"
     inkscape:pageshadow="0"
     inkscape:pageopacity="0"
     inkscape:pagecheckerboard="0"
     showgrid="false"
     showguides="true"
     inkscape:guide-bbox="true"
     inkscape:zoom="1.7050781"
     inkscape:cx="285.32417"
     inkscape:cy="250.13517"
     inkscape:window-width="1716"
     inkscape:window-height="1414"
     inkscape:window-x="3160"
     inkscape:window-y="587"
     inkscape:window-maximized="1"
     inkscape:current-layer="g1238" />
  <path
     d="M0 0h512v512H0z"
     fill="#b90202"
     fill-opacity="1"
     id="path2"
     style="fill:#1b1f21;fill-opacity:0" />
  <g
     id="g1238"
     transform="matrix(1.4685837,0,0,1.4685837,23.138496,23.137876)">
    <g
       id="g1187" />
    <g
       id="g1189" />
    <g
       id="g1191" />
    <g
       id="g1193" />
    <g
       id="g1195" />
    <g
       id="g1197" />
    <g
       id="g1199" />
    <g
       id="g1201" />
    <g
       id="g1203" />
    <g
       id="g1205" />
    <g
       id="g1207" />
    <g
       id="g1209" />
    <g
       id="g1211" />
    <g
       id="g1213" />
    <g
       id="g1215" />
    <g
       id="g1008"
       transform="matrix(1.0057508,0,0,1.0057508,0.15503164,0.1565248)"
       style="fill:#ff0ec0;fill-opacity:1;filter:url(#filter980)">
      <path
         d="m 299.115,297.458 c -0.83,-2.881 -3.076,-5.135 -5.953,-5.98 -9.027,-2.65 -44.838,-3.671 -73.178,-37.38 -4.771,-5.675 -9.856,-8.838 -10.419,-26.985 0,-15.381 0,-103.76 0,-156.378 0,-21.488 -15.324,-39.809 -36.46,-43.676 L 26.013,0.145 c -2.589,-0.474 -5.255,0.227 -7.277,1.912 -2.022,1.685 -3.191,4.182 -3.191,6.814 v 78.32 c 0,2.453 1.015,4.796 2.805,6.473 1.79,1.677 4.194,2.539 6.641,2.38 l 123.205,-7.993 c -3.869,31.995 0.306,64.527 12.251,94.613 l 5.786,14.572 c 7.168,19.344 8.036,40.46 2.479,60.327 0,0 -2.193,9.03 -3.329,11.903 -4.318,10.923 -4.529,23 2.317,32.543 6.846,9.543 18.479,14.423 30.085,12.622 l 6.343,-0.985 c 6.774,-1.052 13.635,-1.442 20.485,-1.167 l 51.845,2.086 c 7.904,0.318 15.533,-2.933 20.777,-8.855 l 0.021,-0.023 c 1.987,-2.243 2.689,-5.348 1.859,-8.229 z M 101.656,32.759 c -0.587,3.692 -3.774,6.324 -7.398,6.324 -0.391,0 -0.787,-0.03 -1.186,-0.094 L 41.017,30.718 c -4.091,-0.65 -6.88,-4.493 -6.23,-8.584 0.65,-4.091 4.489,-6.885 8.584,-6.23 l 52.055,8.271 c 4.091,0.65 6.88,4.493 6.23,8.584 z m 12.616,8.493 c -4.142,0 -7.5,-3.358 -7.5,-7.5 0,-4.142 3.358,-7.5 7.5,-7.5 4.142,0 7.5,3.358 7.5,7.5 0,4.142 -3.358,7.5 -7.5,7.5 z"
         id="path955"
         style="fill:#ff0ec0;fill-opacity:1" />
      <g
         id="g957"
         style="fill:#ff0ec0;fill-opacity:1" />
      <g
         id="g959"
         style="fill:#ff0ec0;fill-opacity:1" />
      <g
         id="g961"
         style="fill:#ff0ec0;fill-opacity:1" />
      <g
         id="g963"
         style="fill:#ff0ec0;fill-opacity:1" />
      <g
         id="g965"
         style="fill:#ff0ec0;fill-opacity:1" />
      <g
         id="g967"
         style="fill:#ff0ec0;fill-opacity:1" />
      <g
         id="g969"
         style="fill:#ff0ec0;fill-opacity:1" />
      <g
         id="g971"
         style="fill:#ff0ec0;fill-opacity:1" />
      <g
         id="g973"
         style="fill:#ff0ec0;fill-opacity:1" />
      <g
         id="g975"
         style="fill:#ff0ec0;fill-opacity:1" />
      <g
         id="g977"
         style="fill:#ff0ec0;fill-opacity:1" />
      <g
         id="g979"
         style="fill:#ff0ec0;fill-opacity:1" />
      <g
         id="g981"
         style="fill:#ff0ec0;fill-opacity:1" />
      <g
         id="g983"
         style="fill:#ff0ec0;fill-opacity:1" />
      <g
         id="g985"
         style="fill:#ff0ec0;fill-opacity:1" />
    </g>
  </g>
</svg>
