<?xml version="1.0" encoding="UTF-8" standalone="no"?>
<svg
   width="512" height="512"
   viewBox="0 0 512 512"
   version="1.1"
   id="svg8"
   sodipodi:docname="skate_foot.svg"
   inkscape:version="1.1.1 (3bf5ae0d25, 2021-09-20)"
   xmlns:inkscape="http://www.inkscape.org/namespaces/inkscape"
   xmlns:sodipodi="http://sodipodi.sourceforge.net/DTD/sodipodi-0.dtd"
   xmlns="http://www.w3.org/2000/svg"
   xmlns:svg="http://www.w3.org/2000/svg">
  <defs
     id="defs12">
    <filter
       style="color-interpolation-filters:sRGB;"
       inkscape:label="Drop Shadow"
       id="filter873"
       x="-0.17208633"
       y="-0.19791038"
       width="1.3350351"
       height="1.385337">
      <feFlood
         flood-opacity="1"
         flood-color="rgb(58,63,94)"
         result="flood"
         id="feFlood863" />
      <feComposite
         in="flood"
         in2="SourceGraphic"
         operator="out"
         result="composite1"
         id="feComposite865" />
      <feGaussianBlur
         in="composite1"
         stdDeviation="15"
         result="blur"
         id="feGaussianBlur867" />
      <feOffset
         dx="0"
         dy="0"
         result="offset"
         id="feOffset869" />
      <feComposite
         in="offset"
         in2="SourceGraphic"
         operator="atop"
         result="composite2"
         id="feComposite871" />
    </filter>
  </defs>
  <sodipodi:namedview
     id="namedview10"
     pagecolor="#505050"
     bordercolor="#eeeeee"
     borderopacity="1"
     inkscape:pageshadow="0"
     inkscape:pageopacity="0"
     inkscape:pagecheckerboard="0"
     showgrid="false"
     showguides="true"
     inkscape:guide-bbox="true"
     inkscape:zoom="1.7050781"
     inkscape:cx="394.41009"
     inkscape:cy="253.06759"
     inkscape:window-width="1716"
     inkscape:window-height="1414"
     inkscape:window-x="3160"
     inkscape:window-y="587"
     inkscape:window-maximized="1"
     inkscape:current-layer="svg8" />
  <path
     d="M0 0h512v512H0z"
     fill="#b90202"
     fill-opacity="1"
     id="path2"
     style="fill:#1b1f21;fill-opacity:0" />
  <g
     class=""
     transform="matrix(1.2757913,0,0,1.2757913,-1.9556315,82.294547)"
     id="g6">
    <path
       id="path4"
       style="fill:#ff0ec0;fill-opacity:1;filter:url(#filter873)"
       d="M 22.398438 103.93164 L 22.398438 300.07227 C 91.826998 329.16031 256.64646 337.45308 329.49414 323.92969 C 318.53451 387.87098 327.75054 442.07016 340.0625 488.08203 C 451.59304 487.95445 340.06182 488.08235 450.89453 487.95898 C 455.12902 421.35006 461.78908 345.26268 463.83594 304.91992 C 464.85657 284.89 469.83276 204.24746 387.28906 176.70312 C 285.09818 142.56297 154.96591 117.14884 22.398438 103.93164 z M 170.29297 161.94922 L 242.57422 161.94922 C 246.71296 161.94922 250.06836 165.30462 250.06836 169.44336 L 250.06836 203.42578 L 256.8125 206.31641 L 243.58008 229.23438 C 241.51071 232.81827 242.738 237.40097 246.32227 239.4707 L 266.19727 250.94531 C 269.76624 253.00595 274.35731 251.80013 276.43359 248.20312 L 291.92578 221.36719 L 330.10156 237.72852 C 333.02905 238.98346 339.86665 243.53167 345.00586 250.45117 C 352.95969 261.13843 349.12878 276.18966 337.52734 282.03516 C 338.01483 287.44596 336.73159 292.94421 333.70508 297.7168 C 323.85299 313.25201 301.2003 313.26545 291.33984 297.73242 C 288.73092 293.62353 287.40436 288.97487 287.39453 284.30859 L 281.125 284.30859 C 281.11444 288.97596 279.78702 293.62562 277.17773 297.73633 C 267.33075 313.24715 244.7055 313.26055 234.83594 297.74609 C 232.22301 293.63903 230.89668 288.98543 230.88867 284.30859 L 224.61133 284.30859 C 224.60223 288.98579 223.27418 293.64234 220.66016 297.75195 C 210.79751 313.25658 188.17226 313.25294 178.31836 297.73047 C 175.71053 293.62231 174.38447 288.97487 174.375 284.30859 L 170.29297 284.30859 C 166.15423 284.30859 162.79883 280.95515 162.79883 276.81641 L 162.79883 253.60352 C 162.79883 249.46514 166.15423 246.1106 170.29297 246.11133 L 172.75977 246.11133 L 172.75977 246.08789 L 172.75977 200.14844 L 170.29297 200.14844 C 166.15423 200.14844 162.79883 196.79304 162.79883 192.6543 L 162.79883 169.44336 C 162.79883 165.30462 166.15423 161.94922 170.29297 161.94922 z M 213.96875 186.82422 C 212.58929 186.82422 211.4707 187.94281 211.4707 189.32227 L 211.4707 200.04102 C 211.4707 201.42048 212.58929 202.53906 213.96875 202.53906 L 240.07617 202.53906 C 241.45527 202.53906 242.57422 201.42048 242.57422 200.04102 L 242.57422 189.32227 C 242.57422 187.94281 241.45563 186.82422 240.07617 186.82422 L 213.96875 186.82422 z M 270.73242 212.2832 L 278.10156 215.44141 L 267.20117 234.21875 L 260.30664 230.23828 L 270.73242 212.2832 z M 189.35547 284.31055 C 189.37658 289.3165 193.40362 294.39258 199.49414 294.39258 C 205.59413 294.39258 209.61388 289.32051 209.63281 284.31055 L 189.35547 284.31055 z M 245.86719 284.31055 C 245.88393 289.37585 249.96535 294.39258 256.00781 294.39258 C 261.99348 294.39258 266.09346 289.47232 266.12695 284.31055 L 245.86719 284.31055 z M 302.39258 284.31055 C 302.42534 289.48033 306.53592 294.39258 312.51758 294.39258 C 318.62994 294.39258 322.63891 289.29903 322.6582 284.31055 L 302.39258 284.31055 z "
       transform="matrix(0.78382726,0,0,0.78382726,1.5328773,-64.504709)" />
    <g
       id="g615"
       transform="matrix(0.78382726,0,0,0.78382726,147.94786,92.943113)">
      <g
         class=""
         id="g604"
         style="fill:#000000"
         transform="matrix(0.37063053,0,0,0.37063053,-29.590353,-57.540639)" />
    </g>
    <g
       id="g266"
       transform="matrix(0.28536761,0,0,0.28536761,129.13858,47.159907)">
      <g
         id="g202">
        <g
           id="g200" />
      </g>
      <g
         id="g208">
        <g
           id="g206" />
      </g>
      <g
         id="g210" />
      <g
         id="g212" />
      <g
         id="g214" />
      <g
         id="g216" />
      <g
         id="g218" />
      <g
         id="g220" />
      <g
         id="g222" />
      <g
         id="g224" />
      <g
         id="g226" />
      <g
         id="g228" />
      <g
         id="g230" />
      <g
         id="g232" />
      <g
         id="g234" />
      <g
         id="g236" />
      <g
         id="g238" />
    </g>
  </g>
</svg>
