<?xml version="1.0" encoding="UTF-8" standalone="no"?>
<svg
   width="512" height="512"
   viewBox="0 0 512 512"
   version="1.1"
   id="svg8"
   sodipodi:docname="talon_foot.svg"
   inkscape:version="1.1.1 (3bf5ae0d25, 2021-09-20)"
   xmlns:inkscape="http://www.inkscape.org/namespaces/inkscape"
   xmlns:sodipodi="http://sodipodi.sourceforge.net/DTD/sodipodi-0.dtd"
   xmlns="http://www.w3.org/2000/svg"
   xmlns:svg="http://www.w3.org/2000/svg">
  <defs
     id="defs12">
    <filter
       style="color-interpolation-filters:sRGB;"
       inkscape:label="Drop Shadow"
       id="filter855"
       x="-0.17208633"
       y="-0.19791038"
       width="1.3350351"
       height="1.385337">
      <feFlood
         flood-opacity="1"
         flood-color="rgb(58,63,94)"
         result="flood"
         id="feFlood845" />
      <feComposite
         in="flood"
         in2="SourceGraphic"
         operator="out"
         result="composite1"
         id="feComposite847" />
      <feGaussianBlur
         in="composite1"
         stdDeviation="15"
         result="blur"
         id="feGaussianBlur849" />
      <feOffset
         dx="0"
         dy="0"
         result="offset"
         id="feOffset851" />
      <feComposite
         in="offset"
         in2="SourceGraphic"
         operator="atop"
         result="composite2"
         id="feComposite853" />
    </filter>
    <filter
       style="color-interpolation-filters:sRGB;"
       inkscape:label="Drop Shadow"
       id="filter941"
       x="-0.088146147"
       y="-0.10138729"
       width="1.1762923"
       height="1.2027746">
      <feFlood
         flood-opacity="1"
         flood-color="rgb(58,63,94)"
         result="flood"
         id="feFlood931" />
      <feComposite
         in="flood"
         in2="SourceGraphic"
         operator="out"
         result="composite1"
         id="feComposite933" />
      <feGaussianBlur
         in="composite1"
         stdDeviation="12.7202"
         result="blur"
         id="feGaussianBlur935" />
      <feOffset
         dx="0"
         dy="0"
         result="offset"
         id="feOffset937" />
      <feComposite
         in="offset"
         in2="SourceGraphic"
         operator="atop"
         result="composite2"
         id="feComposite939" />
    </filter>
  </defs>
  <sodipodi:namedview
     id="namedview10"
     pagecolor="#505050"
     bordercolor="#eeeeee"
     borderopacity="1"
     inkscape:pageshadow="0"
     inkscape:pageopacity="0"
     inkscape:pagecheckerboard="0"
     showgrid="false"
     showguides="true"
     inkscape:guide-bbox="true"
     inkscape:zoom="1.7050781"
     inkscape:cx="285.32417"
     inkscape:cy="250.13517"
     inkscape:window-width="1716"
     inkscape:window-height="1414"
     inkscape:window-x="3160"
     inkscape:window-y="587"
     inkscape:window-maximized="1"
     inkscape:current-layer="svg8" />
  <path
     d="M0 0h512v512H0z"
     fill="#b90202"
     fill-opacity="1"
     id="path2"
     style="fill:#1b1f21;fill-opacity:0" />
  <g
     class=""
     transform="matrix(1.2757913,0,0,1.2757913,-1.9556315,82.294547)"
     id="g6"
     style="filter:url(#filter941)">
    <path
       id="path4"
       style="fill:#ff0ec0;fill-opacity:1"
       d="M 22.398438 103.93164 L 22.398438 300.07227 C 91.826999 329.16031 256.64646 337.45308 329.49414 323.92969 C 318.53451 387.87098 327.75054 442.07016 340.0625 488.08203 C 451.59304 487.95445 340.06182 488.08235 450.89453 487.95898 C 455.12902 421.35006 461.78908 345.26268 463.83594 304.91992 C 464.85657 284.89 469.83276 204.24746 387.28906 176.70312 C 285.09818 142.56296 154.96591 117.14884 22.398438 103.93164 z M 176.03516 157.43945 L 210.06641 157.43945 C 213.42646 169.24595 219.31773 181.7914 226.00977 191.38672 C 234.66279 203.05223 245.86748 207.18849 257.6875 196.62891 C 260.46568 192.02126 262.86458 187.11654 264.85938 181.91992 C 265.09503 181.10172 265.38666 180.30148 265.73828 179.52148 C 265.74065 179.51405 265.74568 179.50778 265.74805 179.5 C 268.30545 173.83917 273.77626 169.40825 280.24414 169.54688 C 281.61582 169.57595 283.03678 169.81647 284.48047 170.28711 C 288.22494 169.07028 292.27797 168.2012 296.35547 168.22656 C 299.26956 168.24414 302.1903 168.71584 305.01953 169.84375 C 312.5646 172.84947 318.58275 180.62252 320.89062 194.49414 L 322.63477 204.95508 L 315.44922 197.14648 C 312.13042 193.54063 307.32222 192.05473 302.12695 192.00977 C 298.97619 191.98306 295.74022 192.5344 292.87109 193.39453 C 290.44217 197.51024 286.42115 200.66151 281.62891 201.29883 C 274.04766 203.85656 266.54727 208.80795 260.15039 214.94922 C 258.2817 218.47122 259.14209 220.49339 261.84961 221.51953 C 272.30607 219.66268 282.6874 217.21152 293.3457 212.04297 L 293.3457 212.06445 C 295.0778 211.22664 296.97696 210.71707 298.97852 210.64844 C 301.5163 210.56188 304.22104 211.17607 306.97656 212.69922 C 307.87524 213.19555 308.68234 213.74099 309.41602 214.32422 C 309.77508 214.32625 310.13406 214.32377 310.49414 214.33594 C 317.70889 214.57903 325.08968 216.72354 330.2207 222.08008 C 336.08406 228.20106 338.1578 238.26806 333.70703 251.9375 L 331.4043 258.99609 L 327.91602 252.44531 C 325.36775 247.66253 321.9222 243.43431 318.19531 240.68555 C 315.63386 238.79556 313.01076 237.60674 310.37695 237.24023 C 306.07123 242.14 299.13862 244.52455 291.67773 240.40039 C 290.88184 239.96086 290.15502 239.48747 289.48828 238.98438 C 282.24108 235.22739 273.06844 232.27426 263.79297 233.16211 C 257.60166 236.48091 257.10563 241.58633 264.60742 246.92969 C 270.132 248.91367 276.26302 249.89698 281.56445 249.85742 C 281.92521 249.81617 282.28483 249.78595 282.65234 249.77344 C 285.19081 249.68621 287.89554 250.2998 290.65039 251.82227 C 295.33005 254.40874 297.72156 258.27008 298.36328 262.36719 C 303.76851 267.60674 308.8253 274.34721 310.13477 282.50391 C 311.53281 291.21644 308.17307 301.13883 297.47656 310.75781 L 289.71094 317.74023 L 292.31055 307.61914 C 293.67174 302.31433 292.32397 296.54954 289.53125 291.31641 C 287.53814 287.5814 284.8087 284.17542 282.09375 281.5957 C 279.93734 281.45235 277.66354 280.80653 275.3418 279.52344 C 271.41103 277.35147 269.08913 274.33972 268.04102 271.0625 C 256.72307 252.14235 233.99116 243.0919 226.48633 245.45117 C 219.52719 247.63835 215.13606 254.07508 212.32812 261.23438 C 212.32001 261.26278 212.31476 261.29259 212.30664 261.32031 C 210.46162 267.26819 205.49331 272.34583 199.2168 273.12109 C 196.46634 279.61027 197.54555 288.01159 204.50977 294.61133 L 212.08594 301.79688 L 201.79297 300.01172 C 187.62754 297.56251 179.68959 291.03468 177.01758 282.99023 C 174.34489 274.94579 176.767 266.26283 180.8418 259.2168 C 181.17077 258.64912 181.53343 258.12674 181.92969 257.64258 C 182.18326 251.3877 186.19508 245.20325 191.91406 242.61914 L 191.89453 242.59766 C 191.96215 242.57602 192.02808 242.55646 192.0957 242.53516 C 192.9538 242.16088 193.8529 241.86812 194.7793 241.66797 C 203.10335 238.94152 210.44677 236.1633 217.1875 232.87695 C 223.20368 223.11597 195.13788 189.89279 176.03516 180.9375 L 176.03516 157.43945 z M 296.25 174.58789 C 292.45346 174.58789 288.39146 175.5301 284.55469 176.94336 L 284.55469 176.95312 L 284.54492 176.95312 C 283.11746 177.4782 282.39766 178.3736 281.90234 179.88086 C 281.40669 181.38845 281.37294 183.45764 281.78711 185.32227 C 282.20095 187.18689 283.10955 188.80787 283.80469 189.47461 C 284.50016 190.14202 284.26994 190.14632 284.92383 189.80078 C 285.6024 189.44138 287.1184 188.61717 289.55273 187.84766 C 293.37328 186.51148 297.7104 185.6532 302.17773 185.69141 C 305.73186 185.72184 309.38168 186.35878 312.75391 187.7832 C 310.32262 180.70843 306.69272 177.31526 302.68555 175.71875 C 300.71442 174.933 298.52813 174.58789 296.25 174.58789 z M 308.96094 220.64258 L 308.96094 220.64453 C 308.52817 220.64453 308.09488 220.64783 307.66211 220.66406 C 305.74947 220.73743 304.79055 221.37985 304.01562 222.38672 C 303.2407 223.39291 302.77592 224.92085 302.7793 226.45312 C 302.78268 227.98608 303.28084 229.44976 303.86914 230.20508 C 304.45676 230.96073 304.76874 231.16841 305.82227 231.00781 C 311.64065 230.1203 317.25314 232.14136 321.94531 235.60352 C 324.72451 237.65241 327.19184 240.24933 329.38477 243.13672 C 330.76354 234.97766 328.89331 229.83481 325.6543 226.45312 C 321.83916 222.47063 315.45045 220.63818 308.96094 220.64258 z M 190.54102 259.91406 C 190.19345 259.90358 189.86266 259.92577 189.54688 259.97852 C 188.28576 260.19051 187.26925 260.72533 186.31445 262.37695 C 182.84418 268.37622 181.16471 275.41141 183.01953 280.99414 C 184.39256 285.12743 187.63202 288.94075 194.39844 291.53906 C 189.90068 282.72442 190.94194 272.62566 196.35156 265.55664 C 196.99531 264.71511 196.94861 264.36794 196.5625 263.50781 C 196.17706 262.64768 195.11645 261.52729 193.75391 260.80273 C 192.73115 260.25941 191.58237 259.94746 190.54102 259.91602 L 190.54102 259.91406 z M 290.13281 264.74414 C 289.80316 264.7509 289.45447 264.79611 289.08594 264.86914 C 287.61587 265.16329 285.87596 266.17726 284.51172 267.55469 C 283.14748 268.93144 282.21455 270.64905 281.98633 271.82227 C 281.75777 272.9948 281.80981 273.25329 282.54688 273.77734 C 287.10042 277.01703 291.80883 282.15071 295.10938 288.33594 C 297.01897 291.91474 298.42306 295.89563 298.93359 300.02148 C 303.67918 293.89881 304.68753 288.46543 303.89062 283.49805 C 302.84082 276.95815 298.21421 270.82088 292.96484 265.95898 C 291.98232 265.04848 291.12244 264.72487 290.13281 264.74414 z "
       transform="matrix(0.78382726,0,0,0.78382726,1.5328773,-64.504709)" />
    <g
       id="g615"
       transform="matrix(0.78382726,0,0,0.78382726,147.94786,92.943113)">
      <g
         class=""
         id="g604"
         style="fill:#000000"
         transform="matrix(0.37063053,0,0,0.37063053,-29.590353,-57.540639)" />
    </g>
    <g
       id="g176"
       transform="matrix(0.78382726,0,0,0.78382726,154.84339,-178.74057)">
      <g
         class=""
         id="g165"
         style="fill:#000000"
         transform="matrix(0.33810134,0,0,0.33810134,-25.072717,298.2672)" />
    </g>
  </g>
</svg>
