<?xml version="1.0" encoding="UTF-8" standalone="no"?>
<svg
   width="512" height="512"
   viewBox="0 0 512 512"
   version="1.1"
   id="svg8"
   sodipodi:docname="web_foot.svg"
   inkscape:version="1.1.1 (3bf5ae0d25, 2021-09-20)"
   xmlns:inkscape="http://www.inkscape.org/namespaces/inkscape"
   xmlns:sodipodi="http://sodipodi.sourceforge.net/DTD/sodipodi-0.dtd"
   xmlns="http://www.w3.org/2000/svg"
   xmlns:svg="http://www.w3.org/2000/svg">
  <defs
     id="defs12">
    <filter
       style="color-interpolation-filters:sRGB;"
       inkscape:label="Drop Shadow"
       id="filter889"
       x="-0.21954624"
       y="-0.25249234"
       width="1.4274348"
       height="1.4916096">
      <feFlood
         flood-opacity="1"
         flood-color="rgb(58,63,94)"
         result="flood"
         id="feFlood879" />
      <feComposite
         in="flood"
         in2="SourceGraphic"
         operator="out"
         result="composite1"
         id="feComposite881" />
      <feGaussianBlur
         in="composite1"
         stdDeviation="15"
         result="blur"
         id="feGaussianBlur883" />
      <feOffset
         dx="0"
         dy="0"
         result="offset"
         id="feOffset885" />
      <feComposite
         in="offset"
         in2="SourceGraphic"
         operator="atop"
         result="composite2"
         id="feComposite887" />
    </filter>
    <filter
       style="color-interpolation-filters:sRGB;"
       inkscape:label="Drop Shadow"
       id="filter957"
       x="-0.081784067"
       y="-0.094069513"
       width="1.1635681"
       height="1.188139">
      <feFlood
         flood-opacity="1"
         flood-color="rgb(58,63,94)"
         result="flood"
         id="feFlood947" />
      <feComposite
         in="flood"
         in2="SourceGraphic"
         operator="out"
         result="composite1"
         id="feComposite949" />
      <feGaussianBlur
         in="composite1"
         stdDeviation="11.8021"
         result="blur"
         id="feGaussianBlur951" />
      <feOffset
         dx="0"
         dy="0"
         result="offset"
         id="feOffset953" />
      <feComposite
         in="offset"
         in2="SourceGraphic"
         operator="atop"
         result="composite2"
         id="feComposite955" />
    </filter>
  </defs>
  <sodipodi:namedview
     id="namedview10"
     pagecolor="#505050"
     bordercolor="#eeeeee"
     borderopacity="1"
     inkscape:pageshadow="0"
     inkscape:pageopacity="0"
     inkscape:pagecheckerboard="0"
     showgrid="false"
     showguides="true"
     inkscape:guide-bbox="true"
     inkscape:zoom="1.7050781"
     inkscape:cx="288.84307"
     inkscape:cy="243.68385"
     inkscape:window-width="1716"
     inkscape:window-height="1414"
     inkscape:window-x="3160"
     inkscape:window-y="587"
     inkscape:window-maximized="1"
     inkscape:current-layer="svg8" />
  <path
     d="M0 0h512v512H0z"
     fill="#b90202"
     fill-opacity="1"
     id="path2"
     style="fill:#1b1f21;fill-opacity:0" />
  <g
     class=""
     transform="matrix(1.2757913,0,0,1.2757913,-1.9556315,82.294547)"
     id="g6"
     style="fill:#ff0ec0;fill-opacity:1;filter:url(#filter957)">
    <path
       id="path4"
       style="fill:#ff0ec0;fill-opacity:1"
       d="M 22.398438 103.93164 L 22.398438 300.07227 C 91.826998 329.16031 256.64646 337.45308 329.49414 323.92969 C 318.53451 387.87098 327.75054 442.07016 340.0625 488.08203 C 451.59304 487.95445 340.06182 488.08235 450.89453 487.95898 C 455.12902 421.35006 461.78908 345.26268 463.83594 304.91992 C 464.85657 284.89 469.83276 204.24746 387.28906 176.70312 C 285.09818 142.56297 154.96591 117.14884 22.398438 103.93164 z M 305.93555 166.21875 C 309.92533 169.89191 312.35581 208.94622 316.86914 211.0293 C 321.38247 213.11237 332.14344 190.54825 340.47852 185.86133 C 342.21302 195.93091 319.82805 264.49805 304.55078 264.49805 C 289.27351 264.49805 268.44442 197.83955 271.04688 187.07422 C 275.73378 187.59638 286.84047 213.28596 292.57031 211.0293 C 298.29599 208.77263 299.16694 172.66517 305.93555 166.21875 z M 206.06445 215.92578 C 212.83445 222.3722 213.70401 258.47966 219.42969 260.73633 C 225.15537 262.99299 236.2679 237.30202 240.95898 236.78125 C 243.56283 247.54519 222.73235 314.20312 207.45508 314.20312 C 192.17781 314.20312 169.78698 245.63239 171.52148 235.56836 C 179.85656 240.25528 190.61753 262.8194 195.13086 260.73633 C 199.6428 258.65325 202.07328 219.59338 206.06445 215.92578 z "
       transform="matrix(0.78382726,0,0,0.78382726,1.5328773,-64.504709)" />
    <g
       id="g615"
       transform="matrix(0.78382726,0,0,0.78382726,147.94786,92.943113)"
       style="fill:#ff0ec0;fill-opacity:1">
      <g
         class=""
         id="g604"
         style="fill:#ff0ec0;fill-opacity:1"
         transform="matrix(0.37063053,0,0,0.37063053,-29.590353,-57.540639)" />
    </g>
    <g
       id="g254"
       transform="matrix(1.088514,0,0,1.088514,135.90269,57.489322)"
       style="fill:#ff0ec0;fill-opacity:1">
      <g
         id="g198"
         style="fill:#ff0ec0;fill-opacity:1">
        <g
           id="g196"
           style="fill:#ff0ec0;fill-opacity:1" />
      </g>
      <g
         id="g200"
         style="fill:#ff0ec0;fill-opacity:1" />
      <g
         id="g202"
         style="fill:#ff0ec0;fill-opacity:1" />
      <g
         id="g204"
         style="fill:#ff0ec0;fill-opacity:1" />
      <g
         id="g206"
         style="fill:#ff0ec0;fill-opacity:1" />
      <g
         id="g208"
         style="fill:#ff0ec0;fill-opacity:1" />
      <g
         id="g210"
         style="fill:#ff0ec0;fill-opacity:1" />
      <g
         id="g212"
         style="fill:#ff0ec0;fill-opacity:1" />
      <g
         id="g214"
         style="fill:#ff0ec0;fill-opacity:1" />
      <g
         id="g216"
         style="fill:#ff0ec0;fill-opacity:1" />
      <g
         id="g218"
         style="fill:#ff0ec0;fill-opacity:1" />
      <g
         id="g220"
         style="fill:#ff0ec0;fill-opacity:1" />
      <g
         id="g222"
         style="fill:#ff0ec0;fill-opacity:1" />
      <g
         id="g224"
         style="fill:#ff0ec0;fill-opacity:1" />
      <g
         id="g226"
         style="fill:#ff0ec0;fill-opacity:1" />
      <g
         id="g228"
         style="fill:#ff0ec0;fill-opacity:1" />
    </g>
  </g>
</svg>
