<?xml version="1.0" encoding="UTF-8" standalone="no"?>
<svg
   width="512"
   height="512"
   viewBox="0 0 512 512"
   version="1.1"
   id="svg8"
   sodipodi:docname="4tify.svg"
   inkscape:version="1.2.2 (b0a8486541, 2022-12-01)"
   xml:space="preserve"
   xmlns:inkscape="http://www.inkscape.org/namespaces/inkscape"
   xmlns:sodipodi="http://sodipodi.sourceforge.net/DTD/sodipodi-0.dtd"
   xmlns="http://www.w3.org/2000/svg"
   xmlns:svg="http://www.w3.org/2000/svg"><defs
     id="defs12"><filter
       style="color-interpolation-filters:sRGB;"
       inkscape:label="Drop Shadow"
       id="filter875"
       x="-0.31291152"
       y="-0.16857506"
       width="1.6092078"
       height="1.3282203"><feFlood
         flood-opacity="1"
         flood-color="rgb(58,63,94)"
         result="flood"
         id="feFlood865" /><feComposite
         in="flood"
         in2="SourceGraphic"
         operator="out"
         result="composite1"
         id="feComposite867" /><feGaussianBlur
         in="composite1"
         stdDeviation="15"
         result="blur"
         id="feGaussianBlur869" /><feOffset
         dx="0"
         dy="0"
         result="offset"
         id="feOffset871" /><feComposite
         in="offset"
         in2="SourceGraphic"
         operator="atop"
         result="composite2"
         id="feComposite873" /></filter><filter
       style="color-interpolation-filters:sRGB;"
       inkscape:label="Drop Shadow"
       id="filter1015"
       x="-0.081997928"
       y="-0.044180702"
       width="1.1639959"
       height="1.0883614"><feFlood
         flood-opacity="1"
         flood-color="rgb(58,63,94)"
         result="flood"
         id="feFlood1005" /><feComposite
         in="flood"
         in2="SourceGraphic"
         operator="out"
         result="composite1"
         id="feComposite1007" /><feGaussianBlur
         in="composite1"
         stdDeviation="8.30229"
         result="blur"
         id="feGaussianBlur1009" /><feOffset
         dx="0"
         dy="0"
         result="offset"
         id="feOffset1011" /><feComposite
         in="offset"
         in2="SourceGraphic"
         operator="atop"
         result="composite2"
         id="feComposite1013" /></filter><filter
       style="color-interpolation-filters:sRGB;"
       inkscape:label="Drop Shadow"
       id="filter35638"
       x="-0.057142887"
       y="-0.13067032"
       width="1.1142858"
       height="1.2613406"><feFlood
         flood-opacity="1"
         flood-color="rgb(58,63,94)"
         result="flood"
         id="feFlood35628" /><feComposite
         in="flood"
         in2="SourceGraphic"
         operator="out"
         result="composite1"
         id="feComposite35630" /><feGaussianBlur
         in="composite1"
         stdDeviation="6"
         result="blur"
         id="feGaussianBlur35632" /><feOffset
         dx="0"
         dy="0"
         result="offset"
         id="feOffset35634" /><feComposite
         in="offset"
         in2="SourceGraphic"
         operator="atop"
         result="composite2"
         id="feComposite35636" /></filter><filter
       style="color-interpolation-filters:sRGB;"
       inkscape:label="Drop Shadow"
       id="filter35813"
       x="-0.053321701"
       y="-0.069584126"
       width="1.1066434"
       height="1.1391683"><feFlood
         flood-opacity="1"
         flood-color="rgb(58,63,94)"
         result="flood"
         id="feFlood35803" /><feComposite
         in="flood"
         in2="SourceGraphic"
         operator="out"
         result="composite1"
         id="feComposite35805" /><feGaussianBlur
         in="composite1"
         stdDeviation="8"
         result="blur"
         id="feGaussianBlur35807" /><feOffset
         dx="0"
         dy="0"
         result="offset"
         id="feOffset35809" /><feComposite
         in="offset"
         in2="SourceGraphic"
         operator="atop"
         result="composite2"
         id="feComposite35811" /></filter><filter
       style="color-interpolation-filters:sRGB;"
       inkscape:label="Drop Shadow"
       id="filter36051"
       x="-0.028125"
       y="-0.038976963"
       width="1.05625"
       height="1.0779539"><feFlood
         flood-opacity="1"
         flood-color="rgb(58,63,94)"
         result="flood"
         id="feFlood36041" /><feComposite
         in="flood"
         in2="SourceGraphic"
         operator="out"
         result="composite1"
         id="feComposite36043" /><feGaussianBlur
         in="composite1"
         stdDeviation="6"
         result="blur"
         id="feGaussianBlur36045" /><feOffset
         dx="0"
         dy="0"
         result="offset"
         id="feOffset36047" /><feComposite
         in="offset"
         in2="SourceGraphic"
         operator="atop"
         result="composite2"
         id="feComposite36049" /></filter><filter
       style="color-interpolation-filters:sRGB;"
       inkscape:label="Drop Shadow"
       id="filter36715"
       x="-0.069720211"
       y="-0.091087118"
       width="1.1394404"
       height="1.1821742"><feFlood
         flood-opacity="1"
         flood-color="rgb(58,63,94)"
         result="flood"
         id="feFlood36705" /><feComposite
         in="flood"
         in2="SourceGraphic"
         operator="out"
         result="composite1"
         id="feComposite36707" /><feGaussianBlur
         in="composite1"
         stdDeviation="16.2006"
         result="blur"
         id="feGaussianBlur36709" /><feOffset
         dx="0"
         dy="0"
         result="offset"
         id="feOffset36711" /><feComposite
         in="offset"
         in2="SourceGraphic"
         operator="atop"
         result="composite2"
         id="feComposite36713" /></filter><filter
       style="color-interpolation-filters:sRGB;"
       inkscape:label="Drop Shadow"
       id="filter37057"
       x="-0.079999702"
       y="-0.075040311"
       width="1.1599994"
       height="1.1500806"><feFlood
         flood-opacity="1"
         flood-color="rgb(58,63,94)"
         result="flood"
         id="feFlood37047" /><feComposite
         in="flood"
         in2="SourceGraphic"
         operator="out"
         result="composite1"
         id="feComposite37049" /><feGaussianBlur
         in="composite1"
         stdDeviation="0.5"
         result="blur"
         id="feGaussianBlur37051" /><feOffset
         dx="0"
         dy="0"
         result="offset"
         id="feOffset37053" /><feComposite
         in="offset"
         in2="SourceGraphic"
         operator="atop"
         result="composite2"
         id="feComposite37055" /></filter></defs><sodipodi:namedview
     id="namedview10"
     pagecolor="#505050"
     bordercolor="#eeeeee"
     borderopacity="1"
     inkscape:pageshadow="0"
     inkscape:pageopacity="0"
     inkscape:pagecheckerboard="0"
     showgrid="false"
     inkscape:zoom="1.7558594"
     inkscape:cx="303.55506"
     inkscape:cy="308.11123"
     inkscape:window-width="1716"
     inkscape:window-height="1386"
     inkscape:window-x="1440"
     inkscape:window-y="702"
     inkscape:window-maximized="1"
     inkscape:current-layer="svg8"
     inkscape:showpageshadow="2"
     inkscape:deskcolor="#505050"
     showguides="true" /><path
     d="M0 0h512v512H0z"
     fill="#b90202"
     fill-opacity="1"
     id="path2"
     style="fill:#1b1f21;fill-opacity:0" /><style
     type="text/css"
     id="style35976">
	.st0{fill:#000000;}
</style><g
     style="fill:#ff0ec0;fill-opacity:1;filter:url(#filter37057)"
     id="g36830"
     transform="matrix(29.866556,0,0,29.866556,17.067552,17.067552)"><path
       id="path36821"
       style="fill:#ff0ec0;fill-opacity:1"
       d="M 8,0.00427771 C 7.5888754,0.00428978 7.1856123,0.11694562 6.8340062,0.33001047 L 1.584026,3.5120029 C 0.91114923,3.9196958 0.50009397,4.6492401 0.49997221,5.4359908 v 5.1280182 c 1.2173e-4,0.786751 0.41117699,1.516295 1.08405379,1.923988 l 5.2499802,3.181993 c 0.7166795,0.434257 1.6153081,0.434257 2.3319876,0 l 5.2499802,-3.181993 c 0.672877,-0.407693 1.083932,-1.137237 1.084054,-1.923988 V 5.4359908 C 15.499906,4.6492401 15.088851,3.9196957 14.415974,3.5120029 L 9.1659938,0.33001047 C 8.8143877,0.11694562 8.4111246,0.00428978 8,0.00427771 Z M 4.3100188,3.1879051 h 1.9248379 c 0.088704,0 0.1604141,0.07171 0.1604141,0.160414 V 3.98991 c 0,0.088535 -0.07171,0.160414 -0.1604141,0.160414 H 6.0744427 V 4.5898442 L 7.3124364,3.4649185 c 0.3832197,-0.3685954 0.9884159,-0.3687747 1.3743424,0.0032 l 3.6852732,3.2690332 c 0.111336,0.098817 0.149325,0.2526159 0.09639,0.3918472 -0.05293,0.1394005 -0.183332,0.2294058 -0.332338,0.2294058 h -0.607912 v 4.4912669 h 0.160414 c 0.0887,0 0.160349,0.07171 0.160349,0.160414 v 0.641591 c 0,0.08854 -0.07165,0.160414 -0.160349,0.160414 H 4.3100188 c -0.088704,0 -0.1604141,-0.07188 -0.1604141,-0.160414 V 12.01009 c 0,-0.0887 0.07171,-0.160414 0.1604141,-0.160414 h 0.160414 V 7.3583437 H 3.8663133 c -0.1501524,0 -0.2813738,-0.090589 -0.3346265,-0.2307791 -0.053253,-0.14019 -0.015164,-0.2951375 0.097112,-0.3945937 L 4.4703674,6.0018542 V 4.150324 H 4.3100188 c -0.088704,0 -0.1604141,-0.071879 -0.1604141,-0.160414 V 3.3483191 c 0,-0.088704 0.07171,-0.160414 0.1604141,-0.160414 z m 2.7205649,3.8347658 c -0.3764526,0 -0.7217708,0.1698709 -1.0550837,0.5192368 -0.3867161,0.405344 -0.5534349,1.3360047 0.1393568,2.0289469 0.3126172,0.3124479 1.7588618,1.7132934 1.7734485,1.7274104 l 0.1111715,0.107771 0.1116294,-0.10751 C 8.1256929,11.28441 9.5794196,9.8834717 9.8922058,9.5708546 10.578418,8.8846418 10.414793,7.9523485 10.032871,7.5430194 9.7102904,7.1978265 9.3550369,7.0226709 8.9764789,7.0226709 c -0.3896295,0 -0.7439658,0.2112723 -0.9765443,0.5673675 C 7.7684651,7.2337928 7.4166795,7.0226709 7.0305837,7.0226709 Z"
       sodipodi:nodetypes="ccccccccccccccsssssccccccsccssssssssccsscccssssssccccccscs" /></g><g
     style="fill:#000000"
     id="g36899"
     transform="matrix(0.56141049,0,0,0.56141049,112.27908,112.2792)"><g
       id="g36887">
	<g
   id="g36885">
		<g
   id="g36883">
			
			
		</g>
	</g>
</g></g></svg>
