<?xml version="1.0" encoding="UTF-8" standalone="no"?>
<svg
   width="512"
   height="512"
   viewBox="0 0 512 512"
   version="1.1"
   id="svg8"
   sodipodi:docname="aitwell.svg"
   inkscape:version="1.2.2 (b0a8486541, 2022-12-01)"
   xml:space="preserve"
   xmlns:inkscape="http://www.inkscape.org/namespaces/inkscape"
   xmlns:sodipodi="http://sodipodi.sourceforge.net/DTD/sodipodi-0.dtd"
   xmlns="http://www.w3.org/2000/svg"
   xmlns:svg="http://www.w3.org/2000/svg"><defs
     id="defs12"><filter
       style="color-interpolation-filters:sRGB;"
       inkscape:label="Drop Shadow"
       id="filter875"
       x="-0.31291152"
       y="-0.16857506"
       width="1.6092078"
       height="1.3282203"><feFlood
         flood-opacity="1"
         flood-color="rgb(58,63,94)"
         result="flood"
         id="feFlood865" /><feComposite
         in="flood"
         in2="SourceGraphic"
         operator="out"
         result="composite1"
         id="feComposite867" /><feGaussianBlur
         in="composite1"
         stdDeviation="15"
         result="blur"
         id="feGaussianBlur869" /><feOffset
         dx="0"
         dy="0"
         result="offset"
         id="feOffset871" /><feComposite
         in="offset"
         in2="SourceGraphic"
         operator="atop"
         result="composite2"
         id="feComposite873" /></filter><filter
       style="color-interpolation-filters:sRGB;"
       inkscape:label="Drop Shadow"
       id="filter1015"
       x="-0.081997928"
       y="-0.044180702"
       width="1.1639959"
       height="1.0883614"><feFlood
         flood-opacity="1"
         flood-color="rgb(58,63,94)"
         result="flood"
         id="feFlood1005" /><feComposite
         in="flood"
         in2="SourceGraphic"
         operator="out"
         result="composite1"
         id="feComposite1007" /><feGaussianBlur
         in="composite1"
         stdDeviation="8.30229"
         result="blur"
         id="feGaussianBlur1009" /><feOffset
         dx="0"
         dy="0"
         result="offset"
         id="feOffset1011" /><feComposite
         in="offset"
         in2="SourceGraphic"
         operator="atop"
         result="composite2"
         id="feComposite1013" /></filter><filter
       style="color-interpolation-filters:sRGB;"
       inkscape:label="Drop Shadow"
       id="filter35638"
       x="-0.057142887"
       y="-0.13067032"
       width="1.1142858"
       height="1.2613406"><feFlood
         flood-opacity="1"
         flood-color="rgb(58,63,94)"
         result="flood"
         id="feFlood35628" /><feComposite
         in="flood"
         in2="SourceGraphic"
         operator="out"
         result="composite1"
         id="feComposite35630" /><feGaussianBlur
         in="composite1"
         stdDeviation="6"
         result="blur"
         id="feGaussianBlur35632" /><feOffset
         dx="0"
         dy="0"
         result="offset"
         id="feOffset35634" /><feComposite
         in="offset"
         in2="SourceGraphic"
         operator="atop"
         result="composite2"
         id="feComposite35636" /></filter><filter
       style="color-interpolation-filters:sRGB;"
       inkscape:label="Drop Shadow"
       id="filter35813"
       x="-0.053321701"
       y="-0.069584126"
       width="1.1066434"
       height="1.1391683"><feFlood
         flood-opacity="1"
         flood-color="rgb(58,63,94)"
         result="flood"
         id="feFlood35803" /><feComposite
         in="flood"
         in2="SourceGraphic"
         operator="out"
         result="composite1"
         id="feComposite35805" /><feGaussianBlur
         in="composite1"
         stdDeviation="8"
         result="blur"
         id="feGaussianBlur35807" /><feOffset
         dx="0"
         dy="0"
         result="offset"
         id="feOffset35809" /><feComposite
         in="offset"
         in2="SourceGraphic"
         operator="atop"
         result="composite2"
         id="feComposite35811" /></filter><filter
       style="color-interpolation-filters:sRGB;"
       inkscape:label="Drop Shadow"
       id="filter36051"
       x="-0.028125"
       y="-0.038976963"
       width="1.05625"
       height="1.0779539"><feFlood
         flood-opacity="1"
         flood-color="rgb(58,63,94)"
         result="flood"
         id="feFlood36041" /><feComposite
         in="flood"
         in2="SourceGraphic"
         operator="out"
         result="composite1"
         id="feComposite36043" /><feGaussianBlur
         in="composite1"
         stdDeviation="6"
         result="blur"
         id="feGaussianBlur36045" /><feOffset
         dx="0"
         dy="0"
         result="offset"
         id="feOffset36047" /><feComposite
         in="offset"
         in2="SourceGraphic"
         operator="atop"
         result="composite2"
         id="feComposite36049" /></filter><filter
       style="color-interpolation-filters:sRGB;"
       inkscape:label="Drop Shadow"
       id="filter36715"
       x="-0.069720211"
       y="-0.091087118"
       width="1.1394404"
       height="1.1821742"><feFlood
         flood-opacity="1"
         flood-color="rgb(58,63,94)"
         result="flood"
         id="feFlood36705" /><feComposite
         in="flood"
         in2="SourceGraphic"
         operator="out"
         result="composite1"
         id="feComposite36707" /><feGaussianBlur
         in="composite1"
         stdDeviation="16.2006"
         result="blur"
         id="feGaussianBlur36709" /><feOffset
         dx="0"
         dy="0"
         result="offset"
         id="feOffset36711" /><feComposite
         in="offset"
         in2="SourceGraphic"
         operator="atop"
         result="composite2"
         id="feComposite36713" /></filter><filter
       style="color-interpolation-filters:sRGB;"
       inkscape:label="Drop Shadow"
       id="filter37057"
       x="-0.079999702"
       y="-0.075040311"
       width="1.1599994"
       height="1.1500806"><feFlood
         flood-opacity="1"
         flood-color="rgb(58,63,94)"
         result="flood"
         id="feFlood37047" /><feComposite
         in="flood"
         in2="SourceGraphic"
         operator="out"
         result="composite1"
         id="feComposite37049" /><feGaussianBlur
         in="composite1"
         stdDeviation="0.5"
         result="blur"
         id="feGaussianBlur37051" /><feOffset
         dx="0"
         dy="0"
         result="offset"
         id="feOffset37053" /><feComposite
         in="offset"
         in2="SourceGraphic"
         operator="atop"
         result="composite2"
         id="feComposite37055" /></filter><filter
       style="color-interpolation-filters:sRGB;"
       inkscape:label="Drop Shadow"
       id="filter3381"
       x="-0.059446176"
       y="-0.11153937"
       width="1.1188924"
       height="1.2230787"><feFlood
         flood-opacity="1"
         flood-color="rgb(58,63,94)"
         result="flood"
         id="feFlood3371" /><feComposite
         in="flood"
         in2="SourceGraphic"
         operator="out"
         result="composite1"
         id="feComposite3373" /><feGaussianBlur
         in="composite1"
         stdDeviation="15"
         result="blur"
         id="feGaussianBlur3375" /><feOffset
         dx="0"
         dy="0"
         result="offset"
         id="feOffset3377" /><feComposite
         in="offset"
         in2="SourceGraphic"
         operator="atop"
         result="composite2"
         id="feComposite3379" /></filter><filter
       style="color-interpolation-filters:sRGB;"
       inkscape:label="Drop Shadow"
       id="filter49966"
       x="-0.056458939"
       y="-0.026916259"
       width="1.1129179"
       height="1.0538325"><feFlood
         flood-opacity="1"
         flood-color="rgb(58,63,94)"
         result="flood"
         id="feFlood49956" /><feComposite
         in="flood"
         in2="SourceGraphic"
         operator="out"
         result="composite1"
         id="feComposite49958" /><feGaussianBlur
         in="composite1"
         stdDeviation="15"
         result="blur"
         id="feGaussianBlur49960" /><feOffset
         dx="0"
         dy="0"
         result="offset"
         id="feOffset49962" /><feComposite
         in="offset"
         in2="SourceGraphic"
         operator="atop"
         result="composite2"
         id="feComposite49964" /></filter></defs><sodipodi:namedview
     id="namedview10"
     pagecolor="#505050"
     bordercolor="#eeeeee"
     borderopacity="1"
     inkscape:pageshadow="0"
     inkscape:pageopacity="0"
     inkscape:pagecheckerboard="0"
     showgrid="false"
     inkscape:zoom="0.8779297"
     inkscape:cx="216.41824"
     inkscape:cy="242.61624"
     inkscape:window-width="1716"
     inkscape:window-height="1386"
     inkscape:window-x="1440"
     inkscape:window-y="702"
     inkscape:window-maximized="1"
     inkscape:current-layer="svg8"
     inkscape:showpageshadow="2"
     inkscape:deskcolor="#505050"
     showguides="true" /><path
     d="M0 0h512v512H0z"
     fill="#b90202"
     fill-opacity="1"
     id="path2"
     style="fill:#1b1f21;fill-opacity:0" /><style
     type="text/css"
     id="style35976">
	.st0{fill:#000000;}
</style><g
     style="fill:#000000"
     id="g36899"
     transform="matrix(0.56141049,0,0,0.56141049,112.27908,112.2792)"><g
       id="g36887">
	<g
   id="g36885">
		<g
   id="g36883">
			
			
		</g>
	</g>
</g></g><g
     id="g2762" /><g
     id="g47533"
     transform="matrix(-0.4360882,0,0,0.4360882,393.40909,133.9033)"><g
       id="g47525" /></g><g
     id="g48894"
     transform="matrix(0.3637204,0,0,0.3637204,37.767942,186.51587)"
     style="fill:#ff0ec0;fill-opacity:1;filter:url(#filter49966)"><path
       id="path48886"
       d="m 343.99535,-477.70357 c -42.13688,0 -42.13688,100.00727 0,100.00727 h 42.85837 v 284.811253 h 51.51997 V -265.29833 h 19.93856 V -92.885047 H 741.68234 V -377.6963 h 19.92975 v 284.811253 h 51.52584 V -377.6963 h 42.84955 c 42.15569,0 42.15569,-100.00727 0,-100.00727 z m 20.33675,409.980493 c -42.15559,0 -42.15559,100.017556 0,100.017556 h 471.32892 c 42.15567,0 42.15567,-100.017556 0,-100.017556 z M 386.85666,57.456451 V 328.42213 l -52.53673,-10e-4 c -29.43797,0 -53.1362,23.69823 -53.1362,53.1362 v 70.84877 h 123.79984 c 3.16019,-0.0469 6.20589,1.17835 8.45589,3.39705 2.25389,2.2188 3.52047,5.25015 3.52047,8.41034 0,3.1602 -1.26658,6.18871 -3.52047,8.40741 -2.25,2.22269 -5.2958,3.44445 -8.45589,3.40145 H 281.18373 v 23.61773 h 123.79984 v -0.004 c 3.16019,-0.043 6.20589,1.17982 8.45589,3.39852 2.25389,2.2227 3.52047,5.25015 3.52047,8.41034 0,3.1602 -1.26658,6.19155 -3.52047,8.41035 -2.25,2.21879 -5.2958,3.44152 -8.45589,3.39852 H 281.18373 v 23.61625 h 123.79984 c 3.16019,-0.0469 6.20589,1.17982 8.45589,3.39852 2.25389,2.2188 3.52047,5.24625 3.52047,8.41034 0,3.1602 -1.26658,6.18724 -3.52047,8.40594 -2.25,2.2188 -5.2958,3.44542 -8.45589,3.39852 H 281.18373 v 23.61772 h 123.79984 c 3.16019,-0.043 6.20589,1.17835 8.45589,3.39705 2.25389,2.2188 3.52047,5.25015 3.52047,8.41035 0,3.16019 -1.26658,6.19154 -3.52047,8.41034 -2.25,2.2188 -5.2958,3.44152 -8.45589,3.39852 H 281.18373 v 23.61772 h 123.79984 c 3.16019,-0.0469 6.20589,1.17982 8.45589,3.39852 2.25389,2.2188 3.52047,5.24584 3.52047,8.40594 0,3.16409 -1.26658,6.19154 -3.52047,8.41034 -2.25,2.2188 -5.2958,3.44542 -8.45589,3.39852 H 281.18373 v 23.61625 h 123.79984 c 3.16019,-0.043 6.20589,1.17983 8.45589,3.39852 2.25389,2.2188 3.52047,5.25015 3.52047,8.41035 0,3.16019 -1.26658,6.18764 -3.52047,8.41034 -2.25,2.2188 -5.2958,3.44152 -8.45589,3.39852 H 281.18373 v 23.61625 h 123.79984 v -0.003 c 3.16019,-0.043 6.20589,1.17886 8.45589,3.40145 2.25389,2.2188 3.52047,5.24584 3.52047,8.40594 0,3.1602 -1.26658,6.19154 -3.52047,8.41034 -2.25,2.2188 -5.2958,3.44542 -8.45589,3.39852 H 281.18373 v 5.90223 c 0,29.43797 23.69823,53.13768 53.1362,53.13768 h 501.84065 c 45.79296,0 82.65469,-36.86321 82.65469,-82.65616 V 452.40416 c 0,-26.46412 -12.35575,-49.88998 -31.58727,-64.99796 2.20968,-27.14346 -8.14307,-57.14303 -31.23758,-57.14303 H 813.1394 V 57.456451 H 761.61356 V 191.57479 H 741.68528 V 57.456451 H 458.31519 V 330.26317 H 438.37662 V 57.456451 Z"
       sodipodi:nodetypes="ssccccccccccccsssssssscccscccsccccccssccccccsccccccsccccccsccccccssccccccscccssssscsccccccccccc"
       style="fill:#ff0ec0;fill-opacity:1" /><path
       d="m 381.55,836.16 v 11.809 c 0,6.543 5.2656,11.809 11.809,11.809 h 35.426 c 6.543,0 11.809,-5.2656 11.809,-11.809 V 836.16 Z"
       id="path48890"
       style="fill:#ff0ec0;fill-opacity:1" /><path
       d="m 759.41,836.16 v 11.809 c 0,6.543 5.2656,11.809 11.809,11.809 h 35.426 c 6.543,0 11.809,-5.2656 11.809,-11.809 V 836.16 Z"
       id="path48892"
       style="fill:#ff0ec0;fill-opacity:1" /></g></svg>
