<?xml version="1.0" encoding="UTF-8" standalone="no"?>
<svg
   viewBox="0 0 512 512"
   style="height: 512px; width: 512px;"
   version="1.1"
   id="svg886"
   sodipodi:docname="arasaka-wound-salt.svg"
   inkscape:version="1.2.2 (b0a8486541, 2022-12-01)"
   xmlns:inkscape="http://www.inkscape.org/namespaces/inkscape"
   xmlns:sodipodi="http://sodipodi.sourceforge.net/DTD/sodipodi-0.dtd"
   xmlns="http://www.w3.org/2000/svg"
   xmlns:svg="http://www.w3.org/2000/svg">
  <sodipodi:namedview
     id="namedview888"
     pagecolor="#ffffff"
     bordercolor="#666666"
     borderopacity="1.0"
     inkscape:showpageshadow="2"
     inkscape:pageopacity="0.0"
     inkscape:pagecheckerboard="0"
     inkscape:deskcolor="#d1d1d1"
     showgrid="false"
     inkscape:zoom="1.3037281"
     inkscape:cx="223.20605"
     inkscape:cy="313.71571"
     inkscape:window-width="1716"
     inkscape:window-height="1386"
     inkscape:window-x="1440"
     inkscape:window-y="702"
     inkscape:window-maximized="1"
     inkscape:current-layer="svg886" />
  <defs
     id="defs878">
    <filter
       id="shadow-1"
       height="1.1517236"
       width="1.1517246"
       x="-0.075862315"
       y="-0.075861805">
      <feFlood
         flood-color="rgba(58, 63, 94, 1)"
         result="flood"
         id="feFlood867" />
      <feComposite
         in="flood"
         in2="SourceGraphic"
         operator="out"
         result="composite"
         id="feComposite869" />
      <feGaussianBlur
         in="composite"
         stdDeviation="15"
         result="blur"
         id="feGaussianBlur871" />
      <feOffset
         dx="0"
         dy="0"
         result="offset"
         id="feOffset873" />
      <feComposite
         in2="SourceGraphic"
         in="offset"
         operator="atop"
         id="feComposite875" />
    </filter>
    <filter
       style="color-interpolation-filters:sRGB;"
       inkscape:label="Drop Shadow"
       id="filter2672"
       x="-0.036508511"
       y="-0.030096649"
       width="1.073017"
       height="1.0601933">
      <feFlood
         flood-opacity="1"
         flood-color="rgb(58,63,94)"
         result="flood"
         id="feFlood2662" />
      <feComposite
         in="flood"
         in2="SourceGraphic"
         operator="out"
         result="composite1"
         id="feComposite2664" />
      <feGaussianBlur
         in="composite1"
         stdDeviation="15"
         result="blur"
         id="feGaussianBlur2666" />
      <feOffset
         dx="0"
         dy="0"
         result="offset"
         id="feOffset2668" />
      <feComposite
         in="offset"
         in2="SourceGraphic"
         operator="atop"
         result="composite2"
         id="feComposite2670" />
    </filter>
    <filter
       style="color-interpolation-filters:sRGB;"
       inkscape:label="Drop Shadow"
       id="filter3258"
       x="-0.033333307"
       y="-0.036846098"
       width="1.0666666"
       height="1.0736922">
      <feFlood
         flood-opacity="1"
         flood-color="rgb(58,63,94)"
         result="flood"
         id="feFlood3248" />
      <feComposite
         in="flood"
         in2="SourceGraphic"
         operator="out"
         result="composite1"
         id="feComposite3250" />
      <feGaussianBlur
         in="composite1"
         stdDeviation="15"
         result="blur"
         id="feGaussianBlur3252" />
      <feOffset
         dx="0"
         dy="0"
         result="offset"
         id="feOffset3254" />
      <feComposite
         in="offset"
         in2="SourceGraphic"
         operator="atop"
         result="composite2"
         id="feComposite3256" />
    </filter>
    <filter
       style="color-interpolation-filters:sRGB;"
       inkscape:label="Drop Shadow"
       id="filter4517"
       x="-0.04755843"
       y="-0.048809898"
       width="1.0951169"
       height="1.0976198">
      <feFlood
         flood-opacity="1"
         flood-color="rgb(58,63,94)"
         result="flood"
         id="feFlood4507" />
      <feComposite
         in="flood"
         in2="SourceGraphic"
         operator="out"
         result="composite1"
         id="feComposite4509" />
      <feGaussianBlur
         in="composite1"
         stdDeviation="10"
         result="blur"
         id="feGaussianBlur4511" />
      <feOffset
         dx="0"
         dy="0"
         result="offset"
         id="feOffset4513" />
      <feComposite
         in="offset"
         in2="SourceGraphic"
         operator="atop"
         result="composite2"
         id="feComposite4515" />
    </filter>
  </defs>
  <path
     d="M0 0h512v512H0z"
     fill="#1b1f21"
     fill-opacity="0"
     id="path880" />
  <g
     id="g4493"
     transform="matrix(0.96615788,0,0,0.96615788,4.4520651,12.211382)"
     style="fill:#ff0ec0;fill-opacity:1;filter:url(#filter4517)">
    <g
       id="g3356"
       transform="matrix(0.33818906,-0.19525354,0.19525354,0.33818906,-23.461872,120.44303)"
       style="fill:#ff0ec0;fill-opacity:1">
      <path
         d="m 1182.3,501.94 c -1.3047,-6.0469 -4.5664,-11.5 -9.2812,-15.504 -4.7148,-4.0078 -10.621,-6.3477 -16.801,-6.6602 l -237.45,-11.887 86.457,-195.54 c 3.2422,-7.3516 3.1875,-15.738 -0.1523,-23.047 -3.3398,-7.3086 -9.64844,-12.836 -17.32804,-15.195 -7.6836,-2.3555 -16.008,-1.3164 -22.871,2.8594 l -174.73,106.46 -35.906,-111.68 c -2.2227,-6.8281 -6.9727,-12.547 -13.277,-15.984 -6.3047,-3.4414 -13.684,-4.3359 -20.629,-2.5078 -6.9453,1.8281 -12.926,6.2461 -16.719,12.344 l -81.863,132.77 v -0.004 c -5.2734,8.5586 -5.582,19.281 -0.80859,28.129 4.77341,8.848 13.902,14.477 23.953,14.766 10.047,0.28906 19.488,-4.8047 24.762,-13.363 l 49.801,-80.832 28.125,87.543 v 0.004 c 2.6367,8.1992 8.8867,14.742 16.961,17.746 8.0742,3.0078 17.082,2.1445 24.438,-2.3359 l 128.49,-78.301 -66.695,150.82 0.004,0.004 c -3.75,8.4805 -3.0781,18.266 1.793,26.152 4.8711,7.8906 13.32,12.871 22.582,13.316 l 173.83003,8.6992 -159.80003,82.199 c -7.9102,4.0664 -13.43,11.637 -14.887,20.41 -1.4531,8.7734 1.3242,17.719 7.4961,24.121 l 113.85,118.39 -147.24,-30 h -0.60156 c -8.332,-1.2305 -16.789,1.2383 -23.152,6.7617 -6.3633,5.5195 -10,13.539 -9.9609,21.965 l 3.6172,91.875 -74.531,-58.82 h 0.004 c -7.8945,-6.2266 -18.508,-7.7695 -27.844,-4.0469 -9.3398,3.7188 -15.98,12.141 -17.43,22.086 -1.4453,9.9492 2.5234,19.91 10.414,26.137 l 122.44,96.617 v 0.004 c 5.6562,4.4688 12.812,6.5977 19.992,5.9414 7.1797,-0.65234 13.836,-4.0391 18.59,-9.457 4.7539,-5.418 7.2461,-12.457 6.9648,-19.66 l -4.5195,-117.11 200.61999,40.801 c 1.8477,0.39062 3.7344,0.58203 5.625,0.58203 7.3984,0 14.5,-2.918 19.766,-8.1172 5.2617,-5.1992 8.2656,-12.266 8.3555,-19.664 0.094,-7.3984 -2.7383,-14.535 -7.8711,-19.863 l -150.44999,-156.23 219.23999,-112.76 c 5.5,-2.832 9.9141,-7.3945 12.559,-12.988 2.6445,-5.5938 3.3711,-11.902 2.0664,-17.949 z"
         id="path3354"
         style="fill:#ff0ec0;fill-opacity:1" />
    </g>
    <g
       id="g3899"
       transform="matrix(0.25369044,0.14646824,-0.14646824,0.25369044,133.7132,64.69769)"
       style="fill:#ff0ec0;fill-opacity:1">
      <path
         d="m 790.06,258 c -6.1758,-23.645 -21.352,-43.234 -42.531,-55.234 L 484.059,54.886 C 465.883,44.652 444.532,41.12 423.883,45.0032 l -170.29,31.941 c -23.469,4.4102 -44.648,18.355 -57.883,38.117 l -163.06,244.23 c -19.766,29.648 -19.941,67.941 -0.88281,97.941 l 107.65,167.12 c 16.41,25.766 45.352,40.941 75.176,40.941 6.1758,0 12.176,-0.53125 18.176,-1.9414 l 355.77,-75 c 24,-4.9414 45.176,-19.941 57.883,-40.941 l 133.77,-220.41 c 12.527,-21 16.055,-45.352 9.8789,-69 z m -227.64,244.41 -336,70.941 c -1.2344,0.17578 -2.4727,0.35156 -3.707,0.35156 -5.8242,0 -11.469,-3 -14.824,-8.1172 l -94.414,-147 c -5.293,-8.1172 -3,-19.059 5.2969,-24.352 8.1172,-5.2969 19.059,-2.8242 24.352,5.293 l 87.883,136.77 324.18,-68.293 c 9.5273,-2.1172 18.883,4.0586 21,13.586 1.9375,9.5312 -4.2383,18.883 -13.766,20.824 z"
         id="path3877"
         sodipodi:nodetypes="cccccccccsccccccccsccccccccc"
         style="fill:#ff0ec0;fill-opacity:1" />
      <path
         d="m 454.59,148.23 c 1.7656,9.5273 -4.4102,18.707 -14.117,20.469 l -156.53,29.473 c -1.0586,0.17578 -2.1172,0.35156 -3.1758,0.35156 -8.4727,0 -15.883,-6 -17.469,-14.473 -1.7656,-9.5273 4.5859,-18.707 14.117,-20.648 l 156.53,-29.293 c 9.7031,-1.7617 18.879,4.4141 20.645,14.121 z"
         id="path3879"
         style="fill:#ff0ec0;fill-opacity:1" />
      <path
         d="m 1111.6,870.18 -36.176,-148.06 c -5.6484,-23.824 -20.469,-43.586 -41.469,-55.941 -21.176,-12.352 -45.707,-15.531 -69.176,-9 l -179.29,49.941 c -20.293,5.6484 -37.941,18.527 -49.766,35.824 l -60.176,88.59 c -13.234,19.59 -18.176,44.117 -13.59,67.41 l 36.176,182.65 c 6.8828,34.941 33.883,62.293 68.648,69.883 l 110.82,24 c 6.1758,1.2344 12.352,1.9414 18.707,1.9414 29.648,0 58.234,-15 74.824,-40.414 l 128.47,-196.77 c 13.586,-20.648 17.82,-46.059 11.996,-70.059 z m -307.23,196.23 c -1.0586,0.3516 -2.293,0.3516 -3.3516,0.3516 -8.293,0 -15.707,-5.8242 -17.293,-14.117 l -32.648,-163.77004 c -1.7656,-9.5273 4.4102,-18.883 13.941,-20.648 9.5273,-2.1172 18.883,4.2344 20.824,13.766 l 32.469,163.77004 c 1.7617,9.5312 -4.4141,18.887 -13.941,20.648 z m 216.18,-168.7 -117.53,180 c -3.3516,5.293 -9,7.9414 -14.824,7.9414 -3.3516,0 -6.707,-0.8828 -9.5273,-2.8242 -8.293,-5.293 -10.59,-16.234 -5.2969,-24.352 l 113.47,-173.64 -28.234,-115.23 c -2.293,-9.5273 3.5312,-19.059 13.059,-21.352 9.3516,-2.293 18.883,3.5273 21.352,13.059 l 29.824,122.65 c 1.2344,4.7578 0.3555,9.6992 -2.293,13.758 z"
         id="path3881"
         style="fill:#ff0ec0;fill-opacity:1" />
      <path
         d="M 461.47,911.29 404.294,784.58 c -18.707,-41.293 -65.293,-62.117 -108.35,-48.352 l -102.35,32.469 c -29.824,9.3516 -52.766,34.234 -60,64.59 l -34.59,147.53 c -9.5273,40.41 9.707,81.707 46.941,100.23 l 89.824,45 c 12.707,6.3516 26.297,9.3516 39.883,9.3516 22.234,0 44.293,-8.293 61.234,-24.176 l 104.47,-98.117 c 27.703,-26.113 35.824,-67.055 20.117,-101.82 z m -142.94,-51.352 -67.941,21.531 -27,114.18 c -1.9414,8.1172 -9.1758,13.59 -17.117,13.59 -1.4102,0 -2.6484,-0.1758 -4.0586,-0.5313 -9.5312,-2.1172 -15.352,-11.64795 -13.059,-21.17595 l 29.117,-123.88 c 1.4102,-6 5.8242,-10.941 11.824,-12.707 l 77.473,-24.707 c 9.3516,-2.8242 19.234,2.293 22.234,11.473 2.8203,9.3516 -2.2969,19.234 -11.473,22.234 z"
         id="path3883"
         style="fill:#ff0ec0;fill-opacity:1" />
      <path
         d="m 896.3,518.65 c 0,33 -26.824,59.824 -59.648,59.824 -33,0 -59.824,-26.824 -59.824,-59.824 0,-32.824 26.824,-59.648 59.824,-59.648 32.824,0 59.648,26.824 59.648,59.648 z"
         id="path3887"
         style="fill:#ff0ec0;fill-opacity:1" />
      <path
         d="m 1104.5,428.64 c -16.941,15.883 -39,24.176 -61.234,24.176 -13.586,0 -27.176,-3 -39.883,-9.3516 l -19.766,-10.059 c -37.234,-18.527 -56.645,-59.824 -47.117,-100.23 l 13.234,-55.941 c 7.2344,-30.531 30.176,-55.234 59.824,-64.766 l 26.117,-8.293 c 43.234,-13.59 89.824,7.2344 108.53,48.352 l 17.648,39.527 c 15.707,34.59 7.5898,75.531 -20.117,101.65 z"
         id="path3889"
         style="fill:#ff0ec0;fill-opacity:1" />
      <path
         d="m 1182.4,560.82 c 0,34.41 -28.059,62.469 -62.648,62.469 -34.41,0 -62.469,-28.059 -62.469,-62.469 0,-34.41 28.059,-62.473 62.469,-62.473 34.59,0 62.648,28.059 62.648,62.473 z"
         id="path3891"
         style="fill:#ff0ec0;fill-opacity:1" />
      <path
         d="m 854.12,82.059 c 0,32.824 -26.824,59.648 -59.648,59.648 -32.824,0 -59.469,-26.824 -59.469,-59.648 0,-32.824 26.648,-59.469 59.469,-59.469 32.824,0 59.648,26.645 59.648,59.469 z"
         id="path3893"
         style="fill:#ff0ec0;fill-opacity:1" />
      <path
         d="m 612.36,1059.9 c 0,32.824 -26.648,59.648 -59.469,59.648 -32.648,0 -59.293,-26.824 -59.293,-59.648 0,-32.824 26.648,-59.469 59.293,-59.469 32.82,0 59.469,26.645 59.469,59.469 z"
         id="path3895"
         style="fill:#ff0ec0;fill-opacity:1" />
      <path
         d="m 611.47,755.82 c 0,32.355 -26.23,58.586 -58.59,58.586 -32.355,0 -58.586,-26.23 -58.586,-58.586 0,-32.359 26.23,-58.59 58.586,-58.59 32.359,0 58.59,26.23 58.59,58.59"
         id="path3897"
         style="fill:#ff0ec0;fill-opacity:1" />
    </g>
  </g>
</svg>
