<?xml version="1.0" encoding="UTF-8" standalone="no"?>
<svg
   width="512"
   height="512"
   viewBox="0 0 512 512"
   version="1.1"
   id="svg8"
   sodipodi:docname="dayton-tdt-004.svg"
   inkscape:version="1.2.2 (b0a8486541, 2022-12-01)"
   xml:space="preserve"
   xmlns:inkscape="http://www.inkscape.org/namespaces/inkscape"
   xmlns:sodipodi="http://sodipodi.sourceforge.net/DTD/sodipodi-0.dtd"
   xmlns="http://www.w3.org/2000/svg"
   xmlns:svg="http://www.w3.org/2000/svg"><defs
     id="defs12"><filter
       style="color-interpolation-filters:sRGB;"
       inkscape:label="Drop Shadow"
       id="filter875"
       x="-0.31291152"
       y="-0.16857506"
       width="1.6092078"
       height="1.3282203"><feFlood
         flood-opacity="1"
         flood-color="rgb(58,63,94)"
         result="flood"
         id="feFlood865" /><feComposite
         in="flood"
         in2="SourceGraphic"
         operator="out"
         result="composite1"
         id="feComposite867" /><feGaussianBlur
         in="composite1"
         stdDeviation="15"
         result="blur"
         id="feGaussianBlur869" /><feOffset
         dx="0"
         dy="0"
         result="offset"
         id="feOffset871" /><feComposite
         in="offset"
         in2="SourceGraphic"
         operator="atop"
         result="composite2"
         id="feComposite873" /></filter><filter
       style="color-interpolation-filters:sRGB;"
       inkscape:label="Drop Shadow"
       id="filter1015"
       x="-0.081997928"
       y="-0.044180702"
       width="1.1639959"
       height="1.0883614"><feFlood
         flood-opacity="1"
         flood-color="rgb(58,63,94)"
         result="flood"
         id="feFlood1005" /><feComposite
         in="flood"
         in2="SourceGraphic"
         operator="out"
         result="composite1"
         id="feComposite1007" /><feGaussianBlur
         in="composite1"
         stdDeviation="8.30229"
         result="blur"
         id="feGaussianBlur1009" /><feOffset
         dx="0"
         dy="0"
         result="offset"
         id="feOffset1011" /><feComposite
         in="offset"
         in2="SourceGraphic"
         operator="atop"
         result="composite2"
         id="feComposite1013" /></filter><filter
       style="color-interpolation-filters:sRGB;"
       inkscape:label="Drop Shadow"
       id="filter35638"
       x="-0.057142887"
       y="-0.13067032"
       width="1.1142858"
       height="1.2613406"><feFlood
         flood-opacity="1"
         flood-color="rgb(58,63,94)"
         result="flood"
         id="feFlood35628" /><feComposite
         in="flood"
         in2="SourceGraphic"
         operator="out"
         result="composite1"
         id="feComposite35630" /><feGaussianBlur
         in="composite1"
         stdDeviation="6"
         result="blur"
         id="feGaussianBlur35632" /><feOffset
         dx="0"
         dy="0"
         result="offset"
         id="feOffset35634" /><feComposite
         in="offset"
         in2="SourceGraphic"
         operator="atop"
         result="composite2"
         id="feComposite35636" /></filter><filter
       style="color-interpolation-filters:sRGB;"
       inkscape:label="Drop Shadow"
       id="filter35813"
       x="-0.053321701"
       y="-0.069584126"
       width="1.1066434"
       height="1.1391683"><feFlood
         flood-opacity="1"
         flood-color="rgb(58,63,94)"
         result="flood"
         id="feFlood35803" /><feComposite
         in="flood"
         in2="SourceGraphic"
         operator="out"
         result="composite1"
         id="feComposite35805" /><feGaussianBlur
         in="composite1"
         stdDeviation="8"
         result="blur"
         id="feGaussianBlur35807" /><feOffset
         dx="0"
         dy="0"
         result="offset"
         id="feOffset35809" /><feComposite
         in="offset"
         in2="SourceGraphic"
         operator="atop"
         result="composite2"
         id="feComposite35811" /></filter><filter
       style="color-interpolation-filters:sRGB;"
       inkscape:label="Drop Shadow"
       id="filter36051"
       x="-0.028125"
       y="-0.038976963"
       width="1.05625"
       height="1.0779539"><feFlood
         flood-opacity="1"
         flood-color="rgb(58,63,94)"
         result="flood"
         id="feFlood36041" /><feComposite
         in="flood"
         in2="SourceGraphic"
         operator="out"
         result="composite1"
         id="feComposite36043" /><feGaussianBlur
         in="composite1"
         stdDeviation="6"
         result="blur"
         id="feGaussianBlur36045" /><feOffset
         dx="0"
         dy="0"
         result="offset"
         id="feOffset36047" /><feComposite
         in="offset"
         in2="SourceGraphic"
         operator="atop"
         result="composite2"
         id="feComposite36049" /></filter><filter
       style="color-interpolation-filters:sRGB;"
       inkscape:label="Drop Shadow"
       id="filter36715"
       x="-0.069720211"
       y="-0.091087118"
       width="1.1394404"
       height="1.1821742"><feFlood
         flood-opacity="1"
         flood-color="rgb(58,63,94)"
         result="flood"
         id="feFlood36705" /><feComposite
         in="flood"
         in2="SourceGraphic"
         operator="out"
         result="composite1"
         id="feComposite36707" /><feGaussianBlur
         in="composite1"
         stdDeviation="16.2006"
         result="blur"
         id="feGaussianBlur36709" /><feOffset
         dx="0"
         dy="0"
         result="offset"
         id="feOffset36711" /><feComposite
         in="offset"
         in2="SourceGraphic"
         operator="atop"
         result="composite2"
         id="feComposite36713" /></filter><filter
       style="color-interpolation-filters:sRGB;"
       inkscape:label="Drop Shadow"
       id="filter37057"
       x="-0.079999702"
       y="-0.075040311"
       width="1.1599994"
       height="1.1500806"><feFlood
         flood-opacity="1"
         flood-color="rgb(58,63,94)"
         result="flood"
         id="feFlood37047" /><feComposite
         in="flood"
         in2="SourceGraphic"
         operator="out"
         result="composite1"
         id="feComposite37049" /><feGaussianBlur
         in="composite1"
         stdDeviation="0.5"
         result="blur"
         id="feGaussianBlur37051" /><feOffset
         dx="0"
         dy="0"
         result="offset"
         id="feOffset37053" /><feComposite
         in="offset"
         in2="SourceGraphic"
         operator="atop"
         result="composite2"
         id="feComposite37055" /></filter><filter
       style="color-interpolation-filters:sRGB;"
       inkscape:label="Drop Shadow"
       id="filter3381"
       x="-0.079503702"
       y="-0.16519166"
       width="1.1590074"
       height="1.3303833"><feFlood
         flood-opacity="1"
         flood-color="rgb(58,63,94)"
         result="flood"
         id="feFlood3371" /><feComposite
         in="flood"
         in2="SourceGraphic"
         operator="out"
         result="composite1"
         id="feComposite3373" /><feGaussianBlur
         in="composite1"
         stdDeviation="15"
         result="blur"
         id="feGaussianBlur3375" /><feOffset
         dx="0"
         dy="0"
         result="offset"
         id="feOffset3377" /><feComposite
         in="offset"
         in2="SourceGraphic"
         operator="atop"
         result="composite2"
         id="feComposite3379" /></filter><filter
       style="color-interpolation-filters:sRGB;"
       inkscape:label="Drop Shadow"
       id="filter5102"
       x="-0.031220486"
       y="-0.045396363"
       width="1.062441"
       height="1.0907927"><feFlood
         flood-opacity="1"
         flood-color="rgb(58,63,94)"
         result="flood"
         id="feFlood5092" /><feComposite
         in="flood"
         in2="SourceGraphic"
         operator="out"
         result="composite1"
         id="feComposite5094" /><feGaussianBlur
         in="composite1"
         stdDeviation="15"
         result="blur"
         id="feGaussianBlur5096" /><feOffset
         dx="0"
         dy="0"
         result="offset"
         id="feOffset5098" /><feComposite
         in="offset"
         in2="SourceGraphic"
         operator="atop"
         result="composite2"
         id="feComposite5100" /></filter><filter
       style="color-interpolation-filters:sRGB;"
       inkscape:label="Drop Shadow"
       id="filter5801"
       x="-0.027480794"
       y="-0.38809642"
       width="1.0549616"
       height="1.7761928"><feFlood
         flood-opacity="1"
         flood-color="rgb(58,63,94)"
         result="flood"
         id="feFlood5791" /><feComposite
         in="flood"
         in2="SourceGraphic"
         operator="out"
         result="composite1"
         id="feComposite5793" /><feGaussianBlur
         in="composite1"
         stdDeviation="5"
         result="blur"
         id="feGaussianBlur5795" /><feOffset
         dx="0"
         dy="0"
         result="offset"
         id="feOffset5797" /><feComposite
         in="offset"
         in2="SourceGraphic"
         operator="atop"
         result="composite2"
         id="feComposite5799" /></filter><filter
       style="color-interpolation-filters:sRGB;"
       inkscape:label="Drop Shadow"
       id="filter6473"
       x="-0.026756049"
       y="-0.091368406"
       width="1.0535121"
       height="1.1827368"><feFlood
         flood-opacity="1"
         flood-color="rgb(58,63,94)"
         result="flood"
         id="feFlood6463" /><feComposite
         in="flood"
         in2="SourceGraphic"
         operator="out"
         result="composite1"
         id="feComposite6465" /><feGaussianBlur
         in="composite1"
         stdDeviation="5"
         result="blur"
         id="feGaussianBlur6467" /><feOffset
         dx="0"
         dy="0"
         result="offset"
         id="feOffset6469" /><feComposite
         in="offset"
         in2="SourceGraphic"
         operator="atop"
         result="composite2"
         id="feComposite6471" /></filter></defs><sodipodi:namedview
     id="namedview10"
     pagecolor="#505050"
     bordercolor="#eeeeee"
     borderopacity="1"
     inkscape:pageshadow="0"
     inkscape:pageopacity="0"
     inkscape:pagecheckerboard="0"
     showgrid="false"
     inkscape:zoom="1.7558594"
     inkscape:cx="299.85317"
     inkscape:cy="243.18576"
     inkscape:window-width="1143"
     inkscape:window-height="1402"
     inkscape:window-x="3733"
     inkscape:window-y="684"
     inkscape:window-maximized="1"
     inkscape:current-layer="svg8"
     inkscape:showpageshadow="2"
     inkscape:deskcolor="#505050"
     showguides="true" /><path
     d="M0 0h512v512H0z"
     fill="#b90202"
     fill-opacity="1"
     id="path2"
     style="fill:#1b1f21;fill-opacity:0" /><style
     type="text/css"
     id="style35976">
	.st0{fill:#000000;}
</style><g
     style="fill:#000000"
     id="g36899"
     transform="matrix(0.56141049,0,0,0.56141049,112.27908,112.2792)"><g
       id="g36887">
	<g
   id="g36885">
		<g
   id="g36883">
			
			
		</g>
	</g>
</g></g><g
     id="g2762" /><g
     id="g6461"
     style="filter:url(#filter6473)"
     transform="matrix(-1.0554933,0,0,1.0554933,540.5027,-17.129672)"><path
       d="m 198.48945,206.09197 h 24.66312 v -2.70969 c 4.99038,0.86445 10.00877,1.94589 14.49969,3.312 14.9525,4.53757 26.33843,11.28815 29.50952,13.27231 0.59191,0.368 1.28972,0.52251 2.0049,0.44785 l 140.5664,-14.82941 c 3.69045,-0.38884 3.37627,-5.34812 -0.34195,-5.34812 H 223.15575 v -3.12453 h -24.66311 v -3.10893 c 0,-2.4788 -2.01011,-4.49047 -4.49046,-4.49047 -2.47879,0 -4.49047,2.01011 -4.49047,4.49047 v 3.10893 h -24.61467 v 3.12453 H -21.369433 c -3.716484,0 -4.030663,4.95928 -0.341965,5.34812 l 140.566408,14.82978 c 0.71518,0.0747 1.41299,-0.0799 2.0049,-0.44784 3.17315,-1.98407 14.5588,-8.73475 29.50953,-13.27231 4.49579,-1.36438 9.52484,-2.45275 14.5259,-3.31721 v 2.7149 h 24.61468 z"
       id="path5240"
       style="fill:#ff0ec0;fill-opacity:1;stroke-width:0.444379"
       sodipodi:nodetypes="cccccccscccssscccscccccccc"
       transform="matrix(0.67346955,0,0,0.67346955,61.67708,65.470257)" /><g
       id="g5900"
       transform="matrix(0.3832843,0,0,0.3832843,26.026642,32.507153)"
       style="fill:#ff0ec0;fill-opacity:1"><path
         d="M 560.75,740.11 H 281.36 c -2.6641,0 -4.8125,2.1602 -4.8125,4.8242 v 4.5703 c -12.852,-0.73047 -17.137,-3.0469 -20.398,-4.8008 -0.57422,-0.30078 -1.1289,-0.61328 -1.668,-0.88672 -3.0117,-1.5 -25.141,-13.715 -41.27,-22.645 -9.9375,-5.3867 -19.969,2.5547 -19.969,2.5547 0,0 51.227,28.379 55.895,30.73 0.44531,0.21484 0.875,0.46875 1.332,0.70703 4.4023,2.3867 10.934,5.9023 30.18,6.4219 0.23828,0.0469 0.46875,0.0703 0.70703,0.0703 h 279.41 c 2.6641,0 4.8125,-2.1602 4.8125,-4.8008 v -11.902 c 0.004,-2.6953 -2.1406,-4.8438 -4.8203,-4.8438 z"
         id="path5890"
         style="fill:#ff0ec0;fill-opacity:1" /><path
         d="m 1220.4165,486.35681 -210.7026,-1.22543 1.9717,27.22373 84.1107,0.42599 -24.2813,48.1489 -448.93,-11.879 -41.148,-10.285 c 0,0 -0.0586,-0.28906 -0.15625,-0.80469 l 25.094,-2.3047 v -28.895 c -12.949,0 -22.922,1.2109 -30.348,2.7344 -2.7344,-14.387 -9.6719,-34.477 -53.258,-34.477 h -81.38818 v -23.88468 h -17.21282 v 23.88468 h -49.309 c -13.609,0 -18.406,7.0547 -20.977,10.766 -2.5664,3.7305 -10.199,14.172 -10.199,14.172 h -10.96681 c -27.62182,0 -28.86645,1.36301 -83.316,23.953 -145.30258,71.03679 -144.88819,71.82 -144.88819,71.82 0,0 -30.887,22.152 -30.887,38.82 0,44.953 166.05,58.523 208.56,58.523 h 59.363 v 36.961 h 11.902 v -36.961 h 51.574 c 16.285,0 37.883,-2.3164 52.285,-5.5312 5.2812,-1.1758 25.066,-6.7305 48.035,-13.285 v 55.777 h 11.902 v -59.207 c 37.008,-10.633 77.062,-22.332 77.062,-22.332 l 178.08,-17.543 8.7969,14.09 21.527,-2.2578 1.9219,-14.988 253.74005,-31.512 14.2168,9.68422 50.7893,-1.93659 -0.3222,-14.10263 36.133,-3.5391 v -11.902 l -35.1768,-0.45068 11.8233,-60.35947 79.6116,-0.005 z M 113.8846,599.1603 c 140.42449,-68.24385 140.53319,-68.594 140.53319,-68.594 h 5.5078 l -1.5234,10.031 -81.36907,65.08418 c 0,0 -42.16706,-3.88638 -63.14852,-6.52118 z m 240.5362,-9.5153 -17.438,10.621 c 0,0 -34.367,1.8125 -69.562,3.1328 -64.51248,4.24919 -0.36192,0.15695 -64.59171,3.97452 2.6875,-5.1484 76.49882,-68.96114 76.49882,-68.96114 l 14.102,-8.5078 h 69.98722 z"
         id="path5898"
         style="fill:#ff0ec0;fill-opacity:1"
         sodipodi:nodetypes="cccccccccccsccccsccsccssccccscccccccccccccccccccccccccccccccccc" /></g></g></svg>
