<?xml version="1.0" encoding="UTF-8" standalone="no"?>
<svg
   width="512"
   height="512"
   viewBox="0 0 512 512"
   version="1.1"
   id="svg8"
   sodipodi:docname="digital-gladiator.svg"
   inkscape:version="1.2.2 (b0a8486541, 2022-12-01)"
   xml:space="preserve"
   xmlns:inkscape="http://www.inkscape.org/namespaces/inkscape"
   xmlns:sodipodi="http://sodipodi.sourceforge.net/DTD/sodipodi-0.dtd"
   xmlns="http://www.w3.org/2000/svg"
   xmlns:svg="http://www.w3.org/2000/svg"><defs
     id="defs12"><filter
       style="color-interpolation-filters:sRGB;"
       inkscape:label="Drop Shadow"
       id="filter875"
       x="-0.31291152"
       y="-0.16857506"
       width="1.6092078"
       height="1.3282203"><feFlood
         flood-opacity="1"
         flood-color="rgb(58,63,94)"
         result="flood"
         id="feFlood865" /><feComposite
         in="flood"
         in2="SourceGraphic"
         operator="out"
         result="composite1"
         id="feComposite867" /><feGaussianBlur
         in="composite1"
         stdDeviation="15"
         result="blur"
         id="feGaussianBlur869" /><feOffset
         dx="0"
         dy="0"
         result="offset"
         id="feOffset871" /><feComposite
         in="offset"
         in2="SourceGraphic"
         operator="atop"
         result="composite2"
         id="feComposite873" /></filter><filter
       style="color-interpolation-filters:sRGB;"
       inkscape:label="Drop Shadow"
       id="filter1015"
       x="-0.081997928"
       y="-0.044180702"
       width="1.1639959"
       height="1.0883614"><feFlood
         flood-opacity="1"
         flood-color="rgb(58,63,94)"
         result="flood"
         id="feFlood1005" /><feComposite
         in="flood"
         in2="SourceGraphic"
         operator="out"
         result="composite1"
         id="feComposite1007" /><feGaussianBlur
         in="composite1"
         stdDeviation="8.30229"
         result="blur"
         id="feGaussianBlur1009" /><feOffset
         dx="0"
         dy="0"
         result="offset"
         id="feOffset1011" /><feComposite
         in="offset"
         in2="SourceGraphic"
         operator="atop"
         result="composite2"
         id="feComposite1013" /></filter><filter
       style="color-interpolation-filters:sRGB;"
       inkscape:label="Drop Shadow"
       id="filter35638"
       x="-0.057142887"
       y="-0.13067032"
       width="1.1142858"
       height="1.2613406"><feFlood
         flood-opacity="1"
         flood-color="rgb(58,63,94)"
         result="flood"
         id="feFlood35628" /><feComposite
         in="flood"
         in2="SourceGraphic"
         operator="out"
         result="composite1"
         id="feComposite35630" /><feGaussianBlur
         in="composite1"
         stdDeviation="6"
         result="blur"
         id="feGaussianBlur35632" /><feOffset
         dx="0"
         dy="0"
         result="offset"
         id="feOffset35634" /><feComposite
         in="offset"
         in2="SourceGraphic"
         operator="atop"
         result="composite2"
         id="feComposite35636" /></filter><filter
       style="color-interpolation-filters:sRGB;"
       inkscape:label="Drop Shadow"
       id="filter35813"
       x="-0.053321701"
       y="-0.069584126"
       width="1.1066434"
       height="1.1391683"><feFlood
         flood-opacity="1"
         flood-color="rgb(58,63,94)"
         result="flood"
         id="feFlood35803" /><feComposite
         in="flood"
         in2="SourceGraphic"
         operator="out"
         result="composite1"
         id="feComposite35805" /><feGaussianBlur
         in="composite1"
         stdDeviation="8"
         result="blur"
         id="feGaussianBlur35807" /><feOffset
         dx="0"
         dy="0"
         result="offset"
         id="feOffset35809" /><feComposite
         in="offset"
         in2="SourceGraphic"
         operator="atop"
         result="composite2"
         id="feComposite35811" /></filter><filter
       style="color-interpolation-filters:sRGB;"
       inkscape:label="Drop Shadow"
       id="filter36051"
       x="-0.028125"
       y="-0.038976963"
       width="1.05625"
       height="1.0779539"><feFlood
         flood-opacity="1"
         flood-color="rgb(58,63,94)"
         result="flood"
         id="feFlood36041" /><feComposite
         in="flood"
         in2="SourceGraphic"
         operator="out"
         result="composite1"
         id="feComposite36043" /><feGaussianBlur
         in="composite1"
         stdDeviation="6"
         result="blur"
         id="feGaussianBlur36045" /><feOffset
         dx="0"
         dy="0"
         result="offset"
         id="feOffset36047" /><feComposite
         in="offset"
         in2="SourceGraphic"
         operator="atop"
         result="composite2"
         id="feComposite36049" /></filter><filter
       style="color-interpolation-filters:sRGB;"
       inkscape:label="Drop Shadow"
       id="filter36715"
       x="-0.069720211"
       y="-0.091087118"
       width="1.1394404"
       height="1.1821742"><feFlood
         flood-opacity="1"
         flood-color="rgb(58,63,94)"
         result="flood"
         id="feFlood36705" /><feComposite
         in="flood"
         in2="SourceGraphic"
         operator="out"
         result="composite1"
         id="feComposite36707" /><feGaussianBlur
         in="composite1"
         stdDeviation="16.2006"
         result="blur"
         id="feGaussianBlur36709" /><feOffset
         dx="0"
         dy="0"
         result="offset"
         id="feOffset36711" /><feComposite
         in="offset"
         in2="SourceGraphic"
         operator="atop"
         result="composite2"
         id="feComposite36713" /></filter><filter
       style="color-interpolation-filters:sRGB;"
       inkscape:label="Drop Shadow"
       id="filter37057"
       x="-0.079999702"
       y="-0.075040311"
       width="1.1599994"
       height="1.1500806"><feFlood
         flood-opacity="1"
         flood-color="rgb(58,63,94)"
         result="flood"
         id="feFlood37047" /><feComposite
         in="flood"
         in2="SourceGraphic"
         operator="out"
         result="composite1"
         id="feComposite37049" /><feGaussianBlur
         in="composite1"
         stdDeviation="0.5"
         result="blur"
         id="feGaussianBlur37051" /><feOffset
         dx="0"
         dy="0"
         result="offset"
         id="feOffset37053" /><feComposite
         in="offset"
         in2="SourceGraphic"
         operator="atop"
         result="composite2"
         id="feComposite37055" /></filter></defs><sodipodi:namedview
     id="namedview10"
     pagecolor="#505050"
     bordercolor="#eeeeee"
     borderopacity="1"
     inkscape:pageshadow="0"
     inkscape:pageopacity="0"
     inkscape:pagecheckerboard="0"
     showgrid="false"
     inkscape:zoom="1.7558594"
     inkscape:cx="302.98554"
     inkscape:cy="308.11123"
     inkscape:window-width="1716"
     inkscape:window-height="1402"
     inkscape:window-x="3160"
     inkscape:window-y="684"
     inkscape:window-maximized="1"
     inkscape:current-layer="svg8"
     inkscape:showpageshadow="2"
     inkscape:deskcolor="#505050"
     showguides="true" /><path
     d="M0 0h512v512H0z"
     fill="#b90202"
     fill-opacity="1"
     id="path2"
     style="fill:#1b1f21;fill-opacity:0" /><style
     type="text/css"
     id="style35976">
	.st0{fill:#000000;}
</style><g
     style="fill:#ff0ec0;fill-opacity:1;filter:url(#filter37057)"
     id="g36830"
     transform="matrix(29.866556,0,0,29.866556,17.067552,17.067552)"><path
       id="path36821"
       style="fill:#ff0ec0;fill-opacity:1"
       d="m 7.9820818,-0.06046339 c -0.097556,5.9679e-4 -0.195273,0.0070387 -0.2926429,0.01942233 C 6.4919612,0.21570613 5.566118,1.1304329 4.4897898,1.6727671 3.3694327,2.4134449 2.1223004,2.9839849 1.0800917,3.8300845 0.06208097,4.8741894 0.54578817,6.4390784 0.43359623,7.7355424 c 0.0888947,1.2282762 -0.19357976,2.5125626 0.1718582,3.7039106 0.53028217,1.243545 1.98869837,1.597979 2.99587817,2.349317 1.274976,0.702413 2.4466692,1.622901 3.7853926,2.191715 1.3830736,0.408037 2.4867971,-0.759094 3.6103958,-1.342299 1.2903,-0.845864 2.710981,-1.51649 3.922787,-2.46827 C 15.937919,11.12581 15.454211,9.5609216 15.566404,8.2644576 15.477509,7.0361814 15.759979,5.7518942 15.394546,4.5605472 14.86426,3.3170052 13.405847,2.9625709 12.398667,2.2112299 11.125718,1.5092559 9.9549873,0.59188716 8.6191604,0.02147661 8.4106891,-0.03455809 8.1967037,-0.06177631 7.9820818,-0.06046339 Z M 8,3.4612563 c 0.1475271,0 0.2670734,0.119547 0.2670734,0.2670734 V 6.0761429 C 8.2670734,6.2236344 8.1474915,6.3432163 8,6.3432163 7.8524729,6.3432163 7.7329266,6.22367 7.7329266,6.0761429 V 3.7283297 C 7.7329266,3.5808033 7.8524729,3.4612563 8,3.4612563 Z m 1.8840969,0.5383975 c 0.0745,-0.00126 0.1489061,0.023839 0.2078911,0.069253 0.117165,0.087087 0.162993,0.2551747 0.106201,0.3896891 C 9.9304651,5.0295567 9.6606492,5.5995768 9.3921299,6.170181 9.3629754,6.2407903 9.3214383,6.3093438 9.2559774,6.3517177 9.1407487,6.4332467 8.9742023,6.4286404 8.8636071,6.3409275 8.7463605,6.2538099 8.7004761,6.0854691 8.7576017,5.9509768 9.0301882,5.3693192 9.3051477,4.7886713 9.5786366,4.2074139 9.627597,4.0856242 9.752564,3.9996511 9.8840969,3.9996538 Z m -3.7638123,0.06703 c 0.096991,0.00319 0.188746,0.05934 0.2329372,0.1531553 l 0.8211003,1.7425165 c 0.062885,0.1334261 0.00571,0.2924719 -0.1277166,0.3553567 -0.1333543,0.062885 -0.2925724,0.00575 -0.3554221,-0.1277165 L 5.8700831,4.4475445 C 5.8071983,4.314119 5.8643736,4.1550072 5.9977997,4.0921224 c 0.033365,-0.01573 0.068331,-0.023975 0.1029972,-0.025373 0.0065,-2.622e-4 0.013022,-2.783e-4 0.019488,-6.54e-5 z M 4.8106179,5.5848953 c 0.1075344,-0.00362 0.216398,0.032759 0.3029099,0.1099945 L 6.0610367,6.5407094 C 6.2391168,6.6996675 6.2546244,6.9739066 6.0956307,7.1520223 5.9395569,7.3269332 5.6668017,7.349349 5.4844485,7.1866163 L 4.9442854,6.7044586 c -0.057081,-0.050992 -0.1447594,-0.046035 -0.1958582,0.011117 -0.052345,0.058684 -0.043863,0.1466881 0.011117,0.1957928 l 0.1131334,0.10097 c -0.018054,0.063455 -0.028382,0.1302014 -0.028382,0.1993895 0,0.2050004 0.084766,0.394647 0.227771,0.5295691 -0.1430053,0.1348866 -0.227771,0.3245985 -0.227771,0.5296346 0,0.205036 0.084766,0.3948134 0.227771,0.5296999 -0.1430053,0.1348865 -0.227771,0.3245985 -0.227771,0.5296345 0,0.2050361 0.084766,0.3947778 0.227771,0.5297 -0.1430053,0.1348865 -0.227771,0.3245989 -0.227771,0.5296339 0,0.148525 0.046607,0.291986 0.1252316,0.408 H 4.0647873 C 3.2394442,10.7976 2.56796,10.126182 2.56796,9.3008384 V 8.2152805 c 0,-0.350534 0.08223,-0.5922546 0.3410352,-0.9185389 0.098921,-0.124738 0.3686696,-0.4134881 1.6027673,-1.5777211 l 0.00405,-0.00399 C 4.5968985,5.6321339 4.7030835,5.5885185 4.8106179,5.5848953 Z m 6.3613691,0.065657 c 0.02574,-8.49e-5 0.05181,0.00303 0.07802,0.00987 0.667946,0.4948368 1.31275,1.1059271 1.846037,1.7565765 0.440962,0.6267679 0.244519,1.4588778 0.239869,2.1751048 -0.174715,0.9673181 -1.250912,1.2789951 -2.104282,1.1386581 -0.103414,-0.105752 0.09653,-0.592058 -0.157406,-0.8027237 0.02223,-0.2473458 0.301929,-0.6949779 0.0306,-1.0087841 C 10.978936,8.684674 11.384468,8.3306997 11.174668,8.0066049 10.869165,7.7006174 11.357588,7.420341 11.199191,7.0373848 11.575899,6.8693 11.158696,6.3765549 10.935192,6.7211997 10.705599,6.9991717 10.133371,7.5259187 9.8808271,6.9846764 9.8085648,6.4100119 10.596081,6.2005025 10.878886,5.7921976 c 0.0768,-0.080519 0.181573,-0.1412779 0.293101,-0.1416457 z M 6.4794342,6.8035975 h 0.3857001 c 0.2801346,0 0.5223969,0.2119857 0.5417326,0.4914438 0.014208,0.2057122 -0.089516,0.3878801 -0.2500053,0.4871931 H 7.29648 c 0.2848706,0 0.5299132,0.2189264 0.5433021,0.5034765 0.014315,0.3038146 -0.2277467,0.5546511 -0.528392,0.5546155 H 7.1924365 c 0.1604177,0.099313 0.2641478,0.2814511 0.2499399,0.4871277 -0.0193,0.2794583 -0.2615326,0.4915093 -0.5416672,0.4915093 H 6.7427147 C 6.9031326,9.9182764 7.006928,10.100415 6.99272,10.306091 6.97342,10.58555 6.7311874,10.7976 6.4510528,10.7976 H 5.4904649 c -0.1925728,-0.03899 -0.3335802,-0.211076 -0.3335802,-0.408065 0,-0.143752 0.073178,-0.274093 0.1911497,-0.349798 0.025175,-0.01613 0.054746,-0.02407 0.084621,-0.02407 h 0.7054819 c 0.075562,0 0.1445006,-0.051029 0.1591715,-0.1251665 C 6.3173568,9.7891628 6.2365645,9.7031487 6.1440884,9.7031487 H 5.4258545 c -0.028879,0 -0.057072,-0.00877 -0.080894,-0.025112 h -6.54e-5 C 5.228775,9.6020478 5.1568847,9.4726717 5.1568847,9.3302007 c 0,-0.1424708 0.07189,-0.2718171 0.1880108,-0.3477709 h 6.54e-5 c 0.026457,-0.0167 0.057084,-0.025569 0.088349,-0.025569 h 1.0221247 c 0.070826,0 0.1374852,-0.042968 0.1587791,-0.1105177 C 6.6453356,8.7475995 6.5699153,8.6443374 6.4650473,8.6443374 H 5.433375 c -0.0313,0 -0.061957,-0.00887 -0.088414,-0.025569 l -6.54e-5,-6.54e-5 C 5.228775,8.5427132 5.1568847,8.4134025 5.1568847,8.2709317 c 0,-0.1425067 0.07189,-0.2718173 0.1880108,-0.3477709 L 5.3450917,7.92303 c 0.025282,-0.016309 0.054823,-0.024981 0.084948,-0.024981 h 0.8424845 c 0.1179009,0 0.1975671,-0.1303775 0.1334713,-0.236207 -0.029591,-0.048855 -0.08482,-0.076381 -0.1419727,-0.076381 H 6.1261048 c -0.025176,0 -0.032647,-0.033585 -0.010071,-0.04473 C 6.1829431,7.5077211 6.2450981,7.4615097 6.2994017,7.4006543 6.4345726,7.2492101 6.4953514,6.9915052 6.4794342,6.8035975 Z m 2.6554315,0 h 0.3853731 c -0.017377,0.2059969 0.051421,0.3922021 0.1771552,0.5330351 0.068796,0.077057 0.1450536,0.1393636 0.2253513,0.1848718 0.030695,0.017377 0.018482,0.063956 -0.016807,0.063956 H 9.7352577 c -0.057223,0 -0.1124405,0.027895 -0.1417111,0.077035 -0.063312,0.1063279 0.016735,0.235553 0.1339945,0.235553 h 0.8416339 c 0.03038,0 0.0602,0.0087 0.0858,0.025046 l 1.96e-4,1.308e-4 c 0.115431,0.077033 0.188011,0.2052999 0.188011,0.3477709 0,0.142435 -0.07185,0.2717161 -0.188011,0.3477055 l -1.31e-4,6.54e-5 c -0.02792,0.016771 -0.05979,0.025569 -0.09234,0.025569 H 9.5349527 c -0.1184349,0 -0.1978098,0.1312271 -0.1331444,0.2366647 0.02984,0.048642 0.085153,0.075924 0.1422343,0.075924 h 1.0251984 c 0.03045,0 0.06021,0.00881 0.08567,0.025439 l 1.97e-4,1.962e-4 c 0.116117,0.075954 0.18801,0.2052705 0.18801,0.3477055 0,0.1424709 -0.07238,0.2709946 -0.18801,0.3477709 l -1.97e-4,1.308e-4 c -0.02491,0.016537 -0.05429,0.025046 -0.08416,0.025046 H 9.8557808 c -0.092583,0 -0.1732561,0.086186 -0.152959,0.1874222 0.014706,0.074066 0.083645,0.1250357 0.1591715,0.1250357 h 0.7070517 c 0.03066,0 0.06059,0.0091 0.08613,0.02609 l 6.5e-5,6.6e-5 c 0.116121,0.07595 0.188011,0.20527 0.188011,0.347705 0,0.197309 -0.14136,0.369145 -0.333645,0.408065 H 9.5490126 c -0.2801343,0 -0.5223316,-0.21205 -0.5416672,-0.491509 -0.014208,-0.205676 0.089588,-0.3878147 0.2500053,-0.4871276 H 9.0993562 c -0.2801343,0 -0.5223316,-0.2120512 -0.5416672,-0.4915093 -0.014244,-0.2056764 0.089552,-0.3877792 0.2500053,-0.4871277 h -0.119019 c -0.3006807,0 -0.5427722,-0.2508368 -0.5284574,-0.5546155 C 8.1736068,8.0011611 8.4187151,7.7822344 8.7035854,7.7822344 H 8.8432038 C 8.6827151,7.6829215 8.5788896,7.5007533 8.5931331,7.2950413 8.6124688,7.0155835 8.8547314,6.8035975 9.1348657,6.8035975 Z M 5.1610046,7.269668 5.2997075,7.3935262 c 0.069366,0.061888 0.1476195,0.1113754 0.2301252,0.1468773 0.023609,0.010149 0.016424,0.045123 -0.00929,0.045123 h -0.088022 c -0.02984,0 -0.059452,-0.00793 -0.084556,-0.024065 C 5.2461633,7.4960829 5.1777764,7.3899904 5.1610046,7.269668 Z m 5.6779904,0 c -0.01656,0.1191114 -0.08376,0.2242455 -0.18389,0.2897655 l -6.6e-5,6.54e-5 c -0.02418,0.016914 -0.05301,0.025997 -0.08253,0.025962 h -0.02256 c -0.03401,0 -0.04771,-0.044725 -0.01883,-0.062779 0.03119,-0.019514 0.06179,-0.042463 0.09149,-0.068992 z"
       sodipodi:nodetypes="scccccccccccccsssssssscccccccccsccccccsssccccccccscscscscssscccsscccccccccccscsccsccccsccscscsscssccsccsscssccsccssssscccscscsscsscssccsscssccssssscssccscsccsccscsccscccssccccccsccc" /></g><g
     style="fill:#000000"
     id="g36899"
     transform="matrix(0.56141049,0,0,0.56141049,112.27908,112.2792)"><g
       id="g36887">
	<g
   id="g36885">
		<g
   id="g36883">
			
			
		</g>
	</g>
</g></g><g
     style="fill:#000000"
     id="g37216"
     transform="matrix(6.3369851,0,0,6.3369851,97.22263,94.40688)" /><g
     style="fill:#000000"
     id="g37408"
     transform="matrix(20.880283,0,0,20.880283,120.27816,72.010075)" /><g
     style="fill:#000000"
     id="g37690"
     transform="matrix(1.0635163,0,0,1.0635163,93.764311,59.764311)"><g
       id="g37671">
	<g
   id="g37653">
		
		
	</g>
	
	<g
   id="g37661">
		
		
	</g>
	
	
	
	
</g></g></svg>
