<?xml version="1.0" encoding="UTF-8" standalone="no"?>
<svg
   viewBox="0 0 512 512"
   style="height: 512px; width: 512px;"
   version="1.1"
   id="svg886"
   sodipodi:docname="dirk-combat-jacket.svg"
   inkscape:version="1.2.2 (b0a8486541, 2022-12-01)"
   xmlns:inkscape="http://www.inkscape.org/namespaces/inkscape"
   xmlns:sodipodi="http://sodipodi.sourceforge.net/DTD/sodipodi-0.dtd"
   xmlns="http://www.w3.org/2000/svg"
   xmlns:svg="http://www.w3.org/2000/svg">
  <sodipodi:namedview
     id="namedview888"
     pagecolor="#ffffff"
     bordercolor="#666666"
     borderopacity="1.0"
     inkscape:showpageshadow="2"
     inkscape:pageopacity="0.0"
     inkscape:pagecheckerboard="0"
     inkscape:deskcolor="#d1d1d1"
     showgrid="false"
     inkscape:zoom="1.3037281"
     inkscape:cx="217.83683"
     inkscape:cy="289.93775"
     inkscape:window-width="1716"
     inkscape:window-height="1386"
     inkscape:window-x="1440"
     inkscape:window-y="702"
     inkscape:window-maximized="1"
     inkscape:current-layer="svg886" />
  <defs
     id="defs878">
    <filter
       id="shadow-1"
       height="1.1517236"
       width="1.1517246"
       x="-0.075862315"
       y="-0.075861805">
      <feFlood
         flood-color="rgba(58, 63, 94, 1)"
         result="flood"
         id="feFlood867" />
      <feComposite
         in="flood"
         in2="SourceGraphic"
         operator="out"
         result="composite"
         id="feComposite869" />
      <feGaussianBlur
         in="composite"
         stdDeviation="15"
         result="blur"
         id="feGaussianBlur871" />
      <feOffset
         dx="0"
         dy="0"
         result="offset"
         id="feOffset873" />
      <feComposite
         in2="SourceGraphic"
         in="offset"
         operator="atop"
         id="feComposite875" />
    </filter>
    <filter
       style="color-interpolation-filters:sRGB;"
       inkscape:label="Drop Shadow"
       id="filter2672"
       x="-0.036508511"
       y="-0.030096649"
       width="1.073017"
       height="1.0601933">
      <feFlood
         flood-opacity="1"
         flood-color="rgb(58,63,94)"
         result="flood"
         id="feFlood2662" />
      <feComposite
         in="flood"
         in2="SourceGraphic"
         operator="out"
         result="composite1"
         id="feComposite2664" />
      <feGaussianBlur
         in="composite1"
         stdDeviation="15"
         result="blur"
         id="feGaussianBlur2666" />
      <feOffset
         dx="0"
         dy="0"
         result="offset"
         id="feOffset2668" />
      <feComposite
         in="offset"
         in2="SourceGraphic"
         operator="atop"
         result="composite2"
         id="feComposite2670" />
    </filter>
    <filter
       style="color-interpolation-filters:sRGB;"
       inkscape:label="Drop Shadow"
       id="filter3258"
       x="-0.033333307"
       y="-0.036846098"
       width="1.0666666"
       height="1.0736922">
      <feFlood
         flood-opacity="1"
         flood-color="rgb(58,63,94)"
         result="flood"
         id="feFlood3248" />
      <feComposite
         in="flood"
         in2="SourceGraphic"
         operator="out"
         result="composite1"
         id="feComposite3250" />
      <feGaussianBlur
         in="composite1"
         stdDeviation="15"
         result="blur"
         id="feGaussianBlur3252" />
      <feOffset
         dx="0"
         dy="0"
         result="offset"
         id="feOffset3254" />
      <feComposite
         in="offset"
         in2="SourceGraphic"
         operator="atop"
         result="composite2"
         id="feComposite3256" />
    </filter>
    <filter
       style="color-interpolation-filters:sRGB;"
       inkscape:label="Drop Shadow"
       id="filter4517"
       x="-0.04755843"
       y="-0.048809898"
       width="1.0951169"
       height="1.0976198">
      <feFlood
         flood-opacity="1"
         flood-color="rgb(58,63,94)"
         result="flood"
         id="feFlood4507" />
      <feComposite
         in="flood"
         in2="SourceGraphic"
         operator="out"
         result="composite1"
         id="feComposite4509" />
      <feGaussianBlur
         in="composite1"
         stdDeviation="10"
         result="blur"
         id="feGaussianBlur4511" />
      <feOffset
         dx="0"
         dy="0"
         result="offset"
         id="feOffset4513" />
      <feComposite
         in="offset"
         in2="SourceGraphic"
         operator="atop"
         result="composite2"
         id="feComposite4515" />
    </filter>
    <filter
       style="color-interpolation-filters:sRGB;"
       inkscape:label="Drop Shadow"
       id="filter5154"
       x="-0.073142173"
       y="-0.051090164"
       width="1.1462843"
       height="1.1021803">
      <feFlood
         flood-opacity="1"
         flood-color="rgb(58,63,94)"
         result="flood"
         id="feFlood5144" />
      <feComposite
         in="flood"
         in2="SourceGraphic"
         operator="out"
         result="composite1"
         id="feComposite5146" />
      <feGaussianBlur
         in="composite1"
         stdDeviation="10"
         result="blur"
         id="feGaussianBlur5148" />
      <feOffset
         dx="0"
         dy="0"
         result="offset"
         id="feOffset5150" />
      <feComposite
         in="offset"
         in2="SourceGraphic"
         operator="atop"
         result="composite2"
         id="feComposite5152" />
    </filter>
    <filter
       style="color-interpolation-filters:sRGB;"
       inkscape:label="Drop Shadow"
       id="filter5778"
       x="-0.050442997"
       y="-0.092707304"
       width="1.100886"
       height="1.1854146">
      <feFlood
         flood-opacity="1"
         flood-color="rgb(58,63,94)"
         result="flood"
         id="feFlood5768" />
      <feComposite
         in="flood"
         in2="SourceGraphic"
         operator="out"
         result="composite1"
         id="feComposite5770" />
      <feGaussianBlur
         in="composite1"
         stdDeviation="10"
         result="blur"
         id="feGaussianBlur5772" />
      <feOffset
         dx="0"
         dy="0"
         result="offset"
         id="feOffset5774" />
      <feComposite
         in="offset"
         in2="SourceGraphic"
         operator="atop"
         result="composite2"
         id="feComposite5776" />
    </filter>
    <clipPath
       id="a">
      <path
         d="M 222.14,222.14 H 977.85 V 977.85 H 222.14 Z"
         id="path6679" />
    </clipPath>
    <clipPath
       id="a-5">
      <path
         d="M 222.14,222.14 H 977.85 V 977.85 H 222.14 Z"
         id="path6679-3" />
    </clipPath>
    <filter
       style="color-interpolation-filters:sRGB;"
       inkscape:label="Drop Shadow"
       id="filter8128"
       x="-0.51199727"
       y="-0.25599863"
       width="2.0239945"
       height="1.5119973">
      <feFlood
         flood-opacity="1"
         flood-color="rgb(58,63,94)"
         result="flood"
         id="feFlood8118" />
      <feComposite
         in="flood"
         in2="SourceGraphic"
         operator="out"
         result="composite1"
         id="feComposite8120" />
      <feGaussianBlur
         in="composite1"
         stdDeviation="8"
         result="blur"
         id="feGaussianBlur8122" />
      <feOffset
         dx="0"
         dy="0"
         result="offset"
         id="feOffset8124" />
      <feComposite
         in="offset"
         in2="SourceGraphic"
         operator="atop"
         result="composite2"
         id="feComposite8126" />
    </filter>
    <filter
       style="color-interpolation-filters:sRGB;"
       inkscape:label="Drop Shadow"
       id="filter21595"
       x="-0.038264996"
       y="-0.082038655"
       width="1.07653"
       height="1.1640773">
      <feFlood
         flood-opacity="1"
         flood-color="rgb(58,63,94)"
         result="flood"
         id="feFlood21585" />
      <feComposite
         in="flood"
         in2="SourceGraphic"
         operator="out"
         result="composite1"
         id="feComposite21587" />
      <feGaussianBlur
         in="composite1"
         stdDeviation="15"
         result="blur"
         id="feGaussianBlur21589" />
      <feOffset
         dx="0"
         dy="0"
         result="offset"
         id="feOffset21591" />
      <feComposite
         in="offset"
         in2="SourceGraphic"
         operator="atop"
         result="composite2"
         id="feComposite21593" />
    </filter>
    <filter
       style="color-interpolation-filters:sRGB;"
       inkscape:label="Drop Shadow"
       id="filter22425"
       x="-0.049589307"
       y="-0.17253584"
       width="1.0991786"
       height="1.3450717">
      <feFlood
         flood-opacity="1"
         flood-color="rgb(58,63,94)"
         result="flood"
         id="feFlood22415" />
      <feComposite
         in="flood"
         in2="SourceGraphic"
         operator="out"
         result="composite1"
         id="feComposite22417" />
      <feGaussianBlur
         in="composite1"
         stdDeviation="10"
         result="blur"
         id="feGaussianBlur22419" />
      <feOffset
         dx="0"
         dy="0"
         result="offset"
         id="feOffset22421" />
      <feComposite
         in="offset"
         in2="SourceGraphic"
         operator="atop"
         result="composite2"
         id="feComposite22423" />
    </filter>
    <filter
       style="color-interpolation-filters:sRGB;"
       inkscape:label="Drop Shadow"
       id="filter23083"
       x="-0.020949753"
       y="-0.075512709"
       width="1.0418995"
       height="1.1510254">
      <feFlood
         flood-opacity="1"
         flood-color="rgb(58,63,94)"
         result="flood"
         id="feFlood23073" />
      <feComposite
         in="flood"
         in2="SourceGraphic"
         operator="out"
         result="composite1"
         id="feComposite23075" />
      <feGaussianBlur
         in="composite1"
         stdDeviation="10"
         result="blur"
         id="feGaussianBlur23077" />
      <feOffset
         dx="0"
         dy="0"
         result="offset"
         id="feOffset23079" />
      <feComposite
         in="offset"
         in2="SourceGraphic"
         operator="atop"
         result="composite2"
         id="feComposite23081" />
    </filter>
    <filter
       style="color-interpolation-filters:sRGB;"
       inkscape:label="Drop Shadow"
       id="filter23920"
       x="-0.031832381"
       y="-0.083470149"
       width="1.0636648"
       height="1.1669403">
      <feFlood
         flood-opacity="1"
         flood-color="rgb(58,63,94)"
         result="flood"
         id="feFlood23910" />
      <feComposite
         in="flood"
         in2="SourceGraphic"
         operator="out"
         result="composite1"
         id="feComposite23912" />
      <feGaussianBlur
         in="composite1"
         stdDeviation="15"
         result="blur"
         id="feGaussianBlur23914" />
      <feOffset
         dx="0"
         dy="0"
         result="offset"
         id="feOffset23916" />
      <feComposite
         in="offset"
         in2="SourceGraphic"
         operator="atop"
         result="composite2"
         id="feComposite23918" />
    </filter>
    <filter
       style="color-interpolation-filters:sRGB;"
       inkscape:label="Drop Shadow"
       id="filter25184"
       x="-0.055640592"
       y="-0.10045407"
       width="1.1112812"
       height="1.2009081">
      <feFlood
         flood-opacity="1"
         flood-color="rgb(58,63,94)"
         result="flood"
         id="feFlood25174" />
      <feComposite
         in="flood"
         in2="SourceGraphic"
         operator="out"
         result="composite1"
         id="feComposite25176" />
      <feGaussianBlur
         in="composite1"
         stdDeviation="5"
         result="blur"
         id="feGaussianBlur25178" />
      <feOffset
         dx="0"
         dy="0"
         result="offset"
         id="feOffset25180" />
      <feComposite
         in="offset"
         in2="SourceGraphic"
         operator="atop"
         result="composite2"
         id="feComposite25182" />
    </filter>
    <filter
       style="color-interpolation-filters:sRGB;"
       inkscape:label="Drop Shadow"
       id="filter25884"
       x="-0.026230522"
       y="-0.048319459"
       width="1.052461"
       height="1.0966389">
      <feFlood
         flood-opacity="1"
         flood-color="rgb(58,63,94)"
         result="flood"
         id="feFlood25874" />
      <feComposite
         in="flood"
         in2="SourceGraphic"
         operator="out"
         result="composite1"
         id="feComposite25876" />
      <feGaussianBlur
         in="composite1"
         stdDeviation="15"
         result="blur"
         id="feGaussianBlur25878" />
      <feOffset
         dx="0"
         dy="0"
         result="offset"
         id="feOffset25880" />
      <feComposite
         in="offset"
         in2="SourceGraphic"
         operator="atop"
         result="composite2"
         id="feComposite25882" />
    </filter>
    <filter
       style="color-interpolation-filters:sRGB;"
       inkscape:label="Drop Shadow"
       id="filter26006"
       x="-0.03497403"
       y="-0.064425946"
       width="1.0699481"
       height="1.1288519">
      <feFlood
         flood-opacity="1"
         flood-color="rgb(58,63,94)"
         result="flood"
         id="feFlood25996" />
      <feComposite
         in="flood"
         in2="SourceGraphic"
         operator="out"
         result="composite1"
         id="feComposite25998" />
      <feGaussianBlur
         in="composite1"
         stdDeviation="20"
         result="blur"
         id="feGaussianBlur26000" />
      <feOffset
         dx="0"
         dy="0"
         result="offset"
         id="feOffset26002" />
      <feComposite
         in="offset"
         in2="SourceGraphic"
         operator="atop"
         result="composite2"
         id="feComposite26004" />
    </filter>
    <filter
       style="color-interpolation-filters:sRGB;"
       inkscape:label="Drop Shadow"
       id="filter26884"
       x="-0.049167793"
       y="-0.0961647"
       width="1.0983356"
       height="1.1923294">
      <feFlood
         flood-opacity="1"
         flood-color="rgb(58,63,94)"
         result="flood"
         id="feFlood26874" />
      <feComposite
         in="flood"
         in2="SourceGraphic"
         operator="out"
         result="composite1"
         id="feComposite26876" />
      <feGaussianBlur
         in="composite1"
         stdDeviation="10"
         result="blur"
         id="feGaussianBlur26878" />
      <feOffset
         dx="0"
         dy="0"
         result="offset"
         id="feOffset26880" />
      <feComposite
         in="offset"
         in2="SourceGraphic"
         operator="atop"
         result="composite2"
         id="feComposite26882" />
    </filter>
    <filter
       style="color-interpolation-filters:sRGB;"
       inkscape:label="Drop Shadow"
       id="filter28331"
       x="-0.035714286"
       y="-0.062498937"
       width="1.0714286"
       height="1.1249979">
      <feFlood
         flood-opacity="1"
         flood-color="rgb(58,63,94)"
         result="flood"
         id="feFlood28321" />
      <feComposite
         in="flood"
         in2="SourceGraphic"
         operator="out"
         result="composite1"
         id="feComposite28323" />
      <feGaussianBlur
         in="composite1"
         stdDeviation="15"
         result="blur"
         id="feGaussianBlur28325" />
      <feOffset
         dx="0"
         dy="0"
         result="offset"
         id="feOffset28327" />
      <feComposite
         in="offset"
         in2="SourceGraphic"
         operator="atop"
         result="composite2"
         id="feComposite28329" />
    </filter>
    <filter
       style="color-interpolation-filters:sRGB;"
       inkscape:label="Drop Shadow"
       id="filter29185"
       x="-0.029993568"
       y="-0.03168847"
       width="1.0599871"
       height="1.0633769">
      <feFlood
         flood-opacity="1"
         flood-color="rgb(58,63,94)"
         result="flood"
         id="feFlood29175" />
      <feComposite
         in="flood"
         in2="SourceGraphic"
         operator="out"
         result="composite1"
         id="feComposite29177" />
      <feGaussianBlur
         in="composite1"
         stdDeviation="15"
         result="blur"
         id="feGaussianBlur29179" />
      <feOffset
         dx="0"
         dy="0"
         result="offset"
         id="feOffset29181" />
      <feComposite
         in="offset"
         in2="SourceGraphic"
         operator="atop"
         result="composite2"
         id="feComposite29183" />
    </filter>
  </defs>
  <path
     d="M 0.35858051,-0.2092161 H 512.35858 V 511.79078 H 0.35858051 Z"
     fill="#1b1f21"
     fill-opacity="0"
     id="path880" />
  <g
     clip-path="url(#a-5)"
     id="g6686"
     transform="matrix(0.51260194,0,0,0.51260194,-62.643019,-31.742847)"
     style="fill:#ffffff" />
  <g
     id="g28510"
     transform="matrix(0.3941994,0,0,0.3941994,19.489109,19.550046)"
     style="fill:#ff0ec0;fill-opacity:1;filter:url(#filter29185)">
    <path
       d="m 581.05,159.54 c 8.3789,1.1562 16.812,1.832 25.266,2.0234 8.4766,-0.6875 16.906,-1.8281 25.262,-3.4102 -1.5156,301.3 -2.9883,602.86 -4.4219,904.67 h -58.734 c 4.2109,-299.96 8.4219,-601.05 12.629,-903.29 z"
       id="path28460"
       style="fill:#ff0ec0;fill-opacity:1" />
    <path
       d="m 646.99,375.66 c 91.672,11.797 184.79,4.9219 273.73,-20.211 2.0898,49.465 13.043,98.152 32.336,143.75 -101.05,31.957 -203.75,22.23 -306.06,27.41 z"
       id="path28462"
       style="fill:#ff0ec0;fill-opacity:1" />
    <path
       d="m 253.39,493.89 c 20.141,-45.137 31.992,-93.527 34.988,-142.86 88.125,26.816 180.79,35.41 272.34,25.262 v 150.7 c -103.2,-6.9453 -206.4,0.37891 -307.32,-33.094 z"
       id="path28464"
       style="fill:#ff0ec0;fill-opacity:1" />
    <path
       d="m 280.04,215.62 c 4.0977,-1.7344 8.0625,-3.7617 11.871,-6.0625 51.879,-35.176 109.07,-61.789 169.39,-78.82 7.9297,-3.1289 16.875,-2.3359 24.125,2.1445 23,11.766 47.961,19.215 73.645,21.98 2.1484,0 4.293,1.2617 6.9492,2.0195 l -4.4219,202.99 c -36.379,0 -72.125,2.6523 -107.37,-0.63281 -52.422,-4.8008 -104.59,-13.641 -156.76,-21.223 -3.0312,0 -7.707,-4.168 -7.957,-6.6953 -3.5352,-37.262 -6.4414,-74.527 -9.4727,-111.79 z"
       id="path28466"
       style="fill:#ff0ec0;fill-opacity:1" />
    <path
       d="M 647.24,355.45 V 156.12 c 6.3633,-2.1758 12.918,-3.7422 19.578,-4.6719 22.926,-2.6562 45.203,-9.3242 65.812,-19.707 5.0352,-1.7109 10.5,-1.7109 15.535,0 46.797,13.723 91.754,33.062 133.89,57.602 16.547,9.9805 32.59,20.844 50.527,32.211 -2.7773,21.348 -5.9375,43.832 -8.4648,66.441 -1.6406,14.527 -2.6523,29.051 -2.9062,43.707 0,7.4531 -2.3984,10.105 -9.8516,11.621 -84.957,17.277 -171.99,22 -258.32,14.02 -1.9805,-0.48828 -3.9219,-1.1211 -5.8086,-1.8945 z"
       id="path28468"
       style="fill:#ff0ec0;fill-opacity:1" />
    <path
       d="m 274.23,670.74 c -5.1797,-31.832 -10.863,-61.516 -14.652,-91.453 -3.0312,-23.367 -3.9141,-46.988 -5.9375,-72.504 99.789,39.664 202.99,31.453 304.8,39.156 v 153.09 c -64.293,12.883 -174.57,1.5156 -284.21,-28.293 z"
       id="path28470"
       style="fill:#ff0ec0;fill-opacity:1" />
    <path
       d="m 646.36,542.27 c 37.012,0 72.883,0.88281 108.76,0 53.18,-1.6406 106.61,-2.6523 158.27,-17.43 12.633,-3.5352 24.125,-7.832 36.758,-11.875 5.0508,55.453 -15.914,107.24 -19.328,164.21 -34.359,6.3164 -69.852,12.633 -105.47,19.199 -53.66,9.1484 -108.33,10.805 -162.44,4.9258 -18.695,-1.5156 -18.695,-0.88281 -18.695,-18.695 0,-42.695 0.29297,-85.43 0.88281,-128.21 0.37891,-2.9023 0.75781,-5.8086 1.2656,-12.125 z"
       id="path28472"
       style="fill:#ff0ec0;fill-opacity:1" />
    <path
       d="m 644.21,719.12 c 100.42,17.809 195.03,-2.3984 289.39,-32.969 6.4219,29.562 8.3398,59.926 5.6836,90.062 -4.6719,33.602 -12.633,66.82 -20.336,100.04 -1.7461,4.207 -5.3359,7.3789 -9.7266,8.5898 -15.535,4.043 -31.453,6.8203 -47.117,10.609 -8.3359,2.0195 -11.621,0 -13.77,-8.9688 -10.23,-43.328 -21.094,-86.652 -32.086,-129.85 -4.043,-15.41 -10.863,-18.062 -26.652,-14.652 -12.633,2.5273 -13.641,8.9688 -11.621,19.328 8.4219,42.105 16.422,84.211 24,126.32 0.63281,3.6641 1.3906,7.3281 2.3984,13.391 l -160.16,-3.1641 z"
       id="path28474"
       style="fill:#ff0ec0;fill-opacity:1" />
    <path
       d="m 346.86,894.44 c -20.086,-4.8008 -39.031,-8.9688 -57.727,-14.148 -4,-1.3242 -7.2227,-4.3203 -8.8438,-8.207 -19.551,-59.715 -23.895,-123.36 -12.629,-185.18 0.42969,-1.8867 0.97656,-3.7422 1.6406,-5.5586 93.094,32.336 187.45,54.57 286.99,37.895 v 179.24 h -161.81 c 4.168,-19.199 8.3359,-37.895 12.633,-55.328 5.9375,-28.547 11.496,-57.223 17.305,-85.77 1.8945,-8.8438 0,-14.527 -10.105,-17.051 -14.398,-3.5352 -22.359,-2.3984 -26.02,6.9492 -3.6641,9.3477 -5.8086,17.809 -8.2109,26.777 l -29.938,112.8 c -0.96094,2.582 -2.0547,5.1133 -3.2852,7.5781 z"
       id="path28476"
       style="fill:#ff0ec0;fill-opacity:1" />
    <path
       d="m 554.91,914.91 v 149.81 c -16.293,1.3906 -32.59,3.4102 -48.883,4.168 -67.328,3.4102 -134.78,6.3164 -202.11,9.6016 -7.1992,0 -11.496,-1.5156 -12.633,-8.5898 -5.5742,-20.121 -10.043,-40.527 -13.391,-61.137 -3.6367,-38.957 -1.8945,-78.23 5.1797,-116.71 l 60.883,19.199 c -3.5352,16.043 -7.3281,32.59 -10.738,49.262 -4.9258,23.875 9.0938,37.895 32.59,30.316 5.2773,-2.7891 9.1641,-7.6328 10.738,-13.391 4.4219,-16.547 7.832,-33.473 10.738,-50.527 1.5156,-8.5898 5.3047,-10.105 13.516,-9.9805 h 140.59 v 0.004 c 4.543,-0.36719 9.0586,-1.043 13.516,-2.0195 z"
       id="path28478"
       style="fill:#ff0ec0;fill-opacity:1" />
    <path
       d="M 642.32,1064.6 V 916.05 c 32.465,1.3906 63.156,3.0312 94.23,3.7891 h 61.895 c 8.9688,0 11.746,2.9062 12.633,10.738 2.7773,16.672 6.1914,33.094 9.6016,49.641 h -0.004 c 0.38281,5.5469 3.2656,10.621 7.8359,13.789 4.5703,3.168 10.332,4.0898 15.66,2.5039 12.633,-1.5156 22.359,-9.8516 21.223,-21.348 -1.6406,-14.906 -5.0508,-29.559 -7.707,-44.211 -0.88281,-5.1797 -1.8945,-10.23 -3.0312,-15.535 l 61.77,-18.191 c 1.3906,15.535 3.0312,30.57 4.043,45.727 v 0.004 c 3.832,39.668 0.32031,79.707 -10.359,118.1 -7.1992,23.367 -7.5781,22.863 -31.832,21.223 -60.254,-4.168 -120.5,-7.832 -180.76,-12 -18.188,-2.0195 -36.758,-4.043 -55.199,-5.6836 z"
       id="path28480"
       style="fill:#ff0ec0;fill-opacity:1" />
    <path
       d="m 30.57,645.6 c 65.707,38.422 138.97,62.125 214.73,69.473 -2.2773,22.027 -3.0781,44.18 -2.3984,66.316 1.3047,30.32 -5.082,60.477 -18.57,87.66 -0.58984,1.4102 -1.3086,2.7656 -2.1445,4.043 0,0 -1.0117,1.0117 0,0 -34.988,-5.6836 -68.59,-10.484 -101.94,-16.926 -33.348,-6.4414 -67.328,-14.652 -101.05,-21.348 -7.707,-1.6406 -9.3477,-6.5703 -10.609,-12.633 l -0.00391,0.004 c -11.555,-48.078 -8.7852,-98.488 7.957,-145.01 3.6641,-10.609 8.7148,-20.59 14.023,-31.578 z"
       id="path28482"
       style="fill:#ff0ec0;fill-opacity:1" />
    <path
       d="m 1173.6,656.21 c 3.9141,8.7148 8.5898,17.051 11.875,25.262 v 0 c 16.707,47.348 19.164,98.555 7.0742,147.29 -0.4414,4.0195 -2.3008,7.7461 -5.2383,10.523 -2.9375,2.7769 -6.7656,4.418 -10.805,4.6328 -57.223,9.3477 -114.44,19.328 -171.66,29.18 -8.46481,1.5156 -16.67201,4.168 -27.53501,6.9492 -5.5586,-17.051 -12.633,-34.105 -16.168,-51.789 -1.9688,-12.023 -2.7305,-24.207 -2.2734,-36.379 0,-20.211 0,-40.547 -1.8945,-60.633 -1.0117,-9.9805 1.6406,-12.633 10.484,-12.633 51.60201,-4.7969 102.23001,-17.051 150.32001,-36.379 17.938,-7.0742 35.113,-16.293 55.832,-26.02 z"
       id="path28484"
       style="fill:#ff0ec0;fill-opacity:1" />
    <path
       d="M 248.21,705.22 C 173.433,687.282 100.55,667.325 33.47,630.822 c -8.2109,-79.582 34.613,-138.19 80.211,-196.17 31.828,36.969 72.379,65.406 117.98,82.738 8.2109,3.4102 9.6016,7.3281 9.2227,15.664 l -0.004,-0.004 c -0.95312,34.863 2.4844,69.707 10.234,103.71 2.2734,11.367 15.535,19.832 6.9492,34.738 h -0.004 c -4.5977,10.812 -7.9062,22.133 -9.8516,33.727 z"
       id="path28486"
       style="fill:#ff0ec0;fill-opacity:1" />
    <path
       d="m 955.07,711.16 c -4.5469,-14.777 -9.0938,-29.43 -13.391,-44.086 v 0.004 c -0.69531,-1.6562 -0.69531,-3.5234 0,-5.1797 16.547,-24.504 16.422,-53.305 20.336,-80.844 1.8125,-14.871 2.4883,-29.863 2.0234,-44.84 -0.61719,-5.8281 3.1562,-11.215 8.8398,-12.633 41.457,-14.875 79.113,-38.727 110.27,-69.852 l 10.738,-11.496 c 15.535,22.863 31.199,44.715 45.473,67.328 23.16,36.785 34.246,79.891 31.707,123.29 0.3242,5.1992 -2.8906,9.9688 -7.832,11.621 -56.758,26.496 -116.52,46.008 -177.98,58.105 -9.7266,2.0195 -19.578,5.5547 -30.188,8.5859 z"
       id="path28488"
       style="fill:#ff0ec0;fill-opacity:1" />
    <path
       d="m 218.15,885.35 c 8.5859,45.488 9.8203,92.059 3.6602,137.94 -1.7695,9.8516 -4.6719,14.777 -15.914,14.906 -15.664,0 -31.328,2.9062 -46.988,4.6719 -32.902,2.6875 -66.02,-0.5664 -97.77,-9.6016 -17.816,-3.8594 -32.598,-16.234 -39.535,-33.094 -21.523,-40.852 -27.32,-88.172 -16.297,-133.01 3.4102,-15.41 6.1914,-16.293 21.094,-11.746 59.539,19.707 121.84,29.809 184.55,29.938 z"
       id="path28490"
       style="fill:#ff0ec0;fill-opacity:1" />
    <path
       d="m 980.84,892.8 c 29.684,-2.0234 57.348,-2.0234 84.883,-5.8125 36.883,-5.8086 73.391,-14.906 109.77,-23.242 11.496,-2.6523 15.914,-1.8945 18.316,9.8516 v 0.004 c 10.051,40.719 6,83.645 -11.492,121.77 -5.8086,11.875 -12,23.367 -18.316,34.988 -1.1367,2.0195 -3.0312,4.5469 -5.0508,5.0508 -31.328,7.1992 -62.148,18.316 -94.988,15.914 -26.906,-2.0195 -53.684,-5.1797 -80.33601,-8.8438 -3.2852,0 -7.3281,-7.5781 -8.0859,-12.633 l -0.004,0.01 c -5.8594,-40.15599 -5.0039,-81.00799 2.5273,-120.87999 0.88672,-5.5586 1.8945,-10.609 2.7812,-16.168 z"
       id="path28492"
       style="fill:#ff0ec0;fill-opacity:1" />
    <path
       d="m 238.99,505.77 c -42.695,-19.039 -81.691,-45.465 -115.2,-78.062 -2.125,-3.5742 -2.7188,-7.8594 -1.6406,-11.875 7.0938,-30.812 21.523,-59.453 42.062,-83.496 16.266,-20.07 33.594,-39.258 51.914,-57.473 17.18,-17.305 35.746,-33.094 52.801,-48.633 14.727,94.191 4.4023,190.6 -29.938,279.54 z"
       id="path28494"
       style="fill:#ff0ec0;fill-opacity:1" />
    <path
       d="m 964.93,511.83 c -8.8438,-37.895 -18.695,-75.789 -25.262,-112.55 -6.7148,-43 -7.0586,-86.754 -1.0117,-129.86 1.5156,-12.633 1.7695,-25.895 2.7773,-39.535 46.738,45.094 96.758,86.273 126.32,145.01 6.9492,15.305 12.898,31.043 17.812,47.113 1.2422,3.1016 1.4102,6.5312 0.4687,9.7383 -0.9375,3.207 -2.9258,6.0078 -5.6484,7.9492 -33.129,29.305 -70.633,53.258 -111.15995,70.988 -1.3828,0.54297 -2.8242,0.92188 -4.2969,1.1367 z"
       id="path28496"
       style="fill:#ff0ec0;fill-opacity:1" />
    <path
       d="m 216.25,1049.4 c 4.7734,33.75 2.7109,68.117 -6.0625,101.05 -2.3984,8.3359 -8.2109,8.5898 -14.273,9.3477 h -0.004 c -33.703,4.1914 -67.875,2.6133 -101.049997,-4.6758 -7.957,-1.7695 -16.293,-2.2734 -25.262,-3.5352 -22.57,-33.449 -35.664,-72.383 -37.895,-112.67 59.367,34.23 121.389997,31.449 184.549997,10.48 z"
       id="path28498"
       style="fill:#ff0ec0;fill-opacity:1" />
    <path
       d="m 979.58,1055 c 63.156,21.348 124.42,25.262 186.44,-7.957 -1.7695,11.242 -3.1562,20.465 -4.8008,29.684 v 0 c -5.6602,27.988 -16.918,54.539 -33.098,78.062 -1.4844,2.4453 -3.8242,4.2461 -6.5664,5.0547 -31.328,2.8633 -62.652,5.5156 -93.98,7.957 -6.0078,0.2109 -12.02,-0.2148 -17.938,-1.2617 -28.54699,-3.9141 -22.60899,0 -28.80099,-26.398 h 0.004 c -5.168,-28.109 -5.5938,-56.883 -1.2656,-85.137 z"
       id="path28500"
       style="fill:#ff0ec0;fill-opacity:1" />
    <path
       d="m 483.54,57.094 c 82.609,21.094 164.21,27.41 247.45,-1.2617 0.75781,16.422 1.8945,33.727 2.1484,50.527 0,2.3984 -3.9141,5.9375 -6.6953,6.9492 v -0.004 c -57.832,21.562 -120.43,27.062 -181.14,15.918 -20.086,-4.168 -39.664,-10.609 -59.242,-16.672 v -0.004 c -3.1055,-1.8047 -5.1328,-5.0117 -5.4297,-8.5898 0.50391,-15.664002 1.8945,-31.324002 2.9023,-46.863002 z"
       id="path28502"
       style="fill:#ff0ec0;fill-opacity:1" />
    <path
       d="M 514.11,44.465 C 584.34,34.4845 654.45,22.863 725.06,42.3166 655.56,56.7936 583.9,57.5236 514.11,44.465 Z"
       id="path28504"
       style="fill:#ff0ec0;fill-opacity:1" />
    <path
       d="m 786.82,756.12 14.398,-1.7695 23.746,106.99 c 8.0859,35.875 15.789,71.621 24.254,107.37 2.5273,10.359 -5.0508,9.4727 -10.988,12.633 z"
       id="path28506"
       style="fill:#ff0ec0;fill-opacity:1" />
    <path
       d="m 359.5,977.56 c -9.3477,-1.2617 -12.633,-4.293 -10.23,-14.777 16.168,-64.926 31.453,-130.23 46.988,-195.29 1.1367,-4.8008 1.6406,-9.6016 2.6523,-15.535 l 16.043,1.8945 z"
       id="path28508"
       style="fill:#ff0ec0;fill-opacity:1" />
  </g>
</svg>
