<?xml version="1.0" encoding="UTF-8" standalone="no"?>
<svg
   viewBox="0 0 512 512"
   style="height: 512px; width: 512px;"
   version="1.1"
   id="svg206"
   sodipodi:docname="oil-can.svg"
   inkscape:version="1.2.2 (b0a8486541, 2022-12-01)"
   xmlns:inkscape="http://www.inkscape.org/namespaces/inkscape"
   xmlns:sodipodi="http://sodipodi.sourceforge.net/DTD/sodipodi-0.dtd"
   xmlns="http://www.w3.org/2000/svg"
   xmlns:svg="http://www.w3.org/2000/svg">
  <sodipodi:namedview
     id="namedview208"
     pagecolor="#ffffff"
     bordercolor="#666666"
     borderopacity="1.0"
     inkscape:showpageshadow="2"
     inkscape:pageopacity="0.0"
     inkscape:pagecheckerboard="0"
     inkscape:deskcolor="#d1d1d1"
     showgrid="false"
     inkscape:zoom="1.5882281"
     inkscape:cx="209.3528"
     inkscape:cy="237.37144"
     inkscape:window-width="1716"
     inkscape:window-height="1386"
     inkscape:window-x="1440"
     inkscape:window-y="702"
     inkscape:window-maximized="1"
     inkscape:current-layer="svg206" />
  <defs
     id="defs198">
    <filter
       id="shadow-1"
       height="1.1740481"
       width="1.207543"
       x="-0.10377149"
       y="-0.087024054">
      <feFlood
         flood-color="rgba(58, 63, 94, 1)"
         result="flood"
         id="feFlood187" />
      <feComposite
         in="flood"
         in2="SourceGraphic"
         operator="out"
         result="composite"
         id="feComposite189" />
      <feGaussianBlur
         in="composite"
         stdDeviation="15"
         result="blur"
         id="feGaussianBlur191" />
      <feOffset
         dx="0"
         dy="0"
         result="offset"
         id="feOffset193" />
      <feComposite
         in2="SourceGraphic"
         in="offset"
         operator="atop"
         id="feComposite195" />
    </filter>
  </defs>
  <path
     d="M0 0h512v512H0z"
     fill="#1b1f21"
     fill-opacity="0"
     id="path200" />
  <path
     d="M 417.50746,42.986869 274.85422,211.2142 c -3.7,-1.6 -7.2,-2.6 -10.9,-2.7 -1.6,2.4 -1.5,3.9 -0.2,6.9 1.4,3.2 5.1,7.3 9.7,10.3 4.6,3 10.1,4.8 14.3,5 2.7,0.1 4.7,-0.4 6.3,-1.4 0,-0.1 -0.1,-0.2 -0.1,-0.3 -1,-2.2 -2.6,-4.6 -4.7,-7 L 421.74866,45.685345 Z M 204.65422,278.5142 c 27.8,27.5 52,32.8 67.8,29.6 15.5,-3.1 22.9,-13.7 22.4,-22.5 -0.9,-3 -2.3,-5.8 -3.9,-8.7 -4.7,5.2 -9.9,9.9 -15,14.5 -6.7,6.1 -15.4,4.9 -22.5,2.5 -7.1,-2.4 -14,-6.5 -20.4,-11.5 -11.3,-9 -26.5,-24.1 -21.3,-38.3 -1.21727,-8.37042 10.33742,-10.22432 10.33742,-10.22432 0,0 -8.4171,-7.27382 -16.57264,-2.48076 -16.66377,9.79338 -8.72154,40.94449 -0.86478,47.10508 z m 42,-57.6 c -9.8,9.4 -13.8,19.2 -18.1,30 7.1,12.1 21.4,24.7 35.4,27.1 10.9,-9.8 19.9,-18.4 25.3,-29.4 -0.7,0.1 -1.4,0.1 -2.1,0.1 -8.4,-0.3 -16.5,-3.3 -23.5,-7.9 -7,-4.5 -13,-10.5 -16.4,-18.1 z m -64.57242,6.2567 -81.08758,93.7433 c -7.829999,10.7 -15.869999,21.2 -23.779999,31.7 -6.06,10.1 0.78,22.5 5.7,30.4 8.93,14 24.639999,29.8 42.339999,43 17.5,13.1 37.2,23.7 53.2,28.2 9.8,2.4 24.3,5.2 30.8,-3.2 l 91.4,-122.3 c -0.7,-4.6 -1.6,-9 -2.6,-13.1 -6,4.9 -13.5,8.5 -22.1,10.2 -67.63932,-5.52338 -85.92672,-26.27062 -96.93437,-76.22801 -1.32982,-6.0353 3.81858,-19.07399 3.06195,-22.41529 z"
     fill="#ff0ec0"
     fill-opacity="1"
     filter="url(#shadow-1)"
     id="path202"
     sodipodi:nodetypes="ccccscccccccccccscccscccccccccccccccccccsc" />
</svg>
