<?xml version="1.0" encoding="UTF-8" standalone="no"?>
<svg
   viewBox="0 0 512 512"
   style="height: 512px; width: 512px;"
   version="1.1"
   id="svg886"
   sodipodi:docname="jetboy-hoverboard.svg"
   inkscape:version="1.2.2 (b0a8486541, 2022-12-01)"
   xmlns:inkscape="http://www.inkscape.org/namespaces/inkscape"
   xmlns:sodipodi="http://sodipodi.sourceforge.net/DTD/sodipodi-0.dtd"
   xmlns="http://www.w3.org/2000/svg"
   xmlns:svg="http://www.w3.org/2000/svg">
  <sodipodi:namedview
     id="namedview888"
     pagecolor="#ffffff"
     bordercolor="#666666"
     borderopacity="1.0"
     inkscape:showpageshadow="2"
     inkscape:pageopacity="0.0"
     inkscape:pagecheckerboard="0"
     inkscape:deskcolor="#d1d1d1"
     showgrid="false"
     inkscape:zoom="1.3037281"
     inkscape:cx="72.100923"
     inkscape:cy="190.99074"
     inkscape:window-width="1716"
     inkscape:window-height="1386"
     inkscape:window-x="1440"
     inkscape:window-y="702"
     inkscape:window-maximized="1"
     inkscape:current-layer="svg886" />
  <defs
     id="defs878">
    <filter
       id="shadow-1"
       height="1.1517236"
       width="1.1517246"
       x="-0.075862315"
       y="-0.075861805">
      <feFlood
         flood-color="rgba(58, 63, 94, 1)"
         result="flood"
         id="feFlood867" />
      <feComposite
         in="flood"
         in2="SourceGraphic"
         operator="out"
         result="composite"
         id="feComposite869" />
      <feGaussianBlur
         in="composite"
         stdDeviation="15"
         result="blur"
         id="feGaussianBlur871" />
      <feOffset
         dx="0"
         dy="0"
         result="offset"
         id="feOffset873" />
      <feComposite
         in2="SourceGraphic"
         in="offset"
         operator="atop"
         id="feComposite875" />
    </filter>
    <filter
       style="color-interpolation-filters:sRGB;"
       inkscape:label="Drop Shadow"
       id="filter2672"
       x="-0.036508511"
       y="-0.030096649"
       width="1.073017"
       height="1.0601933">
      <feFlood
         flood-opacity="1"
         flood-color="rgb(58,63,94)"
         result="flood"
         id="feFlood2662" />
      <feComposite
         in="flood"
         in2="SourceGraphic"
         operator="out"
         result="composite1"
         id="feComposite2664" />
      <feGaussianBlur
         in="composite1"
         stdDeviation="15"
         result="blur"
         id="feGaussianBlur2666" />
      <feOffset
         dx="0"
         dy="0"
         result="offset"
         id="feOffset2668" />
      <feComposite
         in="offset"
         in2="SourceGraphic"
         operator="atop"
         result="composite2"
         id="feComposite2670" />
    </filter>
    <filter
       style="color-interpolation-filters:sRGB;"
       inkscape:label="Drop Shadow"
       id="filter3258"
       x="-0.033333307"
       y="-0.036846098"
       width="1.0666666"
       height="1.0736922">
      <feFlood
         flood-opacity="1"
         flood-color="rgb(58,63,94)"
         result="flood"
         id="feFlood3248" />
      <feComposite
         in="flood"
         in2="SourceGraphic"
         operator="out"
         result="composite1"
         id="feComposite3250" />
      <feGaussianBlur
         in="composite1"
         stdDeviation="15"
         result="blur"
         id="feGaussianBlur3252" />
      <feOffset
         dx="0"
         dy="0"
         result="offset"
         id="feOffset3254" />
      <feComposite
         in="offset"
         in2="SourceGraphic"
         operator="atop"
         result="composite2"
         id="feComposite3256" />
    </filter>
    <filter
       style="color-interpolation-filters:sRGB;"
       inkscape:label="Drop Shadow"
       id="filter4517"
       x="-0.04755843"
       y="-0.048809898"
       width="1.0951169"
       height="1.0976198">
      <feFlood
         flood-opacity="1"
         flood-color="rgb(58,63,94)"
         result="flood"
         id="feFlood4507" />
      <feComposite
         in="flood"
         in2="SourceGraphic"
         operator="out"
         result="composite1"
         id="feComposite4509" />
      <feGaussianBlur
         in="composite1"
         stdDeviation="10"
         result="blur"
         id="feGaussianBlur4511" />
      <feOffset
         dx="0"
         dy="0"
         result="offset"
         id="feOffset4513" />
      <feComposite
         in="offset"
         in2="SourceGraphic"
         operator="atop"
         result="composite2"
         id="feComposite4515" />
    </filter>
    <filter
       style="color-interpolation-filters:sRGB;"
       inkscape:label="Drop Shadow"
       id="filter5154"
       x="-0.073142173"
       y="-0.051090164"
       width="1.1462843"
       height="1.1021803">
      <feFlood
         flood-opacity="1"
         flood-color="rgb(58,63,94)"
         result="flood"
         id="feFlood5144" />
      <feComposite
         in="flood"
         in2="SourceGraphic"
         operator="out"
         result="composite1"
         id="feComposite5146" />
      <feGaussianBlur
         in="composite1"
         stdDeviation="10"
         result="blur"
         id="feGaussianBlur5148" />
      <feOffset
         dx="0"
         dy="0"
         result="offset"
         id="feOffset5150" />
      <feComposite
         in="offset"
         in2="SourceGraphic"
         operator="atop"
         result="composite2"
         id="feComposite5152" />
    </filter>
    <filter
       style="color-interpolation-filters:sRGB;"
       inkscape:label="Drop Shadow"
       id="filter5778"
       x="-0.050442997"
       y="-0.092707304"
       width="1.100886"
       height="1.1854146">
      <feFlood
         flood-opacity="1"
         flood-color="rgb(58,63,94)"
         result="flood"
         id="feFlood5768" />
      <feComposite
         in="flood"
         in2="SourceGraphic"
         operator="out"
         result="composite1"
         id="feComposite5770" />
      <feGaussianBlur
         in="composite1"
         stdDeviation="10"
         result="blur"
         id="feGaussianBlur5772" />
      <feOffset
         dx="0"
         dy="0"
         result="offset"
         id="feOffset5774" />
      <feComposite
         in="offset"
         in2="SourceGraphic"
         operator="atop"
         result="composite2"
         id="feComposite5776" />
    </filter>
    <clipPath
       id="a">
      <path
         d="M 222.14,222.14 H 977.85 V 977.85 H 222.14 Z"
         id="path6679" />
    </clipPath>
    <clipPath
       id="a-5">
      <path
         d="M 222.14,222.14 H 977.85 V 977.85 H 222.14 Z"
         id="path6679-3" />
    </clipPath>
    <filter
       style="color-interpolation-filters:sRGB;"
       inkscape:label="Drop Shadow"
       id="filter48198"
       x="-0.045876777"
       y="-0.041524596"
       width="1.0917536"
       height="1.0830492">
      <feFlood
         flood-opacity="1"
         flood-color="rgb(58,63,94)"
         result="flood"
         id="feFlood48188" />
      <feComposite
         in="flood"
         in2="SourceGraphic"
         operator="out"
         result="composite1"
         id="feComposite48190" />
      <feGaussianBlur
         in="composite1"
         stdDeviation="8"
         result="blur"
         id="feGaussianBlur48192" />
      <feOffset
         dx="0"
         dy="0"
         result="offset"
         id="feOffset48194" />
      <feComposite
         in="offset"
         in2="SourceGraphic"
         operator="atop"
         result="composite2"
         id="feComposite48196" />
    </filter>
  </defs>
  <path
     d="M 0.35858051,-0.2092161 H 512.35858 V 511.79078 H 0.35858051 Z"
     fill="#1b1f21"
     fill-opacity="0"
     id="path880" />
  <g
     clip-path="url(#a-5)"
     id="g6686"
     transform="matrix(0.51260194,0,0,0.51260194,-62.643019,-31.742847)"
     style="fill:#ffffff" />
  <path
     d="m 136.99117,102.51114 19.17152,9.73636 3.34704,-21.177836 c -8.3447,1.87253 -16.0851,5.806192 -22.51858,11.441476 z m 29.091,26.16823 c -0.83325,0.2484 -1.61537,0.6395 -2.31298,1.15563 -0.83501,0.44745 -1.59426,1.02346 -2.25131,1.70342 -2.58076,2.56138 -3.93365,6.10927 -3.71344,9.7382 0.004,0.73633 0.0863,1.47089 0.24485,2.19141 0.06,0.18145 0.12152,0.36464 0.18145,0.60779 0.56722,2.18259 1.70168,4.17669 3.28714,5.78138 1.62772,1.58718 3.6412,2.71987 5.84138,3.28716 0.80857,0.25893 1.64883,0.40162 2.49619,0.42454 3.70642,0.26599 7.34761,-1.08693 9.97945,-3.7117 0.63595,-0.61481 1.1873,-1.3106 1.64355,-2.06983 0.50381,-0.6835 0.89489,-1.44275 1.15736,-2.25133 1.76156,-4.29473 1.06399,-9.20783 -1.8268,-12.84038 -0.12151,-0.12682 -0.22371,-0.27128 -0.30474,-0.42629 l -0.06,-0.0616 c -0.06,-0.06 -0.12151,-0.12151 -0.12151,-0.18144 l -0.48796,-0.48795 c -0.16562,-0.17792 -0.3488,-0.34174 -0.54609,-0.48618 -0.0335,-0.0335 -0.0546,-0.0756 -0.0616,-0.12152 -0.06,0 -0.06,0 -0.1215,-0.0616 -0.06,-0.06 -0.18323,-0.12153 -0.30477,-0.2431 v 0.0616 c -3.54783,-2.95597 -8.43262,-3.72753 -12.7186,-2.00821 z m 1.88665,-12.96347 c 4.45329,-0.4774 8.95396,0.25721 13.02348,2.12977 l 4.07633,-25.985156 c -4.22254,-1.28773 -8.60715,-1.96418 -13.02346,-2.00818 z m 25.25596,2.43448 21.29916,-3.34701 c -2.17027,-3.69404 -4.78792,-7.10633 -7.78954,-10.16254 -3.02113,-3.00172 -6.41591,-5.598306 -10.10258,-7.730014 z m -70.53574,5.47701 23.49087,11.98941 c 0.92308,-4.3705 2.97887,-8.42225 5.96494,-11.74452 L 128.5922,111.88285 c -2.45741,3.64824 -4.44274,7.59608 -5.90316,11.74454 z m 70.77925,6.81726 c 1.49032,3.20435 2.27775,6.68874 2.31297,10.2225 -0.0245,0.93893 -0.10572,1.87259 -0.2431,2.80094 l 26.04694,-4.13977 c -0.10404,-4.40922 -0.78041,-8.78661 -2.0082,-13.02347 z m -27.38586,-1.76513 c -0.83325,0.24838 -1.61537,0.63946 -2.31297,1.1556 -0.83501,0.44746 -1.59424,1.02347 -2.25131,1.70345 -2.58075,2.56134 -3.93366,6.10923 -3.71346,9.73817 0.004,0.73634 0.0864,1.47092 0.24488,2.19143 0.06,0.18144 0.12152,0.36466 0.18145,0.60776 0.56722,2.1826 1.70167,4.17672 3.28713,5.78139 1.62774,1.58718 3.6412,2.71988 5.84139,3.28715 0.80857,0.25897 1.64881,0.40164 2.49618,0.42456 3.70641,0.26597 7.34761,-1.08693 9.97945,-3.71167 0.63596,-0.61481 1.18731,-1.31062 1.64355,-2.06987 0.50382,-0.68347 0.8949,-1.44274 1.15735,-2.25132 1.76156,-4.29472 1.06401,-9.20784 -1.82677,-12.84037 -0.12152,-0.12683 -0.22372,-0.27129 -0.30474,-0.42632 l -0.06,-0.0616 c -0.06,-0.06 -0.1215,-0.12152 -0.1215,-0.18144 l -0.48796,-0.48795 c -0.1656,-0.17789 -0.34879,-0.34174 -0.54607,-0.48618 -0.0334,-0.0335 -0.0546,-0.0756 -0.0617,-0.12151 -0.06,0 -0.06,0 -0.12151,-0.0616 -0.06,-0.06 -0.18322,-0.1215 -0.30477,-0.24308 v 0.0617 c -3.54784,-2.95595 -8.43264,-3.72749 -12.71861,-2.00821 z m -46.31428,12.04939 c 0.0174,6.93001 1.44624,13.78424 4.19785,20.14378 l 15.21472,-15.21472 -19.10972,-9.73638 c -0.19025,1.59602 -0.29065,3.20084 -0.303,4.80733 z m 79.35662,14.48368 9.79815,19.16972 c 5.6389,-6.42087 9.55509,-14.16848 11.37971,-22.5168 z m -68.83107,16.55367 c 1.32999,1.73693 2.77271,3.38401 4.32116,4.92906 1.56608,1.5696 3.23254,3.03347 4.99039,4.38287 l 18.62178,-18.62359 c -3.89661,-2.19318 -7.11669,-5.4134 -9.31019,-9.31022 z m 45.46198,-6.57239 11.9894,23.49086 c 4.16263,-1.45862 8.11198,-3.4633 11.7445,-5.96496 L 187.5002,159.16893 c -3.28715,3.04755 -7.35123,5.13158 -11.74452,6.02447 z m -25.25595,22.21372 c 7.8653,3.3488 16.4391,4.68779 24.95109,3.89486 l -9.73638,-19.1097 z m -13.51144,-84.89453 19.17152,9.7364 3.34701,-21.177866 c -8.34466,1.87255 -16.08507,5.806212 -22.51856,11.441466 z m 29.091,26.16827 c -0.83326,0.24838 -1.61537,0.63947 -2.31297,1.15559 -0.83503,0.44746 -1.59426,1.02347 -2.25134,1.70345 -2.58075,2.56135 -3.93364,6.10924 -3.71343,9.73818 0.004,0.73633 0.0863,1.47091 0.24486,2.19143 0.06,0.18142 0.12151,0.36464 0.18144,0.60775 0.56724,2.1826 1.70167,4.17674 3.28715,5.78141 1.62772,1.58717 3.64121,2.71987 5.84137,3.28714 0.80859,0.25897 1.64882,0.40163 2.49619,0.42455 3.70641,0.266 7.34761,-1.08691 9.97944,-3.71168 0.63598,-0.6148 1.18732,-1.3106 1.64356,-2.06984 0.50382,-0.68348 0.89491,-1.44276 1.15735,-2.25131 1.76158,-4.29476 1.06402,-9.20787 -1.82677,-12.84038 -0.12152,-0.12684 -0.22372,-0.27129 -0.30475,-0.42633 l -0.06,-0.0616 c -0.06,-0.06 -0.12152,-0.1215 -0.12152,-0.18143 l -0.48793,-0.48793 c -0.16563,-0.17792 -0.34881,-0.34177 -0.54609,-0.48621 -0.0334,-0.0334 -0.0546,-0.0756 -0.0616,-0.1215 -0.06,0 -0.06,0 -0.12152,-0.0617 -0.06,-0.06 -0.18321,-0.1215 -0.30475,-0.24309 v 0.0617 c -3.54785,-2.95595 -8.43265,-3.7275 -12.71862,-2.00821 z m 1.88666,-12.9635 c 4.45329,-0.47739 8.95392,0.25719 13.02347,2.12977 l 4.07633,-25.985156 c -4.22254,-1.28773 -8.60715,-1.96418 -13.02347,-2.00818 z m 25.25594,2.4345 21.29917,-3.34701 c -2.17029,-3.69407 -4.78792,-7.10636 -7.78957,-10.16256 -3.02111,-3.00173 -6.4159,-5.598286 -10.10255,-7.729994 z m -70.53573,5.47701 23.49086,11.9894 c 0.92309,-4.37049 2.97886,-8.42227 5.96494,-11.74453 L 128.58931,111.8848 c -2.45739,3.64824 -4.44273,7.5961 -5.90315,11.74454 z m 70.77923,6.81724 c 1.49034,3.20435 2.27776,6.68876 2.31299,10.22251 -0.0245,0.93893 -0.10572,1.87257 -0.24311,2.80091 l 26.04695,-4.13973 c -0.10404,-4.40923 -0.7804,-8.78663 -2.00821,-13.02347 z m -27.38585,-1.76512 c -0.83324,0.24838 -1.61536,0.63948 -2.31296,1.15562 -0.83502,0.44745 -1.59426,1.02346 -2.25132,1.70341 -2.58075,2.56139 -3.93365,6.10927 -3.71344,9.7382 0.004,0.73633 0.0865,1.47089 0.24486,2.19142 0.06,0.18144 0.12152,0.36463 0.18145,0.60777 0.56722,2.18259 1.70167,4.1767 3.28713,5.7814 1.62772,1.58718 3.64121,2.71985 5.84138,3.28713 0.80859,0.25894 1.64882,0.40163 2.49619,0.42456 3.70642,0.266 7.34761,-1.08694 9.97945,-3.71169 0.63595,-0.61482 1.18731,-1.31059 1.64354,-2.06984 0.50383,-0.68349 0.89491,-1.44275 1.15737,-2.25132 1.76157,-4.29474 1.06401,-9.20785 -1.82678,-12.84039 -0.12151,-0.12682 -0.22372,-0.27128 -0.30476,-0.42629 l -0.06,-0.0616 c -0.06,-0.06 -0.12151,-0.12152 -0.12151,-0.18145 l -0.48793,-0.48793 c -0.16564,-0.17792 -0.34881,-0.34175 -0.54609,-0.48618 -0.0334,-0.0334 -0.0546,-0.0756 -0.0616,-0.12151 -0.06,0 -0.06,0 -0.12152,-0.0616 -0.06,-0.06 -0.18318,-0.12151 -0.30473,-0.24308 v 0.0616 c -3.54786,-2.95591 -8.43262,-3.72748 -12.71863,-2.00818 z m -46.31429,12.04939 c 0.0177,6.93 1.44626,13.78426 4.19787,20.14378 l 15.21472,-15.2147 -19.10972,-9.73638 c -0.19025,1.596 -0.29068,3.20081 -0.303,4.8073 z m 79.35664,14.4837 9.79815,19.16971 c 5.63891,-6.42089 9.55508,-14.16847 11.37971,-22.5168 z m -68.83106,16.55363 c 1.32997,1.73697 2.77271,3.38401 4.32114,4.92905 1.56607,1.56963 3.23254,3.0335 4.99041,4.38289 l 18.62177,-18.62358 c -3.89662,-2.1932 -7.11671,-5.41342 -9.31022,-9.31021 z m 45.46196,-6.57238 11.9894,23.49084 c 4.16264,-1.45859 8.11199,-3.46328 11.74452,-5.96491 l -11.98939,-23.55087 c -3.28714,3.04757 -7.35123,5.13157 -11.74453,6.02448 z m -25.25595,22.21372 c 7.86532,3.34879 16.4391,4.6878 24.95108,3.89486 l -9.73636,-19.10972 z m 104.37176,3.28538 -9.06848,9.00717 8.94717,13.5096 c 3.22902,-3.55311 6.98639,-6.58998 11.13663,-9.00713 1.92012,-1.09572 3.2061,-3.03701 3.46857,-5.23348 0.29066,-2.80092 -0.71694,-5.58255 -2.73927,-7.54469 -0.06,-0.12151 -0.18144,-0.18319 -0.2431,-0.30475 h -0.06 c -3.07045,-3.21667 -8.14218,-3.40691 -11.44147,-0.4263 z m -29.6984,29.63712 c -1.36522,1.39518 -2.11216,3.2818 -2.06986,5.23346 v 0.24485 c 0.0898,2.35876 1.06751,4.59761 2.73926,6.26753 l 1.40048,1.33884 c 1.85847,1.91661 4.45329,2.93654 7.12032,2.79914 2.09626,-0.13917 4.02876,-1.18203 5.29344,-2.86083 l 7.30339,-9.91947 -9.98123,-14.90986 z M 159.5049,91.071364 c -8.3447,1.87256 -16.0851,5.806212 -22.51858,11.441506 l 19.1715,9.73637 z m 55.01345,23.733956 c -2.17029,-3.69407 -4.78792,-7.10636 -7.78956,-10.16256 -3.02109,-3.00173 -6.41591,-5.598286 -10.10256,-7.729994 l -3.4069,21.239614 z m -46.55332,0.91248 c 4.45331,-0.4774 8.95396,0.25717 13.02348,2.12975 l 4.07634,-25.985146 c -4.22256,-1.28774 -8.60716,-1.96416 -13.02348,-2.00819 z m -45.27706,7.9113 23.49085,11.98943 c 0.92309,-4.37053 2.97886,-8.42227 5.96495,-11.74454 l -23.55264,-11.98941 c -2.45742,3.64823 -4.44275,7.59606 -5.90316,11.74452 z m 58.1206,9.0685 c -0.1215,-0.12682 -0.22371,-0.27127 -0.30475,-0.42632 l -0.06,-0.0616 c -0.06,-0.06 -0.12152,-0.12152 -0.12152,-0.18145 l -0.48796,-0.48794 c -0.16561,-0.17792 -0.34877,-0.34175 -0.54607,-0.48618 -0.0334,-0.0335 -0.0546,-0.0756 -0.0616,-0.12151 -0.06,0 -0.06,0 -0.1215,-0.0616 -0.06,-0.06 -0.1832,-0.12151 -0.30475,-0.2431 v 0.0616 c -3.54784,-2.95592 -8.43263,-3.72748 -12.71861,-2.00819 -0.83151,0.24841 -1.61538,0.63948 -2.31297,1.15562 -0.83326,0.44746 -1.59426,1.02347 -2.25131,1.70345 -2.58077,2.56136 -3.93366,6.10922 -3.7117,9.73817 0.004,0.73635 0.0846,1.47093 0.2431,2.19143 0.06,0.18143 0.12153,0.36465 0.18144,0.60776 0.56899,2.1826 1.70168,4.1767 3.28716,5.7814 1.6277,1.58718 3.64118,2.71987 5.84136,3.28716 0.80858,0.25894 1.64883,0.40161 2.49619,0.42453 3.70816,0.26601 7.34762,-1.08693 9.98125,-3.71169 0.63415,-0.6148 1.18731,-1.3106 1.6418,-2.06983 0.5038,-0.68349 0.89489,-1.44274 1.15737,-2.25134 1.76155,-4.29472 1.06401,-9.20782 -1.8268,-12.84036 z m 14.97165,7.97128 c -0.0245,0.93891 -0.10572,1.87256 -0.24309,2.80091 l 26.04695,-4.13973 c -0.10404,-4.40924 -0.7804,-8.78664 -2.0082,-13.02349 l -26.10874,4.13977 c 1.4903,3.20433 2.27774,6.68873 2.31296,10.22251 z m -75.70832,-4.74551 c -0.19025,1.59601 -0.29067,3.20082 -0.30298,4.80729 0.0174,6.93003 1.44624,13.78427 4.19786,20.14379 l 15.21472,-15.21472 z m 32.86422,22.51674 c -1.57489,-1.57307 -2.92776,-3.35405 -4.01641,-5.29343 l -18.62358,18.62178 c 1.32998,1.73694 2.77272,3.38401 4.32117,4.92905 1.56608,1.56962 3.23253,3.03349 4.99039,4.38288 l 18.62179,-18.62356 c -1.93954,-1.09046 -3.72224,-2.44159 -5.29345,-4.01642 z m 55.98754,15.94397 c 5.63889,-6.42086 9.55508,-14.16847 11.37968,-22.51678 l -21.17785,3.34702 z m -33.16727,-9.18846 11.98941,23.49085 c 4.16264,-1.45858 8.112,-3.46327 11.74451,-5.96494 l -11.98939,-23.55084 c -3.28715,3.04755 -7.35122,5.13157 -11.74453,6.02447 z m -25.25595,22.21373 c 7.86532,3.34879 16.4391,4.68779 24.95111,3.89486 l -9.73639,-19.10973 z m 104.37179,3.28537 -9.06851,9.00717 8.94718,13.50961 c 3.22902,-3.55315 6.98638,-6.58998 11.13662,-9.00717 1.92013,-1.09569 3.20611,-3.03699 3.46858,-5.23345 0.29067,-2.80091 -0.71695,-5.58252 -2.73926,-7.54469 -0.06,-0.12151 -0.18144,-0.18318 -0.24311,-0.30473 h -0.06 c -3.07044,-3.21668 -8.1422,-3.40694 -11.44148,-0.42632 z m -29.69844,29.6371 c -1.36521,1.39521 -2.11216,3.28183 -2.06985,5.23347 v 0.24488 c 0.0898,2.35877 1.06752,4.59758 2.73926,6.26752 l 1.40048,1.33883 c 1.85849,1.91662 4.45331,2.93656 7.12031,2.79915 2.09628,-0.13919 4.02877,-1.18202 5.29346,-2.86086 l 7.30342,-9.91945 -9.98127,-14.90986 z m 75.52342,9.98123 c -2.19672,0.26249 -4.13799,1.54845 -5.23347,3.46859 -2.41691,4.15205 -5.454,7.90769 -9.00715,11.13664 l 13.50959,8.94717 9.0685,-9.06851 c 1.41984,-1.48325 2.16852,-3.48619 2.06809,-5.53833 -0.12511,-2.34464 -1.1239,-4.55881 -2.79914,-6.2062 -1.97652,-2.03989 -4.78432,-3.05104 -7.60646,-2.73927 z m -34.38442,29.69844 c -1.68409,1.23315 -2.73223,3.15149 -2.86085,5.23347 v 0.66941 c 0.0138,2.44159 1.02523,4.77215 2.79917,6.45109 l 1.33883,1.40048 c 3.07396,3.39632 8.3059,3.69406 11.74632,0.66942 l 11.80633,-11.80632 -14.90989,-9.92127 z M 159.5058,91.070304 c -8.34468,1.87253 -16.08508,5.806172 -22.51858,11.441466 l 19.17151,9.73637 z m 55.01344,23.733916 c -2.17027,-3.69404 -4.7879,-7.10633 -7.78956,-10.16254 -3.02109,-3.00173 -6.41588,-5.598306 -10.10253,-7.730014 l -3.40693,21.239644 z m -33.53164,3.04225 4.07635,-25.985136 c -4.22254,-1.28775 -8.60714,-1.96419 -13.02347,-2.00821 l -4.07635,25.863866 c 4.45331,-0.47739 8.95394,0.25718 13.02347,2.12978 z m -58.30099,5.7814 23.49088,11.98944 c 0.92307,-4.37054 2.97885,-8.42226 5.96492,-11.74454 l -23.55265,-11.98941 c -2.45739,3.64823 -4.44273,7.59607 -5.90315,11.74451 z m 58.12061,9.0685 c -0.12152,-0.12683 -0.22372,-0.27126 -0.30476,-0.42631 l -0.06,-0.0616 c -0.06,-0.06 -0.12152,-0.12151 -0.12152,-0.18143 l -0.48794,-0.48796 c -0.16562,-0.17789 -0.34878,-0.34174 -0.54608,-0.48617 -0.0335,-0.0335 -0.0546,-0.0756 -0.0616,-0.12152 -0.06,0 -0.06,0 -0.12152,-0.0616 -0.06,-0.06 -0.1832,-0.1215 -0.30475,-0.24311 v 0.0616 c -3.54784,-2.95598 -8.43264,-3.72752 -12.71862,-2.00821 -0.83148,0.24837 -1.61536,0.63947 -2.31297,1.15559 -0.83325,0.44746 -1.59425,1.02348 -2.25131,1.70345 -2.58075,2.56135 -3.93364,6.10924 -3.71168,9.73818 0.004,0.73634 0.0846,1.47091 0.24309,2.19145 0.06,0.18144 0.12152,0.36463 0.18146,0.60775 0.56898,2.18258 1.70167,4.17672 3.28713,5.78139 1.62772,1.58719 3.64118,2.71987 5.84137,3.28714 0.80859,0.25895 1.64882,0.40163 2.49621,0.42455 3.70816,0.26598 7.34758,-1.08692 9.98123,-3.71169 0.63416,-0.6148 1.1873,-1.31059 1.64179,-2.06986 0.50382,-0.68346 0.8949,-1.44271 1.15736,-2.25129 1.76156,-4.29473 1.06402,-9.20786 -1.82677,-12.84039 z m 14.97164,7.97131 c -0.0248,0.93891 -0.10572,1.87254 -0.2431,2.80089 l 26.04696,-4.13972 c -0.10405,-4.40924 -0.78041,-8.78664 -2.00821,-13.02348 l -26.10873,4.13975 c 1.49032,3.20435 2.27775,6.68873 2.31298,10.22252 z m -75.70832,-4.74554 c -0.19024,1.59602 -0.29065,3.20084 -0.30298,4.8073 0.0176,6.93001 1.44624,13.78428 4.19786,20.1438 l 15.21475,-15.21472 z m 32.86421,22.51679 c -1.57485,-1.57311 -2.92774,-3.35407 -4.0164,-5.29345 l -18.62356,18.62175 c 1.32998,1.73696 2.77273,3.38403 4.32118,4.92908 1.56604,1.56958 3.23249,3.03347 4.99037,4.38285 l 18.62177,-18.62358 c -1.93951,-1.09043 -3.72223,-2.44157 -5.29345,-4.01639 z m 55.98756,15.94393 c 5.63889,-6.42087 9.55506,-14.1685 11.37967,-22.5168 l -21.17784,3.34705 z m -33.16727,-9.18845 11.9894,23.49086 c 4.16267,-1.4586 8.112,-3.46329 11.74454,-5.96493 l -11.9894,-23.55085 c -3.28715,3.04755 -7.35123,5.13155 -11.74454,6.02445 z m -25.25596,22.21373 c 7.86532,3.34879 16.4391,4.68779 24.95112,3.89486 l -9.7364,-19.10971 z m 95.30284,12.29245 8.94717,13.50961 c 3.22902,-3.55313 6.98639,-6.58999 11.13663,-9.00715 1.92012,-1.09574 3.2061,-3.03699 3.46858,-5.23349 0.29065,-2.8009 -0.71695,-5.58252 -2.73926,-7.54467 -0.06,-0.12151 -0.18146,-0.18323 -0.24311,-0.30475 h -0.06 c -3.07046,-3.21666 -8.1422,-3.40691 -11.44149,-0.42631 z M 225.172,220.33051 c -1.36521,1.39522 -2.11217,3.28182 -2.06986,5.23348 v 0.24486 c 0.0898,2.35878 1.06752,4.59761 2.73927,6.26755 l 1.40046,1.33881 c 1.8585,1.91661 4.45332,2.93657 7.12033,2.79914 2.09627,-0.13918 4.02875,-1.18203 5.29344,-2.86082 l 7.30342,-9.91947 -9.98125,-14.90987 z m 70.29218,13.44963 c -2.41688,4.15206 -5.45397,7.90771 -9.00714,11.13663 l 13.5096,8.94719 9.06849,-9.0685 c 1.41984,-1.48328 2.16851,-3.48619 2.06809,-5.5383 -0.12511,-2.3447 -1.12388,-4.55885 -2.79915,-6.20622 -1.9765,-2.0399 -4.78431,-3.05105 -7.60645,-2.73927 -2.19671,0.26248 -4.13797,1.54844 -5.23347,3.46857 z m -29.15093,26.23004 c -1.68409,1.23313 -2.73223,3.15148 -2.86084,5.23349 v 0.6694 c 0.0138,2.44157 1.02523,4.77212 2.79913,6.45107 l 1.33882,1.40049 c 3.074,3.39632 8.30592,3.69406 11.74633,0.66942 l 11.80634,-11.80633 -14.90986,-9.92125 z m 81.54833,19.29102 c -8.35867,1.83557 -16.10808,5.77281 -22.51857,11.44147 l 19.16968,9.73818 z m 21.42093,26.71617 4.13798,-25.92518 c -4.22783,-1.26834 -8.60897,-1.9642 -13.02347,-2.0681 l -4.13799,25.92519 c 4.44803,-0.47916 8.94358,0.23607 13.02348,2.06809 z m 33.53163,-3.04226 c -2.12978,-3.68525 -4.72792,-7.08153 -7.72821,-10.10257 -3.06868,-2.98766 -6.48084,-5.6019 -10.16254,-7.78955 l -3.34701,21.30097 z m -91.83489,8.88539 23.55265,11.92761 c 0.89666,-4.36167 2.9577,-8.39926 5.96314,-11.68455 l -23.55085,-11.9894 c -2.51203,3.62713 -4.51868,7.57851 -5.96494,11.74634 z m 73.15133,17.03978 c 0,0.91249 -0.1832,1.82677 -0.24486,2.73927 l 25.98696,-4.07811 c -0.0546,-4.40922 -0.70991,-8.79205 -1.9483,-13.02346 l -26.10692,4.13799 c 1.48853,3.20434 2.27774,6.69054 2.31297,10.22431 z m -15.03343,-8.03263 c -0.06,-0.0616 -0.12152,-0.18319 -0.24309,-0.30474 -0.06,-0.06 -0.06,-0.1215 -0.12152,-0.18143 -0.06,-0.0616 -0.06,-0.0616 -0.06,-0.1234 l -1.03584,-1.03409 c -0.06,0 -0.06,0 -0.12152,-0.06 -0.0154,0 -0.0316,-0.007 -0.0422,-0.0176 -0.0122,-0.0122 -0.0195,-0.0281 -0.0176,-0.0441 -0.26776,-0.17093 -0.51436,-0.3752 -0.73106,-0.60777 -3.55488,-2.65293 -8.23014,-3.27477 -12.35424,-1.64353 -0.81034,0.29948 -1.58716,0.687 -2.31295,1.1556 -3.89664,2.4962 -6.16924,6.87907 -5.96316,11.50326 0.0195,0.7381 0.12152,1.47267 0.30299,2.18967 0.0616,0.18322 0.12324,0.3664 0.18323,0.60955 0.53023,2.17907 1.66996,4.16438 3.28714,5.72006 1.60657,1.62596 3.62711,2.78332 5.84137,3.34702 0.81385,0.23077 1.65062,0.37344 2.49618,0.4263 3.71697,0.26247 7.36521,-1.11688 9.97946,-3.77332 0.60069,-0.60777 1.13269,-1.28067 1.58191,-2.0082 0.51084,-0.71167 0.92131,-1.48856 1.21723,-2.31299 1.74399,-4.30534 1.02171,-9.2182 -1.88665,-12.84038 z m -60.73621,3.28541 c -0.12323,1.58363 -0.30475,3.16555 -0.30475,4.74731 0.0176,6.94942 1.44624,13.82303 4.19961,20.20558 l 15.21294,-15.21471 z m 88.84948,38.40252 c 5.66867,-6.41049 9.60784,-14.16126 11.4415,-22.51858 l -21.17787,3.34704 z m -55.9289,-15.88441 c -1.56075,-1.58541 -2.91012,-3.36461 -4.01641,-5.29525 l -18.68354,18.62358 c 1.36521,1.72459 2.8291,3.3717 4.38284,4.92907 1.58016,1.55194 3.24661,3.01408 4.99041,4.38105 l 18.56181,-18.62178 c -1.91133,-1.10625 -3.67116,-2.4574 -5.23531,-4.01639 z m 22.82298,6.69416 11.9876,23.49086 c 4.15557,-1.44801 8.10342,-3.43334 11.74634,-5.90316 l -11.9894,-23.55262 c -3.30826,3.00879 -7.36519,5.06794 -11.74454,5.96492 z m -25.25595,22.21373 c 7.83014,3.39631 16.39175,4.75814 24.8893,3.95474 l -9.73636,-19.1097 z M 94.443911,136.22838 c -0.06,1.46039 -0.12151,2.98062 -0.12151,4.44098 -0.0528,40.38815 31.430139,73.79624 71.753339,76.13224 -18.77063,28.15951 -5.97519,56.39842 -1.7388,60.70886 l 53.74868,54.89621 c 4.29826,4.24546 37.8511,21.96141 64.7752,1.1187 1.83557,30.54938 21.75013,57.04729 50.58946,67.29777 28.83526,10.25229 81.84887,95.44976 81.84887,95.44976 0,0 48.44036,-171.20817 1.72358,-212.42909 -11.65658,-13.15918 -18.66573,-20.92949 -45.91825,-30.22573 -5.13336,-0.85963 -9.85093,-3.35756 -13.44784,-7.1203 L 253.1045,142.06738 c -3.71344,-3.62537 -6.18502,-8.33387 -7.05854,-13.44964 C 241.78116,101.94036 223.73031,79.502954 198.58621,69.622264 129.94839,35.162727 18.835723,33.896334 18.835723,33.896334 c 0,0 73.906142,68.719066 75.608188,102.332046 z M 377.12663,268.46991 c 1.86728,0.52142 3.69756,1.17149 5.47699,1.94657 15.98134,6.38569 28.63459,19.06237 34.99232,35.05364 0.74869,1.74221 1.37756,3.53022 1.88667,5.35703 1.64355,5.408 2.52438,11.02073 2.61773,16.67361 v 1.40047 c 0,1.33885 -0.0616,2.61598 -0.12152,3.83323 v 0.0616 c -0.0546,0.15687 -0.0756,0.32237 -0.0616,0.48796 -0.99352,15.19893 -7.48332,29.51893 -18.25694,40.28757 -1.21724,1.21726 -2.55608,2.37285 -3.89485,3.52847 -0.06,0 -0.06,0.0616 -0.12153,0.0616 l -0.30475,0.30475 c -1.27712,1.09394 -2.85901,2.31121 -4.44273,3.40692 -4.64361,3.20434 -9.69939,5.7638 -15.03163,7.60825 -1.79684,0.61834 -3.62536,1.14682 -5.47699,1.5819 -16.70155,4.19612 -34.39163,1.40576 -48.98853,-7.73002 -1.52202,-0.97235 -3.10392,-2.06808 -4.62602,-3.1638 -2.25308,-1.74397 -4.40748,-3.613 -6.45107,-5.59828 -1.95185,-2.01531 -3.80154,-4.1274 -5.53833,-6.32934 -1.15561,-1.64354 -2.25132,-3.16556 -3.22545,-4.74731 -9.16365,-14.5879 -11.95603,-32.29015 -7.72823,-48.98853 0.44393,-1.87612 0.99177,-3.72402 1.64356,-5.53834 1.83558,-5.30427 4.37401,-10.34067 7.54648,-14.97166 1.10978,-1.58716 2.3077,-3.11094 3.5901,-4.56422 1.15559,-1.46741 2.41691,-2.85025 3.77333,-4.13798 10.76863,-10.80743 25.12021,-17.30044 40.34754,-18.25696 1.90075,-0.18495 3.81208,-0.24659 5.72187,-0.18144 5.65288,0.0969 11.2638,0.9777 16.67541,2.61596 z m -60.24918,-44.06082 0.0616,0.0616 c 3.86845,3.82619 6.13225,8.98417 6.32933,14.42192 v 0.73107 c 0.0281,5.15635 -2.00996,10.10978 -5.66008,13.75268 l -29.69842,29.69842 c -3.92834,3.74339 -9.18306,5.76922 -14.60547,5.63166 -5.42378,-0.13746 -10.56976,-2.4257 -14.30241,-6.36088 l -1.40048,-1.33882 c -4.40925,-4.38639 -6.69777,-10.47099 -6.26755,-16.67539 0.3946,-5.6407 3.24133,-10.82321 7.78955,-14.18067 l 16.49187,-12.10936 c 3.79091,-2.76218 6.96337,-6.28693 9.31155,-10.34563 2.97003,-5.21092 8.22834,-8.70774 14.17886,-9.43331 6.55842,-0.83678 13.1308,1.43744 17.77081,6.14622 z m -41.68648,-41.62648 c 4.04816,3.95826 6.34872,9.36974 6.3893,15.03161 0,0.916 -0.0616,1.8303 -0.1832,2.73928 -0.75047,5.94194 -4.24188,11.18939 -9.43151,14.17886 -4.07278,2.33233 -7.59971,5.50676 -10.34563,9.31157 l -12.17251,16.49184 c -3.35406,4.55025 -8.5386,7.39855 -14.17885,7.78956 -6.18863,0.4404 -12.25909,-1.84969 -16.61543,-6.26754 l -1.39872,-1.40048 c -3.87019,-3.8262 -6.13404,-8.98416 -6.32931,-14.42375 -0.22196,-5.394 1.80562,-10.6401 5.59831,-14.4837 l 29.69841,-29.69841 c 8.20218,-7.79315 21.16883,-7.46756 28.96921,0.73106 z M 194.31009,82.185424 c 15.97052,6.43531 28.61338,19.121896 34.9923,35.113626 0.66943,1.58365 1.2789,3.40869 1.88667,5.29527 1.59425,5.41881 2.45388,11.02747 2.55608,16.67539 v 1.46037 c 0,1.27714 -0.0616,2.55607 -0.1215,3.83319 v 0.48796 c -1.00412,15.20977 -7.51671,29.53293 -18.31873,40.28758 -1.21724,1.21726 -2.49437,2.37284 -3.89485,3.53023 l -0.36465,0.36463 c -1.40399,1.23137 -2.88899,2.36935 -4.44276,3.40869 -4.65758,3.17967 -9.71157,5.73764 -15.03162,7.60644 -1.82502,0.60777 -3.6518,1.15561 -5.53832,1.64355 -16.71058,4.17146 -34.39839,1.3582 -48.98854,-7.78953 -1.52202,-0.97419 -3.10392,-2.00821 -4.62421,-3.16556 -2.23719,-1.74225 -4.37049,-3.61127 -6.39109,-5.5983 -1.96949,-1.99941 -3.81917,-4.11158 -5.53833,-6.32932 -1.17676,-1.52377 -2.27422,-3.10921 -3.2854,-4.74734 -9.13929,-14.59645 -11.93123,-32.28832 -7.73002,-48.98854 0.43511,-1.85672 0.98475,-3.687 1.64355,-5.47697 1.81974,-5.34306 4.3793,-10.40202 7.60647,-15.03166 1.06927,-1.60128 2.24956,-3.12681 3.53021,-4.56421 1.17323,-1.455096 2.43273,-2.836184 3.77333,-4.137984 10.78622,-10.821392 25.1608,-17.316242 40.4089,-18.258742 1.76511,-0.12151 3.71167,-0.18145 5.72184,-0.12151 5.63169,0.0474 11.22682,0.90897 16.61363,2.55609 1.88491,0.532 3.73455,1.18203 5.53832,1.94832 z m 71.99232,177.825266 c -1.68408,1.23311 -2.73221,3.15148 -2.86083,5.23346 v 0.66941 c 0.0138,2.44159 1.02522,4.77213 2.79916,6.45108 l 1.33881,1.4005 c 3.07397,3.3963 8.30593,3.69403 11.74634,0.6694 l 11.80631,-11.80631 -14.90986,-9.92129 z m 34.38443,-29.69842 c -2.19671,0.26247 -4.13799,1.54844 -5.23346,3.46855 -2.41692,4.15206 -5.454,7.90772 -9.00716,11.13664 l 13.50959,8.94718 9.06851,-9.06851 c 1.41981,-1.48326 2.16852,-3.48618 2.06809,-5.53831 -0.12512,-2.34467 -1.1239,-4.55882 -2.79917,-6.2062 -1.97647,-2.03993 -4.7843,-3.05106 -7.60646,-2.73927 z m -75.52343,-9.98125 c -1.3652,1.39521 -2.11215,3.2818 -2.06985,5.23345 v 0.24487 c 0.0898,2.35879 1.06753,4.59761 2.73929,6.26752 l 1.40047,1.33884 c 1.85847,1.91662 4.45328,2.93657 7.1203,2.79917 2.09628,-0.1392 4.02877,-1.18203 5.29347,-2.86086 l 7.30339,-9.91945 -9.98125,-14.90987 z m 29.69841,-29.63712 -9.06846,9.00718 8.94717,13.50961 c 3.22902,-3.55312 6.98639,-6.58997 11.13663,-9.00716 1.92012,-1.09571 3.20611,-3.03699 3.46856,-5.23347 0.29066,-2.80091 -0.71694,-5.58252 -2.73925,-7.54466 -0.06,-0.12153 -0.18145,-0.18323 -0.24311,-0.30477 h -0.06 c -3.07046,-3.21667 -8.14221,-3.40692 -11.44149,-0.42631 z m -104.37173,-3.28538 c 7.8653,3.3488 16.43908,4.68782 24.95108,3.89487 l -9.73637,-19.10971 z m 25.25593,-22.21373 11.9894,23.4909 c 4.16265,-1.45864 8.112,-3.46332 11.74453,-5.96496 l -11.98939,-23.55082 c -3.28715,3.04752 -7.35121,5.13152 -11.74454,6.02442 z m 23.3691,-9.98124 9.79815,19.1697 c 5.63889,-6.42087 9.5551,-14.16847 11.3797,-22.51674 z m -68.83106,16.55366 c 1.32998,1.73693 2.77272,3.38399 4.32116,4.92905 1.56606,1.56959 3.23253,3.03348 4.99039,4.38286 l 18.62176,-18.62359 c -3.8966,-2.19318 -7.1167,-5.4134 -9.31019,-9.3102 z m -10.52738,-31.03735 c 0.0174,6.92998 1.44624,13.78424 4.19787,20.14378 l 15.21472,-15.21472 -19.10973,-9.73638 c -0.19025,1.59603 -0.29066,3.20084 -0.30298,4.80732 z m 73.69701,-10.28431 c 1.49031,3.20435 2.27773,6.68875 2.31297,10.22251 -0.0248,0.93893 -0.10572,1.87254 -0.2431,2.80092 l 26.04694,-4.13975 c -0.10404,-4.40923 -0.78039,-8.78663 -2.00819,-13.02346 z m -27.38587,-1.76513 c -0.83325,0.24839 -1.61537,0.63947 -2.31298,1.15561 -0.83499,0.44743 -1.59424,1.02346 -2.25129,1.70345 -2.58076,2.56134 -3.93366,6.10922 -3.71346,9.73815 0.004,0.73634 0.0864,1.47092 0.24487,2.19144 0.06,0.18144 0.12152,0.36465 0.18144,0.60779 0.56723,2.18256 1.70169,4.17669 3.28716,5.78138 1.6277,1.58717 3.64118,2.71987 5.84134,3.28714 0.80859,0.25895 1.64885,0.40166 2.49621,0.42453 3.70641,0.26602 7.34761,-1.0869 9.97944,-3.71167 0.63595,-0.6148 1.18731,-1.3106 1.64354,-2.06984 0.50383,-0.68349 0.89491,-1.44272 1.15737,-2.25132 1.76157,-4.29474 1.06402,-9.20783 -1.82677,-12.84039 -0.12152,-0.12683 -0.22371,-0.27126 -0.30476,-0.4263 l -0.06,-0.0616 c -0.06,-0.06 -0.12152,-0.12151 -0.12152,-0.18144 l -0.48795,-0.48796 c -0.16562,-0.17793 -0.3488,-0.34172 -0.54607,-0.48616 -0.0334,-0.0335 -0.0546,-0.0756 -0.0616,-0.12152 -0.06,0 -0.06,0 -0.1215,-0.0616 -0.06,-0.06 -0.18322,-0.12151 -0.30477,-0.24308 v 0.0616 c -3.54784,-2.95593 -8.43263,-3.7275 -12.71862,-2.0082 z m -43.39159,-5.05218 23.49087,11.98941 c 0.92307,-4.3705 2.97888,-8.42225 5.96495,-11.74452 L 128.57939,111.8837 c -2.45741,3.64824 -4.44273,7.59609 -5.90316,11.74454 z m 45.27709,-7.91131 c 4.45328,-0.4774 8.95393,0.25718 13.02347,2.12978 l 4.07632,-25.985156 c -4.22254,-1.28772 -8.60714,-1.96417 -13.02347,-2.00821 z m 25.25594,2.43449 21.29917,-3.34703 c -2.17028,-3.69404 -4.78793,-7.10632 -7.78956,-10.16252 -3.02112,-3.00172 -6.41591,-5.598306 -10.10256,-7.730004 z m -56.23557,-15.63952 19.17151,9.73639 3.34703,-21.177866 c -8.34471,1.87255 -16.08509,5.806222 -22.51858,11.441476 z m 88.18207,117.81959 c -1.36523,1.39521 -2.11216,3.28182 -2.06985,5.23348 v 0.24489 c 0.0898,2.35877 1.06753,4.59759 2.73927,6.26752 l 1.40046,1.33883 c 1.85847,1.91659 4.4533,2.93656 7.12032,2.79914 2.09628,-0.13919 4.02875,-1.18203 5.29346,-2.86086 l 7.3034,-9.91945 -9.98124,-14.90986 z m 29.69843,-29.6371 -9.06852,9.00719 8.94719,13.50962 c 3.22901,-3.55313 6.98638,-6.59 11.13664,-9.00719 1.92011,-1.09569 3.20609,-3.03699 3.46856,-5.23345 0.29067,-2.80091 -0.71694,-5.58253 -2.73925,-7.54467 -0.06,-0.12152 -0.18144,-0.18322 -0.24311,-0.30476 h -0.06 c -3.07047,-3.21666 -8.14222,-3.40691 -11.44148,-0.42632 z m -104.37177,-3.28536 c 7.8653,3.34878 16.43907,4.68778 24.95107,3.89486 l -9.73638,-19.10972 z m 25.25594,-22.21371 11.9894,23.49087 c 4.16265,-1.45865 8.11198,-3.46331 11.74454,-5.96496 l -11.98941,-23.55085 c -3.28715,3.04756 -7.3512,5.13155 -11.74453,6.02448 z m 23.36911,-9.98128 9.79816,19.16971 c 5.63885,-6.42086 9.55506,-14.16848 11.37968,-22.51679 z m -68.83108,16.55365 c 1.32999,1.73694 2.77273,3.38402 4.32115,4.92906 1.56608,1.5696 3.23253,3.03347 4.99042,4.38288 l 18.62175,-18.6236 c -3.89662,-2.19318 -7.11668,-5.41339 -9.31019,-9.3102 z M 119.749,140.73035 c 0.0175,6.93001 1.44627,13.78424 4.19789,20.14378 l 15.21472,-15.21472 -19.10973,-9.73636 c -0.19025,1.59601 -0.29066,3.20081 -0.30299,4.8073 z m 73.697,-10.28431 c 1.49033,3.20435 2.27776,6.68875 2.31299,10.22252 -0.0248,0.93892 -0.10572,1.87255 -0.24312,2.80092 l 26.04695,-4.13973 c -0.10404,-4.40926 -0.7804,-8.78667 -2.00819,-13.02348 z m -27.38585,-1.76514 c -0.83325,0.24841 -1.61537,0.63949 -2.31296,1.15562 -0.83503,0.44744 -1.59424,1.02347 -2.25131,1.70344 -2.58075,2.56137 -3.93367,6.10927 -3.71345,9.73817 0.004,0.73635 0.0864,1.47092 0.24486,2.19145 0.06,0.18143 0.12153,0.36463 0.18146,0.60777 0.56723,2.18259 1.70167,4.17672 3.28713,5.78137 1.62774,1.58719 3.6412,2.71989 5.84136,3.28715 0.8086,0.25895 1.64883,0.40165 2.49621,0.42454 3.7064,0.26602 7.34759,-1.08693 9.97944,-3.71169 0.63596,-0.61476 1.18731,-1.31058 1.64356,-2.06982 0.5038,-0.6835 0.89489,-1.44274 1.15735,-2.25131 1.76156,-4.29475 1.06401,-9.20787 -1.82677,-12.84039 -0.12152,-0.12683 -0.22372,-0.2713 -0.30478,-0.42633 l -0.06,-0.0616 c -0.06,-0.06 -0.12151,-0.12151 -0.12151,-0.18144 l -0.48793,-0.48793 c -0.16563,-0.17795 -0.3488,-0.34175 -0.54609,-0.4862 -0.0334,-0.0335 -0.0546,-0.0756 -0.0616,-0.12151 -0.06,0 -0.06,0 -0.12152,-0.0616 -0.06,-0.06 -0.18321,-0.12152 -0.30476,-0.2431 v 0.0616 c -3.54785,-2.95595 -8.43262,-3.7275 -12.71862,-2.00819 z m -43.39158,-5.05216 23.49085,11.98941 c 0.92309,-4.37049 2.97887,-8.42226 5.96495,-11.74454 l -23.55263,-11.9894 c -2.45741,3.64822 -4.44276,7.59608 -5.90317,11.74453 z m 45.27706,-7.91132 c 4.45331,-0.47739 8.95396,0.25718 13.02348,2.1298 l 4.07634,-25.985166 c -4.22252,-1.28776 -8.60715,-1.96418 -13.02347,-2.0082 z m 25.25597,2.43451 21.29916,-3.34703 c -2.17029,-3.69405 -4.78791,-7.10634 -7.78957,-10.16255 -3.02111,-3.00171 -6.41588,-5.598306 -10.10253,-7.730024 z m -56.23558,-15.63953 19.17151,9.73638 3.34703,-21.177866 c -8.34468,1.87255 -16.08508,5.806192 -22.51857,11.441486 z m 13.51143,84.8945 c 7.86532,3.34879 16.43908,4.6878 24.9511,3.89488 l -9.73639,-19.10973 z m 25.25595,-22.21372 11.98941,23.49085 c 4.16263,-1.4586 8.11198,-3.46328 11.74453,-5.96493 l -11.98942,-23.55084 c -3.28714,3.04754 -7.35121,5.13157 -11.74452,6.02447 z m -45.46198,6.57239 c 1.33,1.73695 2.77273,3.38401 4.32117,4.92906 1.56606,1.5696 3.23254,3.03348 4.99039,4.38287 l 18.62177,-18.62358 c -3.89662,-2.19318 -7.11669,-5.41341 -9.31021,-9.3102 z m 68.83106,-16.55363 9.79818,19.1697 c 5.63887,-6.42087 9.55507,-14.16848 11.3797,-22.51679 z m -79.35663,-14.48371 c 0.0174,6.93 1.44626,13.78425 4.19787,20.14378 l 15.21472,-15.21471 -19.10971,-9.73638 c -0.19024,1.59602 -0.29066,3.20082 -0.30299,4.80731 z m 46.3143,-12.0494 c -0.83325,0.2484 -1.61537,0.63949 -2.31296,1.15561 -0.83503,0.44745 -1.59424,1.02347 -2.25131,1.70345 -2.58075,2.56135 -3.93367,6.10925 -3.71345,9.73819 0.004,0.73632 0.0864,1.4709 0.24486,2.19141 0.06,0.18144 0.12153,0.36466 0.18146,0.60778 0.56723,2.18259 1.70167,4.17671 3.28713,5.78137 1.62774,1.5872 3.6412,2.71988 5.84136,3.28716 0.8086,0.25895 1.64883,0.40165 2.49621,0.42454 3.7064,0.266 7.34759,-1.08692 9.97944,-3.7117 0.63596,-0.61479 1.18731,-1.31058 1.64356,-2.06983 0.5038,-0.68349 0.89489,-1.44273 1.15735,-2.25129 1.76156,-4.29477 1.06401,-9.20787 -1.82677,-12.84042 -0.12152,-0.12682 -0.22372,-0.27129 -0.30478,-0.42629 l -0.06,-0.0616 c -0.06,-0.06 -0.12151,-0.12153 -0.12151,-0.18146 l -0.48793,-0.48795 c -0.16563,-0.17793 -0.3488,-0.34172 -0.54609,-0.48617 -0.0334,-0.0335 -0.0546,-0.0756 -0.0616,-0.12152 -0.06,0 -0.06,0 -0.12152,-0.0616 -0.06,-0.06 -0.18321,-0.12152 -0.30476,-0.24309 v 0.0616 c -3.54785,-2.95594 -8.43262,-3.72751 -12.71862,-2.00819 z m 27.38585,1.76514 c 1.49033,3.20434 2.27776,6.68874 2.31299,10.22251 -0.0248,0.93892 -0.10572,1.87255 -0.24312,2.80093 l 26.04695,-4.13975 c -0.10404,-4.40924 -0.7804,-8.78665 -2.00819,-13.02348 z m 5.66011,24.768 9.79815,19.16971 c 5.63889,-6.42088 9.55508,-14.16849 11.3797,-22.51679 z m -76.43888,-31.58526 23.49084,11.98939 c 0.9231,-4.37049 2.97887,-8.42225 5.96495,-11.74454 l -23.55262,-11.9894 c -2.45743,3.64825 -4.44277,7.59611 -5.90317,11.74455 z m 70.53572,-5.477 21.29918,-3.34703 c -2.1703,-3.69406 -4.78795,-7.10632 -7.78958,-10.16253 -3.02112,-3.00173 -6.4159,-5.598296 -10.10254,-7.730024 z m -27.1428,10.52919 c -0.83325,0.24838 -1.61537,0.63947 -2.31296,1.15558 -0.83503,0.44745 -1.59424,1.02346 -2.25131,1.70344 -2.58075,2.56136 -3.93367,6.10927 -3.71345,9.73819 0.004,0.73633 0.0864,1.47091 0.24486,2.19142 0.06,0.18145 0.12153,0.36465 0.18146,0.60776 0.56723,2.18259 1.70167,4.17673 3.28713,5.78142 1.62774,1.58715 3.6412,2.71986 5.84136,3.28712 0.8086,0.25897 1.64883,0.40166 2.49621,0.42455 3.7064,0.26601 7.34759,-1.0869 9.97944,-3.71167 0.63596,-0.6148 1.18731,-1.31062 1.64356,-2.06986 0.5038,-0.68347 0.89489,-1.44274 1.15735,-2.25131 1.76156,-4.29475 1.06401,-9.20787 -1.82677,-12.84039 -0.12152,-0.12683 -0.22372,-0.27128 -0.30478,-0.42629 l -0.06,-0.0616 c -0.06,-0.06 -0.12151,-0.12151 -0.12151,-0.18144 l -0.48793,-0.48795 c -0.16563,-0.17794 -0.3488,-0.34174 -0.54609,-0.48619 -0.0334,-0.0334 -0.0546,-0.0756 -0.0616,-0.1215 -0.06,0 -0.06,0 -0.12152,-0.0616 -0.06,-0.06 -0.18321,-0.12151 -0.30476,-0.24307 v 0.0616 c -3.54785,-2.95596 -8.43262,-3.72751 -12.71862,-2.0082 z m 1.88668,-12.96352 c 4.45328,-0.47738 8.95394,0.25721 13.02347,2.1298 l 4.07632,-25.985166 c -4.22254,-1.28771 -8.60716,-1.96418 -13.02347,-2.0082 z m -1.88668,12.96352 c -0.83325,0.24838 -1.61537,0.63947 -2.31296,1.15558 -0.83503,0.44745 -1.59424,1.02346 -2.25131,1.70344 -2.58075,2.56136 -3.93367,6.10927 -3.71345,9.73819 0.004,0.73633 0.0864,1.47091 0.24486,2.19142 0.06,0.18145 0.12153,0.36465 0.18146,0.60776 0.56723,2.18259 1.70167,4.17673 3.28713,5.78142 1.62774,1.58715 3.6412,2.71986 5.84136,3.28712 0.8086,0.25897 1.64883,0.40166 2.49621,0.42455 3.7064,0.26601 7.34759,-1.0869 9.97944,-3.71167 0.63596,-0.6148 1.18731,-1.31062 1.64356,-2.06986 0.5038,-0.68347 0.89489,-1.44274 1.15735,-2.25131 1.76156,-4.29475 1.06401,-9.20787 -1.82677,-12.84039 -0.12152,-0.12683 -0.22372,-0.27128 -0.30478,-0.42629 l -0.06,-0.0616 c -0.06,-0.06 -0.12151,-0.12151 -0.12151,-0.18144 l -0.48793,-0.48795 c -0.16563,-0.17794 -0.3488,-0.34174 -0.54609,-0.48619 -0.0334,-0.0334 -0.0546,-0.0756 -0.0616,-0.1215 -0.06,0 -0.06,0 -0.12152,-0.0616 -0.06,-0.06 -0.18321,-0.12151 -0.30476,-0.24307 v 0.0616 c -3.54785,-2.95596 -8.43262,-3.72751 -12.71862,-2.0082 z m -29.09096,-26.16828 19.17149,9.73638 3.34703,-21.177846 c -8.34469,1.87257 -16.08508,5.806212 -22.51857,11.441466 z"
     style="fill:#ff0ec0;fill-opacity:1;stroke-width:0.879761;filter:url(#filter48198)"
     id="path7329"
     sodipodi:nodetypes="cccscsccccccccccccccccccsccsscccccccccccccccccccccsccccccccccccccccccsccsscccccccccccccccccccccccccccccscsccccccccccccccccccsccsscccccccccccccccccccccsccccccccccccccccccscccsccccccccccccccccccccccccccccccccccccccccccccccccccccccccccccccccccccccccscccccccccccccccccccccccccccccccccccccccccccccccccccccccccccccccccccccccccccccccccccccccccccccccccccccccccccccccccccsccccccccccccccccccccccccccccccccccccccccccccccccccccccccccccccccccccccccccccccccccccccccccccccccccccccccccccccccccsccccsccccccccccccccccccccccccccccccccccccccccccccccccccccccccccccccsccccccccccccccccccccccccccccccccccccccccccccccccccccccccccsccccccccccccccccccccccccccccccccccccccccccccccccccccccccccccccccccccccccccccccccccccccccccccccccccccccccccccccccsccccccccccccccccccccccccccccccccccccccccccccccccccccccccccccccccccccccccccccsccccccccccccccccccscccsccccccccccccccccccscccccccccccccccccccccccccccsccccccccccccccccccsccssccccccccccccccccccccsccccccccccccccccccsccsscccccsccccccccccccccccccsccsscccsc" />
</svg>
