<?xml version="1.0" encoding="UTF-8" standalone="no"?>
<svg
   height="512"
   version="1.1"
   viewBox="0 0 512 512"
   width="512"
   id="svg9"
   sodipodi:docname="killstrom-typhoid-speaker.svg"
   inkscape:version="1.2.2 (b0a8486541, 2022-12-01)"
   xmlns:inkscape="http://www.inkscape.org/namespaces/inkscape"
   xmlns:sodipodi="http://sodipodi.sourceforge.net/DTD/sodipodi-0.dtd"
   xmlns="http://www.w3.org/2000/svg"
   xmlns:svg="http://www.w3.org/2000/svg">
  <defs
     id="defs13">
    <filter
       style="color-interpolation-filters:sRGB;"
       inkscape:label="Drop Shadow"
       id="filter911"
       x="-1.1181985"
       y="-1.1347366"
       width="3.1770221"
       height="3.2093634">
      <feFlood
         flood-opacity="1"
         flood-color="rgb(58,63,94)"
         result="flood"
         id="feFlood901" />
      <feComposite
         in="flood"
         in2="SourceGraphic"
         operator="out"
         result="composite1"
         id="feComposite903" />
      <feGaussianBlur
         in="composite1"
         stdDeviation="15"
         result="blur"
         id="feGaussianBlur905" />
      <feOffset
         dx="0"
         dy="0"
         result="offset"
         id="feOffset907" />
      <feComposite
         in="offset"
         in2="SourceGraphic"
         operator="atop"
         result="composite2"
         id="feComposite909" />
    </filter>
    <filter
       style="color-interpolation-filters:sRGB;"
       inkscape:label="Drop Shadow"
       id="filter1155"
       x="-0.17625458"
       y="-0.17888525"
       width="1.3525092"
       height="1.3577705">
      <feFlood
         flood-opacity="1"
         flood-color="rgb(58,63,94)"
         result="flood"
         id="feFlood1145" />
      <feComposite
         in="flood"
         in2="SourceGraphic"
         operator="out"
         result="composite1"
         id="feComposite1147" />
      <feGaussianBlur
         in="composite1"
         stdDeviation="4.99388"
         result="blur"
         id="feGaussianBlur1149" />
      <feOffset
         dx="0"
         dy="0"
         result="offset"
         id="feOffset1151" />
      <feComposite
         in="offset"
         in2="SourceGraphic"
         operator="atop"
         result="composite2"
         id="feComposite1153" />
    </filter>
    <filter
       style="color-interpolation-filters:sRGB;"
       inkscape:label="Drop Shadow"
       id="filter1105"
       x="-0.11888965"
       y="-0.12066412"
       width="1.2377793"
       height="1.2413282">
      <feFlood
         flood-opacity="1"
         flood-color="rgb(58,63,94)"
         result="flood"
         id="feFlood1095" />
      <feComposite
         in="flood"
         in2="SourceGraphic"
         operator="out"
         result="composite1"
         id="feComposite1097" />
      <feGaussianBlur
         in="composite1"
         stdDeviation="3.36854"
         result="blur"
         id="feGaussianBlur1099" />
      <feOffset
         dx="0"
         dy="0"
         result="offset"
         id="feOffset1101" />
      <feComposite
         in="offset"
         in2="SourceGraphic"
         operator="atop"
         result="composite2"
         id="feComposite1103" />
    </filter>
    <filter
       style="color-interpolation-filters:sRGB;"
       inkscape:label="Drop Shadow"
       id="filter13652"
       x="-0.077900418"
       y="-0.080053854"
       width="1.1558008"
       height="1.1601077">
      <feFlood
         flood-opacity="1"
         flood-color="rgb(58,63,94)"
         result="flood"
         id="feFlood13642" />
      <feComposite
         in="flood"
         in2="SourceGraphic"
         operator="out"
         result="composite1"
         id="feComposite13644" />
      <feGaussianBlur
         in="composite1"
         stdDeviation="15"
         result="blur"
         id="feGaussianBlur13646" />
      <feOffset
         dx="0"
         dy="0"
         result="offset"
         id="feOffset13648" />
      <feComposite
         in="offset"
         in2="SourceGraphic"
         operator="atop"
         result="composite2"
         id="feComposite13650" />
    </filter>
    <filter
       style="color-interpolation-filters:sRGB;"
       inkscape:label="Drop Shadow"
       id="filter14416"
       x="-0.068571429"
       y="-0.034285714"
       width="1.1371429"
       height="1.0685714">
      <feFlood
         flood-opacity="1"
         flood-color="rgb(58,63,94)"
         result="flood"
         id="feFlood14406" />
      <feComposite
         in="flood"
         in2="SourceGraphic"
         operator="out"
         result="composite1"
         id="feComposite14408" />
      <feGaussianBlur
         in="composite1"
         stdDeviation="15"
         result="blur"
         id="feGaussianBlur14410" />
      <feOffset
         dx="0"
         dy="0"
         result="offset"
         id="feOffset14412" />
      <feComposite
         in="offset"
         in2="SourceGraphic"
         operator="atop"
         result="composite2"
         id="feComposite14414" />
    </filter>
  </defs>
  <sodipodi:namedview
     id="namedview11"
     pagecolor="#505050"
     bordercolor="#eeeeee"
     borderopacity="1"
     inkscape:pageshadow="0"
     inkscape:pageopacity="0"
     inkscape:pagecheckerboard="0"
     showgrid="false"
     inkscape:zoom="0.40718283"
     inkscape:cx="-93.324172"
     inkscape:cy="419.95877"
     inkscape:window-width="1716"
     inkscape:window-height="1386"
     inkscape:window-x="1440"
     inkscape:window-y="702"
     inkscape:window-maximized="1"
     inkscape:current-layer="svg9"
     inkscape:showpageshadow="2"
     inkscape:deskcolor="#505050" />
  <title
     id="title2" />
  <desc
     id="desc4" />
  <path
     d="M 0,0 H 512 V 512 H 0 Z"
     fill="#b90202"
     fill-opacity="1"
     id="path902"
     style="fill:#1b1f21;fill-opacity:0" />
  <g
     id="g13813"
     transform="matrix(0.41587493,0,0,0.41587493,6.475042,6.475042)"
     style="fill:#ff0ec0;fill-opacity:1;filter:url(#filter14416)">
    <path
       d="m 600,487.5 c 41.25,0 75,-33.75 75,-75 0,-41.25 -33.75,-75 -75,-75 -41.25,0 -75,33.75 -75,75 0,41.25 33.75,75 75,75 z M 600,375 c 20.625,0 37.5,16.875 37.5,37.5 0,20.625 -16.875,37.5 -37.5,37.5 -20.625,0 -37.5,-16.875 -37.5,-37.5 0,-20.625 16.875,-37.5 37.5,-37.5 z"
       id="path13787"
       style="fill:#ff0ec0;fill-opacity:1" />
    <path
       d="m 637.5,787.5 c 0,20.711 -16.789,37.5 -37.5,37.5 -20.711,0 -37.5,-16.789 -37.5,-37.5 0,-20.711 16.789,-37.5 37.5,-37.5 20.711,0 37.5,16.789 37.5,37.5"
       id="path13789"
       style="fill:#ff0ec0;fill-opacity:1" />
    <path
       d="m 750,1087.5 h 75 v 37.5 h -75 z"
       id="path13791"
       style="fill:#ff0ec0;fill-opacity:1" />
    <path
       d="M 600,975 C 703.12,975 787.5,890.625 787.5,787.5 787.5,684.375 703.125,600 600,600 496.875,600 412.5,684.375 412.5,787.5 412.5,890.625 496.875,975 600,975 Z m 0,-337.5 c 82.5,0 150,67.5 150,150 H 712.5 C 712.5,725.625 661.875,675 600,675 Z m 0,75 c 41.25,0 75,33.75 75,75 0,41.25 -33.75,75 -75,75 -41.25,0 -75,-33.75 -75,-75 0,-41.25 33.75,-75 75,-75 z"
       id="path13793"
       style="fill:#ff0ec0;fill-opacity:1" />
    <path
       d="m 375,1087.5 h 75 v 37.5 h -75 z"
       id="path13795"
       style="fill:#ff0ec0;fill-opacity:1" />
    <path
       d="m 337.5,1050 h 525 V 262.5 h -525 z M 600,300 c 61.875,0 112.5,50.625 112.5,112.5 C 712.5,474.375 661.875,525 600,525 538.125,525 487.5,474.375 487.5,412.5 487.5,350.625 538.125,300 600,300 Z m 0,262.5 c 123.75,0 225,101.25 225,225 0,123.75 -101.25,225 -225,225 -123.75,0 -225,-101.25 -225,-225 0,-123.75 101.25,-225 225,-225 z"
       id="path13797"
       style="fill:#ff0ec0;fill-opacity:1" />
    <path
       d="m 337.5,75 v 150 h 525 V 75 Z M 825,187.5 H 787.5 V 150 h -375 v 37.5 H 375 v -75 h 450 z"
       id="path13799"
       style="fill:#ff0ec0;fill-opacity:1" />
  </g>
</svg>
