<?xml version="1.0" encoding="UTF-8" standalone="no"?>
<svg
   height="512"
   version="1.1"
   viewBox="0 0 512 512"
   width="512"
   id="svg9"
   sodipodi:docname="killstrom-sonic-boom-amp.svg"
   inkscape:version="1.2.2 (b0a8486541, 2022-12-01)"
   xmlns:inkscape="http://www.inkscape.org/namespaces/inkscape"
   xmlns:sodipodi="http://sodipodi.sourceforge.net/DTD/sodipodi-0.dtd"
   xmlns="http://www.w3.org/2000/svg"
   xmlns:svg="http://www.w3.org/2000/svg">
  <defs
     id="defs13">
    <filter
       style="color-interpolation-filters:sRGB;"
       inkscape:label="Drop Shadow"
       id="filter911"
       x="-1.1181985"
       y="-1.1347366"
       width="3.1770221"
       height="3.2093634">
      <feFlood
         flood-opacity="1"
         flood-color="rgb(58,63,94)"
         result="flood"
         id="feFlood901" />
      <feComposite
         in="flood"
         in2="SourceGraphic"
         operator="out"
         result="composite1"
         id="feComposite903" />
      <feGaussianBlur
         in="composite1"
         stdDeviation="15"
         result="blur"
         id="feGaussianBlur905" />
      <feOffset
         dx="0"
         dy="0"
         result="offset"
         id="feOffset907" />
      <feComposite
         in="offset"
         in2="SourceGraphic"
         operator="atop"
         result="composite2"
         id="feComposite909" />
    </filter>
    <filter
       style="color-interpolation-filters:sRGB;"
       inkscape:label="Drop Shadow"
       id="filter1155"
       x="-0.17625458"
       y="-0.17888525"
       width="1.3525092"
       height="1.3577705">
      <feFlood
         flood-opacity="1"
         flood-color="rgb(58,63,94)"
         result="flood"
         id="feFlood1145" />
      <feComposite
         in="flood"
         in2="SourceGraphic"
         operator="out"
         result="composite1"
         id="feComposite1147" />
      <feGaussianBlur
         in="composite1"
         stdDeviation="4.99388"
         result="blur"
         id="feGaussianBlur1149" />
      <feOffset
         dx="0"
         dy="0"
         result="offset"
         id="feOffset1151" />
      <feComposite
         in="offset"
         in2="SourceGraphic"
         operator="atop"
         result="composite2"
         id="feComposite1153" />
    </filter>
    <filter
       style="color-interpolation-filters:sRGB;"
       inkscape:label="Drop Shadow"
       id="filter1105"
       x="-0.11888965"
       y="-0.12066412"
       width="1.2377793"
       height="1.2413282">
      <feFlood
         flood-opacity="1"
         flood-color="rgb(58,63,94)"
         result="flood"
         id="feFlood1095" />
      <feComposite
         in="flood"
         in2="SourceGraphic"
         operator="out"
         result="composite1"
         id="feComposite1097" />
      <feGaussianBlur
         in="composite1"
         stdDeviation="3.36854"
         result="blur"
         id="feGaussianBlur1099" />
      <feOffset
         dx="0"
         dy="0"
         result="offset"
         id="feOffset1101" />
      <feComposite
         in="offset"
         in2="SourceGraphic"
         operator="atop"
         result="composite2"
         id="feComposite1103" />
    </filter>
    <filter
       style="color-interpolation-filters:sRGB;"
       inkscape:label="Drop Shadow"
       id="filter13652"
       x="-0.077900418"
       y="-0.080053854"
       width="1.1558008"
       height="1.1601077">
      <feFlood
         flood-opacity="1"
         flood-color="rgb(58,63,94)"
         result="flood"
         id="feFlood13642" />
      <feComposite
         in="flood"
         in2="SourceGraphic"
         operator="out"
         result="composite1"
         id="feComposite13644" />
      <feGaussianBlur
         in="composite1"
         stdDeviation="15"
         result="blur"
         id="feGaussianBlur13646" />
      <feOffset
         dx="0"
         dy="0"
         result="offset"
         id="feOffset13648" />
      <feComposite
         in="offset"
         in2="SourceGraphic"
         operator="atop"
         result="composite2"
         id="feComposite13650" />
    </filter>
    <filter
       style="color-interpolation-filters:sRGB;"
       inkscape:label="Drop Shadow"
       id="filter14416"
       x="-0.068571429"
       y="-0.034285714"
       width="1.1371429"
       height="1.0685714">
      <feFlood
         flood-opacity="1"
         flood-color="rgb(58,63,94)"
         result="flood"
         id="feFlood14406" />
      <feComposite
         in="flood"
         in2="SourceGraphic"
         operator="out"
         result="composite1"
         id="feComposite14408" />
      <feGaussianBlur
         in="composite1"
         stdDeviation="15"
         result="blur"
         id="feGaussianBlur14410" />
      <feOffset
         dx="0"
         dy="0"
         result="offset"
         id="feOffset14412" />
      <feComposite
         in="offset"
         in2="SourceGraphic"
         operator="atop"
         result="composite2"
         id="feComposite14414" />
    </filter>
    <filter
       style="color-interpolation-filters:sRGB;"
       inkscape:label="Drop Shadow"
       id="filter15059"
       x="-0.033103448"
       y="-0.033684179"
       width="1.0662069"
       height="1.0673684">
      <feFlood
         flood-opacity="1"
         flood-color="rgb(58,63,94)"
         result="flood"
         id="feFlood15049" />
      <feComposite
         in="flood"
         in2="SourceGraphic"
         operator="out"
         result="composite1"
         id="feComposite15051" />
      <feGaussianBlur
         in="composite1"
         stdDeviation="15"
         result="blur"
         id="feGaussianBlur15053" />
      <feOffset
         dx="0"
         dy="0"
         result="offset"
         id="feOffset15055" />
      <feComposite
         in="offset"
         in2="SourceGraphic"
         operator="atop"
         result="composite2"
         id="feComposite15057" />
    </filter>
  </defs>
  <sodipodi:namedview
     id="namedview11"
     pagecolor="#505050"
     bordercolor="#eeeeee"
     borderopacity="1"
     inkscape:pageshadow="0"
     inkscape:pageopacity="0"
     inkscape:pagecheckerboard="0"
     showgrid="false"
     inkscape:zoom="0.40718283"
     inkscape:cx="-4.9117985"
     inkscape:cy="419.95877"
     inkscape:window-width="1716"
     inkscape:window-height="1386"
     inkscape:window-x="1440"
     inkscape:window-y="702"
     inkscape:window-maximized="1"
     inkscape:current-layer="svg9"
     inkscape:showpageshadow="2"
     inkscape:deskcolor="#505050" />
  <title
     id="title2" />
  <desc
     id="desc4" />
  <path
     d="M 0,0 H 512 V 512 H 0 Z"
     fill="#b90202"
     fill-opacity="1"
     id="path902"
     style="fill:#1b1f21;fill-opacity:0" />
  <g
     id="g14492"
     transform="matrix(0.42524899,0,0,0.42524899,0.87186845,-3.1363159)"
     style="fill:#ff0ec0;fill-opacity:1;filter:url(#filter15059)">
    <path
       d="m 412.5,168.75 c 0,-10.352 8.3984,-18.75 18.75,-18.75 h 337.5 c 10.352,0 18.75,8.3984 18.75,18.75 v 112.5 h 75 V 150 c 0,-41.418 -33.582,-75 -75,-75 h -375 c -41.418,0 -75,33.582 -75,75 v 131.25 h 75 z"
       id="path14478"
       style="fill:#ff0ec0;fill-opacity:1" />
    <path
       d="M 1068.8,318.75 H 131.3 v 225 h 937.5 z m -825,168.75 c -31.07,0 -56.25,-25.18 -56.25,-56.25 0,-31.07 25.18,-56.25 56.25,-56.25 31.07,0 56.25,25.18 56.25,56.25 0,31.07 -25.18,56.25 -56.25,56.25 z m 206.25,-18.75 c -20.719,0 -37.5,-16.781 -37.5,-37.5 0,-20.719 16.781,-37.5 37.5,-37.5 20.719,0 37.5,16.781 37.5,37.5 0,20.719 -16.781,37.5 -37.5,37.5 z m 150,0 c -20.719,0 -37.5,-16.781 -37.5,-37.5 0,-20.719 16.781,-37.5 37.5,-37.5 20.719,0 37.5,16.781 37.5,37.5 0,20.719 -16.781,37.5 -37.5,37.5 z m 150,0 c -20.719,0 -37.5,-16.781 -37.5,-37.5 0,-20.719 16.781,-37.5 37.5,-37.5 20.719,0 37.5,16.781 37.5,37.5 0,20.719 -16.781,37.5 -37.5,37.5 z m 262.5,18.75 H 900.05 V 375 h 112.5 z"
       id="path14480"
       style="fill:#ff0ec0;fill-opacity:1" />
    <path
       d="M 1068.8,581.25 H 697.1 c 96.879,38.605 165.45,133.09 165.45,243.75 0,110.66 -68.57,205.14 -165.45,243.75 h 371.7 z m -37.5,450 h -37.5 v -37.5 h 37.5 z m 0,-300 h -37.5 v -37.5 h 37.5 z"
       id="path14482"
       style="fill:#ff0ec0;fill-opacity:1" />
    <path
       d="m 1106.2,322.2 v 746.55 c 0,20.68 -16.82,37.5 -37.5,37.5 H 131.2 c -20.68,0 -37.5,-16.82 -37.5,-37.5 V 322.2 c -21.77,7.7617 -37.5,28.387 -37.5,52.801 v 712.5 c 0,31.012 25.238,56.25 56.25,56.25 h 975 c 31.012,0 56.25,-25.238 56.25,-56.25 v -712.5 c 0,-24.414 -15.73,-45.039 -37.5,-52.801 z"
       id="path14484"
       style="fill:#ff0ec0;fill-opacity:1" />
    <path
       d="m 337.5,825 c 0,-110.66 68.57,-205.14 165.45,-243.75 h -371.7 v 487.5 h 371.7 C 406.071,1030.145 337.5,935.66 337.5,825 Z m -131.25,206.25 h -37.5 v -37.5 h 37.5 z m 0,-300 h -37.5 v -37.5 h 37.5 z"
       id="path14486"
       style="fill:#ff0ec0;fill-opacity:1" />
    <path
       d="m 600,637.5 c -103.55,0 -187.5,83.945 -187.5,187.5 0,103.555 83.945,187.5 187.5,187.5 103.555,0 187.5,-83.945 187.5,-187.5 0,-103.555 -83.945,-187.5 -187.5,-187.5 z m 0,225 c -20.719,0 -37.5,-16.781 -37.5,-37.5 0,-20.719 16.781,-37.5 37.5,-37.5 20.719,0 37.5,16.781 37.5,37.5 0,20.719 -16.781,37.5 -37.5,37.5 z"
       id="path14490"
       style="fill:#ff0ec0;fill-opacity:1" />
  </g>
</svg>
