<?xml version="1.0" encoding="UTF-8" standalone="no"?>
<svg
   viewBox="0 0 512 512"
   style="height: 512px; width: 512px;"
   version="1.1"
   id="svg886"
   sodipodi:docname="econocompact.svg"
   inkscape:version="1.2.2 (b0a8486541, 2022-12-01)"
   xmlns:inkscape="http://www.inkscape.org/namespaces/inkscape"
   xmlns:sodipodi="http://sodipodi.sourceforge.net/DTD/sodipodi-0.dtd"
   xmlns="http://www.w3.org/2000/svg"
   xmlns:svg="http://www.w3.org/2000/svg">
  <sodipodi:namedview
     id="namedview888"
     pagecolor="#ffffff"
     bordercolor="#666666"
     borderopacity="1.0"
     inkscape:showpageshadow="2"
     inkscape:pageopacity="0.0"
     inkscape:pagecheckerboard="0"
     inkscape:deskcolor="#d1d1d1"
     showgrid="false"
     inkscape:zoom="1.84375"
     inkscape:cx="260.33898"
     inkscape:cy="237.55932"
     inkscape:window-width="1716"
     inkscape:window-height="1386"
     inkscape:window-x="1440"
     inkscape:window-y="702"
     inkscape:window-maximized="1"
     inkscape:current-layer="svg886" />
  <defs
     id="defs878">
    <filter
       id="shadow-1"
       height="1.1517236"
       width="1.1517246"
       x="-0.075862315"
       y="-0.075861805">
      <feFlood
         flood-color="rgba(58, 63, 94, 1)"
         result="flood"
         id="feFlood867" />
      <feComposite
         in="flood"
         in2="SourceGraphic"
         operator="out"
         result="composite"
         id="feComposite869" />
      <feGaussianBlur
         in="composite"
         stdDeviation="15"
         result="blur"
         id="feGaussianBlur871" />
      <feOffset
         dx="0"
         dy="0"
         result="offset"
         id="feOffset873" />
      <feComposite
         in2="SourceGraphic"
         in="offset"
         operator="atop"
         id="feComposite875" />
    </filter>
    <filter
       style="color-interpolation-filters:sRGB;"
       inkscape:label="Drop Shadow"
       id="filter2672"
       x="-0.036508511"
       y="-0.030096649"
       width="1.073017"
       height="1.0601933">
      <feFlood
         flood-opacity="1"
         flood-color="rgb(58,63,94)"
         result="flood"
         id="feFlood2662" />
      <feComposite
         in="flood"
         in2="SourceGraphic"
         operator="out"
         result="composite1"
         id="feComposite2664" />
      <feGaussianBlur
         in="composite1"
         stdDeviation="15"
         result="blur"
         id="feGaussianBlur2666" />
      <feOffset
         dx="0"
         dy="0"
         result="offset"
         id="feOffset2668" />
      <feComposite
         in="offset"
         in2="SourceGraphic"
         operator="atop"
         result="composite2"
         id="feComposite2670" />
    </filter>
    <filter
       style="color-interpolation-filters:sRGB;"
       inkscape:label="Drop Shadow"
       id="filter3258"
       x="-0.033333307"
       y="-0.036846098"
       width="1.0666666"
       height="1.0736922">
      <feFlood
         flood-opacity="1"
         flood-color="rgb(58,63,94)"
         result="flood"
         id="feFlood3248" />
      <feComposite
         in="flood"
         in2="SourceGraphic"
         operator="out"
         result="composite1"
         id="feComposite3250" />
      <feGaussianBlur
         in="composite1"
         stdDeviation="15"
         result="blur"
         id="feGaussianBlur3252" />
      <feOffset
         dx="0"
         dy="0"
         result="offset"
         id="feOffset3254" />
      <feComposite
         in="offset"
         in2="SourceGraphic"
         operator="atop"
         result="composite2"
         id="feComposite3256" />
    </filter>
    <filter
       style="color-interpolation-filters:sRGB;"
       inkscape:label="Drop Shadow"
       id="filter4517"
       x="-0.04755843"
       y="-0.048809898"
       width="1.0951169"
       height="1.0976198">
      <feFlood
         flood-opacity="1"
         flood-color="rgb(58,63,94)"
         result="flood"
         id="feFlood4507" />
      <feComposite
         in="flood"
         in2="SourceGraphic"
         operator="out"
         result="composite1"
         id="feComposite4509" />
      <feGaussianBlur
         in="composite1"
         stdDeviation="10"
         result="blur"
         id="feGaussianBlur4511" />
      <feOffset
         dx="0"
         dy="0"
         result="offset"
         id="feOffset4513" />
      <feComposite
         in="offset"
         in2="SourceGraphic"
         operator="atop"
         result="composite2"
         id="feComposite4515" />
    </filter>
    <filter
       style="color-interpolation-filters:sRGB;"
       inkscape:label="Drop Shadow"
       id="filter5154"
       x="-0.073142173"
       y="-0.051090164"
       width="1.1462843"
       height="1.1021803">
      <feFlood
         flood-opacity="1"
         flood-color="rgb(58,63,94)"
         result="flood"
         id="feFlood5144" />
      <feComposite
         in="flood"
         in2="SourceGraphic"
         operator="out"
         result="composite1"
         id="feComposite5146" />
      <feGaussianBlur
         in="composite1"
         stdDeviation="10"
         result="blur"
         id="feGaussianBlur5148" />
      <feOffset
         dx="0"
         dy="0"
         result="offset"
         id="feOffset5150" />
      <feComposite
         in="offset"
         in2="SourceGraphic"
         operator="atop"
         result="composite2"
         id="feComposite5152" />
    </filter>
    <filter
       style="color-interpolation-filters:sRGB;"
       inkscape:label="Drop Shadow"
       id="filter5778"
       x="-0.050442997"
       y="-0.092707304"
       width="1.100886"
       height="1.1854146">
      <feFlood
         flood-opacity="1"
         flood-color="rgb(58,63,94)"
         result="flood"
         id="feFlood5768" />
      <feComposite
         in="flood"
         in2="SourceGraphic"
         operator="out"
         result="composite1"
         id="feComposite5770" />
      <feGaussianBlur
         in="composite1"
         stdDeviation="10"
         result="blur"
         id="feGaussianBlur5772" />
      <feOffset
         dx="0"
         dy="0"
         result="offset"
         id="feOffset5774" />
      <feComposite
         in="offset"
         in2="SourceGraphic"
         operator="atop"
         result="composite2"
         id="feComposite5776" />
    </filter>
    <clipPath
       id="a">
      <path
         d="M 222.14,222.14 H 977.85 V 977.85 H 222.14 Z"
         id="path6679" />
    </clipPath>
    <clipPath
       id="a-5">
      <path
         d="M 222.14,222.14 H 977.85 V 977.85 H 222.14 Z"
         id="path6679-3" />
    </clipPath>
    <filter
       style="color-interpolation-filters:sRGB;"
       inkscape:label="Drop Shadow"
       id="filter8128"
       x="-0.024815066"
       y="-0.034133157"
       width="1.0496301"
       height="1.0682663">
      <feFlood
         flood-opacity="1"
         flood-color="rgb(58,63,94)"
         result="flood"
         id="feFlood8118" />
      <feComposite
         in="flood"
         in2="SourceGraphic"
         operator="out"
         result="composite1"
         id="feComposite8120" />
      <feGaussianBlur
         in="composite1"
         stdDeviation="8"
         result="blur"
         id="feGaussianBlur8122" />
      <feOffset
         dx="0"
         dy="0"
         result="offset"
         id="feOffset8124" />
      <feComposite
         in="offset"
         in2="SourceGraphic"
         operator="atop"
         result="composite2"
         id="feComposite8126" />
    </filter>
  </defs>
  <path
     d="M 0.35858051,-0.2092161 H 512.35858 V 511.79078 H 0.35858051 Z"
     fill="#1b1f21"
     fill-opacity="0"
     id="path880" />
  <g
     clip-path="url(#a-5)"
     id="g6686"
     transform="matrix(0.51260194,0,0,0.51260194,-62.643019,-31.742847)"
     style="fill:#ffffff" />
  <g
     id="g7525"
     transform="matrix(0.61019749,0,0,0.61019749,-25.82646,-133.00002)"
     style="fill:#ff0ec0;fill-opacity:1;filter:url(#filter8128)">
    <path
       d="m 692.68878,731.25 c -24.863,0 -48.711,9.8789 -66.293,27.457 -17.578,17.582 -27.457,41.43 -27.457,66.293 0,24.863 9.8789,48.711 27.457,66.293 17.582,17.578 41.43,27.457 66.293,27.457 24.863,0 48.711,-9.8789 66.293,-27.457 17.578,-17.582 27.457,-41.43 27.457,-66.293 -0.031,-24.855 -9.918,-48.684 -27.492,-66.258 -17.574,-17.574 -41.402,-27.461 -66.258,-27.492 z"
       id="path7503"
       style="fill:#ff0ec0;fill-opacity:1"
       sodipodi:nodetypes="ccscsccsc" />
    <path
       d="m 243.75,731.25 c -24.863,0 -48.711,9.8789 -66.293,27.457 C 159.879,776.289 150,800.137 150,825 c 0,24.863 9.8789,48.711 27.457,66.293 17.582,17.578 41.43,27.457 66.293,27.457 24.863,0 48.711,-9.8789 66.293,-27.457 C 327.621,873.711 337.5,849.863 337.5,825 337.46875,800.145 327.582,776.316 310.008,758.742 292.434,741.168 268.606,731.281 243.75,731.25 Z"
       id="path7505"
       style="fill:#ff0ec0;fill-opacity:1"
       sodipodi:nodetypes="ccscsccsc" />
    <path
       d="m 93.75,693.75 c 4.9727,0 9.7422,-1.9766 13.258,-5.4922 3.5156,-3.5156 5.4922,-8.2852 5.4922,-13.258 v -37.5 c 0,-4.9727 -1.9766,-9.7422 -5.4922,-13.258 -3.5156,-3.5156 -8.2852,-5.4922 -13.258,-5.4922 H 75 v 75 z"
       id="path7511"
       style="fill:#ff0ec0;fill-opacity:1" />
    <path
       d="M 467.4585,431.252 H 245.95061 l -55.26284,112.5 H 478.4485 l 56.25,-56.25 z"
       id="path7517"
       style="fill:#ff0ec0;fill-opacity:1"
       sodipodi:nodetypes="cccccc" />
    <path
       d="m 531.4705,543.75 h 59.477 l -29.738,-29.738 z"
       id="path7519"
       style="fill:#ff0ec0;fill-opacity:1"
       sodipodi:nodetypes="cccc" />
    <path
       d="M 748.93878,618.75 748.42401,577.69656 517.28713,357.26757 c 0,0 -25.54073,-0.89147 -68.57473,-1.02047 H 217.1319 l -128.57,225 h 5.1953 c 14.918,0 29.227,5.9258 39.773,16.477 10.551,10.547 16.477,24.855 16.477,39.773 v 3.75 l -1.0779,44.305 c 0,0 -9.3047,24.43 -19.375,32.77 -10.07,8.3398 -22.73,12.91 -35.805,12.926 h -18.75 v 75 h 39 c 6.0273,-41.973 31.988,-78.438 69.68,-97.871 37.688,-19.434 82.453,-19.434 120.14,0 37.691,19.434 63.652,55.898 69.68,97.871 h 189.43878 c 6.0273,-41.973 31.988,-78.438 69.68,-97.871 37.688,-19.434 82.453,-19.434 120.14,0 37.691,19.434 63.652,55.898 69.68,97.871 h 26.24704 v -93.75 h -5.99704 c -24.855,-0.0312 -48.684,-9.918 -66.258,-27.492 -17.574,-17.574 -27.461,-41.402 -27.492,-66.258 z M 431.25,656.25 h -37.5 v -37.5 h 37.5 z m 112.5,0 h -75 v -37.5 h 75 z m 139.96134,-75 -530.91634,-8.8867 81.08988,-175.8124 246.32676,-2.8008 z"
       id="path7521"
       style="fill:#ff0ec0;fill-opacity:1"
       sodipodi:nodetypes="ccccccscsccsccccccccccccccsccccccccccccccccc" />
    <path
       d="m 773.72282,594.70899 v 28.293 c 0,14.918 5.9258,29.227 16.477,39.773 10.547,10.551 24.855,16.477 39.773,16.477 h 18.75 z"
       id="path7523"
       style="fill:#ff0ec0;fill-opacity:1"
       sodipodi:nodetypes="cscscc" />
  </g>
</svg>
