<?xml version="1.0" encoding="UTF-8" standalone="no"?>
<svg
   viewBox="0 0 512 512"
   style="height: 512px; width: 512px;"
   version="1.1"
   id="svg886"
   sodipodi:docname="masetto-airrider.svg"
   inkscape:version="1.2.2 (b0a8486541, 2022-12-01)"
   xmlns:inkscape="http://www.inkscape.org/namespaces/inkscape"
   xmlns:sodipodi="http://sodipodi.sourceforge.net/DTD/sodipodi-0.dtd"
   xmlns="http://www.w3.org/2000/svg"
   xmlns:svg="http://www.w3.org/2000/svg">
  <sodipodi:namedview
     id="namedview888"
     pagecolor="#ffffff"
     bordercolor="#666666"
     borderopacity="1.0"
     inkscape:showpageshadow="2"
     inkscape:pageopacity="0.0"
     inkscape:pagecheckerboard="0"
     inkscape:deskcolor="#d1d1d1"
     showgrid="false"
     inkscape:zoom="0.65186406"
     inkscape:cx="191.75777"
     inkscape:cy="170.2809"
     inkscape:window-width="1716"
     inkscape:window-height="1386"
     inkscape:window-x="1440"
     inkscape:window-y="702"
     inkscape:window-maximized="1"
     inkscape:current-layer="svg886" />
  <defs
     id="defs878">
    <filter
       id="shadow-1"
       height="1.1517236"
       width="1.1517246"
       x="-0.075862315"
       y="-0.075861805">
      <feFlood
         flood-color="rgba(58, 63, 94, 1)"
         result="flood"
         id="feFlood867" />
      <feComposite
         in="flood"
         in2="SourceGraphic"
         operator="out"
         result="composite"
         id="feComposite869" />
      <feGaussianBlur
         in="composite"
         stdDeviation="15"
         result="blur"
         id="feGaussianBlur871" />
      <feOffset
         dx="0"
         dy="0"
         result="offset"
         id="feOffset873" />
      <feComposite
         in2="SourceGraphic"
         in="offset"
         operator="atop"
         id="feComposite875" />
    </filter>
    <filter
       style="color-interpolation-filters:sRGB;"
       inkscape:label="Drop Shadow"
       id="filter2672"
       x="-0.036508511"
       y="-0.030096649"
       width="1.073017"
       height="1.0601933">
      <feFlood
         flood-opacity="1"
         flood-color="rgb(58,63,94)"
         result="flood"
         id="feFlood2662" />
      <feComposite
         in="flood"
         in2="SourceGraphic"
         operator="out"
         result="composite1"
         id="feComposite2664" />
      <feGaussianBlur
         in="composite1"
         stdDeviation="15"
         result="blur"
         id="feGaussianBlur2666" />
      <feOffset
         dx="0"
         dy="0"
         result="offset"
         id="feOffset2668" />
      <feComposite
         in="offset"
         in2="SourceGraphic"
         operator="atop"
         result="composite2"
         id="feComposite2670" />
    </filter>
    <filter
       style="color-interpolation-filters:sRGB;"
       inkscape:label="Drop Shadow"
       id="filter3258"
       x="-0.033333307"
       y="-0.036846098"
       width="1.0666666"
       height="1.0736922">
      <feFlood
         flood-opacity="1"
         flood-color="rgb(58,63,94)"
         result="flood"
         id="feFlood3248" />
      <feComposite
         in="flood"
         in2="SourceGraphic"
         operator="out"
         result="composite1"
         id="feComposite3250" />
      <feGaussianBlur
         in="composite1"
         stdDeviation="15"
         result="blur"
         id="feGaussianBlur3252" />
      <feOffset
         dx="0"
         dy="0"
         result="offset"
         id="feOffset3254" />
      <feComposite
         in="offset"
         in2="SourceGraphic"
         operator="atop"
         result="composite2"
         id="feComposite3256" />
    </filter>
    <filter
       style="color-interpolation-filters:sRGB;"
       inkscape:label="Drop Shadow"
       id="filter4517"
       x="-0.04755843"
       y="-0.048809898"
       width="1.0951169"
       height="1.0976198">
      <feFlood
         flood-opacity="1"
         flood-color="rgb(58,63,94)"
         result="flood"
         id="feFlood4507" />
      <feComposite
         in="flood"
         in2="SourceGraphic"
         operator="out"
         result="composite1"
         id="feComposite4509" />
      <feGaussianBlur
         in="composite1"
         stdDeviation="10"
         result="blur"
         id="feGaussianBlur4511" />
      <feOffset
         dx="0"
         dy="0"
         result="offset"
         id="feOffset4513" />
      <feComposite
         in="offset"
         in2="SourceGraphic"
         operator="atop"
         result="composite2"
         id="feComposite4515" />
    </filter>
    <filter
       style="color-interpolation-filters:sRGB;"
       inkscape:label="Drop Shadow"
       id="filter5154"
       x="-0.073142173"
       y="-0.051090164"
       width="1.1462843"
       height="1.1021803">
      <feFlood
         flood-opacity="1"
         flood-color="rgb(58,63,94)"
         result="flood"
         id="feFlood5144" />
      <feComposite
         in="flood"
         in2="SourceGraphic"
         operator="out"
         result="composite1"
         id="feComposite5146" />
      <feGaussianBlur
         in="composite1"
         stdDeviation="10"
         result="blur"
         id="feGaussianBlur5148" />
      <feOffset
         dx="0"
         dy="0"
         result="offset"
         id="feOffset5150" />
      <feComposite
         in="offset"
         in2="SourceGraphic"
         operator="atop"
         result="composite2"
         id="feComposite5152" />
    </filter>
    <filter
       style="color-interpolation-filters:sRGB;"
       inkscape:label="Drop Shadow"
       id="filter5778"
       x="-0.050442997"
       y="-0.092707304"
       width="1.100886"
       height="1.1854146">
      <feFlood
         flood-opacity="1"
         flood-color="rgb(58,63,94)"
         result="flood"
         id="feFlood5768" />
      <feComposite
         in="flood"
         in2="SourceGraphic"
         operator="out"
         result="composite1"
         id="feComposite5770" />
      <feGaussianBlur
         in="composite1"
         stdDeviation="10"
         result="blur"
         id="feGaussianBlur5772" />
      <feOffset
         dx="0"
         dy="0"
         result="offset"
         id="feOffset5774" />
      <feComposite
         in="offset"
         in2="SourceGraphic"
         operator="atop"
         result="composite2"
         id="feComposite5776" />
    </filter>
    <clipPath
       id="a">
      <path
         d="M 222.14,222.14 H 977.85 V 977.85 H 222.14 Z"
         id="path6679" />
    </clipPath>
    <clipPath
       id="a-5">
      <path
         d="M 222.14,222.14 H 977.85 V 977.85 H 222.14 Z"
         id="path6679-3" />
    </clipPath>
    <filter
       style="color-interpolation-filters:sRGB;"
       inkscape:label="Drop Shadow"
       id="filter8128"
       x="-0.51199727"
       y="-0.25599863"
       width="2.0239945"
       height="1.5119973">
      <feFlood
         flood-opacity="1"
         flood-color="rgb(58,63,94)"
         result="flood"
         id="feFlood8118" />
      <feComposite
         in="flood"
         in2="SourceGraphic"
         operator="out"
         result="composite1"
         id="feComposite8120" />
      <feGaussianBlur
         in="composite1"
         stdDeviation="8"
         result="blur"
         id="feGaussianBlur8122" />
      <feOffset
         dx="0"
         dy="0"
         result="offset"
         id="feOffset8124" />
      <feComposite
         in="offset"
         in2="SourceGraphic"
         operator="atop"
         result="composite2"
         id="feComposite8126" />
    </filter>
    <filter
       style="color-interpolation-filters:sRGB;"
       inkscape:label="Drop Shadow"
       id="filter21595"
       x="-0.038264996"
       y="-0.082038655"
       width="1.07653"
       height="1.1640773">
      <feFlood
         flood-opacity="1"
         flood-color="rgb(58,63,94)"
         result="flood"
         id="feFlood21585" />
      <feComposite
         in="flood"
         in2="SourceGraphic"
         operator="out"
         result="composite1"
         id="feComposite21587" />
      <feGaussianBlur
         in="composite1"
         stdDeviation="15"
         result="blur"
         id="feGaussianBlur21589" />
      <feOffset
         dx="0"
         dy="0"
         result="offset"
         id="feOffset21591" />
      <feComposite
         in="offset"
         in2="SourceGraphic"
         operator="atop"
         result="composite2"
         id="feComposite21593" />
    </filter>
    <filter
       style="color-interpolation-filters:sRGB;"
       inkscape:label="Drop Shadow"
       id="filter22425"
       x="-0.049589307"
       y="-0.17253584"
       width="1.0991786"
       height="1.3450717">
      <feFlood
         flood-opacity="1"
         flood-color="rgb(58,63,94)"
         result="flood"
         id="feFlood22415" />
      <feComposite
         in="flood"
         in2="SourceGraphic"
         operator="out"
         result="composite1"
         id="feComposite22417" />
      <feGaussianBlur
         in="composite1"
         stdDeviation="10"
         result="blur"
         id="feGaussianBlur22419" />
      <feOffset
         dx="0"
         dy="0"
         result="offset"
         id="feOffset22421" />
      <feComposite
         in="offset"
         in2="SourceGraphic"
         operator="atop"
         result="composite2"
         id="feComposite22423" />
    </filter>
    <filter
       style="color-interpolation-filters:sRGB;"
       inkscape:label="Drop Shadow"
       id="filter23083"
       x="-0.020949753"
       y="-0.075512709"
       width="1.0418995"
       height="1.1510254">
      <feFlood
         flood-opacity="1"
         flood-color="rgb(58,63,94)"
         result="flood"
         id="feFlood23073" />
      <feComposite
         in="flood"
         in2="SourceGraphic"
         operator="out"
         result="composite1"
         id="feComposite23075" />
      <feGaussianBlur
         in="composite1"
         stdDeviation="10"
         result="blur"
         id="feGaussianBlur23077" />
      <feOffset
         dx="0"
         dy="0"
         result="offset"
         id="feOffset23079" />
      <feComposite
         in="offset"
         in2="SourceGraphic"
         operator="atop"
         result="composite2"
         id="feComposite23081" />
    </filter>
    <filter
       style="color-interpolation-filters:sRGB;"
       inkscape:label="Drop Shadow"
       id="filter23920"
       x="-0.031832381"
       y="-0.083470149"
       width="1.0636648"
       height="1.1669403">
      <feFlood
         flood-opacity="1"
         flood-color="rgb(58,63,94)"
         result="flood"
         id="feFlood23910" />
      <feComposite
         in="flood"
         in2="SourceGraphic"
         operator="out"
         result="composite1"
         id="feComposite23912" />
      <feGaussianBlur
         in="composite1"
         stdDeviation="15"
         result="blur"
         id="feGaussianBlur23914" />
      <feOffset
         dx="0"
         dy="0"
         result="offset"
         id="feOffset23916" />
      <feComposite
         in="offset"
         in2="SourceGraphic"
         operator="atop"
         result="composite2"
         id="feComposite23918" />
    </filter>
    <filter
       style="color-interpolation-filters:sRGB;"
       inkscape:label="Drop Shadow"
       id="filter25184"
       x="-0.055640592"
       y="-0.10045407"
       width="1.1112812"
       height="1.2009081">
      <feFlood
         flood-opacity="1"
         flood-color="rgb(58,63,94)"
         result="flood"
         id="feFlood25174" />
      <feComposite
         in="flood"
         in2="SourceGraphic"
         operator="out"
         result="composite1"
         id="feComposite25176" />
      <feGaussianBlur
         in="composite1"
         stdDeviation="5"
         result="blur"
         id="feGaussianBlur25178" />
      <feOffset
         dx="0"
         dy="0"
         result="offset"
         id="feOffset25180" />
      <feComposite
         in="offset"
         in2="SourceGraphic"
         operator="atop"
         result="composite2"
         id="feComposite25182" />
    </filter>
    <filter
       style="color-interpolation-filters:sRGB;"
       inkscape:label="Drop Shadow"
       id="filter25884"
       x="-0.026230522"
       y="-0.048319459"
       width="1.052461"
       height="1.0966389">
      <feFlood
         flood-opacity="1"
         flood-color="rgb(58,63,94)"
         result="flood"
         id="feFlood25874" />
      <feComposite
         in="flood"
         in2="SourceGraphic"
         operator="out"
         result="composite1"
         id="feComposite25876" />
      <feGaussianBlur
         in="composite1"
         stdDeviation="15"
         result="blur"
         id="feGaussianBlur25878" />
      <feOffset
         dx="0"
         dy="0"
         result="offset"
         id="feOffset25880" />
      <feComposite
         in="offset"
         in2="SourceGraphic"
         operator="atop"
         result="composite2"
         id="feComposite25882" />
    </filter>
    <filter
       style="color-interpolation-filters:sRGB;"
       inkscape:label="Drop Shadow"
       id="filter26006"
       x="-0.03497403"
       y="-0.064425946"
       width="1.0699481"
       height="1.1288519">
      <feFlood
         flood-opacity="1"
         flood-color="rgb(58,63,94)"
         result="flood"
         id="feFlood25996" />
      <feComposite
         in="flood"
         in2="SourceGraphic"
         operator="out"
         result="composite1"
         id="feComposite25998" />
      <feGaussianBlur
         in="composite1"
         stdDeviation="20"
         result="blur"
         id="feGaussianBlur26000" />
      <feOffset
         dx="0"
         dy="0"
         result="offset"
         id="feOffset26002" />
      <feComposite
         in="offset"
         in2="SourceGraphic"
         operator="atop"
         result="composite2"
         id="feComposite26004" />
    </filter>
    <filter
       style="color-interpolation-filters:sRGB;"
       inkscape:label="Drop Shadow"
       id="filter26884"
       x="-0.049167793"
       y="-0.0961647"
       width="1.0983356"
       height="1.1923294">
      <feFlood
         flood-opacity="1"
         flood-color="rgb(58,63,94)"
         result="flood"
         id="feFlood26874" />
      <feComposite
         in="flood"
         in2="SourceGraphic"
         operator="out"
         result="composite1"
         id="feComposite26876" />
      <feGaussianBlur
         in="composite1"
         stdDeviation="10"
         result="blur"
         id="feGaussianBlur26878" />
      <feOffset
         dx="0"
         dy="0"
         result="offset"
         id="feOffset26880" />
      <feComposite
         in="offset"
         in2="SourceGraphic"
         operator="atop"
         result="composite2"
         id="feComposite26882" />
    </filter>
    <filter
       style="color-interpolation-filters:sRGB;"
       inkscape:label="Drop Shadow"
       id="filter28331"
       x="-0.035714286"
       y="-0.062498937"
       width="1.0714286"
       height="1.1249979">
      <feFlood
         flood-opacity="1"
         flood-color="rgb(58,63,94)"
         result="flood"
         id="feFlood28321" />
      <feComposite
         in="flood"
         in2="SourceGraphic"
         operator="out"
         result="composite1"
         id="feComposite28323" />
      <feGaussianBlur
         in="composite1"
         stdDeviation="15"
         result="blur"
         id="feGaussianBlur28325" />
      <feOffset
         dx="0"
         dy="0"
         result="offset"
         id="feOffset28327" />
      <feComposite
         in="offset"
         in2="SourceGraphic"
         operator="atop"
         result="composite2"
         id="feComposite28329" />
    </filter>
    <filter
       style="color-interpolation-filters:sRGB;"
       inkscape:label="Drop Shadow"
       id="filter29185"
       x="-0.029993568"
       y="-0.03168847"
       width="1.0599871"
       height="1.0633769">
      <feFlood
         flood-opacity="1"
         flood-color="rgb(58,63,94)"
         result="flood"
         id="feFlood29175" />
      <feComposite
         in="flood"
         in2="SourceGraphic"
         operator="out"
         result="composite1"
         id="feComposite29177" />
      <feGaussianBlur
         in="composite1"
         stdDeviation="15"
         result="blur"
         id="feGaussianBlur29179" />
      <feOffset
         dx="0"
         dy="0"
         result="offset"
         id="feOffset29181" />
      <feComposite
         in="offset"
         in2="SourceGraphic"
         operator="atop"
         result="composite2"
         id="feComposite29183" />
    </filter>
    <filter
       style="color-interpolation-filters:sRGB;"
       inkscape:label="Drop Shadow"
       id="filter31653"
       x="-0.073537733"
       y="-0.086041797"
       width="1.1470755"
       height="1.1720836">
      <feFlood
         flood-opacity="1"
         flood-color="rgb(58,63,94)"
         result="flood"
         id="feFlood31643" />
      <feComposite
         in="flood"
         in2="SourceGraphic"
         operator="out"
         result="composite1"
         id="feComposite31645" />
      <feGaussianBlur
         in="composite1"
         stdDeviation="15"
         result="blur"
         id="feGaussianBlur31647" />
      <feOffset
         dx="0"
         dy="0"
         result="offset"
         id="feOffset31649" />
      <feComposite
         in="offset"
         in2="SourceGraphic"
         operator="atop"
         result="composite2"
         id="feComposite31651" />
    </filter>
    <filter
       style="color-interpolation-filters:sRGB;"
       inkscape:label="Drop Shadow"
       id="filter32314"
       x="-0.10137337"
       y="-0.080397887"
       width="1.2027467"
       height="1.1607958">
      <feFlood
         flood-opacity="1"
         flood-color="rgb(58,63,94)"
         result="flood"
         id="feFlood32304" />
      <feComposite
         in="flood"
         in2="SourceGraphic"
         operator="out"
         result="composite1"
         id="feComposite32306" />
      <feGaussianBlur
         in="composite1"
         stdDeviation="15"
         result="blur"
         id="feGaussianBlur32308" />
      <feOffset
         dx="0"
         dy="0"
         result="offset"
         id="feOffset32310" />
      <feComposite
         in="offset"
         in2="SourceGraphic"
         operator="atop"
         result="composite2"
         id="feComposite32312" />
    </filter>
    <filter
       style="color-interpolation-filters:sRGB;"
       inkscape:label="Drop Shadow"
       id="filter33129"
       x="-0.035645001"
       y="-0.029086551"
       width="1.07129"
       height="1.0581731">
      <feFlood
         flood-opacity="1"
         flood-color="rgb(58,63,94)"
         result="flood"
         id="feFlood33119" />
      <feComposite
         in="flood"
         in2="SourceGraphic"
         operator="out"
         result="composite1"
         id="feComposite33121" />
      <feGaussianBlur
         in="composite1"
         stdDeviation="10"
         result="blur"
         id="feGaussianBlur33123" />
      <feOffset
         dx="0"
         dy="0"
         result="offset"
         id="feOffset33125" />
      <feComposite
         in="offset"
         in2="SourceGraphic"
         operator="atop"
         result="composite2"
         id="feComposite33127" />
    </filter>
    <filter
       style="color-interpolation-filters:sRGB;"
       inkscape:label="Drop Shadow"
       id="filter34106"
       x="-0.030829709"
       y="-0.02651163"
       width="1.0616594"
       height="1.0530233">
      <feFlood
         flood-opacity="1"
         flood-color="rgb(58,63,94)"
         result="flood"
         id="feFlood34096" />
      <feComposite
         in="flood"
         in2="SourceGraphic"
         operator="out"
         result="composite1"
         id="feComposite34098" />
      <feGaussianBlur
         in="composite1"
         stdDeviation="10"
         result="blur"
         id="feGaussianBlur34100" />
      <feOffset
         dx="0"
         dy="0"
         result="offset"
         id="feOffset34102" />
      <feComposite
         in="offset"
         in2="SourceGraphic"
         operator="atop"
         result="composite2"
         id="feComposite34104" />
    </filter>
    <filter
       style="color-interpolation-filters:sRGB;"
       inkscape:label="Drop Shadow"
       id="filter34130"
       x="-0.046244563"
       y="-0.039767446"
       width="1.0924891"
       height="1.0795349">
      <feFlood
         flood-opacity="1"
         flood-color="rgb(58,63,94)"
         result="flood"
         id="feFlood34120" />
      <feComposite
         in="flood"
         in2="SourceGraphic"
         operator="out"
         result="composite1"
         id="feComposite34122" />
      <feGaussianBlur
         in="composite1"
         stdDeviation="15"
         result="blur"
         id="feGaussianBlur34124" />
      <feOffset
         dx="0"
         dy="0"
         result="offset"
         id="feOffset34126" />
      <feComposite
         in="offset"
         in2="SourceGraphic"
         operator="atop"
         result="composite2"
         id="feComposite34128" />
    </filter>
    <filter
       style="color-interpolation-filters:sRGB;"
       inkscape:label="Drop Shadow"
       id="filter35001"
       x="-0.053365432"
       y="-0.033333225"
       width="1.1067309"
       height="1.0666665">
      <feFlood
         flood-opacity="1"
         flood-color="rgb(58,63,94)"
         result="flood"
         id="feFlood34991" />
      <feComposite
         in="flood"
         in2="SourceGraphic"
         operator="out"
         result="composite1"
         id="feComposite34993" />
      <feGaussianBlur
         in="composite1"
         stdDeviation="15"
         result="blur"
         id="feGaussianBlur34995" />
      <feOffset
         dx="0"
         dy="0"
         result="offset"
         id="feOffset34997" />
      <feComposite
         in="offset"
         in2="SourceGraphic"
         operator="atop"
         result="composite2"
         id="feComposite34999" />
    </filter>
    <filter
       style="color-interpolation-filters:sRGB;"
       inkscape:label="Drop Shadow"
       id="filter36203"
       x="-0.03092377"
       y="-0.039257549"
       width="1.0618475"
       height="1.0785151">
      <feFlood
         flood-opacity="1"
         flood-color="rgb(58,63,94)"
         result="flood"
         id="feFlood36193" />
      <feComposite
         in="flood"
         in2="SourceGraphic"
         operator="out"
         result="composite1"
         id="feComposite36195" />
      <feGaussianBlur
         in="composite1"
         stdDeviation="15"
         result="blur"
         id="feGaussianBlur36197" />
      <feOffset
         dx="0"
         dy="0"
         result="offset"
         id="feOffset36199" />
      <feComposite
         in="offset"
         in2="SourceGraphic"
         operator="atop"
         result="composite2"
         id="feComposite36201" />
    </filter>
  </defs>
  <path
     d="M 0.35858051,-0.2092161 H 512.35858 V 511.79078 H 0.35858051 Z"
     fill="#1b1f21"
     fill-opacity="0"
     id="path880" />
  <g
     clip-path="url(#a-5)"
     id="g6686"
     transform="matrix(0.51260194,0,0,0.51260194,-62.643019,-31.742847)"
     style="fill:#ffffff" />
  <g
     id="g35666"
     transform="matrix(0.41443476,0,0,0.41443476,7.9981782,8.5305025)"
     style="fill:#ff0ec0;fill-opacity:1;filter:url(#filter36203)">
    <path
       d="m 1162.7,697.85 c -3.2344,-21.02 -19.402,-50.125 -30.719,-77.609 -11.32,-27.488 -80.844,-139.05 -90.543,-156.84 -9.6992,-17.785 -63.059,-121.27 -63.059,-121.27 l -10.926,-15.527 c 4.8633,-3.9805 6.5703,-11.879 6.5703,-11.879 l -5.75,-10.172 -17.25,-23.887 c 0,0 -28.309,-25.656 -33.617,-26.98 -5.3086,-1.3281 -15.039,-18.133 -22.559,-18.133 -7.5195,0 -14.156,-3.9805 -20.348,-7.9609 -6.1914,-3.9805 -9.9375,-2.5664 -18.133,-4.4219 -14.332,-3.2461 -17.562,4.3477 -28.074,3.7539 -4.9805,7.6367 -14.277,23.582 -24.098,49.164 -13.355,34.797 -30.402,94.969 -35.77,184.01 -5.4062,89.676 -13.402,389.44 -10.586,565.88 30.359,-1.4102 55.895,-3.082 63.707,-4.7578 22.637,-4.8516 25.871,0 30.719,-11.32 4.8516,-11.32 8.082,-54.973 6.4688,-63.059 -1.6172,-8.0859 -9.6992,-40.422 -6.4688,-61.441 3.2344,-21.02 -3.2344,-74.375 -3.2344,-108.33 v -108.33 c 0,-14.551 6.4688,-37.188 14.551,-63.059 8.0822,-25.871 4.8516,-80.844 17.785,-80.844 12.9334,0 9.6992,25.871 12.934,33.957 3.2344,8.082 19.402,11.32 29.105,25.871 9.6992,14.551 38.805,46.891 46.891,56.59 8.082,9.6992 16.168,30.719 19.402,46.891 3.2344,16.168 17.785,50.125 30.719,84.078 12.938,33.957 16.168,67.906 17.785,84.078 1.6172,16.168 11.32,116.41 11.32,134.2 0,17.785 3.2344,45.273 45.273,61.441 42.039,16.168 66.293,-25.871 66.293,-30.719 0,-4.8516 9.6992,-30.719 9.6992,-43.656 0,-12.937 8.0859,-38.805 8.0859,-61.441 0,-22.636 1.6133,-69.527 1.6133,-103.48 0,-33.961 -14.555,-93.785 -17.789,-114.8 z m -52.805,337.72 c -17.137,0 -42.57,-21.57 -42.57,-27.734 0,-6.1641 8.9609,-31.844 39.211,-24.652 30.246,7.1914 36.969,19.516 36.969,24.652 0,5.1367 -1.1211,27.734 -33.609,27.734 z"
       id="path35662"
       style="fill:#ff0ec0;fill-opacity:1" />
    <path
       d="m 782.16,226.06 -13.191,-5.0547 -25.852,-13.629 c -8.9219,-0.40234 -17.672,1.4062 -20.211,0.5625 -4.8516,-1.6172 -11.32,-6.4688 -12.938,-17.785 -1.6133,-11.32 -24.254,-16.168 -24.254,-16.168 0,0 -9.6992,-21.02 -14.551,-25.871 -4.8516,-4.8516 -43.656,-9.5 -72.758,-9.5 -29.102,0 -67.906,4.6484 -72.758,9.5 -4.8516,4.8516 -14.551,25.871 -14.551,25.871 0,0 -22.637,4.8516 -24.254,16.168 -1.6133,11.32 -8.082,16.168 -12.938,17.785 -4.8516,1.6172 -32.336,-6.4688 -40.422,9.6992 l -16.57,9.8906 c 0,0 -0.19141,-8.7812 -11.688,-7.8945 -11.5,0.88672 -53.965,3.5391 -62.367,3.5391 -8.4062,0 -11.941,0.44141 -18.137,4.4219 l -42.906,26.098 c -5.3086,1.3281 -33.617,26.98 -33.617,26.98 l -19.652,23.887 -5.75,14.973 c 0,0 1.7031,3.0977 6.5703,7.0781 l -10.926,15.527 c 0,0 -53.355,103.48 -63.059,121.27 -9.6992,17.785 -79.227,129.35 -90.543,156.84 -11.32,27.488 -27.488,56.59 -30.719,77.609 -3.2344,21.02 -17.785,80.844 -17.785,114.8 0,33.957 1.6172,80.844 1.6172,103.48 0,22.637 8.082,48.508 8.082,61.441 0,12.938 9.6992,38.805 9.6992,43.656 0,4.8516 24.254,46.891 66.293,30.719 42.039,-16.168 45.27,-43.656 45.27,-61.441 0,-17.785 9.6992,-118.03 11.32,-134.2 1.6172,-16.168 4.8516,-50.125 17.785,-84.078 12.938,-33.957 27.488,-67.906 30.719,-84.078 3.2344,-16.168 11.32,-37.188 19.402,-46.891 8.082,-9.6992 37.188,-42.039 46.891,-56.59 9.6992,-14.551 25.871,-17.785 29.105,-25.871 3.2344,-8.082 0,-33.957 12.938,-33.957 12.938,0 9.6992,54.973 17.785,80.844 8.0859,25.871 14.551,48.508 14.551,63.059 v 108.33 c 0,33.957 -6.4688,87.312 -3.2344,108.33 3.2344,21.02 -4.8516,53.355 -6.4688,61.441 -1.6172,8.082 1.6172,51.738 6.4688,63.059 4.8516,11.32 8.082,6.4688 30.719,11.32 22.637,4.8516 194.03,9.6992 200.49,8.082 6.4688,-1.6172 20.211,6.4688 18.594,-17.785 -1.617,-24.2538 -0.80859,-510.93 -0.80859,-528.72 0,-17.79 -2.9141,-143.5 -2.9141,-143.5 0,0 -38.25,-7.6523 -49.18,-10.93 -10.93,-3.2773 -15.086,-15.965 -15.086,-24.707 0,-8.742 3.2773,-33.004 4.3711,-39.559 1.0938,-6.5586 11.688,-16.148 18.793,-13.117 33.898,14.48 27.328,0.58984 27.328,0.58984 -15.023,-13.242 -36.047,-26.859 -41.52,-32.332 -8.082,-8.082 -7.7383,-43.398 -2.0195,-49.113 13.34,-13.34 41.836,-16.371 65.078,-16.371 23.242,0 51.742,3.0352 65.082,16.371 5.7188,5.7188 6.0625,41.027 -2.0195,49.113 -8.0859,8.0859 -39.211,49.031 -56.59,50.125 -31.672,1.9883 -41.555,-0.89453 -48.113,-5.2695 -6.5586,-4.3711 -12.023,3.2773 -12.023,3.2773 0,0 -6.3047,27.359 -7.3984,32.824 -1.0938,5.4648 5.2109,13.078 17.234,18.543 12.023,5.4648 50.301,4.7852 50.301,4.7852 0,0 -1.6172,141.48 -1.6172,159.26 0,17.785 0.80859,504.46 -0.80859,528.71996 -1.6172,24.254 12.129,16.168 18.594,17.785 2.1367,0.5352 22.297,0.3633 49.141,-0.2812 l 29.094,-0.8086 c 9.6523,-0.3008 10.355,-1.6133 20.223,-1.9883 -2.8555,-177.04 4.8281,-475.31 10.262,-565.48 7.668,-127.25 52.395,-234.69 52.395,-234.69 z m -695.41,810.5 c -33.688,0 -34.852,-23.434 -34.852,-28.758 0,-5.3242 6.9688,-18.109 38.336,-25.566 31.367,-7.457 40.66,19.172 40.66,25.566 0,6.3906 -26.371,28.758 -44.145,28.758 z"
       id="path35664"
       style="fill:#ff0ec0;fill-opacity:1" />
  </g>
</svg>
