<?xml version="1.0" encoding="UTF-8" standalone="no"?>
<svg
   viewBox="0 0 512 512"
   style="height: 512px; width: 512px;"
   version="1.1"
   id="svg886"
   sodipodi:docname="megahauler.svg"
   inkscape:version="1.2.2 (b0a8486541, 2022-12-01)"
   xmlns:inkscape="http://www.inkscape.org/namespaces/inkscape"
   xmlns:sodipodi="http://sodipodi.sourceforge.net/DTD/sodipodi-0.dtd"
   xmlns="http://www.w3.org/2000/svg"
   xmlns:svg="http://www.w3.org/2000/svg">
  <sodipodi:namedview
     id="namedview888"
     pagecolor="#ffffff"
     bordercolor="#666666"
     borderopacity="1.0"
     inkscape:showpageshadow="2"
     inkscape:pageopacity="0.0"
     inkscape:pagecheckerboard="0"
     inkscape:deskcolor="#d1d1d1"
     showgrid="false"
     inkscape:zoom="1.84375"
     inkscape:cx="253.83051"
     inkscape:cy="272.27119"
     inkscape:window-width="1716"
     inkscape:window-height="1386"
     inkscape:window-x="1440"
     inkscape:window-y="702"
     inkscape:window-maximized="1"
     inkscape:current-layer="svg886" />
  <defs
     id="defs878">
    <filter
       id="shadow-1"
       height="1.1517236"
       width="1.1517246"
       x="-0.075862315"
       y="-0.075861805">
      <feFlood
         flood-color="rgba(58, 63, 94, 1)"
         result="flood"
         id="feFlood867" />
      <feComposite
         in="flood"
         in2="SourceGraphic"
         operator="out"
         result="composite"
         id="feComposite869" />
      <feGaussianBlur
         in="composite"
         stdDeviation="15"
         result="blur"
         id="feGaussianBlur871" />
      <feOffset
         dx="0"
         dy="0"
         result="offset"
         id="feOffset873" />
      <feComposite
         in2="SourceGraphic"
         in="offset"
         operator="atop"
         id="feComposite875" />
    </filter>
    <filter
       style="color-interpolation-filters:sRGB;"
       inkscape:label="Drop Shadow"
       id="filter2672"
       x="-0.036508511"
       y="-0.030096649"
       width="1.073017"
       height="1.0601933">
      <feFlood
         flood-opacity="1"
         flood-color="rgb(58,63,94)"
         result="flood"
         id="feFlood2662" />
      <feComposite
         in="flood"
         in2="SourceGraphic"
         operator="out"
         result="composite1"
         id="feComposite2664" />
      <feGaussianBlur
         in="composite1"
         stdDeviation="15"
         result="blur"
         id="feGaussianBlur2666" />
      <feOffset
         dx="0"
         dy="0"
         result="offset"
         id="feOffset2668" />
      <feComposite
         in="offset"
         in2="SourceGraphic"
         operator="atop"
         result="composite2"
         id="feComposite2670" />
    </filter>
    <filter
       style="color-interpolation-filters:sRGB;"
       inkscape:label="Drop Shadow"
       id="filter3258"
       x="-0.033333307"
       y="-0.036846098"
       width="1.0666666"
       height="1.0736922">
      <feFlood
         flood-opacity="1"
         flood-color="rgb(58,63,94)"
         result="flood"
         id="feFlood3248" />
      <feComposite
         in="flood"
         in2="SourceGraphic"
         operator="out"
         result="composite1"
         id="feComposite3250" />
      <feGaussianBlur
         in="composite1"
         stdDeviation="15"
         result="blur"
         id="feGaussianBlur3252" />
      <feOffset
         dx="0"
         dy="0"
         result="offset"
         id="feOffset3254" />
      <feComposite
         in="offset"
         in2="SourceGraphic"
         operator="atop"
         result="composite2"
         id="feComposite3256" />
    </filter>
    <filter
       style="color-interpolation-filters:sRGB;"
       inkscape:label="Drop Shadow"
       id="filter4517"
       x="-0.04755843"
       y="-0.048809898"
       width="1.0951169"
       height="1.0976198">
      <feFlood
         flood-opacity="1"
         flood-color="rgb(58,63,94)"
         result="flood"
         id="feFlood4507" />
      <feComposite
         in="flood"
         in2="SourceGraphic"
         operator="out"
         result="composite1"
         id="feComposite4509" />
      <feGaussianBlur
         in="composite1"
         stdDeviation="10"
         result="blur"
         id="feGaussianBlur4511" />
      <feOffset
         dx="0"
         dy="0"
         result="offset"
         id="feOffset4513" />
      <feComposite
         in="offset"
         in2="SourceGraphic"
         operator="atop"
         result="composite2"
         id="feComposite4515" />
    </filter>
    <filter
       style="color-interpolation-filters:sRGB;"
       inkscape:label="Drop Shadow"
       id="filter5154"
       x="-0.073142173"
       y="-0.051090164"
       width="1.1462843"
       height="1.1021803">
      <feFlood
         flood-opacity="1"
         flood-color="rgb(58,63,94)"
         result="flood"
         id="feFlood5144" />
      <feComposite
         in="flood"
         in2="SourceGraphic"
         operator="out"
         result="composite1"
         id="feComposite5146" />
      <feGaussianBlur
         in="composite1"
         stdDeviation="10"
         result="blur"
         id="feGaussianBlur5148" />
      <feOffset
         dx="0"
         dy="0"
         result="offset"
         id="feOffset5150" />
      <feComposite
         in="offset"
         in2="SourceGraphic"
         operator="atop"
         result="composite2"
         id="feComposite5152" />
    </filter>
    <filter
       style="color-interpolation-filters:sRGB;"
       inkscape:label="Drop Shadow"
       id="filter5778"
       x="-0.050442997"
       y="-0.092707304"
       width="1.100886"
       height="1.1854146">
      <feFlood
         flood-opacity="1"
         flood-color="rgb(58,63,94)"
         result="flood"
         id="feFlood5768" />
      <feComposite
         in="flood"
         in2="SourceGraphic"
         operator="out"
         result="composite1"
         id="feComposite5770" />
      <feGaussianBlur
         in="composite1"
         stdDeviation="10"
         result="blur"
         id="feGaussianBlur5772" />
      <feOffset
         dx="0"
         dy="0"
         result="offset"
         id="feOffset5774" />
      <feComposite
         in="offset"
         in2="SourceGraphic"
         operator="atop"
         result="composite2"
         id="feComposite5776" />
    </filter>
    <filter
       style="color-interpolation-filters:sRGB;"
       inkscape:label="Drop Shadow"
       id="filter50616"
       x="-0.048313625"
       y="-0.11201641"
       width="1.0966273"
       height="1.2240328">
      <feFlood
         flood-opacity="1"
         flood-color="rgb(58,63,94)"
         result="flood"
         id="feFlood50606" />
      <feComposite
         in="flood"
         in2="SourceGraphic"
         operator="out"
         result="composite1"
         id="feComposite50608" />
      <feGaussianBlur
         in="composite1"
         stdDeviation="10"
         result="blur"
         id="feGaussianBlur50610" />
      <feOffset
         dx="0"
         dy="0"
         result="offset"
         id="feOffset50612" />
      <feComposite
         in="offset"
         in2="SourceGraphic"
         operator="atop"
         result="composite2"
         id="feComposite50614" />
    </filter>
  </defs>
  <path
     d="M0 0h512v512H0z"
     fill="#1b1f21"
     fill-opacity="0"
     id="path880" />
  <g
     id="g50592"
     style="filter:url(#filter50616)">
    <g
       id="g5901"
       transform="matrix(0.71248987,0,0,0.71248987,-457.0692,-138.48185)"
       style="fill:#ff0ec0;fill-opacity:1;stroke:none;stroke-opacity:1">
      <path
         d="M 653.09412,450.8 H 855.615 v 170.93 c 0,8.5078 -6.8867,15.395 -15.395,15.395 l -187.14033,0 c 0,0 0.0145,-139.04711 0.0145,-186.325 z"
         id="path5887"
         style="fill:#ff0ec0;fill-opacity:1;stroke:none;stroke-opacity:1"
         sodipodi:nodetypes="ccsscc" />
      <path
         d="m 855.62,649.99 -202.74917,0.49814 -0.13063,51.52544 c 0,0 5.0654,4.85952 9.7568,4.85952 7.5,0 14.293,-4.4023 17.363,-11.258 l 11.184,-24.961 h 164.59 v -20.664 z"
         id="path5889"
         style="fill:#ff0ec0;fill-opacity:1;stroke:none;stroke-opacity:1"
         sodipodi:nodetypes="cccsccccc" />
      <path
         d="m 992.84,710.61 c 0,6.5625 -5.3164,11.879 -11.879,11.879 h -123.7 c -6.5625,0 -11.879,-5.3164 -11.879,-11.879 v -18.66 h 147.46 z"
         id="path5891"
         style="fill:#ff0ec0;fill-opacity:1;stroke:none;stroke-opacity:1" />
      <path
         d="m 796.88,697.62 c 9.2148,0 16.703,7.5234 16.703,16.754 0,9.2031 -7.4883,16.691 -16.703,16.691 -9.1914,0 -16.668,-7.4883 -16.668,-16.691 0.0117,-9.2305 7.4883,-16.754 16.668,-16.754 m 0,-18.098 c -19.211,0 -34.777,15.562 -34.777,34.836 0,19.211 15.574,34.801 34.777,34.801 19.246,0 34.812,-15.602 34.812,-34.801 0.0117,-19.27 -15.562,-34.836 -34.812,-34.836 z"
         id="path5893"
         style="fill:#ff0ec0;fill-opacity:1;stroke:none;stroke-opacity:1" />
      <path
         d="m 728.63,697.62 c 9.2148,0 16.727,7.5234 16.727,16.754 0,9.2031 -7.5117,16.691 -16.727,16.691 -9.1914,0 -16.668,-7.4883 -16.668,-16.691 0,-9.2305 7.4766,-16.754 16.668,-16.754 m 0,-18.098 c -19.211,0 -34.754,15.562 -34.754,34.836 0,19.211 15.551,34.801 34.754,34.801 19.273,0 34.824,-15.602 34.824,-34.801 0,-19.27 -15.555,-34.836 -34.824,-34.836 z"
         id="path5895"
         style="fill:#ff0ec0;fill-opacity:1;stroke:none;stroke-opacity:1" />
      <path
         d="m 1062.9,697.67 c 9.2148,0 16.703,7.5 16.703,16.727 0,9.2266 -7.4883,16.703 -16.703,16.703 -9.1797,0 -16.668,-7.4766 -16.668,-16.703 0,-9.2266 7.5,-16.727 16.668,-16.727 m 0,-18.098 c -19.211,0 -34.777,15.562 -34.777,34.812 0,19.211 15.574,34.801 34.777,34.801 19.246,0 34.812,-15.602 34.812,-34.801 0.012,-19.246 -15.551,-34.812 -34.812,-34.812 z"
         id="path5897"
         style="fill:#ff0ec0;fill-opacity:1;stroke:none;stroke-opacity:1" />
      <path
         id="path5899"
         style="fill:#ff0ec0;fill-opacity:1;stroke:none;stroke-opacity:1"
         d="m 911.47247,479.53727 -8.21009,0.003 c -2.6289,0 -4.7772,1.95786 -5.1015,4.54776 l -1.64476,13.18823 c -1.957,16.23399 -2.96605,17.19372 -2.96605,33.5257 v 148.86177 h 114.77133 v 34.72637 h 13.594 c 0,-27.47998 17.0623,-46.68104 41.5082,-46.68104 24.469,0 41.5549,19.20006 41.5549,46.68104 v 2.94138 h 13.964 c 11.664,0 21.0859,-11.31584 21.0859,-21.08583 0.01,-9.76169 -0.027,-9.00924 -0.027,-16.73544 0,-3.60723 -2.7733,-17.54261 -5.6771,-31.25866 l -52.3143,-22.53935 3.1688,-6.00821 48.2792,24.4055 c -2.9807,-13.86544 -5.9732,-27.02615 -5.9732,-27.02615 -1.4023,-8.18359 -84.3131,-21.62311 -84.3131,-21.62311 l -17.2563,-49.78964 h 11.4722 l -1.3789,-3.84051 c -1.9688,-5.3398 -6.3817,-9.43236 -11.8779,-10.90476 -2.1484,-0.58984 -3.8871,-1.06764 -3.8871,-1.11844 0,0 -2.9534,-7.80156 -6.3597,-15.30175 -1.2617,-2.7734 -3.2555,-5.10146 -5.7868,-6.79286 -30.60202,-20.50798 -90.71823,-28.47574 -96.62423,-28.17474 z m 49.10432,66.36333 h 52.59941 l 16.2722,48.14487 -60.95209,-8.868 c -3.4336,-0.49219 -6.00039,-3.33576 -6.20349,-6.79286 z m -13.92564,32.38807 c 1.2227,0 2.25881,1.02873 2.25881,2.26703 v 55.5134 c 0,1.24609 -1.03221,2.2588 -2.25881,2.2588 -1.2617,0 -2.28073,-1.02051 -2.28073,-2.2588 v -55.5134 c 0,-1.2344 1.01903,-2.26703 2.28073,-2.26703 z m 148.82335,89.53252 h 24.9264 c 3.707,0 6.7408,3.02472 6.7408,6.74352 l 0.01,4.94524 h -8.1497 c -4.6328,0 -9.1688,-1.45181 -12.9388,-4.13931 z"
         sodipodi:nodetypes="ccccsccccsscscsccccccccccccccccccccssssssscsccscc" />
    </g>
    <path
       id="path6533"
       style="fill:#ff0ec0;fill-opacity:1;stroke:none;stroke-width:0.737996px;stroke-linecap:butt;stroke-linejoin:miter;stroke-opacity:1"
       d="m 328.60156,278.26172 -12.74804,24.87109 0.25195,-0.0703 185.4707,93.75 3.17969,0.15039 z m -14.00195,27.32031 -41.25391,80.49024 228.22266,10.74023 z"
       sodipodi:nodetypes="cccccccccc" />
  </g>
</svg>
