<?xml version="1.0" encoding="UTF-8" standalone="no"?>
<svg
   width="512"
   height="512"
   viewBox="0 0 512 512"
   version="1.1"
   id="svg8"
   sodipodi:docname="ncpd-crime-database.svg"
   inkscape:version="1.2.2 (b0a8486541, 2022-12-01)"
   xml:space="preserve"
   xmlns:inkscape="http://www.inkscape.org/namespaces/inkscape"
   xmlns:sodipodi="http://sodipodi.sourceforge.net/DTD/sodipodi-0.dtd"
   xmlns="http://www.w3.org/2000/svg"
   xmlns:svg="http://www.w3.org/2000/svg"><defs
     id="defs12"><filter
       style="color-interpolation-filters:sRGB;"
       inkscape:label="Drop Shadow"
       id="filter875"
       x="-0.31291152"
       y="-0.16857506"
       width="1.6092078"
       height="1.3282203"><feFlood
         flood-opacity="1"
         flood-color="rgb(58,63,94)"
         result="flood"
         id="feFlood865" /><feComposite
         in="flood"
         in2="SourceGraphic"
         operator="out"
         result="composite1"
         id="feComposite867" /><feGaussianBlur
         in="composite1"
         stdDeviation="15"
         result="blur"
         id="feGaussianBlur869" /><feOffset
         dx="0"
         dy="0"
         result="offset"
         id="feOffset871" /><feComposite
         in="offset"
         in2="SourceGraphic"
         operator="atop"
         result="composite2"
         id="feComposite873" /></filter><filter
       style="color-interpolation-filters:sRGB;"
       inkscape:label="Drop Shadow"
       id="filter1015"
       x="-0.081997928"
       y="-0.044180702"
       width="1.1639959"
       height="1.0883614"><feFlood
         flood-opacity="1"
         flood-color="rgb(58,63,94)"
         result="flood"
         id="feFlood1005" /><feComposite
         in="flood"
         in2="SourceGraphic"
         operator="out"
         result="composite1"
         id="feComposite1007" /><feGaussianBlur
         in="composite1"
         stdDeviation="8.30229"
         result="blur"
         id="feGaussianBlur1009" /><feOffset
         dx="0"
         dy="0"
         result="offset"
         id="feOffset1011" /><feComposite
         in="offset"
         in2="SourceGraphic"
         operator="atop"
         result="composite2"
         id="feComposite1013" /></filter><filter
       style="color-interpolation-filters:sRGB;"
       inkscape:label="Drop Shadow"
       id="filter35638"
       x="-0.057142887"
       y="-0.13067032"
       width="1.1142858"
       height="1.2613406"><feFlood
         flood-opacity="1"
         flood-color="rgb(58,63,94)"
         result="flood"
         id="feFlood35628" /><feComposite
         in="flood"
         in2="SourceGraphic"
         operator="out"
         result="composite1"
         id="feComposite35630" /><feGaussianBlur
         in="composite1"
         stdDeviation="6"
         result="blur"
         id="feGaussianBlur35632" /><feOffset
         dx="0"
         dy="0"
         result="offset"
         id="feOffset35634" /><feComposite
         in="offset"
         in2="SourceGraphic"
         operator="atop"
         result="composite2"
         id="feComposite35636" /></filter><filter
       style="color-interpolation-filters:sRGB;"
       inkscape:label="Drop Shadow"
       id="filter35813"
       x="-0.053321701"
       y="-0.069584126"
       width="1.1066434"
       height="1.1391683"><feFlood
         flood-opacity="1"
         flood-color="rgb(58,63,94)"
         result="flood"
         id="feFlood35803" /><feComposite
         in="flood"
         in2="SourceGraphic"
         operator="out"
         result="composite1"
         id="feComposite35805" /><feGaussianBlur
         in="composite1"
         stdDeviation="8"
         result="blur"
         id="feGaussianBlur35807" /><feOffset
         dx="0"
         dy="0"
         result="offset"
         id="feOffset35809" /><feComposite
         in="offset"
         in2="SourceGraphic"
         operator="atop"
         result="composite2"
         id="feComposite35811" /></filter><filter
       style="color-interpolation-filters:sRGB;"
       inkscape:label="Drop Shadow"
       id="filter36051"
       x="-0.028125"
       y="-0.038976963"
       width="1.05625"
       height="1.0779539"><feFlood
         flood-opacity="1"
         flood-color="rgb(58,63,94)"
         result="flood"
         id="feFlood36041" /><feComposite
         in="flood"
         in2="SourceGraphic"
         operator="out"
         result="composite1"
         id="feComposite36043" /><feGaussianBlur
         in="composite1"
         stdDeviation="6"
         result="blur"
         id="feGaussianBlur36045" /><feOffset
         dx="0"
         dy="0"
         result="offset"
         id="feOffset36047" /><feComposite
         in="offset"
         in2="SourceGraphic"
         operator="atop"
         result="composite2"
         id="feComposite36049" /></filter><filter
       style="color-interpolation-filters:sRGB;"
       inkscape:label="Drop Shadow"
       id="filter36715"
       x="-0.069720211"
       y="-0.091087118"
       width="1.1394404"
       height="1.1821742"><feFlood
         flood-opacity="1"
         flood-color="rgb(58,63,94)"
         result="flood"
         id="feFlood36705" /><feComposite
         in="flood"
         in2="SourceGraphic"
         operator="out"
         result="composite1"
         id="feComposite36707" /><feGaussianBlur
         in="composite1"
         stdDeviation="16.2006"
         result="blur"
         id="feGaussianBlur36709" /><feOffset
         dx="0"
         dy="0"
         result="offset"
         id="feOffset36711" /><feComposite
         in="offset"
         in2="SourceGraphic"
         operator="atop"
         result="composite2"
         id="feComposite36713" /></filter><filter
       style="color-interpolation-filters:sRGB;"
       inkscape:label="Drop Shadow"
       id="filter37057"
       x="-0.079999702"
       y="-0.075040311"
       width="1.1599994"
       height="1.1500806"><feFlood
         flood-opacity="1"
         flood-color="rgb(58,63,94)"
         result="flood"
         id="feFlood37047" /><feComposite
         in="flood"
         in2="SourceGraphic"
         operator="out"
         result="composite1"
         id="feComposite37049" /><feGaussianBlur
         in="composite1"
         stdDeviation="0.5"
         result="blur"
         id="feGaussianBlur37051" /><feOffset
         dx="0"
         dy="0"
         result="offset"
         id="feOffset37053" /><feComposite
         in="offset"
         in2="SourceGraphic"
         operator="atop"
         result="composite2"
         id="feComposite37055" /></filter></defs><sodipodi:namedview
     id="namedview10"
     pagecolor="#505050"
     bordercolor="#eeeeee"
     borderopacity="1"
     inkscape:pageshadow="0"
     inkscape:pageopacity="0"
     inkscape:pagecheckerboard="0"
     showgrid="false"
     inkscape:zoom="1.7558594"
     inkscape:cx="302.98554"
     inkscape:cy="308.11123"
     inkscape:window-width="1716"
     inkscape:window-height="1402"
     inkscape:window-x="3160"
     inkscape:window-y="684"
     inkscape:window-maximized="1"
     inkscape:current-layer="svg8"
     inkscape:showpageshadow="2"
     inkscape:deskcolor="#505050"
     showguides="true" /><path
     d="M0 0h512v512H0z"
     fill="#b90202"
     fill-opacity="1"
     id="path2"
     style="fill:#1b1f21;fill-opacity:0" /><style
     type="text/css"
     id="style35976">
	.st0{fill:#000000;}
</style><g
     style="fill:#ff0ec0;fill-opacity:1;filter:url(#filter37057)"
     id="g36830"
     transform="matrix(29.866556,0,0,29.866556,17.067552,17.067552)"><path
       id="path36821"
       style="fill:#ff0ec0;fill-opacity:1"
       d="M 7.9820818 -0.060463391 C 7.8845259 -0.059866601 7.7868087 -0.053424678 7.6894389 -0.04104106 C 6.4919624 0.21570587 5.5661169 1.1304334 4.4897898 1.6727671 C 3.3694338 2.4134441 2.1222994 2.9839857 1.0800917 3.8300845 C 0.062082009 4.8741883 0.54578806 6.4390797 0.43359623 7.7355424 C 0.52249084 8.9638174 0.24001683 10.248106 0.60545443 11.439453 C 1.1357361 12.682997 2.5941538 13.037433 3.6013326 13.78877 C 4.8763073 14.491182 6.0480031 15.411672 7.3867252 15.980485 C 8.7697974 16.388522 9.8735231 15.221391 10.997121 14.638186 C 12.287419 13.792323 13.708103 13.121695 14.919908 12.169916 C 15.937918 11.125811 15.454211 9.5609203 15.566404 8.2644576 C 15.477509 7.0361826 15.759978 5.751893 15.394546 4.5605472 C 14.86426 3.3170065 13.405846 2.9625702 12.398667 2.2112299 C 11.12572 1.5092566 9.9549859 0.59188659 8.6191604 0.02147661 C 8.4106893 -0.034558034 8.1967034 -0.06177631 7.9820818 -0.060463391 z M 8.0362943 2.4314151 C 8.0925038 2.4316327 8.1486249 2.457152 8.1915421 2.5079273 C 8.1915421 2.5079273 9.7489796 4.3565146 11.229927 4.3565146 C 11.394101 4.3565146 11.741251 4.3676318 11.741251 4.3676318 C 11.874137 4.3717422 11.962812 4.4839347 11.963006 4.6169177 L 11.963006 9.3445877 C 11.963006 9.4775707 11.973863 9.6948175 11.962548 9.8272686 C 11.962548 9.8272686 11.968033 9.997603 11.904346 10.197078 C 11.841385 10.394328 11.750457 10.587063 11.638123 10.774254 C 11.512007 10.984464 11.358802 11.187656 11.187616 11.382101 C 11.068464 11.517357 10.940598 11.648441 10.807083 11.774799 C 10.543679 12.024081 10.258198 12.254732 9.9741458 12.462428 C 9.4298342 12.86041 8.9413886 13.174097 8.5886209 13.373184 C 8.4471753 13.452974 8.2411387 13.568585 8.0376022 13.568585 C 7.8340656 13.568585 7.6283934 13.448404 7.4861257 13.371419 C 7.0540517 13.137465 6.4310767 12.746117 5.791936 12.246101 C 5.4178427 11.953393 5.0545996 11.623631 4.7579749 11.266221 C 4.5153171 10.973804 4.3146278 10.663031 4.1894303 10.339181 C 4.0966807 10.099183 4.0655067 9.8404784 4.0655067 9.8404784 C 4.0516281 9.7081723 4.032286 9.4911729 4.032286 9.3581898 L 4.032286 4.6067161 C 4.032286 4.4737331 4.1485889 4.3634047 4.2815719 4.3616155 C 4.2815719 4.3616155 4.651251 4.35658 4.8119912 4.35658 C 6.2927452 4.35658 7.8804578 2.5066848 7.8804578 2.5066848 C 7.9237861 2.456248 7.9800847 2.4311975 8.0362943 2.4314151 z M 8.0375368 6.2787368 L 7.4695153 7.393984 L 6.2342028 7.5894499 L 7.1193902 8.4738526 L 6.9231397 9.7096883 L 8.0379945 9.1412091 L 9.1521954 9.7094921 L 8.9562065 8.4737218 L 9.8411977 7.5894499 L 8.6051004 7.393984 L 8.0375368 6.2787368 z " /></g><g
     style="fill:#000000"
     id="g36899"
     transform="matrix(0.56141049,0,0,0.56141049,112.27908,112.2792)"><g
       id="g36887">
	<g
   id="g36885">
		<g
   id="g36883">
			
			
		</g>
	</g>
</g></g><g
     style="fill:#000000"
     id="g37216"
     transform="matrix(6.3369851,0,0,6.3369851,97.22263,94.40688)" /><g
     style="fill:#000000"
     id="g37408"
     transform="matrix(20.880283,0,0,20.880283,120.27816,72.010075)" /><g
     style="fill:#000000"
     id="g37690"
     transform="matrix(1.0635163,0,0,1.0635163,93.764311,59.764311)"><g
       id="g37671">
	<g
   id="g37653">
		
		
	</g>
	
	<g
   id="g37661">
		
		
	</g>
	
	
	
	
</g></g><g
     style="fill:#000000"
     id="g37832"
     transform="matrix(1.4442725,0,0,1.4442725,89.682881,89.685724)" /></svg>
