<?xml version="1.0" encoding="UTF-8" standalone="no"?>
<svg
   viewBox="0 0 512 512"
   style="height: 512px; width: 512px;"
   version="1.1"
   id="svg886"
   sodipodi:docname="neo-soviet-cyberarm.svg.svg"
   inkscape:version="1.2.2 (b0a8486541, 2022-12-01)"
   xmlns:inkscape="http://www.inkscape.org/namespaces/inkscape"
   xmlns:sodipodi="http://sodipodi.sourceforge.net/DTD/sodipodi-0.dtd"
   xmlns="http://www.w3.org/2000/svg"
   xmlns:svg="http://www.w3.org/2000/svg">
  <sodipodi:namedview
     id="namedview888"
     pagecolor="#ffffff"
     bordercolor="#666666"
     borderopacity="1.0"
     inkscape:showpageshadow="2"
     inkscape:pageopacity="0.0"
     inkscape:pagecheckerboard="0"
     inkscape:deskcolor="#d1d1d1"
     showgrid="false"
     inkscape:zoom="0.32593203"
     inkscape:cx="156.47434"
     inkscape:cy="684.19174"
     inkscape:window-width="1716"
     inkscape:window-height="1386"
     inkscape:window-x="1440"
     inkscape:window-y="702"
     inkscape:window-maximized="1"
     inkscape:current-layer="svg886" />
  <defs
     id="defs878">
    <filter
       id="shadow-1"
       height="1.1517236"
       width="1.1517246"
       x="-0.075862315"
       y="-0.075861805">
      <feFlood
         flood-color="rgba(58, 63, 94, 1)"
         result="flood"
         id="feFlood867" />
      <feComposite
         in="flood"
         in2="SourceGraphic"
         operator="out"
         result="composite"
         id="feComposite869" />
      <feGaussianBlur
         in="composite"
         stdDeviation="15"
         result="blur"
         id="feGaussianBlur871" />
      <feOffset
         dx="0"
         dy="0"
         result="offset"
         id="feOffset873" />
      <feComposite
         in2="SourceGraphic"
         in="offset"
         operator="atop"
         id="feComposite875" />
    </filter>
    <filter
       style="color-interpolation-filters:sRGB;"
       inkscape:label="Drop Shadow"
       id="filter2672"
       x="-0.036508511"
       y="-0.030096649"
       width="1.073017"
       height="1.0601933">
      <feFlood
         flood-opacity="1"
         flood-color="rgb(58,63,94)"
         result="flood"
         id="feFlood2662" />
      <feComposite
         in="flood"
         in2="SourceGraphic"
         operator="out"
         result="composite1"
         id="feComposite2664" />
      <feGaussianBlur
         in="composite1"
         stdDeviation="15"
         result="blur"
         id="feGaussianBlur2666" />
      <feOffset
         dx="0"
         dy="0"
         result="offset"
         id="feOffset2668" />
      <feComposite
         in="offset"
         in2="SourceGraphic"
         operator="atop"
         result="composite2"
         id="feComposite2670" />
    </filter>
    <filter
       style="color-interpolation-filters:sRGB;"
       inkscape:label="Drop Shadow"
       id="filter3258"
       x="-0.033333307"
       y="-0.036846098"
       width="1.0666666"
       height="1.0736922">
      <feFlood
         flood-opacity="1"
         flood-color="rgb(58,63,94)"
         result="flood"
         id="feFlood3248" />
      <feComposite
         in="flood"
         in2="SourceGraphic"
         operator="out"
         result="composite1"
         id="feComposite3250" />
      <feGaussianBlur
         in="composite1"
         stdDeviation="15"
         result="blur"
         id="feGaussianBlur3252" />
      <feOffset
         dx="0"
         dy="0"
         result="offset"
         id="feOffset3254" />
      <feComposite
         in="offset"
         in2="SourceGraphic"
         operator="atop"
         result="composite2"
         id="feComposite3256" />
    </filter>
    <filter
       style="color-interpolation-filters:sRGB;"
       inkscape:label="Drop Shadow"
       id="filter4517"
       x="-0.04755843"
       y="-0.048809898"
       width="1.0951169"
       height="1.0976198">
      <feFlood
         flood-opacity="1"
         flood-color="rgb(58,63,94)"
         result="flood"
         id="feFlood4507" />
      <feComposite
         in="flood"
         in2="SourceGraphic"
         operator="out"
         result="composite1"
         id="feComposite4509" />
      <feGaussianBlur
         in="composite1"
         stdDeviation="10"
         result="blur"
         id="feGaussianBlur4511" />
      <feOffset
         dx="0"
         dy="0"
         result="offset"
         id="feOffset4513" />
      <feComposite
         in="offset"
         in2="SourceGraphic"
         operator="atop"
         result="composite2"
         id="feComposite4515" />
    </filter>
    <filter
       style="color-interpolation-filters:sRGB;"
       inkscape:label="Drop Shadow"
       id="filter5154"
       x="-0.073142173"
       y="-0.051090164"
       width="1.1462843"
       height="1.1021803">
      <feFlood
         flood-opacity="1"
         flood-color="rgb(58,63,94)"
         result="flood"
         id="feFlood5144" />
      <feComposite
         in="flood"
         in2="SourceGraphic"
         operator="out"
         result="composite1"
         id="feComposite5146" />
      <feGaussianBlur
         in="composite1"
         stdDeviation="10"
         result="blur"
         id="feGaussianBlur5148" />
      <feOffset
         dx="0"
         dy="0"
         result="offset"
         id="feOffset5150" />
      <feComposite
         in="offset"
         in2="SourceGraphic"
         operator="atop"
         result="composite2"
         id="feComposite5152" />
    </filter>
    <filter
       style="color-interpolation-filters:sRGB;"
       inkscape:label="Drop Shadow"
       id="filter1509"
       x="-0.032142857"
       y="-0.032142857"
       width="1.0642857"
       height="1.0642857">
      <feFlood
         flood-opacity="1"
         flood-color="rgb(58,63,94)"
         result="flood"
         id="feFlood1499" />
      <feComposite
         in="flood"
         in2="SourceGraphic"
         operator="out"
         result="composite1"
         id="feComposite1501" />
      <feGaussianBlur
         in="composite1"
         stdDeviation="15"
         result="blur"
         id="feGaussianBlur1503" />
      <feOffset
         dx="0"
         dy="0"
         result="offset"
         id="feOffset1505" />
      <feComposite
         in="offset"
         in2="SourceGraphic"
         operator="atop"
         result="composite2"
         id="feComposite1507" />
    </filter>
    <filter
       style="color-interpolation-filters:sRGB;"
       inkscape:label="Drop Shadow"
       id="filter2807"
       x="-0.076283954"
       y="-0.09746786"
       width="1.1525679"
       height="1.1949357">
      <feFlood
         flood-opacity="1"
         flood-color="rgb(58,63,94)"
         result="flood"
         id="feFlood2797" />
      <feComposite
         in="flood"
         in2="SourceGraphic"
         operator="out"
         result="composite1"
         id="feComposite2799" />
      <feGaussianBlur
         in="composite1"
         stdDeviation="15"
         result="blur"
         id="feGaussianBlur2801" />
      <feOffset
         dx="0"
         dy="0"
         result="offset"
         id="feOffset2803" />
      <feComposite
         in="offset"
         in2="SourceGraphic"
         operator="atop"
         result="composite2"
         id="feComposite2805" />
    </filter>
  </defs>
  <path
     d="M0 0h512v512H0z"
     fill="#1b1f21"
     fill-opacity="0"
     id="path880" />
  <path
     d="m 381.73515,142.61734 c -7.87853,13.64601 -3.20065,31.06375 10.44539,38.94229 13.62737,7.86776 31.05636,3.21346 38.9349,-10.43258 7.87854,-13.64603 3.20805,-31.07655 -10.42518,-38.9477 -13.64457,-7.87769 -31.07657,-3.20805 -38.95511,10.43799 z m 99.82508,55.0996 c -0.35042,0.63996 -0.69883,1.28296 -1.06355,1.91468 l 1.09497,-1.89655 z M 267.54168,388.51777 c -3.89474,-2.24863 -8.88797,-0.91062 -11.13651,2.98396 -2.24862,3.89474 -0.9106,8.888 2.98402,11.13655 3.89463,2.24857 8.88797,0.91063 11.13655,-2.98403 2.24863,-3.89474 0.91056,-8.88791 -2.98406,-11.13648 z M 420.68889,132.18086 c 13.62737,7.86777 18.30373,25.30168 10.42519,38.94769 -7.87854,13.64604 -25.30168,18.30374 -38.93491,10.43259 -13.64603,-7.87853 -18.32391,-25.29628 -10.44537,-38.9423 7.87854,-13.64603 25.31053,-18.31568 38.95509,-10.43798 z M 20.467646,91.231283 39.979181,164.06079 c 0.573243,2.13936 1.665681,4.02972 3.172576,5.55523 1.032551,1.27451 2.284618,2.38996 3.795419,3.26222 l 66.714524,38.51552 0.007,-0.0129 c 0.0615,0.0356 0.10018,0.0807 0.16159,0.11621 1.88366,1.08755 3.86054,1.94114 5.85708,2.57935 l 24.39449,37.42393 11.16703,53.66026 50.13704,76.92015 L 184.41051,280.72639 129.4482,196.4055 c -2.1432,0.14416 -4.33005,-0.33901 -6.32248,-1.48934 -5.40106,-3.1183 -7.2557,-10.03186 -4.13593,-15.43546 3.12062,-5.40506 10.03185,-7.25569 15.43546,-4.13591 5.40506,3.12061 7.25568,10.03184 4.13591,15.43546 -0.32924,0.57024 -0.71332,1.09356 -1.12555,1.59306 l 55.35382,84.89329 25.92432,125.23722 0.11783,0.19196 c 2.15934,12.93757 9.87209,24.81823 22.1117,31.88478 21.73223,12.54711 49.51001,5.10379 62.05693,-16.62811 2.75264,-4.7677 4.5342,-9.81072 5.4324,-14.9344 l 75.83334,-36.72952 76.27368,-132.10988 c -14.42225,10.05487 -31.35988,15.88853 -48.77763,16.89595 l -36.64343,63.4683 -0.0128,-0.007 -82.89096,40.15773 -15.7463,27.2734 c 6.12349,5.86022 7.74061,15.35753 3.31205,23.02802 -5.19689,9.00128 -16.73451,12.09277 -25.73576,6.8959 -9.00126,-5.19688 -12.09276,-16.73449 -6.89587,-25.73578 4.42857,-7.6705 13.44498,-11.02882 21.59889,-8.64569 l 82.96323,-143.69272 c -9.34394,-6.62952 -17.14064,-14.73067 -23.28776,-23.79457 -20.4739,6.08627 -41.12811,22.82955 -55.11987,47.06399 -14.84687,25.71552 -18.65094,53.68926 -12.22144,74.99747 l -5.29256,9.16699 -97.28487,-149.2167 c 2.91397,-12.64185 -2.57069,-26.19975 -14.38039,-33.0181 -8.47367,-4.89226 -18.30402,-5.19386 -26.69255,-1.74772 L 92.177713,142.68787 c 0.30754,-3.87945 -1.57095,-7.76152 -5.14993,-9.82785 -4.970775,-2.86987 -11.328245,-1.16639 -14.198119,3.80439 -2.869884,4.97076 -1.166403,11.32824 3.80437,14.19812 3.583018,2.06865 7.890859,1.73357 11.086139,-0.45397 l 21.132187,12.20068 c -2.34599,2.10614 -4.44358,4.59394 -6.11109,7.48215 -0.47117,0.81609 -0.87886,1.63448 -1.2584,2.46346 L 62.232285,149.89279 44.747182,84.706792 C 42.952649,78.0094 36.055188,74.027145 29.358859,75.822333 c -6.69672,1.793473 -10.679615,8.692039 -8.891844,15.40113 z m 28.254017,66.778787 c 1.629654,-2.82265 5.233217,-3.79315 8.061684,-2.16012 2.82265,1.62966 3.793146,5.23321 2.160125,8.06169 -1.622241,2.80981 -5.223292,3.77594 -8.051758,2.14293 -2.828475,-1.63302 -3.792321,-5.23465 -2.170051,-8.0445 z M 32.026405,99.947783 c 2.498142,0.125557 4.977851,-0.56185 7.080847,-1.92393 l 13.187429,49.270327 c -2.469496,0.28354 -4.84282,1.2191 -6.844402,2.75802 z M 392.18277,181.55492 c -13.64604,-7.87854 -18.32393,-25.29627 -10.44538,-38.94229 7.87854,-13.64604 25.30906,-18.31654 38.95509,-10.43799 13.62737,7.86776 18.30372,25.30167 10.42519,38.9477 -7.88256,13.64372 -25.30607,18.30118 -38.9349,10.43258 z m 87.11024,20.07967 0.0315,0.0182 1.1684,-2.02371 c 0.36473,-0.63173 0.71314,-1.27472 1.06357,-1.91469 22.10259,-40.60313 7.91163,-91.66705 -32.35654,-114.915887 -40.91943,-23.624831 -93.22584,-9.597009 -116.84223,31.307787 -23.6164,40.9048 -9.60982,93.21844 31.30777,116.84223 l -63.50866,110.00024 68.63457,-33.25119 37.70174,-65.30132 c 28.77181,-0.0378 56.75505,-14.60933 72.8031,-40.76701 z m -40.46331,-26.0541 c -10.31939,17.87373 -33.24508,24.00211 -51.10158,13.69265 -17.87372,-10.3194 -24.03069,-33.23866 -13.71129,-51.11237 10.31938,-17.87372 33.24507,-24.00211 51.12026,-13.68187 17.85737,10.3046 24.01433,33.22386 13.69261,51.10159 z"
     id="path2282"
     style="fill:#ff0ec0;fill-opacity:1;stroke-width:0.422474;filter:url(#filter2807)" />
</svg>
