<?xml version="1.0" encoding="UTF-8" standalone="no"?>
<svg
   viewBox="0 0 512 512"
   style="height: 512px; width: 512px;"
   version="1.1"
   id="svg886"
   sodipodi:docname="paladin.svg"
   inkscape:version="1.2.2 (b0a8486541, 2022-12-01)"
   xmlns:inkscape="http://www.inkscape.org/namespaces/inkscape"
   xmlns:sodipodi="http://sodipodi.sourceforge.net/DTD/sodipodi-0.dtd"
   xmlns="http://www.w3.org/2000/svg"
   xmlns:svg="http://www.w3.org/2000/svg">
  <sodipodi:namedview
     id="namedview888"
     pagecolor="#ffffff"
     bordercolor="#666666"
     borderopacity="1.0"
     inkscape:showpageshadow="2"
     inkscape:pageopacity="0.0"
     inkscape:pagecheckerboard="0"
     inkscape:deskcolor="#d1d1d1"
     showgrid="false"
     inkscape:zoom="1.84375"
     inkscape:cx="247.32203"
     inkscape:cy="240.27119"
     inkscape:window-width="1716"
     inkscape:window-height="1386"
     inkscape:window-x="1440"
     inkscape:window-y="702"
     inkscape:window-maximized="1"
     inkscape:current-layer="svg886" />
  <defs
     id="defs878">
    <filter
       id="shadow-1"
       height="1.1517236"
       width="1.1517246"
       x="-0.075862315"
       y="-0.075861805">
      <feFlood
         flood-color="rgba(58, 63, 94, 1)"
         result="flood"
         id="feFlood867" />
      <feComposite
         in="flood"
         in2="SourceGraphic"
         operator="out"
         result="composite"
         id="feComposite869" />
      <feGaussianBlur
         in="composite"
         stdDeviation="15"
         result="blur"
         id="feGaussianBlur871" />
      <feOffset
         dx="0"
         dy="0"
         result="offset"
         id="feOffset873" />
      <feComposite
         in2="SourceGraphic"
         in="offset"
         operator="atop"
         id="feComposite875" />
    </filter>
    <filter
       style="color-interpolation-filters:sRGB;"
       inkscape:label="Drop Shadow"
       id="filter2672"
       x="-0.036508511"
       y="-0.030096649"
       width="1.073017"
       height="1.0601933">
      <feFlood
         flood-opacity="1"
         flood-color="rgb(58,63,94)"
         result="flood"
         id="feFlood2662" />
      <feComposite
         in="flood"
         in2="SourceGraphic"
         operator="out"
         result="composite1"
         id="feComposite2664" />
      <feGaussianBlur
         in="composite1"
         stdDeviation="15"
         result="blur"
         id="feGaussianBlur2666" />
      <feOffset
         dx="0"
         dy="0"
         result="offset"
         id="feOffset2668" />
      <feComposite
         in="offset"
         in2="SourceGraphic"
         operator="atop"
         result="composite2"
         id="feComposite2670" />
    </filter>
    <filter
       style="color-interpolation-filters:sRGB;"
       inkscape:label="Drop Shadow"
       id="filter3258"
       x="-0.033333307"
       y="-0.036846098"
       width="1.0666666"
       height="1.0736922">
      <feFlood
         flood-opacity="1"
         flood-color="rgb(58,63,94)"
         result="flood"
         id="feFlood3248" />
      <feComposite
         in="flood"
         in2="SourceGraphic"
         operator="out"
         result="composite1"
         id="feComposite3250" />
      <feGaussianBlur
         in="composite1"
         stdDeviation="15"
         result="blur"
         id="feGaussianBlur3252" />
      <feOffset
         dx="0"
         dy="0"
         result="offset"
         id="feOffset3254" />
      <feComposite
         in="offset"
         in2="SourceGraphic"
         operator="atop"
         result="composite2"
         id="feComposite3256" />
    </filter>
    <filter
       style="color-interpolation-filters:sRGB;"
       inkscape:label="Drop Shadow"
       id="filter4517"
       x="-0.04755843"
       y="-0.048809898"
       width="1.0951169"
       height="1.0976198">
      <feFlood
         flood-opacity="1"
         flood-color="rgb(58,63,94)"
         result="flood"
         id="feFlood4507" />
      <feComposite
         in="flood"
         in2="SourceGraphic"
         operator="out"
         result="composite1"
         id="feComposite4509" />
      <feGaussianBlur
         in="composite1"
         stdDeviation="10"
         result="blur"
         id="feGaussianBlur4511" />
      <feOffset
         dx="0"
         dy="0"
         result="offset"
         id="feOffset4513" />
      <feComposite
         in="offset"
         in2="SourceGraphic"
         operator="atop"
         result="composite2"
         id="feComposite4515" />
    </filter>
    <filter
       style="color-interpolation-filters:sRGB;"
       inkscape:label="Drop Shadow"
       id="filter5154"
       x="-0.073142173"
       y="-0.051090164"
       width="1.1462843"
       height="1.1021803">
      <feFlood
         flood-opacity="1"
         flood-color="rgb(58,63,94)"
         result="flood"
         id="feFlood5144" />
      <feComposite
         in="flood"
         in2="SourceGraphic"
         operator="out"
         result="composite1"
         id="feComposite5146" />
      <feGaussianBlur
         in="composite1"
         stdDeviation="10"
         result="blur"
         id="feGaussianBlur5148" />
      <feOffset
         dx="0"
         dy="0"
         result="offset"
         id="feOffset5150" />
      <feComposite
         in="offset"
         in2="SourceGraphic"
         operator="atop"
         result="composite2"
         id="feComposite5152" />
    </filter>
    <filter
       style="color-interpolation-filters:sRGB;"
       inkscape:label="Drop Shadow"
       id="filter5778"
       x="-0.050442997"
       y="-0.092707304"
       width="1.100886"
       height="1.1854146">
      <feFlood
         flood-opacity="1"
         flood-color="rgb(58,63,94)"
         result="flood"
         id="feFlood5768" />
      <feComposite
         in="flood"
         in2="SourceGraphic"
         operator="out"
         result="composite1"
         id="feComposite5770" />
      <feGaussianBlur
         in="composite1"
         stdDeviation="10"
         result="blur"
         id="feGaussianBlur5772" />
      <feOffset
         dx="0"
         dy="0"
         result="offset"
         id="feOffset5774" />
      <feComposite
         in="offset"
         in2="SourceGraphic"
         operator="atop"
         result="composite2"
         id="feComposite5776" />
    </filter>
    <clipPath
       id="a">
      <path
         d="M 222.14,222.14 H 977.85 V 977.85 H 222.14 Z"
         id="path6679" />
    </clipPath>
    <clipPath
       id="a-5">
      <path
         d="M 222.14,222.14 H 977.85 V 977.85 H 222.14 Z"
         id="path6679-3" />
    </clipPath>
    <filter
       style="color-interpolation-filters:sRGB;"
       inkscape:label="Drop Shadow"
       id="filter8128"
       x="-0.51199727"
       y="-0.25599863"
       width="2.0239945"
       height="1.5119973">
      <feFlood
         flood-opacity="1"
         flood-color="rgb(58,63,94)"
         result="flood"
         id="feFlood8118" />
      <feComposite
         in="flood"
         in2="SourceGraphic"
         operator="out"
         result="composite1"
         id="feComposite8120" />
      <feGaussianBlur
         in="composite1"
         stdDeviation="8"
         result="blur"
         id="feGaussianBlur8122" />
      <feOffset
         dx="0"
         dy="0"
         result="offset"
         id="feOffset8124" />
      <feComposite
         in="offset"
         in2="SourceGraphic"
         operator="atop"
         result="composite2"
         id="feComposite8126" />
    </filter>
    <filter
       style="color-interpolation-filters:sRGB;"
       inkscape:label="Drop Shadow"
       id="filter21595"
       x="-0.038264996"
       y="-0.082038655"
       width="1.07653"
       height="1.1640773">
      <feFlood
         flood-opacity="1"
         flood-color="rgb(58,63,94)"
         result="flood"
         id="feFlood21585" />
      <feComposite
         in="flood"
         in2="SourceGraphic"
         operator="out"
         result="composite1"
         id="feComposite21587" />
      <feGaussianBlur
         in="composite1"
         stdDeviation="15"
         result="blur"
         id="feGaussianBlur21589" />
      <feOffset
         dx="0"
         dy="0"
         result="offset"
         id="feOffset21591" />
      <feComposite
         in="offset"
         in2="SourceGraphic"
         operator="atop"
         result="composite2"
         id="feComposite21593" />
    </filter>
    <filter
       style="color-interpolation-filters:sRGB;"
       inkscape:label="Drop Shadow"
       id="filter22425"
       x="-0.049589307"
       y="-0.17253584"
       width="1.0991786"
       height="1.3450717">
      <feFlood
         flood-opacity="1"
         flood-color="rgb(58,63,94)"
         result="flood"
         id="feFlood22415" />
      <feComposite
         in="flood"
         in2="SourceGraphic"
         operator="out"
         result="composite1"
         id="feComposite22417" />
      <feGaussianBlur
         in="composite1"
         stdDeviation="10"
         result="blur"
         id="feGaussianBlur22419" />
      <feOffset
         dx="0"
         dy="0"
         result="offset"
         id="feOffset22421" />
      <feComposite
         in="offset"
         in2="SourceGraphic"
         operator="atop"
         result="composite2"
         id="feComposite22423" />
    </filter>
  </defs>
  <path
     d="M 0.35858051,-0.2092161 H 512.35858 V 511.79078 H 0.35858051 Z"
     fill="#1b1f21"
     fill-opacity="0"
     id="path880" />
  <g
     clip-path="url(#a-5)"
     id="g6686"
     transform="matrix(0.51260194,0,0,0.51260194,-62.643019,-31.742847)"
     style="fill:#ffffff" />
  <g
     id="g22389"
     style="fill:#ff0ec0;fill-opacity:1;filter:url(#filter22425)">
    <path
       id="path21739"
       style="fill:#ff0ec0;stroke-width:0.423897;fill-opacity:1"
       d="m 235.01562,184.61523 c -9.16675,-0.17221 -44.97461,1.41211 -44.97461,1.41211 l -150.843744,37.66016 -10.97461,3.01563 2.056641,7.76757 c 0,0 0.597739,0.31726 0.880859,0.41992 -0.599431,2.15925 -1.546732,3.76643 -2.623047,5.44727 -1.485289,2.31986 -2.987621,4.4436 -4.34375,6.14258 -0.919007,1.14748 -1.809852,2.15661 -2.9375,3.43164 -0.629231,0.71036 -1.330348,1.50862 -2.115234,2.41601 -3.409137,1.72311 -2.97461,8.67774 -2.97461,8.67774 l 1.697266,5.4082 -0.06445,3.73047 -0.982422,3.95899 c 0,0 -0.758139,1.56899 -1.292969,2.16015 -0.856058,0.93719 -1.373046,5.63281 -1.373046,5.63281 l 1.482421,3.60547 c 0,0 2.35734,5.11532 3.031251,6.66211 0.422238,0.97034 0.74628,1.71562 1.041015,2.31836 0.927273,1.90258 1.729593,2.69623 3.574219,3.53907 1.331288,0.60934 3.418058,1.35923 6.574219,2.35937 2.42583,0.76996 4.324877,1.31605 6.277343,1.66211 0.894167,0.1573 1.896086,0.29883 2.894532,0.29883 0.991832,0 1.974724,-0.15473 2.845703,-0.54883 0.427202,0.0695 0.878382,0.13973 1.386719,0.21093 1.513437,0.2103 3.50755,0.44806 5.98633,0.7461 1.982048,0.23679 4.27305,0.51166 6.880856,0.83789 l 4.525392,0.57617 c 5.457665,0.69875 12.929837,1.65583 26.410158,3.26367 l 4.169921,0.90821 c -1.94461,-4.26934 -3.151381,-8.93639 -3.457032,-13.85547 -0.01369,-0.0857 -0.0585,-0.1581 -0.0625,-0.2461 -0.0046,-0.0911 0.03311,-0.16941 0.03709,-0.25781 -0.03239,-0.65265 -0.09766,-1.29444 -0.09766,-1.95508 0,-9.38769 3.308554,-18.00789 8.804687,-24.78515 0.0298,-0.0453 0.03993,-0.10183 0.07422,-0.14453 0.02399,-0.0267 0.05913,-0.0397 0.08203,-0.0664 0.385119,-0.46807 0.810258,-0.90029 1.216796,-1.34961 0.0259,-0.0453 0.03395,-0.0973 0.06445,-0.14258 0.112328,-0.15508 0.262544,-0.25991 0.404296,-0.375 3.46584,-3.70967 7.62931,-6.74403 12.29101,-8.90234 0.10707,-0.0533 0.19672,-0.13573 0.31446,-0.17383 0.021,-0.008 0.0435,-0.004 0.0664,-0.008 0.55631,-0.25144 1.121,-0.48808 1.69336,-0.71289 0.0534,-0.027 0.0901,-0.0709 0.14649,-0.0937 0.0697,-0.0267 0.14123,-0.0181 0.21093,-0.0371 4.37235,-1.67698 9.1007,-2.63671 14.05664,-2.63671 4.9585,0 9.68501,0.95981 14.06055,2.63671 0.0697,0.0228 0.14229,0.0104 0.20899,0.0371 0.056,0.0217 0.0932,0.067 0.14648,0.0937 0.57236,0.2247 1.13828,0.4614 1.69727,0.71289 0.0213,0.008 0.0396,-1.9e-4 0.0625,0.008 0.11508,0.0373 0.20153,0.12053 0.3086,0.17383 4.66132,2.15553 8.82092,5.18756 12.28711,8.89453 0.14441,0.11763 0.29899,0.22506 0.41406,0.38281 0.0324,0.0453 0.0359,0.0992 0.0664,0.14453 0.40383,0.44929 0.82578,0.87768 1.21094,1.34571 0.027,0.0266 0.063,0.0378 0.0859,0.0684 0.035,0.0453 0.0476,0.10239 0.0781,0.15039 5.49378,6.77695 8.79987,15.39435 8.79687,24.77929 0,0.65797 -0.0691,1.29933 -0.0996,1.94922 0.008,0.0911 0.0431,0.17257 0.0391,0.26367 -0.005,0.0911 -0.0493,0.16431 -0.0645,0.25001 -0.37669,6.06184 -2.10772,11.75194 -4.92578,16.77148 h 6.61133 0.006 c 34.18001,-0.18877 58.84987,-0.2266 79.99804,-0.12891 9.99802,0.0464 18.39553,0.11541 26.02735,0.18165 6.10028,0.0513 11.71292,0.10045 17.26172,0.12695 4.83157,0.0232 9.61748,0.0324 14.24219,0.0391 7.32873,0.0132 14.25141,0.0245 20.33007,0.0957 7.00107,0.0828 12.86295,0.24614 17.57031,0.37696 1.95061,0.053 3.69226,0.10165 5.21876,0.13476 2.67418,0.0596 4.70688,0.0781 6.32617,0.0781 1.30314,0 2.33931,-0.0115 3.22851,-0.0215 l 0.5625,-0.006 c 1.8297,-0.0199 3.6918,-0.0598 4.59766,-1.25196 1.55813,-0.0908 3.60068,-0.16921 5.49805,-0.25195 -2.80848,-5.0125 -4.53603,-10.6934 -4.91211,-16.74609 -0.0137,-0.0857 -0.0566,-0.1581 -0.0606,-0.2461 -0.005,-0.0911 0.0331,-0.16745 0.0371,-0.25586 -0.0324,-0.65265 -0.0977,-1.29443 -0.0977,-1.95507 0,-9.38771 3.30659,-18.0079 8.80274,-24.78516 0.0298,-0.0453 0.0419,-0.10183 0.0762,-0.14453 0.024,-0.0267 0.0591,-0.0397 0.082,-0.0664 0.38512,-0.46807 0.81026,-0.90224 1.21679,-1.35156 0.0259,-0.0453 0.034,-0.0953 0.0645,-0.14063 0.11233,-0.15507 0.26255,-0.25992 0.4043,-0.375 3.46584,-3.70967 7.62931,-6.74597 12.29101,-8.90429 0.10707,-0.0533 0.19672,-0.13573 0.31445,-0.17383 0.021,-0.008 0.0435,-0.004 0.0664,-0.008 0.55631,-0.25145 1.121,-0.48613 1.69336,-0.71094 0.0534,-0.027 0.0901,-0.0709 0.14649,-0.0937 0.0697,-0.0267 0.14123,-0.02 0.21093,-0.039 4.37235,-1.67699 9.1007,-2.63672 14.05664,-2.63672 4.9585,0 9.685,0.95981 14.06055,2.63672 0.0697,0.0228 0.14228,0.0124 0.20898,0.039 0.056,0.0217 0.0932,0.067 0.14649,0.0937 0.57236,0.2247 1.13828,0.45945 1.69727,0.71094 0.0213,0.008 0.0396,-1.9e-4 0.0625,0.008 0.11508,0.0374 0.20153,0.12053 0.3086,0.17383 4.66132,2.15554 8.81895,5.18951 12.28515,8.89648 0.14443,0.11763 0.30097,0.22311 0.41602,0.38086 0.0322,0.0453 0.036,0.0992 0.0664,0.14453 0.40381,0.4493 0.82575,0.87768 1.21091,1.34571 0.0271,0.0266 0.0631,0.0398 0.086,0.0703 0.0352,0.0453 0.0476,0.10044 0.0781,0.14844 v 0.002 c 5.49378,6.77696 8.79984,15.39434 8.79687,24.77929 0,0.65797 -0.0691,1.29932 -0.0996,1.94922 0.008,0.0911 0.0431,0.17062 0.039,0.26172 -0.006,0.0911 -0.0493,0.16625 -0.0644,0.25195 -0.21191,3.40959 -0.86598,6.69504 -1.88673,9.81641 l 1.91602,-0.23438 c 0.048,0.82626 0.0893,1.59623 0.11915,2.25196 0,0.005 0.004,0.0109 0.004,0.0176 v 0.0137 c 0.007,0.096 0.0474,0.18012 0.0723,0.26953 0.0216,0.0729 0.025,0.15252 0.0566,0.21875 0.0447,0.0944 0.11513,0.16857 0.17969,0.24805 0.0415,0.0513 0.0672,0.11349 0.11521,0.1582 0.0811,0.0762 0.18135,0.1267 0.27736,0.17969 0.0497,0.0281 0.0896,0.0683 0.14256,0.0898 0.15726,0.0629 0.32898,0.0996 0.50783,0.0996 0.0216,0 0.0426,-2.6e-4 0.0625,-0.002 0,0 0.005,-0.002 0.006,-0.002 0.008,0 0.017,-2.6e-4 0.0254,-0.002 40.3282,-2.74705 46.80157,-3.49582 49.97656,-4.02734 2.22215,-0.37257 3.60024,-0.66346 3.88671,-1.90039 0.26659,-1.11108 -0.71393,-1.81474 -1.03516,-2.04492 h -0.008 c -0.43547,-0.31295 -1.02964,-0.66239 -1.71682,-1.06641 -1.02333,-0.60108 -2.18189,-1.28177 -2.96677,-1.9375 -1.02995,-0.85771 -1.43261,-1.6442 -1.72073,-3.36133 -0.308,-1.83135 -0.40923,-4.14569 -0.27345,-6.19726 1.99625,-0.37232 5.97656,0.37695 5.97656,0.37695 l 1.40823,-5.57812 0.29685,-5.00782 -0.63279,-4.29492 -0.52148,-23.86132 -3.04688,-1.94336 -10.45118,-5.62891 c 0,0 -17.44527,-6.42961 -28.80274,-9.37695 -9.5114,-2.46886 -19.80404,-4.38846 -29.76562,-5.55078 -8.11549,-0.94716 -14.62931,-1.24172 -25.42382,-1.72852 l -3.01953,-0.13672 c -12.11072,-0.55141 -28.67693,-1.29979 -55.94532,-1.18555 -6.86033,-3.86144 -17.39221,-9.36475 -26.47461,-13.98437 -14.41924,-7.33553 -25.88365,-12.77172 -37.97656,-17.04883 -0.10928,-0.27321 -0.28855,-0.52308 -0.54688,-0.7168 -0.44708,-0.33613 -1.01108,-0.54824 -4.14062,-1.40429 -3.22063,-0.88256 -7.65188,-2.01148 -13.36133,-2.92383 -6.75606,-1.07962 -14.4648,-1.70823 -22.91601,-1.86719 z m -3.52929,12.38868 c 5.4531,0.0838 10.81398,0.35027 15.59765,0.78906 8.27742,0.75839 14.09823,1.96763 21.47657,4.46289 8.09387,2.73875 16.45775,6.45251 24.85937,11.03906 7.08712,3.8664 14.77087,8.64846 19.35743,11.60938 -1.71051,0.0546 -3.37383,0.0979 -5.03125,0.14258 -0.15731,-1.02333 -0.54045,-2.02337 -1.14649,-2.9043 -0.89251,-1.29653 -2.3173,-2.42739 -4.35547,-3.45899 -2.33804,-1.18229 -4.99414,-1.99523 -7.68164,-2.34961 -1.85124,-0.24506 -6.45507,-0.61065 -9.24219,1.22071 -1.86115,1.22531 -2.88891,3.34358 -3.14062,6.47461 -0.0397,0.49676 -0.0612,0.99907 -0.043,1.49414 -21.89847,0.21691 -37.39913,-0.15106 -50.23047,-0.51368 -15.55021,-0.43881 -24.50165,-0.78694 -33.16016,-1.12304 l -5.8496,-0.22461 c -8.90691,-0.33945 -18.1174,-0.69159 -25.78907,-1.21485 -8.27275,-0.56297 -14.88383,-1.33239 -19.12109,-2.22656 -3.99721,-0.84448 -5.71949,-1.75085 -7.20313,-2.9414 -1.64755,-1.32302 -2.6629,-2.68422 -2.93945,-3.44922 -0.058,-0.15896 -0.0592,-0.23047 -0.0625,-0.23047 0.0215,-0.0464 0.22361,-0.40297 1.75196,-1.0918 2.39763,-1.07962 6.83984,-2.45125 13.97656,-4.3125 4.5022,-1.17563 16.36243,-4.17421 29.23828,-6.65625 12.08443,-2.32978 22.43692,-3.6747 32.58203,-4.23437 5.15627,-0.28565 10.70315,-0.38461 16.15625,-0.30078 z m 205.13476,50.83203 c 0.92397,-0.23182 3.14362,-0.1568 6.66408,0.0469 4.39446,0.25666 11.01403,0.77342 33.86327,3.65625 -0.56298,1.01502 -1.08052,1.98314 -1.55079,2.85742 -0.51164,0.95212 -0.96182,1.79455 -1.34765,2.4668 -0.8511,1.48529 -1.23422,1.86803 -1.72268,2.12305 -0.63749,0.33283 -1.6069,0.5054 -2.87694,0.51367 -1.41243,-0.0149 -3.08648,-0.17123 -6.21094,-0.51562 -2.84808,-0.31462 -7.15381,-0.78799 -10.28514,-1.42383 -2.86792,-0.57955 -4.84603,-1.29878 -7.05665,-2.56055 -1.68898,-0.96533 -3.71487,-2.35729 -6.02146,-4.14063 -1.43231,-1.10776 -2.45068,-1.9597 -3.11136,-2.60546 -0.18546,-0.18049 -0.30949,-0.31157 -0.39062,-0.4043 0.0148,-0.003 0.0301,-0.009 0.0469,-0.0137 z m 42.06444,32.37695 c -0.0662,9.77928 -0.28372,12.17447 -0.63474,12.87305 -0.11259,0.22685 -0.13307,0.26813 -1.24414,0.36914 -1.22036,0.10928 -2.99856,0.24032 -5.93948,0.27344 -0.82791,0.01 -1.74526,0.0104 -2.78513,0.0136 -2.15755,0.003 -4.98231,0.0106 -8.63673,0.0918 1.18395,-1.80157 2.76195,-4.08563 4.33986,-6.34766 1.64921,-2.3662 2.95176,-4.23426 4.19531,-5.37696 0.99353,-0.9107 2.04344,-1.49388 4.47266,-1.77539 1.57304,-0.18214 3.59469,-0.2221 6.23239,-0.12109 z"
       sodipodi:nodetypes="ccccccccccccccccccccccsccccccccccsccccccccccccsccccccccccccccccccscccccccscccccccsccccccccccccsccccccccccccccccccccscccccccscscccccccccccccccccccccccccsccscccccccccccccccccccccccsssccccscccccccsssccccccccss" />
    <path
       d="m 428.77018,270.67157 c -0.0263,-0.0396 -0.0331,-0.0859 -0.0639,-0.12336 -0.0199,-0.0242 -0.0485,-0.0352 -0.0705,-0.0573 -0.3172,-0.38546 -0.66522,-0.7379 -0.99997,-1.10793 -0.0246,-0.0374 -0.0263,-0.0815 -0.0551,-0.11894 -0.0947,-0.12996 -0.22025,-0.21807 -0.34144,-0.31498 -2.85468,-3.05296 -6.28002,-5.55082 -10.11901,-7.32607 -0.0881,-0.044 -0.1586,-0.11233 -0.25329,-0.14317 -0.0177,-0.007 -0.0354,0 -0.0529,-0.007 -0.46037,-0.20706 -0.9251,-0.4009 -1.39653,-0.58594 -0.044,-0.022 -0.0749,-0.0595 -0.12113,-0.0771 -0.0551,-0.022 -0.11457,-0.0132 -0.16962,-0.0309 -3.60359,-1.38108 -7.49578,-2.17187 -11.57948,-2.17187 -4.0816,0 -7.97622,0.79074 -11.57948,2.17187 -0.0573,0.0154 -0.11674,0.009 -0.17181,0.0309 -0.0462,0.0176 -0.0771,0.0551 -0.12114,0.0771 -0.47139,0.18502 -0.93618,0.37886 -1.39434,0.58594 -0.0176,0.005 -0.0374,0 -0.0551,0.007 -0.0969,0.0309 -0.16961,0.0991 -0.25771,0.14317 -3.83931,1.77756 -7.26911,4.27762 -10.12352,7.33509 -0.11674,0.0947 -0.24009,0.17841 -0.3326,0.30617 -0.0265,0.0374 -0.0309,0.0793 -0.0528,0.11674 -0.33481,0.37006 -0.68501,0.72692 -1.0022,1.11239 -0.0198,0.022 -0.0484,0.0331 -0.0683,0.0551 -0.0287,0.0353 -0.0374,0.0815 -0.0617,0.11895 -4.52652,5.5816 -7.25106,12.68075 -7.25106,20.41225 0,0.54407 0.055,1.07269 0.0815,1.61019 -0.005,0.0727 -0.0353,0.13657 -0.0309,0.21146 0.005,0.0727 0.0396,0.13216 0.0506,0.20265 0.31279,5.03537 1.75776,9.76037 4.11245,13.91906 0.0331,0.0573 0.0418,0.11895 0.0793,0.17401 0.0132,0.0198 0.0374,0.0265 0.0528,0.044 0.24009,0.41631 0.4912,0.82599 0.7489,1.23131 0.0309,0.0617 0.0353,0.12996 0.0749,0.18944 0.0418,0.0661 0.0991,0.11674 0.14758,0.174 4.31065,6.57045 10.93834,11.46501 18.71212,13.56212 0.0551,0.0198 0.0969,0.0617 0.1542,0.0771 0.0969,0.0265 0.19163,0.0287 0.28855,0.0374 2.56395,0.65423 5.23358,1.03745 7.99821,1.03745 2.76436,0 5.43404,-0.38548 7.99822,-1.03745 0.0947,-0.009 0.19163,-0.0132 0.28635,-0.0374 0.0573,-0.0154 0.0991,-0.0551 0.15419,-0.0771 7.77323,-2.09919 14.4012,-6.99336 18.7121,-13.56212 0.0485,-0.0573 0.10576,-0.10793 0.14764,-0.174 0.0373,-0.0595 0.0441,-0.12776 0.0749,-0.18944 0.25773,-0.40529 0.50885,-0.81499 0.7489,-1.23131 0.0153,-0.0176 0.0373,-0.0242 0.0529,-0.044 0.0399,-0.0528 0.0485,-0.11674 0.0793,-0.17401 2.35691,-4.15869 3.79969,-8.88578 4.11248,-13.91906 0.0136,-0.0705 0.0462,-0.12996 0.0507,-0.20265 0.006,-0.0749 -0.0263,-0.13877 -0.0309,-0.21146 0.0263,-0.53746 0.0815,-1.06609 0.0815,-1.61019 0.007,-7.72924 -2.71811,-14.82636 -7.24262,-20.40774 z"
       id="path21743"
       style="fill:#ff0ec0;stroke-width:0.563889;fill-opacity:1" />
    <path
       d="m 152.45307,270.82538 c -0.0263,-0.0396 -0.0331,-0.0859 -0.0639,-0.12336 -0.0199,-0.0242 -0.0485,-0.0352 -0.0705,-0.0573 -0.3172,-0.38546 -0.66522,-0.7379 -0.99997,-1.10793 -0.0246,-0.0374 -0.0263,-0.0815 -0.0551,-0.11894 -0.0947,-0.12996 -0.22025,-0.21807 -0.34144,-0.31498 -2.85468,-3.05296 -6.28002,-5.55082 -10.11901,-7.32607 -0.0881,-0.044 -0.1586,-0.11233 -0.25329,-0.14317 -0.0177,-0.007 -0.0354,0 -0.0529,-0.007 -0.46037,-0.20706 -0.9251,-0.4009 -1.39653,-0.58594 -0.044,-0.022 -0.0749,-0.0595 -0.12113,-0.0771 -0.0551,-0.022 -0.11457,-0.0132 -0.16962,-0.0309 -3.60359,-1.38108 -7.49578,-2.17187 -11.57948,-2.17187 -4.0816,0 -7.97622,0.79074 -11.57948,2.17187 -0.0573,0.0154 -0.11674,0.009 -0.17181,0.0309 -0.0462,0.0176 -0.0771,0.0551 -0.12114,0.0771 -0.47139,0.18502 -0.93618,0.37886 -1.39434,0.58594 -0.0176,0.005 -0.0374,0 -0.0551,0.007 -0.0969,0.0309 -0.16961,0.0991 -0.25771,0.14317 -3.83931,1.77756 -7.26911,4.27762 -10.12352,7.33509 -0.11674,0.0947 -0.24009,0.17841 -0.3326,0.30617 -0.0265,0.0374 -0.0309,0.0793 -0.0528,0.11674 -0.33481,0.37006 -0.68501,0.72692 -1.0022,1.11239 -0.0198,0.022 -0.0484,0.0331 -0.0683,0.0551 -0.0287,0.0353 -0.0374,0.0815 -0.0617,0.11895 -4.526523,5.5816 -7.251063,12.68075 -7.251063,20.41225 0,0.54407 0.055,1.07269 0.0815,1.61019 -0.005,0.0727 -0.0353,0.13657 -0.0309,0.21146 0.005,0.0727 0.0396,0.13216 0.0506,0.20265 0.31279,5.03537 1.75776,9.76037 4.11245,13.91906 0.0331,0.0573 0.0418,0.11895 0.0793,0.17401 0.0132,0.0198 0.0374,0.0265 0.0528,0.044 0.24009,0.41631 0.4912,0.82599 0.7489,1.23131 0.0309,0.0617 0.0353,0.12996 0.0749,0.18944 0.0418,0.0661 0.0991,0.11674 0.147583,0.174 4.31065,6.57045 10.93834,11.46501 18.71212,13.56212 0.0551,0.0198 0.0969,0.0617 0.1542,0.0771 0.0969,0.0265 0.19163,0.0287 0.28855,0.0374 2.56395,0.65423 5.23358,1.03745 7.99821,1.03745 2.76436,0 5.43404,-0.38548 7.99822,-1.03745 0.0947,-0.009 0.19163,-0.0132 0.28635,-0.0374 0.0573,-0.0154 0.0991,-0.0551 0.15419,-0.0771 7.77323,-2.09919 14.4012,-6.99336 18.7121,-13.56212 0.0485,-0.0573 0.10576,-0.10793 0.14764,-0.174 0.0373,-0.0595 0.0441,-0.12776 0.0749,-0.18944 0.25773,-0.40529 0.50885,-0.81499 0.7489,-1.23131 0.0153,-0.0176 0.0373,-0.0242 0.0529,-0.044 0.0399,-0.0528 0.0485,-0.11674 0.0793,-0.17401 2.35691,-4.15869 3.79969,-8.88578 4.11248,-13.91906 0.0136,-0.0705 0.0462,-0.12996 0.0507,-0.20265 0.006,-0.0749 -0.0263,-0.13877 -0.0309,-0.21146 0.0263,-0.53746 0.0815,-1.06609 0.0815,-1.61019 0.007,-7.72924 -2.71811,-14.82636 -7.24262,-20.40774 z"
       id="path21743-5"
       style="fill:#ff0ec0;stroke-width:0.563889;fill-opacity:1" />
  </g>
</svg>
