<?xml version="1.0" encoding="UTF-8" standalone="no"?>
<svg
   viewBox="0 0 512 512"
   style="height: 512px; width: 512px;"
   version="1.1"
   id="svg886"
   sodipodi:docname="bouncer.svg"
   inkscape:version="1.2.2 (b0a8486541, 2022-12-01)"
   xmlns:inkscape="http://www.inkscape.org/namespaces/inkscape"
   xmlns:sodipodi="http://sodipodi.sourceforge.net/DTD/sodipodi-0.dtd"
   xmlns="http://www.w3.org/2000/svg"
   xmlns:svg="http://www.w3.org/2000/svg">
  <sodipodi:namedview
     id="namedview888"
     pagecolor="#ffffff"
     bordercolor="#666666"
     borderopacity="1.0"
     inkscape:showpageshadow="2"
     inkscape:pageopacity="0.0"
     inkscape:pagecheckerboard="0"
     inkscape:deskcolor="#d1d1d1"
     showgrid="false"
     inkscape:zoom="1.84375"
     inkscape:cx="225.62712"
     inkscape:cy="209.35593"
     inkscape:window-width="1716"
     inkscape:window-height="1386"
     inkscape:window-x="1440"
     inkscape:window-y="702"
     inkscape:window-maximized="1"
     inkscape:current-layer="svg886" />
  <defs
     id="defs878">
    <filter
       id="shadow-1"
       height="1.1517236"
       width="1.1517246"
       x="-0.075862315"
       y="-0.075861805">
      <feFlood
         flood-color="rgba(58, 63, 94, 1)"
         result="flood"
         id="feFlood867" />
      <feComposite
         in="flood"
         in2="SourceGraphic"
         operator="out"
         result="composite"
         id="feComposite869" />
      <feGaussianBlur
         in="composite"
         stdDeviation="15"
         result="blur"
         id="feGaussianBlur871" />
      <feOffset
         dx="0"
         dy="0"
         result="offset"
         id="feOffset873" />
      <feComposite
         in2="SourceGraphic"
         in="offset"
         operator="atop"
         id="feComposite875" />
    </filter>
    <filter
       style="color-interpolation-filters:sRGB;"
       inkscape:label="Drop Shadow"
       id="filter2672"
       x="-0.036508511"
       y="-0.030096649"
       width="1.073017"
       height="1.0601933">
      <feFlood
         flood-opacity="1"
         flood-color="rgb(58,63,94)"
         result="flood"
         id="feFlood2662" />
      <feComposite
         in="flood"
         in2="SourceGraphic"
         operator="out"
         result="composite1"
         id="feComposite2664" />
      <feGaussianBlur
         in="composite1"
         stdDeviation="15"
         result="blur"
         id="feGaussianBlur2666" />
      <feOffset
         dx="0"
         dy="0"
         result="offset"
         id="feOffset2668" />
      <feComposite
         in="offset"
         in2="SourceGraphic"
         operator="atop"
         result="composite2"
         id="feComposite2670" />
    </filter>
  </defs>
  <path
     d="M0 0h512v512H0z"
     fill="#1b1f21"
     fill-opacity="0"
     id="path880" />
  <g
     id="g1518"
     transform="matrix(0.39873479,0,0,0.39873479,23.449267,15.992116)"
     style="fill:#ff0ec0;fill-opacity:1;filter:url(#filter2672)">
    <path
       id="path1510"
       d="M 369.18604,3.862793 C 258.21714,2.2172433 141.50533,164.55565 100.91162,249.32666 c -6.085893,12.72999 -18.12101,32.60528 -4.453124,43.17627 32.854964,25.44097 57.551564,66.5625 80.352544,100.23047 42.88695,63.34794 47.90232,124.06962 55.94531,198.78955 6.26559,58.34394 -0.46936,139.37945 26.65136,193.12939 33.94897,67.27294 81.70689,129.43077 124.83985,191.22071 37.41396,53.60495 72.87557,111.93035 115.29053,162.01025 21.38297,25.246 76.77696,51.0459 95.39795,8.1592 16.06598,-37.008 2.90232,-87.4214 -5.97657,-124.5894 -8.31639,-34.76594 -17.09014,-75.19128 -37.45312,-105.53025 -21.82798,-32.56597 -74.46151,-75.56179 -69.39551,-118.48974 10.78899,-91.53491 125.32999,67.99272 134.47998,82.1997 46.95695,72.71893 85.93447,149.75959 126.94043,225.72949 24.83998,45.984 59.95267,86.6642 115.59961,93.9492 62.90194,8.2695 84.15582,-60.1917 65.96484,-103.1806 -25.73797,-60.805 -54.25369,-111.35981 -77.40966,-169.94975 -3.4219,-8.64059 -39.76949,-91.24588 -9.25342,-85.85888 26.42597,4.66799 48.25357,37.65633 61.47656,57.44531 33.67197,50.44895 54.50433,108.87912 69.07031,167.03902 90.37091,-6.3359 79.99201,-141.49881 75.14501,-200.25875 -3.5664,-5.87499 -7.4883,-14.6569 -11.02,-20.44189 v 0.0337 c -25.559,-41.50796 -49.05515,-84.70691 -68.95313,-129.10986 29.79697,38.13696 57.18053,86.54317 82.89553,127.39013 6.6719,-37.33196 20.8788,-124.98952 24.9258,-151.47949 -34.453,-56.24194 -68.6992,-112.78022 -95.64115,-172.91016 29.64095,37.94497 74.25785,120.36 99.92575,160.95996 -2.8203,-5.26949 -13.8475,-103.4803 -17.5195,-137.03027 C 1054.4365,502.925 998.68535,465.67552 976.25537,437.56055 960.6387,402.60846 959.51477,386.48925 939.88623,354.25928 913.15226,311.28632 871.22125,291.16253 827.92529,265.26855 778.18711,238.40246 738.69274,174.59679 459.25195,49.117676 430.87792,17.64177 400.25732,4.3235469 369.18604,3.862793 Z M 587.58833,274.16016 h 94.34766 c 2.16854,0 4.18296,1.11756 5.33349,2.95605 1.14923,1.83833 1.26951,4.13934 0.3208,6.08789 l -79.57177,163.40918 36.2666,0.51709 c 2.19635,0.0315 4.21835,1.20595 5.33349,3.09815 v 10e-4 c 1.11383,1.89233 1.16074,4.22862 0.12158,6.16406 L 533.37593,673.396 c -0.53724,1.0024 -1.33673,1.83991 -2.31299,2.42431 -0.97622,0.5844 -2.09257,0.89209 -3.22998,0.89209 h -28.30518 c -2.07036,10e-4 -4.00851,-1.01558 -5.18261,-2.72168 -1.1728,-1.7048 -1.43194,-3.8797 -0.69288,-5.8125 l 62.78467,-164.43603 h -34.89404 c -1.99297,0.001 -3.86926,-0.94314 -5.05518,-2.54444 -1.18591,-1.60109 -1.54275,-3.66859 -0.96093,-5.57519 l 66.04541,-217.00342 c 0.39178,-1.28944 1.1881,-2.42086 2.2705,-3.22412 1.08367,-0.80195 2.39723,-1.23486 3.74561,-1.23486 z"
       style="fill:#ff0ec0;fill-opacity:1"
       sodipodi:nodetypes="sccccccccccccccccccccccccccccccccsssccccccccsscccccscccs" />
    <path
       d="m 835.36,848.63 c -0.44531,0 -0.81641,0.0469 -1.1875,0.12109 -5.2812,7.3789 16.066,73.441 92.832,232.84001 2.3047,-16.309 19.883,-15.816 33.07,-16.309 -39.672,-158.23001 -107.69,-216.65001 -124.71,-216.65001 z"
       id="path1516"
       style="fill:#ff0ec0;fill-opacity:1" />
  </g>
</svg>
