<?xml version="1.0" encoding="UTF-8" standalone="no"?>
<svg
   viewBox="0 0 512 512"
   style="height: 512px; width: 512px;"
   version="1.1"
   id="svg886"
   sodipodi:docname="range-trike.svg"
   inkscape:version="1.2.2 (b0a8486541, 2022-12-01)"
   xmlns:inkscape="http://www.inkscape.org/namespaces/inkscape"
   xmlns:sodipodi="http://sodipodi.sourceforge.net/DTD/sodipodi-0.dtd"
   xmlns="http://www.w3.org/2000/svg"
   xmlns:svg="http://www.w3.org/2000/svg">
  <sodipodi:namedview
     id="namedview888"
     pagecolor="#ffffff"
     bordercolor="#666666"
     borderopacity="1.0"
     inkscape:showpageshadow="2"
     inkscape:pageopacity="0.0"
     inkscape:pagecheckerboard="0"
     inkscape:deskcolor="#d1d1d1"
     showgrid="false"
     inkscape:zoom="1.3037281"
     inkscape:cx="60.595456"
     inkscape:cy="253.12026"
     inkscape:window-width="1716"
     inkscape:window-height="1386"
     inkscape:window-x="1440"
     inkscape:window-y="702"
     inkscape:window-maximized="1"
     inkscape:current-layer="svg886" />
  <defs
     id="defs878">
    <filter
       id="shadow-1"
       height="1.1517236"
       width="1.1517246"
       x="-0.075862315"
       y="-0.075861805">
      <feFlood
         flood-color="rgba(58, 63, 94, 1)"
         result="flood"
         id="feFlood867" />
      <feComposite
         in="flood"
         in2="SourceGraphic"
         operator="out"
         result="composite"
         id="feComposite869" />
      <feGaussianBlur
         in="composite"
         stdDeviation="15"
         result="blur"
         id="feGaussianBlur871" />
      <feOffset
         dx="0"
         dy="0"
         result="offset"
         id="feOffset873" />
      <feComposite
         in2="SourceGraphic"
         in="offset"
         operator="atop"
         id="feComposite875" />
    </filter>
    <filter
       style="color-interpolation-filters:sRGB;"
       inkscape:label="Drop Shadow"
       id="filter2672"
       x="-0.036508511"
       y="-0.030096649"
       width="1.073017"
       height="1.0601933">
      <feFlood
         flood-opacity="1"
         flood-color="rgb(58,63,94)"
         result="flood"
         id="feFlood2662" />
      <feComposite
         in="flood"
         in2="SourceGraphic"
         operator="out"
         result="composite1"
         id="feComposite2664" />
      <feGaussianBlur
         in="composite1"
         stdDeviation="15"
         result="blur"
         id="feGaussianBlur2666" />
      <feOffset
         dx="0"
         dy="0"
         result="offset"
         id="feOffset2668" />
      <feComposite
         in="offset"
         in2="SourceGraphic"
         operator="atop"
         result="composite2"
         id="feComposite2670" />
    </filter>
    <filter
       style="color-interpolation-filters:sRGB;"
       inkscape:label="Drop Shadow"
       id="filter3258"
       x="-0.033333307"
       y="-0.036846098"
       width="1.0666666"
       height="1.0736922">
      <feFlood
         flood-opacity="1"
         flood-color="rgb(58,63,94)"
         result="flood"
         id="feFlood3248" />
      <feComposite
         in="flood"
         in2="SourceGraphic"
         operator="out"
         result="composite1"
         id="feComposite3250" />
      <feGaussianBlur
         in="composite1"
         stdDeviation="15"
         result="blur"
         id="feGaussianBlur3252" />
      <feOffset
         dx="0"
         dy="0"
         result="offset"
         id="feOffset3254" />
      <feComposite
         in="offset"
         in2="SourceGraphic"
         operator="atop"
         result="composite2"
         id="feComposite3256" />
    </filter>
    <filter
       style="color-interpolation-filters:sRGB;"
       inkscape:label="Drop Shadow"
       id="filter4517"
       x="-0.04755843"
       y="-0.048809898"
       width="1.0951169"
       height="1.0976198">
      <feFlood
         flood-opacity="1"
         flood-color="rgb(58,63,94)"
         result="flood"
         id="feFlood4507" />
      <feComposite
         in="flood"
         in2="SourceGraphic"
         operator="out"
         result="composite1"
         id="feComposite4509" />
      <feGaussianBlur
         in="composite1"
         stdDeviation="10"
         result="blur"
         id="feGaussianBlur4511" />
      <feOffset
         dx="0"
         dy="0"
         result="offset"
         id="feOffset4513" />
      <feComposite
         in="offset"
         in2="SourceGraphic"
         operator="atop"
         result="composite2"
         id="feComposite4515" />
    </filter>
    <filter
       style="color-interpolation-filters:sRGB;"
       inkscape:label="Drop Shadow"
       id="filter5154"
       x="-0.073142173"
       y="-0.051090164"
       width="1.1462843"
       height="1.1021803">
      <feFlood
         flood-opacity="1"
         flood-color="rgb(58,63,94)"
         result="flood"
         id="feFlood5144" />
      <feComposite
         in="flood"
         in2="SourceGraphic"
         operator="out"
         result="composite1"
         id="feComposite5146" />
      <feGaussianBlur
         in="composite1"
         stdDeviation="10"
         result="blur"
         id="feGaussianBlur5148" />
      <feOffset
         dx="0"
         dy="0"
         result="offset"
         id="feOffset5150" />
      <feComposite
         in="offset"
         in2="SourceGraphic"
         operator="atop"
         result="composite2"
         id="feComposite5152" />
    </filter>
    <filter
       style="color-interpolation-filters:sRGB;"
       inkscape:label="Drop Shadow"
       id="filter5778"
       x="-0.050442997"
       y="-0.092707304"
       width="1.100886"
       height="1.1854146">
      <feFlood
         flood-opacity="1"
         flood-color="rgb(58,63,94)"
         result="flood"
         id="feFlood5768" />
      <feComposite
         in="flood"
         in2="SourceGraphic"
         operator="out"
         result="composite1"
         id="feComposite5770" />
      <feGaussianBlur
         in="composite1"
         stdDeviation="10"
         result="blur"
         id="feGaussianBlur5772" />
      <feOffset
         dx="0"
         dy="0"
         result="offset"
         id="feOffset5774" />
      <feComposite
         in="offset"
         in2="SourceGraphic"
         operator="atop"
         result="composite2"
         id="feComposite5776" />
    </filter>
    <clipPath
       id="a">
      <path
         d="M 222.14,222.14 H 977.85 V 977.85 H 222.14 Z"
         id="path6679" />
    </clipPath>
    <clipPath
       id="a-5">
      <path
         d="M 222.14,222.14 H 977.85 V 977.85 H 222.14 Z"
         id="path6679-3" />
    </clipPath>
    <filter
       style="color-interpolation-filters:sRGB;"
       inkscape:label="Drop Shadow"
       id="filter8128"
       x="-0.024815066"
       y="-0.034133157"
       width="1.0496301"
       height="1.0682663">
      <feFlood
         flood-opacity="1"
         flood-color="rgb(58,63,94)"
         result="flood"
         id="feFlood8118" />
      <feComposite
         in="flood"
         in2="SourceGraphic"
         operator="out"
         result="composite1"
         id="feComposite8120" />
      <feGaussianBlur
         in="composite1"
         stdDeviation="8"
         result="blur"
         id="feGaussianBlur8122" />
      <feOffset
         dx="0"
         dy="0"
         result="offset"
         id="feOffset8124" />
      <feComposite
         in="offset"
         in2="SourceGraphic"
         operator="atop"
         result="composite2"
         id="feComposite8126" />
    </filter>
    <filter
       style="color-interpolation-filters:sRGB;"
       inkscape:label="Drop Shadow"
       id="filter8847"
       x="-0.048587655"
       y="-0.064923958"
       width="1.0971753"
       height="1.1298479">
      <feFlood
         flood-opacity="1"
         flood-color="rgb(58,63,94)"
         result="flood"
         id="feFlood8837" />
      <feComposite
         in="flood"
         in2="SourceGraphic"
         operator="out"
         result="composite1"
         id="feComposite8839" />
      <feGaussianBlur
         in="composite1"
         stdDeviation="8"
         result="blur"
         id="feGaussianBlur8841" />
      <feOffset
         dx="0"
         dy="0"
         result="offset"
         id="feOffset8843" />
      <feComposite
         in="offset"
         in2="SourceGraphic"
         operator="atop"
         result="composite2"
         id="feComposite8845" />
    </filter>
    <filter
       style="color-interpolation-filters:sRGB;"
       inkscape:label="Drop Shadow"
       id="filter12345"
       x="-0.039991397"
       y="-0.073441413"
       width="1.0799828"
       height="1.1468828">
      <feFlood
         flood-opacity="1"
         flood-color="rgb(58,63,94)"
         result="flood"
         id="feFlood12335" />
      <feComposite
         in="flood"
         in2="SourceGraphic"
         operator="out"
         result="composite1"
         id="feComposite12337" />
      <feGaussianBlur
         in="composite1"
         stdDeviation="8"
         result="blur"
         id="feGaussianBlur12339" />
      <feOffset
         dx="0"
         dy="0"
         result="offset"
         id="feOffset12341" />
      <feComposite
         in="offset"
         in2="SourceGraphic"
         operator="atop"
         result="composite2"
         id="feComposite12343" />
    </filter>
  </defs>
  <path
     d="M 0.35858051,-0.2092161 H 512.35858 V 511.79078 H 0.35858051 Z"
     fill="#1b1f21"
     fill-opacity="0"
     id="path880" />
  <g
     clip-path="url(#a-5)"
     id="g6686"
     transform="matrix(0.51260194,0,0,0.51260194,-62.643019,-31.742847)"
     style="fill:#ffffff" />
  <path
     d="m 477.67396,280.87596 c 8.43791,1.50482 12.34661,-3.49207 12.34661,-4.34674 0,-0.99841 -3.99362,-7.98884 -7.98877,-7.32266 -3.99524,0.66613 -12.64888,-4.99206 -15.97603,-6.65649 -3.15028,-1.57512 -30.16828,-14.1681 -60.4307,2.28276 -0.80668,-1.3243 -1.22684,-2.13902 -1.14372,-2.28276 1.16453,-1.99683 -0.66619,-4.65999 -0.66619,-4.65999 l -19.3883,-28.70792 -0.34512,0.10068 c -0.22684,-0.65657 -0.32421,-1.37064 0.42815,-1.18211 1.33228,0.33227 4.82605,3.16299 8.48739,2.66296 3.66135,-0.50002 10.15179,-6.49045 10.15179,-18.80681 0,-12.31472 -2.66296,-18.47312 -5.82425,-18.47312 -2.11665,0 -7.2143,0.75562 -12.15036,3.34351 -4.00965,-9.32121 -10.85315,-24.27654 -16.49217,-36.36798 -16.68885,-35.78971 -16.68395,-35.7942 -19.15359,-34.97467 -2.79555,0.93291 -4.81458,2.73805 -6.00013,5.36912 -3.81951,8.46977 2.43771,23.19689 5.44559,30.27501 l 0.21884,0.51437 c 5.84022,13.7751 11.16805,27.32608 15.28617,38.13137 -0.57507,0.24282 -1.16776,0.57507 -1.76998,1.03194 -2.68374,2.03036 -3.99205,3.01123 -3.99205,3.01123 0,0 -21.91892,-37.78621 -23.88189,-41.38579 -3.43294,-6.29415 -9.36742,-6.81311 -13.06557,-5.2268 l -2.33068,0.99842 c 0,0 -2.33069,-2.49526 -3.49526,-1.83071 -1.16457,0.66614 -5.32576,2.99523 -5.32576,2.99523 0,0 -0.9984,1.83072 -0.50002,2.33069 0.50002,0.50003 -7.3881,3.88025 -7.3881,3.88025 0,0 -2.48565,-0.62942 -3.54957,0 -1.06552,0.62942 -1.59744,3.98727 -0.35464,6.08477 1.24284,2.09907 4.26045,2.51922 5.14869,0.83868 0.8866,-1.67895 7.97616,-4.81458 7.97616,-4.81458 0,0 1.83071,2.49525 2.82913,2.49525 0.99841,0 3.3275,-1.66455 4.65998,-1.83069 1.33069,-0.16615 3.99525,-3.163 3.99525,-3.163 0,0 -0.3163,-1.87221 1.49844,-2.16298 2.7061,-0.43291 3.52401,0.0575 5.65005,3.3291 8.35936,12.86272 23.8819,41.22221 23.8819,41.22221 0,0 -3.57035,1.71408 -2.73964,3.7109 0.83229,1.99683 1.16456,6.32442 1.16456,6.32442 0,0 -3.16299,4.15984 -4.32751,4.32752 -1.16456,0.16613 -17.47446,-28.12475 -17.97297,-28.6249 -0.50002,-0.50002 -1.99681,-1.99683 -3.82753,-0.8323 -1.8307,1.16457 -11.98266,6.82294 -11.98266,6.82294 0,0 -2.82912,1.49842 -2.16298,2.66295 0.66614,1.16457 1.99683,1.99682 1.49844,2.82912 -0.50002,0.8323 -1.16457,1.49845 -1.99683,0.66615 -0.83224,-0.8323 -2.16297,-2.3307 -3.66137,-1.66456 -1.49843,0.66614 -11.81662,6.65649 -11.81662,6.65649 0,0 -1.99682,0.66613 -1.49844,1.99683 0.50003,1.33068 2.49526,2.82911 0,4.15983 -2.49525,1.3307 -24.79753,2.33069 -40.27344,21.96841 -1.77318,2.24923 -1.33069,-0.16613 -2.66296,-0.50001 -1.33229,-0.33228 -9.15354,-1.16458 -17.30843,1.99681 -8.15488,3.16299 -12.31472,6.15839 -15.47632,6.99061 -3.16298,0.83229 -3.25884,2.5799 -7.65515,-1.33228 -12.42514,-11.05597 -22.50168,-13.39476 -24.16487,-13.39476 -1.66456,0 4.49354,-3.49526 1.99682,-9.81809 -2.49525,-6.32442 -8.82106,-7.4887 -16.47621,-7.15663 -7.65515,0.33206 -22.17616,1.22047 -33.11845,0.33227 -6.15838,-0.50002 -4.32588,-0.83229 -6.32441,-0.50002 -1.99682,0.33227 -2.66297,-6.1584 -2.66297,-6.65649 0,-0.50003 1.49844,0.16614 3.3275,-2.66297 1.83072,-2.82911 3.99365,-17.70632 2.99524,-23.8643 -0.99841,-6.15839 -5.10697,-14.85635 -11.81499,-13.41398 -2.93294,0.62942 -10.48426,3.16298 -11.64854,4.49355 -1.16456,1.33067 -2.33069,4.65999 -1.83071,8.15488 0.17253,1.19969 0.67894,3.28599 1.33547,5.64393 l -46.399519,0.002 c -1.218882,0 -2.207681,0.98884 -2.207681,2.20768 0,1.22047 0.988846,2.20767 2.207681,2.20767 h 23.79723 c -7.709528,1.33867 -15.634164,3.61504 -21.666189,7.47603 -16.974722,10.86132 -20.470014,23.35188 -20.470014,27.15227 0,3.54479 4.348364,17.47323 25.987572,19.33886 -24.327643,12.64884 -35.525942,32.1345 -43.463261,64.53239 -3.308325,13.50477 -14.811773,23.29914 -14.811773,23.29914 0,0 -1.33069,1.66454 0.832297,1.66454 0.573467,0 12.356433,0.0926 29.410902,0.23003 5.83245,29.47961 31.824523,51.7118 63.015175,51.7118 30.83282,0 56.5783,-21.72223 62.80253,-50.69351 6.65648,0.0527 10.72678,0.0831 11.0576,0.0831 2.16459,0 12.31473,-0.16613 12.31473,-0.16613 0,0 3.82754,-1.66455 3.82754,-0.16614 0,1.49844 -1.33229,3.16298 -0.66615,5.15809 0.66615,1.99682 2.82913,3.66137 7.82118,3.66137 4.99207,0 102.18447,1.83071 108.34326,1.83071 6.15879,0 22.13445,-2.82911 26.96047,-24.79752 4.82603,-21.96841 13.81312,-65.90238 13.81312,-65.90238 0,0 2.82912,-1.83071 2.82912,-2.99523 0,-1.16457 -0.8323,-5.82429 0.83229,-6.49045 0.78437,-0.31471 6.369,-3.87706 12.05914,-7.55904 6.35632,8.87872 19.47303,27.19029 20.22708,28.19509 0.99838,1.33227 3.66144,1.66454 3.66144,1.66454 l 1.34662,1.893 c -28.38688,21.16973 -25.60398,54.14095 -24.64581,65.00677 0.99842,11.31647 -3.66138,9.31957 -3.99524,11.31647 -0.33227,1.99683 2.33069,5.65825 11.98267,6.32443 5.26684,0.36262 8.24604,-2.04795 9.87242,-4.31648 9.44275,17.81797 28.16647,29.96216 49.73658,29.96216 31.07206,0 56.25934,-25.18888 56.25934,-56.25931 0,-16.4762 -7.08795,-31.29902 -18.3787,-41.59027 z M 109.61039,359.7257 c -16.093033,0 -29.802276,-10.2029 -35.011478,-24.49409 4.699655,0.0383 9.52077,0.0783 14.396275,0.11663 4.297253,6.86258 11.921733,11.42975 20.615203,11.42975 8.55278,0 16.06889,-4.42035 20.40295,-11.0977 4.98878,0.04 9.81481,0.0799 14.39014,0.11663 -5.36419,13.9906 -18.9156,23.9285 -34.79268,23.9285 z M 348.8955,258.05243 c 0,0 -10.65031,49.09451 -11.48252,53.58888 -0.83229,4.49355 -1.99682,6.15839 -4.32752,5.99031 -2.33069,-0.16614 -2.82911,-6.99061 -2.82911,-8.6534 0,-1.66456 -3.82752,-0.50002 -3.82752,-0.50002 0,0 7.15663,-10.31783 10.65028,-15.31152 3.49526,-4.99206 4.15985,-13.48106 4.15985,-13.48106 0,0 -0.16613,-5.32576 2.16297,-9.4856 2.33069,-4.15984 0.8323,-6.82293 0.8323,-6.82293 l -12.31472,-5.4922 c 0,0 2.33069,-0.66615 3.82752,0.16613 1.49844,0.8323 12.48119,-2.16298 12.48119,-2.16298 1.66613,-0.16454 0.66772,2.16458 0.66772,2.16458 z m 4.14225,-98.65113 c -2.32749,-5.47789 -8.50985,-20.02589 -5.48565,-26.73186 0.42653,-0.94252 1.02875,-1.68373 1.82269,-2.23324 4.57533,8.68202 24.45401,51.14743 32.029,68.81819 -1.08307,0.84664 -2.11664,1.79395 -3.05274,2.88502 -5.99031,6.9906 -5.82427,2.33069 -5.82427,2.33069 0,0 -0.50002,-5.32576 -1.99681,-5.15809 -0.40576,0.0448 -0.92493,-0.009 -1.52561,-0.0623 -4.18519,-11.01141 -9.69335,-25.05477 -15.74622,-39.32796 z m 86.75474,199.68644 c -20.22377,0 -36.62024,-16.39483 -36.62024,-36.61865 0,-10.57219 4.48579,-20.08969 11.6485,-26.77522 l 9.49214,13.3371 c -3.12937,3.60069 -5.03827,8.29066 -5.03827,13.43771 0,11.33078 9.18551,20.51459 20.51464,20.51459 11.33075,0 20.51455,-9.18544 20.51455,-20.51459 0,-11.3308 -9.18542,-20.5146 -20.51455,-20.5146 -2.64861,0 -5.1724,0.51916 -7.4969,1.43292 -2.94889,-4.14061 -6.22997,-8.76053 -9.47457,-13.36614 5.07342,-2.65817 10.84533,-4.17088 16.97147,-4.17088 20.22387,0 36.62024,16.39482 36.62024,36.61865 0,20.22383 -16.39314,36.61866 -36.61701,36.61866 z"
     id="path11820"
     style="fill:#ff0ec0;fill-opacity:1;stroke-width:0.40895;filter:url(#filter12345)" />
</svg>
