<?xml version="1.0" encoding="UTF-8" standalone="no"?>
<svg
   viewBox="0 0 512 512"
   style="height: 512px; width: 512px;"
   version="1.1"
   id="svg886"
   sodipodi:docname="reflex-co-processor.svg"
   inkscape:version="1.2.2 (b0a8486541, 2022-12-01)"
   xmlns:inkscape="http://www.inkscape.org/namespaces/inkscape"
   xmlns:sodipodi="http://sodipodi.sourceforge.net/DTD/sodipodi-0.dtd"
   xmlns="http://www.w3.org/2000/svg"
   xmlns:svg="http://www.w3.org/2000/svg">
  <sodipodi:namedview
     id="namedview888"
     pagecolor="#ffffff"
     bordercolor="#666666"
     borderopacity="1.0"
     inkscape:showpageshadow="2"
     inkscape:pageopacity="0.0"
     inkscape:pagecheckerboard="0"
     inkscape:deskcolor="#d1d1d1"
     showgrid="false"
     inkscape:zoom="0.65186405"
     inkscape:cx="254.65433"
     inkscape:cy="487.83178"
     inkscape:window-width="1716"
     inkscape:window-height="1386"
     inkscape:window-x="1440"
     inkscape:window-y="702"
     inkscape:window-maximized="1"
     inkscape:current-layer="svg886" />
  <defs
     id="defs878">
    <filter
       id="shadow-1"
       height="1.1517236"
       width="1.1517246"
       x="-0.075862315"
       y="-0.075861805">
      <feFlood
         flood-color="rgba(58, 63, 94, 1)"
         result="flood"
         id="feFlood867" />
      <feComposite
         in="flood"
         in2="SourceGraphic"
         operator="out"
         result="composite"
         id="feComposite869" />
      <feGaussianBlur
         in="composite"
         stdDeviation="15"
         result="blur"
         id="feGaussianBlur871" />
      <feOffset
         dx="0"
         dy="0"
         result="offset"
         id="feOffset873" />
      <feComposite
         in2="SourceGraphic"
         in="offset"
         operator="atop"
         id="feComposite875" />
    </filter>
    <filter
       style="color-interpolation-filters:sRGB;"
       inkscape:label="Drop Shadow"
       id="filter2672"
       x="-0.036508511"
       y="-0.030096649"
       width="1.073017"
       height="1.0601933">
      <feFlood
         flood-opacity="1"
         flood-color="rgb(58,63,94)"
         result="flood"
         id="feFlood2662" />
      <feComposite
         in="flood"
         in2="SourceGraphic"
         operator="out"
         result="composite1"
         id="feComposite2664" />
      <feGaussianBlur
         in="composite1"
         stdDeviation="15"
         result="blur"
         id="feGaussianBlur2666" />
      <feOffset
         dx="0"
         dy="0"
         result="offset"
         id="feOffset2668" />
      <feComposite
         in="offset"
         in2="SourceGraphic"
         operator="atop"
         result="composite2"
         id="feComposite2670" />
    </filter>
    <filter
       style="color-interpolation-filters:sRGB;"
       inkscape:label="Drop Shadow"
       id="filter3258"
       x="-0.033333307"
       y="-0.036846098"
       width="1.0666666"
       height="1.0736922">
      <feFlood
         flood-opacity="1"
         flood-color="rgb(58,63,94)"
         result="flood"
         id="feFlood3248" />
      <feComposite
         in="flood"
         in2="SourceGraphic"
         operator="out"
         result="composite1"
         id="feComposite3250" />
      <feGaussianBlur
         in="composite1"
         stdDeviation="15"
         result="blur"
         id="feGaussianBlur3252" />
      <feOffset
         dx="0"
         dy="0"
         result="offset"
         id="feOffset3254" />
      <feComposite
         in="offset"
         in2="SourceGraphic"
         operator="atop"
         result="composite2"
         id="feComposite3256" />
    </filter>
    <filter
       style="color-interpolation-filters:sRGB;"
       inkscape:label="Drop Shadow"
       id="filter4517"
       x="-0.04755843"
       y="-0.048809898"
       width="1.0951169"
       height="1.0976198">
      <feFlood
         flood-opacity="1"
         flood-color="rgb(58,63,94)"
         result="flood"
         id="feFlood4507" />
      <feComposite
         in="flood"
         in2="SourceGraphic"
         operator="out"
         result="composite1"
         id="feComposite4509" />
      <feGaussianBlur
         in="composite1"
         stdDeviation="10"
         result="blur"
         id="feGaussianBlur4511" />
      <feOffset
         dx="0"
         dy="0"
         result="offset"
         id="feOffset4513" />
      <feComposite
         in="offset"
         in2="SourceGraphic"
         operator="atop"
         result="composite2"
         id="feComposite4515" />
    </filter>
    <filter
       style="color-interpolation-filters:sRGB;"
       inkscape:label="Drop Shadow"
       id="filter5154"
       x="-0.073142173"
       y="-0.051090164"
       width="1.1462843"
       height="1.1021803">
      <feFlood
         flood-opacity="1"
         flood-color="rgb(58,63,94)"
         result="flood"
         id="feFlood5144" />
      <feComposite
         in="flood"
         in2="SourceGraphic"
         operator="out"
         result="composite1"
         id="feComposite5146" />
      <feGaussianBlur
         in="composite1"
         stdDeviation="10"
         result="blur"
         id="feGaussianBlur5148" />
      <feOffset
         dx="0"
         dy="0"
         result="offset"
         id="feOffset5150" />
      <feComposite
         in="offset"
         in2="SourceGraphic"
         operator="atop"
         result="composite2"
         id="feComposite5152" />
    </filter>
    <filter
       style="color-interpolation-filters:sRGB;"
       inkscape:label="Drop Shadow"
       id="filter1509"
       x="-0.032142857"
       y="-0.032142857"
       width="1.0642857"
       height="1.0642857">
      <feFlood
         flood-opacity="1"
         flood-color="rgb(58,63,94)"
         result="flood"
         id="feFlood1499" />
      <feComposite
         in="flood"
         in2="SourceGraphic"
         operator="out"
         result="composite1"
         id="feComposite1501" />
      <feGaussianBlur
         in="composite1"
         stdDeviation="15"
         result="blur"
         id="feGaussianBlur1503" />
      <feOffset
         dx="0"
         dy="0"
         result="offset"
         id="feOffset1505" />
      <feComposite
         in="offset"
         in2="SourceGraphic"
         operator="atop"
         result="composite2"
         id="feComposite1507" />
    </filter>
    <filter
       style="color-interpolation-filters:sRGB;"
       inkscape:label="Drop Shadow"
       id="filter2807"
       x="-0.076283954"
       y="-0.09746786"
       width="1.1525679"
       height="1.1949357">
      <feFlood
         flood-opacity="1"
         flood-color="rgb(58,63,94)"
         result="flood"
         id="feFlood2797" />
      <feComposite
         in="flood"
         in2="SourceGraphic"
         operator="out"
         result="composite1"
         id="feComposite2799" />
      <feGaussianBlur
         in="composite1"
         stdDeviation="15"
         result="blur"
         id="feGaussianBlur2801" />
      <feOffset
         dx="0"
         dy="0"
         result="offset"
         id="feOffset2803" />
      <feComposite
         in="offset"
         in2="SourceGraphic"
         operator="atop"
         result="composite2"
         id="feComposite2805" />
    </filter>
    <filter
       style="color-interpolation-filters:sRGB;"
       inkscape:label="Drop Shadow"
       id="filter6126"
       x="-0.039999556"
       y="-0.034285714"
       width="1.0799991"
       height="1.0685714">
      <feFlood
         flood-opacity="1"
         flood-color="rgb(58,63,94)"
         result="flood"
         id="feFlood6116" />
      <feComposite
         in="flood"
         in2="SourceGraphic"
         operator="out"
         result="composite1"
         id="feComposite6118" />
      <feGaussianBlur
         in="composite1"
         stdDeviation="15"
         result="blur"
         id="feGaussianBlur6120" />
      <feOffset
         dx="0"
         dy="0"
         result="offset"
         id="feOffset6122" />
      <feComposite
         in="offset"
         in2="SourceGraphic"
         operator="atop"
         result="composite2"
         id="feComposite6124" />
    </filter>
    <filter
       style="color-interpolation-filters:sRGB;"
       inkscape:label="Drop Shadow"
       id="filter8293"
       x="-0.029998775"
       y="-0.043499701"
       width="1.0599976"
       height="1.0869994">
      <feFlood
         flood-opacity="1"
         flood-color="rgb(58,63,94)"
         result="flood"
         id="feFlood8283" />
      <feComposite
         in="flood"
         in2="SourceGraphic"
         operator="out"
         result="composite1"
         id="feComposite8285" />
      <feGaussianBlur
         in="composite1"
         stdDeviation="15"
         result="blur"
         id="feGaussianBlur8287" />
      <feOffset
         dx="0"
         dy="0"
         result="offset"
         id="feOffset8289" />
      <feComposite
         in="offset"
         in2="SourceGraphic"
         operator="atop"
         result="composite2"
         id="feComposite8291" />
    </filter>
    <filter
       style="color-interpolation-filters:sRGB;"
       inkscape:label="Drop Shadow"
       id="filter9605"
       x="-0.049809889"
       y="-0.051063406"
       width="1.0996198"
       height="1.1021268">
      <feFlood
         flood-opacity="1"
         flood-color="rgb(58,63,94)"
         result="flood"
         id="feFlood9595" />
      <feComposite
         in="flood"
         in2="SourceGraphic"
         operator="out"
         result="composite1"
         id="feComposite9597" />
      <feGaussianBlur
         in="composite1"
         stdDeviation="10"
         result="blur"
         id="feGaussianBlur9599" />
      <feOffset
         dx="0"
         dy="0"
         result="offset"
         id="feOffset9601" />
      <feComposite
         in="offset"
         in2="SourceGraphic"
         operator="atop"
         result="composite2"
         id="feComposite9603" />
    </filter>
  </defs>
  <path
     d="M0 0h512v512H0z"
     fill="#1b1f21"
     fill-opacity="0"
     id="path880" />
  <path
     id="path8392"
     style="fill:#ff0ec0;fill-opacity:1;stroke-width:0.428148;filter:url(#filter9605)"
     d="M 345.68945 20.998047 C 339.01809 20.998047 333.58789 26.374351 333.58789 32.978516 C 333.58789 38.241722 336.97274 42.71789 341.67578 44.376953 L 341.67578 90.390625 L 317.61914 114.50195 L 316.7207 115.33789 L 296.95508 115.33789 L 313.41797 98.917969 C 313.69058 98.688839 313.94219 98.432735 314.14453 98.136719 L 323.90234 88.4375 C 324.65995 87.683234 325.08594 86.65854 325.08594 85.589844 L 325.08594 79.138672 C 329.78697 77.49467 333.16992 73.063448 333.16992 67.855469 C 333.16992 61.215762 327.74364 55.816406 321.07227 55.816406 C 314.43255 55.816406 309.03125 61.215762 309.03125 67.855469 C 309.03125 73.056603 312.39086 77.481627 317.05859 79.130859 L 317.05859 83.919922 L 310.82031 90.121094 L 297.08594 76.384766 L 297.08594 59.035156 C 301.75358 57.377765 305.11133 52.931464 305.11133 47.705078 C 305.11133 41.068811 299.71025 35.666016 293.07227 35.666016 C 286.43425 35.666016 281.03125 41.067093 281.03125 47.705078 C 281.03125 52.931464 284.39087 57.379519 289.05859 59.035156 L 289.05859 78.050781 C 289.05859 79.116147 289.48176 80.136076 290.23438 80.888672 L 305.16016 95.818359 L 285.58594 115.33984 L 261.16016 115.33984 L 277.50781 98.988281 C 278.26041 98.235685 278.68359 97.214087 278.68359 96.150391 L 278.68555 60.3125 C 278.68555 58.096495 276.88593 56.298828 274.66992 56.298828 C 272.45391 56.298828 270.65625 58.096495 270.65625 60.3125 L 270.65625 94.488281 L 260.94727 104.20117 L 260.94531 47.757812 C 265.61127 46.098749 268.96484 41.64998 268.96484 36.421875 C 268.96484 29.782173 263.56595 24.378906 256.92969 24.378906 C 250.28997 24.378906 244.89063 29.782173 244.89062 36.421875 C 244.89062 41.651698 248.24826 46.098749 252.91602 47.757812 L 252.91602 104.83008 L 242.60156 94.492188 L 242.60156 60.314453 C 242.60156 58.098447 240.80196 56.300781 238.58594 56.300781 C 236.36994 56.300781 234.57227 58.098447 234.57227 60.314453 L 234.57227 96.150391 C 234.57227 97.212397 234.99488 98.231779 235.74414 98.984375 L 252.04102 115.3418 L 227.60938 115.3418 L 208.06836 95.833984 L 222.9668 80.884766 C 223.71774 80.133836 224.13672 79.112807 224.13672 78.050781 L 224.13672 59.042969 C 228.83775 57.390582 232.2207 52.937891 232.2207 47.705078 C 232.2207 41.068802 226.79443 35.667969 220.12305 35.667969 C 213.48505 35.667969 208.08398 41.067084 208.08398 47.705078 C 208.08398 52.931465 211.44333 57.381464 216.10938 59.037109 L 216.10938 76.394531 L 202.38477 90.166016 L 196.14062 83.931641 L 196.14062 79.136719 C 200.8083 77.487663 204.16406 73.062454 204.16406 67.861328 C 204.16406 61.221635 198.76298 55.820312 192.125 55.820312 C 185.48531 55.820312 180.08594 61.221635 180.08594 67.861328 C 180.08594 73.062454 183.44356 77.487493 188.11133 79.136719 L 188.11133 85.595703 C 188.11133 86.661069 188.5345 87.681008 189.28711 88.433594 L 199.4668 98.595703 C 199.4969 98.627503 199.51713 98.663846 199.54883 98.697266 C 199.58063 98.729066 199.61892 98.749097 199.65234 98.779297 L 216.24609 115.34375 L 196.53516 115.34375 L 195.63867 114.50781 L 171.58008 90.394531 L 171.58398 44.373047 C 176.25166 42.707294 179.60937 38.236821 179.60938 32.980469 C 179.60938 26.37415 174.20633 21.001953 167.56836 21.001953 C 160.93038 21.001953 155.5293 26.376304 155.5293 32.980469 C 155.5293 38.235103 158.88694 42.705839 163.55469 44.373047 L 163.55469 92.052734 C 163.55469 93.11474 163.97757 94.132176 164.72852 94.884766 L 185.13281 115.3418 L 133.05273 115.3418 C 127.19741 115.3418 121.6697 117.64474 117.51367 121.80078 C 113.31417 125.92171 111.00195 131.47969 111.00195 137.45703 L 111.00195 186.03516 L 89.027344 164.0625 C 88.274748 163.30991 87.253139 162.88672 86.189453 162.88672 L 38.458984 162.88672 C 36.809938 158.21733 32.38319 154.85938 27.181641 154.85938 C 20.510247 154.85938 15.083984 160.26069 15.083984 166.90039 C 15.083984 173.50154 20.510247 178.87305 27.181641 178.87305 C 32.376336 178.87305 36.797489 175.54518 38.453125 170.91406 L 84.529297 170.91406 L 110.38672 196.76562 C 110.57905 196.95795 110.78677 197.12794 111.00586 197.27344 L 111.00586 217.10938 L 92.775391 198.875 C 92.773391 198.873 92.773437 198.87309 92.773438 198.87109 C 92.771438 198.86909 92.771531 198.86914 92.769531 198.86914 L 82.513672 188.61133 C 81.761076 187.85873 80.739477 187.43555 79.675781 187.43555 L 73.275391 187.43555 C 71.626341 182.77088 67.199609 179.41406 61.998047 179.41406 C 55.328375 179.41406 49.898438 184.81467 49.898438 191.44922 C 49.898438 198.0889 55.326666 203.49023 61.998047 203.49023 C 67.20089 203.49023 71.626159 200.13064 73.275391 195.46289 L 78.011719 195.46289 L 84.255859 201.71094 L 70.529297 215.43945 L 53.177734 215.44141 C 51.520343 210.77374 47.071854 207.41602 41.84375 207.41602 C 35.172369 207.41602 29.742187 212.81535 29.742188 219.45508 C 29.742188 226.09133 35.170651 231.49414 41.84375 231.49414 C 47.071854 231.49414 51.520388 228.13479 53.177734 223.46875 L 72.191406 223.46875 C 73.256772 223.46875 74.276698 223.04557 75.029297 222.29297 L 89.929688 207.38867 L 110.37891 227.8418 C 110.57292 228.03581 110.78092 228.20606 111 228.35156 L 111 252.18359 L 110.28906 252.18359 L 93.126953 235.07227 C 92.374347 234.32301 91.353315 233.90234 90.292969 233.90234 L 54.453125 233.90039 C 52.237111 233.90039 50.439453 235.69804 50.439453 237.91406 C 50.439453 240.13006 52.237111 241.92773 54.453125 241.92773 L 88.634766 241.92773 L 98.921875 252.18164 L 41.896484 252.18359 C 40.237421 247.51767 35.788651 244.1582 30.560547 244.1582 C 23.922562 244.1582 18.521484 249.55926 18.521484 256.19727 C 18.521484 262.86864 23.922562 268.29492 30.560547 268.29492 C 35.796777 268.29492 40.252087 264.91226 41.904297 260.21094 L 98.34375 260.21094 L 88.632812 269.92188 L 54.455078 269.91992 C 52.239073 269.91992 50.441406 271.71761 50.441406 273.93359 C 50.441406 276.14959 52.239073 277.94727 54.455078 277.94727 L 90.294922 277.94727 C 91.360288 277.94727 92.380226 277.52409 93.132812 276.77148 L 109.69727 260.20898 L 111.00586 260.20898 L 111.00586 283.04102 C 110.41383 283.23002 109.85278 283.53983 109.38281 284.00977 L 89.431641 303.95703 L 75.03125 289.56055 C 74.278661 288.80795 73.257043 288.38477 72.193359 288.38477 L 53.179688 288.38477 C 51.522284 283.7171 47.075752 280.35937 41.847656 280.35938 C 35.176275 280.35938 29.744141 285.75872 29.744141 292.39844 C 29.744141 299.03813 35.174566 304.43945 41.847656 304.43945 C 47.075752 304.43945 51.524039 301.07983 53.179688 296.41211 L 70.53125 296.41211 L 84.279297 310.1582 L 78.019531 316.37891 L 73.275391 316.37891 C 71.62634 311.71123 67.199609 308.35156 61.998047 308.35156 C 55.328375 308.35156 49.898438 313.75285 49.898438 320.39258 C 49.898438 327.03227 55.326666 332.43164 61.998047 332.43164 C 67.200891 332.43164 71.626168 329.07402 73.275391 324.40625 L 79.673828 324.40625 C 80.734174 324.40625 81.751037 323.98588 82.501953 323.23828 L 92.761719 313.04492 C 93.382185 312.42947 93.748743 311.65626 93.880859 310.85352 L 111.00391 293.73438 L 111.00391 314.57031 C 110.7848 314.71581 110.57513 314.88384 110.38281 315.07617 L 84.527344 340.93555 L 38.462891 340.93945 C 36.813841 336.27182 32.387099 332.91406 27.185547 332.91406 C 20.514165 332.91406 15.085937 338.31536 15.085938 344.95508 C 15.085938 351.59477 20.514165 356.99414 27.185547 356.99414 C 32.38839 356.99414 36.813668 353.63651 38.462891 348.96875 L 86.193359 348.96875 C 87.258715 348.96875 88.278654 348.54558 89.03125 347.79297 L 111.00586 325.81445 L 111.00586 375 C 111.00586 380.86349 113.27917 386.40713 117.45508 390.6582 C 121.65959 394.78582 127.20198 397.05859 133.05859 397.05859 L 184.41797 397.05859 L 164.43164 417.04883 C 163.67904 417.80146 163.25586 418.823 163.25586 419.88672 L 163.25586 467.56641 C 158.58819 469.2238 155.22852 473.67293 155.22852 478.90234 C 155.22852 485.57369 160.62984 491.00195 167.26953 491.00195 C 173.90578 491.00195 179.30664 485.57369 179.30664 478.90234 C 179.30664 473.67257 175.95096 469.22547 171.2832 467.56641 L 171.2832 421.55273 L 195.43359 397.39648 L 195.75781 397.06055 L 215.44727 397.06055 L 188.98633 423.56836 C 188.23373 424.32098 187.81055 425.34456 187.81055 426.4082 L 187.81055 432.75195 C 183.14288 434.41767 179.78516 438.88817 179.78516 444.14453 C 179.78516 450.78081 185.18819 456.18359 191.82617 456.18359 C 198.46247 456.18359 203.85937 450.78248 203.85938 444.14453 C 203.85938 438.8899 200.50418 434.41919 195.83984 432.75195 L 195.83984 428.07031 L 202.08008 421.81641 L 215.86719 435.56055 L 215.86719 452.89453 C 211.16612 454.54693 207.78125 459.00011 207.78125 464.23633 C 207.78125 470.87601 213.2095 476.27734 219.88086 476.27734 C 226.51885 476.27734 231.91797 470.87601 231.91797 464.23633 C 231.91797 459.00818 228.56058 454.5595 223.89453 452.90039 L 223.89453 433.89258 C 223.89453 432.82555 223.46884 431.80312 222.71289 431.04883 L 207.74609 416.13281 L 223.5 400.3457 L 226.78516 397.0625 L 251.33398 397.0625 L 235.44336 412.94922 C 234.69077 413.70184 234.26758 414.72542 234.26758 415.78906 L 234.26758 451.56836 C 234.26758 453.78436 236.06523 455.58203 238.28125 455.58203 C 240.49726 455.58203 242.29492 453.78436 242.29492 451.56836 L 242.29883 417.44531 L 252.61523 407.13086 L 252.61523 464.12305 C 247.9476 465.7905 244.58789 470.26099 244.58789 475.51562 C 244.58789 482.15534 249.99089 487.55469 256.62891 487.55469 C 263.26688 487.55469 268.66797 482.15534 268.66797 475.51562 C 268.66797 470.26099 265.30859 465.79029 260.64258 464.12305 L 260.64258 407.73438 L 270.35547 417.44727 L 270.35547 451.56641 C 270.35547 453.78237 272.15314 455.58008 274.36914 455.58008 C 276.58516 455.58008 278.38281 453.78237 278.38281 451.56641 L 278.38281 415.78516 C 278.38281 414.71979 277.95963 413.69985 277.20703 412.94727 L 261.31836 397.05859 L 285.86523 397.05859 L 304.90039 416.13086 L 289.93945 431.04492 C 289.18351 431.79914 288.75781 432.82164 288.75781 433.88867 L 288.75781 452.89648 C 284.09017 454.55393 280.73437 459.00431 280.73438 464.23242 C 280.73438 470.87214 286.1335 476.27344 292.77148 476.27344 C 299.4429 476.27344 304.87305 470.87214 304.87305 464.23242 C 304.87305 458.99617 301.49015 454.54086 296.78711 452.88867 L 296.78711 435.55469 L 310.57227 421.81445 L 316.81641 428.06641 L 316.81641 432.74219 C 312.11662 434.40296 308.73242 438.87908 308.73242 444.14062 C 308.73242 450.77688 314.15867 456.17969 320.83008 456.17969 C 327.46976 456.17969 332.86914 450.77861 332.86914 444.14062 C 332.86914 438.886 329.5115 434.41522 324.84375 432.74805 L 324.84375 426.4043 C 324.84375 425.33892 324.42057 424.31903 323.66797 423.56641 L 297.20898 397.05859 L 316.83984 397.05859 L 317.20898 397.43945 L 341.37305 421.55273 L 341.37305 467.56055 C 336.70537 469.21799 333.34961 473.66899 333.34961 478.89844 C 333.34961 485.56983 338.74875 490.99805 345.38672 490.99805 C 352.0264 490.99805 357.42773 485.56983 357.42773 478.89844 C 357.42773 473.66863 354.0701 469.21792 349.40234 467.56055 L 349.40234 419.88281 C 349.40234 418.81577 348.97694 417.79361 348.22266 417.04102 L 328.18164 397.05273 L 380.20117 397.05273 C 386.09977 397.05273 391.63008 394.77275 395.79297 390.60352 C 399.96069 386.36221 402.25586 380.82125 402.25586 374.99805 L 402.25586 327.07422 L 422.9707 347.78906 C 423.7233 348.54166 424.7449 348.96484 425.80859 348.96484 L 473.53711 348.96484 C 475.19452 353.63251 479.64563 356.99219 484.875 356.99219 C 491.51296 356.99219 496.91406 351.59089 496.91406 344.95117 C 496.91406 338.31148 491.51688 332.91211 484.87891 332.91211 L 484.87695 332.91602 C 479.64716 332.91602 475.19642 336.27365 473.53906 340.94141 L 427.4707 340.94141 L 402.25781 315.72656 L 402.25781 296.00781 L 418.97461 312.72266 C 419.12345 312.90496 419.28982 313.07045 419.46875 313.22266 L 429.48633 323.23633 C 430.23893 323.98893 431.26054 324.41211 432.32422 324.41211 L 438.72656 324.41211 C 440.38396 329.07976 444.83508 332.4375 450.06445 332.4375 C 456.70246 332.4375 462.10156 327.03622 462.10156 320.39648 C 462.10156 313.75679 456.70246 308.35742 450.06445 308.35742 C 444.83466 308.35742 440.38392 311.71508 438.72656 316.38281 L 433.98633 316.38281 L 427.74023 310.13867 L 441.4668 296.41406 L 458.81836 296.41406 C 460.47577 301.08173 464.92618 304.43945 470.1543 304.43945 C 476.82567 304.43945 482.25391 299.04008 482.25391 292.40039 C 482.25391 285.7607 476.82567 280.35937 470.1543 280.35938 C 464.92446 280.35938 460.47616 283.71896 458.81836 288.38672 L 439.80469 288.38672 C 438.73933 288.38672 437.7194 288.80989 436.9668 289.5625 L 422.0625 304.46094 L 402.25391 284.6543 L 402.25391 260.21289 L 402.29883 260.21289 L 418.86328 276.77344 C 419.61589 277.52604 420.63747 277.94922 421.70117 277.94922 L 457.54297 277.94922 C 459.75898 277.94922 461.55664 276.15154 461.55664 273.93555 C 461.55664 271.71955 459.75898 269.91992 457.54297 269.91992 L 423.36523 269.91992 L 413.65625 260.21094 L 470.09766 260.21094 C 471.75001 264.91368 476.20323 268.29492 481.43945 268.29492 C 488.07918 268.29492 493.47852 262.86864 493.47852 256.19727 C 493.47852 249.56097 488.07918 244.1582 481.43945 244.1582 C 476.21309 244.1582 471.76478 247.51759 470.10742 252.18359 L 413.07227 252.18359 L 423.35938 241.92969 L 457.54102 241.92969 C 459.75699 241.92969 461.55469 240.13199 461.55469 237.91602 C 461.55469 235.70001 459.75699 233.90039 457.54102 233.90039 L 421.70117 233.90039 C 420.63915 233.90039 419.61979 234.32301 418.86719 235.07227 L 402.25586 251.63281 L 402.25586 227.20117 L 422.06445 207.39062 L 436.96484 222.29297 C 437.71912 223.04558 438.741 223.46875 439.80469 223.46875 L 458.81836 223.46875 C 460.47744 228.13472 464.92619 231.49414 470.1543 231.49414 C 476.82568 231.49414 482.25195 226.09307 482.25195 219.45508 C 482.25195 212.81535 476.82568 207.41602 470.1543 207.41602 C 464.92447 207.41602 460.47615 210.77364 458.81836 215.44141 L 441.4668 215.44141 L 427.74023 201.71289 L 433.98438 195.46484 L 438.72461 195.46484 C 440.38202 200.13252 444.83314 203.49219 450.0625 203.49219 C 456.70048 203.49219 462.09961 198.0909 462.09961 191.45117 C 462.09961 184.81491 456.70048 179.41602 450.0625 179.41602 C 444.83271 179.41602 440.38369 182.77316 438.72461 187.4375 L 432.32227 187.4375 C 431.2569 187.4375 430.23693 187.86067 429.48438 188.61328 L 419.23242 198.86719 L 419.22656 198.87305 L 419.2207 198.87891 L 402.25586 215.8457 L 402.25586 196.125 L 427.4707 170.91602 L 473.54688 170.91602 C 475.21093 175.54512 479.65594 178.875 484.87891 178.875 C 491.5169 178.875 496.91602 173.50154 496.91602 166.90039 C 496.91602 160.26071 491.5169 154.85937 484.87891 154.85938 C 479.64909 154.85938 475.19834 158.21725 473.54102 162.88672 L 425.80664 162.88867 C 424.74127 162.88867 423.72135 163.31183 422.96875 164.06445 L 402.25586 184.77539 L 402.25586 137.45703 C 402.25586 131.59828 399.98334 126.05438 395.83398 121.82812 C 391.6579 117.64536 386.10662 115.3418 380.20117 115.3418 L 328.125 115.3418 L 348.53125 94.886719 C 349.28218 94.135793 349.70313 93.11308 349.70312 92.052734 L 349.70312 44.371094 C 354.36909 42.703673 357.72461 38.234877 357.72461 32.978516 C 357.72461 26.372206 352.32577 20.998047 345.68945 20.998047 z M 140.54102 129.52148 C 146.71231 129.51948 151.73633 134.57094 151.73633 140.77734 C 151.73633 146.94696 146.71402 151.9668 140.54102 151.9668 C 134.33458 151.9668 129.28711 146.94696 129.28711 140.77734 C 129.28711 134.57094 134.33458 129.52148 140.54102 129.52148 z M 372.72266 129.52148 C 378.92735 129.52148 383.97461 134.57094 383.97461 140.77734 C 383.97261 146.94525 378.92563 151.96484 372.72266 151.96484 C 366.54961 151.96484 361.5293 146.94696 361.5293 140.77734 C 361.5293 134.57094 366.54961 129.52148 372.72266 129.52148 z M 130.04297 173.48242 C 160.28754 225.09791 203.30999 193.49323 244.93945 223.03711 C 247.36001 213.74937 247.82748 201.60357 216.49023 183.58203 C 270.53113 183.29049 310.68463 202.06848 324.74414 236.63477 L 314.12109 236.63477 L 271.59375 236.63477 L 194.29297 236.63477 L 206.47852 253.05664 L 235.91211 292.71875 L 219.88867 314.31055 C 196.96943 302.64464 183.27991 278.56838 135.4668 282.97266 C 147.5989 268.39939 156.86117 259.95742 188.57812 262.50586 C 182.27688 245.93689 126.8034 246.92442 130.04297 173.48242 z M 214.74219 246.92383 L 248.72656 246.92383 L 282.71289 292.71875 L 248.72656 338.51758 L 214.74219 338.51758 L 248.72656 292.71875 L 214.74219 246.92383 z M 264.42969 246.92383 L 298.41406 246.92383 L 332.40039 292.71875 L 298.41406 338.51758 L 264.42969 338.51758 L 298.41406 292.71875 L 264.42969 246.92383 z M 314.12109 246.92383 L 348.10742 246.92383 L 382.09375 292.71875 L 348.10742 338.51758 L 314.12109 338.51758 L 348.10742 292.71875 L 314.12109 246.92383 z M 372.72266 360.42969 C 378.92735 360.42969 383.97461 365.45394 383.97461 371.62695 C 383.97461 377.8334 378.92735 382.88281 372.72266 382.88281 C 366.54961 382.88281 361.5293 377.8334 361.5293 371.62695 C 361.5293 365.45394 366.54961 360.42969 372.72266 360.42969 z M 140.53906 360.43359 C 146.71211 360.43359 151.73242 365.45786 151.73242 371.63086 C 151.73242 377.83729 146.71211 382.88477 140.53906 382.88477 C 134.33266 382.88477 129.2832 377.83729 129.2832 371.63086 C 129.2832 365.45786 134.33266 360.43359 140.53906 360.43359 z " />
  <g
     id="g8953"
     transform="matrix(0.24499545,0,0,0.24499545,109.00393,99.806948)"
     style="fill:#000000;fill-opacity:1" />
</svg>
