<?xml version="1.0" encoding="UTF-8" standalone="no"?>
<svg
   width="512"
   height="512"
   viewBox="0 0 512 512"
   version="1.1"
   id="svg8"
   sodipodi:docname="sh-45-patroller.svg"
   inkscape:version="1.2.2 (b0a8486541, 2022-12-01)"
   xml:space="preserve"
   xmlns:inkscape="http://www.inkscape.org/namespaces/inkscape"
   xmlns:sodipodi="http://sodipodi.sourceforge.net/DTD/sodipodi-0.dtd"
   xmlns="http://www.w3.org/2000/svg"
   xmlns:svg="http://www.w3.org/2000/svg"><defs
     id="defs12"><filter
       style="color-interpolation-filters:sRGB;"
       inkscape:label="Drop Shadow"
       id="filter875"
       x="-0.31291152"
       y="-0.16857506"
       width="1.6092078"
       height="1.3282203"><feFlood
         flood-opacity="1"
         flood-color="rgb(58,63,94)"
         result="flood"
         id="feFlood865" /><feComposite
         in="flood"
         in2="SourceGraphic"
         operator="out"
         result="composite1"
         id="feComposite867" /><feGaussianBlur
         in="composite1"
         stdDeviation="15"
         result="blur"
         id="feGaussianBlur869" /><feOffset
         dx="0"
         dy="0"
         result="offset"
         id="feOffset871" /><feComposite
         in="offset"
         in2="SourceGraphic"
         operator="atop"
         result="composite2"
         id="feComposite873" /></filter><filter
       style="color-interpolation-filters:sRGB;"
       inkscape:label="Drop Shadow"
       id="filter1015"
       x="-0.081997928"
       y="-0.044180702"
       width="1.1639959"
       height="1.0883614"><feFlood
         flood-opacity="1"
         flood-color="rgb(58,63,94)"
         result="flood"
         id="feFlood1005" /><feComposite
         in="flood"
         in2="SourceGraphic"
         operator="out"
         result="composite1"
         id="feComposite1007" /><feGaussianBlur
         in="composite1"
         stdDeviation="8.30229"
         result="blur"
         id="feGaussianBlur1009" /><feOffset
         dx="0"
         dy="0"
         result="offset"
         id="feOffset1011" /><feComposite
         in="offset"
         in2="SourceGraphic"
         operator="atop"
         result="composite2"
         id="feComposite1013" /></filter><filter
       style="color-interpolation-filters:sRGB;"
       inkscape:label="Drop Shadow"
       id="filter35638"
       x="-0.057142887"
       y="-0.13067032"
       width="1.1142858"
       height="1.2613406"><feFlood
         flood-opacity="1"
         flood-color="rgb(58,63,94)"
         result="flood"
         id="feFlood35628" /><feComposite
         in="flood"
         in2="SourceGraphic"
         operator="out"
         result="composite1"
         id="feComposite35630" /><feGaussianBlur
         in="composite1"
         stdDeviation="6"
         result="blur"
         id="feGaussianBlur35632" /><feOffset
         dx="0"
         dy="0"
         result="offset"
         id="feOffset35634" /><feComposite
         in="offset"
         in2="SourceGraphic"
         operator="atop"
         result="composite2"
         id="feComposite35636" /></filter><filter
       style="color-interpolation-filters:sRGB;"
       inkscape:label="Drop Shadow"
       id="filter35813"
       x="-0.053321701"
       y="-0.069584126"
       width="1.1066434"
       height="1.1391683"><feFlood
         flood-opacity="1"
         flood-color="rgb(58,63,94)"
         result="flood"
         id="feFlood35803" /><feComposite
         in="flood"
         in2="SourceGraphic"
         operator="out"
         result="composite1"
         id="feComposite35805" /><feGaussianBlur
         in="composite1"
         stdDeviation="8"
         result="blur"
         id="feGaussianBlur35807" /><feOffset
         dx="0"
         dy="0"
         result="offset"
         id="feOffset35809" /><feComposite
         in="offset"
         in2="SourceGraphic"
         operator="atop"
         result="composite2"
         id="feComposite35811" /></filter><filter
       style="color-interpolation-filters:sRGB;"
       inkscape:label="Drop Shadow"
       id="filter36051"
       x="-0.028125"
       y="-0.038976963"
       width="1.05625"
       height="1.0779539"><feFlood
         flood-opacity="1"
         flood-color="rgb(58,63,94)"
         result="flood"
         id="feFlood36041" /><feComposite
         in="flood"
         in2="SourceGraphic"
         operator="out"
         result="composite1"
         id="feComposite36043" /><feGaussianBlur
         in="composite1"
         stdDeviation="6"
         result="blur"
         id="feGaussianBlur36045" /><feOffset
         dx="0"
         dy="0"
         result="offset"
         id="feOffset36047" /><feComposite
         in="offset"
         in2="SourceGraphic"
         operator="atop"
         result="composite2"
         id="feComposite36049" /></filter><filter
       style="color-interpolation-filters:sRGB;"
       inkscape:label="Drop Shadow"
       id="filter36715"
       x="-0.069720211"
       y="-0.091087118"
       width="1.1394404"
       height="1.1821742"><feFlood
         flood-opacity="1"
         flood-color="rgb(58,63,94)"
         result="flood"
         id="feFlood36705" /><feComposite
         in="flood"
         in2="SourceGraphic"
         operator="out"
         result="composite1"
         id="feComposite36707" /><feGaussianBlur
         in="composite1"
         stdDeviation="16.2006"
         result="blur"
         id="feGaussianBlur36709" /><feOffset
         dx="0"
         dy="0"
         result="offset"
         id="feOffset36711" /><feComposite
         in="offset"
         in2="SourceGraphic"
         operator="atop"
         result="composite2"
         id="feComposite36713" /></filter><filter
       style="color-interpolation-filters:sRGB;"
       inkscape:label="Drop Shadow"
       id="filter37057"
       x="-0.079999702"
       y="-0.075040311"
       width="1.1599994"
       height="1.1500806"><feFlood
         flood-opacity="1"
         flood-color="rgb(58,63,94)"
         result="flood"
         id="feFlood37047" /><feComposite
         in="flood"
         in2="SourceGraphic"
         operator="out"
         result="composite1"
         id="feComposite37049" /><feGaussianBlur
         in="composite1"
         stdDeviation="0.5"
         result="blur"
         id="feGaussianBlur37051" /><feOffset
         dx="0"
         dy="0"
         result="offset"
         id="feOffset37053" /><feComposite
         in="offset"
         in2="SourceGraphic"
         operator="atop"
         result="composite2"
         id="feComposite37055" /></filter><filter
       style="color-interpolation-filters:sRGB;"
       inkscape:label="Drop Shadow"
       id="filter3381"
       x="-0.079503702"
       y="-0.16519166"
       width="1.1590074"
       height="1.3303833"><feFlood
         flood-opacity="1"
         flood-color="rgb(58,63,94)"
         result="flood"
         id="feFlood3371" /><feComposite
         in="flood"
         in2="SourceGraphic"
         operator="out"
         result="composite1"
         id="feComposite3373" /><feGaussianBlur
         in="composite1"
         stdDeviation="15"
         result="blur"
         id="feGaussianBlur3375" /><feOffset
         dx="0"
         dy="0"
         result="offset"
         id="feOffset3377" /><feComposite
         in="offset"
         in2="SourceGraphic"
         operator="atop"
         result="composite2"
         id="feComposite3379" /></filter><filter
       style="color-interpolation-filters:sRGB;"
       inkscape:label="Drop Shadow"
       id="filter5102"
       x="-0.031220486"
       y="-0.045396363"
       width="1.062441"
       height="1.0907927"><feFlood
         flood-opacity="1"
         flood-color="rgb(58,63,94)"
         result="flood"
         id="feFlood5092" /><feComposite
         in="flood"
         in2="SourceGraphic"
         operator="out"
         result="composite1"
         id="feComposite5094" /><feGaussianBlur
         in="composite1"
         stdDeviation="15"
         result="blur"
         id="feGaussianBlur5096" /><feOffset
         dx="0"
         dy="0"
         result="offset"
         id="feOffset5098" /><feComposite
         in="offset"
         in2="SourceGraphic"
         operator="atop"
         result="composite2"
         id="feComposite5100" /></filter><filter
       style="color-interpolation-filters:sRGB;"
       inkscape:label="Drop Shadow"
       id="filter5801"
       x="-0.026064956"
       y="-0.077124362"
       width="1.0521299"
       height="1.1542487"><feFlood
         flood-opacity="1"
         flood-color="rgb(58,63,94)"
         result="flood"
         id="feFlood5791" /><feComposite
         in="flood"
         in2="SourceGraphic"
         operator="out"
         result="composite1"
         id="feComposite5793" /><feGaussianBlur
         in="composite1"
         stdDeviation="5"
         result="blur"
         id="feGaussianBlur5795" /><feOffset
         dx="0"
         dy="0"
         result="offset"
         id="feOffset5797" /><feComposite
         in="offset"
         in2="SourceGraphic"
         operator="atop"
         result="composite2"
         id="feComposite5799" /></filter></defs><sodipodi:namedview
     id="namedview10"
     pagecolor="#505050"
     bordercolor="#eeeeee"
     borderopacity="1"
     inkscape:pageshadow="0"
     inkscape:pageopacity="0"
     inkscape:pagecheckerboard="0"
     showgrid="false"
     inkscape:zoom="1.7558594"
     inkscape:cx="259.70189"
     inkscape:cy="198.19355"
     inkscape:window-width="856"
     inkscape:window-height="1402"
     inkscape:window-x="3160"
     inkscape:window-y="684"
     inkscape:window-maximized="1"
     inkscape:current-layer="svg8"
     inkscape:showpageshadow="2"
     inkscape:deskcolor="#505050"
     showguides="true" /><path
     d="M0 0h512v512H0z"
     fill="#b90202"
     fill-opacity="1"
     id="path2"
     style="fill:#1b1f21;fill-opacity:0" /><style
     type="text/css"
     id="style35976">
	.st0{fill:#000000;}
</style><g
     style="fill:#000000"
     id="g36899"
     transform="matrix(0.56141049,0,0,0.56141049,112.27908,112.2792)"><g
       id="g36887">
	<g
   id="g36885">
		<g
   id="g36883">
			
			
		</g>
	</g>
</g></g><g
     id="g2762" /><path
     d="m 485.70873,239.74868 c -1.38173,-3.40751 -5.26813,-5.04949 -8.67563,-3.66268 l -15.9666,6.47817 c -7.58201,3.07769 -14.77741,7.02833 -21.48489,11.71033 l -0.44785,-1.22032 10.69135,-19.11724 h -15.25647 l -20.58369,15.76839 -126.87059,-0.002 v -8.90505 l -38.49624,-2.86417 v -43.15155 h 24.66312 v -2.70969 c 4.99038,0.86445 10.00877,1.94589 14.49969,3.312 14.9525,4.53757 26.33843,11.28815 29.50952,13.27231 0.59191,0.368 1.28972,0.52251 2.0049,0.44785 l 140.5664,-14.82941 c 3.69045,-0.38884 3.37627,-5.34812 -0.34195,-5.34812 H 273.28442 v -3.12453 h -24.66311 v -3.10893 c 0,-2.4788 -2.01011,-4.49047 -4.49046,-4.49047 -2.47879,0 -4.49047,2.01011 -4.49047,4.49047 v 3.10893 h -24.61467 v 3.12453 H 28.759238 c -3.716484,0 -4.030663,4.95928 -0.341965,5.34812 L 168.98368,209.1054 c 0.71518,0.0747 1.41299,-0.0799 2.0049,-0.44784 3.17315,-1.98407 14.5588,-8.73475 29.50953,-13.27231 4.49579,-1.36438 9.52484,-2.45275 14.5259,-3.31721 v 2.7149 h 24.61468 v 42.49031 l -9.68438,-0.72038 -6.6395,-18.85684 -3.32765,0.14928 c -49.73949,2.20805 -95.00408,24.69422 -124.204314,61.70666 -1.43904,1.8296 -1.65256,4.35702 -0.5329,6.43152 1.15263,2.14377 3.45089,3.35369 6.014694,3.14017 l 2.56558,-0.21352 2.42672,8.38769 c 1.62129,5.6103 6.83057,9.52485 12.67017,9.52485 h 15.64531 l 30.5978,0.0903 -9.33731,17.90719 h -13.98777 c -6.01468,0 -11.78985,-1.8348 -16.70781,-5.30146 l -7.59979,-5.35878 -5.17303,7.33228 7.59979,5.35878 c 6.4364,4.5429 14.00331,6.94344 21.88396,6.94344 l 113.77914,0.002 v -8.97426 h -24.54001 l 9.21911,-17.68856 h 0.31419 0.11283 c 15.56531,0 29.33933,-9.33199 35.10961,-23.80368 l 9.82302,-24.64755 h 127.26609 l 2.94402,4.99572 c -7.74376,1.33314 -15.33112,3.45087 -22.60963,6.40352 l -15.96658,6.47817 c -3.40751,1.38176 -5.0495,5.26813 -3.66267,8.67565 1.38175,3.4075 5.26812,5.04949 8.67563,3.66267 l 15.9666,-6.47818 c 7.65177,-3.10894 14.91428,-7.09809 21.67731,-11.83873 l 27.27029,46.25554 h 15.25647 l -20.24196,-55.30748 c 8.16903,-1.31231 16.16788,-3.51336 23.84188,-6.62749 l 15.96657,-6.47818 c 3.39366,-1.38522 5.03578,-5.2668 3.65405,-8.67431 z m -366.77821,58.09739 c -1.86605,0 -3.53073,-1.25328 -4.04803,-3.03947 l -1.91987,-6.64482 5.44544,-0.44784 c 5.04461,-0.42703 9.51952,2.99609 10.47761,7.93441 l 0.43223,2.20279 h -10.3874 z m 0.59191,-30.53914 c 22.85627,-20.71746 52.12582,-34.28306 84.13009,-38.88507 l -0.81583,20.33396 -26.9179,14.74943 c -17.40016,9.52795 -38.0274,10.84066 -56.39631,3.80154 z m 101.4476,57.51051 h -55.0054 l 9.32176,-17.87921 54.92097,0.1597 z"
     id="path5240"
     style="fill:#ff0ec0;fill-opacity:1;stroke-width:0.444379;filter:url(#filter5801)"
     sodipodi:nodetypes="ccccccccccccccccccscccssscccsccccccccccccccccscccsccccccccccscccccccccccccccccccccccccccccccccccc"
     transform="matrix(-1,0,0,1,511.99998,0)" /></svg>
