<?xml version="1.0" encoding="UTF-8" standalone="no"?>
<svg
   height="512"
   version="1.1"
   viewBox="0 0 512 512"
   width="512"
   id="svg9"
   sodipodi:docname="show-in-can.svg"
   inkscape:version="1.2.2 (b0a8486541, 2022-12-01)"
   xmlns:inkscape="http://www.inkscape.org/namespaces/inkscape"
   xmlns:sodipodi="http://sodipodi.sourceforge.net/DTD/sodipodi-0.dtd"
   xmlns="http://www.w3.org/2000/svg"
   xmlns:svg="http://www.w3.org/2000/svg">
  <defs
     id="defs13">
    <filter
       style="color-interpolation-filters:sRGB;"
       inkscape:label="Drop Shadow"
       id="filter911"
       x="-1.1181985"
       y="-1.1347366"
       width="3.1770221"
       height="3.2093634">
      <feFlood
         flood-opacity="1"
         flood-color="rgb(58,63,94)"
         result="flood"
         id="feFlood901" />
      <feComposite
         in="flood"
         in2="SourceGraphic"
         operator="out"
         result="composite1"
         id="feComposite903" />
      <feGaussianBlur
         in="composite1"
         stdDeviation="15"
         result="blur"
         id="feGaussianBlur905" />
      <feOffset
         dx="0"
         dy="0"
         result="offset"
         id="feOffset907" />
      <feComposite
         in="offset"
         in2="SourceGraphic"
         operator="atop"
         result="composite2"
         id="feComposite909" />
    </filter>
    <filter
       style="color-interpolation-filters:sRGB;"
       inkscape:label="Drop Shadow"
       id="filter1155"
       x="-0.17625458"
       y="-0.17888525"
       width="1.3525092"
       height="1.3577705">
      <feFlood
         flood-opacity="1"
         flood-color="rgb(58,63,94)"
         result="flood"
         id="feFlood1145" />
      <feComposite
         in="flood"
         in2="SourceGraphic"
         operator="out"
         result="composite1"
         id="feComposite1147" />
      <feGaussianBlur
         in="composite1"
         stdDeviation="4.99388"
         result="blur"
         id="feGaussianBlur1149" />
      <feOffset
         dx="0"
         dy="0"
         result="offset"
         id="feOffset1151" />
      <feComposite
         in="offset"
         in2="SourceGraphic"
         operator="atop"
         result="composite2"
         id="feComposite1153" />
    </filter>
    <filter
       style="color-interpolation-filters:sRGB;"
       inkscape:label="Drop Shadow"
       id="filter1105"
       x="-0.11888965"
       y="-0.12066412"
       width="1.2377793"
       height="1.2413282">
      <feFlood
         flood-opacity="1"
         flood-color="rgb(58,63,94)"
         result="flood"
         id="feFlood1095" />
      <feComposite
         in="flood"
         in2="SourceGraphic"
         operator="out"
         result="composite1"
         id="feComposite1097" />
      <feGaussianBlur
         in="composite1"
         stdDeviation="3.36854"
         result="blur"
         id="feGaussianBlur1099" />
      <feOffset
         dx="0"
         dy="0"
         result="offset"
         id="feOffset1101" />
      <feComposite
         in="offset"
         in2="SourceGraphic"
         operator="atop"
         result="composite2"
         id="feComposite1103" />
    </filter>
    <filter
       style="color-interpolation-filters:sRGB;"
       inkscape:label="Drop Shadow"
       id="filter13652"
       x="-0.077900418"
       y="-0.080053854"
       width="1.1558008"
       height="1.1601077">
      <feFlood
         flood-opacity="1"
         flood-color="rgb(58,63,94)"
         result="flood"
         id="feFlood13642" />
      <feComposite
         in="flood"
         in2="SourceGraphic"
         operator="out"
         result="composite1"
         id="feComposite13644" />
      <feGaussianBlur
         in="composite1"
         stdDeviation="15"
         result="blur"
         id="feGaussianBlur13646" />
      <feOffset
         dx="0"
         dy="0"
         result="offset"
         id="feOffset13648" />
      <feComposite
         in="offset"
         in2="SourceGraphic"
         operator="atop"
         result="composite2"
         id="feComposite13650" />
    </filter>
    <filter
       style="color-interpolation-filters:sRGB;"
       inkscape:label="Drop Shadow"
       id="filter14416"
       x="-0.068571429"
       y="-0.034285714"
       width="1.1371429"
       height="1.0685714">
      <feFlood
         flood-opacity="1"
         flood-color="rgb(58,63,94)"
         result="flood"
         id="feFlood14406" />
      <feComposite
         in="flood"
         in2="SourceGraphic"
         operator="out"
         result="composite1"
         id="feComposite14408" />
      <feGaussianBlur
         in="composite1"
         stdDeviation="15"
         result="blur"
         id="feGaussianBlur14410" />
      <feOffset
         dx="0"
         dy="0"
         result="offset"
         id="feOffset14412" />
      <feComposite
         in="offset"
         in2="SourceGraphic"
         operator="atop"
         result="composite2"
         id="feComposite14414" />
    </filter>
    <filter
       style="color-interpolation-filters:sRGB;"
       inkscape:label="Drop Shadow"
       id="filter15059"
       x="-0.033103448"
       y="-0.033684179"
       width="1.0662069"
       height="1.0673684">
      <feFlood
         flood-opacity="1"
         flood-color="rgb(58,63,94)"
         result="flood"
         id="feFlood15049" />
      <feComposite
         in="flood"
         in2="SourceGraphic"
         operator="out"
         result="composite1"
         id="feComposite15051" />
      <feGaussianBlur
         in="composite1"
         stdDeviation="15"
         result="blur"
         id="feGaussianBlur15053" />
      <feOffset
         dx="0"
         dy="0"
         result="offset"
         id="feOffset15055" />
      <feComposite
         in="offset"
         in2="SourceGraphic"
         operator="atop"
         result="composite2"
         id="feComposite15057" />
    </filter>
    <filter
       style="color-interpolation-filters:sRGB;"
       inkscape:label="Drop Shadow"
       id="filter16791"
       x="-0.091296007"
       y="-0.038284669"
       width="1.182592"
       height="1.0765693">
      <feFlood
         flood-opacity="1"
         flood-color="rgb(58,63,94)"
         result="flood"
         id="feFlood16781" />
      <feComposite
         in="flood"
         in2="SourceGraphic"
         operator="out"
         result="composite1"
         id="feComposite16783" />
      <feGaussianBlur
         in="composite1"
         stdDeviation="15"
         result="blur"
         id="feGaussianBlur16785" />
      <feOffset
         dx="0"
         dy="0"
         result="offset"
         id="feOffset16787" />
      <feComposite
         in="offset"
         in2="SourceGraphic"
         operator="atop"
         result="composite2"
         id="feComposite16789" />
    </filter>
    <filter
       style="color-interpolation-filters:sRGB;"
       inkscape:label="Drop Shadow"
       id="filter17416"
       x="-0.03"
       y="-0.036"
       width="1.06"
       height="1.072">
      <feFlood
         flood-opacity="1"
         flood-color="rgb(58,63,94)"
         result="flood"
         id="feFlood17406" />
      <feComposite
         in="flood"
         in2="SourceGraphic"
         operator="out"
         result="composite1"
         id="feComposite17408" />
      <feGaussianBlur
         in="composite1"
         stdDeviation="15"
         result="blur"
         id="feGaussianBlur17410" />
      <feOffset
         dx="0"
         dy="0"
         result="offset"
         id="feOffset17412" />
      <feComposite
         in="offset"
         in2="SourceGraphic"
         operator="atop"
         result="composite2"
         id="feComposite17414" />
    </filter>
    <filter
       style="color-interpolation-filters:sRGB;"
       inkscape:label="Drop Shadow"
       id="filter18561"
       x="-0.075"
       y="-0.038412292"
       width="1.15"
       height="1.0768246">
      <feFlood
         flood-opacity="1"
         flood-color="rgb(58,63,94)"
         result="flood"
         id="feFlood18551" />
      <feComposite
         in="flood"
         in2="SourceGraphic"
         operator="out"
         result="composite1"
         id="feComposite18553" />
      <feGaussianBlur
         in="composite1"
         stdDeviation="15"
         result="blur"
         id="feGaussianBlur18555" />
      <feOffset
         dx="0"
         dy="0"
         result="offset"
         id="feOffset18557" />
      <feComposite
         in="offset"
         in2="SourceGraphic"
         operator="atop"
         result="composite2"
         id="feComposite18559" />
    </filter>
    <filter
       style="color-interpolation-filters:sRGB;"
       inkscape:label="Drop Shadow"
       id="filter19968"
       x="-0.071999906"
       y="-0.032142857"
       width="1.1439998"
       height="1.0642857">
      <feFlood
         flood-opacity="1"
         flood-color="rgb(58,63,94)"
         result="flood"
         id="feFlood19958" />
      <feComposite
         in="flood"
         in2="SourceGraphic"
         operator="out"
         result="composite1"
         id="feComposite19960" />
      <feGaussianBlur
         in="composite1"
         stdDeviation="15"
         result="blur"
         id="feGaussianBlur19962" />
      <feOffset
         dx="0"
         dy="0"
         result="offset"
         id="feOffset19964" />
      <feComposite
         in="offset"
         in2="SourceGraphic"
         operator="atop"
         result="composite2"
         id="feComposite19966" />
    </filter>
  </defs>
  <sodipodi:namedview
     id="namedview11"
     pagecolor="#505050"
     bordercolor="#eeeeee"
     borderopacity="1"
     inkscape:pageshadow="0"
     inkscape:pageopacity="0"
     inkscape:pagecheckerboard="0"
     showgrid="false"
     inkscape:zoom="0.81436565"
     inkscape:cx="67.53723"
     inkscape:cy="264.00917"
     inkscape:window-width="1716"
     inkscape:window-height="1386"
     inkscape:window-x="1440"
     inkscape:window-y="702"
     inkscape:window-maximized="1"
     inkscape:current-layer="svg9"
     inkscape:showpageshadow="2"
     inkscape:deskcolor="#505050" />
  <title
     id="title2" />
  <desc
     id="desc4" />
  <path
     d="M 0,0 H 512 V 512 H 0 Z"
     fill="#b90202"
     fill-opacity="1"
     id="path902"
     style="fill:#1b1f21;fill-opacity:0" />
  <g
     id="g18681"
     transform="matrix(-0.16981881,0,0,0.16981881,357.88904,154.10781)" />
  <g
     id="g19407"
     transform="matrix(0.41193417,0,0,0.41193417,87.107124,8.839498)"
     style="fill:#ff0ec0;fill-opacity:1;filter:url(#filter19968)">
    <path
       d="m 180,360 h 440 c 7.1445,0 13.746,-3.8125 17.32,-10 3.5742,-6.1875 3.5742,-13.812 0,-20 -3.5742,-6.1875 -10.176,-10 -17.32,-10 H 180 c -7.1445,0 -13.746,3.8125 -17.32,10 -3.5742,6.1875 -3.5742,13.812 0,20 3.5742,6.1875 10.176,10 17.32,10 z"
       id="path19397"
       style="fill:#ff0ec0;fill-opacity:1" />
    <path
       d="m 240,1160 h 320 c 10.609,0 20.781,-4.2148 28.285,-11.715 C 595.785,1140.7811 600,1130.609 600,1120 V 400 H 200 v 720 c 0,10.609 4.2148,20.781 11.715,28.285 7.5039,7.5 17.676,11.715 28.285,11.715 z m 20,-440 h 220 c 9.8242,-0.008 19.301,-3.6289 26.625,-10.176 7.324,-6.5471 11.984,-15.559 13.09,-25.32 1.1055,-9.7617 -1.418,-19.59 -7.0898,-27.605 -5.6758,-8.0195 -14.102,-13.672 -23.676,-15.879 -9.5703,-2.2031 -19.621,-0.80859 -28.234,3.918 -8.6094,4.7305 -15.18,12.461 -18.453,21.723 -1.6016,5.2109 -5.2578,9.5391 -10.125,11.992 -4.8672,2.4492 -10.523,2.8086 -15.66,0.99219 -5.1406,-1.8164 -9.3125,-5.6484 -11.559,-10.617 -2.2461,-4.9648 -2.3672,-10.629 -0.33984,-15.688 6.5508,-18.527 19.691,-34 36.918,-43.461 17.223,-9.4609 37.328,-12.25 56.48,-7.8359 19.148,4.4141 36.004,15.723 47.352,31.77 11.344,16.047 16.387,35.707 14.164,55.234 -2.2188,19.523 -11.551,37.551 -26.215,50.637 -14.66,13.086 -33.625,20.316 -53.277,20.316 h -220 c -7.1445,0 -13.746,-3.8125 -17.32,-10 -3.5742,-6.1875 -3.5742,-13.812 0,-20 3.5742,-6.1875 10.176,-10 17.32,-10 z m 0,200 h 220 c 9.8242,-0.008 19.301,-3.6289 26.625,-10.176 7.324,-6.5471 11.984,-15.559 13.09,-25.32 1.1055,-9.7617 -1.418,-19.59 -7.0898,-27.605 -5.6758,-8.0195 -14.102,-13.672 -23.676,-15.879 -9.5703,-2.2031 -19.621,-0.80859 -28.234,3.918 -8.6094,4.7305 -15.18,12.461 -18.453,21.723 -1.6016,5.2109 -5.2578,9.5391 -10.125,11.992 -4.8672,2.4492 -10.523,2.8086 -15.66,0.99219 -5.1406,-1.8164 -9.3125,-5.6484 -11.559,-10.617 -2.2461,-4.9648 -2.3672,-10.629 -0.33984,-15.688 6.5508,-18.527 19.691,-34 36.918,-43.461 17.223,-9.4609 37.328,-12.25 56.48,-7.8359 19.148,4.4141 36.004,15.723 47.352,31.77 11.344,16.047 16.387,35.707 14.164,55.234 -2.2188,19.523 -11.551,37.551 -26.215,50.637 -14.66,13.086 -33.625,20.316 -53.277,20.316 h -220 c -7.1445,0 -13.746,-3.8125 -17.32,-10 -3.5742,-6.1875 -3.5742,-13.812 0,-20 3.5742,-6.1875 10.176,-10 17.32,-10 z"
       id="path19399"
       style="fill:#ff0ec0;fill-opacity:1" />
    <path
       d="m 580,60 h 80 v 80 h -80 z"
       id="path19401"
       style="fill:#ff0ec0;fill-opacity:1" />
    <path
       d="M 260,200 H 540 V 40 H 340 C 318.781,40 298.434,48.4297 283.43,63.43 268.43,78.434 260,98.782 260,120 Z"
       id="path19403"
       style="fill:#ff0ec0;fill-opacity:1" />
    <path
       d="m 595.78,280 c -6.2344,-18.652 -20.695,-33.398 -39.223,-40 h -313.12 c -18.527,6.6016 -32.988,21.348 -39.223,40 z"
       id="path19405"
       style="fill:#ff0ec0;fill-opacity:1" />
  </g>
</svg>
