<?xml version="1.0" encoding="UTF-8" standalone="no"?>
<svg
   viewBox="0 0 512 512"
   style="height: 512px; width: 512px;"
   version="1.1"
   id="svg886"
   sodipodi:docname="smart-armor.svg"
   inkscape:version="1.2.2 (b0a8486541, 2022-12-01)"
   xmlns:inkscape="http://www.inkscape.org/namespaces/inkscape"
   xmlns:sodipodi="http://sodipodi.sourceforge.net/DTD/sodipodi-0.dtd"
   xmlns="http://www.w3.org/2000/svg"
   xmlns:svg="http://www.w3.org/2000/svg">
  <sodipodi:namedview
     id="namedview888"
     pagecolor="#ffffff"
     bordercolor="#666666"
     borderopacity="1.0"
     inkscape:showpageshadow="2"
     inkscape:pageopacity="0.0"
     inkscape:pagecheckerboard="0"
     inkscape:deskcolor="#d1d1d1"
     showgrid="false"
     inkscape:zoom="1.3037281"
     inkscape:cx="145.73591"
     inkscape:cy="229.34229"
     inkscape:window-width="1716"
     inkscape:window-height="1386"
     inkscape:window-x="1440"
     inkscape:window-y="702"
     inkscape:window-maximized="1"
     inkscape:current-layer="svg886" />
  <defs
     id="defs878">
    <filter
       id="shadow-1"
       height="1.1517236"
       width="1.1517246"
       x="-0.075862315"
       y="-0.075861805">
      <feFlood
         flood-color="rgba(58, 63, 94, 1)"
         result="flood"
         id="feFlood867" />
      <feComposite
         in="flood"
         in2="SourceGraphic"
         operator="out"
         result="composite"
         id="feComposite869" />
      <feGaussianBlur
         in="composite"
         stdDeviation="15"
         result="blur"
         id="feGaussianBlur871" />
      <feOffset
         dx="0"
         dy="0"
         result="offset"
         id="feOffset873" />
      <feComposite
         in2="SourceGraphic"
         in="offset"
         operator="atop"
         id="feComposite875" />
    </filter>
    <filter
       style="color-interpolation-filters:sRGB;"
       inkscape:label="Drop Shadow"
       id="filter2672"
       x="-0.036508511"
       y="-0.030096649"
       width="1.073017"
       height="1.0601933">
      <feFlood
         flood-opacity="1"
         flood-color="rgb(58,63,94)"
         result="flood"
         id="feFlood2662" />
      <feComposite
         in="flood"
         in2="SourceGraphic"
         operator="out"
         result="composite1"
         id="feComposite2664" />
      <feGaussianBlur
         in="composite1"
         stdDeviation="15"
         result="blur"
         id="feGaussianBlur2666" />
      <feOffset
         dx="0"
         dy="0"
         result="offset"
         id="feOffset2668" />
      <feComposite
         in="offset"
         in2="SourceGraphic"
         operator="atop"
         result="composite2"
         id="feComposite2670" />
    </filter>
    <filter
       style="color-interpolation-filters:sRGB;"
       inkscape:label="Drop Shadow"
       id="filter3258"
       x="-0.033333307"
       y="-0.036846098"
       width="1.0666666"
       height="1.0736922">
      <feFlood
         flood-opacity="1"
         flood-color="rgb(58,63,94)"
         result="flood"
         id="feFlood3248" />
      <feComposite
         in="flood"
         in2="SourceGraphic"
         operator="out"
         result="composite1"
         id="feComposite3250" />
      <feGaussianBlur
         in="composite1"
         stdDeviation="15"
         result="blur"
         id="feGaussianBlur3252" />
      <feOffset
         dx="0"
         dy="0"
         result="offset"
         id="feOffset3254" />
      <feComposite
         in="offset"
         in2="SourceGraphic"
         operator="atop"
         result="composite2"
         id="feComposite3256" />
    </filter>
    <filter
       style="color-interpolation-filters:sRGB;"
       inkscape:label="Drop Shadow"
       id="filter4517"
       x="-0.04755843"
       y="-0.048809898"
       width="1.0951169"
       height="1.0976198">
      <feFlood
         flood-opacity="1"
         flood-color="rgb(58,63,94)"
         result="flood"
         id="feFlood4507" />
      <feComposite
         in="flood"
         in2="SourceGraphic"
         operator="out"
         result="composite1"
         id="feComposite4509" />
      <feGaussianBlur
         in="composite1"
         stdDeviation="10"
         result="blur"
         id="feGaussianBlur4511" />
      <feOffset
         dx="0"
         dy="0"
         result="offset"
         id="feOffset4513" />
      <feComposite
         in="offset"
         in2="SourceGraphic"
         operator="atop"
         result="composite2"
         id="feComposite4515" />
    </filter>
    <filter
       style="color-interpolation-filters:sRGB;"
       inkscape:label="Drop Shadow"
       id="filter5154"
       x="-0.073142173"
       y="-0.051090164"
       width="1.1462843"
       height="1.1021803">
      <feFlood
         flood-opacity="1"
         flood-color="rgb(58,63,94)"
         result="flood"
         id="feFlood5144" />
      <feComposite
         in="flood"
         in2="SourceGraphic"
         operator="out"
         result="composite1"
         id="feComposite5146" />
      <feGaussianBlur
         in="composite1"
         stdDeviation="10"
         result="blur"
         id="feGaussianBlur5148" />
      <feOffset
         dx="0"
         dy="0"
         result="offset"
         id="feOffset5150" />
      <feComposite
         in="offset"
         in2="SourceGraphic"
         operator="atop"
         result="composite2"
         id="feComposite5152" />
    </filter>
    <filter
       style="color-interpolation-filters:sRGB;"
       inkscape:label="Drop Shadow"
       id="filter5778"
       x="-0.050442997"
       y="-0.092707304"
       width="1.100886"
       height="1.1854146">
      <feFlood
         flood-opacity="1"
         flood-color="rgb(58,63,94)"
         result="flood"
         id="feFlood5768" />
      <feComposite
         in="flood"
         in2="SourceGraphic"
         operator="out"
         result="composite1"
         id="feComposite5770" />
      <feGaussianBlur
         in="composite1"
         stdDeviation="10"
         result="blur"
         id="feGaussianBlur5772" />
      <feOffset
         dx="0"
         dy="0"
         result="offset"
         id="feOffset5774" />
      <feComposite
         in="offset"
         in2="SourceGraphic"
         operator="atop"
         result="composite2"
         id="feComposite5776" />
    </filter>
    <clipPath
       id="a">
      <path
         d="M 222.14,222.14 H 977.85 V 977.85 H 222.14 Z"
         id="path6679" />
    </clipPath>
    <clipPath
       id="a-5">
      <path
         d="M 222.14,222.14 H 977.85 V 977.85 H 222.14 Z"
         id="path6679-3" />
    </clipPath>
    <filter
       style="color-interpolation-filters:sRGB;"
       inkscape:label="Drop Shadow"
       id="filter8128"
       x="-0.51199727"
       y="-0.25599863"
       width="2.0239945"
       height="1.5119973">
      <feFlood
         flood-opacity="1"
         flood-color="rgb(58,63,94)"
         result="flood"
         id="feFlood8118" />
      <feComposite
         in="flood"
         in2="SourceGraphic"
         operator="out"
         result="composite1"
         id="feComposite8120" />
      <feGaussianBlur
         in="composite1"
         stdDeviation="8"
         result="blur"
         id="feGaussianBlur8122" />
      <feOffset
         dx="0"
         dy="0"
         result="offset"
         id="feOffset8124" />
      <feComposite
         in="offset"
         in2="SourceGraphic"
         operator="atop"
         result="composite2"
         id="feComposite8126" />
    </filter>
    <filter
       style="color-interpolation-filters:sRGB;"
       inkscape:label="Drop Shadow"
       id="filter21595"
       x="-0.038264996"
       y="-0.082038655"
       width="1.07653"
       height="1.1640773">
      <feFlood
         flood-opacity="1"
         flood-color="rgb(58,63,94)"
         result="flood"
         id="feFlood21585" />
      <feComposite
         in="flood"
         in2="SourceGraphic"
         operator="out"
         result="composite1"
         id="feComposite21587" />
      <feGaussianBlur
         in="composite1"
         stdDeviation="15"
         result="blur"
         id="feGaussianBlur21589" />
      <feOffset
         dx="0"
         dy="0"
         result="offset"
         id="feOffset21591" />
      <feComposite
         in="offset"
         in2="SourceGraphic"
         operator="atop"
         result="composite2"
         id="feComposite21593" />
    </filter>
    <filter
       style="color-interpolation-filters:sRGB;"
       inkscape:label="Drop Shadow"
       id="filter22425"
       x="-0.049589307"
       y="-0.17253584"
       width="1.0991786"
       height="1.3450717">
      <feFlood
         flood-opacity="1"
         flood-color="rgb(58,63,94)"
         result="flood"
         id="feFlood22415" />
      <feComposite
         in="flood"
         in2="SourceGraphic"
         operator="out"
         result="composite1"
         id="feComposite22417" />
      <feGaussianBlur
         in="composite1"
         stdDeviation="10"
         result="blur"
         id="feGaussianBlur22419" />
      <feOffset
         dx="0"
         dy="0"
         result="offset"
         id="feOffset22421" />
      <feComposite
         in="offset"
         in2="SourceGraphic"
         operator="atop"
         result="composite2"
         id="feComposite22423" />
    </filter>
    <filter
       style="color-interpolation-filters:sRGB;"
       inkscape:label="Drop Shadow"
       id="filter23083"
       x="-0.020949753"
       y="-0.075512709"
       width="1.0418995"
       height="1.1510254">
      <feFlood
         flood-opacity="1"
         flood-color="rgb(58,63,94)"
         result="flood"
         id="feFlood23073" />
      <feComposite
         in="flood"
         in2="SourceGraphic"
         operator="out"
         result="composite1"
         id="feComposite23075" />
      <feGaussianBlur
         in="composite1"
         stdDeviation="10"
         result="blur"
         id="feGaussianBlur23077" />
      <feOffset
         dx="0"
         dy="0"
         result="offset"
         id="feOffset23079" />
      <feComposite
         in="offset"
         in2="SourceGraphic"
         operator="atop"
         result="composite2"
         id="feComposite23081" />
    </filter>
    <filter
       style="color-interpolation-filters:sRGB;"
       inkscape:label="Drop Shadow"
       id="filter23920"
       x="-0.031832381"
       y="-0.083470149"
       width="1.0636648"
       height="1.1669403">
      <feFlood
         flood-opacity="1"
         flood-color="rgb(58,63,94)"
         result="flood"
         id="feFlood23910" />
      <feComposite
         in="flood"
         in2="SourceGraphic"
         operator="out"
         result="composite1"
         id="feComposite23912" />
      <feGaussianBlur
         in="composite1"
         stdDeviation="15"
         result="blur"
         id="feGaussianBlur23914" />
      <feOffset
         dx="0"
         dy="0"
         result="offset"
         id="feOffset23916" />
      <feComposite
         in="offset"
         in2="SourceGraphic"
         operator="atop"
         result="composite2"
         id="feComposite23918" />
    </filter>
    <filter
       style="color-interpolation-filters:sRGB;"
       inkscape:label="Drop Shadow"
       id="filter25184"
       x="-0.055640592"
       y="-0.10045407"
       width="1.1112812"
       height="1.2009081">
      <feFlood
         flood-opacity="1"
         flood-color="rgb(58,63,94)"
         result="flood"
         id="feFlood25174" />
      <feComposite
         in="flood"
         in2="SourceGraphic"
         operator="out"
         result="composite1"
         id="feComposite25176" />
      <feGaussianBlur
         in="composite1"
         stdDeviation="5"
         result="blur"
         id="feGaussianBlur25178" />
      <feOffset
         dx="0"
         dy="0"
         result="offset"
         id="feOffset25180" />
      <feComposite
         in="offset"
         in2="SourceGraphic"
         operator="atop"
         result="composite2"
         id="feComposite25182" />
    </filter>
    <filter
       style="color-interpolation-filters:sRGB;"
       inkscape:label="Drop Shadow"
       id="filter25884"
       x="-0.026230522"
       y="-0.048319459"
       width="1.052461"
       height="1.0966389">
      <feFlood
         flood-opacity="1"
         flood-color="rgb(58,63,94)"
         result="flood"
         id="feFlood25874" />
      <feComposite
         in="flood"
         in2="SourceGraphic"
         operator="out"
         result="composite1"
         id="feComposite25876" />
      <feGaussianBlur
         in="composite1"
         stdDeviation="15"
         result="blur"
         id="feGaussianBlur25878" />
      <feOffset
         dx="0"
         dy="0"
         result="offset"
         id="feOffset25880" />
      <feComposite
         in="offset"
         in2="SourceGraphic"
         operator="atop"
         result="composite2"
         id="feComposite25882" />
    </filter>
    <filter
       style="color-interpolation-filters:sRGB;"
       inkscape:label="Drop Shadow"
       id="filter26006"
       x="-0.03497403"
       y="-0.064425946"
       width="1.0699481"
       height="1.1288519">
      <feFlood
         flood-opacity="1"
         flood-color="rgb(58,63,94)"
         result="flood"
         id="feFlood25996" />
      <feComposite
         in="flood"
         in2="SourceGraphic"
         operator="out"
         result="composite1"
         id="feComposite25998" />
      <feGaussianBlur
         in="composite1"
         stdDeviation="20"
         result="blur"
         id="feGaussianBlur26000" />
      <feOffset
         dx="0"
         dy="0"
         result="offset"
         id="feOffset26002" />
      <feComposite
         in="offset"
         in2="SourceGraphic"
         operator="atop"
         result="composite2"
         id="feComposite26004" />
    </filter>
    <filter
       style="color-interpolation-filters:sRGB;"
       inkscape:label="Drop Shadow"
       id="filter26884"
       x="-0.049167793"
       y="-0.0961647"
       width="1.0983356"
       height="1.1923294">
      <feFlood
         flood-opacity="1"
         flood-color="rgb(58,63,94)"
         result="flood"
         id="feFlood26874" />
      <feComposite
         in="flood"
         in2="SourceGraphic"
         operator="out"
         result="composite1"
         id="feComposite26876" />
      <feGaussianBlur
         in="composite1"
         stdDeviation="10"
         result="blur"
         id="feGaussianBlur26878" />
      <feOffset
         dx="0"
         dy="0"
         result="offset"
         id="feOffset26880" />
      <feComposite
         in="offset"
         in2="SourceGraphic"
         operator="atop"
         result="composite2"
         id="feComposite26882" />
    </filter>
    <filter
       style="color-interpolation-filters:sRGB;"
       inkscape:label="Drop Shadow"
       id="filter28331"
       x="-0.035714286"
       y="-0.062498937"
       width="1.0714286"
       height="1.1249979">
      <feFlood
         flood-opacity="1"
         flood-color="rgb(58,63,94)"
         result="flood"
         id="feFlood28321" />
      <feComposite
         in="flood"
         in2="SourceGraphic"
         operator="out"
         result="composite1"
         id="feComposite28323" />
      <feGaussianBlur
         in="composite1"
         stdDeviation="15"
         result="blur"
         id="feGaussianBlur28325" />
      <feOffset
         dx="0"
         dy="0"
         result="offset"
         id="feOffset28327" />
      <feComposite
         in="offset"
         in2="SourceGraphic"
         operator="atop"
         result="composite2"
         id="feComposite28329" />
    </filter>
    <filter
       style="color-interpolation-filters:sRGB;"
       inkscape:label="Drop Shadow"
       id="filter29185"
       x="-0.029993568"
       y="-0.03168847"
       width="1.0599871"
       height="1.0633769">
      <feFlood
         flood-opacity="1"
         flood-color="rgb(58,63,94)"
         result="flood"
         id="feFlood29175" />
      <feComposite
         in="flood"
         in2="SourceGraphic"
         operator="out"
         result="composite1"
         id="feComposite29177" />
      <feGaussianBlur
         in="composite1"
         stdDeviation="15"
         result="blur"
         id="feGaussianBlur29179" />
      <feOffset
         dx="0"
         dy="0"
         result="offset"
         id="feOffset29181" />
      <feComposite
         in="offset"
         in2="SourceGraphic"
         operator="atop"
         result="composite2"
         id="feComposite29183" />
    </filter>
    <filter
       style="color-interpolation-filters:sRGB;"
       inkscape:label="Drop Shadow"
       id="filter31653"
       x="-0.073537733"
       y="-0.086041797"
       width="1.1470755"
       height="1.1720836">
      <feFlood
         flood-opacity="1"
         flood-color="rgb(58,63,94)"
         result="flood"
         id="feFlood31643" />
      <feComposite
         in="flood"
         in2="SourceGraphic"
         operator="out"
         result="composite1"
         id="feComposite31645" />
      <feGaussianBlur
         in="composite1"
         stdDeviation="15"
         result="blur"
         id="feGaussianBlur31647" />
      <feOffset
         dx="0"
         dy="0"
         result="offset"
         id="feOffset31649" />
      <feComposite
         in="offset"
         in2="SourceGraphic"
         operator="atop"
         result="composite2"
         id="feComposite31651" />
    </filter>
    <filter
       style="color-interpolation-filters:sRGB;"
       inkscape:label="Drop Shadow"
       id="filter32314"
       x="-0.10137337"
       y="-0.080397887"
       width="1.2027467"
       height="1.1607958">
      <feFlood
         flood-opacity="1"
         flood-color="rgb(58,63,94)"
         result="flood"
         id="feFlood32304" />
      <feComposite
         in="flood"
         in2="SourceGraphic"
         operator="out"
         result="composite1"
         id="feComposite32306" />
      <feGaussianBlur
         in="composite1"
         stdDeviation="15"
         result="blur"
         id="feGaussianBlur32308" />
      <feOffset
         dx="0"
         dy="0"
         result="offset"
         id="feOffset32310" />
      <feComposite
         in="offset"
         in2="SourceGraphic"
         operator="atop"
         result="composite2"
         id="feComposite32312" />
    </filter>
    <filter
       style="color-interpolation-filters:sRGB;"
       inkscape:label="Drop Shadow"
       id="filter33129"
       x="-0.035645001"
       y="-0.029086551"
       width="1.07129"
       height="1.0581731">
      <feFlood
         flood-opacity="1"
         flood-color="rgb(58,63,94)"
         result="flood"
         id="feFlood33119" />
      <feComposite
         in="flood"
         in2="SourceGraphic"
         operator="out"
         result="composite1"
         id="feComposite33121" />
      <feGaussianBlur
         in="composite1"
         stdDeviation="10"
         result="blur"
         id="feGaussianBlur33123" />
      <feOffset
         dx="0"
         dy="0"
         result="offset"
         id="feOffset33125" />
      <feComposite
         in="offset"
         in2="SourceGraphic"
         operator="atop"
         result="composite2"
         id="feComposite33127" />
    </filter>
  </defs>
  <path
     d="M 0.35858051,-0.2092161 H 512.35858 V 511.79078 H 0.35858051 Z"
     fill="#1b1f21"
     fill-opacity="0"
     id="path880" />
  <g
     clip-path="url(#a-5)"
     id="g6686"
     transform="matrix(0.51260194,0,0,0.51260194,-62.643019,-31.742847)"
     style="fill:#ffffff" />
  <g
     id="g32490"
     transform="matrix(0.57807063,0,0,0.57807063,-90.836222,-155.91336)"
     style="fill:#ff0ec0;fill-opacity:1;filter:url(#filter33129)">
    <path
       d="m 431.25,1018.6 150,60 v -34.609 l -150,-60 z"
       id="path32456"
       style="fill:#ff0ec0;fill-opacity:1" />
    <path
       d="m 768.75,983.95 -150,60 v 34.609 l 150,-60 z"
       id="path32458"
       style="fill:#ff0ec0;fill-opacity:1" />
    <path
       d="m 431.25,868.55 150,60 v -34.609 l -150,-60 z"
       id="path32460"
       style="fill:#ff0ec0;fill-opacity:1" />
    <path
       d="m 618.75,928.55 150,-60 v -34.609 l -150,60 z"
       id="path32462"
       style="fill:#ff0ec0;fill-opacity:1" />
    <path
       d="m 431.25,718.55 150,60 v -34.609 l -150,-60 z"
       id="path32472"
       style="fill:#ff0ec0;fill-opacity:1" />
    <path
       d="m 863.62,593.59 72.242,-198.75 -47.453,-94.836 h -151.16 l -126.36,90.242 c -3.1797,2.2695 -6.9883,3.4922 -10.895,3.4922 -3.9067,0 -7.7148,-1.2227 -10.895,-3.4922 l -126.36,-90.242 h -151.16 l -47.457,94.914 72.242,198.75 h 0.004 c 1.7617,4.8359 1.457,10.188 -0.84375,14.793 l -72.188,144.38 68.023,357.04 v 0 c 0.81641,4.2891 3.1016,8.1562 6.4648,10.938 3.3594,2.7812 7.5859,4.3047 11.949,4.3086 h 250.22 c -2.3633,-0.2227 -4.6992,-0.668 -6.9766,-1.332 l -187.5,-75 c -3.4961,-1.4023 -6.4883,-3.8242 -8.5898,-6.9492 -2.0977,-3.1289 -3.2109,-6.8164 -3.1836,-10.582 v -75.00001 c -0.004,-6.2266 3.082,-12.051 8.2383,-15.539 5.1562,-3.4922 11.707,-4.1953 17.488,-1.8789 l 180.52,72.22301 180.52,-72.22701 v 0.004 c 5.7812,-2.3164 12.332,-1.6133 17.488,1.8789 5.1562,3.4883 8.2422,9.3125 8.2383,15.539 v 75.00001 c 0.004,3.7461 -1.1172,7.4102 -3.2148,10.516 -2.1016,3.1055 -5.082,5.5078 -8.5586,6.9023 l -187.5,75 c -2.2773,0.668 -4.6133,1.1133 -6.9766,1.332 h 250.22 c 4.3633,0 8.5898,-1.5234 11.949,-4.3086 3.3633,-2.7812 5.6484,-6.6484 6.4648,-10.934 l 68.023,-357.04001 -72.188,-144.38 c -2.2891,-4.5977 -2.5938,-9.9297 -0.84375,-14.758 z M 337.87,960 300.37,772.5 c -0.82422,-4.0859 -0.26172,-8.3281 1.5938,-12.055 l 37.5,-75 33.562,16.762 -34.633,69.262 36.227,181.03 z m 468.38,-78.75 c 0.004,3.7461 -1.1172,7.4102 -3.2148,10.516 -2.1016,3.1055 -5.082,5.5078 -8.5586,6.9023 l -187.5,75 c -2.2773,0.66797 -4.6133,1.1133 -6.9766,1.332 -2.3633,-0.21875 -4.6992,-0.66406 -6.9766,-1.332 l -187.5,-75 c -3.4766,-1.3945 -6.457,-3.7969 -8.5586,-6.9023 -2.0977,-3.1055 -3.2188,-6.7695 -3.2148,-10.516 v -75 c -0.004,-6.2266 3.082,-12.051 8.2383,-15.539 5.1562,-3.4922 11.707,-4.1953 17.488,-1.8789 l 180.52,72.223 180.52,-72.227 v 0.004 c 5.7812,-2.3164 12.332,-1.6133 17.488,1.8789 5.1562,3.4883 8.2422,9.3125 8.2383,15.539 z m 0,-150 c 0.004,3.7461 -1.1172,7.4102 -3.2148,10.516 -2.1016,3.1055 -5.082,5.5078 -8.5586,6.9023 l -187.5,75 c -2.2773,0.66797 -4.6133,1.1133 -6.9766,1.332 -2.3633,-0.21875 -4.6992,-0.66406 -6.9766,-1.332 l -187.5,-75 c -3.4766,-1.3945 -6.457,-3.7969 -8.5586,-6.9023 -2.0977,-3.1055 -3.2188,-6.7695 -3.2148,-10.516 v -75 c -0.004,-6.2266 3.082,-12.051 8.2383,-15.539 5.1562,-3.4922 11.707,-4.1953 17.488,-1.8789 l 180.52,72.223 180.52,-72.227 v 0.004 c 5.7812,-2.3164 12.332,-1.6133 17.488,1.8789 5.1562,3.4883 8.2422,9.3125 8.2383,15.539 z m 6.4141,-132.39 -206.25,75 c -4.1406,1.5273 -8.6875,1.5273 -12.828,0 l -206.25,-75 c -5.0156,-1.8203 -9.0195,-5.6953 -11.004,-10.648 l -75,-187.5 c -1.9883,-4.9688 -1.7539,-10.551 0.63672,-15.34 l 18.75,-37.5 c 1.5586,-3.1172 3.9531,-5.7383 6.918,-7.5664 2.9648,-1.832 6.3789,-2.8008 9.8633,-2.8008 h 112.5 c 4.0586,0 8.0039,1.3164 11.25,3.75 l 138.75,104.06 138.75,-104.06 c 3.2461,-2.4336 7.1914,-3.75 11.25,-3.75 h 112.5 c 3.5,-0.0195 6.9375,0.94141 9.918,2.7734 2.9844,1.832 5.3906,4.4648 6.957,7.5938 l 18.75,37.5 c 2.3906,4.7891 2.625,10.371 0.63672,15.34 l -75,187.5 c -2.0039,4.9727 -6.0469,8.8516 -11.098,10.648 z m 86.961,173.64 -37.5,187.5 -36.75,-7.5 36.227,-181.18 -34.633,-69.262 33.562,-16.762 37.5,75 v -0.004 c 1.8906,3.7734 2.4531,8.0742 1.5938,12.207 z"
       id="path32476"
       style="fill:#ff0ec0;fill-opacity:1" />
    <path
       d="m 349.09,375 -9.7109,19.613 68.758,171.88 173.12,62.98 v -151.35 l -137.49,-103.12 z m 201.64,170.08 -13.949,34.836 -93.75,-37.5 c -4.7656,-1.9102 -8.5391,-5.6914 -10.441,-10.461 l -37.5,-93.75 34.836,-13.914 34.52,86.25 z"
       id="path32478"
       style="fill:#ff0ec0;fill-opacity:1" />
    <path
       d="M 756.24,375 618.75,478.12 v 151.35 l 173.21,-62.98 68.758,-171.88 -9.8047,-19.613 z m 11.25,156.96 c -1.8984,4.7695 -5.6758,8.5508 -10.441,10.461 l -93.75,37.5 -13.949,-34.836 86.25,-34.52 34.52,-86.25 34.836,13.914 z"
       id="path32480"
       style="fill:#ff0ec0;fill-opacity:1" />
    <path
       d="m 618.75,778.55 150,-60 v -34.609 l -150,60 z"
       id="path32486"
       style="fill:#ff0ec0;fill-opacity:1" />
  </g>
</svg>
