<?xml version="1.0" encoding="UTF-8" standalone="no"?>
<svg
   height="512"
   version="1.1"
   viewBox="0 0 512 512"
   width="512"
   id="svg9"
   sodipodi:docname="sovoil-lubricant.svg"
   inkscape:version="1.2.2 (b0a8486541, 2022-12-01)"
   xmlns:inkscape="http://www.inkscape.org/namespaces/inkscape"
   xmlns:sodipodi="http://sodipodi.sourceforge.net/DTD/sodipodi-0.dtd"
   xmlns="http://www.w3.org/2000/svg"
   xmlns:svg="http://www.w3.org/2000/svg">
  <defs
     id="defs13">
    <filter
       style="color-interpolation-filters:sRGB;"
       inkscape:label="Drop Shadow"
       id="filter911"
       x="-1.1181985"
       y="-1.1347366"
       width="3.1770221"
       height="3.2093634">
      <feFlood
         flood-opacity="1"
         flood-color="rgb(58,63,94)"
         result="flood"
         id="feFlood901" />
      <feComposite
         in="flood"
         in2="SourceGraphic"
         operator="out"
         result="composite1"
         id="feComposite903" />
      <feGaussianBlur
         in="composite1"
         stdDeviation="15"
         result="blur"
         id="feGaussianBlur905" />
      <feOffset
         dx="0"
         dy="0"
         result="offset"
         id="feOffset907" />
      <feComposite
         in="offset"
         in2="SourceGraphic"
         operator="atop"
         result="composite2"
         id="feComposite909" />
    </filter>
    <filter
       style="color-interpolation-filters:sRGB;"
       inkscape:label="Drop Shadow"
       id="filter1155"
       x="-0.17625458"
       y="-0.17888525"
       width="1.3525092"
       height="1.3577705">
      <feFlood
         flood-opacity="1"
         flood-color="rgb(58,63,94)"
         result="flood"
         id="feFlood1145" />
      <feComposite
         in="flood"
         in2="SourceGraphic"
         operator="out"
         result="composite1"
         id="feComposite1147" />
      <feGaussianBlur
         in="composite1"
         stdDeviation="4.99388"
         result="blur"
         id="feGaussianBlur1149" />
      <feOffset
         dx="0"
         dy="0"
         result="offset"
         id="feOffset1151" />
      <feComposite
         in="offset"
         in2="SourceGraphic"
         operator="atop"
         result="composite2"
         id="feComposite1153" />
    </filter>
    <filter
       style="color-interpolation-filters:sRGB;"
       inkscape:label="Drop Shadow"
       id="filter1105"
       x="-0.11888965"
       y="-0.12066412"
       width="1.2377793"
       height="1.2413282">
      <feFlood
         flood-opacity="1"
         flood-color="rgb(58,63,94)"
         result="flood"
         id="feFlood1095" />
      <feComposite
         in="flood"
         in2="SourceGraphic"
         operator="out"
         result="composite1"
         id="feComposite1097" />
      <feGaussianBlur
         in="composite1"
         stdDeviation="3.36854"
         result="blur"
         id="feGaussianBlur1099" />
      <feOffset
         dx="0"
         dy="0"
         result="offset"
         id="feOffset1101" />
      <feComposite
         in="offset"
         in2="SourceGraphic"
         operator="atop"
         result="composite2"
         id="feComposite1103" />
    </filter>
    <filter
       style="color-interpolation-filters:sRGB;"
       inkscape:label="Drop Shadow"
       id="filter13652"
       x="-0.077900418"
       y="-0.080053854"
       width="1.1558008"
       height="1.1601077">
      <feFlood
         flood-opacity="1"
         flood-color="rgb(58,63,94)"
         result="flood"
         id="feFlood13642" />
      <feComposite
         in="flood"
         in2="SourceGraphic"
         operator="out"
         result="composite1"
         id="feComposite13644" />
      <feGaussianBlur
         in="composite1"
         stdDeviation="15"
         result="blur"
         id="feGaussianBlur13646" />
      <feOffset
         dx="0"
         dy="0"
         result="offset"
         id="feOffset13648" />
      <feComposite
         in="offset"
         in2="SourceGraphic"
         operator="atop"
         result="composite2"
         id="feComposite13650" />
    </filter>
    <filter
       style="color-interpolation-filters:sRGB;"
       inkscape:label="Drop Shadow"
       id="filter14416"
       x="-0.068571429"
       y="-0.034285714"
       width="1.1371429"
       height="1.0685714">
      <feFlood
         flood-opacity="1"
         flood-color="rgb(58,63,94)"
         result="flood"
         id="feFlood14406" />
      <feComposite
         in="flood"
         in2="SourceGraphic"
         operator="out"
         result="composite1"
         id="feComposite14408" />
      <feGaussianBlur
         in="composite1"
         stdDeviation="15"
         result="blur"
         id="feGaussianBlur14410" />
      <feOffset
         dx="0"
         dy="0"
         result="offset"
         id="feOffset14412" />
      <feComposite
         in="offset"
         in2="SourceGraphic"
         operator="atop"
         result="composite2"
         id="feComposite14414" />
    </filter>
    <filter
       style="color-interpolation-filters:sRGB;"
       inkscape:label="Drop Shadow"
       id="filter15059"
       x="-0.033103448"
       y="-0.033684179"
       width="1.0662069"
       height="1.0673684">
      <feFlood
         flood-opacity="1"
         flood-color="rgb(58,63,94)"
         result="flood"
         id="feFlood15049" />
      <feComposite
         in="flood"
         in2="SourceGraphic"
         operator="out"
         result="composite1"
         id="feComposite15051" />
      <feGaussianBlur
         in="composite1"
         stdDeviation="15"
         result="blur"
         id="feGaussianBlur15053" />
      <feOffset
         dx="0"
         dy="0"
         result="offset"
         id="feOffset15055" />
      <feComposite
         in="offset"
         in2="SourceGraphic"
         operator="atop"
         result="composite2"
         id="feComposite15057" />
    </filter>
    <filter
       style="color-interpolation-filters:sRGB;"
       inkscape:label="Drop Shadow"
       id="filter16791"
       x="-0.091296007"
       y="-0.038284669"
       width="1.182592"
       height="1.0765693">
      <feFlood
         flood-opacity="1"
         flood-color="rgb(58,63,94)"
         result="flood"
         id="feFlood16781" />
      <feComposite
         in="flood"
         in2="SourceGraphic"
         operator="out"
         result="composite1"
         id="feComposite16783" />
      <feGaussianBlur
         in="composite1"
         stdDeviation="15"
         result="blur"
         id="feGaussianBlur16785" />
      <feOffset
         dx="0"
         dy="0"
         result="offset"
         id="feOffset16787" />
      <feComposite
         in="offset"
         in2="SourceGraphic"
         operator="atop"
         result="composite2"
         id="feComposite16789" />
    </filter>
  </defs>
  <sodipodi:namedview
     id="namedview11"
     pagecolor="#505050"
     bordercolor="#eeeeee"
     borderopacity="1"
     inkscape:pageshadow="0"
     inkscape:pageopacity="0"
     inkscape:pagecheckerboard="0"
     showgrid="false"
     inkscape:zoom="1.6287313"
     inkscape:cx="173.1409"
     inkscape:cy="231.46851"
     inkscape:window-width="1716"
     inkscape:window-height="1386"
     inkscape:window-x="1440"
     inkscape:window-y="702"
     inkscape:window-maximized="1"
     inkscape:current-layer="svg9"
     inkscape:showpageshadow="2"
     inkscape:deskcolor="#505050" />
  <title
     id="title2" />
  <desc
     id="desc4" />
  <path
     d="M 0,0 H 512 V 512 H 0 Z"
     fill="#b90202"
     fill-opacity="1"
     id="path902"
     style="fill:#1b1f21;fill-opacity:0" />
  <g
     id="g16219"
     transform="matrix(0.5085354,0,0,0.5085354,153.24035,242.17583)"
     style="fill:#ff0ec0;fill-opacity:1;filter:url(#filter16791)">
    <g
       id="g16779"
       transform="matrix(1.1008242,0,0,1.1008242,-20.373528,51.039486)">
      <g
         id="g15142"
         transform="matrix(0.72805488,0,0,0.72805488,-234.76312,-409.64865)"
         style="fill:#ff0ec0;fill-opacity:1">
        <path
           d="m 846,665.88 v -132 h -81.84 c 8.2812,20.52 12.84,42.84 12.84,66.121 0,23.281 -4.5586,45.602 -12.84,65.879 z"
           id="path15126"
           style="fill:#ff0ec0;fill-opacity:1" />
        <path
           d="m 600,445.56 c -85.199,0 -154.08,69.238 -154.08,154.44 0,84.84 68.879,154.08 154.08,154.08 84.84,0 154.08,-69.238 154.08,-154.08 0,-85.199 -69.238,-154.44 -154.08,-154.44 z m 0,255.24 c -35.879,0 -65.281,-29.16 -65.281,-65.281 0,-31.559 49.68,-120.72 55.078,-130.44 4.3203,-7.3203 15.961,-7.3203 20.16,0 5.5195,9.8398 55.078,99 55.078,130.44 C 665.28109,671.64 635.879,700.8 600,700.8 Z"
           id="path15128"
           style="fill:#ff0ec0;fill-opacity:1" />
        <path
           d="m 557.76,635.52 c 0,23.281 18.961,42.238 42.238,42.238 23.281,0 42.238,-18.961 42.238,-42.238 0,-16.199 -22.922,-64.68 -42.238,-101.04 -19.32,36.48 -42.238,84.84 -42.238,101.04 z"
           id="path15130"
           style="fill:#ff0ec0;fill-opacity:1" />
        <path
           d="m 354,665.88 h 81.84 C 427.5588,645.72 423,623.278 423,600.001 c 0,-23.281 4.5586,-45.602 12.84,-66.121 H 354 Z"
           id="path15132"
           style="fill:#ff0ec0;fill-opacity:1" />
        <path
           d="m 354,510.84 h 93.121 c 30.602,-52.68 87.602,-88.199 152.88,-88.199 65.281,0 122.28,35.52 152.88,88.199 h 93.121 V 80.471211 h -492 z"
           id="path15136"
           style="fill:#ff0ec0;fill-opacity:1"
           sodipodi:nodetypes="ccsccccc" />
        <path
           d="M 354,1119.5288 H 846 V 688.8 h -93.121 c -30.602,52.68 -87.602,88.199 -152.88,88.199 -65.281,0 -122.28,-35.52 -152.88,-88.199 h -93.121 z"
           id="path15138"
           style="fill:#ff0ec0;fill-opacity:1"
           sodipodi:nodetypes="ccccsccc" />
      </g>
      <path
         d="m 290.12271,-366.81338 v -52.98 c 0,-16.004 -12.98,-28.977 -28.977,-28.977 h -118.14 c -16.004,0 -28.977,12.973 -28.977,28.977 v 52.98 z m -33.7456,-53.325 c 0,-4.0312 3.2656,-7.3008 7.3008,-7.3008 4.0312,0 7.2969,3.2695 7.2969,7.3008 v 30.883 c 0,4.0312 -3.2656,7.3008 -7.2969,7.3008 -4.0352,0 -7.3008,-3.2695 -7.3008,-7.3008 z m -30.809,0 c 0,-4.0312 3.2656,-7.3008 7.3008,-7.3008 4.0312,0 7.3008,3.2695 7.3008,7.3008 v 30.883 c 0,4.0312 -3.2734,7.3008 -7.3008,7.3008 -4.0352,0 -7.3008,-3.2695 -7.3008,-7.3008 z m -30.805,0 c 0,-4.0312 3.2734,-7.3008 7.3008,-7.3008 4.0352,0 7.3008,3.2695 7.3008,7.3008 v 30.883 c 0,4.0312 -3.2656,7.3008 -7.3008,7.3008 -4.0312,0 -7.3008,-3.2695 -7.3008,-7.3008 z m -30.805,0 c 0,-4.0312 3.2734,-7.3008 7.3086,-7.3008 4.0312,0 7.2969,3.2695 7.2969,7.3008 v 30.883 c 0,4.0312 -3.2656,7.3008 -7.2969,7.3008 -4.0352,0 -7.3086,-3.2695 -7.3086,-7.3008 z m -30.801,0 c 0,-4.0312 3.2656,-7.3008 7.3008,-7.3008 4.0312,0 7.3008,3.2695 7.3008,7.3008 v 30.883 c 0,4.0312 -3.2734,7.3008 -7.3008,7.3008 -4.0352,0 -7.3008,-3.2695 -7.3008,-7.3008 z"
         id="path16217"
         sodipodi:nodetypes="cssssccsssssssssssssssssssssssssssssssssss"
         style="fill:#ff0ec0;fill-opacity:1" />
    </g>
  </g>
</svg>
