<?xml version="1.0" encoding="UTF-8" standalone="no"?>
<svg
   viewBox="0 0 512 512"
   style="height: 512px; width: 512px;"
   version="1.1"
   id="svg886"
   sodipodi:docname="street-king.svg"
   inkscape:version="1.2.2 (b0a8486541, 2022-12-01)"
   xmlns:inkscape="http://www.inkscape.org/namespaces/inkscape"
   xmlns:sodipodi="http://sodipodi.sourceforge.net/DTD/sodipodi-0.dtd"
   xmlns="http://www.w3.org/2000/svg"
   xmlns:svg="http://www.w3.org/2000/svg">
  <sodipodi:namedview
     id="namedview888"
     pagecolor="#ffffff"
     bordercolor="#666666"
     borderopacity="1.0"
     inkscape:showpageshadow="2"
     inkscape:pageopacity="0.0"
     inkscape:pagecheckerboard="0"
     inkscape:deskcolor="#d1d1d1"
     showgrid="false"
     inkscape:zoom="1.3037281"
     inkscape:cx="114.28763"
     inkscape:cy="292.23884"
     inkscape:window-width="1716"
     inkscape:window-height="1386"
     inkscape:window-x="1440"
     inkscape:window-y="702"
     inkscape:window-maximized="1"
     inkscape:current-layer="svg886" />
  <defs
     id="defs878">
    <filter
       id="shadow-1"
       height="1.1517236"
       width="1.1517246"
       x="-0.075862315"
       y="-0.075861805">
      <feFlood
         flood-color="rgba(58, 63, 94, 1)"
         result="flood"
         id="feFlood867" />
      <feComposite
         in="flood"
         in2="SourceGraphic"
         operator="out"
         result="composite"
         id="feComposite869" />
      <feGaussianBlur
         in="composite"
         stdDeviation="15"
         result="blur"
         id="feGaussianBlur871" />
      <feOffset
         dx="0"
         dy="0"
         result="offset"
         id="feOffset873" />
      <feComposite
         in2="SourceGraphic"
         in="offset"
         operator="atop"
         id="feComposite875" />
    </filter>
    <filter
       style="color-interpolation-filters:sRGB;"
       inkscape:label="Drop Shadow"
       id="filter2672"
       x="-0.036508511"
       y="-0.030096649"
       width="1.073017"
       height="1.0601933">
      <feFlood
         flood-opacity="1"
         flood-color="rgb(58,63,94)"
         result="flood"
         id="feFlood2662" />
      <feComposite
         in="flood"
         in2="SourceGraphic"
         operator="out"
         result="composite1"
         id="feComposite2664" />
      <feGaussianBlur
         in="composite1"
         stdDeviation="15"
         result="blur"
         id="feGaussianBlur2666" />
      <feOffset
         dx="0"
         dy="0"
         result="offset"
         id="feOffset2668" />
      <feComposite
         in="offset"
         in2="SourceGraphic"
         operator="atop"
         result="composite2"
         id="feComposite2670" />
    </filter>
    <filter
       style="color-interpolation-filters:sRGB;"
       inkscape:label="Drop Shadow"
       id="filter3258"
       x="-0.033333307"
       y="-0.036846098"
       width="1.0666666"
       height="1.0736922">
      <feFlood
         flood-opacity="1"
         flood-color="rgb(58,63,94)"
         result="flood"
         id="feFlood3248" />
      <feComposite
         in="flood"
         in2="SourceGraphic"
         operator="out"
         result="composite1"
         id="feComposite3250" />
      <feGaussianBlur
         in="composite1"
         stdDeviation="15"
         result="blur"
         id="feGaussianBlur3252" />
      <feOffset
         dx="0"
         dy="0"
         result="offset"
         id="feOffset3254" />
      <feComposite
         in="offset"
         in2="SourceGraphic"
         operator="atop"
         result="composite2"
         id="feComposite3256" />
    </filter>
    <filter
       style="color-interpolation-filters:sRGB;"
       inkscape:label="Drop Shadow"
       id="filter4517"
       x="-0.04755843"
       y="-0.048809898"
       width="1.0951169"
       height="1.0976198">
      <feFlood
         flood-opacity="1"
         flood-color="rgb(58,63,94)"
         result="flood"
         id="feFlood4507" />
      <feComposite
         in="flood"
         in2="SourceGraphic"
         operator="out"
         result="composite1"
         id="feComposite4509" />
      <feGaussianBlur
         in="composite1"
         stdDeviation="10"
         result="blur"
         id="feGaussianBlur4511" />
      <feOffset
         dx="0"
         dy="0"
         result="offset"
         id="feOffset4513" />
      <feComposite
         in="offset"
         in2="SourceGraphic"
         operator="atop"
         result="composite2"
         id="feComposite4515" />
    </filter>
    <filter
       style="color-interpolation-filters:sRGB;"
       inkscape:label="Drop Shadow"
       id="filter5154"
       x="-0.073142173"
       y="-0.051090164"
       width="1.1462843"
       height="1.1021803">
      <feFlood
         flood-opacity="1"
         flood-color="rgb(58,63,94)"
         result="flood"
         id="feFlood5144" />
      <feComposite
         in="flood"
         in2="SourceGraphic"
         operator="out"
         result="composite1"
         id="feComposite5146" />
      <feGaussianBlur
         in="composite1"
         stdDeviation="10"
         result="blur"
         id="feGaussianBlur5148" />
      <feOffset
         dx="0"
         dy="0"
         result="offset"
         id="feOffset5150" />
      <feComposite
         in="offset"
         in2="SourceGraphic"
         operator="atop"
         result="composite2"
         id="feComposite5152" />
    </filter>
    <filter
       style="color-interpolation-filters:sRGB;"
       inkscape:label="Drop Shadow"
       id="filter5778"
       x="-0.050442997"
       y="-0.092707304"
       width="1.100886"
       height="1.1854146">
      <feFlood
         flood-opacity="1"
         flood-color="rgb(58,63,94)"
         result="flood"
         id="feFlood5768" />
      <feComposite
         in="flood"
         in2="SourceGraphic"
         operator="out"
         result="composite1"
         id="feComposite5770" />
      <feGaussianBlur
         in="composite1"
         stdDeviation="10"
         result="blur"
         id="feGaussianBlur5772" />
      <feOffset
         dx="0"
         dy="0"
         result="offset"
         id="feOffset5774" />
      <feComposite
         in="offset"
         in2="SourceGraphic"
         operator="atop"
         result="composite2"
         id="feComposite5776" />
    </filter>
    <clipPath
       id="a">
      <path
         d="M 222.14,222.14 H 977.85 V 977.85 H 222.14 Z"
         id="path6679" />
    </clipPath>
    <clipPath
       id="a-5">
      <path
         d="M 222.14,222.14 H 977.85 V 977.85 H 222.14 Z"
         id="path6679-3" />
    </clipPath>
    <filter
       style="color-interpolation-filters:sRGB;"
       inkscape:label="Drop Shadow"
       id="filter8128"
       x="-0.51199727"
       y="-0.25599863"
       width="2.0239945"
       height="1.5119973">
      <feFlood
         flood-opacity="1"
         flood-color="rgb(58,63,94)"
         result="flood"
         id="feFlood8118" />
      <feComposite
         in="flood"
         in2="SourceGraphic"
         operator="out"
         result="composite1"
         id="feComposite8120" />
      <feGaussianBlur
         in="composite1"
         stdDeviation="8"
         result="blur"
         id="feGaussianBlur8122" />
      <feOffset
         dx="0"
         dy="0"
         result="offset"
         id="feOffset8124" />
      <feComposite
         in="offset"
         in2="SourceGraphic"
         operator="atop"
         result="composite2"
         id="feComposite8126" />
    </filter>
    <filter
       style="color-interpolation-filters:sRGB;"
       inkscape:label="Drop Shadow"
       id="filter21595"
       x="-0.038264996"
       y="-0.082038655"
       width="1.07653"
       height="1.1640773">
      <feFlood
         flood-opacity="1"
         flood-color="rgb(58,63,94)"
         result="flood"
         id="feFlood21585" />
      <feComposite
         in="flood"
         in2="SourceGraphic"
         operator="out"
         result="composite1"
         id="feComposite21587" />
      <feGaussianBlur
         in="composite1"
         stdDeviation="15"
         result="blur"
         id="feGaussianBlur21589" />
      <feOffset
         dx="0"
         dy="0"
         result="offset"
         id="feOffset21591" />
      <feComposite
         in="offset"
         in2="SourceGraphic"
         operator="atop"
         result="composite2"
         id="feComposite21593" />
    </filter>
    <filter
       style="color-interpolation-filters:sRGB;"
       inkscape:label="Drop Shadow"
       id="filter22425"
       x="-0.049589307"
       y="-0.17253584"
       width="1.0991786"
       height="1.3450717">
      <feFlood
         flood-opacity="1"
         flood-color="rgb(58,63,94)"
         result="flood"
         id="feFlood22415" />
      <feComposite
         in="flood"
         in2="SourceGraphic"
         operator="out"
         result="composite1"
         id="feComposite22417" />
      <feGaussianBlur
         in="composite1"
         stdDeviation="10"
         result="blur"
         id="feGaussianBlur22419" />
      <feOffset
         dx="0"
         dy="0"
         result="offset"
         id="feOffset22421" />
      <feComposite
         in="offset"
         in2="SourceGraphic"
         operator="atop"
         result="composite2"
         id="feComposite22423" />
    </filter>
    <filter
       style="color-interpolation-filters:sRGB;"
       inkscape:label="Drop Shadow"
       id="filter23083"
       x="-0.020949753"
       y="-0.075512709"
       width="1.0418995"
       height="1.1510254">
      <feFlood
         flood-opacity="1"
         flood-color="rgb(58,63,94)"
         result="flood"
         id="feFlood23073" />
      <feComposite
         in="flood"
         in2="SourceGraphic"
         operator="out"
         result="composite1"
         id="feComposite23075" />
      <feGaussianBlur
         in="composite1"
         stdDeviation="10"
         result="blur"
         id="feGaussianBlur23077" />
      <feOffset
         dx="0"
         dy="0"
         result="offset"
         id="feOffset23079" />
      <feComposite
         in="offset"
         in2="SourceGraphic"
         operator="atop"
         result="composite2"
         id="feComposite23081" />
    </filter>
    <filter
       style="color-interpolation-filters:sRGB;"
       inkscape:label="Drop Shadow"
       id="filter23920"
       x="-0.031832381"
       y="-0.083470149"
       width="1.0636648"
       height="1.1669403">
      <feFlood
         flood-opacity="1"
         flood-color="rgb(58,63,94)"
         result="flood"
         id="feFlood23910" />
      <feComposite
         in="flood"
         in2="SourceGraphic"
         operator="out"
         result="composite1"
         id="feComposite23912" />
      <feGaussianBlur
         in="composite1"
         stdDeviation="15"
         result="blur"
         id="feGaussianBlur23914" />
      <feOffset
         dx="0"
         dy="0"
         result="offset"
         id="feOffset23916" />
      <feComposite
         in="offset"
         in2="SourceGraphic"
         operator="atop"
         result="composite2"
         id="feComposite23918" />
    </filter>
  </defs>
  <path
     d="M 0.35858051,-0.2092161 H 512.35858 V 511.79078 H 0.35858051 Z"
     fill="#1b1f21"
     fill-opacity="0"
     id="path880" />
  <g
     clip-path="url(#a-5)"
     id="g6686"
     transform="matrix(0.51260194,0,0,0.51260194,-62.643019,-31.742847)"
     style="fill:#ffffff" />
  <g
     id="g23227"
     transform="matrix(-0.42394316,0,0,0.42394316,506.72293,-36.289327)"
     style="fill:#ff0ec0;fill-opacity:1;filter:url(#filter23920)">
    <path
       d="m 25.945,711 h 22.367 v 46.5 H 25.945 Z"
       id="path23175"
       style="fill:#ff0ec0;fill-opacity:1" />
    <path
       d="m 1149,613.99 c -9.8164,-25.078 -36,-31.094 -36,-31.078 0,0 -216,-75.91 -271.5,-93.91 C 786,470.998 780,473.998 780,473.998 l 74.508,139.99"
       id="path23177"
       style="fill:#ff0ec0;fill-opacity:1" />
    <path
       d="m 311.7,802.5 c 0,56.676 -45.938,102.6 -102.6,102.6 -56.664,0 -102.6,-45.926 -102.6,-102.6 0,-56.674 45.938,-102.61 102.6,-102.61 56.668,0 102.6,45.938 102.6,102.61 z m -102.6,-48 c -26.508,0 -48,21.492 -48,48 0,26.508 21.492,48 48,48 26.508,0 48,-21.492 48,-48 0,-26.508 -21.492,-48 -48,-48 z"
       id="path23189"
       style="fill:#ff0ec0;fill-opacity:1" />
    <path
       d="m 1067.1,802.5 c 0,56.676 -45.938,102.6 -102.6,102.6 -56.676,0 -102.61,-45.926 -102.61,-102.6 0,-56.674 45.938,-102.61 102.61,-102.61 56.664,0 102.6,45.938 102.6,102.61 z m -102.6,-48 c -26.508,0 -48,21.492 -48,48 0,26.508 21.492,48 48,48 26.508,0 48,-21.492 48,-48 0,-26.508 -21.492,-48 -48,-48 z"
       id="path23191"
       style="fill:#ff0ec0;fill-opacity:1" />
    <path
       d="m 969.3,771.3 c 0,6.3984 -9.6016,6.3984 -9.6016,0 0,-6.4023 9.6016,-6.4023 9.6016,0"
       id="path23193"
       style="fill:#ff0ec0;fill-opacity:1" />
    <path
       d="m 967.45,833.7 c 0,6.4023 -9.6016,6.4023 -9.6016,0 0,-6.3984 9.6016,-6.3984 9.6016,0"
       id="path23195"
       style="fill:#ff0ec0;fill-opacity:1" />
    <path
       d="m 938.1,801.76 c 0,6.3984 -9.6016,6.3984 -9.6016,0 0,-6.4023 9.6016,-6.4023 9.6016,0"
       id="path23197"
       style="fill:#ff0ec0;fill-opacity:1" />
    <path
       d="m 1000.5,803.62 c 0,6.3984 -9.6016,6.3984 -9.6016,0 0,-6.4023 9.6016,-6.4023 9.6016,0"
       id="path23199"
       style="fill:#ff0ec0;fill-opacity:1" />
    <path
       d="m 947.11,779.96 c 0,6.3984 -9.6016,6.3984 -9.6016,0 0,-6.4023 9.6016,-6.4023 9.6016,0"
       id="path23201"
       style="fill:#ff0ec0;fill-opacity:1" />
    <path
       d="m 989.91,825.41 c 0,6.4023 -9.5977,6.4023 -9.5977,0 0,-6.3984 9.5977,-6.3984 9.5977,0"
       id="path23203"
       style="fill:#ff0ec0;fill-opacity:1" />
    <path
       d="m 946.59,823.55 c 0,6.4023 -9.6016,6.4023 -9.6016,0 0,-6.3984 9.6016,-6.3984 9.6016,0"
       id="path23205"
       style="fill:#ff0ec0;fill-opacity:1" />
    <path
       d="m 992.04,780.74 c 0,6.418 -9.625,6.418 -9.625,0 0,-6.4141 9.625,-6.4141 9.625,0"
       id="path23207"
       style="fill:#ff0ec0;fill-opacity:1" />
    <path
       d="m 213.91,771.3 c 0,6.3984 -9.5977,6.3984 -9.5977,0 0,-6.4023 9.5977,-6.4023 9.5977,0"
       id="path23209"
       style="fill:#ff0ec0;fill-opacity:1" />
    <path
       d="m 212.05,833.7 c 0,6.4023 -9.5977,6.4023 -9.5977,0 0,-6.3984 9.5977,-6.3984 9.5977,0"
       id="path23211"
       style="fill:#ff0ec0;fill-opacity:1" />
    <path
       d="m 182.71,801.76 c 0,6.3984 -9.5977,6.3984 -9.5977,0 0,-6.4023 9.5977,-6.4023 9.5977,0"
       id="path23213"
       style="fill:#ff0ec0;fill-opacity:1" />
    <path
       d="m 245.1,803.62 c 0,6.3984 -9.6016,6.3984 -9.6016,0 0,-6.4023 9.6016,-6.4023 9.6016,0"
       id="path23215"
       style="fill:#ff0ec0;fill-opacity:1" />
    <path
       d="m 191.71,779.96 c 0,6.3984 -9.5977,6.3984 -9.5977,0 0,-6.4023 9.5977,-6.4023 9.5977,0"
       id="path23217"
       style="fill:#ff0ec0;fill-opacity:1" />
    <path
       d="m 234.53,825.41 c 0,6.4023 -9.5977,6.4023 -9.5977,0 0,-6.3984 9.5977,-6.3984 9.5977,0"
       id="path23219"
       style="fill:#ff0ec0;fill-opacity:1" />
    <path
       d="m 191.18,823.55 c 0,6.4023 -9.5977,6.4023 -9.5977,0 0,-6.3984 9.5977,-6.3984 9.5977,0"
       id="path23221"
       style="fill:#ff0ec0;fill-opacity:1" />
    <path
       d="m 236.64,780.74 c 0,6.418 -9.625,6.418 -9.625,0 0,-6.4141 9.625,-6.4141 9.625,0"
       id="path23223"
       style="fill:#ff0ec0;fill-opacity:1" />
    <path
       d="m 844.75,626.89 306.49,0.26562 c 4.1055,0.0469 5.6289,4.8711 5.6289,10.332 v 120 l -76.992,-0.20312 c -7.5703,-56.82 -56.734,-93.551 -115.64,-93.551 -64.164,0 -113.75,40.246 -129.49,109.03 0,0 -17.258,41.965 -83.258,41.965 l -348.36,-0.004 c -66,0 -69,-36.469 -69,-36.469 0,-64.141 -65.34,-109.03 -129.49,-109.03 -50.711,0 -95.305,28.945 -111.25,72.742 h -32.879 v -27.719 h 11.953 l 0.04687,-79.273 c 0,0 -7.5,-14.988 155.49999,-33 l 132,0.004 24,-97.98 c 0,0 7.5,-30 27,-30 l 353.26,-0.19141 z M 563,502 H 417.99 v 117 h 145 V 502 Z m 185,0.0117 H 602.99 v 117 H 748 Z m -308.15,164.15 -5.1953,5.8203 48.48,39.742 -48.48,39.348 5.1953,6.5625 50.566,-40.105 49.574,40.121 5.8438,-6.9258 -48.121,-38.988 48.121,-39.383 -5.4727,-6.1914 -49.945,40.094 z m 187.07,0 -5.207,5.8203 48.492,39.742 -48.492,39.348 5.207,6.5625 50.578,-40.105 49.57,40.105 5.8203,-6.9258 -48.109,-38.988 48.109,-39.383 -5.4609,-6.1914 -49.934,40.094 z"
       id="path23225"
       style="fill:#ff0ec0;fill-opacity:1" />
  </g>
</svg>
