<?xml version="1.0" encoding="UTF-8" standalone="no"?>
<svg
   height="512"
   version="1.1"
   viewBox="0 0 512 512"
   width="512"
   id="svg9"
   sodipodi:docname="tr-4-detonator-fluid.svg"
   inkscape:version="1.2.2 (b0a8486541, 2022-12-01)"
   xmlns:inkscape="http://www.inkscape.org/namespaces/inkscape"
   xmlns:sodipodi="http://sodipodi.sourceforge.net/DTD/sodipodi-0.dtd"
   xmlns="http://www.w3.org/2000/svg"
   xmlns:svg="http://www.w3.org/2000/svg">
  <defs
     id="defs13">
    <filter
       style="color-interpolation-filters:sRGB;"
       inkscape:label="Drop Shadow"
       id="filter911"
       x="-1.1181985"
       y="-1.1347366"
       width="3.1770221"
       height="3.2093634">
      <feFlood
         flood-opacity="1"
         flood-color="rgb(58,63,94)"
         result="flood"
         id="feFlood901" />
      <feComposite
         in="flood"
         in2="SourceGraphic"
         operator="out"
         result="composite1"
         id="feComposite903" />
      <feGaussianBlur
         in="composite1"
         stdDeviation="15"
         result="blur"
         id="feGaussianBlur905" />
      <feOffset
         dx="0"
         dy="0"
         result="offset"
         id="feOffset907" />
      <feComposite
         in="offset"
         in2="SourceGraphic"
         operator="atop"
         result="composite2"
         id="feComposite909" />
    </filter>
    <filter
       style="color-interpolation-filters:sRGB;"
       inkscape:label="Drop Shadow"
       id="filter1155"
       x="-0.17625458"
       y="-0.17888525"
       width="1.3525092"
       height="1.3577705">
      <feFlood
         flood-opacity="1"
         flood-color="rgb(58,63,94)"
         result="flood"
         id="feFlood1145" />
      <feComposite
         in="flood"
         in2="SourceGraphic"
         operator="out"
         result="composite1"
         id="feComposite1147" />
      <feGaussianBlur
         in="composite1"
         stdDeviation="4.99388"
         result="blur"
         id="feGaussianBlur1149" />
      <feOffset
         dx="0"
         dy="0"
         result="offset"
         id="feOffset1151" />
      <feComposite
         in="offset"
         in2="SourceGraphic"
         operator="atop"
         result="composite2"
         id="feComposite1153" />
    </filter>
    <filter
       style="color-interpolation-filters:sRGB;"
       inkscape:label="Drop Shadow"
       id="filter1105"
       x="-0.11888965"
       y="-0.12066412"
       width="1.2377793"
       height="1.2413282">
      <feFlood
         flood-opacity="1"
         flood-color="rgb(58,63,94)"
         result="flood"
         id="feFlood1095" />
      <feComposite
         in="flood"
         in2="SourceGraphic"
         operator="out"
         result="composite1"
         id="feComposite1097" />
      <feGaussianBlur
         in="composite1"
         stdDeviation="3.36854"
         result="blur"
         id="feGaussianBlur1099" />
      <feOffset
         dx="0"
         dy="0"
         result="offset"
         id="feOffset1101" />
      <feComposite
         in="offset"
         in2="SourceGraphic"
         operator="atop"
         result="composite2"
         id="feComposite1103" />
    </filter>
    <filter
       style="color-interpolation-filters:sRGB;"
       inkscape:label="Drop Shadow"
       id="filter13652"
       x="-0.077900418"
       y="-0.080053854"
       width="1.1558008"
       height="1.1601077">
      <feFlood
         flood-opacity="1"
         flood-color="rgb(58,63,94)"
         result="flood"
         id="feFlood13642" />
      <feComposite
         in="flood"
         in2="SourceGraphic"
         operator="out"
         result="composite1"
         id="feComposite13644" />
      <feGaussianBlur
         in="composite1"
         stdDeviation="15"
         result="blur"
         id="feGaussianBlur13646" />
      <feOffset
         dx="0"
         dy="0"
         result="offset"
         id="feOffset13648" />
      <feComposite
         in="offset"
         in2="SourceGraphic"
         operator="atop"
         result="composite2"
         id="feComposite13650" />
    </filter>
    <filter
       style="color-interpolation-filters:sRGB;"
       inkscape:label="Drop Shadow"
       id="filter14416"
       x="-0.068571429"
       y="-0.034285714"
       width="1.1371429"
       height="1.0685714">
      <feFlood
         flood-opacity="1"
         flood-color="rgb(58,63,94)"
         result="flood"
         id="feFlood14406" />
      <feComposite
         in="flood"
         in2="SourceGraphic"
         operator="out"
         result="composite1"
         id="feComposite14408" />
      <feGaussianBlur
         in="composite1"
         stdDeviation="15"
         result="blur"
         id="feGaussianBlur14410" />
      <feOffset
         dx="0"
         dy="0"
         result="offset"
         id="feOffset14412" />
      <feComposite
         in="offset"
         in2="SourceGraphic"
         operator="atop"
         result="composite2"
         id="feComposite14414" />
    </filter>
    <filter
       style="color-interpolation-filters:sRGB;"
       inkscape:label="Drop Shadow"
       id="filter15059"
       x="-0.033103448"
       y="-0.033684179"
       width="1.0662069"
       height="1.0673684">
      <feFlood
         flood-opacity="1"
         flood-color="rgb(58,63,94)"
         result="flood"
         id="feFlood15049" />
      <feComposite
         in="flood"
         in2="SourceGraphic"
         operator="out"
         result="composite1"
         id="feComposite15051" />
      <feGaussianBlur
         in="composite1"
         stdDeviation="15"
         result="blur"
         id="feGaussianBlur15053" />
      <feOffset
         dx="0"
         dy="0"
         result="offset"
         id="feOffset15055" />
      <feComposite
         in="offset"
         in2="SourceGraphic"
         operator="atop"
         result="composite2"
         id="feComposite15057" />
    </filter>
    <filter
       style="color-interpolation-filters:sRGB;"
       inkscape:label="Drop Shadow"
       id="filter16791"
       x="-0.091296007"
       y="-0.038284669"
       width="1.182592"
       height="1.0765693">
      <feFlood
         flood-opacity="1"
         flood-color="rgb(58,63,94)"
         result="flood"
         id="feFlood16781" />
      <feComposite
         in="flood"
         in2="SourceGraphic"
         operator="out"
         result="composite1"
         id="feComposite16783" />
      <feGaussianBlur
         in="composite1"
         stdDeviation="15"
         result="blur"
         id="feGaussianBlur16785" />
      <feOffset
         dx="0"
         dy="0"
         result="offset"
         id="feOffset16787" />
      <feComposite
         in="offset"
         in2="SourceGraphic"
         operator="atop"
         result="composite2"
         id="feComposite16789" />
    </filter>
    <filter
       style="color-interpolation-filters:sRGB;"
       inkscape:label="Drop Shadow"
       id="filter17416"
       x="-0.03"
       y="-0.036"
       width="1.06"
       height="1.072">
      <feFlood
         flood-opacity="1"
         flood-color="rgb(58,63,94)"
         result="flood"
         id="feFlood17406" />
      <feComposite
         in="flood"
         in2="SourceGraphic"
         operator="out"
         result="composite1"
         id="feComposite17408" />
      <feGaussianBlur
         in="composite1"
         stdDeviation="15"
         result="blur"
         id="feGaussianBlur17410" />
      <feOffset
         dx="0"
         dy="0"
         result="offset"
         id="feOffset17412" />
      <feComposite
         in="offset"
         in2="SourceGraphic"
         operator="atop"
         result="composite2"
         id="feComposite17414" />
    </filter>
    <filter
       style="color-interpolation-filters:sRGB;"
       inkscape:label="Drop Shadow"
       id="filter18561"
       x="-0.075"
       y="-0.038412292"
       width="1.15"
       height="1.0768246">
      <feFlood
         flood-opacity="1"
         flood-color="rgb(58,63,94)"
         result="flood"
         id="feFlood18551" />
      <feComposite
         in="flood"
         in2="SourceGraphic"
         operator="out"
         result="composite1"
         id="feComposite18553" />
      <feGaussianBlur
         in="composite1"
         stdDeviation="15"
         result="blur"
         id="feGaussianBlur18555" />
      <feOffset
         dx="0"
         dy="0"
         result="offset"
         id="feOffset18557" />
      <feComposite
         in="offset"
         in2="SourceGraphic"
         operator="atop"
         result="composite2"
         id="feComposite18559" />
    </filter>
  </defs>
  <sodipodi:namedview
     id="namedview11"
     pagecolor="#505050"
     bordercolor="#eeeeee"
     borderopacity="1"
     inkscape:pageshadow="0"
     inkscape:pageopacity="0"
     inkscape:pagecheckerboard="0"
     showgrid="false"
     inkscape:zoom="0.81436565"
     inkscape:cx="-2.4558993"
     inkscape:cy="241.90608"
     inkscape:window-width="1716"
     inkscape:window-height="1386"
     inkscape:window-x="1440"
     inkscape:window-y="702"
     inkscape:window-maximized="1"
     inkscape:current-layer="svg9"
     inkscape:showpageshadow="2"
     inkscape:deskcolor="#505050" />
  <title
     id="title2" />
  <desc
     id="desc4" />
  <path
     d="M 0,0 H 512 V 512 H 0 Z"
     fill="#b90202"
     fill-opacity="1"
     id="path902"
     style="fill:#1b1f21;fill-opacity:0" />
  <g
     id="g17994"
     transform="matrix(0.35180007,-0.35180007,0.35180007,0.35180007,-253.33614,274.36361)"
     style="fill:#ff0ec0;fill-opacity:1;filter:url(#filter18561)">
    <path
       id="path17984"
       style="fill:#ff0ec0;fill-opacity:1"
       d="m 990.0012,301.19906 -480.00064,0.003 -0.003,803.99836 H 990.0012 Z M 861.49915,536.34572 771.10191,734.69779 833.41258,526.69113 Z m -37.29979,-34.66824 c 3.63556,3.63556 3.63531,9.52801 0,13.16333 -3.63532,3.6352 -9.5309,3.63809 -13.1661,0.003 -3.63532,-3.6352 -3.63243,-9.53078 0.003,-13.1661 3.63532,-3.63531 9.52777,-3.63556 13.16333,0 z m -66.69937,-30.71813 c 4.36251,4.36252 4.3595,11.43538 -0.003,15.79766 -4.36251,4.36251 -11.43261,4.36227 -15.79488,0 -4.36252,-4.36253 -4.36505,-11.43538 -0.003,-15.79766 4.36253,-4.36252 11.43816,-4.36228 15.80044,0 z m 40.81131,44.32005 -52.66441,215.02692 13.1661,-220.29281 z m 73.7224,78.99107 c 4.36325,4.36308 4.36228,11.43815 0,15.80043 -4.36309,4.36325 -11.43441,4.36047 -15.79766,-0.003 -4.36236,-4.36236 -4.36308,-11.43163 0,-15.79488 4.36253,-4.36236 11.43554,-4.36506 15.79766,-0.003 z M 722.82342,467.00091 717.55476,709.23722 687.27522,469.19388 Z m 76.80365,105.76742 c 2.42308,2.42308 2.42405,6.35336 0,8.7774 -2.42394,2.42404 -6.35442,2.42298 -8.7774,0 -2.42394,-2.42404 -2.42384,-6.35345 0,-8.7774 2.42402,-2.42402 6.35356,-2.42395 8.7774,0 z M 875.98103,649.12229 804.013,752.68564 849.6516,635.079 Z M 675.86349,489.37746 c 3.63527,3.63531 3.63527,9.53356 0,13.16888 -3.63532,3.63527 -9.53079,3.63254 -13.16611,-0.003 -3.63455,-3.63455 -3.63527,-9.52801 0,-13.16333 3.63532,-3.63527 9.53152,-3.63736 13.16611,-0.003 z m 206.70198,214.6022 c 5.08925,5.08925 5.0863,13.33997 -0.003,18.42922 -5.08925,5.08906 -13.33997,5.09202 -18.42922,0.003 -5.09003,-5.09003 -5.08906,-13.34274 0,-18.43199 5.08925,-5.08907 13.34196,-5.09003 18.43199,0 z M 657.00956,513.52781 693.86799,735.57775 621.02554,523.18517 Z m 84.2514,84.25695 c 2.42404,2.42404 2.42574,6.35166 0.003,8.77462 -2.42405,2.42405 -6.35346,2.42395 -8.77741,0 -2.42305,-2.42305 -2.42392,-6.35345 0,-8.7774 2.42308,-2.42307 6.35165,-2.4202 8.77463,0.003 z m -53.97741,-31.1595 c 2.42401,2.42404 2.42682,6.35061 0.003,8.77462 -2.42401,2.42405 -6.35345,2.42395 -8.7774,0 -2.42308,-2.42304 -2.42394,-6.35345 0,-8.7774 2.42402,-2.42399 6.35165,-2.4202 8.77463,0.003 z m 94.78872,96.54309 c 2.90847,2.90847 2.90845,7.62342 0,10.53177 -2.90844,2.90845 -7.62318,2.90859 -10.53177,0 -2.90751,-2.90741 -2.90859,-7.62318 0,-10.53177 2.90847,-2.90838 7.62415,-2.90753 10.53177,0 z m 23.25928,47.83157 c 3.63532,3.63531 3.63241,9.53092 -0.003,13.1661 -3.63532,3.63532 -9.52801,3.63532 -13.16333,0 -3.63531,-3.63518 -3.63531,-9.52801 0,-13.16333 3.63532,-3.63518 9.53092,-3.63809 13.1661,-0.003 z m 28.0838,28.96654 c 0,0 26.76723,26.76611 26.76803,28.52239 8.33796,38.17681 -2.19313,79.42982 -32.03391,109.2706 -47.39205,47.39205 -123.75119,47.39447 -171.14546,0 -47.39428,-47.39427 -46.51438,-123.75254 -0.87719,-170.26827 l 26.76525,50.4659 41.25545,-37.74117 21.06355,51.78168 32.46972,-28.96099 14.92325,43.88146 z m -96.97891,-43.44842 c 2.90847,2.90847 2.90575,7.62596 -0.003,10.53455 -2.90845,2.90837 -7.62055,2.90567 -10.529,-0.003 -2.90844,-2.90844 -2.91137,-7.62041 -0.003,-10.529 2.90839,-2.9084 7.62614,-2.91124 10.53454,-0.003 z m -32.91387,-15.35907 c 2.42405,2.42405 2.42405,6.35341 0,8.7774 -2.42399,2.42405 -6.35338,2.42402 -8.7774,0 -2.42402,-2.42396 -2.42394,-6.35345 0,-8.7774 2.42404,-2.42399 6.35341,-2.42399 8.7774,0 z m -53.98019,-19.74776 c 5.08925,5.08916 5.09022,13.34177 0,18.43199 -5.08916,5.08916 -13.33996,5.08639 -18.42921,-0.003 -5.08917,-5.08925 -5.09202,-13.34005 -0.003,-18.42921 5.09013,-5.09022 13.34282,-5.08925 18.43198,0 z"
       sodipodi:nodetypes="cccccccccsscssssssscccccssccccccsssssccccsssssscscsccccssssssssssssssssssssccsscccccccsssssssssssssss" />
    <path
       d="m 570,1178.4 h 360 l 49.199,-49.199 h -458.4 z"
       id="path17988"
       style="fill:#ff0ec0;fill-opacity:1" />
    <path
       d="M 870,241.2 H 630 l -120,36 h 480 z"
       id="path17990"
       style="fill:#ff0ec0;fill-opacity:1" />
  </g>
  <g
     id="g18681"
     transform="matrix(-0.16981881,0,0,0.16981881,357.88904,154.10781)" />
</svg>
