<?xml version="1.0" encoding="UTF-8" standalone="no"?>
<svg
   width="512"
   height="512"
   viewBox="0 0 512 512"
   version="1.1"
   id="svg8"
   sodipodi:docname="trauma-team-medscan.svg"
   inkscape:version="1.2.2 (b0a8486541, 2022-12-01)"
   xml:space="preserve"
   xmlns:inkscape="http://www.inkscape.org/namespaces/inkscape"
   xmlns:sodipodi="http://sodipodi.sourceforge.net/DTD/sodipodi-0.dtd"
   xmlns="http://www.w3.org/2000/svg"
   xmlns:svg="http://www.w3.org/2000/svg"><defs
     id="defs12"><filter
       style="color-interpolation-filters:sRGB;"
       inkscape:label="Drop Shadow"
       id="filter875"
       x="-0.31291152"
       y="-0.16857506"
       width="1.6092078"
       height="1.3282203"><feFlood
         flood-opacity="1"
         flood-color="rgb(58,63,94)"
         result="flood"
         id="feFlood865" /><feComposite
         in="flood"
         in2="SourceGraphic"
         operator="out"
         result="composite1"
         id="feComposite867" /><feGaussianBlur
         in="composite1"
         stdDeviation="15"
         result="blur"
         id="feGaussianBlur869" /><feOffset
         dx="0"
         dy="0"
         result="offset"
         id="feOffset871" /><feComposite
         in="offset"
         in2="SourceGraphic"
         operator="atop"
         result="composite2"
         id="feComposite873" /></filter><filter
       style="color-interpolation-filters:sRGB;"
       inkscape:label="Drop Shadow"
       id="filter1015"
       x="-0.081997928"
       y="-0.044180702"
       width="1.1639959"
       height="1.0883614"><feFlood
         flood-opacity="1"
         flood-color="rgb(58,63,94)"
         result="flood"
         id="feFlood1005" /><feComposite
         in="flood"
         in2="SourceGraphic"
         operator="out"
         result="composite1"
         id="feComposite1007" /><feGaussianBlur
         in="composite1"
         stdDeviation="8.30229"
         result="blur"
         id="feGaussianBlur1009" /><feOffset
         dx="0"
         dy="0"
         result="offset"
         id="feOffset1011" /><feComposite
         in="offset"
         in2="SourceGraphic"
         operator="atop"
         result="composite2"
         id="feComposite1013" /></filter><filter
       style="color-interpolation-filters:sRGB;"
       inkscape:label="Drop Shadow"
       id="filter35638"
       x="-0.057142887"
       y="-0.13067032"
       width="1.1142858"
       height="1.2613406"><feFlood
         flood-opacity="1"
         flood-color="rgb(58,63,94)"
         result="flood"
         id="feFlood35628" /><feComposite
         in="flood"
         in2="SourceGraphic"
         operator="out"
         result="composite1"
         id="feComposite35630" /><feGaussianBlur
         in="composite1"
         stdDeviation="6"
         result="blur"
         id="feGaussianBlur35632" /><feOffset
         dx="0"
         dy="0"
         result="offset"
         id="feOffset35634" /><feComposite
         in="offset"
         in2="SourceGraphic"
         operator="atop"
         result="composite2"
         id="feComposite35636" /></filter><filter
       style="color-interpolation-filters:sRGB;"
       inkscape:label="Drop Shadow"
       id="filter35813"
       x="-0.053321701"
       y="-0.069584126"
       width="1.1066434"
       height="1.1391683"><feFlood
         flood-opacity="1"
         flood-color="rgb(58,63,94)"
         result="flood"
         id="feFlood35803" /><feComposite
         in="flood"
         in2="SourceGraphic"
         operator="out"
         result="composite1"
         id="feComposite35805" /><feGaussianBlur
         in="composite1"
         stdDeviation="8"
         result="blur"
         id="feGaussianBlur35807" /><feOffset
         dx="0"
         dy="0"
         result="offset"
         id="feOffset35809" /><feComposite
         in="offset"
         in2="SourceGraphic"
         operator="atop"
         result="composite2"
         id="feComposite35811" /></filter><filter
       style="color-interpolation-filters:sRGB;"
       inkscape:label="Drop Shadow"
       id="filter36051"
       x="-0.028125"
       y="-0.038976963"
       width="1.05625"
       height="1.0779539"><feFlood
         flood-opacity="1"
         flood-color="rgb(58,63,94)"
         result="flood"
         id="feFlood36041" /><feComposite
         in="flood"
         in2="SourceGraphic"
         operator="out"
         result="composite1"
         id="feComposite36043" /><feGaussianBlur
         in="composite1"
         stdDeviation="6"
         result="blur"
         id="feGaussianBlur36045" /><feOffset
         dx="0"
         dy="0"
         result="offset"
         id="feOffset36047" /><feComposite
         in="offset"
         in2="SourceGraphic"
         operator="atop"
         result="composite2"
         id="feComposite36049" /></filter><filter
       style="color-interpolation-filters:sRGB;"
       inkscape:label="Drop Shadow"
       id="filter36715"
       x="-0.069720211"
       y="-0.091087118"
       width="1.1394404"
       height="1.1821742"><feFlood
         flood-opacity="1"
         flood-color="rgb(58,63,94)"
         result="flood"
         id="feFlood36705" /><feComposite
         in="flood"
         in2="SourceGraphic"
         operator="out"
         result="composite1"
         id="feComposite36707" /><feGaussianBlur
         in="composite1"
         stdDeviation="16.2006"
         result="blur"
         id="feGaussianBlur36709" /><feOffset
         dx="0"
         dy="0"
         result="offset"
         id="feOffset36711" /><feComposite
         in="offset"
         in2="SourceGraphic"
         operator="atop"
         result="composite2"
         id="feComposite36713" /></filter><filter
       style="color-interpolation-filters:sRGB;"
       inkscape:label="Drop Shadow"
       id="filter37057"
       x="-0.079999702"
       y="-0.075040311"
       width="1.1599994"
       height="1.1500806"><feFlood
         flood-opacity="1"
         flood-color="rgb(58,63,94)"
         result="flood"
         id="feFlood37047" /><feComposite
         in="flood"
         in2="SourceGraphic"
         operator="out"
         result="composite1"
         id="feComposite37049" /><feGaussianBlur
         in="composite1"
         stdDeviation="0.5"
         result="blur"
         id="feGaussianBlur37051" /><feOffset
         dx="0"
         dy="0"
         result="offset"
         id="feOffset37053" /><feComposite
         in="offset"
         in2="SourceGraphic"
         operator="atop"
         result="composite2"
         id="feComposite37055" /></filter></defs><sodipodi:namedview
     id="namedview10"
     pagecolor="#505050"
     bordercolor="#eeeeee"
     borderopacity="1"
     inkscape:pageshadow="0"
     inkscape:pageopacity="0"
     inkscape:pagecheckerboard="0"
     showgrid="false"
     inkscape:zoom="1.7558594"
     inkscape:cx="302.98554"
     inkscape:cy="308.11123"
     inkscape:window-width="1716"
     inkscape:window-height="1402"
     inkscape:window-x="3160"
     inkscape:window-y="684"
     inkscape:window-maximized="1"
     inkscape:current-layer="svg8"
     inkscape:showpageshadow="2"
     inkscape:deskcolor="#505050"
     showguides="true" /><path
     d="M0 0h512v512H0z"
     fill="#b90202"
     fill-opacity="1"
     id="path2"
     style="fill:#1b1f21;fill-opacity:0" /><style
     type="text/css"
     id="style35976">
	.st0{fill:#000000;}
</style><g
     style="fill:#ff0ec0;fill-opacity:1;filter:url(#filter37057)"
     id="g36830"
     transform="matrix(29.866556,0,0,29.866556,17.067552,17.067552)"><path
       id="path36821"
       style="fill:#ff0ec0;fill-opacity:1"
       d="M 8 0.0042777112 C 7.5888762 0.0042897812 7.1856117 0.11694604 6.8340062 0.33001047 L 1.584026 3.5120029 C 0.91115057 3.919695 0.50009397 4.6492417 0.49997221 5.4359908 L 0.49997221 10.564009 C 0.50009394 11.350758 0.91115054 12.080304 1.584026 12.487997 L 6.8340062 15.66999 C 7.5506843 16.104245 8.4493157 16.104245 9.1659938 15.66999 L 14.415974 12.487997 C 15.088849 12.080304 15.499906 11.350758 15.500028 10.564009 L 15.500028 5.4359908 C 15.499906 4.6492417 15.088849 3.9196949 14.415974 3.5120029 L 9.1659938 0.33001047 C 8.8143883 0.11694604 8.4111238 0.0042897812 8 0.0042777112 z M 4.2317409 4.0543895 L 11.768259 4.0543895 A 0.33278074 0.33278074 0 0 1 12.100335 4.3864656 L 12.100335 9.4124677 A 0.33068339 0.33068339 0 0 1 12.091965 9.4865603 C 12.097558 9.5699885 12.100335 9.6562421 12.100335 9.7452632 C 12.100335 12.009708 8 13.284901 8 13.284901 C 8 13.284901 3.8996648 12.009688 3.8996648 9.7445438 C 3.8996648 9.6559888 3.9024424 9.5697352 3.9080354 9.485841 A 0.33068339 0.33068339 0 0 1 3.8996648 9.4124677 L 3.8996648 4.3864656 A 0.33278074 0.33278074 0 0 1 4.2317409 4.0543895 z M 7.4861257 5.642116 A 0.33278074 0.33278074 0 0 0 7.1540496 5.9741921 L 7.1540496 7.2948451 L 5.8334619 7.2948451 A 0.33278074 0.33278074 0 0 0 5.5013204 7.6269212 L 5.5013204 8.6546045 A 0.33278074 0.33278074 0 0 0 5.8334619 8.9860266 L 7.1547689 8.9860266 L 7.1547689 10.306614 A 0.33278074 0.33278074 0 0 0 7.4861257 10.63869 L 8.5138743 10.63869 A 0.33278074 0.33278074 0 0 0 8.8459504 10.306614 L 8.8459504 8.9860266 L 10.166538 8.9860266 A 0.33278074 0.33278074 0 0 0 10.49868 8.6538851 L 10.49868 7.6269212 A 0.33278074 0.33278074 0 0 0 10.166538 7.2948451 L 8.8452311 7.2948451 L 8.8452311 5.9734727 A 0.33278074 0.33278074 0 0 0 8.5138743 5.642116 L 7.4861257 5.642116 z " /></g><g
     style="fill:#000000"
     id="g36899"
     transform="matrix(0.56141049,0,0,0.56141049,112.27908,112.2792)"><g
       id="g36887">
	<g
   id="g36885">
		<g
   id="g36883">
			
			
		</g>
	</g>
</g></g><g
     style="fill:#000000"
     id="g37216"
     transform="matrix(6.3369851,0,0,6.3369851,97.22263,94.40688)" /><g
     style="fill:#000000"
     id="g37408"
     transform="matrix(20.880283,0,0,20.880283,120.27816,72.010075)" /></svg>
