<?xml version="1.0" encoding="UTF-8" standalone="no"?>
<svg
   viewBox="0 0 512 512"
   style="height: 512px; width: 512px;"
   version="1.1"
   id="svg886"
   sodipodi:docname="zacatzontil.svg"
   inkscape:version="1.2.2 (b0a8486541, 2022-12-01)"
   xmlns:inkscape="http://www.inkscape.org/namespaces/inkscape"
   xmlns:sodipodi="http://sodipodi.sourceforge.net/DTD/sodipodi-0.dtd"
   xmlns="http://www.w3.org/2000/svg"
   xmlns:svg="http://www.w3.org/2000/svg">
  <sodipodi:namedview
     id="namedview888"
     pagecolor="#ffffff"
     bordercolor="#666666"
     borderopacity="1.0"
     inkscape:showpageshadow="2"
     inkscape:pageopacity="0.0"
     inkscape:pagecheckerboard="0"
     inkscape:deskcolor="#d1d1d1"
     showgrid="false"
     inkscape:zoom="3.6875"
     inkscape:cx="152.40678"
     inkscape:cy="211.79661"
     inkscape:window-width="1716"
     inkscape:window-height="1386"
     inkscape:window-x="1440"
     inkscape:window-y="702"
     inkscape:window-maximized="1"
     inkscape:current-layer="svg886" />
  <defs
     id="defs878">
    <filter
       id="shadow-1"
       height="1.1517236"
       width="1.1517246"
       x="-0.075862315"
       y="-0.075861805">
      <feFlood
         flood-color="rgba(58, 63, 94, 1)"
         result="flood"
         id="feFlood867" />
      <feComposite
         in="flood"
         in2="SourceGraphic"
         operator="out"
         result="composite"
         id="feComposite869" />
      <feGaussianBlur
         in="composite"
         stdDeviation="15"
         result="blur"
         id="feGaussianBlur871" />
      <feOffset
         dx="0"
         dy="0"
         result="offset"
         id="feOffset873" />
      <feComposite
         in2="SourceGraphic"
         in="offset"
         operator="atop"
         id="feComposite875" />
    </filter>
    <filter
       style="color-interpolation-filters:sRGB;"
       inkscape:label="Drop Shadow"
       id="filter2672"
       x="-0.036508511"
       y="-0.030096649"
       width="1.073017"
       height="1.0601933">
      <feFlood
         flood-opacity="1"
         flood-color="rgb(58,63,94)"
         result="flood"
         id="feFlood2662" />
      <feComposite
         in="flood"
         in2="SourceGraphic"
         operator="out"
         result="composite1"
         id="feComposite2664" />
      <feGaussianBlur
         in="composite1"
         stdDeviation="15"
         result="blur"
         id="feGaussianBlur2666" />
      <feOffset
         dx="0"
         dy="0"
         result="offset"
         id="feOffset2668" />
      <feComposite
         in="offset"
         in2="SourceGraphic"
         operator="atop"
         result="composite2"
         id="feComposite2670" />
    </filter>
    <filter
       style="color-interpolation-filters:sRGB;"
       inkscape:label="Drop Shadow"
       id="filter3258"
       x="-0.033333307"
       y="-0.036846098"
       width="1.0666666"
       height="1.0736922">
      <feFlood
         flood-opacity="1"
         flood-color="rgb(58,63,94)"
         result="flood"
         id="feFlood3248" />
      <feComposite
         in="flood"
         in2="SourceGraphic"
         operator="out"
         result="composite1"
         id="feComposite3250" />
      <feGaussianBlur
         in="composite1"
         stdDeviation="15"
         result="blur"
         id="feGaussianBlur3252" />
      <feOffset
         dx="0"
         dy="0"
         result="offset"
         id="feOffset3254" />
      <feComposite
         in="offset"
         in2="SourceGraphic"
         operator="atop"
         result="composite2"
         id="feComposite3256" />
    </filter>
    <filter
       style="color-interpolation-filters:sRGB;"
       inkscape:label="Drop Shadow"
       id="filter4517"
       x="-0.04755843"
       y="-0.048809898"
       width="1.0951169"
       height="1.0976198">
      <feFlood
         flood-opacity="1"
         flood-color="rgb(58,63,94)"
         result="flood"
         id="feFlood4507" />
      <feComposite
         in="flood"
         in2="SourceGraphic"
         operator="out"
         result="composite1"
         id="feComposite4509" />
      <feGaussianBlur
         in="composite1"
         stdDeviation="10"
         result="blur"
         id="feGaussianBlur4511" />
      <feOffset
         dx="0"
         dy="0"
         result="offset"
         id="feOffset4513" />
      <feComposite
         in="offset"
         in2="SourceGraphic"
         operator="atop"
         result="composite2"
         id="feComposite4515" />
    </filter>
    <filter
       style="color-interpolation-filters:sRGB;"
       inkscape:label="Drop Shadow"
       id="filter5154"
       x="-0.073142173"
       y="-0.051090164"
       width="1.1462843"
       height="1.1021803">
      <feFlood
         flood-opacity="1"
         flood-color="rgb(58,63,94)"
         result="flood"
         id="feFlood5144" />
      <feComposite
         in="flood"
         in2="SourceGraphic"
         operator="out"
         result="composite1"
         id="feComposite5146" />
      <feGaussianBlur
         in="composite1"
         stdDeviation="10"
         result="blur"
         id="feGaussianBlur5148" />
      <feOffset
         dx="0"
         dy="0"
         result="offset"
         id="feOffset5150" />
      <feComposite
         in="offset"
         in2="SourceGraphic"
         operator="atop"
         result="composite2"
         id="feComposite5152" />
    </filter>
    <filter
       style="color-interpolation-filters:sRGB;"
       inkscape:label="Drop Shadow"
       id="filter5778"
       x="-0.050442997"
       y="-0.092707304"
       width="1.100886"
       height="1.1854146">
      <feFlood
         flood-opacity="1"
         flood-color="rgb(58,63,94)"
         result="flood"
         id="feFlood5768" />
      <feComposite
         in="flood"
         in2="SourceGraphic"
         operator="out"
         result="composite1"
         id="feComposite5770" />
      <feGaussianBlur
         in="composite1"
         stdDeviation="10"
         result="blur"
         id="feGaussianBlur5772" />
      <feOffset
         dx="0"
         dy="0"
         result="offset"
         id="feOffset5774" />
      <feComposite
         in="offset"
         in2="SourceGraphic"
         operator="atop"
         result="composite2"
         id="feComposite5776" />
    </filter>
    <clipPath
       id="a">
      <path
         d="M 222.14,222.14 H 977.85 V 977.85 H 222.14 Z"
         id="path6679" />
    </clipPath>
    <clipPath
       id="a-5">
      <path
         d="M 222.14,222.14 H 977.85 V 977.85 H 222.14 Z"
         id="path6679-3" />
    </clipPath>
    <filter
       style="color-interpolation-filters:sRGB;"
       inkscape:label="Drop Shadow"
       id="filter8128"
       x="-0.51199727"
       y="-0.25599863"
       width="2.0239945"
       height="1.5119973">
      <feFlood
         flood-opacity="1"
         flood-color="rgb(58,63,94)"
         result="flood"
         id="feFlood8118" />
      <feComposite
         in="flood"
         in2="SourceGraphic"
         operator="out"
         result="composite1"
         id="feComposite8120" />
      <feGaussianBlur
         in="composite1"
         stdDeviation="8"
         result="blur"
         id="feGaussianBlur8122" />
      <feOffset
         dx="0"
         dy="0"
         result="offset"
         id="feOffset8124" />
      <feComposite
         in="offset"
         in2="SourceGraphic"
         operator="atop"
         result="composite2"
         id="feComposite8126" />
    </filter>
    <filter
       style="color-interpolation-filters:sRGB;"
       inkscape:label="Drop Shadow"
       id="filter21595"
       x="-0.038264996"
       y="-0.082038655"
       width="1.07653"
       height="1.1640773">
      <feFlood
         flood-opacity="1"
         flood-color="rgb(58,63,94)"
         result="flood"
         id="feFlood21585" />
      <feComposite
         in="flood"
         in2="SourceGraphic"
         operator="out"
         result="composite1"
         id="feComposite21587" />
      <feGaussianBlur
         in="composite1"
         stdDeviation="15"
         result="blur"
         id="feGaussianBlur21589" />
      <feOffset
         dx="0"
         dy="0"
         result="offset"
         id="feOffset21591" />
      <feComposite
         in="offset"
         in2="SourceGraphic"
         operator="atop"
         result="composite2"
         id="feComposite21593" />
    </filter>
  </defs>
  <path
     d="M 0.35858051,-0.2092161 H 512.35858 V 511.79078 H 0.35858051 Z"
     fill="#1b1f21"
     fill-opacity="0"
     id="path880" />
  <g
     clip-path="url(#a-5)"
     id="g6686"
     transform="matrix(0.51260194,0,0,0.51260194,-62.643019,-31.742847)"
     style="fill:#ffffff" />
  <g
     id="g21583"
     transform="matrix(0.52378128,0,0,0.52378128,158.67351,143.73403)"
     style="fill:#ff0ec0;fill-opacity:1;filter:url(#filter21595)">
    <g
       id="g20419"
       transform="matrix(-0.78210823,0,0,0.78210823,703.29302,-188.95735)"
       style="fill:#ff0ec0;fill-opacity:1">
      <path
         d="m 933.77,596.5 h -0.46875 c -53.879,0 -97.703,43.559 -97.922,97.512 -0.23828,54.121 43.414,98.137 97.488,98.363 h 0.45703 c 53.867,0 97.70302,-43.57 97.93402,-97.523 0.2265,-54.07 -43.41802,-98.125 -97.48802,-98.352 z"
         id="path20413"
         style="fill:#ff0ec0;fill-opacity:1"
         sodipodi:nodetypes="csccscsc" />
      <path
         d="m 254.18,600.3 h -0.43359 c -53.891,0 -97.68,43.547 -97.922,97.523 -0.23828,54.121 43.402,98.137 97.512,98.363 H 253.77 c 53.879,0 97.68,-43.57 97.934,-97.523 0.23047,-54.059 -43.438,-98.125 -97.523,-98.363 z"
         id="path20415"
         style="fill:#ff0ec0;fill-opacity:1"
         sodipodi:nodetypes="csccscsc" />
      <path
         d="m 768.72,690.42 v 16.246 c 0,6.1445 -5.3984,11.16 -12,11.16 H 381.29 c -6.2539,0 -7.5352,-5.2305 -7.5234,-7.8945 0.0117,-2.8086 -0.20312,-16.738 -0.38281,-19.5 h 395.34 z m 365.76,-65.367 c -3.3008,0 -6.5625,-5.3867 -6.5625,-12 v -96.168 c 0,-12.527 -12.156,-24.301 -24.156,-24.301 l -323.28,0.004 -19.98,-76.98 c -1.2227,-6.4805 -7.6328,-11.785 -14.23,-11.785 h -287.77 c -6.6016,0 -16.234,3.3477 -21.406,7.4531 l -90.121,62.352 c -5.1719,4.0938 -14.785,8.0039 -21.348,8.6875 l -202.09,21.035 c -6.5625,0.68359 -16.883,3.4062 -22.934,6.0586 l -5.375,2.3516 c -5.9023,2.5938 -10.68,9.8633 -10.906,16.344 l -0.13281,0.004 c -6.6016,0 -12,5.3984 -12,12 v 81 c -6.6016,0 -12,5.4102 -12,12 v 37.824 c 0,7.8008 6.0352,11.902 12,13.523 h 62.027 c 0,0 0.83984,-4.1055 1.5117,-7.8008 10.234,-55.848 59.352,-98.398 118.02,-98.398 61.801,0.25391 112.27,46.715 119.14,106.18 h 395.84 v -0.0703 l 45.133,0.0703 c 5.1367,-61.453 56.797,-109.99 119.46,-109.99 63.086,0.27734 114.38001,48.695 119.53001,109.95 4.6094,-0.30078 9.2773,0.49219 12.758,0 h 63 c 6.5391,-0.91016 11.316,-5.6758 11.316,-12.277 v -38.785 c 0,-6.6016 -2.1367,-8.2695 -5.4375,-8.2695 z M 738.71,492.003 c 0.99609,6.5273 -3.6016,11.867 -10.199,11.867 h -128.51 v -83.879 h 113.21 c 6.6016,0 12.805,5.3398 13.801,11.867 z m -291.57,-64.43 c 5.1133,-4.1758 14.699,-7.5859 21.289,-7.5859 h 108.06 v 83.879 H 504.61 c -6.6016,0 -15.059,4.4531 -18.816,9.875 l -11.449,16.598 c -3.7422,5.4375 -12.215,9.875 -18.816,9.875 h -83.16 c -6.6016,0 -12,-5.3984 -12,-12 v -25.078 c 0,-6.6016 4.1875,-15.422 9.2891,-19.586 z"
         id="path20417"
         style="fill:#ff0ec0;fill-opacity:1" />
    </g>
    <path
       id="path20952"
       style="fill:#ff0ec0;fill-opacity:1;stroke-width:0.712639"
       d="M 76.082285,-5.071259 393.09982,-4.124437 355.39078,119.12341 H 105.09795 l -18.462959,68.43697 -344.201691,-0.008 -0.84702,-97.71384 h -19.62548 c -3.49636,0 -6.54947,-3.06981 -6.54947,-6.549476 V 57.334567 c 0,-29.989246 24.31827,-54.336415 54.33539,-54.336415 l 256.721675,-0.0083 c 8.72127,0 8.72127,13.083287 0,13.083287 l -86.606716,0.0032 V 29.11784 L 4.7780954,29.11052 Z M -73.215246,16.070995 H -133.6114 v 13.07598 l 60.396154,-0.03341 z m -73.475264,0.0083 h -83.55641 c -22.7988,0 -41.25313,18.469754 -41.25313,41.25208 l 0.0166,19.412503 h 13.07494 V 57.331413 c 0,-15.546919 12.60508,-28.179815 28.16044,-28.177142 h 83.55759 z M 349.31625,31.460236 H 142.11345 V 68.746514 H 334.35079 Z M -91.366901,54.813031 h -71.505069 l -61.71056,29.702743 0.75057,45.519706 H -91.366901 Z M 62.25409,55.054218 H -54.505795 V 130.03121 H 62.25409 Z"
       sodipodi:nodetypes="cccccccssscccccccccccccscccsccccccccccccccccccc" />
  </g>
</svg>
