<?xml version="1.0" encoding="UTF-8" standalone="no"?>
<svg
   width="512"
   height="512"
   viewBox="0 0 512 512"
   version="1.1"
   id="svg8"
   sodipodi:docname="zetatech-herakles.svg"
   inkscape:version="1.2.2 (b0a8486541, 2022-12-01)"
   xml:space="preserve"
   xmlns:inkscape="http://www.inkscape.org/namespaces/inkscape"
   xmlns:sodipodi="http://sodipodi.sourceforge.net/DTD/sodipodi-0.dtd"
   xmlns="http://www.w3.org/2000/svg"
   xmlns:svg="http://www.w3.org/2000/svg"><defs
     id="defs12"><filter
       style="color-interpolation-filters:sRGB;"
       inkscape:label="Drop Shadow"
       id="filter875"
       x="-0.31291152"
       y="-0.16857506"
       width="1.6092078"
       height="1.3282203"><feFlood
         flood-opacity="1"
         flood-color="rgb(58,63,94)"
         result="flood"
         id="feFlood865" /><feComposite
         in="flood"
         in2="SourceGraphic"
         operator="out"
         result="composite1"
         id="feComposite867" /><feGaussianBlur
         in="composite1"
         stdDeviation="15"
         result="blur"
         id="feGaussianBlur869" /><feOffset
         dx="0"
         dy="0"
         result="offset"
         id="feOffset871" /><feComposite
         in="offset"
         in2="SourceGraphic"
         operator="atop"
         result="composite2"
         id="feComposite873" /></filter><filter
       style="color-interpolation-filters:sRGB;"
       inkscape:label="Drop Shadow"
       id="filter1015"
       x="-0.081997928"
       y="-0.044180702"
       width="1.1639959"
       height="1.0883614"><feFlood
         flood-opacity="1"
         flood-color="rgb(58,63,94)"
         result="flood"
         id="feFlood1005" /><feComposite
         in="flood"
         in2="SourceGraphic"
         operator="out"
         result="composite1"
         id="feComposite1007" /><feGaussianBlur
         in="composite1"
         stdDeviation="8.30229"
         result="blur"
         id="feGaussianBlur1009" /><feOffset
         dx="0"
         dy="0"
         result="offset"
         id="feOffset1011" /><feComposite
         in="offset"
         in2="SourceGraphic"
         operator="atop"
         result="composite2"
         id="feComposite1013" /></filter><filter
       style="color-interpolation-filters:sRGB;"
       inkscape:label="Drop Shadow"
       id="filter35638"
       x="-0.057142887"
       y="-0.13067032"
       width="1.1142858"
       height="1.2613406"><feFlood
         flood-opacity="1"
         flood-color="rgb(58,63,94)"
         result="flood"
         id="feFlood35628" /><feComposite
         in="flood"
         in2="SourceGraphic"
         operator="out"
         result="composite1"
         id="feComposite35630" /><feGaussianBlur
         in="composite1"
         stdDeviation="6"
         result="blur"
         id="feGaussianBlur35632" /><feOffset
         dx="0"
         dy="0"
         result="offset"
         id="feOffset35634" /><feComposite
         in="offset"
         in2="SourceGraphic"
         operator="atop"
         result="composite2"
         id="feComposite35636" /></filter><filter
       style="color-interpolation-filters:sRGB;"
       inkscape:label="Drop Shadow"
       id="filter35813"
       x="-0.053321701"
       y="-0.069584126"
       width="1.1066434"
       height="1.1391683"><feFlood
         flood-opacity="1"
         flood-color="rgb(58,63,94)"
         result="flood"
         id="feFlood35803" /><feComposite
         in="flood"
         in2="SourceGraphic"
         operator="out"
         result="composite1"
         id="feComposite35805" /><feGaussianBlur
         in="composite1"
         stdDeviation="8"
         result="blur"
         id="feGaussianBlur35807" /><feOffset
         dx="0"
         dy="0"
         result="offset"
         id="feOffset35809" /><feComposite
         in="offset"
         in2="SourceGraphic"
         operator="atop"
         result="composite2"
         id="feComposite35811" /></filter><filter
       style="color-interpolation-filters:sRGB;"
       inkscape:label="Drop Shadow"
       id="filter36051"
       x="-0.028125"
       y="-0.038976963"
       width="1.05625"
       height="1.0779539"><feFlood
         flood-opacity="1"
         flood-color="rgb(58,63,94)"
         result="flood"
         id="feFlood36041" /><feComposite
         in="flood"
         in2="SourceGraphic"
         operator="out"
         result="composite1"
         id="feComposite36043" /><feGaussianBlur
         in="composite1"
         stdDeviation="6"
         result="blur"
         id="feGaussianBlur36045" /><feOffset
         dx="0"
         dy="0"
         result="offset"
         id="feOffset36047" /><feComposite
         in="offset"
         in2="SourceGraphic"
         operator="atop"
         result="composite2"
         id="feComposite36049" /></filter><filter
       style="color-interpolation-filters:sRGB;"
       inkscape:label="Drop Shadow"
       id="filter36715"
       x="-0.069720211"
       y="-0.091087118"
       width="1.1394404"
       height="1.1821742"><feFlood
         flood-opacity="1"
         flood-color="rgb(58,63,94)"
         result="flood"
         id="feFlood36705" /><feComposite
         in="flood"
         in2="SourceGraphic"
         operator="out"
         result="composite1"
         id="feComposite36707" /><feGaussianBlur
         in="composite1"
         stdDeviation="16.2006"
         result="blur"
         id="feGaussianBlur36709" /><feOffset
         dx="0"
         dy="0"
         result="offset"
         id="feOffset36711" /><feComposite
         in="offset"
         in2="SourceGraphic"
         operator="atop"
         result="composite2"
         id="feComposite36713" /></filter><filter
       style="color-interpolation-filters:sRGB;"
       inkscape:label="Drop Shadow"
       id="filter37057"
       x="-0.079999702"
       y="-0.075040311"
       width="1.1599994"
       height="1.1500806"><feFlood
         flood-opacity="1"
         flood-color="rgb(58,63,94)"
         result="flood"
         id="feFlood37047" /><feComposite
         in="flood"
         in2="SourceGraphic"
         operator="out"
         result="composite1"
         id="feComposite37049" /><feGaussianBlur
         in="composite1"
         stdDeviation="0.5"
         result="blur"
         id="feGaussianBlur37051" /><feOffset
         dx="0"
         dy="0"
         result="offset"
         id="feOffset37053" /><feComposite
         in="offset"
         in2="SourceGraphic"
         operator="atop"
         result="composite2"
         id="feComposite37055" /></filter><filter
       style="color-interpolation-filters:sRGB;"
       inkscape:label="Drop Shadow"
       id="filter3381"
       x="-0.059446176"
       y="-0.11153937"
       width="1.1188924"
       height="1.2230787"><feFlood
         flood-opacity="1"
         flood-color="rgb(58,63,94)"
         result="flood"
         id="feFlood3371" /><feComposite
         in="flood"
         in2="SourceGraphic"
         operator="out"
         result="composite1"
         id="feComposite3373" /><feGaussianBlur
         in="composite1"
         stdDeviation="15"
         result="blur"
         id="feGaussianBlur3375" /><feOffset
         dx="0"
         dy="0"
         result="offset"
         id="feOffset3377" /><feComposite
         in="offset"
         in2="SourceGraphic"
         operator="atop"
         result="composite2"
         id="feComposite3379" /></filter></defs><sodipodi:namedview
     id="namedview10"
     pagecolor="#505050"
     bordercolor="#eeeeee"
     borderopacity="1"
     inkscape:pageshadow="0"
     inkscape:pageopacity="0"
     inkscape:pagecheckerboard="0"
     showgrid="false"
     inkscape:zoom="0.8779297"
     inkscape:cx="291.5951"
     inkscape:cy="258.56284"
     inkscape:window-width="1716"
     inkscape:window-height="1386"
     inkscape:window-x="1440"
     inkscape:window-y="702"
     inkscape:window-maximized="1"
     inkscape:current-layer="svg8"
     inkscape:showpageshadow="2"
     inkscape:deskcolor="#505050"
     showguides="true" /><path
     d="M0 0h512v512H0z"
     fill="#b90202"
     fill-opacity="1"
     id="path2"
     style="fill:#1b1f21;fill-opacity:0" /><style
     type="text/css"
     id="style35976">
	.st0{fill:#000000;}
</style><g
     style="fill:#000000"
     id="g36899"
     transform="matrix(0.56141049,0,0,0.56141049,112.27908,112.2792)"><g
       id="g36887">
	<g
   id="g36885">
		<g
   id="g36883">
			
			
		</g>
	</g>
</g></g><path
     id="path2056"
     style="fill:#ff0ec0;fill-opacity:1;stroke-width:0.37734;filter:url(#filter3381)"
     d="m 369.18555,42.208984 v 5.373047 l -55.56836,-0.002 v 16.414063 h 60.70312 V 51.257812 l -2.93945,-3.675781 -0.24219,-5.373047 z m 11.00976,10.152344 v 9.175781 h 20.80664 v -9.175781 z m 28.39649,1.679688 v 5.8125 h 56.78906 v -5.8125 z m -158.47461,19.851562 -6.97852,16.863281 v 12.789061 h 133.4375 V 90.904297 L 369.59961,73.892578 Z M -41.595703,88.726562 -55.550781,105.00391 v 69.32617 h 74.861328 v 7.23047 h -74.861328 v 32.45898 h 37.503906 l 14.8261719,52.74805 12.2519531,0.41211 87.650391,-1.375 v 13.0332 28.30078 c 0,0.48766 0.0489,0.96216 0.142578,1.42188 2.5e-4,0.001 -2.6e-4,0.003 0,0.004 8.3e-4,0.004 0.0029,0.008 0.0039,0.0117 0.0941,0.45655 0.230933,0.89874 0.408203,1.31836 0.17884,0.42333 0.398244,0.82482 0.652344,1.20117 0.25411,0.37636 0.543331,0.72693 0.863281,1.04688 0.31994,0.31994 0.670533,0.60917 1.046875,0.86328 0.376348,0.25411 0.777848,0.47351 1.201168,0.65234 0.41976,0.17733 0.86165,0.31607 1.31836,0.41016 0.003,6.7e-4 0.007,8e-4 0.01,0.002 h 0.002 c 0.001,2.6e-4 0.003,-2.5e-4 0.004,0 0.45971,0.0936 0.93422,0.14258 1.42188,0.14258 h 7.19726 c 1.37414,42.60766 1.19191,50.75195 21.25391,50.75195 20.062,0 19.87977,-8.14286 21.25391,-50.75195 h 7.19726 c 0.489,0 0.96686,-0.0484 1.42774,-0.14258 0.46088,-0.0941 0.90479,-0.23327 1.32812,-0.41211 0.42329,-0.17879 0.82487,-0.39829 1.20117,-0.65234 0.37636,-0.25411 0.72693,-0.54333 1.04688,-0.86328 0.31995,-0.31995 0.60917,-0.67052 0.86328,-1.04688 0.25405,-0.3763 0.47355,-0.77788 0.65234,-1.20117 0.16036,-0.3796 0.28431,-0.77927 0.37696,-1.18945 0.0105,-0.0466 0.0256,-0.0917 0.0352,-0.13867 v -0.002 c 0.006,-0.0302 0.008,-0.0615 0.0137,-0.0918 0.0825,-0.43272 0.1289,-0.87699 0.1289,-1.33399 v -28.30078 -14.14648 h 0.008 176.57032 v 14.14648 28.30078 c 0,0.48767 0.0509,0.96216 0.14453,1.42188 2.5e-4,10e-4 -2.6e-4,0.003 0,0.004 8e-4,0.004 8e-4,0.008 0.002,0.0117 0.0917,0.44501 0.22762,0.87512 0.39844,1.28516 0.009,0.0217 0.0181,0.043 0.0273,0.0644 0.17626,0.41148 0.38714,0.80317 0.63477,1.16992 0.25411,0.37636 0.54333,0.72693 0.86328,1.04688 0.31995,0.31994 0.67052,0.60917 1.04687,0.86328 0.37636,0.25411 0.7798,0.47351 1.20313,0.65234 0.42333,0.17884 0.86725,0.31798 1.32812,0.41211 0.46088,0.0941 0.93875,0.14258 1.42774,0.14258 h 7.19726 c 1.37415,42.60776 1.1899,50.75195 21.25196,50.75195 20.06205,0 19.87984,-8.14275 21.2539,-50.75195 h 7.19727 c 0.48899,0 0.96685,-0.0484 1.42773,-0.14258 0.46088,-0.0941 0.9048,-0.23327 1.32813,-0.41211 0.42333,-0.17883 0.82677,-0.39823 1.20312,-0.65234 0.37636,-0.25411 0.72693,-0.54334 1.04688,-0.86328 0.31994,-0.31995 0.60917,-0.67052 0.86328,-1.04688 0.24763,-0.36675 0.45857,-0.75844 0.63477,-1.16992 0.009,-0.0216 0.018,-0.0428 0.0273,-0.0644 0.17081,-0.41004 0.30676,-0.84015 0.39844,-1.28516 10e-4,-0.005 7e-4,-0.0105 0.002,-0.0156 0.0936,-0.45972 0.14453,-0.93421 0.14453,-1.42188 v -28.30078 -14.14648 h 56.43164 l -0.002,0.004 c 3.13806,0 5.76355,-2.04999 6.69141,-4.875 l 5.55273,-0.0879 h 22.86523 l 32.66853,-40.61422 8.04226,-31.39425 2.42533,-69.34279 -40.81054,-29.654868 H 384.32031 V 110.82227 H 235.08594 L 234.82031,88.726562 Z M 437.875,103.55273 h 57.28516 c 0,0 18.60742,14.1016 18.60742,21.95118 0,0 0.43232,3.77527 -6.97656,3.63671 -7.41117,-0.14075 -11.63086,-0.002 -11.63086,-0.002 H 437.875 Z M 25.066406,132.94531 H 215.14062 v 19.29883 H 25.066406 Z m 61.041016,31.56836 H 249.58594 v 16.81915 H 86.107422 Z m 52.269528,29.38867 h 161.74219 v 15.20508 H 138.37695 Z m 262.83594,67.12891 v 10.73047 h -42.75195 v -10.06055 z m -247.62891,3.88281 v 6.84766 h -42.75195 v -6.17774 z m -28.4746,49.29883 h 14.19726 c -1.30531,36.97362 1.28026,36.60156 -7.09961,36.60156 -8.37987,0 -5.79242,0.3715 -7.09765,-36.60156 z m 247.6289,0 h 14.19727 c -1.30531,36.97374 1.2803,36.60156 -7.09961,36.60156 -8.3799,0 -5.95598,-0.018 -7.09766,-36.60156 z"
     sodipodi:nodetypes="ccccccccccccccccccccccccccccccccccccccssccsssssscccscscscsssssscccscccccssccscsssssscscssssssccscsccccccccccccccccccccccccccccccccccccccccccccccccccscccsc"
     transform="matrix(0.77574923,0,0,0.77574923,64.20053,118.06756)" /><g
     id="g2762" /><g
     id="g47533"
     transform="matrix(-0.4360882,0,0,0.4360882,393.40909,133.9033)"><g
       id="g47525" /></g></svg>
