<?xml version="1.0" encoding="UTF-8" standalone="no"?>
<svg
   width="512"
   height="512"
   viewBox="0 0 512 512"
   version="1.1"
   id="svg8"
   sodipodi:docname="zetatech-destination.svg"
   inkscape:version="1.2.2 (b0a8486541, 2022-12-01)"
   xml:space="preserve"
   xmlns:inkscape="http://www.inkscape.org/namespaces/inkscape"
   xmlns:sodipodi="http://sodipodi.sourceforge.net/DTD/sodipodi-0.dtd"
   xmlns="http://www.w3.org/2000/svg"
   xmlns:svg="http://www.w3.org/2000/svg"><defs
     id="defs12"><filter
       style="color-interpolation-filters:sRGB;"
       inkscape:label="Drop Shadow"
       id="filter875"
       x="-0.31291152"
       y="-0.16857506"
       width="1.6092078"
       height="1.3282203"><feFlood
         flood-opacity="1"
         flood-color="rgb(58,63,94)"
         result="flood"
         id="feFlood865" /><feComposite
         in="flood"
         in2="SourceGraphic"
         operator="out"
         result="composite1"
         id="feComposite867" /><feGaussianBlur
         in="composite1"
         stdDeviation="15"
         result="blur"
         id="feGaussianBlur869" /><feOffset
         dx="0"
         dy="0"
         result="offset"
         id="feOffset871" /><feComposite
         in="offset"
         in2="SourceGraphic"
         operator="atop"
         result="composite2"
         id="feComposite873" /></filter><filter
       style="color-interpolation-filters:sRGB;"
       inkscape:label="Drop Shadow"
       id="filter1015"
       x="-0.081997928"
       y="-0.044180702"
       width="1.1639959"
       height="1.0883614"><feFlood
         flood-opacity="1"
         flood-color="rgb(58,63,94)"
         result="flood"
         id="feFlood1005" /><feComposite
         in="flood"
         in2="SourceGraphic"
         operator="out"
         result="composite1"
         id="feComposite1007" /><feGaussianBlur
         in="composite1"
         stdDeviation="8.30229"
         result="blur"
         id="feGaussianBlur1009" /><feOffset
         dx="0"
         dy="0"
         result="offset"
         id="feOffset1011" /><feComposite
         in="offset"
         in2="SourceGraphic"
         operator="atop"
         result="composite2"
         id="feComposite1013" /></filter><filter
       style="color-interpolation-filters:sRGB;"
       inkscape:label="Drop Shadow"
       id="filter35638"
       x="-0.057142887"
       y="-0.13067032"
       width="1.1142858"
       height="1.2613406"><feFlood
         flood-opacity="1"
         flood-color="rgb(58,63,94)"
         result="flood"
         id="feFlood35628" /><feComposite
         in="flood"
         in2="SourceGraphic"
         operator="out"
         result="composite1"
         id="feComposite35630" /><feGaussianBlur
         in="composite1"
         stdDeviation="6"
         result="blur"
         id="feGaussianBlur35632" /><feOffset
         dx="0"
         dy="0"
         result="offset"
         id="feOffset35634" /><feComposite
         in="offset"
         in2="SourceGraphic"
         operator="atop"
         result="composite2"
         id="feComposite35636" /></filter><filter
       style="color-interpolation-filters:sRGB;"
       inkscape:label="Drop Shadow"
       id="filter35813"
       x="-0.053321701"
       y="-0.069584126"
       width="1.1066434"
       height="1.1391683"><feFlood
         flood-opacity="1"
         flood-color="rgb(58,63,94)"
         result="flood"
         id="feFlood35803" /><feComposite
         in="flood"
         in2="SourceGraphic"
         operator="out"
         result="composite1"
         id="feComposite35805" /><feGaussianBlur
         in="composite1"
         stdDeviation="8"
         result="blur"
         id="feGaussianBlur35807" /><feOffset
         dx="0"
         dy="0"
         result="offset"
         id="feOffset35809" /><feComposite
         in="offset"
         in2="SourceGraphic"
         operator="atop"
         result="composite2"
         id="feComposite35811" /></filter><filter
       style="color-interpolation-filters:sRGB;"
       inkscape:label="Drop Shadow"
       id="filter36051"
       x="-0.028125"
       y="-0.038976963"
       width="1.05625"
       height="1.0779539"><feFlood
         flood-opacity="1"
         flood-color="rgb(58,63,94)"
         result="flood"
         id="feFlood36041" /><feComposite
         in="flood"
         in2="SourceGraphic"
         operator="out"
         result="composite1"
         id="feComposite36043" /><feGaussianBlur
         in="composite1"
         stdDeviation="6"
         result="blur"
         id="feGaussianBlur36045" /><feOffset
         dx="0"
         dy="0"
         result="offset"
         id="feOffset36047" /><feComposite
         in="offset"
         in2="SourceGraphic"
         operator="atop"
         result="composite2"
         id="feComposite36049" /></filter><filter
       style="color-interpolation-filters:sRGB;"
       inkscape:label="Drop Shadow"
       id="filter36715"
       x="-0.069720211"
       y="-0.091087118"
       width="1.1394404"
       height="1.1821742"><feFlood
         flood-opacity="1"
         flood-color="rgb(58,63,94)"
         result="flood"
         id="feFlood36705" /><feComposite
         in="flood"
         in2="SourceGraphic"
         operator="out"
         result="composite1"
         id="feComposite36707" /><feGaussianBlur
         in="composite1"
         stdDeviation="16.2006"
         result="blur"
         id="feGaussianBlur36709" /><feOffset
         dx="0"
         dy="0"
         result="offset"
         id="feOffset36711" /><feComposite
         in="offset"
         in2="SourceGraphic"
         operator="atop"
         result="composite2"
         id="feComposite36713" /></filter><filter
       style="color-interpolation-filters:sRGB;"
       inkscape:label="Drop Shadow"
       id="filter37057"
       x="-0.079999702"
       y="-0.075040311"
       width="1.1599994"
       height="1.1500806"><feFlood
         flood-opacity="1"
         flood-color="rgb(58,63,94)"
         result="flood"
         id="feFlood37047" /><feComposite
         in="flood"
         in2="SourceGraphic"
         operator="out"
         result="composite1"
         id="feComposite37049" /><feGaussianBlur
         in="composite1"
         stdDeviation="0.5"
         result="blur"
         id="feGaussianBlur37051" /><feOffset
         dx="0"
         dy="0"
         result="offset"
         id="feOffset37053" /><feComposite
         in="offset"
         in2="SourceGraphic"
         operator="atop"
         result="composite2"
         id="feComposite37055" /></filter><filter
       style="color-interpolation-filters:sRGB;"
       inkscape:label="Drop Shadow"
       id="filter3381"
       x="-0.080765498"
       y="-0.16519166"
       width="1.161531"
       height="1.3303833"><feFlood
         flood-opacity="1"
         flood-color="rgb(58,63,94)"
         result="flood"
         id="feFlood3371" /><feComposite
         in="flood"
         in2="SourceGraphic"
         operator="out"
         result="composite1"
         id="feComposite3373" /><feGaussianBlur
         in="composite1"
         stdDeviation="15"
         result="blur"
         id="feGaussianBlur3375" /><feOffset
         dx="0"
         dy="0"
         result="offset"
         id="feOffset3377" /><feComposite
         in="offset"
         in2="SourceGraphic"
         operator="atop"
         result="composite2"
         id="feComposite3379" /></filter></defs><sodipodi:namedview
     id="namedview10"
     pagecolor="#505050"
     bordercolor="#eeeeee"
     borderopacity="1"
     inkscape:pageshadow="0"
     inkscape:pageopacity="0"
     inkscape:pagecheckerboard="0"
     showgrid="false"
     inkscape:zoom="1.7558594"
     inkscape:cx="233.50389"
     inkscape:cy="254.00667"
     inkscape:window-width="1716"
     inkscape:window-height="1386"
     inkscape:window-x="1440"
     inkscape:window-y="702"
     inkscape:window-maximized="1"
     inkscape:current-layer="svg8"
     inkscape:showpageshadow="2"
     inkscape:deskcolor="#505050"
     showguides="true" /><path
     d="M0 0h512v512H0z"
     fill="#b90202"
     fill-opacity="1"
     id="path2"
     style="fill:#1b1f21;fill-opacity:0" /><style
     type="text/css"
     id="style35976">
	.st0{fill:#000000;}
</style><g
     style="fill:#000000"
     id="g36899"
     transform="matrix(0.56141049,0,0,0.56141049,112.27908,112.2792)"><g
       id="g36887">
	<g
   id="g36885">
		<g
   id="g36883">
			
			
		</g>
	</g>
</g></g><path
     id="path2056"
     style="fill:#ff0ec0;fill-opacity:1;stroke-width:0.37734;filter:url(#filter3381)"
     d="m 195.92355,147.04022 c -0.0138,-8e-5 -0.0272,-0.002 -0.041,-0.002 -0.0139,0 -0.0272,0.002 -0.041,0.002 h -7.05469 c -27.88504,0 -112.927227,35.5383 -126.865233,42.45117 h -21.71289 c -3.911908,0 -7.076172,3.16234 -7.076172,7.07422 v 18.29687 c 0,0 1.496919,33.03012 16.224609,47.75781 1.086017,1.08603 2.436803,1.72949 3.841797,1.96289 0.341456,0.0574 0.69055,0.0929 1.046875,0.0996 0.05174,8.3e-4 0.102556,0.008 0.154297,0.008 h 42.281246 v 14.14648 28.30078 c 0,0.48766 0.0489,0.96216 0.14258,1.42188 2.5e-4,0.001 -2.6e-4,0.003 0,0.004 8.3e-4,0.004 0.003,0.008 0.004,0.0117 0.0941,0.45655 0.23093,0.89874 0.4082,1.31836 0.17884,0.42333 0.39824,0.82482 0.65234,1.20117 0.25411,0.37636 0.54334,0.72693 0.86329,1.04688 0.31994,0.31994 0.67052,0.60917 1.04687,0.86328 0.376351,0.25411 0.777851,0.47351 1.201171,0.65234 0.41976,0.17733 0.86165,0.31607 1.31836,0.41016 0.003,6.7e-4 0.007,9e-4 0.01,0.002 h 0.002 c 10e-4,2.6e-4 0.003,-2.5e-4 0.004,0 0.45971,0.0936 0.93422,0.14258 1.42188,0.14258 h 7.19726 c 1.37414,42.60798 1.19175,50.75195 21.25391,50.75195 20.06216,0 19.87977,-8.14254 21.25391,-50.75195 h 7.19726 c 0.489,0 0.96686,-0.0484 1.42774,-0.14258 0.46088,-0.0941 0.90479,-0.23327 1.32812,-0.41211 0.42329,-0.17879 0.82487,-0.39829 1.20117,-0.65234 0.37636,-0.25411 0.72693,-0.54333 1.04688,-0.86328 0.31995,-0.31995 0.60917,-0.67052 0.86328,-1.04688 0.25405,-0.3763 0.47355,-0.77788 0.65234,-1.20117 0.16036,-0.3796 0.28431,-0.77927 0.37696,-1.18945 0.0105,-0.0466 0.0255,-0.0917 0.0351,-0.13867 v -0.002 c 0.006,-0.0302 0.008,-0.0615 0.0137,-0.0918 0.0825,-0.43272 0.12891,-0.87699 0.12891,-1.33399 v -28.30078 -14.14648 h 176.57813 v 14.14648 28.30078 c 0,0.48767 0.0509,0.96216 0.14453,1.42188 2.5e-4,10e-4 -2.6e-4,0.003 0,0.004 8e-4,0.004 9e-4,0.008 0.002,0.0117 0.0917,0.44501 0.22762,0.87512 0.39844,1.28516 0.009,0.0217 0.0181,0.043 0.0273,0.0644 0.17626,0.41148 0.38714,0.80317 0.63477,1.16992 0.25411,0.37636 0.54333,0.72693 0.86328,1.04688 0.31995,0.31994 0.67052,0.60917 1.04687,0.86328 0.37636,0.25411 0.7798,0.47351 1.20313,0.65234 0.42333,0.17884 0.86725,0.31798 1.32812,0.41211 0.46088,0.0941 0.93875,0.14258 1.42774,0.14258 h 7.19726 c 1.37415,42.60808 1.18974,50.75195 21.25196,50.75195 20.06221,0 19.87976,-8.14243 21.2539,-50.75195 h 7.19727 c 0.48899,0 0.96685,-0.0484 1.42773,-0.14258 0.46088,-0.0941 0.9048,-0.23327 1.32813,-0.41211 0.42333,-0.17883 0.82677,-0.39823 1.20312,-0.65234 0.37636,-0.25411 0.72693,-0.54334 1.04688,-0.86328 0.31994,-0.31995 0.60917,-0.67052 0.86328,-1.04688 0.24763,-0.36675 0.45856,-0.75844 0.63476,-1.16992 0.009,-0.0216 0.0181,-0.0428 0.0274,-0.0644 0.17081,-0.41004 0.30676,-0.84015 0.39844,-1.28516 10e-4,-0.005 8e-4,-0.0105 0.002,-0.0156 0.0936,-0.45972 0.14453,-0.93421 0.14453,-1.42188 v -28.30078 -14.14648 h 56.43164 l -0.002,0.004 c 3.91183,0 7.07422,-3.16429 7.07422,-7.07617 v -18.60156 c 0,-1.09663 -0.25429,-2.18488 -0.74219,-3.16211 l -4.77539,-9.55078 3.40234,-3.36133 c 1.69803,-1.67011 2.44187,-4.08949 1.97461,-6.43164 -0.4596,-2.33479 -4.28906,-5.17188 -4.28906,-5.17188 l -23.4082,-5.66992 c -0.13301,-2.28619 -162.62022,-59.17862 -177.33985,-58.6289 -77.7802,-0.011 -12.31226,-4.5e-4 -77.76616,-4.5e-4 z m 7.03515,12.15039 h 70.73047 c 5.53175,0 123.06439,31.09543 144.84961,46.29882 l -215.58008,-16.002 z m -14.15039,10.02343 v 18.9961 l -18.99804,-3.16602 z m 25.39649,29.6836 h 14.15039 c 3.91187,0 7.07617,-0.83774 7.07617,3.07422 0,3.91194 -3.16423,3.07617 -7.07617,3.07617 H 214.2048 c -3.91189,0 -7.07422,0.83577 -7.07422,-3.07617 0,-3.91196 3.16226,-3.07422 7.07422,-3.07422 z m -81.99805,37.34179 c 19.50568,0 21.37695,1.86761 21.37695,21.37305 v 0.002 14.14649 h -42.75195 v -14.14649 -0.002 c 0,-19.50544 1.86933,-21.37305 21.375,-21.37305 z m 247.62891,0 c 19.45462,0 21.2891,1.78543 21.37304,21.22071 -0.001,0.0526 -0.0156,0.10145 -0.0156,0.15429 0,0.0669 0.0106,0.1309 0.0195,0.19532 v 13.95117 h -42.75195 v -14.14649 -0.002 c 0,-19.5055 1.86926,-21.37305 21.375,-21.37305 z m -254.72657,77.97266 h 14.19727 c -1.30531,36.97394 1.28034,36.60156 -7.09961,36.60156 -8.37995,0 -5.79235,0.37182 -7.09766,-36.60156 z m 247.62891,0 h 14.19727 c -1.30531,36.97406 1.28038,36.60156 -7.09961,36.60156 -8.37998,0 -5.95598,-0.0177 -7.09766,-36.60156 z"
     sodipodi:nodetypes="cssscssccccsccssccsssssscccscscscsssssscccsccccssccscsssssscscssssssccscsccccsscccccccccccccsccsssssssssccccssscsccccssccccccccsc" /><g
     id="g2762" /></svg>
