<?xml version="1.0" encoding="UTF-8" standalone="no"?>
<svg
   viewBox="0 0 512 512"
   style="height: 512px; width: 512px;"
   version="1.1"
   id="svg886"
   sodipodi:docname="zetatech-porta-printer.svg"
   inkscape:version="1.2.2 (b0a8486541, 2022-12-01)"
   xmlns:inkscape="http://www.inkscape.org/namespaces/inkscape"
   xmlns:sodipodi="http://sodipodi.sourceforge.net/DTD/sodipodi-0.dtd"
   xmlns="http://www.w3.org/2000/svg"
   xmlns:svg="http://www.w3.org/2000/svg">
  <sodipodi:namedview
     id="namedview888"
     pagecolor="#ffffff"
     bordercolor="#666666"
     borderopacity="1.0"
     inkscape:showpageshadow="2"
     inkscape:pageopacity="0.0"
     inkscape:pagecheckerboard="0"
     inkscape:deskcolor="#d1d1d1"
     showgrid="false"
     inkscape:zoom="0.65186405"
     inkscape:cx="64.430612"
     inkscape:cy="227.04121"
     inkscape:window-width="1716"
     inkscape:window-height="1386"
     inkscape:window-x="1440"
     inkscape:window-y="702"
     inkscape:window-maximized="1"
     inkscape:current-layer="svg886" />
  <defs
     id="defs878">
    <filter
       id="shadow-1"
       height="1.1517236"
       width="1.1517246"
       x="-0.075862315"
       y="-0.075861805">
      <feFlood
         flood-color="rgba(58, 63, 94, 1)"
         result="flood"
         id="feFlood867" />
      <feComposite
         in="flood"
         in2="SourceGraphic"
         operator="out"
         result="composite"
         id="feComposite869" />
      <feGaussianBlur
         in="composite"
         stdDeviation="15"
         result="blur"
         id="feGaussianBlur871" />
      <feOffset
         dx="0"
         dy="0"
         result="offset"
         id="feOffset873" />
      <feComposite
         in2="SourceGraphic"
         in="offset"
         operator="atop"
         id="feComposite875" />
    </filter>
    <filter
       style="color-interpolation-filters:sRGB;"
       inkscape:label="Drop Shadow"
       id="filter2672"
       x="-0.036508511"
       y="-0.030096649"
       width="1.073017"
       height="1.0601933">
      <feFlood
         flood-opacity="1"
         flood-color="rgb(58,63,94)"
         result="flood"
         id="feFlood2662" />
      <feComposite
         in="flood"
         in2="SourceGraphic"
         operator="out"
         result="composite1"
         id="feComposite2664" />
      <feGaussianBlur
         in="composite1"
         stdDeviation="15"
         result="blur"
         id="feGaussianBlur2666" />
      <feOffset
         dx="0"
         dy="0"
         result="offset"
         id="feOffset2668" />
      <feComposite
         in="offset"
         in2="SourceGraphic"
         operator="atop"
         result="composite2"
         id="feComposite2670" />
    </filter>
    <filter
       style="color-interpolation-filters:sRGB;"
       inkscape:label="Drop Shadow"
       id="filter3258"
       x="-0.033333307"
       y="-0.036846098"
       width="1.0666666"
       height="1.0736922">
      <feFlood
         flood-opacity="1"
         flood-color="rgb(58,63,94)"
         result="flood"
         id="feFlood3248" />
      <feComposite
         in="flood"
         in2="SourceGraphic"
         operator="out"
         result="composite1"
         id="feComposite3250" />
      <feGaussianBlur
         in="composite1"
         stdDeviation="15"
         result="blur"
         id="feGaussianBlur3252" />
      <feOffset
         dx="0"
         dy="0"
         result="offset"
         id="feOffset3254" />
      <feComposite
         in="offset"
         in2="SourceGraphic"
         operator="atop"
         result="composite2"
         id="feComposite3256" />
    </filter>
    <filter
       style="color-interpolation-filters:sRGB;"
       inkscape:label="Drop Shadow"
       id="filter4517"
       x="-0.04755843"
       y="-0.048809898"
       width="1.0951169"
       height="1.0976198">
      <feFlood
         flood-opacity="1"
         flood-color="rgb(58,63,94)"
         result="flood"
         id="feFlood4507" />
      <feComposite
         in="flood"
         in2="SourceGraphic"
         operator="out"
         result="composite1"
         id="feComposite4509" />
      <feGaussianBlur
         in="composite1"
         stdDeviation="10"
         result="blur"
         id="feGaussianBlur4511" />
      <feOffset
         dx="0"
         dy="0"
         result="offset"
         id="feOffset4513" />
      <feComposite
         in="offset"
         in2="SourceGraphic"
         operator="atop"
         result="composite2"
         id="feComposite4515" />
    </filter>
    <filter
       style="color-interpolation-filters:sRGB;"
       inkscape:label="Drop Shadow"
       id="filter5154"
       x="-0.073142173"
       y="-0.051090164"
       width="1.1462843"
       height="1.1021803">
      <feFlood
         flood-opacity="1"
         flood-color="rgb(58,63,94)"
         result="flood"
         id="feFlood5144" />
      <feComposite
         in="flood"
         in2="SourceGraphic"
         operator="out"
         result="composite1"
         id="feComposite5146" />
      <feGaussianBlur
         in="composite1"
         stdDeviation="10"
         result="blur"
         id="feGaussianBlur5148" />
      <feOffset
         dx="0"
         dy="0"
         result="offset"
         id="feOffset5150" />
      <feComposite
         in="offset"
         in2="SourceGraphic"
         operator="atop"
         result="composite2"
         id="feComposite5152" />
    </filter>
    <filter
       style="color-interpolation-filters:sRGB;"
       inkscape:label="Drop Shadow"
       id="filter1509"
       x="-0.032142857"
       y="-0.032142857"
       width="1.0642857"
       height="1.0642857">
      <feFlood
         flood-opacity="1"
         flood-color="rgb(58,63,94)"
         result="flood"
         id="feFlood1499" />
      <feComposite
         in="flood"
         in2="SourceGraphic"
         operator="out"
         result="composite1"
         id="feComposite1501" />
      <feGaussianBlur
         in="composite1"
         stdDeviation="15"
         result="blur"
         id="feGaussianBlur1503" />
      <feOffset
         dx="0"
         dy="0"
         result="offset"
         id="feOffset1505" />
      <feComposite
         in="offset"
         in2="SourceGraphic"
         operator="atop"
         result="composite2"
         id="feComposite1507" />
    </filter>
    <filter
       style="color-interpolation-filters:sRGB;"
       inkscape:label="Drop Shadow"
       id="filter2807"
       x="-0.076283954"
       y="-0.09746786"
       width="1.1525679"
       height="1.1949357">
      <feFlood
         flood-opacity="1"
         flood-color="rgb(58,63,94)"
         result="flood"
         id="feFlood2797" />
      <feComposite
         in="flood"
         in2="SourceGraphic"
         operator="out"
         result="composite1"
         id="feComposite2799" />
      <feGaussianBlur
         in="composite1"
         stdDeviation="15"
         result="blur"
         id="feGaussianBlur2801" />
      <feOffset
         dx="0"
         dy="0"
         result="offset"
         id="feOffset2803" />
      <feComposite
         in="offset"
         in2="SourceGraphic"
         operator="atop"
         result="composite2"
         id="feComposite2805" />
    </filter>
    <filter
       style="color-interpolation-filters:sRGB;"
       inkscape:label="Drop Shadow"
       id="filter6126"
       x="-0.039999556"
       y="-0.034285714"
       width="1.0799991"
       height="1.0685714">
      <feFlood
         flood-opacity="1"
         flood-color="rgb(58,63,94)"
         result="flood"
         id="feFlood6116" />
      <feComposite
         in="flood"
         in2="SourceGraphic"
         operator="out"
         result="composite1"
         id="feComposite6118" />
      <feGaussianBlur
         in="composite1"
         stdDeviation="15"
         result="blur"
         id="feGaussianBlur6120" />
      <feOffset
         dx="0"
         dy="0"
         result="offset"
         id="feOffset6122" />
      <feComposite
         in="offset"
         in2="SourceGraphic"
         operator="atop"
         result="composite2"
         id="feComposite6124" />
    </filter>
  </defs>
  <path
     d="M0 0h512v512H0z"
     fill="#1b1f21"
     fill-opacity="0"
     id="path880" />
  <g
     id="g5535"
     transform="matrix(0.42394818,0,0,0.42394818,1.6501697,1.631092)"
     style="fill:#ff0ec0;fill-opacity:1;filter:url(#filter6126)">
    <path
       d="M 618.75,442.5 V 375 h -37.5 v 67.5 L 600,461.25 Z"
       id="path5513"
       style="fill:#ff0ec0;fill-opacity:1" />
    <path
       d="m 431.25,720 150,90 V 648.75 l -150,-90 z"
       id="path5515"
       style="fill:#ff0ec0;fill-opacity:1" />
    <path
       d="M 768.75,720 V 558.75 l -150,90 V 810 Z"
       id="path5517"
       style="fill:#ff0ec0;fill-opacity:1" />
    <path
       d="m 393.75,513.75 150,-90 V 375 H 525 c -31.875,0 -56.25,-24.375 -56.25,-56.25 v -37.5 H 262.5 v 511.88 l 131.25,-73.125 z"
       id="path5519"
       style="fill:#ff0ec0;fill-opacity:1" />
    <path
       d="M 600,513.75 549.375,465 l -101.25,60 151.88,90 151.88,-90 -101.25,-60 z"
       id="path5521"
       style="fill:#ff0ec0;fill-opacity:1" />
    <path
       d="M 682.5,1087.5 H 515.62 c -9.375,0 -16.875,5.625 -18.75,15 l -3.75,22.5 h 213.75 l -5.625,-22.5 c -1.875,-9.375 -9.375,-15 -18.75,-15 z"
       id="path5523"
       style="fill:#ff0ec0;fill-opacity:1" />
    <path
       d="M 1031.2,75 H 168.7 c -11.25,0 -18.75,7.5 -18.75,18.75 v 1012.5 c 0,11.25 7.5,18.75 18.75,18.75 h 285 l 7.5,-31.875 C 466.825,1068.75 489.325,1050 515.575,1050 h 166.88 c 26.25,0 48.75,16.875 54.375,43.125 l 7.5,31.875 h 286.88 c 11.25,0 18.75,-7.5 18.75,-18.75 V 93.75 C 1049.96,82.5 1042.46,75 1031.21,75 Z M 337.45,1012.5 H 281.2 V 975 h 56.25 z m 487.5,0 H 768.7 V 975 h 56.25 z m 93.75,0 H 862.45 V 975 h 56.25 z m 56.25,-131.25 c 0,31.875 -24.375,56.25 -56.25,56.25 H 281.2 c -31.875,0 -56.25,-24.375 -56.25,-56.25 v -675 c 0,-31.875 24.375,-56.25 56.25,-56.25 h 637.5 c 31.875,0 56.25,24.375 56.25,56.25 z"
       id="path5525"
       style="fill:#ff0ec0;fill-opacity:1" />
    <path
       d="m 918.75,187.5 h -637.5 c -11.25,0 -18.75,7.5 -18.75,18.75 v 37.5 H 468.75 V 225 h 262.5 v 18.75 H 937.5 v -37.5 C 937.5,195 930,187.5 918.75,187.5 Z"
       id="path5527"
       style="fill:#ff0ec0;fill-opacity:1" />
    <path
       d="M 731.25,318.75 C 731.25,350.625 706.875,375 675,375 h -18.75 v 48.75 l 150,90 V 720 L 937.5,793.125 V 281.245 H 731.25 Z"
       id="path5529"
       style="fill:#ff0ec0;fill-opacity:1" />
    <path
       d="M 693.75,318.75 V 262.5 h -187.5 v 56.25 c 0,11.25 7.5,18.75 18.75,18.75 h 150 c 11.25,0 18.75,-7.5 18.75,-18.75 z"
       id="path5531"
       style="fill:#ff0ec0;fill-opacity:1" />
    <path
       d="m 600,866.25 -187.5,-112.5 -150,82.5 v 45 c 0,11.25 7.5,18.75 18.75,18.75 h 637.5 c 11.25,0 18.75,-7.5 18.75,-18.75 v -45 l -150,-82.5 z"
       id="path5533"
       style="fill:#ff0ec0;fill-opacity:1" />
  </g>
</svg>
