<?xml version="1.0" encoding="UTF-8" standalone="no"?>
<svg
   viewBox="0 0 512 512"
   style="height: 512px; width: 512px;"
   version="1.1"
   id="svg886"
   sodipodi:docname="zhirafa-rhinocefist.svg"
   inkscape:version="1.2.2 (b0a8486541, 2022-12-01)"
   xmlns:inkscape="http://www.inkscape.org/namespaces/inkscape"
   xmlns:sodipodi="http://sodipodi.sourceforge.net/DTD/sodipodi-0.dtd"
   xmlns="http://www.w3.org/2000/svg"
   xmlns:svg="http://www.w3.org/2000/svg">
  <sodipodi:namedview
     id="namedview888"
     pagecolor="#ffffff"
     bordercolor="#666666"
     borderopacity="1.0"
     inkscape:showpageshadow="2"
     inkscape:pageopacity="0.0"
     inkscape:pagecheckerboard="0"
     inkscape:deskcolor="#d1d1d1"
     showgrid="false"
     inkscape:zoom="1.3037281"
     inkscape:cx="296.07401"
     inkscape:cy="377.3793"
     inkscape:window-width="1716"
     inkscape:window-height="1386"
     inkscape:window-x="1440"
     inkscape:window-y="702"
     inkscape:window-maximized="1"
     inkscape:current-layer="g10890" />
  <defs
     id="defs878">
    <filter
       id="shadow-1"
       height="1.1517236"
       width="1.1517246"
       x="-0.075862315"
       y="-0.075861805">
      <feFlood
         flood-color="rgba(58, 63, 94, 1)"
         result="flood"
         id="feFlood867" />
      <feComposite
         in="flood"
         in2="SourceGraphic"
         operator="out"
         result="composite"
         id="feComposite869" />
      <feGaussianBlur
         in="composite"
         stdDeviation="15"
         result="blur"
         id="feGaussianBlur871" />
      <feOffset
         dx="0"
         dy="0"
         result="offset"
         id="feOffset873" />
      <feComposite
         in2="SourceGraphic"
         in="offset"
         operator="atop"
         id="feComposite875" />
    </filter>
    <filter
       style="color-interpolation-filters:sRGB;"
       inkscape:label="Drop Shadow"
       id="filter2672"
       x="-0.036508511"
       y="-0.030096649"
       width="1.073017"
       height="1.0601933">
      <feFlood
         flood-opacity="1"
         flood-color="rgb(58,63,94)"
         result="flood"
         id="feFlood2662" />
      <feComposite
         in="flood"
         in2="SourceGraphic"
         operator="out"
         result="composite1"
         id="feComposite2664" />
      <feGaussianBlur
         in="composite1"
         stdDeviation="15"
         result="blur"
         id="feGaussianBlur2666" />
      <feOffset
         dx="0"
         dy="0"
         result="offset"
         id="feOffset2668" />
      <feComposite
         in="offset"
         in2="SourceGraphic"
         operator="atop"
         result="composite2"
         id="feComposite2670" />
    </filter>
    <filter
       style="color-interpolation-filters:sRGB;"
       inkscape:label="Drop Shadow"
       id="filter3258"
       x="-0.033333307"
       y="-0.036846098"
       width="1.0666666"
       height="1.0736922">
      <feFlood
         flood-opacity="1"
         flood-color="rgb(58,63,94)"
         result="flood"
         id="feFlood3248" />
      <feComposite
         in="flood"
         in2="SourceGraphic"
         operator="out"
         result="composite1"
         id="feComposite3250" />
      <feGaussianBlur
         in="composite1"
         stdDeviation="15"
         result="blur"
         id="feGaussianBlur3252" />
      <feOffset
         dx="0"
         dy="0"
         result="offset"
         id="feOffset3254" />
      <feComposite
         in="offset"
         in2="SourceGraphic"
         operator="atop"
         result="composite2"
         id="feComposite3256" />
    </filter>
    <filter
       style="color-interpolation-filters:sRGB;"
       inkscape:label="Drop Shadow"
       id="filter4517"
       x="-0.04755843"
       y="-0.048809898"
       width="1.0951169"
       height="1.0976198">
      <feFlood
         flood-opacity="1"
         flood-color="rgb(58,63,94)"
         result="flood"
         id="feFlood4507" />
      <feComposite
         in="flood"
         in2="SourceGraphic"
         operator="out"
         result="composite1"
         id="feComposite4509" />
      <feGaussianBlur
         in="composite1"
         stdDeviation="10"
         result="blur"
         id="feGaussianBlur4511" />
      <feOffset
         dx="0"
         dy="0"
         result="offset"
         id="feOffset4513" />
      <feComposite
         in="offset"
         in2="SourceGraphic"
         operator="atop"
         result="composite2"
         id="feComposite4515" />
    </filter>
    <filter
       style="color-interpolation-filters:sRGB;"
       inkscape:label="Drop Shadow"
       id="filter5154"
       x="-0.073142173"
       y="-0.051090164"
       width="1.1462843"
       height="1.1021803">
      <feFlood
         flood-opacity="1"
         flood-color="rgb(58,63,94)"
         result="flood"
         id="feFlood5144" />
      <feComposite
         in="flood"
         in2="SourceGraphic"
         operator="out"
         result="composite1"
         id="feComposite5146" />
      <feGaussianBlur
         in="composite1"
         stdDeviation="10"
         result="blur"
         id="feGaussianBlur5148" />
      <feOffset
         dx="0"
         dy="0"
         result="offset"
         id="feOffset5150" />
      <feComposite
         in="offset"
         in2="SourceGraphic"
         operator="atop"
         result="composite2"
         id="feComposite5152" />
    </filter>
    <filter
       style="color-interpolation-filters:sRGB;"
       inkscape:label="Drop Shadow"
       id="filter1509"
       x="-0.032142857"
       y="-0.032142857"
       width="1.0642857"
       height="1.0642857">
      <feFlood
         flood-opacity="1"
         flood-color="rgb(58,63,94)"
         result="flood"
         id="feFlood1499" />
      <feComposite
         in="flood"
         in2="SourceGraphic"
         operator="out"
         result="composite1"
         id="feComposite1501" />
      <feGaussianBlur
         in="composite1"
         stdDeviation="15"
         result="blur"
         id="feGaussianBlur1503" />
      <feOffset
         dx="0"
         dy="0"
         result="offset"
         id="feOffset1505" />
      <feComposite
         in="offset"
         in2="SourceGraphic"
         operator="atop"
         result="composite2"
         id="feComposite1507" />
    </filter>
    <filter
       style="color-interpolation-filters:sRGB;"
       inkscape:label="Drop Shadow"
       id="filter2807"
       x="-0.076283954"
       y="-0.09746786"
       width="1.1525679"
       height="1.1949357">
      <feFlood
         flood-opacity="1"
         flood-color="rgb(58,63,94)"
         result="flood"
         id="feFlood2797" />
      <feComposite
         in="flood"
         in2="SourceGraphic"
         operator="out"
         result="composite1"
         id="feComposite2799" />
      <feGaussianBlur
         in="composite1"
         stdDeviation="15"
         result="blur"
         id="feGaussianBlur2801" />
      <feOffset
         dx="0"
         dy="0"
         result="offset"
         id="feOffset2803" />
      <feComposite
         in="offset"
         in2="SourceGraphic"
         operator="atop"
         result="composite2"
         id="feComposite2805" />
    </filter>
    <filter
       style="color-interpolation-filters:sRGB;"
       inkscape:label="Drop Shadow"
       id="filter6126"
       x="-0.039999556"
       y="-0.034285714"
       width="1.0799991"
       height="1.0685714">
      <feFlood
         flood-opacity="1"
         flood-color="rgb(58,63,94)"
         result="flood"
         id="feFlood6116" />
      <feComposite
         in="flood"
         in2="SourceGraphic"
         operator="out"
         result="composite1"
         id="feComposite6118" />
      <feGaussianBlur
         in="composite1"
         stdDeviation="15"
         result="blur"
         id="feGaussianBlur6120" />
      <feOffset
         dx="0"
         dy="0"
         result="offset"
         id="feOffset6122" />
      <feComposite
         in="offset"
         in2="SourceGraphic"
         operator="atop"
         result="composite2"
         id="feComposite6124" />
    </filter>
    <filter
       style="color-interpolation-filters:sRGB;"
       inkscape:label="Drop Shadow"
       id="filter8293"
       x="-0.029998775"
       y="-0.043499701"
       width="1.0599976"
       height="1.0869994">
      <feFlood
         flood-opacity="1"
         flood-color="rgb(58,63,94)"
         result="flood"
         id="feFlood8283" />
      <feComposite
         in="flood"
         in2="SourceGraphic"
         operator="out"
         result="composite1"
         id="feComposite8285" />
      <feGaussianBlur
         in="composite1"
         stdDeviation="15"
         result="blur"
         id="feGaussianBlur8287" />
      <feOffset
         dx="0"
         dy="0"
         result="offset"
         id="feOffset8289" />
      <feComposite
         in="offset"
         in2="SourceGraphic"
         operator="atop"
         result="composite2"
         id="feComposite8291" />
    </filter>
    <filter
       style="color-interpolation-filters:sRGB;"
       inkscape:label="Drop Shadow"
       id="filter9605"
       x="-0.049809889"
       y="-0.051063406"
       width="1.0996198"
       height="1.1021268">
      <feFlood
         flood-opacity="1"
         flood-color="rgb(58,63,94)"
         result="flood"
         id="feFlood9595" />
      <feComposite
         in="flood"
         in2="SourceGraphic"
         operator="out"
         result="composite1"
         id="feComposite9597" />
      <feGaussianBlur
         in="composite1"
         stdDeviation="10"
         result="blur"
         id="feGaussianBlur9599" />
      <feOffset
         dx="0"
         dy="0"
         result="offset"
         id="feOffset9601" />
      <feComposite
         in="offset"
         in2="SourceGraphic"
         operator="atop"
         result="composite2"
         id="feComposite9603" />
    </filter>
    <filter
       style="color-interpolation-filters:sRGB;"
       inkscape:label="Drop Shadow"
       id="filter10925"
       x="-0.041280212"
       y="-0.019910548"
       width="1.0825604"
       height="1.0398211">
      <feFlood
         flood-opacity="1"
         flood-color="rgb(58,63,94)"
         result="flood"
         id="feFlood10915" />
      <feComposite
         in="flood"
         in2="SourceGraphic"
         operator="out"
         result="composite1"
         id="feComposite10917" />
      <feGaussianBlur
         in="composite1"
         stdDeviation="15"
         result="blur"
         id="feGaussianBlur10919" />
      <feOffset
         dx="0"
         dy="0"
         result="offset"
         id="feOffset10921" />
      <feComposite
         in="offset"
         in2="SourceGraphic"
         operator="atop"
         result="composite2"
         id="feComposite10923" />
    </filter>
  </defs>
  <path
     d="M0 0h512v512H0z"
     fill="#1b1f21"
     fill-opacity="0"
     id="path880" />
  <g
     id="g8953"
     transform="matrix(0.24499545,0,0,0.24499545,109.00393,99.806948)"
     style="fill:#000000;fill-opacity:1" />
  <g
     id="g10326"
     transform="matrix(-0.08870157,-0.40073804,0.40073804,-0.08870157,-272.37478,945.98316)">
    <g
       id="g10890"
       style="fill:#ff0ec0;fill-opacity:1"
       transform="matrix(-0.7229549,0.09099501,-0.09099501,-0.7229549,1620.9924,1708.7593)">
      <g
         id="g10913"
         style="filter:url(#filter10925)">
        <g
           id="g9705"
           transform="matrix(-0.24661359,1.1141567,-1.1141567,-0.24661359,1247.5536,-501.54948)"
           style="fill:#ff0ec0;fill-opacity:1">
          <path
             d="m 659.88,459.48 c -15.602,-60.238 -65.039,-108 -128.76,-95.039 -63.719,12.961 -94.441,21 -121.92,46.68 0,0 -15.359,13.32 -8.7617,33.48 0,0 17.641,-36.961 60.121,6.9609 33.238,34.441 53.52,76.559 75.719,138.96 0,0 12.602,36.961 13.559,45.48 0,0 60.121,3.7188 72.719,-12.84 12.488,-16.445 52.809,-103.32 37.328,-163.68 z"
             id="path9673"
             style="fill:#ff0ec0;fill-opacity:1" />
          <path
             d="m 380.64,495.96 c -51.602,-25.68 -80.762,41.039 -102.72,76.922 -21.602,35.52 -150.6,141 -237.72,210.24 -30.48,24.238 -37.922,68.641 -14.641,99.961 47.16,63.359 14.762,143.88 61.078,195.36 15.719,17.398 100.56,30.121 156.24,26.398 28.32,-1.8008 53.641,-18.359 66.602,-43.559 48.48,-93.961 172.8,-297.6 189.12,-323.04 19.441,-30.238 18.238,-75.121 18.238,-75.121 -12.359,-105.12 -111.6,-154.92 -136.2,-167.16 z m -125.4,542.16 c -32.16,10.441 -66.602,-7.1992 -77.039,-39.359 -10.441,-32.16 7.1992,-66.602 39.359,-77.039 32.16,-10.441 66.602,7.1992 77.039,39.359 10.441,32.039 -7.1992,66.598 -39.359,77.039 z"
             id="path9695"
             style="fill:#ff0ec0;fill-opacity:1" />
          <path
             d="m 224.28,942.48 c -2.3984,0.71875 -4.5586,1.8008 -6.7188,2.8789 l 51.121,56.641 c 6.6016,-9.7188 8.8789,-22.199 5.0391,-34.32 -6.6016,-20.52 -28.801,-31.801 -49.441,-25.199 z"
             id="path9697"
             style="fill:#ff0ec0;fill-opacity:1" />
          <path
             d="m 199.08,991.92 c 6.7188,20.641 28.801,31.922 49.441,25.32 2.5195,-0.8398 4.8008,-1.8008 6.9609,-3 l -51.238,-56.762 c -6.8438,9.5977 -9.1211,22.32 -5.1641,34.441 z"
             id="path9699"
             style="fill:#ff0ec0;fill-opacity:1" />
        </g>
        <g
           id="g10874"
           transform="translate(5.3413365,-26.489121)"
           style="fill:#ff0ec0;fill-opacity:1">
          <path
             d="m 806.16647,183.72476 -421.29531,1.52333 c -7.63665,0.0276 -13.71479,6.00039 -13.637,13.637 l 2.53889,249.24218 c 0.0778,7.63631 6.01432,13.16949 13.637,13.637 L 422.363,463.908 c 21.05045,1.29106 38,17.09 38,38.18 v 64.727 c 0,7.6367 6.1836,13.637 13.637,13.637 h 251.82 c 7.4531,0 13.637,-6 13.637,-13.637 v -64.727 c 0,-21.09 17.05374,-35.72191 38,-38.18 l 31.24836,-3.66706 c 7.58465,-0.89007 13.637,-6 13.637,-13.637 l -2.54289,-249.25218 c 0,-7.6367 -5.9961,-13.633 -13.637,-13.633 z M 462.79,358.364 h -27.273 l -2.53889,-65.44218 h 27.273 z m 70.70311,-65.44218 h 27.273 L 563.305,358.364 H 536.032 Z M 600.005,502.644 c -32.363,0 -58.543,-26.184 -58.543,-58.543 0,-32.184 26.184,-58.363 58.543,-58.363 32.184,0 58.363,26.184 58.363,58.363 0,32.359 -26.18,58.543 -58.363,58.543 z m 63.797,-144.28 h -27.273 l -2.53889,-65.44218 h 27.273 z m 100.5,0 h -27.273 l -2.53489,-65.44218 h 27.273 z"
             id="path10316"
             sodipodi:nodetypes="csssssssssssssccccccccccccccssssscccccccccc"
             style="fill:#ff0ec0;fill-opacity:1" />
          <path
             d="m 695.64,607.73 v 170.18 c 0,7.6367 -6.1797,13.637 -13.637,13.637 h -164 c -7.6367,0 -13.637,-6 -13.637,-13.637 V 607.73 Z"
             id="path10318"
             style="fill:#ff0ec0;fill-opacity:1" />
          <path
             d="m 646.73,818.82 v 237.27 c 0,2.1836 -0.54297,4.3633 -1.4531,6.3633 l -35.094,67.09 c -2.3633,4.5469 -7.0898,7.2734 -12.18,7.2734 h -0.18359 c -5.2734,0 -9.8164,-3.0898 -12.18,-7.8164 l -31.273,-67.09 c -0.91016,-1.8203 -1.2734,-3.8203 -1.2734,-5.8164 v -237.28 z"
             id="path10320"
             style="fill:#ff0ec0;fill-opacity:1" />
        </g>
      </g>
    </g>
  </g>
</svg>
