<?xml version="1.0" encoding="UTF-8" standalone="no"?>
<svg
   width="512"
   height="512"
   viewBox="0 0 512 512"
   version="1.1"
   id="svg8"
   sodipodi:docname="ziggurat-city-database.svg"
   inkscape:version="1.2.2 (b0a8486541, 2022-12-01)"
   xml:space="preserve"
   xmlns:inkscape="http://www.inkscape.org/namespaces/inkscape"
   xmlns:sodipodi="http://sodipodi.sourceforge.net/DTD/sodipodi-0.dtd"
   xmlns="http://www.w3.org/2000/svg"
   xmlns:svg="http://www.w3.org/2000/svg"><defs
     id="defs12"><filter
       style="color-interpolation-filters:sRGB;"
       inkscape:label="Drop Shadow"
       id="filter875"
       x="-0.31291152"
       y="-0.16857506"
       width="1.6092078"
       height="1.3282203"><feFlood
         flood-opacity="1"
         flood-color="rgb(58,63,94)"
         result="flood"
         id="feFlood865" /><feComposite
         in="flood"
         in2="SourceGraphic"
         operator="out"
         result="composite1"
         id="feComposite867" /><feGaussianBlur
         in="composite1"
         stdDeviation="15"
         result="blur"
         id="feGaussianBlur869" /><feOffset
         dx="0"
         dy="0"
         result="offset"
         id="feOffset871" /><feComposite
         in="offset"
         in2="SourceGraphic"
         operator="atop"
         result="composite2"
         id="feComposite873" /></filter><filter
       style="color-interpolation-filters:sRGB;"
       inkscape:label="Drop Shadow"
       id="filter1015"
       x="-0.081997928"
       y="-0.044180702"
       width="1.1639959"
       height="1.0883614"><feFlood
         flood-opacity="1"
         flood-color="rgb(58,63,94)"
         result="flood"
         id="feFlood1005" /><feComposite
         in="flood"
         in2="SourceGraphic"
         operator="out"
         result="composite1"
         id="feComposite1007" /><feGaussianBlur
         in="composite1"
         stdDeviation="8.30229"
         result="blur"
         id="feGaussianBlur1009" /><feOffset
         dx="0"
         dy="0"
         result="offset"
         id="feOffset1011" /><feComposite
         in="offset"
         in2="SourceGraphic"
         operator="atop"
         result="composite2"
         id="feComposite1013" /></filter><filter
       style="color-interpolation-filters:sRGB;"
       inkscape:label="Drop Shadow"
       id="filter35638"
       x="-0.057142887"
       y="-0.13067032"
       width="1.1142858"
       height="1.2613406"><feFlood
         flood-opacity="1"
         flood-color="rgb(58,63,94)"
         result="flood"
         id="feFlood35628" /><feComposite
         in="flood"
         in2="SourceGraphic"
         operator="out"
         result="composite1"
         id="feComposite35630" /><feGaussianBlur
         in="composite1"
         stdDeviation="6"
         result="blur"
         id="feGaussianBlur35632" /><feOffset
         dx="0"
         dy="0"
         result="offset"
         id="feOffset35634" /><feComposite
         in="offset"
         in2="SourceGraphic"
         operator="atop"
         result="composite2"
         id="feComposite35636" /></filter><filter
       style="color-interpolation-filters:sRGB;"
       inkscape:label="Drop Shadow"
       id="filter35813"
       x="-0.053321701"
       y="-0.069584126"
       width="1.1066434"
       height="1.1391683"><feFlood
         flood-opacity="1"
         flood-color="rgb(58,63,94)"
         result="flood"
         id="feFlood35803" /><feComposite
         in="flood"
         in2="SourceGraphic"
         operator="out"
         result="composite1"
         id="feComposite35805" /><feGaussianBlur
         in="composite1"
         stdDeviation="8"
         result="blur"
         id="feGaussianBlur35807" /><feOffset
         dx="0"
         dy="0"
         result="offset"
         id="feOffset35809" /><feComposite
         in="offset"
         in2="SourceGraphic"
         operator="atop"
         result="composite2"
         id="feComposite35811" /></filter><filter
       style="color-interpolation-filters:sRGB;"
       inkscape:label="Drop Shadow"
       id="filter36051"
       x="-0.028125"
       y="-0.038976963"
       width="1.05625"
       height="1.0779539"><feFlood
         flood-opacity="1"
         flood-color="rgb(58,63,94)"
         result="flood"
         id="feFlood36041" /><feComposite
         in="flood"
         in2="SourceGraphic"
         operator="out"
         result="composite1"
         id="feComposite36043" /><feGaussianBlur
         in="composite1"
         stdDeviation="6"
         result="blur"
         id="feGaussianBlur36045" /><feOffset
         dx="0"
         dy="0"
         result="offset"
         id="feOffset36047" /><feComposite
         in="offset"
         in2="SourceGraphic"
         operator="atop"
         result="composite2"
         id="feComposite36049" /></filter><filter
       style="color-interpolation-filters:sRGB;"
       inkscape:label="Drop Shadow"
       id="filter36715"
       x="-0.069720211"
       y="-0.091087118"
       width="1.1394404"
       height="1.1821742"><feFlood
         flood-opacity="1"
         flood-color="rgb(58,63,94)"
         result="flood"
         id="feFlood36705" /><feComposite
         in="flood"
         in2="SourceGraphic"
         operator="out"
         result="composite1"
         id="feComposite36707" /><feGaussianBlur
         in="composite1"
         stdDeviation="16.2006"
         result="blur"
         id="feGaussianBlur36709" /><feOffset
         dx="0"
         dy="0"
         result="offset"
         id="feOffset36711" /><feComposite
         in="offset"
         in2="SourceGraphic"
         operator="atop"
         result="composite2"
         id="feComposite36713" /></filter><filter
       style="color-interpolation-filters:sRGB;"
       inkscape:label="Drop Shadow"
       id="filter37057"
       x="-0.079999702"
       y="-0.075040311"
       width="1.1599994"
       height="1.1500806"><feFlood
         flood-opacity="1"
         flood-color="rgb(58,63,94)"
         result="flood"
         id="feFlood37047" /><feComposite
         in="flood"
         in2="SourceGraphic"
         operator="out"
         result="composite1"
         id="feComposite37049" /><feGaussianBlur
         in="composite1"
         stdDeviation="0.5"
         result="blur"
         id="feGaussianBlur37051" /><feOffset
         dx="0"
         dy="0"
         result="offset"
         id="feOffset37053" /><feComposite
         in="offset"
         in2="SourceGraphic"
         operator="atop"
         result="composite2"
         id="feComposite37055" /></filter></defs><sodipodi:namedview
     id="namedview10"
     pagecolor="#505050"
     bordercolor="#eeeeee"
     borderopacity="1"
     inkscape:pageshadow="0"
     inkscape:pageopacity="0"
     inkscape:pagecheckerboard="0"
     showgrid="false"
     inkscape:zoom="1.7558594"
     inkscape:cx="302.98554"
     inkscape:cy="308.11123"
     inkscape:window-width="1716"
     inkscape:window-height="1402"
     inkscape:window-x="3160"
     inkscape:window-y="684"
     inkscape:window-maximized="1"
     inkscape:current-layer="svg8"
     inkscape:showpageshadow="2"
     inkscape:deskcolor="#505050"
     showguides="true" /><path
     d="M0 0h512v512H0z"
     fill="#b90202"
     fill-opacity="1"
     id="path2"
     style="fill:#1b1f21;fill-opacity:0" /><style
     type="text/css"
     id="style35976">
	.st0{fill:#000000;}
</style><g
     style="fill:#ff0ec0;fill-opacity:1;filter:url(#filter37057)"
     id="g36830"
     transform="matrix(29.866556,0,0,29.866556,17.067552,17.067552)"><path
       id="path36821"
       style="fill:#ff0ec0;fill-opacity:1"
       d="M 8 0.0042777112 C 7.5888758 0.0042897812 7.185612 0.11694583 6.8340062 0.33001047 L 1.584026 3.5120029 C 0.9111499 3.9196954 0.50009397 4.6492409 0.49997221 5.4359908 L 0.49997221 10.564009 C 0.50009394 11.350759 0.91114987 12.080304 1.584026 12.487997 L 6.8340062 15.66999 C 7.550685 16.104246 8.449315 16.104246 9.1659938 15.66999 L 14.415974 12.487997 C 15.08885 12.080304 15.499906 11.350759 15.500028 10.564009 L 15.500028 5.4359908 C 15.499906 4.6492409 15.08885 3.9196953 14.415974 3.5120029 L 9.1659938 0.33001047 C 8.814388 0.11694583 8.4111242 0.0042897812 8 0.0042777112 z M 5.2298656 3.8625858 L 7.7760219 3.8625858 L 7.7760219 5.1356313 L 6.715118 5.1356313 L 6.715118 7.6817223 L 5.2298656 7.6817223 L 5.2298656 3.8625858 z M 5.866421 4.2869343 L 5.866421 4.7112828 L 6.2907695 4.7112828 L 6.2907695 4.2869343 L 5.866421 4.2869343 z M 6.715118 4.2869343 L 6.715118 4.7112828 L 7.1394665 4.7112828 L 7.1394665 4.2869343 L 6.715118 4.2869343 z M 5.866421 5.1356313 L 5.866421 5.5599798 L 6.2907695 5.5599798 L 6.2907695 5.1356313 L 5.866421 5.1356313 z M 7.1394665 5.5599798 L 9.8977644 5.5599798 L 9.8977644 6.8330253 L 8.6247189 6.8330253 L 8.6247189 10.864369 L 7.1394665 10.864369 L 7.1394665 5.5599798 z M 5.866421 5.9843283 L 5.866421 6.4086768 L 6.2907695 6.4086768 L 6.2907695 5.9843283 L 5.866421 5.9843283 z M 7.7760219 5.9843283 L 7.7760219 6.4086768 L 8.2003704 6.4086768 L 8.2003704 5.9843283 L 7.7760219 5.9843283 z M 8.8369259 5.9843283 L 8.8369259 6.4086768 L 9.2612744 6.4086768 L 9.2612744 5.9843283 L 8.8369259 5.9843283 z M 5.866421 6.8330253 L 5.866421 7.2573738 L 6.2907695 7.2573738 L 6.2907695 6.8330253 L 5.866421 6.8330253 z M 7.7760219 6.8330253 L 7.7760219 7.2573738 L 8.2003704 7.2573738 L 8.2003704 6.8330253 L 7.7760219 6.8330253 z M 9.0490674 7.2573738 L 11.595224 7.2573738 L 11.595224 10.864369 L 9.0490674 10.864369 L 9.0490674 7.2573738 z M 7.7760219 7.6817223 L 7.7760219 8.1060708 L 8.2003704 8.1060708 L 8.2003704 7.6817223 L 7.7760219 7.6817223 z M 9.6856229 7.6817223 L 9.6856229 8.1060708 L 10.109971 8.1060708 L 10.109971 7.6817223 L 9.6856229 7.6817223 z M 10.53432 7.6817223 L 10.53432 8.1060708 L 10.958668 8.1060708 L 10.958668 7.6817223 L 10.53432 7.6817223 z M 4.3811686 8.1060708 L 6.715118 8.1060708 L 6.715118 10.864369 L 4.3811686 10.864369 L 4.3811686 8.1060708 z M 5.017724 8.5304193 L 5.017724 8.9547678 L 5.4420725 8.9547678 L 5.4420725 8.5304193 L 5.017724 8.5304193 z M 5.866421 8.5304193 L 5.866421 8.9547678 L 6.2907695 8.9547678 L 6.2907695 8.5304193 L 5.866421 8.5304193 z M 7.7760219 8.5304193 L 7.7760219 8.9547678 L 8.2003704 8.9547678 L 8.2003704 8.5304193 L 7.7760219 8.5304193 z M 9.6856229 8.5304193 L 9.6856229 8.9547678 L 10.109971 8.9547678 L 10.109971 8.5304193 L 9.6856229 8.5304193 z M 10.53432 8.5304193 L 10.53432 8.9547678 L 10.958668 8.9547678 L 10.958668 8.5304193 L 10.53432 8.5304193 z M 3.9568201 9.149972 L 3.9568201 11.288717 L 12.019572 11.288717 L 12.019572 9.3451762 L 13.322438 12.137414 L 2.6775621 12.137414 L 3.9568201 9.149972 z M 5.017724 9.3791163 L 5.017724 9.8035302 L 5.4420725 9.8035302 L 5.4420725 9.3791163 L 5.017724 9.3791163 z M 5.866421 9.3791163 L 5.866421 9.8035302 L 6.2907695 9.8035302 L 6.2907695 9.3791163 L 5.866421 9.3791163 z M 7.7760219 9.3791163 L 7.7760219 9.8035302 L 8.2003704 9.8035302 L 8.2003704 9.3791163 L 7.7760219 9.3791163 z M 9.6856229 9.3791163 L 9.6856229 9.8035302 L 10.109971 9.8035302 L 10.109971 9.3791163 L 9.6856229 9.3791163 z M 10.53432 9.3791163 L 10.53432 9.8035302 L 10.958668 9.8035302 L 10.958668 9.3791163 L 10.53432 9.3791163 z " /></g><g
     style="fill:#000000"
     id="g36899"
     transform="matrix(0.56141049,0,0,0.56141049,112.27908,112.2792)"><g
       id="g36887">
	<g
   id="g36885">
		<g
   id="g36883">
			
			
		</g>
	</g>
</g></g><g
     style="fill:#000000"
     id="g37216"
     transform="matrix(6.3369851,0,0,6.3369851,97.22263,94.40688)" /></svg>
