<?xml version="1.0" encoding="UTF-8" standalone="no"?>
<svg
   viewBox="0 0 512 512"
   style="height: 512px; width: 512px;"
   version="1.1"
   id="svg886"
   sodipodi:docname="zonda-molly.svg"
   inkscape:version="1.2.2 (b0a8486541, 2022-12-01)"
   xmlns:inkscape="http://www.inkscape.org/namespaces/inkscape"
   xmlns:sodipodi="http://sodipodi.sourceforge.net/DTD/sodipodi-0.dtd"
   xmlns="http://www.w3.org/2000/svg"
   xmlns:svg="http://www.w3.org/2000/svg">
  <sodipodi:namedview
     id="namedview888"
     pagecolor="#ffffff"
     bordercolor="#666666"
     borderopacity="1.0"
     inkscape:showpageshadow="2"
     inkscape:pageopacity="0.0"
     inkscape:pagecheckerboard="0"
     inkscape:deskcolor="#d1d1d1"
     showgrid="false"
     inkscape:zoom="1.84375"
     inkscape:cx="223.45763"
     inkscape:cy="242.44068"
     inkscape:window-width="1716"
     inkscape:window-height="1386"
     inkscape:window-x="1440"
     inkscape:window-y="702"
     inkscape:window-maximized="1"
     inkscape:current-layer="svg886" />
  <defs
     id="defs878">
    <filter
       id="shadow-1"
       height="1.1517236"
       width="1.1517246"
       x="-0.075862315"
       y="-0.075861805">
      <feFlood
         flood-color="rgba(58, 63, 94, 1)"
         result="flood"
         id="feFlood867" />
      <feComposite
         in="flood"
         in2="SourceGraphic"
         operator="out"
         result="composite"
         id="feComposite869" />
      <feGaussianBlur
         in="composite"
         stdDeviation="15"
         result="blur"
         id="feGaussianBlur871" />
      <feOffset
         dx="0"
         dy="0"
         result="offset"
         id="feOffset873" />
      <feComposite
         in2="SourceGraphic"
         in="offset"
         operator="atop"
         id="feComposite875" />
    </filter>
    <filter
       style="color-interpolation-filters:sRGB;"
       inkscape:label="Drop Shadow"
       id="filter2672"
       x="-0.036508511"
       y="-0.030096649"
       width="1.073017"
       height="1.0601933">
      <feFlood
         flood-opacity="1"
         flood-color="rgb(58,63,94)"
         result="flood"
         id="feFlood2662" />
      <feComposite
         in="flood"
         in2="SourceGraphic"
         operator="out"
         result="composite1"
         id="feComposite2664" />
      <feGaussianBlur
         in="composite1"
         stdDeviation="15"
         result="blur"
         id="feGaussianBlur2666" />
      <feOffset
         dx="0"
         dy="0"
         result="offset"
         id="feOffset2668" />
      <feComposite
         in="offset"
         in2="SourceGraphic"
         operator="atop"
         result="composite2"
         id="feComposite2670" />
    </filter>
    <filter
       style="color-interpolation-filters:sRGB;"
       inkscape:label="Drop Shadow"
       id="filter3258"
       x="-0.033333307"
       y="-0.036846098"
       width="1.0666666"
       height="1.0736922">
      <feFlood
         flood-opacity="1"
         flood-color="rgb(58,63,94)"
         result="flood"
         id="feFlood3248" />
      <feComposite
         in="flood"
         in2="SourceGraphic"
         operator="out"
         result="composite1"
         id="feComposite3250" />
      <feGaussianBlur
         in="composite1"
         stdDeviation="15"
         result="blur"
         id="feGaussianBlur3252" />
      <feOffset
         dx="0"
         dy="0"
         result="offset"
         id="feOffset3254" />
      <feComposite
         in="offset"
         in2="SourceGraphic"
         operator="atop"
         result="composite2"
         id="feComposite3256" />
    </filter>
    <filter
       style="color-interpolation-filters:sRGB;"
       inkscape:label="Drop Shadow"
       id="filter4517"
       x="-0.04755843"
       y="-0.048809898"
       width="1.0951169"
       height="1.0976198">
      <feFlood
         flood-opacity="1"
         flood-color="rgb(58,63,94)"
         result="flood"
         id="feFlood4507" />
      <feComposite
         in="flood"
         in2="SourceGraphic"
         operator="out"
         result="composite1"
         id="feComposite4509" />
      <feGaussianBlur
         in="composite1"
         stdDeviation="10"
         result="blur"
         id="feGaussianBlur4511" />
      <feOffset
         dx="0"
         dy="0"
         result="offset"
         id="feOffset4513" />
      <feComposite
         in="offset"
         in2="SourceGraphic"
         operator="atop"
         result="composite2"
         id="feComposite4515" />
    </filter>
    <filter
       style="color-interpolation-filters:sRGB;"
       inkscape:label="Drop Shadow"
       id="filter5154"
       x="-0.073142173"
       y="-0.051090164"
       width="1.1462843"
       height="1.1021803">
      <feFlood
         flood-opacity="1"
         flood-color="rgb(58,63,94)"
         result="flood"
         id="feFlood5144" />
      <feComposite
         in="flood"
         in2="SourceGraphic"
         operator="out"
         result="composite1"
         id="feComposite5146" />
      <feGaussianBlur
         in="composite1"
         stdDeviation="10"
         result="blur"
         id="feGaussianBlur5148" />
      <feOffset
         dx="0"
         dy="0"
         result="offset"
         id="feOffset5150" />
      <feComposite
         in="offset"
         in2="SourceGraphic"
         operator="atop"
         result="composite2"
         id="feComposite5152" />
    </filter>
    <filter
       style="color-interpolation-filters:sRGB;"
       inkscape:label="Drop Shadow"
       id="filter5778"
       x="-0.050442997"
       y="-0.092707304"
       width="1.100886"
       height="1.1854146">
      <feFlood
         flood-opacity="1"
         flood-color="rgb(58,63,94)"
         result="flood"
         id="feFlood5768" />
      <feComposite
         in="flood"
         in2="SourceGraphic"
         operator="out"
         result="composite1"
         id="feComposite5770" />
      <feGaussianBlur
         in="composite1"
         stdDeviation="10"
         result="blur"
         id="feGaussianBlur5772" />
      <feOffset
         dx="0"
         dy="0"
         result="offset"
         id="feOffset5774" />
      <feComposite
         in="offset"
         in2="SourceGraphic"
         operator="atop"
         result="composite2"
         id="feComposite5776" />
    </filter>
    <clipPath
       id="a">
      <path
         d="M 222.14,222.14 H 977.85 V 977.85 H 222.14 Z"
         id="path6679" />
    </clipPath>
    <clipPath
       id="a-5">
      <path
         d="M 222.14,222.14 H 977.85 V 977.85 H 222.14 Z"
         id="path6679-3" />
    </clipPath>
    <filter
       style="color-interpolation-filters:sRGB;"
       inkscape:label="Drop Shadow"
       id="filter8128"
       x="-0.51199727"
       y="-0.25599863"
       width="2.0239945"
       height="1.5119973">
      <feFlood
         flood-opacity="1"
         flood-color="rgb(58,63,94)"
         result="flood"
         id="feFlood8118" />
      <feComposite
         in="flood"
         in2="SourceGraphic"
         operator="out"
         result="composite1"
         id="feComposite8120" />
      <feGaussianBlur
         in="composite1"
         stdDeviation="8"
         result="blur"
         id="feGaussianBlur8122" />
      <feOffset
         dx="0"
         dy="0"
         result="offset"
         id="feOffset8124" />
      <feComposite
         in="offset"
         in2="SourceGraphic"
         operator="atop"
         result="composite2"
         id="feComposite8126" />
    </filter>
    <filter
       style="color-interpolation-filters:sRGB;"
       inkscape:label="Drop Shadow"
       id="filter21595"
       x="-0.038264996"
       y="-0.082038655"
       width="1.07653"
       height="1.1640773">
      <feFlood
         flood-opacity="1"
         flood-color="rgb(58,63,94)"
         result="flood"
         id="feFlood21585" />
      <feComposite
         in="flood"
         in2="SourceGraphic"
         operator="out"
         result="composite1"
         id="feComposite21587" />
      <feGaussianBlur
         in="composite1"
         stdDeviation="15"
         result="blur"
         id="feGaussianBlur21589" />
      <feOffset
         dx="0"
         dy="0"
         result="offset"
         id="feOffset21591" />
      <feComposite
         in="offset"
         in2="SourceGraphic"
         operator="atop"
         result="composite2"
         id="feComposite21593" />
    </filter>
    <filter
       style="color-interpolation-filters:sRGB;"
       inkscape:label="Drop Shadow"
       id="filter22425"
       x="-0.049589307"
       y="-0.17253584"
       width="1.0991786"
       height="1.3450717">
      <feFlood
         flood-opacity="1"
         flood-color="rgb(58,63,94)"
         result="flood"
         id="feFlood22415" />
      <feComposite
         in="flood"
         in2="SourceGraphic"
         operator="out"
         result="composite1"
         id="feComposite22417" />
      <feGaussianBlur
         in="composite1"
         stdDeviation="10"
         result="blur"
         id="feGaussianBlur22419" />
      <feOffset
         dx="0"
         dy="0"
         result="offset"
         id="feOffset22421" />
      <feComposite
         in="offset"
         in2="SourceGraphic"
         operator="atop"
         result="composite2"
         id="feComposite22423" />
    </filter>
    <filter
       style="color-interpolation-filters:sRGB;"
       inkscape:label="Drop Shadow"
       id="filter23083"
       x="-0.020949753"
       y="-0.075512709"
       width="1.0418995"
       height="1.1510254">
      <feFlood
         flood-opacity="1"
         flood-color="rgb(58,63,94)"
         result="flood"
         id="feFlood23073" />
      <feComposite
         in="flood"
         in2="SourceGraphic"
         operator="out"
         result="composite1"
         id="feComposite23075" />
      <feGaussianBlur
         in="composite1"
         stdDeviation="10"
         result="blur"
         id="feGaussianBlur23077" />
      <feOffset
         dx="0"
         dy="0"
         result="offset"
         id="feOffset23079" />
      <feComposite
         in="offset"
         in2="SourceGraphic"
         operator="atop"
         result="composite2"
         id="feComposite23081" />
    </filter>
    <filter
       style="color-interpolation-filters:sRGB;"
       inkscape:label="Drop Shadow"
       id="filter23920"
       x="-0.031832381"
       y="-0.083470149"
       width="1.0636648"
       height="1.1669403">
      <feFlood
         flood-opacity="1"
         flood-color="rgb(58,63,94)"
         result="flood"
         id="feFlood23910" />
      <feComposite
         in="flood"
         in2="SourceGraphic"
         operator="out"
         result="composite1"
         id="feComposite23912" />
      <feGaussianBlur
         in="composite1"
         stdDeviation="15"
         result="blur"
         id="feGaussianBlur23914" />
      <feOffset
         dx="0"
         dy="0"
         result="offset"
         id="feOffset23916" />
      <feComposite
         in="offset"
         in2="SourceGraphic"
         operator="atop"
         result="composite2"
         id="feComposite23918" />
    </filter>
    <filter
       style="color-interpolation-filters:sRGB;"
       inkscape:label="Drop Shadow"
       id="filter25184"
       x="-0.055640592"
       y="-0.10045407"
       width="1.1112812"
       height="1.2009081">
      <feFlood
         flood-opacity="1"
         flood-color="rgb(58,63,94)"
         result="flood"
         id="feFlood25174" />
      <feComposite
         in="flood"
         in2="SourceGraphic"
         operator="out"
         result="composite1"
         id="feComposite25176" />
      <feGaussianBlur
         in="composite1"
         stdDeviation="5"
         result="blur"
         id="feGaussianBlur25178" />
      <feOffset
         dx="0"
         dy="0"
         result="offset"
         id="feOffset25180" />
      <feComposite
         in="offset"
         in2="SourceGraphic"
         operator="atop"
         result="composite2"
         id="feComposite25182" />
    </filter>
    <filter
       style="color-interpolation-filters:sRGB;"
       inkscape:label="Drop Shadow"
       id="filter25884"
       x="-0.026230522"
       y="-0.048319459"
       width="1.052461"
       height="1.0966389">
      <feFlood
         flood-opacity="1"
         flood-color="rgb(58,63,94)"
         result="flood"
         id="feFlood25874" />
      <feComposite
         in="flood"
         in2="SourceGraphic"
         operator="out"
         result="composite1"
         id="feComposite25876" />
      <feGaussianBlur
         in="composite1"
         stdDeviation="15"
         result="blur"
         id="feGaussianBlur25878" />
      <feOffset
         dx="0"
         dy="0"
         result="offset"
         id="feOffset25880" />
      <feComposite
         in="offset"
         in2="SourceGraphic"
         operator="atop"
         result="composite2"
         id="feComposite25882" />
    </filter>
    <filter
       style="color-interpolation-filters:sRGB;"
       inkscape:label="Drop Shadow"
       id="filter26006"
       x="-0.03497403"
       y="-0.064425946"
       width="1.0699481"
       height="1.1288519">
      <feFlood
         flood-opacity="1"
         flood-color="rgb(58,63,94)"
         result="flood"
         id="feFlood25996" />
      <feComposite
         in="flood"
         in2="SourceGraphic"
         operator="out"
         result="composite1"
         id="feComposite25998" />
      <feGaussianBlur
         in="composite1"
         stdDeviation="20"
         result="blur"
         id="feGaussianBlur26000" />
      <feOffset
         dx="0"
         dy="0"
         result="offset"
         id="feOffset26002" />
      <feComposite
         in="offset"
         in2="SourceGraphic"
         operator="atop"
         result="composite2"
         id="feComposite26004" />
    </filter>
  </defs>
  <path
     d="M 0.35858051,-0.2092161 H 512.35858 V 511.79078 H 0.35858051 Z"
     fill="#1b1f21"
     fill-opacity="0"
     id="path880" />
  <g
     clip-path="url(#a-5)"
     id="g6686"
     transform="matrix(0.51260194,0,0,0.51260194,-62.643019,-31.742847)"
     style="fill:#ffffff" />
  <g
     id="g25305"
     transform="matrix(0.35544495,0,0,0.35544495,41.876289,27.085392)"
     style="fill:#ff0ec0;fill-opacity:1;filter:url(#filter26006)">
    <path
       d="m 111.72307,725.80185 c -52.490569,-0.0646 -95.248575,42.58583 -95.307802,95.0764 -0.06457,52.49058 42.585834,95.24858 95.076402,95.30781 52.49058,0.0646 95.24858,-42.58583 95.30781,-95.07641 0.0646,-52.49057 -42.58583,-95.24307 -95.07641,-95.3078 z m -0.20983,169.81717 C 70.375037,895.57054 36.940516,862.0564 36.994234,820.9182 c 0.04848,-41.13821 33.562617,-74.57273 74.700826,-74.51901 41.13821,0.0485 74.57273,33.56261 74.51901,74.70082 -0.0485,41.1327 -33.56262,74.56722 -74.70083,74.51901 z"
       id="path25293"
       style="fill:#ff0ec0;fill-opacity:1"
       sodipodi:nodetypes="cccccccccc" />
    <path
       d="m 160.48232,820.99258 c 0,26.9994 -21.88794,48.88046 -48.88046,48.88046 -26.999397,0 -48.880455,-21.88244 -48.880455,-48.88046 0,-26.99941 21.882435,-48.88046 48.880455,-48.88046 26.9939,0 48.88046,21.88243 48.88046,48.88046"
       id="path25295"
       style="fill:#ff0ec0;fill-opacity:1"
       sodipodi:nodetypes="csssc" />
    <path
       d="m 1093.5642,726.00084 c -52.455,-0.0646 -95.18403,42.55699 -95.24322,95.012 -0.0645,52.45501 42.55702,95.18405 95.01202,95.24324 52.455,0.0646 95.1785,-42.55699 95.2432,-95.012 0.065,-52.45501 -42.557,-95.17854 -95.012,-95.24324 z m -0.2042,169.70213 c -41.1104,-0.0485 -74.5223,-33.53988 -74.4686,-74.65022 0.048,-41.11033 33.5399,-74.5222 74.6502,-74.46852 41.1104,0.0485 74.5223,33.53988 74.4686,74.65022 -0.054,41.10483 -33.5399,74.5167 -74.6502,74.46852 z"
       id="path25297"
       style="fill:#ff0ec0;fill-opacity:1"
       sodipodi:nodetypes="sccsscccsc" />
    <path
       d="m 1142.2904,821.12708 c 0,26.98111 -21.8676,48.84735 -48.8473,48.84735 -26.9756,0 -48.8474,-21.86761 -48.8474,-48.84735 0,-26.98111 21.8732,-48.84734 48.8474,-48.84734 26.9811,0 48.8473,21.86761 48.8473,48.84734"
       id="path25299"
       style="fill:#ff0ec0;fill-opacity:1"
       sodipodi:nodetypes="csssc" />
    <path
       d="m 1278.5587,837.47927 c 0.1128,-1.27967 0.2096,-2.55936 0.2956,-3.84441 l -0.076,-0.44089 c 0.6183,-9.25881 0.5967,-18.57653 -0.1829,-27.90058 l 10.0384,-1.75277 -5.6025,-32.07809 -10.0007,1.7474 c -2.1829,-8.19413 -4.9843,-16.29163 -8.3501,-24.26538 l -1.1613,-6.91981 7.3285,-4.21537 -16.238,-28.23368 v 0.006 l -0.037,-0.0699 -8.8232,5.08102 c -6.2425,-8.94154 -13.1462,-17.18907 -20.6302,-24.70034 l 6.5381,-7.76399 -0.059,-0.0485 v -0.005 l -12.4149,-10.44159 -12.4418,-10.47394 v 0.006 l -0.059,-0.0485 -6.5596,7.8017 c -4.4089,-3.0809 -8.9308,-5.9574 -13.5656,-8.62963 -4.6347,-2.69908 -9.3931,-5.20462 -14.2751,-7.50054 l 3.5003,-9.57057 -0.076,-0.0268 v -0.006 l -15.2221,-5.56497 -7.85,-2.87113 -7.7691,-3.50903 -19.4306,-7.24293 c 0,0 -7.8008,-11.398 -8.3984,-13.199 -0.6015,-1.8008 -4.1992,-31.801 -5.3984,-37.199 -1.1992,-5.3984 -4.8008,-9 -12.602,-13.199 -7.8008,-4.1992 -14.398,-6 -14.398,-6 0,0 -9,0 -10.199,-2.3984 -7.4531,-14.91 -124.19998,-43.199 -130.19998,-46.199 -6,-3 -11.398,-3 -13.801,-3 -2.3984,0 -62.398,-1.8008 -62.398,-1.8008 0,0 -4.8711,-1.1914 -10.477,-3.1914 l 2.2812,-1.5117 c -12.906,-19.484 -129.19,-137.68 -129.19,-137.68 l -25.57,-15.5 c 0,0 -176.63,-63.652 -187.01,-66.48 -3.0195,-0.82422 -18.801,-1.9648 -33.223,-2.7266 -10.973,-0.57812 -109.586,-2.4102 -113.605,-2.4102 -0.24219,0 -35.81428,0.35156 -50.14228,30.699 -6.7852,14.371 -11.965,27.57 -26.312,61.121 -6.5742,15.383 -12.789,29.91 -13.492,31.387 -2.4766,4.957 -7.9727,24.223 -3.7656,42.453 0.94531,4.0977 3.4922,13.141 6.7539,24.32 l 0.42328,-0.45703 c -1.4688,-3.1562 -0.5742,-4.4219 -4.0586,-4.4219 h -13.199 c -3,0 -4.1992,1.1992 -5.3984,3 -0.125,0.1875 -0.375,0.63672 -0.68359,1.2227 l -37.266,-0.30078 c -0.16016,-0.33984 -0.31641,-0.65625 -0.44922,-0.91797 -2.3984,-4.8008 -3.6016,-4.1992 -3.6016,-4.1992 0,0 -11.398,-0.60156 -15,0 -3.6016,0.60156 -4.8008,0 -5.3984,3 -0.60156,3 -13.801,22.801 -13.801,22.801 0,0 -18,1.8008 -18,0 0,-1.8008 -5.3984,-4.1992 -9,-4.1992 h -13.199 c -3.6016,0 -4.8008,2.3984 -7.1992,6.6016 -2.3984,4.1992 -17.398,24 -17.398,24 h -16.801 c -7.199195,0 -5.999995,3.6016 -7.199195,8.3984 -1.1992,4.8008 -21.602,45.602 -27.602,48 -6,2.3984 -12,4.8008 -12,4.8008 0,0 1.1836,13.887 12.625,14.355 l 14.273,83.438 h 7.1719 l 6.2344,-38.871 c 6.488295,15.828 27.128995,18.805 36.831995,9.7344 8.4531,-7.9023 17.898,-10.312 50.059,12.945 20.629,14.914 24,15.602 24,20.39801 0,4.8008 -70.16341,-127.71805 -76.77621,-72.62285 -1.00075,8.32888 -6.3489,18.05607 -12.99365,27.29967 l -7.16665,-0.011 -16.093306,-0.0269 v 0.006 h -0.08071 l -0.01102,10.19041 c -10.868354,0.93619 -21.473353,2.79236 -31.727947,5.52026 l -3.459565,-9.55557 -0.07534,0.0269 -0.0055,-0.006 -16.496879,5.98306 -14.064427,5.0952 0.0055,0.006 -0.07534,0.0269 3.47568,9.58244 c -4.82083,2.24898 -9.598685,4.67014 -14.295822,7.36581 -4.718628,2.71179 -9.2327157,5.63872 -13.6177425,8.68934 l -6.537183,-7.81773 -0.059186,0.0485 -0.00537,-0.006 -13.8647065,11.60553 -11.072895,9.25971 0.0054,0.006 -0.05919,0.0484 6.526439,7.79624 c -7.677791,7.66705 -14.586454,15.92527 -20.708908,24.65786 l -8.823771,-5.11132 -0.03766,0.0646 -0.0054,-0.006 -8.188937,14.14982 -8.108223,13.98316 0.0054,0.006 -0.03766,0.07 8.823772,5.11132 c -4.530341,9.65778 -8.258908,19.76265 -11.089011,30.23212 l -10.007492,-1.78096 -0.01074,0.0753 h -0.0054 l -2.571844,14.49003 -3.11522,17.5189 h 0.0054 l -0.01074,0.0753 10.034489,1.78095 c -0.468089,5.32124 -0.758634,10.69619 -0.764019,16.13601 -0.0054,5.41269 0.269016,10.76078 0.720975,16.06576 l -10.045232,1.75396 0.01074,0.0753 h -0.0054 l 2.534104,14.45698 3.066874,17.57261 h 0.0054 l 0.01074,0.0807 10.007492,-1.75396 c 0.03229,0.11832 0.07533,0.23675 0.102229,0.3551 0.667176,2.48576 1.382752,4.96615 2.1629,7.43028 0.06994,0.22597 0.150644,0.44119 0.225973,0.66718 0.74249,2.33507 1.528065,4.6594 2.372812,6.97835 0.139887,0.39278 0.306688,0.78016 0.451946,1.16755 1.710982,4.5948 3.583392,9.15738 5.681693,13.66086 l -8.834653,5.07909 0.03766,0.07 -0.0054,0.006 8.038251,13.9625 8.178194,14.21456 0.0054,-0.006 0.03766,0.0646 8.834653,-5.08446 c 6.241184,8.94222 13.149709,17.20072 20.644171,24.71708 l -6.547927,7.77462 0.05919,0.0485 -0.0054,0.006 12.29959,10.34109 12.5793357,10.58861 0.00537,-0.006 0.059186,0.0485 6.5694137,-7.80699 c 4.4388823,3.09911 8.9959436,5.99918 13.6608546,8.6786 4.611051,2.67941 9.351166,5.17054 14.199406,7.4519 l -3.508049,9.58247 0.07534,0.0262 h -0.0055 l 15.301314,5.59027 15.232445,5.5741 h 0.0055 l 0.07534,0.026 3.486424,-9.5448 c 10.249635,2.7547 20.843891,4.6433 31.711419,5.6117 l -0.01612,10.1904 h 0.08072 v 0 l 14.99003,0.022 17.5189,0.033 v 0 h 0.0807 l 0.011,-10.1904 c 5.02523,-0.4304 9.986,-1.0869 14.8881,-1.9046 0.33896,-0.054 0.6833,-0.096 1.02228,-0.1561 2.51261,-0.4358 5.00374,-0.9308 7.47876,-1.4635 0.15065,-0.032 0.29591,-0.054 0.44657,-0.085 2.65256,-0.5811 5.28349,-1.2159 7.89308,-1.91 l 3.45956,9.5556 0.0753,-0.026 h 0.006 l 15.00656,-5.4395 15.56577,-5.6388 h -0.006 l 0.0753,-0.0275 -3.47568,-9.58235 c 1.14064,-0.53266 2.27585,-1.07608 3.41122,-1.63027 l 0.19369,-0.15603 c 8.48493,-4.19137 16.62497,-8.97983 24.32453,-14.36607 l 6.58553,7.86608 24.99256,-20.91965 -6.56942,-7.84996 c 5.94533,-5.93458 11.45485,-12.29959 16.5506,-19.00372 l 5.78927,-4.77234 7.2851,4.21822 11.30953,-19.53124 0.006,-0.006 4.98225,-8.59251 -0.006,-0.006 0.0376,-0.07 -8.82377,-5.11132 c 4.53034,-9.65778 8.2589,-19.76265 11.08901,-30.23211 l 10.00749,1.78095 0.011,-0.0754 h 0.006 l 2.87307,-16.1787 2.81399,-15.82885 h -0.006 l 0.011,-0.0753 -10.03449,-1.78096 c 0.0753,-0.87162 0.13989,-1.73784 0.19907,-2.60944 l 33.88975,50.85282 212.4,-51.602 c 0,0 266.4,-8.3984 271.2,-8.3984 4.8008,0 24,-1.1992 26.398,-7.1992 2.3984,-6 13.62195,-82.84779 38.398,-86.14906 24.77604,-3.30127 8.25868,-16.51736 8.25868,-16.51736 h 40.89561 l -4.36595,7.53825 -8.10273,13.97369 0.005,0.006 -0.0377,0.0699 8.81779,5.10785 c -4.52727,9.65124 -8.25331,19.74926 -11.0815,30.21164 l -10.00071,-1.77975 -0.011,0.0753 h -0.006 l -2.5701,14.48022 -3.11311,17.50703 h 0.006 l -0.011,0.0753 10.02769,1.77975 c -0.46777,5.31762 -0.75812,10.68893 -0.7635,16.12507 -0.006,5.40902 0.26883,10.75349 0.72048,16.05488 l -10.03842,1.75276 0.011,0.0753 h -0.006 l 2.53239,14.44718 3.0648,17.56071 h 0.005 l 0.011,0.0807 10.00072,-1.75277 c 0.0322,0.11824 0.0699,0.23659 0.10213,0.35486 0.66672,2.48408 1.38181,4.96278 2.16143,7.42525 0.0699,0.22582 0.15056,0.44089 0.22582,0.66672 0.74199,2.33349 1.52703,4.65624 2.37121,6.97363 0.13979,0.39251 0.30648,0.77963 0.45164,1.16676 1.70982,4.59169 3.58096,9.15117 5.67247,13.6516 l -8.82867,5.07565 0.0376,0.0699 -0.005,0.006 8.0328,13.95304 8.17265,14.20493 0.006,-0.006 0.0377,0.0646 8.82866,-5.08102 c 6.24246,8.93617 13.14617,17.18907 20.63019,24.70034 l -6.54349,7.76935 0.0592,0.0485 -0.006,0.005 12.29126,10.33409 12.57081,10.58143 0.006,-0.005 0.0592,0.0485 6.5596,-7.8017 c 4.43587,3.097 8.98985,5.99511 13.65158,8.67271 4.6133,2.67761 9.3448,5.16705 14.1898,7.44686 l -3.5003,9.57603 0.075,0.0262 v 0 l 15.2854,5.58643 15.2221,5.5703 h 0.01 l 0.075,0.026 3.4841,-9.5384 c 10.2427,2.7529 20.8298,4.6401 31.69,5.6079 l -0.016,10.1835 h 0.081 v 0 l 14.9798,0.022 17.5126,0.032 v 0 h 0.076 l 0.014,-10.1835 c 5.0218,-0.4301 9.9792,-1.0861 14.8821,-1.9033 0.3387,-0.054 0.6828,-0.096 1.0216,-0.156 2.5109,-0.4355 5.0003,-0.9302 7.4737,-1.4625 0.1452,-0.032 0.2958,-0.054 0.4409,-0.085 2.6507,-0.5807 5.2799,-1.2151 7.8877,-1.9087 l 3.4572,9.5491 0.076,-0.026 v 0 l 14.9964,-5.4358 15.5552,-5.6349 v 0 l 0.076,-0.0275 -3.4733,-9.57593 c 1.1398,-0.5323 2.2743,-1.07535 3.4089,-1.62916 l 0.1935,-0.15593 c 8.4792,-4.18852 16.6138,-8.97374 24.3081,-14.35634 l 6.5811,7.86075 24.9756,-20.90547 -6.565,-7.84465 c 5.9413,-5.93056 11.4525,-12.29125 16.5394,-18.99083 l 5.7854,-4.76912 7.2801,4.21537 11.3019,-19.51801 v -0.006 l 4.9789,-8.58669 v -0.005 l 0.037,-0.0699 -8.8233,-5.10785 c 4.5273,-9.65124 8.2534,-19.74926 11.0815,-30.21163 l 10.0007,1.77974 0.014,-0.0753 v 0 l 2.8711,-16.16775 2.8175,-15.81812 v 0 l 0.014,-0.0753 z M 309.92,403.29 c 0.68359,-1.3711 3.9727,-9.0469 13.969,-32.422 14.293,-33.422 19.387,-46.422 26.023,-60.473 8.6406,-18.301 21.352,-19.695 21.32,-19.699 0.19141,0 0.57422,0.008 1.1289,0.0234 -9.2422,8.5391 -14.23,18.406 -16.676,24.699 -1.5273,3.9258 -5.8086,14.316 -10.758,26.344 -8.6914,21.102 -3.008,9.863 -7.582,22.066 -2.875,7.6641 -3.3516,16 -2.707,23.719 -4.8906,-0.5 -9.0898,0.16016 -11.703,1.8516 -10.199,6.6016 5.3984,52.199 7.1992,57.602 1.8008,5.3984 9.6367,33.973 9.6367,33.973 0,0 -7.6133,-0.0547 -18.277,-0.125 -6.3516,-21.211 -12.312,-41.547 -13.805,-48.008 -2.8984,-12.539 0.94922,-26.848 2.2305,-29.551 z m -53.99,68.285 c -2.9727,6.0156 -5.8945,12.023 -5.8945,12.023 l -16.199,-1.1992 c 0,0 -2.332,-5.3789 -4.8359,-11.039 z m -40.63622,351.42166 c -0.006,0.2744 -0.011,0.54881 -0.0215,0.82858 -0.47348,16.49137 -4.86381,32.68523 -12.78374,47.15323 -0.37125,0.67793 -0.76939,1.33972 -1.15678,2.00147 -0.38739,0.67254 -0.76939,1.35048 -1.16755,2.01758 -8.61937,14.08647 -20.50506,25.96086 -34.58464,34.57913 -0.20983,0.12906 -0.41428,0.25287 -0.62411,0.382 -1.12988,0.6833 -2.27585,1.33434 -3.43271,1.96924 -0.42505,0.23674 -0.85548,0.46809 -1.28591,0.69945 -1.01689,0.54341 -2.03921,1.06532 -3.07224,1.57104 -0.55956,0.2744 -1.11913,0.54341 -1.67876,0.80167 -0.94694,0.44658 -1.91001,0.87701 -2.8677,1.29668 -0.64565,0.27977 -1.29129,0.54342 -1.93687,0.80706 -0.91466,0.37125 -1.82393,0.73712 -2.74939,1.08147 -0.70483,0.26364 -1.42037,0.51651 -2.13067,0.76939 -0.877,0.30668 -1.75933,0.61336 -2.65256,0.89852 -0.76402,0.24211 -1.53345,0.47347 -2.30284,0.69944 -0.85548,0.25288 -1.70561,0.50038 -2.56647,0.72635 -0.81782,0.2206 -1.64101,0.41429 -2.46427,0.61336 -0.81782,0.19369 -1.63564,0.38739 -2.46427,0.57032 -0.87701,0.18832 -1.75396,0.3551 -2.63644,0.51652 -0.78017,0.14527 -1.5603,0.28516 -2.34582,0.41429 -0.93081,0.15066 -1.86704,0.28516 -2.80324,0.41429 -0.73174,0.0968 -1.46884,0.19368 -2.20602,0.27977 -1.00613,0.11832 -2.01758,0.20983 -3.02913,0.29592 -0.65103,0.0539 -1.30744,0.10757 -1.9585,0.15065 -1.11373,0.07 -2.23287,0.12369 -3.34662,0.16142 -0.5219,0.0161 -1.04917,0.0322 -1.57104,0.0376 -1.2859,0.0215 -2.56647,0.0269 -3.85239,0 -0.27977,-0.006 -0.55956,-0.0161 -0.84472,-0.0215 -16.474842,-0.47347 -32.664566,-4.85843 -47.121546,-12.77299 -0.790919,-0.43582 -1.565667,-0.89852 -2.345815,-1.35587 -0.559561,-0.32283 -1.124507,-0.64026 -1.678751,-0.97385 -14.086465,-8.61399 -25.960857,-20.49403 -34.584633,-34.57499 -0.139887,-0.22597 -0.274402,-0.45196 -0.414289,-0.67254 -0.667175,-1.10837 -1.307443,-2.23825 -1.936878,-3.37348 -0.247502,-0.45196 -0.495003,-0.90391 -0.737119,-1.36124 -0.527275,-0.98999 -1.03842,-1.99073 -1.533437,-2.9969 -0.285159,-0.58646 -0.570318,-1.17831 -0.84472,-1.7647 -0.430431,-0.92005 -0.850105,-1.84542 -1.253636,-2.78162 -0.290544,-0.67793 -0.570318,-1.36124 -0.850105,-2.03921 -0.355102,-0.87701 -0.704833,-1.75396 -1.03842,-2.64182 -0.279774,-0.74787 -0.548804,-1.50107 -0.812434,-2.25436 -0.295916,-0.83396 -0.581089,-1.67875 -0.855477,-2.52336 -0.263644,-0.81781 -0.50576,-1.63563 -0.742491,-2.45338 -0.236744,-0.80168 -0.468088,-1.59804 -0.683304,-2.40505 -0.236744,-0.877 -0.446574,-1.75395 -0.656404,-2.63107 -0.18293,-0.76402 -0.36586,-1.52269 -0.527275,-2.2921 -0.1990727,-0.93619 -0.3820025,-1.87241 -0.554175,-2.80861 -0.1345149,-0.71559 -0.2690161,-1.43661 -0.3820026,-2.1629 -0.1614151,-1.00075 -0.3066874,-1.9961 -0.4411886,-2.99691 -0.091472,-0.66717 -0.177558,-1.33433 -0.2528731,-2.00684 -0.1237439,-1.07069 -0.225973,-2.14678 -0.3120592,-3.21742 -0.048429,-0.58646 -0.091472,-1.17831 -0.134515,-1.7647 -0.075329,-1.17831 -0.1345149,-2.35656 -0.1721725,-3.53491 -0.010744,-0.45733 -0.0269,-0.91466 -0.032286,-1.37199 -0.021529,-1.35048 -0.032286,-2.69553 0,-4.04606 0.00537,-0.20983 0.010743,-0.42504 0.016143,-0.63488 0.4573315,-16.52305 4.847689,-32.76099 12.789249,-47.25653 0.37663,-0.68331 0.774776,-1.35048 1.167549,-2.0231 0.381996,-0.66717 0.758627,-1.33972 1.162158,-2.00147 8.619368,-14.08646 20.505055,-25.96086 34.584633,-34.57912 0.20983,-0.12906 0.419674,-0.25826 0.629504,-0.38201 1.124507,-0.67793 2.265101,-1.32895 3.416591,-1.96386 0.430431,-0.23675 0.87162,-0.47348 1.307437,-0.70484 1.006134,-0.53803 2.023095,-1.05455 3.045249,-1.55492 0.570318,-0.27978 1.140636,-0.55418 1.716353,-0.81782 0.936192,-0.44119 1.883154,-0.86625 2.835488,-1.28054 0.66179,-0.28516 1.32358,-0.55956 1.990728,-0.82857 0.887762,-0.36586 1.786324,-0.71559 2.684789,-1.05994 0.737105,-0.2744 1.474209,-0.53803 2.216741,-0.79629 0.850105,-0.29592 1.700238,-0.58646 2.5611,-0.86625 0.801677,-0.25826 1.60878,-0.495 2.415787,-0.73173 0.812434,-0.23675 1.624895,-0.47348 2.442646,-0.68869 0.860862,-0.23136 1.727096,-0.44119 2.593331,-0.64565 0.774776,-0.18293 1.549552,-0.36586 2.3297,-0.53803 0.925434,-0.19907 1.850923,-0.37663 2.776247,-0.5488 0.726348,-0.13457 1.458095,-0.26902 2.189759,-0.38739 0.989992,-0.16142 1.985355,-0.30669 2.975416,-0.43582 0.672547,-0.0915 1.339722,-0.17756 2.017586,-0.25287 1.070692,-0.12369 2.141412,-0.22597 3.217422,-0.31206 0.58646,-0.0485 1.17292,-0.0915 1.75933,-0.13457 1.1783,-0.0753 2.36193,-0.13457 3.54565,-0.17217 0.45194,-0.011 0.9039,-0.0215 1.36124,-0.0322 1.35586,-0.0215 2.70627,-0.0322 4.05679,0 0.20446,0.006 0.41429,0.011 0.61875,0.0161 16.53407,0.45733 32.78302,4.85306 47.29372,12.80536 0.57032,0.31206 1.12988,0.65104 1.69486,0.97924 0.77478,0.44657 1.56031,0.88776 2.3297,1.35048 14.0906,8.62474 25.96088,20.51056 34.57913,34.60667 0.11832,0.1937 0.23673,0.382 0.34973,0.57032 0.68869,1.14602 1.35586,2.30821 2.00147,3.48642 0.22597,0.40892 0.44657,0.81244 0.66179,1.22135 0.55417,1.03304 1.08683,2.07682 1.59804,3.13134 0.26364,0.53803 0.5219,1.08146 0.77477,1.62489 0.45195,0.96847 0.89852,1.94238 1.3182,2.92694 0.26901,0.62411 0.52727,1.25363 0.78553,1.88315 0.382,0.93081 0.74788,1.86167 1.10298,2.80324 0.25826,0.68869 0.50037,1.38276 0.74787,2.07682 0.31206,0.89852 0.62412,1.79706 0.91467,2.70627 0.23674,0.74788 0.46271,1.50658 0.6833,2.25973 0.25289,0.86625 0.50576,1.73247 0.74251,2.60945 0.21521,0.80706 0.4089,1.61415 0.6026,2.42116 0.19907,0.83396 0.39814,1.66787 0.58107,2.50724 0.18293,0.86625 0.34973,1.73247 0.51115,2.5987 0.15064,0.79092 0.29053,1.58179 0.42505,2.37819 0.15064,0.92543 0.28515,1.85629 0.4089,2.78162 0.0968,0.73712 0.1937,1.47958 0.27979,2.21675 0.11294,1.00614 0.20983,2.01222 0.29591,3.01839 0.0539,0.65641 0.10758,1.30744 0.15066,1.96924 0.07,1.11913 0.12369,2.23287 0.16141,3.34662 0.0161,0.51652 0.0322,1.0438 0.0376,1.5603 0.006,1.25901 0.006,2.55036 -0.0215,3.83628 z M 254.816,480.425 c -4.8008,0 15.3164,3.7734 15.3164,3.7734 0,0 -2.3672,-6.3945 -4.7227,-12.34 l 33.504,0.44531 c 0.8125,2.7461 1.6523,5.5625 2.5,8.4102 -21.34,-0.14062 -44.109,-0.28906 -46.598,-0.28906 z m 78.617,386.57 -1.1992,-38.398 10.801,-3.6016 16.801,34.801 z m 45,-14.398 -1.1992,-38.398 10.801,-3.6016 16.801,34.801 z m 39.602,-10.801 -1.1992,-38.398 10.801,-3.6016 16.801,34.801 z m 388.2,-354.6 c -5.3984,-0.60156 -16.199,-6 -21,-5.3984 -4.8008,0.60156 -10.199,10.801 -10.199,10.801 0,0 -14.75,24.316 -26.297,44.441 l -20.953,-10.957 3.4531,-7.082 -16.977,-23.465 19.617,-34.148 c 1.9805,-3.4492 0.78906,-7.8477 -2.6562,-9.832 -3.4453,-1.9805 -7.8516,-0.79297 -9.832,2.6562 l -64.801,112.8 c -1.9805,3.4492 -0.78906,7.8477 2.6562,9.832 1.1289,0.65234 2.3633,0.95703 3.5781,0.95703 2.4922,0 4.9219,-1.2969 6.25,-3.6133 l 17.316,-30.141 33.445,-1.6523 3.1875,-6.543 20.367,10.754 c -4.5,8.3008 -7.0938,12.516 -8.5547,17.391 -5.3984,18 13.801,12.602 13.801,12.602 l 29.398,110.4 h -106.2 c -7.1992,0 -4.8008,-5.3984 -4.8008,-13.801 0,-8.3984 -1.1992,-17.398 -6,-27 -4.8008,-9.6016 -37.199,-21.602 -77.398,-21.602 -40.199,0 -77.398,27.602 -81.602,34.801 -4.1992,7.1992 -9,6.6016 -11.398,3 -2.3984,-3.6016 4.5273,-40.938 -16.398,-111.2 -22.398,-75.199 -87.63972,-67.602 -90.63972,-69.402 -3,-1.8 7.1992,-24 1.1992,-57 -2.4609,-13.551 -9.6836,-23.047 -18.043,-29.086 -1.8281,-7.9258 -2.8008,-17.598 0.0312,-25.145 4.4688,-11.914 -1.277,-0.52 7.355,-21.496 5.1992,-12.621 9.3047,-22.594 10.906,-26.711 23.10338,-18.17675 65.32996,-19.47014 89.94028,-18.21394 3.7734,0.15234 6.8711,0.28906 8.8398,0.39453 9.668,0.50781 21.758,0.0508 29.176,2.0742 1.5273,0.41406 187.99,65.219 187.99,65.219 l 14.016,9.3828 c 15.94748,13.7828 101.89561,99.04009 95.35662,102.36572 -3.5938,4.2148 1.26728,4.2148 -4.13172,3.6133 z m 280.2,87 c 3.6016,0 14.398,40.801 14.398,40.801 l -18,-12 -16.801,-2.3984 -3.6016,-30.602 c 0,0 20.406,4.1992 24.004,4.1992 z m -88.371,58.051 -4.2344,-11.578 c 0.42969,-0.40234 0.78125,-0.82031 1.0312,-1.2539 6.75,12.227 20.305,36.688 34.055,61.055 2.3867,4.2266 0.5039,26.859 -0.2812,44.574 -0.5665,-0.74219 -1.6523,-1.4844 -3.7695,-1.3359 -1.2656,0.0898 -2.9531,0.45703 -5.1641,1.1289 -4.4336,1.3516 -8.2578,2.6602 -11.578,3.9141 l -0.6797,-2.2383 c 9.6328,-3.0156 13.164,-4.4219 15.387,-5.3047 0.4375,-0.17578 0.8242,-0.32813 1.1914,-0.46875 3.1016,-1.1758 2.2695,-3.6445 2.168,-3.9258 -0.9688,-2.5664 -3.4141,-1.9648 -6.8008,-1.1289 -2.457,0.60547 -5.0117,1.3789 -7.0078,2.1328 -0.078,0.0273 -2.9102,1.1094 -6.7734,2.6562 l -0.5313,-1.7539 c 3.3867,-1.1133 6.668,-2.168 9.4648,-3.043 6.0234,-1.832 8.8711,-4.0898 8.6953,-6.8945 -0.09,-1.4297 -1.1172,-3.1172 -3.7266,-3.5625 -0.8633,-0.14453 -8.7656,-0.0664 -18.512,0.0977 l -1.49999,-4.9336 9.48439,-3.0078 c 6.0117,-1.8281 8.8633,-4.0859 8.6836,-6.8906 -0.09,-1.4297 -1.1172,-3.1172 -3.7266,-3.5625 -0.8633,-0.14453 -8.7656,-0.0664 -18.50799,0.0977 l -1.4883,-4.8828 c 4.1562,-1.3164 7.80859,-2.4922 9.52729,-3.0742 6.1719,-2.0977 8.8281,-4.2539 8.6094,-6.9805 -0.055,-0.67188 -0.4805,-2.9023 -3.707,-3.4531 -0.5,-0.0859 -3.3945,-0.0937 -7.6328,-0.0547 l -2.41799,-7.9453 c 5.69139,-1.8086 8.38279,-4.0156 8.21089,-6.7383 -0.09,-1.4297 -1.1172,-3.1172 -3.7266,-3.5625 -0.5,-0.0859 -3.39059,-0.0937 -7.63279,-0.0547 l -1.3594,-4.4688 c 0.33984,-0.12891 0.63672,-0.21875 0.84375,-0.21875 1.3594,0 2.7188,-3.0742 3.6406,-5.7461 1.87114,-1.2617 2.77344,-2.6641 2.67194,-4.25 -0.1055,-1.2539 -0.9219,-2.7148 -2.90624,-3.3438 z m -6.3242,-18.48 c -0.0312,-0.004 -0.0547,-0.0156 -0.0898,-0.0234 -0.0703,-0.0117 -0.20312,-0.0234 -0.37109,-0.0312 l -0.84766,-2.3164 c 0.004,0 0.46094,0.83594 1.3086,2.3711 z m -85.902,19.832 21.602,-28.199 20.75,-2.3984 2.0547,6.7539 c -5.4023,1.6875 -7.9023,3.4805 -8.3281,5.9766 -0.29688,1.7539 0.63672,3.1367 1.5273,3.7891 0.5,0.36719 1.1094,0.55859 1.7344,0.54687 2.5547,-0.0547 5.3047,-0.11328 8.1523,-0.17187 l 2.4844,8.1562 c -5.4023,1.6875 -7.9023,3.4805 -8.3281,5.9766 -0.29688,1.7539 0.63672,3.1367 1.5273,3.7891 0.5,0.36719 1.1094,0.55859 1.7344,0.54688 2.5508,-0.0547 5.3047,-0.11328 8.1523,-0.17188 l 2.4844,8.1562 c -5.4023,1.6836 -7.9062,3.4805 -8.3281,5.9766 -0.0781,0.46484 -0.0625,0.89844 0.008,1.3086 -8.2383,-2.1641 -29.406,-2.6289 -35.223,-2.6289 -6.6055,-0.008 -12.004,-17.406 -12.004,-17.406 z m 291.1771,189.52255 c 0,0.27422 -0.014,0.54844 -0.022,0.82802 -0.4732,16.4802 -4.8605,32.66308 -12.7751,47.12128 -0.3711,0.67747 -0.7688,1.33882 -1.156,2.00012 -0.3871,0.67209 -0.7689,1.34956 -1.1667,2.01621 -8.6135,14.07693 -20.4912,25.94327 -34.5612,34.5557 -0.2098,0.12898 -0.4141,0.2527 -0.6237,0.38175 -1.1292,0.68284 -2.2743,1.33343 -3.4304,1.9679 -0.4247,0.23659 -0.8549,0.46777 -1.285,0.69898 -1.0163,0.54304 -2.0379,1.06459 -3.0702,1.56997 -0.5592,0.27422 -1.1183,0.54305 -1.6776,0.80113 -0.9517,0.44628 -1.9087,0.87642 -2.8711,1.2958 -0.6453,0.27959 -1.2904,0.54305 -1.9356,0.80652 -0.9087,0.37099 -1.8227,0.73662 -2.7475,1.08073 -0.7045,0.26347 -1.4194,0.51617 -2.1292,0.76887 -0.8766,0.30648 -1.7582,0.61295 -2.6508,0.89791 -0.7635,0.24195 -1.527,0.47316 -2.3013,0.69898 -0.8549,0.2527 -1.7098,0.50003 -2.5647,0.72585 -0.8174,0.22045 -1.6399,0.41401 -2.4626,0.61295 -0.8174,0.19355 -1.6399,0.38712 -2.4626,0.56993 -0.8765,0.18819 -1.7528,0.35486 -2.6347,0.51617 -0.7796,0.14517 -1.5592,0.28496 -2.3442,0.414 -0.9302,0.15056 -1.8658,0.28497 -2.8013,0.41401 -0.7314,0.0968 -1.4625,0.19356 -2.2046,0.27958 -1.0055,0.11824 -2.0162,0.20969 -3.027,0.29572 -0.6561,0.0538 -1.3067,0.1075 -1.9572,0.15056 -1.1184,0.0699 -2.2314,0.1236 -3.3444,0.1613 -0.5215,0.0161 -1.0485,0.0322 -1.5699,0.0376 -1.2851,0.0215 -2.5648,0.0268 -3.8498,0 -0.2797,-0.006 -0.5593,-0.0161 -0.8442,-0.0215 -16.4637,-0.47316 -32.6424,-4.85514 -47.0896,-12.76435 -0.7904,-0.43552 -1.5646,-0.89791 -2.3443,-1.35494 -0.5591,-0.32261 -1.1237,-0.63983 -1.6776,-0.97319 -14.0769,-8.60816 -25.9432,-20.48015 -34.5557,-34.55157 -0.1398,-0.22582 -0.2742,-0.45165 -0.414,-0.67209 -0.6667,-1.10761 -1.3065,-2.23673 -1.9302,-3.37119 -0.2473,-0.45166 -0.4946,-0.9033 -0.7366,-1.36032 -0.5269,-0.98932 -1.0377,-1.98938 -1.527,-2.99487 -0.28499,-0.58607 -0.56996,-1.17751 -0.84417,-1.76351 -0.43014,-0.91942 -0.84953,-1.84416 -1.25279,-2.77973 -0.29035,-0.67747 -0.56993,-1.36032 -0.84953,-2.03783 -0.35486,-0.87641 -0.70435,-1.75277 -1.03772,-2.64003 -0.27958,-0.74736 -0.54843,-1.50005 -0.81188,-2.25283 -0.29571,-0.83339 -0.58069,-1.67761 -0.8549,-2.52165 -0.26346,-0.81726 -0.50541,-1.63453 -0.74198,-2.45172 -0.23659,-0.80114 -0.46778,-1.59696 -0.68284,-2.40342 -0.23121,-0.87641 -0.44628,-1.75276 -0.65596,-2.62929 -0.18281,-0.7635 -0.36025,-1.52166 -0.52692,-2.29054 -0.19894,-0.93556 -0.38175,-1.87114 -0.5538,-2.80671 -0.13448,-0.71511 -0.26347,-1.43564 -0.38175,-2.16144 -0.1613,-1.00007 -0.30647,-1.99474 -0.44089,-2.99487 -0.0914,-0.66672 -0.17743,-1.33343 -0.2527,-2.00548 -0.1236,-1.06997 -0.22582,-2.14533 -0.31184,-3.21525 -0.0485,-0.58606 -0.0914,-1.17751 -0.13448,-1.7635 -0.0753,-1.17751 -0.13448,-2.35496 -0.16668,-3.53251 -0.011,-0.45702 -0.0215,-0.91405 -0.0322,-1.37107 -0.0215,-1.34956 -0.0268,-2.6937 0,-4.04331 0.006,-0.20969 0.011,-0.42476 0.0161,-0.63446 0.45702,-16.51186 4.8444,-32.73879 12.78063,-47.22451 0.3763,-0.68285 0.7742,-1.34957 1.1667,-2.02173 0.3871,-0.66672 0.7581,-1.33881 1.1614,-2.00011 8.6135,-14.07693 20.4912,-25.94327 34.5612,-34.5557 0.2097,-0.12897 0.4194,-0.25809 0.6291,-0.38175 1.1237,-0.67747 2.2635,-1.32805 3.4142,-1.96253 0.4302,-0.23659 0.8711,-0.47316 1.3066,-0.70436 1.0055,-0.53767 2.0217,-1.05383 3.0432,-1.55387 0.57,-0.27958 1.1398,-0.5538 1.7152,-0.81726 0.9356,-0.44089 1.8819,-0.86567 2.8335,-1.27967 0.6614,-0.28497 1.3227,-0.55918 1.9894,-0.82802 0.8871,-0.36561 1.7798,-0.7151 2.683,-1.05922 0.7367,-0.27421 1.4732,-0.53766 2.2152,-0.79575 0.8496,-0.29571 1.6991,-0.58606 2.5594,-0.86566 0.8011,-0.25808 1.6077,-0.49467 2.4142,-0.73124 0.8118,-0.23658 1.6238,-0.47315 2.4409,-0.68822 0.8603,-0.2312 1.726,-0.44089 2.5916,-0.64521 0.7743,-0.1828 1.5485,-0.36561 2.3281,-0.53767 0.9249,-0.19893 1.8497,-0.37637 2.7744,-0.54843 0.7258,-0.13448 1.4571,-0.26883 2.1883,-0.38712 0.9894,-0.16131 1.984,-0.30648 2.9679,-0.43553 0.6721,-0.0914 1.3442,-0.17743 2.0162,-0.2527 1.0699,-0.1236 2.14,-0.22582 3.2152,-0.31184 0.5861,-0.0485 1.1722,-0.0914 1.7582,-0.13448 1.1775,-0.0753 2.3603,-0.13448 3.5432,-0.17206 0.4516,-0.011 0.9034,-0.0215 1.3604,-0.0322 1.3549,-0.0215 2.7044,-0.0322 4.054,0 0.2043,0.006 0.4141,0.011 0.6183,0.0161 16.5229,0.45702 32.7608,4.84977 47.2617,12.79668 0.57,0.31185 1.1291,0.6506 1.6937,0.97858 0.7743,0.44627 1.5593,0.88716 2.3281,1.34956 14.077,8.6189 25.9433,20.49667 34.5557,34.58323 0.1184,0.19357 0.2366,0.38174 0.3495,0.56993 0.6882,1.14524 1.355,2.30665 2.0001,3.48406 0.2205,0.40864 0.4409,0.81188 0.6614,1.22052 0.5538,1.03234 1.086,2.07541 1.597,3.12922 0.2634,0.53767 0.5215,1.08073 0.7742,1.62379 0.457,0.96781 0.8979,1.94107 1.3173,2.92495 0.2688,0.6237 0.5269,1.25279 0.785,1.88188 0.3818,0.93018 0.7474,1.86041 1.1022,2.80134 0.2581,0.68823 0.5001,1.38182 0.7474,2.07541 0.3118,0.89791 0.6237,1.79585 0.914,2.70444 0.242,0.74737 0.4625,1.50556 0.6828,2.2582 0.2528,0.86566 0.5055,1.7313 0.7421,2.60768 0.215,0.80652 0.414,1.61306 0.6022,2.41952 0.1989,0.8334 0.3978,1.66674 0.5753,2.50555 0.1828,0.86566 0.3495,1.73129 0.5107,2.59694 0.1506,0.79038 0.2904,1.58071 0.4248,2.37657 0.1506,0.92481 0.285,1.85504 0.4086,2.77973 0.096,0.73662 0.1989,1.47858 0.2796,2.21526 0.1129,1.00545 0.2098,2.01085 0.2904,3.01634 0.054,0.65596 0.1074,1.30655 0.1506,1.96791 0.07,1.11836 0.1239,2.23136 0.1558,3.34435 0.017,0.51617 0.033,1.04309 0.037,1.55924 0,1.25816 0.014,2.54863 -0.016,3.83368 z"
       id="path25301"
       style="fill:#ff0ec0;fill-opacity:1"
       sodipodi:nodetypes="cccccccccccccccccccccccccccccccccscccsscccccccsccccccssccccccccsssccscccccccccsccccccccccccccccccccccccccccccccccccccccccccscccccccccccccccccccccccccccccccccccccccccccccccccccccccccccccccccccccccccccccccccccccccccccscsccccccccccccccccscccccccccccccccccccccccccccccccccccccccccccccccccccccccccccccccccccccccccccccccccccccccccccccccccccccccccccccccccccccccccccccccccccccccccccccccccccscccccccccccccccccccccccccccccccccccsccccccccccccccccccccccccccccccccccccccccccccccccccccccccccccccsccccccccccsccccccccsscscccscccccccccccccccccccccccccccccccccccccccccccccccccccccccsccccsccccscccccccccccccccccccccscccccccccsccccccccccccccccccccccccsscccccccscccccccccccccccccccccccccccsccccccccccccccsccccccsccccccccccccccccc" />
    <path
       d="m 930.32,490.32 -0.22656,0.0703 c 0.0391,-0.0117 0.0781,-0.0234 0.11328,-0.0312 0.0391,-0.0156 0.0742,-0.0312 0.11328,-0.0391 z"
       id="path25303"
       style="fill:#ff0ec0;fill-opacity:1" />
  </g>
</svg>
