<?xml version="1.0" encoding="UTF-8" standalone="no"?>
<svg
   viewBox="0 0 512 512"
   style="height: 512px; width: 512px;"
   version="1.1"
   id="svg886"
   sodipodi:docname="zonda-silver.svg"
   inkscape:version="1.2.2 (b0a8486541, 2022-12-01)"
   xmlns:inkscape="http://www.inkscape.org/namespaces/inkscape"
   xmlns:sodipodi="http://sodipodi.sourceforge.net/DTD/sodipodi-0.dtd"
   xmlns="http://www.w3.org/2000/svg"
   xmlns:svg="http://www.w3.org/2000/svg">
  <sodipodi:namedview
     id="namedview888"
     pagecolor="#ffffff"
     bordercolor="#666666"
     borderopacity="1.0"
     inkscape:showpageshadow="2"
     inkscape:pageopacity="0.0"
     inkscape:pagecheckerboard="0"
     inkscape:deskcolor="#d1d1d1"
     showgrid="false"
     inkscape:zoom="1.3037281"
     inkscape:cx="192.5248"
     inkscape:cy="333.65852"
     inkscape:window-width="1716"
     inkscape:window-height="1386"
     inkscape:window-x="1440"
     inkscape:window-y="702"
     inkscape:window-maximized="1"
     inkscape:current-layer="svg886" />
  <defs
     id="defs878">
    <filter
       id="shadow-1"
       height="1.1517236"
       width="1.1517246"
       x="-0.075862315"
       y="-0.075861805">
      <feFlood
         flood-color="rgba(58, 63, 94, 1)"
         result="flood"
         id="feFlood867" />
      <feComposite
         in="flood"
         in2="SourceGraphic"
         operator="out"
         result="composite"
         id="feComposite869" />
      <feGaussianBlur
         in="composite"
         stdDeviation="15"
         result="blur"
         id="feGaussianBlur871" />
      <feOffset
         dx="0"
         dy="0"
         result="offset"
         id="feOffset873" />
      <feComposite
         in2="SourceGraphic"
         in="offset"
         operator="atop"
         id="feComposite875" />
    </filter>
    <filter
       style="color-interpolation-filters:sRGB;"
       inkscape:label="Drop Shadow"
       id="filter2672"
       x="-0.036508511"
       y="-0.030096649"
       width="1.073017"
       height="1.0601933">
      <feFlood
         flood-opacity="1"
         flood-color="rgb(58,63,94)"
         result="flood"
         id="feFlood2662" />
      <feComposite
         in="flood"
         in2="SourceGraphic"
         operator="out"
         result="composite1"
         id="feComposite2664" />
      <feGaussianBlur
         in="composite1"
         stdDeviation="15"
         result="blur"
         id="feGaussianBlur2666" />
      <feOffset
         dx="0"
         dy="0"
         result="offset"
         id="feOffset2668" />
      <feComposite
         in="offset"
         in2="SourceGraphic"
         operator="atop"
         result="composite2"
         id="feComposite2670" />
    </filter>
    <filter
       style="color-interpolation-filters:sRGB;"
       inkscape:label="Drop Shadow"
       id="filter3258"
       x="-0.033333307"
       y="-0.036846098"
       width="1.0666666"
       height="1.0736922">
      <feFlood
         flood-opacity="1"
         flood-color="rgb(58,63,94)"
         result="flood"
         id="feFlood3248" />
      <feComposite
         in="flood"
         in2="SourceGraphic"
         operator="out"
         result="composite1"
         id="feComposite3250" />
      <feGaussianBlur
         in="composite1"
         stdDeviation="15"
         result="blur"
         id="feGaussianBlur3252" />
      <feOffset
         dx="0"
         dy="0"
         result="offset"
         id="feOffset3254" />
      <feComposite
         in="offset"
         in2="SourceGraphic"
         operator="atop"
         result="composite2"
         id="feComposite3256" />
    </filter>
    <filter
       style="color-interpolation-filters:sRGB;"
       inkscape:label="Drop Shadow"
       id="filter4517"
       x="-0.04755843"
       y="-0.048809898"
       width="1.0951169"
       height="1.0976198">
      <feFlood
         flood-opacity="1"
         flood-color="rgb(58,63,94)"
         result="flood"
         id="feFlood4507" />
      <feComposite
         in="flood"
         in2="SourceGraphic"
         operator="out"
         result="composite1"
         id="feComposite4509" />
      <feGaussianBlur
         in="composite1"
         stdDeviation="10"
         result="blur"
         id="feGaussianBlur4511" />
      <feOffset
         dx="0"
         dy="0"
         result="offset"
         id="feOffset4513" />
      <feComposite
         in="offset"
         in2="SourceGraphic"
         operator="atop"
         result="composite2"
         id="feComposite4515" />
    </filter>
    <filter
       style="color-interpolation-filters:sRGB;"
       inkscape:label="Drop Shadow"
       id="filter5154"
       x="-0.073142173"
       y="-0.051090164"
       width="1.1462843"
       height="1.1021803">
      <feFlood
         flood-opacity="1"
         flood-color="rgb(58,63,94)"
         result="flood"
         id="feFlood5144" />
      <feComposite
         in="flood"
         in2="SourceGraphic"
         operator="out"
         result="composite1"
         id="feComposite5146" />
      <feGaussianBlur
         in="composite1"
         stdDeviation="10"
         result="blur"
         id="feGaussianBlur5148" />
      <feOffset
         dx="0"
         dy="0"
         result="offset"
         id="feOffset5150" />
      <feComposite
         in="offset"
         in2="SourceGraphic"
         operator="atop"
         result="composite2"
         id="feComposite5152" />
    </filter>
    <filter
       style="color-interpolation-filters:sRGB;"
       inkscape:label="Drop Shadow"
       id="filter5778"
       x="-0.050442997"
       y="-0.092707304"
       width="1.100886"
       height="1.1854146">
      <feFlood
         flood-opacity="1"
         flood-color="rgb(58,63,94)"
         result="flood"
         id="feFlood5768" />
      <feComposite
         in="flood"
         in2="SourceGraphic"
         operator="out"
         result="composite1"
         id="feComposite5770" />
      <feGaussianBlur
         in="composite1"
         stdDeviation="10"
         result="blur"
         id="feGaussianBlur5772" />
      <feOffset
         dx="0"
         dy="0"
         result="offset"
         id="feOffset5774" />
      <feComposite
         in="offset"
         in2="SourceGraphic"
         operator="atop"
         result="composite2"
         id="feComposite5776" />
    </filter>
    <clipPath
       id="a">
      <path
         d="M 222.14,222.14 H 977.85 V 977.85 H 222.14 Z"
         id="path6679" />
    </clipPath>
    <clipPath
       id="a-5">
      <path
         d="M 222.14,222.14 H 977.85 V 977.85 H 222.14 Z"
         id="path6679-3" />
    </clipPath>
    <filter
       style="color-interpolation-filters:sRGB;"
       inkscape:label="Drop Shadow"
       id="filter8128"
       x="-0.51199727"
       y="-0.25599863"
       width="2.0239945"
       height="1.5119973">
      <feFlood
         flood-opacity="1"
         flood-color="rgb(58,63,94)"
         result="flood"
         id="feFlood8118" />
      <feComposite
         in="flood"
         in2="SourceGraphic"
         operator="out"
         result="composite1"
         id="feComposite8120" />
      <feGaussianBlur
         in="composite1"
         stdDeviation="8"
         result="blur"
         id="feGaussianBlur8122" />
      <feOffset
         dx="0"
         dy="0"
         result="offset"
         id="feOffset8124" />
      <feComposite
         in="offset"
         in2="SourceGraphic"
         operator="atop"
         result="composite2"
         id="feComposite8126" />
    </filter>
    <filter
       style="color-interpolation-filters:sRGB;"
       inkscape:label="Drop Shadow"
       id="filter21595"
       x="-0.038264996"
       y="-0.082038655"
       width="1.07653"
       height="1.1640773">
      <feFlood
         flood-opacity="1"
         flood-color="rgb(58,63,94)"
         result="flood"
         id="feFlood21585" />
      <feComposite
         in="flood"
         in2="SourceGraphic"
         operator="out"
         result="composite1"
         id="feComposite21587" />
      <feGaussianBlur
         in="composite1"
         stdDeviation="15"
         result="blur"
         id="feGaussianBlur21589" />
      <feOffset
         dx="0"
         dy="0"
         result="offset"
         id="feOffset21591" />
      <feComposite
         in="offset"
         in2="SourceGraphic"
         operator="atop"
         result="composite2"
         id="feComposite21593" />
    </filter>
    <filter
       style="color-interpolation-filters:sRGB;"
       inkscape:label="Drop Shadow"
       id="filter22425"
       x="-0.049589307"
       y="-0.17253584"
       width="1.0991786"
       height="1.3450717">
      <feFlood
         flood-opacity="1"
         flood-color="rgb(58,63,94)"
         result="flood"
         id="feFlood22415" />
      <feComposite
         in="flood"
         in2="SourceGraphic"
         operator="out"
         result="composite1"
         id="feComposite22417" />
      <feGaussianBlur
         in="composite1"
         stdDeviation="10"
         result="blur"
         id="feGaussianBlur22419" />
      <feOffset
         dx="0"
         dy="0"
         result="offset"
         id="feOffset22421" />
      <feComposite
         in="offset"
         in2="SourceGraphic"
         operator="atop"
         result="composite2"
         id="feComposite22423" />
    </filter>
    <filter
       style="color-interpolation-filters:sRGB;"
       inkscape:label="Drop Shadow"
       id="filter23083"
       x="-0.020949753"
       y="-0.075512709"
       width="1.0418995"
       height="1.1510254">
      <feFlood
         flood-opacity="1"
         flood-color="rgb(58,63,94)"
         result="flood"
         id="feFlood23073" />
      <feComposite
         in="flood"
         in2="SourceGraphic"
         operator="out"
         result="composite1"
         id="feComposite23075" />
      <feGaussianBlur
         in="composite1"
         stdDeviation="10"
         result="blur"
         id="feGaussianBlur23077" />
      <feOffset
         dx="0"
         dy="0"
         result="offset"
         id="feOffset23079" />
      <feComposite
         in="offset"
         in2="SourceGraphic"
         operator="atop"
         result="composite2"
         id="feComposite23081" />
    </filter>
    <filter
       style="color-interpolation-filters:sRGB;"
       inkscape:label="Drop Shadow"
       id="filter23920"
       x="-0.031832381"
       y="-0.083470149"
       width="1.0636648"
       height="1.1669403">
      <feFlood
         flood-opacity="1"
         flood-color="rgb(58,63,94)"
         result="flood"
         id="feFlood23910" />
      <feComposite
         in="flood"
         in2="SourceGraphic"
         operator="out"
         result="composite1"
         id="feComposite23912" />
      <feGaussianBlur
         in="composite1"
         stdDeviation="15"
         result="blur"
         id="feGaussianBlur23914" />
      <feOffset
         dx="0"
         dy="0"
         result="offset"
         id="feOffset23916" />
      <feComposite
         in="offset"
         in2="SourceGraphic"
         operator="atop"
         result="composite2"
         id="feComposite23918" />
    </filter>
    <filter
       style="color-interpolation-filters:sRGB;"
       inkscape:label="Drop Shadow"
       id="filter25184"
       x="-0.055640592"
       y="-0.10045407"
       width="1.1112812"
       height="1.2009081">
      <feFlood
         flood-opacity="1"
         flood-color="rgb(58,63,94)"
         result="flood"
         id="feFlood25174" />
      <feComposite
         in="flood"
         in2="SourceGraphic"
         operator="out"
         result="composite1"
         id="feComposite25176" />
      <feGaussianBlur
         in="composite1"
         stdDeviation="5"
         result="blur"
         id="feGaussianBlur25178" />
      <feOffset
         dx="0"
         dy="0"
         result="offset"
         id="feOffset25180" />
      <feComposite
         in="offset"
         in2="SourceGraphic"
         operator="atop"
         result="composite2"
         id="feComposite25182" />
    </filter>
    <filter
       style="color-interpolation-filters:sRGB;"
       inkscape:label="Drop Shadow"
       id="filter25884"
       x="-0.026230522"
       y="-0.048319459"
       width="1.052461"
       height="1.0966389">
      <feFlood
         flood-opacity="1"
         flood-color="rgb(58,63,94)"
         result="flood"
         id="feFlood25874" />
      <feComposite
         in="flood"
         in2="SourceGraphic"
         operator="out"
         result="composite1"
         id="feComposite25876" />
      <feGaussianBlur
         in="composite1"
         stdDeviation="15"
         result="blur"
         id="feGaussianBlur25878" />
      <feOffset
         dx="0"
         dy="0"
         result="offset"
         id="feOffset25880" />
      <feComposite
         in="offset"
         in2="SourceGraphic"
         operator="atop"
         result="composite2"
         id="feComposite25882" />
    </filter>
    <filter
       style="color-interpolation-filters:sRGB;"
       inkscape:label="Drop Shadow"
       id="filter26006"
       x="-0.03497403"
       y="-0.064425946"
       width="1.0699481"
       height="1.1288519">
      <feFlood
         flood-opacity="1"
         flood-color="rgb(58,63,94)"
         result="flood"
         id="feFlood25996" />
      <feComposite
         in="flood"
         in2="SourceGraphic"
         operator="out"
         result="composite1"
         id="feComposite25998" />
      <feGaussianBlur
         in="composite1"
         stdDeviation="20"
         result="blur"
         id="feGaussianBlur26000" />
      <feOffset
         dx="0"
         dy="0"
         result="offset"
         id="feOffset26002" />
      <feComposite
         in="offset"
         in2="SourceGraphic"
         operator="atop"
         result="composite2"
         id="feComposite26004" />
    </filter>
    <filter
       style="color-interpolation-filters:sRGB;"
       inkscape:label="Drop Shadow"
       id="filter26884"
       x="-0.049167793"
       y="-0.0961647"
       width="1.0983356"
       height="1.1923294">
      <feFlood
         flood-opacity="1"
         flood-color="rgb(58,63,94)"
         result="flood"
         id="feFlood26874" />
      <feComposite
         in="flood"
         in2="SourceGraphic"
         operator="out"
         result="composite1"
         id="feComposite26876" />
      <feGaussianBlur
         in="composite1"
         stdDeviation="10"
         result="blur"
         id="feGaussianBlur26878" />
      <feOffset
         dx="0"
         dy="0"
         result="offset"
         id="feOffset26880" />
      <feComposite
         in="offset"
         in2="SourceGraphic"
         operator="atop"
         result="composite2"
         id="feComposite26882" />
    </filter>
    <filter
       style="color-interpolation-filters:sRGB;"
       inkscape:label="Drop Shadow"
       id="filter28331"
       x="-0.035714286"
       y="-0.062498937"
       width="1.0714286"
       height="1.1249979">
      <feFlood
         flood-opacity="1"
         flood-color="rgb(58,63,94)"
         result="flood"
         id="feFlood28321" />
      <feComposite
         in="flood"
         in2="SourceGraphic"
         operator="out"
         result="composite1"
         id="feComposite28323" />
      <feGaussianBlur
         in="composite1"
         stdDeviation="15"
         result="blur"
         id="feGaussianBlur28325" />
      <feOffset
         dx="0"
         dy="0"
         result="offset"
         id="feOffset28327" />
      <feComposite
         in="offset"
         in2="SourceGraphic"
         operator="atop"
         result="composite2"
         id="feComposite28329" />
    </filter>
  </defs>
  <path
     d="M 0.35858051,-0.2092161 H 512.35858 V 511.79078 H 0.35858051 Z"
     fill="#1b1f21"
     fill-opacity="0"
     id="path880" />
  <g
     clip-path="url(#a-5)"
     id="g6686"
     transform="matrix(0.51260194,0,0,0.51260194,-62.643019,-31.742847)"
     style="fill:#ffffff" />
  <g
     id="g27764"
     transform="matrix(0.47700417,0,0,0.47700417,-41.651461,-41.64836)"
     style="fill:#ff0ec0;fill-opacity:1;filter:url(#filter28331)">
    <path
       d="m 972,600 c -24,0 -48,6 -68.398,15.602 L 888,592.801 C 909.602,582 934.801,576 960,576 v -48 c -36,0 -70.801,9.6016 -100.8,25.199 l -19.199,-27.602 c 7.1992,1.1992 15.602,2.3984 22.801,2.3984 13.199,0 24,-26.398 24,-57.602 0,-32.398 -10.801,-57.602 -24,-57.602 -34.801,0 -64.801,14.398 -78,36 l -70.801,-102 c -4.8008,-6 -12,-10.801 -19.199,-10.801 h -72 c -13.199,0 -24,10.801 -24,24 0,13.199 10.801,24 24,24 h 60 l 33.602,48 c -117.6,1.207 -212.4,60.008 -212.4,132.01 0,7.1992 4.8008,12 12,12 h 132 c -13.199,0 -24,10.801 -24,24 h -12 c -7.1992,0 -12,4.8008 -12,12 0,7.1992 4.8008,12 12,12 h 12 v 24 h -12 c -7.1992,0 -12,4.8008 -12,12 0,7.1992 4.8008,12 12,12 h 12 v 24 c 0,13.199 10.801,24 24,24 v 12 c 0,7.1992 4.8008,12 12,12 h 24 c 7.1992,0 12,-4.8008 12,-12 v -12 c 13.199,0 24,-10.801 24,-24 v -24 h 12 c 1.1992,0 2.3984,0 3.6016,-1.1992 l -43.203,97.199 h -261.6 c 0,-3.6016 1.1992,-8.3984 1.1992,-12 0,-86.398 -69.602,-156 -156,-156 -86.398,0 -156,69.602 -156,156 0,86.398 69.602,156 156,156 64.801,0 120,-39.602 144,-96 h 288 c 9.6016,0 18,-6 21.602,-14.398 l 26.398,-57.602 h 36 c 0,-49.199 21.602,-93.602 55.199,-124.8 l 16.801,24 c -30,28.801 -48,68.398 -48,112.8 0,86.398 69.602,156 156,156 86.398,0 156,-69.602 156,-156 0,-86.398 -69.602,-156 -156,-156 z M 276,864 c -60,0 -108,-48 -108,-108 0,-60 48,-108 108,-108 60,0 108,48 108,108 0,3.6016 0,8.3984 -1.1992,12 h -48 C 336,764.3984 336,759.6016 336,756 c 0,-33.602 -26.398,-60 -60,-60 -33.602,0 -60,26.398 -60,60 0,3.6016 0,8.3984 1.1992,12 h -25.199 v 48 h 174 c -19.199,28.801 -52.801,48 -90,48 z M 708,456 c 26.398,0 48,21.602 48,48 0,26.398 -21.602,48 -48,48 -26.398,0 -48,-21.602 -48,-48 0,-26.398 21.602,-48 48,-48 z m 24,192 h -12 v -24 h 12 c 7.1992,0 12,-4.8008 12,-12 0,-7.1992 -4.8008,-12 -12,-12 h -12 c 0,-13.199 -10.801,-24 -24,-24 h 24 c 30,0 55.199,-18 66,-44.398 l 7.1992,10.801 -50.398,112.8 c -1.1992,-3.6016 -6,-7.2031 -10.801,-7.2031 z m 240,216 c -60,0 -108,-48 -108,-108 0,-27.602 10.801,-52.801 27.602,-72 l 28.801,40.801 c -4.8008,9.5977 -8.4023,19.199 -8.4023,31.199 0,33.602 26.398,60 60,60 33.602,0 60,-26.398 60,-60 0,-33.602 -26.398,-60 -60,-60 -3.6016,0 -8.3984,0 -12,1.1992 l -28.801,-40.801 c 12,-4.8008 26.398,-8.3984 40.801,-8.3984 60,0 108,48 108,108 0,60 -48,108 -108,108 z"
       id="path27754"
       style="fill:#ff0ec0;fill-opacity:1" />
    <path
       d="m 612,708 c 0,-33.602 -26.398,-60 -60,-60 -19.199,0 -37.199,9.6016 -48,24 h -36 c -20.398,0 -36,15.602 -36,36 0,20.398 15.602,36 36,36 h 36 c 10.801,14.398 27.602,24 48,24 33.602,0 60,-26.398 60,-60 z"
       id="path27756"
       style="fill:#ff0ec0;fill-opacity:1" />
    <path
       d="m 252,576 h 192 c 26.398,0 48,-21.602 48,-48 0,-26.398 -21.602,-48 -48,-48 H 252 c -26.398,0 -48,21.602 -48,48 0,26.398 21.602,48 48,48 z"
       id="path27758"
       style="fill:#ff0ec0;fill-opacity:1" />
    <path
       d="m 432,600 c -13.199,0 -24,10.801 -24,24 0,13.199 10.801,24 24,24 h 48 c 13.199,0 24,-10.801 24,-24 0,-13.199 -10.801,-24 -24,-24 z"
       id="path27760"
       style="fill:#ff0ec0;fill-opacity:1" />
    <path
       d="m 732,504 c 0,13.254 -10.746,24 -24,24 -13.254,0 -24,-10.746 -24,-24 0,-13.254 10.746,-24 24,-24 13.254,0 24,10.746 24,24"
       id="path27762"
       style="fill:#ff0ec0;fill-opacity:1" />
  </g>
</svg>
