<?xml version="1.0" encoding="UTF-8" standalone="no"?>
<svg
   width="512" height="512"
   viewBox="0 0 512 512"
   version="1.1"
   id="svg8"
   sodipodi:docname="armor.svg"
   inkscape:version="1.1.1 (3bf5ae0d25, 2021-09-20)"
   xmlns:inkscape="http://www.inkscape.org/namespaces/inkscape"
   xmlns:sodipodi="http://sodipodi.sourceforge.net/DTD/sodipodi-0.dtd"
   xmlns="http://www.w3.org/2000/svg"
   xmlns:svg="http://www.w3.org/2000/svg">
  <defs
     id="defs12">
    <filter
       style="color-interpolation-filters:sRGB;"
       inkscape:label="Drop Shadow"
       id="filter911"
       x="-0.16491982"
       y="-0.17251163"
       width="1.3211596"
       height="1.3359437">
      <feFlood
         flood-opacity="1"
         flood-color="rgb(58,63,94)"
         result="flood"
         id="feFlood901" />
      <feComposite
         in="flood"
         in2="SourceGraphic"
         operator="out"
         result="composite1"
         id="feComposite903" />
      <feGaussianBlur
         in="composite1"
         stdDeviation="15"
         result="blur"
         id="feGaussianBlur905" />
      <feOffset
         dx="0"
         dy="0"
         result="offset"
         id="feOffset907" />
      <feComposite
         in="offset"
         in2="SourceGraphic"
         operator="atop"
         result="composite2"
         id="feComposite909" />
    </filter>
    <filter
       style="color-interpolation-filters:sRGB;"
       inkscape:label="Drop Shadow"
       id="filter937"
       x="-0.064485908"
       y="-0.067454412"
       width="1.1289718"
       height="1.1349088">
      <feFlood
         flood-opacity="1"
         flood-color="rgb(58,63,94)"
         result="flood"
         id="feFlood927" />
      <feComposite
         in="flood"
         in2="SourceGraphic"
         operator="out"
         result="composite1"
         id="feComposite929" />
      <feGaussianBlur
         in="composite1"
         stdDeviation="12.3821"
         result="blur"
         id="feGaussianBlur931" />
      <feOffset
         dx="0"
         dy="0"
         result="offset"
         id="feOffset933" />
      <feComposite
         in="offset"
         in2="SourceGraphic"
         operator="atop"
         result="composite2"
         id="feComposite935" />
    </filter>
  </defs>
  <sodipodi:namedview
     id="namedview10"
     pagecolor="#505050"
     bordercolor="#eeeeee"
     borderopacity="1"
     inkscape:pageshadow="0"
     inkscape:pageopacity="0"
     inkscape:pagecheckerboard="0"
     showgrid="false"
     inkscape:zoom="1.7050781"
     inkscape:cx="256"
     inkscape:cy="256"
     inkscape:window-width="1716"
     inkscape:window-height="1414"
     inkscape:window-x="3160"
     inkscape:window-y="587"
     inkscape:window-maximized="1"
     inkscape:current-layer="svg8" />
  <path
     d="M0 0h512v512H0z"
     fill="#b90202"
     fill-opacity="1"
     id="path2"
     style="fill:#1b1f21;fill-opacity:0" />
  <g
     class=""
     style="fill:#ff0ec0;fill-opacity:1;filter:url(#filter937)"
     transform="translate(0,0)"
     id="g6">
    <path
       d="M162 35.75l-94.49 27.1c-12.05 6.3-23.47 23.9-31.01 46.35-6.07 18.2-9.62 38.9-10.93 58.3L136.7 112zm188 .1L375.4 112l111 55.6c-1.3-19.3-4.9-40.2-10.9-58.3-5.7-17.05-13.6-31.35-22.5-40.05-2.7-2.8-5.5-4.9-8.4-6.4zm-172.9 11.5l-25.7 77.45-92.9 46.4 14.08 53.5 88.82 44.4 94.6-15.9 94.6 15.9 88.8-44.4 14.1-53.5-92.8-46.4-25.8-77.35h-10.5l-59.3 73.95-.1 61.1h-18.1l.1-61-59.3-74.15zM78.65 247.7l22.05 83.9 146.2-43.8v-14.7l-88.4 14.7zm354.75 0l-80 40.1-88.4-14.7v14.7l146.3 43.8zm-186.5 58.7l-31.6 9.6-35.1 70.2 66.7-33.3zm18.1 0v46.5l66.9 33.4-35.2-70.3zM191.7 323l-86.4 26 25.3 96.3zm128.6.1l61.1 122.1 25.3-96.2zm-55.3 50l.1 43.2 100.7 37.8-20.4-40.8zm-18.1 0l-80.2 40.1-20.5 40.9L247 416.3zm.1 62.4l-81.6 30.6 81.6 10.2zm18.1 0v40.7l81.7-10.2z"
       fill="#ffffff"
       fill-opacity="1"
       stroke="#ffffff"
       stroke-opacity="1"
       stroke-width="0"
       id="path4"
       style="fill:#ff0ec0;fill-opacity:1" />
  </g>
</svg>
