<?xml version="1.0" encoding="UTF-8" standalone="no"?>
<svg
   width="512" height="512"
   viewBox="0 0 512 512"
   version="1.1"
   id="svg8"
   sodipodi:docname="deckkrash.svg"
   inkscape:version="1.1.1 (3bf5ae0d25, 2021-09-20)"
   xmlns:inkscape="http://www.inkscape.org/namespaces/inkscape"
   xmlns:sodipodi="http://sodipodi.sourceforge.net/DTD/sodipodi-0.dtd"
   xmlns="http://www.w3.org/2000/svg"
   xmlns:svg="http://www.w3.org/2000/svg">
  <defs
     id="defs12">
    <filter
       style="color-interpolation-filters:sRGB;"
       inkscape:label="Drop Shadow"
       id="filter875"
       x="-0.15923599"
       y="-0.17679239"
       width="1.3100911"
       height="1.3442799">
      <feFlood
         flood-opacity="1"
         flood-color="rgb(58,63,94)"
         result="flood"
         id="feFlood865" />
      <feComposite
         in="flood"
         in2="SourceGraphic"
         operator="out"
         result="composite1"
         id="feComposite867" />
      <feGaussianBlur
         in="composite1"
         stdDeviation="15"
         result="blur"
         id="feGaussianBlur869" />
      <feOffset
         dx="0"
         dy="0"
         result="offset"
         id="feOffset871" />
      <feComposite
         in="offset"
         in2="SourceGraphic"
         operator="atop"
         result="composite2"
         id="feComposite873" />
    </filter>
    <filter
       style="color-interpolation-filters:sRGB;"
       inkscape:label="Drop Shadow"
       id="filter937"
       x="-0.06226345"
       y="-0.069128244"
       width="1.1245269"
       height="1.1382565">
      <feFlood
         flood-opacity="1"
         flood-color="rgb(58,63,94)"
         result="flood"
         id="feFlood927" />
      <feComposite
         in="flood"
         in2="SourceGraphic"
         operator="out"
         result="composite1"
         id="feComposite929" />
      <feGaussianBlur
         in="composite1"
         stdDeviation="12.3821"
         result="blur"
         id="feGaussianBlur931" />
      <feOffset
         dx="0"
         dy="0"
         result="offset"
         id="feOffset933" />
      <feComposite
         in="offset"
         in2="SourceGraphic"
         operator="atop"
         result="composite2"
         id="feComposite935" />
    </filter>
  </defs>
  <sodipodi:namedview
     id="namedview10"
     pagecolor="#505050"
     bordercolor="#eeeeee"
     borderopacity="1"
     inkscape:pageshadow="0"
     inkscape:pageopacity="0"
     inkscape:pagecheckerboard="0"
     showgrid="false"
     inkscape:zoom="1.7050781"
     inkscape:cx="256"
     inkscape:cy="256"
     inkscape:window-width="1716"
     inkscape:window-height="1414"
     inkscape:window-x="3160"
     inkscape:window-y="587"
     inkscape:window-maximized="1"
     inkscape:current-layer="svg8" />
  <path
     d="M0 0h512v512H0z"
     fill="#b90202"
     fill-opacity="1"
     id="path2"
     style="fill:#1b1f21;fill-opacity:0" />
  <g
     class=""
     style="fill:#ff0ec0;fill-opacity:1;filter:url(#filter937)"
     transform="translate(-1.267648,-24.077965)"
     id="g6">
    <path
       d="m 280,67.77 c -2.8,2.78 -4.1,9.46 -0.7,20.04 3.4,10.59 11.3,23.59 22.8,35.39 11.5,11.7 24.3,19.9 34.9,23.5 10.5,3.7 17.2,2.4 20,-0.3 2.8,-2.8 4.2,-9.5 0.8,-20.1 C 354.4,115.7 346.5,102.7 335,90.98 323.4,79.22 310.6,71.04 300.1,67.41 c -6.2,-1.5 -15,-4.44 -20.1,0.36 z m 89.1,-1.84 c -4,0 -6.9,1.05 -8.5,2.62 -2.8,2.78 -4.1,9.45 -0.7,20.04 3.4,10.58 11.3,23.61 22.8,35.31 11.5,11.8 24.3,20 34.9,23.6 10.5,3.6 17.2,2.4 20,-0.4 2.8,-2.7 4.2,-9.4 0.8,-20 C 435,116.5 427.1,103.5 415.6,91.75 404,79.99 391.2,71.81 380.7,68.19 376.1,66.6 372.2,65.94 369.1,65.93 Z M 260.4,86.97 229.2,117.6 c 5.8,17.4 13.4,32.7 24.2,44.8 12.8,14.5 29.9,24.9 55.1,29.7 l 1.5,0.3 27.4,-26.8 c -2.1,-0.5 -4.2,-1.1 -6.3,-1.9 -14,-4.8 -28.7,-14.4 -41.9,-27.9 -13.2,-13.5 -22.5,-28.4 -27.1,-42.48 -0.7,-2.18 -1.2,-4.44 -1.7,-6.35 z M 202.1,144.1 81.3,262.4 c 5.7,16.5 13.2,31.1 23.5,42.7 12.8,14.5 29.9,24.9 55.1,29.7 l 4,0.7 118,-115.6 c -37,-11.4 -63,-38.6 -79.8,-75.8 z m 180,13.8 c -4,0 -6.9,1 -8.5,2.6 -2.8,2.8 -4.1,9.5 -0.7,20 3.4,10.6 11.3,23.6 22.8,35.4 11.5,11.8 24.3,19.9 34.9,23.6 10.5,3.6 17.2,2.4 20,-0.4 0.7,-0.7 1.3,-1.6 1.8,-2.8 13.2,11.3 24.3,26.2 25.3,35.8 1.3,11.7 -3.5,21.7 -12.8,32.4 -9.4,10.7 -23.2,21.2 -37.4,32 -14.1,10.7 -28.5,21.6 -39.3,34.4 -10.7,12.9 -17.9,28.7 -14.7,46.4 2.9,15.6 11.3,31.8 25.1,42.9 13.7,11.2 33.4,16.8 55.1,9.7 l 8.6,-2.8 -5.6,-17.1 -8.6,2.8 c -16.3,5.3 -28.4,1.5 -38.2,-6.5 -9.8,-8 -16.6,-20.9 -18.6,-32.2 -2.1,-11.6 1.9,-21.1 10.7,-31.6 8.9,-10.5 22.4,-21 36.4,-31.7 14.1,-10.7 28.8,-21.7 40,-34.5 11.2,-12.7 19.2,-28.3 17.2,-46.1 -2.2,-20.4 -18.9,-37.8 -35.6,-51 -4,-3.2 -8.1,-6.1 -12.1,-8.6 -4.2,-8.6 -10.7,-18.1 -19.3,-26.9 -11.6,-11.8 -24.4,-19.9 -34.9,-23.6 -4.6,-1.5 -8.5,-2.2 -11.6,-2.2 z m -28.1,21.8 -27.3,26.8 0.2,1.5 c 4.2,25.3 14.3,42.7 28.5,55.8 11.9,11 27.1,19 44.3,25.1 L 431,258.3 c -2.1,-0.5 -4.2,-1.1 -6.3,-1.8 -14,-4.8 -28.7,-14.5 -41.9,-28 -13.2,-13.5 -22.5,-28.4 -27.1,-42.4 -0.7,-2.2 -1.2,-4.3 -1.7,-6.4 z m -55.4,54.3 -118.1,115.6 0.7,4 c 4.1,25.3 14.2,42.6 28.5,55.7 11.4,10.6 25.7,18.4 42.2,24.4 l 120,-117.5 C 335.1,298.4 308.8,271.6 298.6,234 Z M 55.68,287.5 c -11.64,9 -23.69,22.4 -34.25,33.5 -2.84,2.8 -4.19,9.5 -0.79,20.1 3.41,10.6 11.32,23.6 22.83,35.3 11.52,11.8 24.36,20 34.87,23.6 10.51,3.6 17.21,2.4 20.04,-0.4 C 111.1,387.3 124.1,374.5 135,363.8 98.12,352.2 72.35,324.9 55.68,287.5 Z m 95.12,91.2 c -12.2,11.4 -20.2,19.3 -35.8,35.1 -2.8,2.8 -4.2,9.4 -0.8,20 3.4,10.6 11.3,23.6 22.8,35.4 11.6,11.7 24.4,19.9 34.9,23.5 10.5,3.7 17.2,2.5 20.1,-0.3 11.3,-10.6 21.6,-21.2 32.4,-31.8 -36.8,-17.8 -63.2,-44.5 -73.6,-81.9 z"
       fill="#ffffff"
       fill-opacity="1"
       stroke="#ffffff"
       stroke-opacity="1"
       stroke-width="0"
       id="path4"
       style="fill:#ff0ec0;fill-opacity:1" />
  </g>
</svg>
