<?xml version="1.0" encoding="UTF-8" standalone="no"?>
<svg
   width="512" height="512"
   viewBox="0 0 512 512"
   version="1.1"
   id="svg8"
   sodipodi:docname="efreet.svg"
   inkscape:version="1.1.1 (3bf5ae0d25, 2021-09-20)"
   xmlns:inkscape="http://www.inkscape.org/namespaces/inkscape"
   xmlns:sodipodi="http://sodipodi.sourceforge.net/DTD/sodipodi-0.dtd"
   xmlns="http://www.w3.org/2000/svg"
   xmlns:svg="http://www.w3.org/2000/svg">
  <defs
     id="defs12">
    <filter
       style="color-interpolation-filters:sRGB;"
       inkscape:label="Drop Shadow"
       id="filter893"
       x="-0.16242504"
       y="-0.16119449"
       width="1.3163014"
       height="1.3139051">
      <feFlood
         flood-opacity="1"
         flood-color="rgb(58,63,94)"
         result="flood"
         id="feFlood883" />
      <feComposite
         in="flood"
         in2="SourceGraphic"
         operator="out"
         result="composite1"
         id="feComposite885" />
      <feGaussianBlur
         in="composite1"
         stdDeviation="15"
         result="blur"
         id="feGaussianBlur887" />
      <feOffset
         dx="0"
         dy="0"
         result="offset"
         id="feOffset889" />
      <feComposite
         in="offset"
         in2="SourceGraphic"
         operator="atop"
         result="composite2"
         id="feComposite891" />
    </filter>
    <filter
       style="color-interpolation-filters:sRGB;"
       inkscape:label="Drop Shadow"
       id="filter937"
       x="-0.063510413"
       y="-0.063029252"
       width="1.1270208"
       height="1.1260585">
      <feFlood
         flood-opacity="1"
         flood-color="rgb(58,63,94)"
         result="flood"
         id="feFlood927" />
      <feComposite
         in="flood"
         in2="SourceGraphic"
         operator="out"
         result="composite1"
         id="feComposite929" />
      <feGaussianBlur
         in="composite1"
         stdDeviation="12.3821"
         result="blur"
         id="feGaussianBlur931" />
      <feOffset
         dx="0"
         dy="0"
         result="offset"
         id="feOffset933" />
      <feComposite
         in="offset"
         in2="SourceGraphic"
         operator="atop"
         result="composite2"
         id="feComposite935" />
    </filter>
  </defs>
  <sodipodi:namedview
     id="namedview10"
     pagecolor="#505050"
     bordercolor="#eeeeee"
     borderopacity="1"
     inkscape:pageshadow="0"
     inkscape:pageopacity="0"
     inkscape:pagecheckerboard="0"
     showgrid="false"
     inkscape:zoom="1.7050781"
     inkscape:cx="256"
     inkscape:cy="256"
     inkscape:window-width="1716"
     inkscape:window-height="1414"
     inkscape:window-x="3160"
     inkscape:window-y="587"
     inkscape:window-maximized="1"
     inkscape:current-layer="svg8" />
  <path
     d="M0 0h512v512H0z"
     fill="#b90202"
     fill-opacity="1"
     id="path2"
     style="fill:#1b1f21;fill-opacity:0" />
  <g
     class=""
     style="fill:#ff0ec0;fill-opacity:1;filter:url(#filter937)"
     transform="translate(0,0)"
     id="g6">
    <path
       d="M132.28 19.97C94.364 19.96 56.6 26.472 24.03 40.343c106.356-16.32 188.315 27.415 200.814 96.406 5.418 29.904-37.63 51.288-71.25 77.813 2.465-13.414 7.356-25.622 11.344-38.282-14.197 14.1-26.88 28.942-35.157 45.97-6.432-20.1-10.023-40.21-14.718-60.313-5.76 38.48-8.168 76.96.938 115.438.12 1.223.256 2.468.47 3.72C127.3 344.73 183.5 404.46 244.155 443.436c-20.684-4.097-39.713-10.91-59.312-16.78 22.393 16.586 45.716 31.66 71.78 42.25-18.617-.14-36.953-.982-55.468-1.376 56.55 16.237 114.847 28.187 180.313 22.47 38.163-.738 66.84-15.306 85.405-35.813l-5.938-16.343-52.53 23.125-15.594 6.874L395.406 451l2.906-19-56.062 22-20.875 8.22 8.906-20.595 10.845-25.156c-14.48 2.333-31.098 3.21-48.47.5-24.806-3.875-50.92-15.12-71.217-38.908 27.48 16.855 59.18 22.11 89.343 21.844.043.002.085 0 .126 0 16.346.51 31.756-2 43.375-5.28l18.908-5.345-7.782 18.033-9.094 21.093 50.282-19.75 15.125-5.906-2.47 16.03-2.78 18.22 46.06-20.28 9.126-4 3.438 9.374 4.97 13.687c9.516-17.186 13.383-36.418 11.342-54.53l-29.78 4.063 20.155-33.938c-6.063-10.564-14.867-19.773-26.5-26.656-.063-.04-.122-.09-.186-.126-32.735-23.455-69.573-31.572-107.438-35.875l18.78 17.874c-33.723-5.47-67.613-18.598-65.123-42.03-9.323 15.147-2.238 32.477 11.625 47.967-31.926-8.398-41.564-31.427-32.907-63.217 5.64-20.712 25.924-32.85 41.97-49.25l.03-.032c29.778-25.73 46.797-58.807 60.564-93.78-7.622 8.132-14.89 16.433-22.625 24.5 5.763-36.61-1.635-71.36-12.72-105.594-2.794 21.978-3.924 43.714-10.47 66.22C328.8 74.173 315.744 59.227 301.126 45c5.094 13.018 11.25 25.574 13.688 39.78-38.447-41.365-110.748-64.8-182.532-64.81zm248.626 322.81l57 43.47-49.125-3.438-7.874-40.03z"
       fill="#ffffff"
       fill-opacity="1"
       stroke="#ffffff"
       stroke-opacity="1"
       stroke-width="0"
       id="path4"
       style="fill:#ff0ec0;fill-opacity:1" />
  </g>
</svg>
