<?xml version="1.0" encoding="UTF-8" standalone="no"?>
<svg
   width="512" height="512"
   viewBox="0 0 512 512"
   version="1.1"
   id="svg8"
   sodipodi:docname="eraser.svg"
   inkscape:version="1.1.1 (3bf5ae0d25, 2021-09-20)"
   xmlns:inkscape="http://www.inkscape.org/namespaces/inkscape"
   xmlns:sodipodi="http://sodipodi.sourceforge.net/DTD/sodipodi-0.dtd"
   xmlns="http://www.w3.org/2000/svg"
   xmlns:svg="http://www.w3.org/2000/svg">
  <defs
     id="defs12">
    <filter
       style="color-interpolation-filters:sRGB;"
       inkscape:label="Drop Shadow"
       id="filter875"
       x="-0.17923838"
       y="-0.16301721"
       width="1.3490432"
       height="1.3174546">
      <feFlood
         flood-opacity="1"
         flood-color="rgb(58,63,94)"
         result="flood"
         id="feFlood865" />
      <feComposite
         in="flood"
         in2="SourceGraphic"
         operator="out"
         result="composite1"
         id="feComposite867" />
      <feGaussianBlur
         in="composite1"
         stdDeviation="15"
         result="blur"
         id="feGaussianBlur869" />
      <feOffset
         dx="0"
         dy="0"
         result="offset"
         id="feOffset871" />
      <feComposite
         in="offset"
         in2="SourceGraphic"
         operator="atop"
         result="composite2"
         id="feComposite873" />
    </filter>
    <filter
       style="color-interpolation-filters:sRGB;"
       inkscape:label="Drop Shadow"
       id="filter937"
       x="-0.070084662"
       y="-0.06374196"
       width="1.1401693"
       height="1.1274839">
      <feFlood
         flood-opacity="1"
         flood-color="rgb(58,63,94)"
         result="flood"
         id="feFlood927" />
      <feComposite
         in="flood"
         in2="SourceGraphic"
         operator="out"
         result="composite1"
         id="feComposite929" />
      <feGaussianBlur
         in="composite1"
         stdDeviation="12.3821"
         result="blur"
         id="feGaussianBlur931" />
      <feOffset
         dx="0"
         dy="0"
         result="offset"
         id="feOffset933" />
      <feComposite
         in="offset"
         in2="SourceGraphic"
         operator="atop"
         result="composite2"
         id="feComposite935" />
    </filter>
  </defs>
  <sodipodi:namedview
     id="namedview10"
     pagecolor="#505050"
     bordercolor="#eeeeee"
     borderopacity="1"
     inkscape:pageshadow="0"
     inkscape:pageopacity="0"
     inkscape:pagecheckerboard="0"
     showgrid="false"
     inkscape:zoom="1.7050781"
     inkscape:cx="256"
     inkscape:cy="256"
     inkscape:window-width="1716"
     inkscape:window-height="1414"
     inkscape:window-x="3160"
     inkscape:window-y="587"
     inkscape:window-maximized="1"
     inkscape:current-layer="svg8" />
  <path
     d="M0 0h512v512H0z"
     fill="#b90202"
     fill-opacity="1"
     id="path2"
     style="fill:#1b1f21;fill-opacity:0" />
  <g
     class=""
     transform="translate(12.991849,7.8957882)"
     id="g6"
     style="filter:url(#filter937)">
    <path
       d="m 248,15 c -18.1,0 -33,14.88 -33,33 0,18.12 14.9,33 33,33 18.1,0 33,-14.88 33,-33 0,-18.12 -14.9,-33 -33,-33 z m 0,18 c 8.4,0 15,6.61 15,15 0,8.39 -6.6,15 -15,15 -8.4,0 -15,-6.61 -15,-15 0,-8.39 6.6,-15 15,-15 z M 64,73 c -18.12,0 -33,14.88 -33,33 0,18.1 14.88,33 33,33 18.12,0 33,-14.9 33,-33 C 97,87.88 82.12,73 64,73 Z m 0,18 c 8.39,0 15,6.61 15,15 0,8.4 -6.61,15 -15,15 -8.39,0 -15,-6.6 -15,-15 0,-8.39 6.61,-15 15,-15 z m 155.9,39.7 c -22.5,0 -41,18.5 -41,41 0,22.5 18.5,41 41,41 22.5,0 41,-18.5 41,-41 0,-22.5 -18.5,-41 -41,-41 z m 0,18 c 12.8,0 23,10.2 23,23 0,12.8 -10.2,23 -23,23 -12.8,0 -23,-10.2 -23,-23 0,-12.8 10.2,-23 23,-23 z M 112,162 a 16,16 0 0 0 -16,16 16,16 0 0 0 16,16 16,16 0 0 0 16,-16 16,16 0 0 0 -16,-16 z m 223,61.4 c -5,0.2 -10.6,2.4 -20,7.1 l -98.1,49.1 c 0.1,0.8 0.1,1.6 0.1,2.4 0,27 -22,49 -49,49 -11.9,0 -22.7,-4.2 -31.2,-11.3 l -23.4,11.7 c -8.2,4.8 -14.26,8.3 -18.01,12.9 -3.78,4.7 -6.39,11 -6.39,24.4 v 43.1 c 0,10.4 0.59,14.7 1.18,15.7 0.6,1.1 3,3 11.52,7.4 l 78.7,39.4 0.3,0.1 c 16.3,9.7 36.8,8.8 56.7,-1.2 l 199.3,-98.9 c 9.5,-5.3 13.6,-9.1 15.6,-12.7 2,-3.7 2.7,-8.7 2.7,-18.1 v -38.6 c 0,-12.7 0.2,-19.8 -0.8,-22.4 -0.9,-2.7 -2.5,-4.6 -12.3,-9.4 V 273 l -84.8,-42.4 -0.1,-0.1 c -10.9,-5.7 -16.9,-7.3 -22,-7.1 z M 168,251 c -17.2,0 -31,13.8 -31,31 0,17.2 13.8,31 31,31 17.2,0 31,-13.8 31,-31 0,-17.2 -13.8,-31 -31,-31 z m 246.8,34.5 7.8,16.2 -154,73.8 h -0.1 c -17,7.8 -30.3,14.9 -45.3,17.6 -14.9,2.6 -30.8,-0.4 -49.6,-11 l 0.4,0.3 -43.5,-21.4 8,-16.2 43.7,21.5 0.2,0.2 c 16.6,9.3 26.8,10.7 37.8,8.8 10.9,-1.9 23.3,-8.2 40.8,-16.2 z"
       fill="#ffffff"
       fill-opacity="1"
       stroke="#ffffff"
       stroke-opacity="1"
       stroke-width="0"
       id="path4"
       style="fill:#ff0ec0;fill-opacity:1" />
  </g>
</svg>
