<?xml version="1.0" encoding="UTF-8" standalone="no"?>
<svg
   width="512" height="512"
   viewBox="0 0 512 512"
   version="1.1"
   id="svg8"
   sodipodi:docname="hellbolt.svg"
   inkscape:version="1.1.1 (3bf5ae0d25, 2021-09-20)"
   xmlns:inkscape="http://www.inkscape.org/namespaces/inkscape"
   xmlns:sodipodi="http://sodipodi.sourceforge.net/DTD/sodipodi-0.dtd"
   xmlns="http://www.w3.org/2000/svg"
   xmlns:svg="http://www.w3.org/2000/svg">
  <defs
     id="defs12">
    <filter
       style="color-interpolation-filters:sRGB;"
       inkscape:label="Drop Shadow"
       id="filter875"
       x="-0.15895565"
       y="-0.16092195"
       width="1.3095452"
       height="1.3133743">
      <feFlood
         flood-opacity="1"
         flood-color="rgb(58,63,94)"
         result="flood"
         id="feFlood865" />
      <feComposite
         in="flood"
         in2="SourceGraphic"
         operator="out"
         result="composite1"
         id="feComposite867" />
      <feGaussianBlur
         in="composite1"
         stdDeviation="15"
         result="blur"
         id="feGaussianBlur869" />
      <feOffset
         dx="0"
         dy="0"
         result="offset"
         id="feOffset871" />
      <feComposite
         in="offset"
         in2="SourceGraphic"
         operator="atop"
         result="composite2"
         id="feComposite873" />
    </filter>
    <filter
       style="color-interpolation-filters:sRGB;"
       inkscape:label="Drop Shadow"
       id="filter937"
       x="-0.062153837"
       y="-0.062922685"
       width="1.1243077"
       height="1.1258454">
      <feFlood
         flood-opacity="1"
         flood-color="rgb(58,63,94)"
         result="flood"
         id="feFlood927" />
      <feComposite
         in="flood"
         in2="SourceGraphic"
         operator="out"
         result="composite1"
         id="feComposite929" />
      <feGaussianBlur
         in="composite1"
         stdDeviation="12.3821"
         result="blur"
         id="feGaussianBlur931" />
      <feOffset
         dx="0"
         dy="0"
         result="offset"
         id="feOffset933" />
      <feComposite
         in="offset"
         in2="SourceGraphic"
         operator="atop"
         result="composite2"
         id="feComposite935" />
    </filter>
  </defs>
  <sodipodi:namedview
     id="namedview10"
     pagecolor="#505050"
     bordercolor="#eeeeee"
     borderopacity="1"
     inkscape:pageshadow="0"
     inkscape:pageopacity="0"
     inkscape:pagecheckerboard="0"
     showgrid="false"
     inkscape:zoom="1.7050781"
     inkscape:cx="256"
     inkscape:cy="256"
     inkscape:window-width="1716"
     inkscape:window-height="1414"
     inkscape:window-x="3160"
     inkscape:window-y="587"
     inkscape:window-maximized="1"
     inkscape:current-layer="svg8" />
  <path
     d="M0 0h512v512H0z"
     fill="#b90202"
     fill-opacity="1"
     id="path2"
     style="fill:#1b1f21;fill-opacity:0" />
  <g
     class=""
     style="fill:#ff0ec0;fill-opacity:1;filter:url(#filter937)"
     transform="translate(0,0)"
     id="g6">
    <path
       d="M12.195 20.94v39.128c76.452 73.026 151.387 152.574 187.47 215.5 12.6 21.978 38.114 72.972 49.056 118.557-31.424-3.388-64.762-14.633-96.36-33.873 11.605 19.025 25.57 37.838 42.632 54.898 83.895 83.897 200.548 103.142 260.473 43.217 59.927-59.927 40.678-176.574-43.22-260.47-17.062-17.063-35.872-31.028-54.895-42.633 21.316 35.01 33.27 71.947 35.04 106.29-47.3-13.436-103.76-38.565-127.316-51.976C201.59 173.434 121.32 98.073 47.818 20.938H12.195zM374.89 285.866c47.63 0 86.557 36.296 90.727 82.817-12.225-22.7-36.207-38.133-63.797-38.133-39.995 0-72.42 32.423-72.42 72.42 0 5.462.61 10.78 1.758 15.897 2.835-21.18 21.098-37.674 43.018-37.674 23.866 0 43.414 19.55 43.414 43.414 0 23.866-19.548 43.413-43.414 43.413-1.59 0-3.157-.093-4.703-.262.114.057.225.12.34.176-48.052-2.623-86.028-42.24-86.028-90.96 0-50.428 40.677-91.107 91.104-91.107z"
       fill="#ffffff"
       fill-opacity="1"
       stroke="#ffffff"
       stroke-opacity="1"
       stroke-width="0"
       id="path4"
       style="fill:#ff0ec0;fill-opacity:1" />
  </g>
</svg>
