<?xml version="1.0" encoding="UTF-8" standalone="no"?>
<svg
   width="512" height="512"
   viewBox="0 0 512 512"
   version="1.1"
   id="svg8"
   sodipodi:docname="speedy_gonzalvez.svg"
   inkscape:version="1.1.1 (3bf5ae0d25, 2021-09-20)"
   xmlns:inkscape="http://www.inkscape.org/namespaces/inkscape"
   xmlns:sodipodi="http://sodipodi.sourceforge.net/DTD/sodipodi-0.dtd"
   xmlns="http://www.w3.org/2000/svg"
   xmlns:svg="http://www.w3.org/2000/svg">
  <defs
     id="defs12">
    <filter
       style="color-interpolation-filters:sRGB;"
       inkscape:label="Drop Shadow"
       id="filter875"
       x="-0.16118884"
       y="-0.19692303"
       width="1.3138941"
       height="1.3834817">
      <feFlood
         flood-opacity="1"
         flood-color="rgb(58,63,94)"
         result="flood"
         id="feFlood865" />
      <feComposite
         in="flood"
         in2="SourceGraphic"
         operator="out"
         result="composite1"
         id="feComposite867" />
      <feGaussianBlur
         in="composite1"
         stdDeviation="15"
         result="blur"
         id="feGaussianBlur869" />
      <feOffset
         dx="0"
         dy="0"
         result="offset"
         id="feOffset871" />
      <feComposite
         in="offset"
         in2="SourceGraphic"
         operator="atop"
         result="composite2"
         id="feComposite873" />
    </filter>
    <filter
       style="color-interpolation-filters:sRGB;"
       inkscape:label="Drop Shadow"
       id="filter937"
       x="-0.063027045"
       y="-0.076999604"
       width="1.1260541"
       height="1.1539992">
      <feFlood
         flood-opacity="1"
         flood-color="rgb(58,63,94)"
         result="flood"
         id="feFlood927" />
      <feComposite
         in="flood"
         in2="SourceGraphic"
         operator="out"
         result="composite1"
         id="feComposite929" />
      <feGaussianBlur
         in="composite1"
         stdDeviation="12.3821"
         result="blur"
         id="feGaussianBlur931" />
      <feOffset
         dx="0"
         dy="0"
         result="offset"
         id="feOffset933" />
      <feComposite
         in="offset"
         in2="SourceGraphic"
         operator="atop"
         result="composite2"
         id="feComposite935" />
    </filter>
  </defs>
  <sodipodi:namedview
     id="namedview10"
     pagecolor="#505050"
     bordercolor="#eeeeee"
     borderopacity="1"
     inkscape:pageshadow="0"
     inkscape:pageopacity="0"
     inkscape:pagecheckerboard="0"
     showgrid="false"
     inkscape:zoom="1.7050781"
     inkscape:cx="256"
     inkscape:cy="256"
     inkscape:window-width="1716"
     inkscape:window-height="1414"
     inkscape:window-x="3160"
     inkscape:window-y="587"
     inkscape:window-maximized="1"
     inkscape:current-layer="svg8" />
  <path
     d="M0 0h512v512H0z"
     fill="#b90202"
     fill-opacity="1"
     id="path2"
     style="fill:#1b1f21;fill-opacity:0" />
  <g
     class=""
     style="fill:#ff0ec0;fill-opacity:1;filter:url(#filter937)"
     transform="translate(0,0)"
     id="g6">
    <path
       d="M378.321 58.818c-3.95 6.585-5.374 14.345-2.228 20.761 8.425 5.494 50.968 15.802 47.286 29.773-.784 2.301-1.087 3.54-1.515 5.224-7.4-6.764-22.462-10.05-27.902-9.049-4.832.843-9.721 3.05-14.44 3.248-5.986-.032-11.34-1.516-15.925-4.254 3.24 8.943 14.85 15.537 22.049 14.412 11.318-2.258 23.535 3.723 31.779 6.67-5.055 13.86-22.014 7.334-22.014 7.334l-121.937-28.02L253.44 90.45 236.1 108.17l88.945 29.131-120.023 2.676-29.907-12.486-40.77 23.617 182.99 13.291-56.212 59.426h99.22c19.341-15.746 63.009-51.2 63.645-50.793 12.867 29.973 33.256 19.023 48.815 1.55 4.515-5.069 9.47 12.362 12.021-16.015.64-1 1.217-2.011 1.772-3.03-18.028-7.661-48.58 5.732-31.817-17.992 5.135-7.262 20.776-5.296 36.871 3.97.582-15.262-1.056-42.396-15.484-48.39-14.85-6.169-34.024-5.48-41.316 2.682-9.946-16.88-39.574-19.07-51.307-20.764-3.453-5.429-4.558-10.479-5.223-16.226zm-188.328 59.236l-4.558 4.034 16.138 6.853 10.852-10.887zm276.578 24.354c6.542 4.808 7.01 5.943 11.393 6.1 1.597-1.021 5.12-4.613 1.857-5.37l-11.04-2.203c-1.14-.204-2.02.646-2.21 1.473zM148.167 160.44l-5.95 5.264h22.43l5.952-5.264zm-39.285 13.598l-12 15.357h15.855l5.461-6.414h42.592l-7.937 6.94h15.953l16-15.356zm15.664 15.933L20.251 309.592l23.027-4.516 98.618-115.104zM251.3 234.216L119.878 373.16l-16.697 4.265s-12.898 29.813-18.834 65.059c7.659 4.113 17.39-8.02 17.39-8.02s-1.1 13.09 6.64 9.743c14.097-28.569 29.864-58.248 29.864-58.248l159.721-121.877 20.994 5.584 27.758 7.386-62.557 58.727-11.238-12.15s-34.319 38.069-47.305 66.224c4.13 4.74 20.33-7.64 20.33-7.64s-5.369 9.615 1.932 9.31c17.808-16.694 29.682-29.826 29.682-29.826l132.82-98.543-48.23-28.938z"
       fill="#ffffff"
       fill-opacity="1"
       stroke="#ffffff"
       stroke-opacity="1"
       stroke-width="0"
       id="path4"
       style="fill:#ff0ec0;fill-opacity:1" />
  </g>
</svg>
