<?xml version="1.0" encoding="UTF-8" standalone="no"?>
<svg
   width="512" height="512"
   viewBox="0 0 512 512"
   version="1.1"
   id="svg8"
   sodipodi:docname="superglue.svg"
   inkscape:version="1.1.1 (3bf5ae0d25, 2021-09-20)"
   xmlns:inkscape="http://www.inkscape.org/namespaces/inkscape"
   xmlns:sodipodi="http://sodipodi.sourceforge.net/DTD/sodipodi-0.dtd"
   xmlns="http://www.w3.org/2000/svg"
   xmlns:svg="http://www.w3.org/2000/svg">
  <defs
     id="defs12">
    <filter
       style="color-interpolation-filters:sRGB;"
       inkscape:label="Drop Shadow"
       id="filter893"
       x="-0.19143577"
       y="-0.15932914"
       width="1.372796"
       height="1.3102725">
      <feFlood
         flood-opacity="1"
         flood-color="rgb(58,63,94)"
         result="flood"
         id="feFlood883" />
      <feComposite
         in="flood"
         in2="SourceGraphic"
         operator="out"
         result="composite1"
         id="feComposite885" />
      <feGaussianBlur
         in="composite1"
         stdDeviation="15"
         result="blur"
         id="feGaussianBlur887" />
      <feOffset
         dx="0"
         dy="0"
         result="offset"
         id="feOffset889" />
      <feComposite
         in="offset"
         in2="SourceGraphic"
         operator="atop"
         result="composite2"
         id="feComposite891" />
    </filter>
    <filter
       style="color-interpolation-filters:sRGB;"
       inkscape:label="Drop Shadow"
       id="filter1231"
       x="-0.074854007"
       y="-0.062299876"
       width="1.149708"
       height="1.1245998">
      <feFlood
         flood-opacity="1"
         flood-color="rgb(58,63,94)"
         result="flood"
         id="feFlood1221" />
      <feComposite
         in="flood"
         in2="SourceGraphic"
         operator="out"
         result="composite1"
         id="feComposite1223" />
      <feGaussianBlur
         in="composite1"
         stdDeviation="12.3821"
         result="blur"
         id="feGaussianBlur1225" />
      <feOffset
         dx="0"
         dy="0"
         result="offset"
         id="feOffset1227" />
      <feComposite
         in="offset"
         in2="SourceGraphic"
         operator="atop"
         result="composite2"
         id="feComposite1229" />
    </filter>
  </defs>
  <sodipodi:namedview
     id="namedview10"
     pagecolor="#505050"
     bordercolor="#eeeeee"
     borderopacity="1"
     inkscape:pageshadow="0"
     inkscape:pageopacity="0"
     inkscape:pagecheckerboard="0"
     showgrid="false"
     inkscape:zoom="1.7050781"
     inkscape:cx="247.20275"
     inkscape:cy="256"
     inkscape:window-width="1716"
     inkscape:window-height="1414"
     inkscape:window-x="3160"
     inkscape:window-y="587"
     inkscape:window-maximized="1"
     inkscape:current-layer="svg8" />
  <path
     d="M0 0h512v512H0z"
     fill="#b90202"
     fill-opacity="1"
     id="path2"
     style="fill:#1b1f21;fill-opacity:0" />
  <g
     class=""
     style="fill:#ff0ec0;fill-opacity:1;filter:url(#filter1231)"
     transform="translate(41.499983,1.5000221)"
     id="g6">
    <path
       d="M -22,18 V 151.4 C 15.93,102.6 66.7,79.13 107.6,81.63 100.8,61.55 98.5,39.91 97.7,18 Z m 121.3,82.3 c -37,1.9 -87.64,28.6 -121.24,84.1 25.2,56.8 58.7,115.7 94.74,155.3 30.9,-10.9 72.8,-30.8 113.1,-54.4 -19.7,-45.8 -15.8,-92.2 1.6,-128.9 -13,0.2 -24.3,-1.3 -35.4,-5.6 -13.9,13.2 -27.4,29.1 -31.2,47.3 l -18.3,-3.5 c 5.7,-21.3 16.5,-39.9 32.2,-53.4 -6,-4.3 -11.6,-9.4 -16.7,-15.1 -19.9,9.1 -40.2,31.4 -43.3,50.2 l -18.44,-3.1 c 4.44,-26.4 25.84,-50 49.94,-62.1 -2.4,-3.5 -4.7,-7.1 -7,-10.8 z m 185.3,2.9 c -12.1,-0.1 -23.9,3.7 -36.3,11 -44.5,26.6 -76.6,99.1 -42.7,169.6 l 7.2,7.2 -10.2,6.2 c -46.5,27.9 -95.1,51 -130.8,62.5 l 12.4,17.9 c 29.3,-10.8 61.6,-25.2 94.4,-41.9 63,30.1 49.1,114.6 -6.5,159.3 h 29.3 c 9.4,-17 15.1,-43.4 36.4,-50 8.2,-2.5 5,30 9.3,50 h 45.7 c -2.5,-13.4 -2.2,-34.6 3.5,-35.1 10.6,-1 18.9,21.3 27,35.1 h 50.2 C 270.4,382.7 277.7,338.5 297.8,266.9 c 28.1,-18.3 54.5,-37 77.2,-55.1 -13.4,-54.6 -34.9,-85.3 -57.1,-99 -11.7,-6.4 -22.6,-9.5 -33.3,-9.6 z m -4.6,175 c -8.7,21.9 -17.5,49.6 -24.2,48.5 -14.6,-2.5 -19.6,-10.9 -23.2,-20.1 16,-9.2 31.9,-18.7 47.4,-28.4 z m -60.1,35.5 c 6.1,19.6 14.5,46.1 9.1,50 -7.4,5.4 -19.5,-22.6 -30.4,-38.4 7.1,-3.8 14.2,-7.6 21.3,-11.6 z m 49.2,21 c 4.7,-0.5 19.9,68.6 37.3,101.6 10.4,19.7 -25,14.3 -28.9,3.4 -12.5,-35 -14.3,-104.4 -8.4,-105 z M 248,352 c 9.1,0 9.1,22.9 5.9,35.9 -3.5,14.1 -7.7,37.2 -11.2,34.3 -11.8,-9.8 -3.8,-70.2 5.3,-70.2 z m 9.8,78.4 c 3.8,0.3 8.9,12.5 9.9,19.6 1.2,8.2 -1.5,24.1 -5,24.4 -5,0.5 -7,-17.5 -7.6,-26.7 -0.4,-5.8 -3.8,-16.5 2.3,-17.3 z"
       fill="#ffffff"
       fill-opacity="1"
       stroke="#ffffff"
       stroke-opacity="1"
       stroke-width="0"
       id="path4"
       style="fill:#ff0ec0;fill-opacity:1" />
  </g>
</svg>
