<?xml version="1.0" encoding="UTF-8" standalone="no"?>
<svg
   width="512" height="512"
   viewBox="0 0 512 512"
   version="1.1"
   id="svg8"
   sodipodi:docname="sword.svg"
   inkscape:version="1.1.1 (3bf5ae0d25, 2021-09-20)"
   xmlns:inkscape="http://www.inkscape.org/namespaces/inkscape"
   xmlns:sodipodi="http://sodipodi.sourceforge.net/DTD/sodipodi-0.dtd"
   xmlns="http://www.w3.org/2000/svg"
   xmlns:svg="http://www.w3.org/2000/svg">
  <defs
     id="defs12">
    <filter
       style="color-interpolation-filters:sRGB;"
       inkscape:label="Drop Shadow"
       id="filter875"
       x="-0.1590353"
       y="-0.15872618"
       width="1.3097003"
       height="1.3090984">
      <feFlood
         flood-opacity="1"
         flood-color="rgb(58,63,94)"
         result="flood"
         id="feFlood865" />
      <feComposite
         in="flood"
         in2="SourceGraphic"
         operator="out"
         result="composite1"
         id="feComposite867" />
      <feGaussianBlur
         in="composite1"
         stdDeviation="15"
         result="blur"
         id="feGaussianBlur869" />
      <feOffset
         dx="0"
         dy="0"
         result="offset"
         id="feOffset871" />
      <feComposite
         in="offset"
         in2="SourceGraphic"
         operator="atop"
         result="composite2"
         id="feComposite873" />
    </filter>
    <filter
       style="color-interpolation-filters:sRGB;"
       inkscape:label="Drop Shadow"
       id="filter937"
       x="-0.062184978"
       y="-0.06206411"
       width="1.12437"
       height="1.1241282">
      <feFlood
         flood-opacity="1"
         flood-color="rgb(58,63,94)"
         result="flood"
         id="feFlood927" />
      <feComposite
         in="flood"
         in2="SourceGraphic"
         operator="out"
         result="composite1"
         id="feComposite929" />
      <feGaussianBlur
         in="composite1"
         stdDeviation="12.3821"
         result="blur"
         id="feGaussianBlur931" />
      <feOffset
         dx="0"
         dy="0"
         result="offset"
         id="feOffset933" />
      <feComposite
         in="offset"
         in2="SourceGraphic"
         operator="atop"
         result="composite2"
         id="feComposite935" />
    </filter>
  </defs>
  <sodipodi:namedview
     id="namedview10"
     pagecolor="#505050"
     bordercolor="#eeeeee"
     borderopacity="1"
     inkscape:pageshadow="0"
     inkscape:pageopacity="0"
     inkscape:pagecheckerboard="0"
     showgrid="false"
     inkscape:zoom="1.7050781"
     inkscape:cx="256"
     inkscape:cy="256"
     inkscape:window-width="1716"
     inkscape:window-height="1414"
     inkscape:window-x="3160"
     inkscape:window-y="587"
     inkscape:window-maximized="1"
     inkscape:current-layer="svg8" />
  <path
     d="M0 0h512v512H0z"
     fill="#b90202"
     fill-opacity="1"
     id="path2"
     style="fill:#1b1f21;fill-opacity:0" />
  <g
     class=""
     style="fill:#ff0ec0;fill-opacity:1;filter:url(#filter937)"
     transform="translate(0,0)"
     id="g6">
    <path
       d="M45.95 14.553c-19.38.81-30.594 11.357-30.282 30.283l19.768 30.78c4.43-1.213 9.36-3.838 14.248-7.335l42.474 59.935c-17.018 20.83-31.258 44.44-42.71 70.836l26.55 26.552c11.275-23.6 24.634-44.826 39.918-63.864l210.82 297.475 166.807 33.213L460.33 325.62 162.78 114.745c19.907-16.108 41.842-29.91 65.652-41.578l-26.553-26.55c-27.206 11.803-51.442 26.576-72.735 44.292L69.39 48.56c3.443-4.823 6.062-9.735 7.342-14.242l-30.78-19.765zm400.84 86.933v.008l.003-.008h-.002zm0 .008l-28.028 124.97-25.116-80.593-18.105 70.667-26.862-49.64-.584 57.818 128.484 91.69 15.184 87.017-1.168-186.885-34.457 39.713-9.346-154.756zm-300.95 27.98l222.224 196.368 25.645 66.75-66.75-25.645L130.6 144.734c4.91-5.278 9.995-10.36 15.238-15.26zm32.305 196.274v.004h.005l-.005-.004zm.005.004l28.028 22.775-36.21 4.088 57.82 19.272-105.706 4.09 115.05 27.45L136.1 422.114l127.316 25.696-67.164 43.803 208.494 1.752-87.017-15.185-104.54-150.676-35.037-1.752z"
       fill="#ffffff"
       fill-opacity="1"
       stroke="#ffffff"
       stroke-opacity="1"
       stroke-width="0"
       id="path4"
       style="fill:#ff0ec0;fill-opacity:1" />
  </g>
</svg>
