<?xml version="1.0" encoding="UTF-8" standalone="no"?>
<svg
   viewBox="0 0 512 512"
   style="height: 512px; width: 512px;"
   version="1.1"
   id="svg21"
   sodipodi:docname="appetite_controller.svg"
   xml:space="preserve"
   inkscape:version="1.2.2 (b0a8486541, 2022-12-01)"
   xmlns:inkscape="http://www.inkscape.org/namespaces/inkscape"
   xmlns:sodipodi="http://sodipodi.sourceforge.net/DTD/sodipodi-0.dtd"
   xmlns="http://www.w3.org/2000/svg"
   xmlns:svg="http://www.w3.org/2000/svg"><sodipodi:namedview
     id="namedview23"
     pagecolor="#ffffff"
     bordercolor="#666666"
     borderopacity="1.0"
     inkscape:showpageshadow="2"
     inkscape:pageopacity="0.0"
     inkscape:pagecheckerboard="0"
     inkscape:deskcolor="#d1d1d1"
     showgrid="false"
     inkscape:zoom="1.84375"
     inkscape:cx="279.59322"
     inkscape:cy="255.45763"
     inkscape:window-width="1716"
     inkscape:window-height="1402"
     inkscape:window-x="3160"
     inkscape:window-y="684"
     inkscape:window-maximized="1"
     inkscape:current-layer="svg21" /><defs
     id="defs13"><filter
       id="shadow-1"
       height="1.1833006"
       width="1.1558174"
       x="-0.077908719"
       y="-0.091650315"><feFlood
         flood-color="rgba(58, 63, 94, 1)"
         result="flood"
         id="feFlood2" /><feComposite
         in="flood"
         in2="SourceGraphic"
         operator="out"
         result="composite"
         id="feComposite4" /><feGaussianBlur
         in="composite"
         stdDeviation="15"
         result="blur"
         id="feGaussianBlur6" /><feOffset
         dx="0"
         dy="0"
         result="offset"
         id="feOffset8" /><feComposite
         in2="SourceGraphic"
         in="offset"
         operator="atop"
         id="feComposite10" /></filter><filter
       style="color-interpolation-filters:sRGB;"
       inkscape:label="Drop Shadow"
       id="filter1063"
       x="-0.077932967"
       y="-0.075245647"
       width="1.1558659"
       height="1.1504913"><feFlood
         flood-opacity="1"
         flood-color="rgb(58,63,94)"
         result="flood"
         id="feFlood1053" /><feComposite
         in="flood"
         in2="SourceGraphic"
         operator="out"
         result="composite1"
         id="feComposite1055" /><feGaussianBlur
         in="composite1"
         stdDeviation="14.299"
         result="blur"
         id="feGaussianBlur1057" /><feOffset
         dx="0"
         dy="0"
         result="offset"
         id="feOffset1059" /><feComposite
         in="offset"
         in2="SourceGraphic"
         operator="atop"
         result="composite2"
         id="feComposite1061" /></filter></defs><path
     d="M0 0h512v512H0z"
     fill="#1b1f21"
     fill-opacity="0"
     id="path15" /><style
     type="text/css"
     id="style347">
	.st0{fill:none;stroke:#000000;stroke-width:2;stroke-linecap:round;stroke-linejoin:round;stroke-miterlimit:10;}
</style><path
     id="path349"
     style="fill:#ff0ec0;stroke-width:15.7267;fill-opacity:1;filter:url(#filter1063)"
     d="M 256 27.962891 C 246.56401 27.962891 240.27344 34.253451 240.27344 43.689453 L 240.27344 56.271484 C 240.27344 100.30616 254.42719 142.7685 279.58984 177.36719 C 271.72652 210.39317 251.2826 241.84676 222.97461 260.71875 L 221.40039 262.29102 C 200.95573 273.29966 177.36734 278.01643 153.77734 274.87109 L 136.47656 273.29883 C 109.74123 267.00814 81.434502 274.87214 62.5625 293.74414 C 45.26317 311.04346 35.826172 333.06038 35.826172 356.65039 L 35.826172 468.31055 C 35.826172 477.74655 42.116736 484.03711 51.552734 484.03711 L 114.45898 484.03711 C 123.89499 484.03711 130.18555 477.74655 130.18555 468.31055 L 130.18555 400.68555 C 130.18555 397.54022 131.75935 397.53948 133.33203 395.9668 C 134.90469 395.9668 136.47615 394.39414 138.04883 395.9668 C 169.50216 421.12946 208.82007 436.85664 248.13672 440.00195 C 334.63339 452.58329 411.69467 414.83877 452.58398 342.49609 C 468.31065 314.1881 476.17383 281.16273 476.17383 248.13672 C 476.17383 188.37539 425.84768 138.04883 364.51367 138.04883 L 356.65039 138.04883 C 350.35973 127.04015 334.63281 100.3058 334.63281 49.980469 L 334.63281 43.689453 C 334.63281 34.253451 328.34225 27.962891 318.90625 27.962891 L 256 27.962891 z M 291.69336 236.22266 C 296.28698 236.22266 300.00977 239.94544 300.00977 244.53906 L 300.00977 252.85742 L 349.91602 252.85742 L 349.91602 244.53906 C 349.91602 239.94544 353.64058 236.22266 358.23438 236.22266 C 362.82816 236.22266 366.55078 239.94544 366.55078 244.53906 L 366.55078 252.95898 C 367.01573 252.97961 367.46734 253.00546 367.90234 253.03516 C 370.64548 253.2223 373.38808 253.63299 376.09961 254.75586 C 382.21302 257.2884 387.07164 262.14568 389.60352 268.25977 C 390.72638 270.9707 391.13819 273.71561 391.32617 276.45898 C 391.35528 276.89408 391.38155 277.34535 391.40234 277.81055 L 399.82227 277.81055 C 404.41606 277.81055 408.13867 281.53333 408.13867 286.12695 C 408.13867 290.72059 404.41606 294.44531 399.82227 294.44531 L 391.50391 294.44531 L 391.50391 344.34961 L 399.82227 344.34961 C 404.41606 344.34961 408.13867 348.07417 408.13867 352.66797 C 408.13867 357.26176 404.41606 360.98633 399.82227 360.98633 L 391.40234 360.98633 C 391.38155 361.45128 391.35528 361.90093 391.32617 362.33594 C 391.13819 365.07907 390.72638 367.82362 389.60352 370.53516 C 387.07164 376.64857 382.21302 381.5072 376.09961 384.03906 C 373.38808 385.16194 370.64548 385.57374 367.90234 385.76172 C 367.46734 385.79083 367.01573 385.81514 366.55078 385.83594 L 366.55078 394.25586 C 366.55078 398.84965 362.82816 402.57422 358.23438 402.57422 C 353.64058 402.57422 349.91602 398.84965 349.91602 394.25586 L 349.91602 385.9375 L 300.00977 385.9375 L 300.00977 394.25586 C 300.00977 398.84965 296.28698 402.57422 291.69336 402.57422 C 287.09973 402.57422 283.375 398.84965 283.375 394.25586 L 283.375 385.83594 C 282.9098 385.81514 282.46048 385.79083 282.02539 385.76172 C 279.282 385.57374 276.53712 385.16194 273.82617 384.03906 C 267.71209 381.5072 262.85479 376.64857 260.32227 370.53516 C 259.19939 367.82362 258.78675 365.07907 258.59961 362.33594 C 258.56992 361.90093 258.54603 361.45128 258.52539 360.98633 L 250.10547 360.98633 C 245.51184 360.98633 241.78711 357.26176 241.78711 352.66797 C 241.78711 348.07417 245.51184 344.34961 250.10547 344.34961 L 258.42188 344.34961 L 258.42188 294.44531 L 250.10547 294.44531 C 245.51184 294.44531 241.78711 290.72067 241.78711 286.12695 C 241.78711 281.53333 245.51184 277.81055 250.10547 277.81055 L 258.52539 277.81055 C 258.54602 277.34535 258.56992 276.89408 258.59961 276.45898 C 258.78675 273.71561 259.19939 270.9707 260.32227 268.25977 C 262.85479 262.1456 267.71209 257.2884 273.82617 254.75586 C 276.53712 253.63299 279.282 253.2223 282.02539 253.03516 C 282.46048 253.00546 282.9098 252.97962 283.375 252.95898 L 283.375 244.53906 C 283.375 239.94544 287.09973 236.22266 291.69336 236.22266 z M 324.69727 286.12695 C 321.04917 286.12687 317.90082 286.12694 315.29492 286.30469 C 312.55178 286.49183 309.80682 286.90447 307.0957 288.02734 C 300.98163 290.55988 296.12433 295.41717 293.5918 301.53125 C 292.46892 304.24237 292.05824 306.98538 291.87109 309.72852 C 291.69335 312.3344 291.69328 315.48277 291.69336 319.13086 L 291.69336 319.66406 C 291.69328 323.31215 291.69335 326.46051 291.87109 329.06641 C 292.05824 331.80954 292.46892 334.5541 293.5918 337.26562 C 296.12433 343.37905 300.98163 348.23571 307.0957 350.76758 C 309.80682 351.89045 312.55178 352.30226 315.29492 352.49023 C 317.90082 352.6674 321.04917 352.66797 324.69727 352.66797 L 325.22852 352.66797 C 328.8766 352.66797 332.02496 352.6674 334.63086 352.49023 C 337.374 352.30226 340.11938 351.89045 342.83008 350.76758 C 348.94432 348.23571 353.80212 343.37905 356.33398 337.26562 C 357.45686 334.5541 357.86866 331.80954 358.05664 329.06641 C 358.23381 326.46051 358.23438 323.31215 358.23438 319.66406 L 358.23438 319.13086 C 358.23438 315.48277 358.23381 312.3344 358.05664 309.72852 C 357.86866 306.98538 357.45686 304.24237 356.33398 301.53125 C 353.80212 295.41717 348.94349 290.55988 342.83008 288.02734 C 340.11855 286.90447 337.374 286.49183 334.63086 286.30469 C 332.02496 286.12694 328.8766 286.12687 325.22852 286.12695 L 324.69727 286.12695 z M 324.96289 302.76172 C 328.952 302.76172 331.52761 302.7676 333.49805 302.90234 C 335.39446 303.0321 336.11688 303.25147 336.46289 303.39453 C 338.5007 304.23876 340.12061 305.85868 340.96484 307.89648 C 341.10791 308.24249 341.32923 308.96492 341.45898 310.86133 C 341.59372 312.83176 341.59766 315.40933 341.59766 319.39844 C 341.59766 323.38755 341.59373 325.96316 341.45898 327.93359 C 341.32923 329.83 341.10791 330.55243 340.96484 330.89844 C 340.12061 332.93624 338.5007 334.55615 336.46289 335.40039 C 336.11688 335.54345 335.39446 335.76478 333.49805 335.89453 C 331.52761 336.02927 328.952 336.0332 324.96289 336.0332 C 320.97378 336.0332 318.39817 336.02928 316.42773 335.89453 C 314.53133 335.76478 313.8089 335.54345 313.46289 335.40039 C 311.42508 334.55615 309.80517 332.93624 308.96094 330.89844 C 308.81787 330.55243 308.59655 329.83 308.4668 327.93359 C 308.33206 325.96316 308.32812 323.38755 308.32812 319.39844 C 308.32812 315.40933 308.33205 312.83176 308.4668 310.86133 C 308.59655 308.96492 308.81787 308.24249 308.96094 307.89648 C 309.80517 305.85868 311.42508 304.23876 313.46289 303.39453 C 313.8089 303.25147 314.53133 303.0321 316.42773 302.90234 C 318.39817 302.76761 320.97378 302.76172 324.96289 302.76172 z " /><g
     id="g424"
     transform="matrix(0.24952766,0,0,0.24952766,397.42612,408.20544)" /></svg>
