<?xml version="1.0" encoding="UTF-8" standalone="no"?>
<svg
   viewBox="0 0 512 512"
   style="height: 512px; width: 512px;"
   width="512"
   height="512"
   version="1.1"
   id="svg21"
   sodipodi:docname="perfectfit_cyberfoot.svg"
   xml:space="preserve"
   inkscape:version="1.2.2 (b0a8486541, 2022-12-01)"
   xmlns:inkscape="http://www.inkscape.org/namespaces/inkscape"
   xmlns:sodipodi="http://sodipodi.sourceforge.net/DTD/sodipodi-0.dtd"
   xmlns="http://www.w3.org/2000/svg"
   xmlns:svg="http://www.w3.org/2000/svg"><sodipodi:namedview
     id="namedview23"
     pagecolor="#ffffff"
     bordercolor="#666666"
     borderopacity="1.0"
     inkscape:showpageshadow="2"
     inkscape:pageopacity="0.0"
     inkscape:pagecheckerboard="0"
     inkscape:deskcolor="#d1d1d1"
     showgrid="false"
     inkscape:zoom="0.921875"
     inkscape:cx="344.94915"
     inkscape:cy="303.72881"
     inkscape:window-width="1716"
     inkscape:window-height="1402"
     inkscape:window-x="3160"
     inkscape:window-y="684"
     inkscape:window-maximized="1"
     inkscape:current-layer="svg21"
     showguides="true"><sodipodi:guide
       position="119.32203,786.44068"
       orientation="0,-1"
       id="guide3966"
       inkscape:locked="false" /><sodipodi:guide
       position="160.54237,580.33898"
       orientation="0,-1"
       id="guide3968"
       inkscape:locked="false" /></sodipodi:namedview><defs
     id="defs13"><filter
       id="shadow-1"
       height="1.1833006"
       width="1.1558174"
       x="-0.077908719"
       y="-0.091650315"><feFlood
         flood-color="rgba(58, 63, 94, 1)"
         result="flood"
         id="feFlood2" /><feComposite
         in="flood"
         in2="SourceGraphic"
         operator="out"
         result="composite"
         id="feComposite4" /><feGaussianBlur
         in="composite"
         stdDeviation="15"
         result="blur"
         id="feGaussianBlur6" /><feOffset
         dx="0"
         dy="0"
         result="offset"
         id="feOffset8" /><feComposite
         in2="SourceGraphic"
         in="offset"
         operator="atop"
         id="feComposite10" /></filter><filter
       style="color-interpolation-filters:sRGB;"
       inkscape:label="Drop Shadow"
       id="filter1063"
       x="-0.077932967"
       y="-0.075245647"
       width="1.1558659"
       height="1.1504913"><feFlood
         flood-opacity="1"
         flood-color="rgb(58,63,94)"
         result="flood"
         id="feFlood1053" /><feComposite
         in="flood"
         in2="SourceGraphic"
         operator="out"
         result="composite1"
         id="feComposite1055" /><feGaussianBlur
         in="composite1"
         stdDeviation="14.299"
         result="blur"
         id="feGaussianBlur1057" /><feOffset
         dx="0"
         dy="0"
         result="offset"
         id="feOffset1059" /><feComposite
         in="offset"
         in2="SourceGraphic"
         operator="atop"
         result="composite2"
         id="feComposite1061" /></filter><filter
       style="color-interpolation-filters:sRGB;"
       inkscape:label="Drop Shadow"
       id="filter980"
       x="-0.19212002"
       y="-0.15482707"
       width="1.3740387"
       height="1.3014526"><feFlood
         flood-opacity="1"
         flood-color="rgb(58,63,94)"
         result="flood"
         id="feFlood970" /><feComposite
         in="flood"
         in2="SourceGraphic"
         operator="out"
         result="composite1"
         id="feComposite972" /><feGaussianBlur
         in="composite1"
         stdDeviation="15"
         result="blur"
         id="feGaussianBlur974" /><feOffset
         dx="0"
         dy="0"
         result="offset"
         id="feOffset976" /><feComposite
         in="offset"
         in2="SourceGraphic"
         operator="atop"
         result="composite2"
         id="feComposite978" /></filter><filter
       style="color-interpolation-filters:sRGB;"
       inkscape:label="Drop Shadow"
       id="filter1066"
       x="-0.059353573"
       y="-0.047838673"
       width="1.1187071"
       height="1.0956773"><feFlood
         flood-opacity="1"
         flood-color="rgb(58,63,94)"
         result="flood"
         id="feFlood1056" /><feComposite
         in="flood"
         in2="SourceGraphic"
         operator="out"
         result="composite1"
         id="feComposite1058" /><feGaussianBlur
         in="composite1"
         stdDeviation="9.78793"
         result="blur"
         id="feGaussianBlur1060" /><feOffset
         dx="0"
         dy="0"
         result="offset"
         id="feOffset1062" /><feComposite
         in="offset"
         in2="SourceGraphic"
         operator="atop"
         result="composite2"
         id="feComposite1064" /></filter><symbol
       id="u"
       overflow="visible"><path
         d="m2.9375-0.17188c-0.14844 0.074219-0.30469 0.13281-0.46875 0.17188-0.16797 0.039062-0.33984 0.0625-0.51562 0.0625-0.53125 0-0.95312-0.14453-1.2656-0.4375-0.3125-0.30078-0.46875-0.70703-0.46875-1.2188 0-0.50781 0.15625-0.91406 0.46875-1.2188 0.3125-0.30078 0.73438-0.45312 1.2656-0.45312 0.17578 0 0.34766 0.023437 0.51562 0.0625 0.16406 0.042969 0.32031 0.10547 0.46875 0.1875v0.65625c-0.14844-0.10156-0.29688-0.17578-0.45312-0.21875-0.14844-0.050781-0.30469-0.078125-0.46875-0.078125-0.29297 0-0.52344 0.09375-0.6875 0.28125-0.16797 0.1875-0.25 0.44922-0.25 0.78125 0 0.32422 0.082031 0.58594 0.25 0.78125 0.16406 0.1875 0.39453 0.28125 0.6875 0.28125 0.16406 0 0.32031-0.023438 0.46875-0.078125 0.15625-0.050781 0.30469-0.12891 0.45312-0.23438z"
         id="path3132" /></symbol><symbol
       id="c"
       overflow="visible"><path
         d="m2.1562-1.75c-0.074219-0.03125-0.14062-0.050781-0.20312-0.0625-0.0625-0.019531-0.13281-0.03125-0.20312-0.03125-0.19922 0-0.35156 0.070312-0.45312 0.20312-0.10547 0.125-0.15625 0.30469-0.15625 0.53125v1.1094h-0.76562v-2.4062h0.76562v0.40625c0.09375-0.16406 0.20312-0.28125 0.32812-0.34375 0.13281-0.070312 0.28906-0.10938 0.46875-0.10938h0.078125c0.03125 0 0.078125 0.007813 0.14062 0.015625z"
         id="path3135" /></symbol><symbol
       id="a"
       overflow="visible"><path
         d="m2.7656-1.2031v0.21875h-1.7969c0.019531 0.17969 0.082031 0.3125 0.1875 0.40625 0.11328 0.085937 0.27344 0.125 0.48438 0.125 0.15625 0 0.31641-0.019531 0.48438-0.0625 0.17578-0.050781 0.35156-0.125 0.53125-0.21875v0.59375c-0.1875 0.0625-0.375 0.10938-0.5625 0.14062-0.17969 0.039062-0.35547 0.0625-0.53125 0.0625-0.4375 0-0.77734-0.10938-1.0156-0.32812-0.24219-0.21875-0.35938-0.53125-0.35938-0.9375 0-0.38281 0.11328-0.6875 0.34375-0.90625 0.23828-0.22656 0.56641-0.34375 0.98438-0.34375 0.38281 0 0.6875 0.11719 0.90625 0.34375 0.22656 0.21875 0.34375 0.52344 0.34375 0.90625zm-0.78125-0.26562c0-0.14453-0.046875-0.25781-0.14062-0.34375-0.085938-0.09375-0.19531-0.14062-0.32812-0.14062-0.14844 0-0.26562 0.042969-0.35938 0.125-0.09375 0.085937-0.15234 0.20312-0.17188 0.35938z"
         id="path3138" /></symbol><symbol
       id="k"
       overflow="visible"><path
         d="m1.4375-1.0781c-0.15625 0-0.27734 0.027344-0.35938 0.078125-0.074219 0.054688-0.10938 0.13281-0.10938 0.23438 0 0.10547 0.03125 0.18359 0.09375 0.23438 0.0625 0.054688 0.14844 0.078125 0.26562 0.078125 0.14453 0 0.26562-0.050781 0.35938-0.15625 0.10156-0.10156 0.15625-0.23438 0.15625-0.39062v-0.078125zm1.1875-0.29688v1.375h-0.78125v-0.35938c-0.10547 0.14844-0.22656 0.25781-0.35938 0.32812-0.125 0.0625-0.27734 0.09375-0.45312 0.09375-0.25 0-0.45312-0.070312-0.60938-0.21875-0.15625-0.14453-0.23438-0.33203-0.23438-0.5625 0-0.28125 0.09375-0.48438 0.28125-0.60938 0.19531-0.13281 0.50391-0.20312 0.92188-0.20312h0.45312v-0.0625c0-0.125-0.046875-0.21094-0.14062-0.26562-0.09375-0.0625-0.24609-0.09375-0.45312-0.09375-0.16797 0-0.32422 0.023437-0.46875 0.0625-0.13672 0.03125-0.26172 0.078125-0.375 0.14062v-0.59375c0.15625-0.03125 0.31641-0.054688 0.48438-0.078125 0.16406-0.019531 0.33203-0.03125 0.5-0.03125 0.4375 0 0.75 0.085937 0.9375 0.25 0.19531 0.16797 0.29688 0.44531 0.29688 0.82812z"
         id="path3141" /></symbol><symbol
       id="b"
       overflow="visible"><path
         d="m1.2031-3.0781v0.67188h0.79688v0.54688h-0.79688v1.0312c0 0.10547 0.019531 0.17969 0.0625 0.21875 0.050781 0.042969 0.14062 0.0625 0.26562 0.0625h0.40625v0.54688h-0.65625c-0.3125 0-0.53125-0.0625-0.65625-0.1875s-0.1875-0.33594-0.1875-0.64062v-1.0312h-0.375v-0.54688h0.375v-0.67188z"
         id="path3144" /></symbol><symbol
       id="j"
       overflow="visible"><path
         d="m2-2.0469v-1.2812h0.78125v3.3281h-0.78125v-0.34375c-0.10547 0.13672-0.21875 0.24219-0.34375 0.3125-0.125 0.0625-0.27344 0.09375-0.4375 0.09375-0.30469 0-0.54688-0.11328-0.73438-0.34375-0.1875-0.23828-0.28125-0.54688-0.28125-0.92188 0-0.36328 0.09375-0.66016 0.28125-0.89062 0.1875-0.23828 0.42969-0.35938 0.73438-0.35938 0.15625 0 0.29688 0.03125 0.42188 0.09375 0.13281 0.0625 0.25391 0.16797 0.35938 0.3125zm-0.5 1.5469c0.16406 0 0.28906-0.054688 0.375-0.17188 0.082031-0.125 0.125-0.30078 0.125-0.53125 0-0.22656-0.042969-0.39844-0.125-0.51562-0.085938-0.125-0.21094-0.1875-0.375-0.1875-0.16797 0-0.29297 0.0625-0.375 0.1875-0.085938 0.11719-0.125 0.28906-0.125 0.51562 0 0.23047 0.039062 0.40625 0.125 0.53125 0.082031 0.11719 0.20703 0.17188 0.375 0.17188z"
         id="path3147" /></symbol><symbol
       id="i"
       overflow="visible"><path
         d="m1.6406-0.5c0.16406 0 0.28906-0.054688 0.375-0.17188 0.09375-0.125 0.14062-0.30078 0.14062-0.53125 0-0.22656-0.046875-0.39844-0.14062-0.51562-0.085937-0.125-0.21094-0.1875-0.375-0.1875-0.15625 0-0.28125 0.0625-0.375 0.1875-0.085937 0.11719-0.125 0.28906-0.125 0.51562 0 0.23047 0.039063 0.40625 0.125 0.53125 0.09375 0.11719 0.21875 0.17188 0.375 0.17188zm-0.5-1.5469c0.10156-0.14453 0.21875-0.25 0.34375-0.3125 0.13281-0.0625 0.28516-0.09375 0.45312-0.09375 0.28906 0 0.53125 0.12109 0.71875 0.35938 0.19531 0.23047 0.29688 0.52734 0.29688 0.89062 0 0.375-0.10156 0.68359-0.29688 0.92188-0.1875 0.23047-0.42969 0.34375-0.71875 0.34375-0.16797 0-0.32031-0.03125-0.45312-0.09375-0.125-0.070312-0.24219-0.17578-0.34375-0.3125v0.34375h-0.76562v-3.3281h0.76562z"
         id="path3150" /></symbol><symbol
       id="h"
       overflow="visible"><path
         d="m0.046875-2.4062h0.78125l0.64062 1.6406 0.54688-1.6406h0.76562l-1.0156 2.6406c-0.09375 0.25781-0.21094 0.44141-0.34375 0.54688-0.13672 0.11328-0.3125 0.17188-0.53125 0.17188h-0.45312v-0.51562h0.23438c0.13281 0 0.22656-0.023438 0.28125-0.0625 0.0625-0.042969 0.11328-0.11719 0.15625-0.21875l0.015625-0.0625z"
         id="path3153" /></symbol><symbol
       id="g"
       overflow="visible"><path
         d="m0.40625-3.2031h2.2188v0.625h-1.3906v0.59375h1.3125v0.625h-1.3125v0.73438h1.4375v0.625h-2.2656z"
         id="path3156" /></symbol><symbol
       id="f"
       overflow="visible"><path
         d="m2.7812-1.4688v1.4688h-0.76562v-1.125c0-0.20703-0.007813-0.34766-0.015625-0.42188-0.011719-0.082031-0.027344-0.14062-0.046875-0.17188-0.03125-0.050781-0.074219-0.085938-0.125-0.10938-0.054687-0.03125-0.10938-0.046875-0.17188-0.046875-0.16797 0-0.29688 0.0625-0.39062 0.1875-0.085937 0.11719-0.125 0.28125-0.125 0.5v1.1875h-0.76562v-2.4062h0.76562v0.35938c0.11328-0.14453 0.23438-0.25 0.35938-0.3125 0.13281-0.0625 0.28125-0.09375 0.4375-0.09375 0.28125 0 0.48828 0.085937 0.625 0.25 0.14453 0.16797 0.21875 0.41406 0.21875 0.73438z"
         id="path3159" /></symbol><symbol
       id="t"
       overflow="visible"><path
         d="m1.9531 0.0625h-0.0625c-0.53125 0-0.94531-0.14453-1.2344-0.4375-0.29297-0.28906-0.4375-0.69531-0.4375-1.2188 0-0.51953 0.14453-0.92578 0.4375-1.2188 0.28906-0.30078 0.69141-0.45312 1.2031-0.45312 0.51953 0 0.92578 0.14844 1.2188 0.4375 0.28906 0.29297 0.4375 0.70312 0.4375 1.2344 0 0.35547-0.078125 0.66406-0.23438 0.92188-0.15625 0.26172-0.375 0.46094-0.65625 0.59375l0.64062 0.71875h-0.79688zm-0.09375-2.7188c-0.25 0-0.44531 0.09375-0.57812 0.28125-0.13672 0.17969-0.20312 0.4375-0.20312 0.78125s0.066406 0.60938 0.20312 0.79688c0.13281 0.17969 0.32812 0.26562 0.57812 0.26562 0.25781 0 0.45703-0.09375 0.59375-0.28125 0.13281-0.1875 0.20312-0.44531 0.20312-0.78125 0-0.34375-0.070312-0.60156-0.20312-0.78125-0.13672-0.1875-0.33594-0.28125-0.59375-0.28125z"
         id="path3162" /></symbol><symbol
       id="s"
       overflow="visible"><path
         d="m0.375-2.4062h0.76562v2.4062h-0.76562zm0-0.92188h0.76562v0.625h-0.76562z"
         id="path3165" /></symbol><symbol
       id="e"
       overflow="visible"><path
         d="m0.34375-0.9375v-1.4688h0.76562v0.25 0.48438 0.39062c0 0.19922 0.003906 0.33984 0.015625 0.42188 0.007812 0.085937 0.023438 0.14844 0.046875 0.1875 0.03125 0.054687 0.070313 0.09375 0.125 0.125 0.050781 0.023437 0.10938 0.03125 0.17188 0.03125 0.16406 0 0.28906-0.0625 0.375-0.1875 0.09375-0.125 0.14062-0.29688 0.14062-0.51562v-1.1875h0.76562v2.4062h-0.76562v-0.34375c-0.11719 0.13672-0.24219 0.24219-0.375 0.3125-0.125 0.0625-0.26562 0.09375-0.42188 0.09375-0.27344 0-0.48047-0.082031-0.625-0.25-0.14844-0.17578-0.21875-0.42578-0.21875-0.75z"
         id="path3168" /></symbol><symbol
       id="r"
       overflow="visible"><path
         d="m1.9531-3.3281v0.5h-0.42188c-0.11719 0-0.19531 0.023437-0.23438 0.0625-0.042969 0.03125-0.0625 0.10156-0.0625 0.20312v0.15625h0.65625v0.54688h-0.65625v1.8594h-0.76562v-1.8594h-0.39062v-0.54688h0.39062v-0.15625c0-0.25781 0.070312-0.45312 0.21875-0.57812 0.14453-0.125 0.36719-0.1875 0.67188-0.1875z"
         id="path3171" /></symbol><symbol
       id="d"
       overflow="visible"><path
         d="m1.5156-1.9062c-0.17969 0-0.3125 0.0625-0.40625 0.1875-0.085937 0.11719-0.125 0.28906-0.125 0.51562 0 0.23047 0.039063 0.40625 0.125 0.53125 0.09375 0.125 0.22656 0.1875 0.40625 0.1875 0.16406 0 0.28906-0.0625 0.375-0.1875 0.09375-0.125 0.14062-0.30078 0.14062-0.53125 0-0.22656-0.046875-0.39844-0.14062-0.51562-0.085937-0.125-0.21094-0.1875-0.375-0.1875zm0-0.54688c0.40625 0 0.72266 0.10938 0.95312 0.32812 0.23828 0.21875 0.35938 0.52734 0.35938 0.92188 0 0.39844-0.12109 0.71094-0.35938 0.9375-0.23047 0.21875-0.54688 0.32812-0.95312 0.32812-0.41797 0-0.74609-0.10938-0.98438-0.32812-0.23047-0.22656-0.34375-0.53906-0.34375-0.9375 0-0.39453 0.11328-0.70312 0.34375-0.92188 0.23828-0.21875 0.56641-0.32812 0.98438-0.32812z"
         id="path3174" /></symbol><symbol
       id="q"
       overflow="visible"><path
         d="m2.5938-2c0.09375-0.14453 0.20703-0.25391 0.34375-0.32812 0.13281-0.082031 0.28125-0.125 0.4375-0.125 0.28125 0 0.49219 0.085937 0.64062 0.25 0.14453 0.16797 0.21875 0.41406 0.21875 0.73438v1.4688h-0.78125v-1.25-0.0625-0.078125c0-0.17578-0.027344-0.30078-0.078125-0.375-0.042969-0.070313-0.12109-0.10938-0.23438-0.10938-0.14844 0-0.26172 0.0625-0.34375 0.1875-0.074219 0.11719-0.10938 0.28906-0.10938 0.51562v1.1719h-0.78125v-1.25c0-0.26953-0.027344-0.44141-0.078125-0.51562-0.042969-0.070313-0.12109-0.10938-0.23438-0.10938-0.14844 0-0.26172 0.0625-0.34375 0.1875-0.074219 0.11719-0.10938 0.28125-0.10938 0.5v1.1875h-0.78125v-2.4062h0.78125v0.35938c0.09375-0.13281 0.19531-0.23438 0.3125-0.29688 0.125-0.070312 0.25781-0.10938 0.40625-0.10938 0.16406 0 0.3125 0.042969 0.4375 0.125 0.13281 0.074219 0.23438 0.18359 0.29688 0.32812z"
         id="path3177" /></symbol><symbol
       id="p"
       overflow="visible"><path
         d="m2.7812-1.4688v1.4688h-0.76562v-1.1094c0-0.21875-0.007813-0.36328-0.015625-0.4375-0.011719-0.082031-0.027344-0.14062-0.046875-0.17188-0.03125-0.050781-0.074219-0.085938-0.125-0.10938-0.054687-0.03125-0.10938-0.046875-0.17188-0.046875-0.16797 0-0.29688 0.0625-0.39062 0.1875-0.085937 0.11719-0.125 0.28125-0.125 0.5v1.1875h-0.76562v-3.3281h0.76562v1.2812c0.11328-0.14453 0.23438-0.25 0.35938-0.3125 0.13281-0.0625 0.28125-0.09375 0.4375-0.09375 0.28125 0 0.48828 0.085937 0.625 0.25 0.14453 0.16797 0.21875 0.41406 0.21875 0.73438z"
         id="path3180" /></symbol><symbol
       id="o"
       overflow="visible"><path
         d="m0.40625-3.2031h0.92188l1.1562 2.2031v-2.2031h0.78125v3.2031h-0.92188l-1.1562-2.2031v2.2031h-0.78125z"
         id="path3183" /></symbol><symbol
       id="n"
       overflow="visible"><path
         d="m0.40625-3.2031h1.3594c0.41406 0 0.72656 0.09375 0.9375 0.28125 0.21875 0.17969 0.32812 0.43359 0.32812 0.76562 0 0.33594-0.10938 0.59375-0.32812 0.78125-0.21094 0.17969-0.52344 0.26562-0.9375 0.26562h-0.53125v1.1094h-0.82812zm0.82812 0.59375v0.90625h0.45312c0.15625 0 0.27344-0.035156 0.35938-0.10938 0.09375-0.082031 0.14062-0.19531 0.14062-0.34375 0-0.14453-0.046875-0.25391-0.14062-0.32812-0.085937-0.082031-0.20312-0.125-0.35938-0.125z"
         id="path3186" /></symbol><symbol
       id="m"
       overflow="visible"><path
         d="m0.375-2.4062h0.76562v2.3594c0 0.32031-0.078125 0.56641-0.23438 0.73438-0.15625 0.17578-0.38281 0.26562-0.67188 0.26562h-0.375v-0.51562h0.125c0.14453 0 0.24219-0.03125 0.29688-0.09375 0.0625-0.0625 0.09375-0.19531 0.09375-0.39062zm0-0.92188h0.76562v0.625h-0.76562z"
         id="path3189" /></symbol><symbol
       id="l"
       overflow="visible"><path
         d="m2.3125-2.3281v0.625c-0.10547-0.070313-0.21094-0.125-0.3125-0.15625-0.10547-0.03125-0.21484-0.046875-0.32812-0.046875-0.21875 0-0.39062 0.0625-0.51562 0.1875-0.11719 0.125-0.17188 0.29688-0.17188 0.51562 0 0.23047 0.054687 0.40625 0.17188 0.53125 0.125 0.125 0.29688 0.1875 0.51562 0.1875 0.11328 0 0.22266-0.015625 0.32812-0.046875 0.11328-0.039062 0.21875-0.097656 0.3125-0.17188v0.625c-0.125 0.054688-0.25 0.085938-0.375 0.10938-0.11719 0.019531-0.23438 0.03125-0.35938 0.03125-0.4375 0-0.78125-0.10938-1.0312-0.32812-0.24219-0.22656-0.35938-0.53906-0.35938-0.9375 0-0.39453 0.11719-0.70312 0.35938-0.92188 0.25-0.21875 0.59375-0.32812 1.0312-0.32812 0.125 0 0.24219 0.011719 0.35938 0.03125 0.125 0.023437 0.25 0.054687 0.375 0.09375z"
         id="path3192" /></symbol><symbol
       id="u-3"
       overflow="visible"><path
         d="m2.9375-0.17188c-0.14844 0.074219-0.30469 0.13281-0.46875 0.17188-0.16797 0.039062-0.33984 0.0625-0.51562 0.0625-0.53125 0-0.95312-0.14453-1.2656-0.4375-0.3125-0.30078-0.46875-0.70703-0.46875-1.2188 0-0.50781 0.15625-0.91406 0.46875-1.2188 0.3125-0.30078 0.73438-0.45312 1.2656-0.45312 0.17578 0 0.34766 0.023437 0.51562 0.0625 0.16406 0.042969 0.32031 0.10547 0.46875 0.1875v0.65625c-0.14844-0.10156-0.29688-0.17578-0.45312-0.21875-0.14844-0.050781-0.30469-0.078125-0.46875-0.078125-0.29297 0-0.52344 0.09375-0.6875 0.28125-0.16797 0.1875-0.25 0.44922-0.25 0.78125 0 0.32422 0.082031 0.58594 0.25 0.78125 0.16406 0.1875 0.39453 0.28125 0.6875 0.28125 0.16406 0 0.32031-0.023438 0.46875-0.078125 0.15625-0.050781 0.30469-0.12891 0.45312-0.23438z"
         id="path3631" /></symbol><symbol
       id="c-6"
       overflow="visible"><path
         d="m2.1562-1.75c-0.074219-0.03125-0.14062-0.050781-0.20312-0.0625-0.0625-0.019531-0.13281-0.03125-0.20312-0.03125-0.19922 0-0.35156 0.070312-0.45312 0.20312-0.10547 0.125-0.15625 0.30469-0.15625 0.53125v1.1094h-0.76562v-2.4062h0.76562v0.40625c0.09375-0.16406 0.20312-0.28125 0.32812-0.34375 0.13281-0.070312 0.28906-0.10938 0.46875-0.10938h0.078125c0.03125 0 0.078125 0.007813 0.14062 0.015625z"
         id="path3634" /></symbol><symbol
       id="a-7"
       overflow="visible"><path
         d="m2.7656-1.2031v0.21875h-1.7969c0.019531 0.17969 0.082031 0.3125 0.1875 0.40625 0.11328 0.085937 0.27344 0.125 0.48438 0.125 0.15625 0 0.31641-0.019531 0.48438-0.0625 0.17578-0.050781 0.35156-0.125 0.53125-0.21875v0.59375c-0.1875 0.0625-0.375 0.10938-0.5625 0.14062-0.17969 0.039062-0.35547 0.0625-0.53125 0.0625-0.4375 0-0.77734-0.10938-1.0156-0.32812-0.24219-0.21875-0.35938-0.53125-0.35938-0.9375 0-0.38281 0.11328-0.6875 0.34375-0.90625 0.23828-0.22656 0.56641-0.34375 0.98438-0.34375 0.38281 0 0.6875 0.11719 0.90625 0.34375 0.22656 0.21875 0.34375 0.52344 0.34375 0.90625zm-0.78125-0.26562c0-0.14453-0.046875-0.25781-0.14062-0.34375-0.085938-0.09375-0.19531-0.14062-0.32812-0.14062-0.14844 0-0.26562 0.042969-0.35938 0.125-0.09375 0.085937-0.15234 0.20312-0.17188 0.35938z"
         id="path3637" /></symbol><symbol
       id="k-5"
       overflow="visible"><path
         d="m1.4375-1.0781c-0.15625 0-0.27734 0.027344-0.35938 0.078125-0.074219 0.054688-0.10938 0.13281-0.10938 0.23438 0 0.10547 0.03125 0.18359 0.09375 0.23438 0.0625 0.054688 0.14844 0.078125 0.26562 0.078125 0.14453 0 0.26562-0.050781 0.35938-0.15625 0.10156-0.10156 0.15625-0.23438 0.15625-0.39062v-0.078125zm1.1875-0.29688v1.375h-0.78125v-0.35938c-0.10547 0.14844-0.22656 0.25781-0.35938 0.32812-0.125 0.0625-0.27734 0.09375-0.45312 0.09375-0.25 0-0.45312-0.070312-0.60938-0.21875-0.15625-0.14453-0.23438-0.33203-0.23438-0.5625 0-0.28125 0.09375-0.48438 0.28125-0.60938 0.19531-0.13281 0.50391-0.20312 0.92188-0.20312h0.45312v-0.0625c0-0.125-0.046875-0.21094-0.14062-0.26562-0.09375-0.0625-0.24609-0.09375-0.45312-0.09375-0.16797 0-0.32422 0.023437-0.46875 0.0625-0.13672 0.03125-0.26172 0.078125-0.375 0.14062v-0.59375c0.15625-0.03125 0.31641-0.054688 0.48438-0.078125 0.16406-0.019531 0.33203-0.03125 0.5-0.03125 0.4375 0 0.75 0.085937 0.9375 0.25 0.19531 0.16797 0.29688 0.44531 0.29688 0.82812z"
         id="path3640" /></symbol><symbol
       id="b-3"
       overflow="visible"><path
         d="m1.2031-3.0781v0.67188h0.79688v0.54688h-0.79688v1.0312c0 0.10547 0.019531 0.17969 0.0625 0.21875 0.050781 0.042969 0.14062 0.0625 0.26562 0.0625h0.40625v0.54688h-0.65625c-0.3125 0-0.53125-0.0625-0.65625-0.1875s-0.1875-0.33594-0.1875-0.64062v-1.0312h-0.375v-0.54688h0.375v-0.67188z"
         id="path3643" /></symbol><symbol
       id="j-5"
       overflow="visible"><path
         d="m2-2.0469v-1.2812h0.78125v3.3281h-0.78125v-0.34375c-0.10547 0.13672-0.21875 0.24219-0.34375 0.3125-0.125 0.0625-0.27344 0.09375-0.4375 0.09375-0.30469 0-0.54688-0.11328-0.73438-0.34375-0.1875-0.23828-0.28125-0.54688-0.28125-0.92188 0-0.36328 0.09375-0.66016 0.28125-0.89062 0.1875-0.23828 0.42969-0.35938 0.73438-0.35938 0.15625 0 0.29688 0.03125 0.42188 0.09375 0.13281 0.0625 0.25391 0.16797 0.35938 0.3125zm-0.5 1.5469c0.16406 0 0.28906-0.054688 0.375-0.17188 0.082031-0.125 0.125-0.30078 0.125-0.53125 0-0.22656-0.042969-0.39844-0.125-0.51562-0.085938-0.125-0.21094-0.1875-0.375-0.1875-0.16797 0-0.29297 0.0625-0.375 0.1875-0.085938 0.11719-0.125 0.28906-0.125 0.51562 0 0.23047 0.039062 0.40625 0.125 0.53125 0.082031 0.11719 0.20703 0.17188 0.375 0.17188z"
         id="path3646" /></symbol><symbol
       id="i-6"
       overflow="visible"><path
         d="m1.6406-0.5c0.16406 0 0.28906-0.054688 0.375-0.17188 0.09375-0.125 0.14062-0.30078 0.14062-0.53125 0-0.22656-0.046875-0.39844-0.14062-0.51562-0.085937-0.125-0.21094-0.1875-0.375-0.1875-0.15625 0-0.28125 0.0625-0.375 0.1875-0.085937 0.11719-0.125 0.28906-0.125 0.51562 0 0.23047 0.039063 0.40625 0.125 0.53125 0.09375 0.11719 0.21875 0.17188 0.375 0.17188zm-0.5-1.5469c0.10156-0.14453 0.21875-0.25 0.34375-0.3125 0.13281-0.0625 0.28516-0.09375 0.45312-0.09375 0.28906 0 0.53125 0.12109 0.71875 0.35938 0.19531 0.23047 0.29688 0.52734 0.29688 0.89062 0 0.375-0.10156 0.68359-0.29688 0.92188-0.1875 0.23047-0.42969 0.34375-0.71875 0.34375-0.16797 0-0.32031-0.03125-0.45312-0.09375-0.125-0.070312-0.24219-0.17578-0.34375-0.3125v0.34375h-0.76562v-3.3281h0.76562z"
         id="path3649" /></symbol><symbol
       id="h-2"
       overflow="visible"><path
         d="m0.046875-2.4062h0.78125l0.64062 1.6406 0.54688-1.6406h0.76562l-1.0156 2.6406c-0.09375 0.25781-0.21094 0.44141-0.34375 0.54688-0.13672 0.11328-0.3125 0.17188-0.53125 0.17188h-0.45312v-0.51562h0.23438c0.13281 0 0.22656-0.023438 0.28125-0.0625 0.0625-0.042969 0.11328-0.11719 0.15625-0.21875l0.015625-0.0625z"
         id="path3652" /></symbol><symbol
       id="g-9"
       overflow="visible"><path
         d="m0.40625-3.2031h2.2188v0.625h-1.3906v0.59375h1.3125v0.625h-1.3125v0.73438h1.4375v0.625h-2.2656z"
         id="path3655" /></symbol><symbol
       id="f-1"
       overflow="visible"><path
         d="m2.7812-1.4688v1.4688h-0.76562v-1.125c0-0.20703-0.007813-0.34766-0.015625-0.42188-0.011719-0.082031-0.027344-0.14062-0.046875-0.17188-0.03125-0.050781-0.074219-0.085938-0.125-0.10938-0.054687-0.03125-0.10938-0.046875-0.17188-0.046875-0.16797 0-0.29688 0.0625-0.39062 0.1875-0.085937 0.11719-0.125 0.28125-0.125 0.5v1.1875h-0.76562v-2.4062h0.76562v0.35938c0.11328-0.14453 0.23438-0.25 0.35938-0.3125 0.13281-0.0625 0.28125-0.09375 0.4375-0.09375 0.28125 0 0.48828 0.085937 0.625 0.25 0.14453 0.16797 0.21875 0.41406 0.21875 0.73438z"
         id="path3658" /></symbol><symbol
       id="t-2"
       overflow="visible"><path
         d="m1.9531 0.0625h-0.0625c-0.53125 0-0.94531-0.14453-1.2344-0.4375-0.29297-0.28906-0.4375-0.69531-0.4375-1.2188 0-0.51953 0.14453-0.92578 0.4375-1.2188 0.28906-0.30078 0.69141-0.45312 1.2031-0.45312 0.51953 0 0.92578 0.14844 1.2188 0.4375 0.28906 0.29297 0.4375 0.70312 0.4375 1.2344 0 0.35547-0.078125 0.66406-0.23438 0.92188-0.15625 0.26172-0.375 0.46094-0.65625 0.59375l0.64062 0.71875h-0.79688zm-0.09375-2.7188c-0.25 0-0.44531 0.09375-0.57812 0.28125-0.13672 0.17969-0.20312 0.4375-0.20312 0.78125s0.066406 0.60938 0.20312 0.79688c0.13281 0.17969 0.32812 0.26562 0.57812 0.26562 0.25781 0 0.45703-0.09375 0.59375-0.28125 0.13281-0.1875 0.20312-0.44531 0.20312-0.78125 0-0.34375-0.070312-0.60156-0.20312-0.78125-0.13672-0.1875-0.33594-0.28125-0.59375-0.28125z"
         id="path3661" /></symbol><symbol
       id="s-7"
       overflow="visible"><path
         d="m0.375-2.4062h0.76562v2.4062h-0.76562zm0-0.92188h0.76562v0.625h-0.76562z"
         id="path3664" /></symbol><symbol
       id="e-0"
       overflow="visible"><path
         d="m0.34375-0.9375v-1.4688h0.76562v0.25 0.48438 0.39062c0 0.19922 0.003906 0.33984 0.015625 0.42188 0.007812 0.085937 0.023438 0.14844 0.046875 0.1875 0.03125 0.054687 0.070313 0.09375 0.125 0.125 0.050781 0.023437 0.10938 0.03125 0.17188 0.03125 0.16406 0 0.28906-0.0625 0.375-0.1875 0.09375-0.125 0.14062-0.29688 0.14062-0.51562v-1.1875h0.76562v2.4062h-0.76562v-0.34375c-0.11719 0.13672-0.24219 0.24219-0.375 0.3125-0.125 0.0625-0.26562 0.09375-0.42188 0.09375-0.27344 0-0.48047-0.082031-0.625-0.25-0.14844-0.17578-0.21875-0.42578-0.21875-0.75z"
         id="path3667" /></symbol><symbol
       id="r-9"
       overflow="visible"><path
         d="m1.9531-3.3281v0.5h-0.42188c-0.11719 0-0.19531 0.023437-0.23438 0.0625-0.042969 0.03125-0.0625 0.10156-0.0625 0.20312v0.15625h0.65625v0.54688h-0.65625v1.8594h-0.76562v-1.8594h-0.39062v-0.54688h0.39062v-0.15625c0-0.25781 0.070312-0.45312 0.21875-0.57812 0.14453-0.125 0.36719-0.1875 0.67188-0.1875z"
         id="path3670" /></symbol><symbol
       id="d-3"
       overflow="visible"><path
         d="m1.5156-1.9062c-0.17969 0-0.3125 0.0625-0.40625 0.1875-0.085937 0.11719-0.125 0.28906-0.125 0.51562 0 0.23047 0.039063 0.40625 0.125 0.53125 0.09375 0.125 0.22656 0.1875 0.40625 0.1875 0.16406 0 0.28906-0.0625 0.375-0.1875 0.09375-0.125 0.14062-0.30078 0.14062-0.53125 0-0.22656-0.046875-0.39844-0.14062-0.51562-0.085937-0.125-0.21094-0.1875-0.375-0.1875zm0-0.54688c0.40625 0 0.72266 0.10938 0.95312 0.32812 0.23828 0.21875 0.35938 0.52734 0.35938 0.92188 0 0.39844-0.12109 0.71094-0.35938 0.9375-0.23047 0.21875-0.54688 0.32812-0.95312 0.32812-0.41797 0-0.74609-0.10938-0.98438-0.32812-0.23047-0.22656-0.34375-0.53906-0.34375-0.9375 0-0.39453 0.11328-0.70312 0.34375-0.92188 0.23828-0.21875 0.56641-0.32812 0.98438-0.32812z"
         id="path3673" /></symbol><symbol
       id="q-6"
       overflow="visible"><path
         d="m2.5938-2c0.09375-0.14453 0.20703-0.25391 0.34375-0.32812 0.13281-0.082031 0.28125-0.125 0.4375-0.125 0.28125 0 0.49219 0.085937 0.64062 0.25 0.14453 0.16797 0.21875 0.41406 0.21875 0.73438v1.4688h-0.78125v-1.25-0.0625-0.078125c0-0.17578-0.027344-0.30078-0.078125-0.375-0.042969-0.070313-0.12109-0.10938-0.23438-0.10938-0.14844 0-0.26172 0.0625-0.34375 0.1875-0.074219 0.11719-0.10938 0.28906-0.10938 0.51562v1.1719h-0.78125v-1.25c0-0.26953-0.027344-0.44141-0.078125-0.51562-0.042969-0.070313-0.12109-0.10938-0.23438-0.10938-0.14844 0-0.26172 0.0625-0.34375 0.1875-0.074219 0.11719-0.10938 0.28125-0.10938 0.5v1.1875h-0.78125v-2.4062h0.78125v0.35938c0.09375-0.13281 0.19531-0.23438 0.3125-0.29688 0.125-0.070312 0.25781-0.10938 0.40625-0.10938 0.16406 0 0.3125 0.042969 0.4375 0.125 0.13281 0.074219 0.23438 0.18359 0.29688 0.32812z"
         id="path3676" /></symbol><symbol
       id="p-0"
       overflow="visible"><path
         d="m2.7812-1.4688v1.4688h-0.76562v-1.1094c0-0.21875-0.007813-0.36328-0.015625-0.4375-0.011719-0.082031-0.027344-0.14062-0.046875-0.17188-0.03125-0.050781-0.074219-0.085938-0.125-0.10938-0.054687-0.03125-0.10938-0.046875-0.17188-0.046875-0.16797 0-0.29688 0.0625-0.39062 0.1875-0.085937 0.11719-0.125 0.28125-0.125 0.5v1.1875h-0.76562v-3.3281h0.76562v1.2812c0.11328-0.14453 0.23438-0.25 0.35938-0.3125 0.13281-0.0625 0.28125-0.09375 0.4375-0.09375 0.28125 0 0.48828 0.085937 0.625 0.25 0.14453 0.16797 0.21875 0.41406 0.21875 0.73438z"
         id="path3679" /></symbol><symbol
       id="o-6"
       overflow="visible"><path
         d="m0.40625-3.2031h0.92188l1.1562 2.2031v-2.2031h0.78125v3.2031h-0.92188l-1.1562-2.2031v2.2031h-0.78125z"
         id="path3682" /></symbol><symbol
       id="n-2"
       overflow="visible"><path
         d="m0.40625-3.2031h1.3594c0.41406 0 0.72656 0.09375 0.9375 0.28125 0.21875 0.17969 0.32812 0.43359 0.32812 0.76562 0 0.33594-0.10938 0.59375-0.32812 0.78125-0.21094 0.17969-0.52344 0.26562-0.9375 0.26562h-0.53125v1.1094h-0.82812zm0.82812 0.59375v0.90625h0.45312c0.15625 0 0.27344-0.035156 0.35938-0.10938 0.09375-0.082031 0.14062-0.19531 0.14062-0.34375 0-0.14453-0.046875-0.25391-0.14062-0.32812-0.085937-0.082031-0.20312-0.125-0.35938-0.125z"
         id="path3685" /></symbol><symbol
       id="m-6"
       overflow="visible"><path
         d="m0.375-2.4062h0.76562v2.3594c0 0.32031-0.078125 0.56641-0.23438 0.73438-0.15625 0.17578-0.38281 0.26562-0.67188 0.26562h-0.375v-0.51562h0.125c0.14453 0 0.24219-0.03125 0.29688-0.09375 0.0625-0.0625 0.09375-0.19531 0.09375-0.39062zm0-0.92188h0.76562v0.625h-0.76562z"
         id="path3688" /></symbol><symbol
       id="l-1"
       overflow="visible"><path
         d="m2.3125-2.3281v0.625c-0.10547-0.070313-0.21094-0.125-0.3125-0.15625-0.10547-0.03125-0.21484-0.046875-0.32812-0.046875-0.21875 0-0.39062 0.0625-0.51562 0.1875-0.11719 0.125-0.17188 0.29688-0.17188 0.51562 0 0.23047 0.054687 0.40625 0.17188 0.53125 0.125 0.125 0.29688 0.1875 0.51562 0.1875 0.11328 0 0.22266-0.015625 0.32812-0.046875 0.11328-0.039062 0.21875-0.097656 0.3125-0.17188v0.625c-0.125 0.054688-0.25 0.085938-0.375 0.10938-0.11719 0.019531-0.23438 0.03125-0.35938 0.03125-0.4375 0-0.78125-0.10938-1.0312-0.32812-0.24219-0.22656-0.35938-0.53906-0.35938-0.9375 0-0.39453 0.11719-0.70312 0.35938-0.92188 0.25-0.21875 0.59375-0.32812 1.0312-0.32812 0.125 0 0.24219 0.011719 0.35938 0.03125 0.125 0.023437 0.25 0.054687 0.375 0.09375z"
         id="path3691" /></symbol><filter
       style="color-interpolation-filters:sRGB;"
       inkscape:label="Drop Shadow"
       id="filter5155"
       x="-0.17872026"
       y="-0.23829601"
       width="1.3574405"
       height="1.476592"><feFlood
         flood-opacity="1"
         flood-color="rgb(58,63,94)"
         result="flood"
         id="feFlood5145" /><feComposite
         in="flood"
         in2="SourceGraphic"
         operator="out"
         result="composite1"
         id="feComposite5147" /><feGaussianBlur
         in="composite1"
         stdDeviation="4.76592"
         result="blur"
         id="feGaussianBlur5149" /><feOffset
         dx="0"
         dy="0"
         result="offset"
         id="feOffset5151" /><feComposite
         in="offset"
         in2="SourceGraphic"
         operator="atop"
         result="composite2"
         id="feComposite5153" /></filter><filter
       style="color-interpolation-filters:sRGB;"
       inkscape:label="Drop Shadow"
       id="filter5388"
       x="-0.07315114"
       y="-0.057241128"
       width="1.1463023"
       height="1.1144823"><feFlood
         flood-opacity="1"
         flood-color="rgb(58,63,94)"
         result="flood"
         id="feFlood5378" /><feComposite
         in="flood"
         in2="SourceGraphic"
         operator="out"
         result="composite1"
         id="feComposite5380" /><feGaussianBlur
         in="composite1"
         stdDeviation="4.76592"
         result="blur"
         id="feGaussianBlur5382" /><feOffset
         dx="0"
         dy="0"
         result="offset"
         id="feOffset5384" /><feComposite
         in="offset"
         in2="SourceGraphic"
         operator="atop"
         result="composite2"
         id="feComposite5386" /></filter></defs><path
     d="M0 0h512v512H0z"
     fill="#1b1f21"
     fill-opacity="0"
     id="path15" /><style
     type="text/css"
     id="style347">
	.st0{fill:none;stroke:#000000;stroke-width:2;stroke-linecap:round;stroke-linejoin:round;stroke-miterlimit:10;}
</style><g
     id="g424"
     transform="matrix(0.24952766,0,0,0.24952766,397.42612,408.20544)" /><g
     style="fill:#000000"
     id="g2405"
     transform="matrix(3.4559185,0,0,3.3412024,166.14612,191.39935)"><g
       id="g2389">
	
</g></g><g
     style="fill:#000000"
     id="g2738"
     transform="matrix(0.3773265,0,0,0.3773265,159.4045,165.97282)"><g
       id="g2674">
	<g
   id="g2672">
		
	</g>
</g><g
       id="g2680">
	<g
   id="g2678">
		
	</g>
</g><g
       id="g2686">
	<g
   id="g2684">
		
	</g>
</g><g
       id="g2692">
	<g
   id="g2690">
		
	</g>
</g><g
       id="g2698">
	<g
   id="g2696">
		
	</g>
</g><g
       id="g2704">
	<g
   id="g2702">
		
	</g>
</g><g
       id="g2710">
	<g
   id="g2708">
		
	</g>
</g></g><g
     id="g4287"
     transform="matrix(1.3039993,0,0,1.3039993,-73.734209,-57.90765)" /><g
     style="fill:#ff0ec0;fill-opacity:1;filter:url(#filter5388)"
     id="g5364"
     transform="matrix(2.1837666,0,0,2.1837666,37.816084,37.81442)"><path
       d="m 177.949,187.906 c -0.961,-5.162 -6.303,-8.913 -11.933,-12.197 -11.391,-6.645 -19.979,-17.476 -25.528,-32.191 C 135.846,131.205 127.363,113.766 119.879,98.379 115.021,88.392 110.826,79.766 108.876,74.956 104.11,63.199 102.19,50.938 100.491,38.363 98.837,26.127 94.855,3.531 94.815,3.304 94.478,1.394 92.817,0 90.876,0 H 25.73 c -1.452,0 -2.79,0.787 -3.496,2.056 -0.706,1.269 -0.668,2.82 0.097,4.054 9.832,15.841 35.52,60.527 36.297,76.854 0.444,9.326 -1.289,18.02 -2.818,25.689 -1.875,9.402 -3.493,17.521 -0.467,24.007 5.787,12.401 14.891,14.291 24.499,15.252 l 0.824,0.082 c 9.529,0.945 17.056,1.692 24.088,10.131 2.91,3.493 5.358,7.375 7.725,11.129 4.354,6.905 8.467,13.428 15.01,17.063 5.18,2.877 9.652,3.967 13.598,4.928 3.383,0.824 6.578,1.603 10.099,3.434 4.894,2.544 10.565,5.146 15.528,5.146 0,0 0,0 0,0 3.722,0 6.852,-1.453 9.051,-4.202 2.427,-3.034 2.527,-5.871 2.184,-7.717 z m -80.48,-77.515 c -2.832,3.587 -8.473,5.967 -13.862,5.967 -0.52,0 -1.037,-0.022 -1.55,-0.067 -4.757,-0.421 -8.488,-2.726 -10.504,-6.489 -3.751,-7.002 -1.611,-17.975 -0.697,-22.66 0.106,-0.543 0.192,-0.961 0.23,-1.222 0.125,-2.096 1.865,-3.757 3.993,-3.757 2.209,0 4,1.791 4,4 0,0.61 -0.116,1.206 -0.371,2.51 -0.621,3.182 -2.509,12.861 -0.104,17.352 0.72,1.344 2.119,2.117 4.157,2.298 3.433,0.289 7.132,-1.248 8.427,-2.888 1.37,-1.734 3.885,-2.029 5.618,-0.661 1.735,1.368 2.031,3.883 0.663,5.617 z"
       id="path5356"
       style="fill:#ff0ec0;fill-opacity:1" /></g></svg>
