<?xml version="1.0" encoding="UTF-8" standalone="no"?>
<!-- Created with Inkscape (http://www.inkscape.org/) -->

<svg
   version="1.1"
   id="svg2"
   width="512"
   height="512"
   viewBox="0 0 512 512"
   sodipodi:docname="broken_arm.svg"
   inkscape:version="1.1.1 (3bf5ae0d25, 2021-09-20)"
   xmlns:inkscape="http://www.inkscape.org/namespaces/inkscape"
   xmlns:sodipodi="http://sodipodi.sourceforge.net/DTD/sodipodi-0.dtd"
   xmlns="http://www.w3.org/2000/svg"
   xmlns:svg="http://www.w3.org/2000/svg">
  <defs
     id="defs6">
    <filter
       style="color-interpolation-filters:sRGB;"
       inkscape:label="Drop Shadow"
       id="filter1456"
       x="-0.25219632"
       y="-0.15892701"
       width="1.4910013"
       height="1.3094353">
      <feFlood
         flood-opacity="1"
         flood-color="rgb(58,63,94)"
         result="flood"
         id="feFlood1446" />
      <feComposite
         in="flood"
         in2="SourceGraphic"
         operator="out"
         result="composite1"
         id="feComposite1448" />
      <feGaussianBlur
         in="composite1"
         stdDeviation="15"
         result="blur"
         id="feGaussianBlur1450" />
      <feOffset
         dx="0"
         dy="0"
         result="offset"
         id="feOffset1452" />
      <feComposite
         in="offset"
         in2="SourceGraphic"
         operator="atop"
         result="composite2"
         id="feComposite1454" />
    </filter>
    <filter
       style="color-interpolation-filters:sRGB;"
       inkscape:label="Drop Shadow"
       id="filter1136"
       x="-0.16303705"
       y="-0.19223271"
       width="1.3174932"
       height="1.3743479">
      <feFlood
         flood-opacity="1"
         flood-color="rgb(58,63,94)"
         result="flood"
         id="feFlood1126" />
      <feComposite
         in="flood"
         in2="SourceGraphic"
         operator="out"
         result="composite1"
         id="feComposite1128" />
      <feGaussianBlur
         in="composite1"
         stdDeviation="15"
         result="blur"
         id="feGaussianBlur1130" />
      <feOffset
         dx="0"
         dy="0"
         result="offset"
         id="feOffset1132" />
      <feComposite
         in="offset"
         in2="SourceGraphic"
         operator="atop"
         result="composite2"
         id="feComposite1134" />
    </filter>
    <filter
       style="color-interpolation-filters:sRGB;"
       inkscape:label="Drop Shadow"
       id="filter947"
       x="-0.060355287"
       y="-0.071163335"
       width="1.1207106"
       height="1.1423267">
      <feFlood
         flood-opacity="1"
         flood-color="rgb(58,63,94)"
         result="flood"
         id="feFlood937" />
      <feComposite
         in="flood"
         in2="SourceGraphic"
         operator="out"
         result="composite1"
         id="feComposite939" />
      <feGaussianBlur
         in="composite1"
         stdDeviation="11.7228"
         result="blur"
         id="feGaussianBlur941" />
      <feOffset
         dx="0"
         dy="0"
         result="offset"
         id="feOffset943" />
      <feComposite
         in="offset"
         in2="SourceGraphic"
         operator="atop"
         result="composite2"
         id="feComposite945" />
    </filter>
  </defs>
  <sodipodi:namedview
     id="namedview4"
     pagecolor="#505050"
     bordercolor="#eeeeee"
     borderopacity="1"
     inkscape:pageshadow="0"
     inkscape:pageopacity="0"
     inkscape:pagecheckerboard="0"
     showgrid="false"
     inkscape:zoom="1"
     inkscape:cx="343.5"
     inkscape:cy="257.5"
     inkscape:window-width="1716"
     inkscape:window-height="1414"
     inkscape:window-x="3160"
     inkscape:window-y="587"
     inkscape:window-maximized="1"
     inkscape:current-layer="g12" />
  <g
     inkscape:groupmode="layer"
     inkscape:label="Image"
     id="g8">
    <g
       id="g12"
       style="fill:#000000;fill-opacity:1;stroke:#ffffff;stroke-width:100;stroke-miterlimit:4;stroke-dasharray:none;stroke-opacity:1;paint-order:markers stroke fill"
       transform="translate(-39.671441,-9.8787708)">
      <g
         id="g882"
         transform="translate(676.96757,135.4308)">
        <g
           class=""
           id="g871" />
      </g>
      <g
         id="g874"
         transform="translate(39.671441,9.8787708)">
        <path
           d="M 0,0 H 512 V 512 H 0 Z"
           fill="#b90202"
           fill-opacity="1"
           id="path2"
           style="fill:#1b1f21;fill-opacity:0;stroke:none" />
      </g>
      <path
         id="path2798"
         style="mix-blend-mode:normal;fill:#ff0ec0;fill-opacity:1;stroke:none;stroke-width:70.5077;stroke-linecap:butt;stroke-linejoin:round;stroke-miterlimit:4;stroke-dasharray:none;stroke-opacity:1;paint-order:markers stroke fill;filter:url(#filter947)"
         d="m 120.58525,68.202346 c -2.40482,-0.01217 -4.72639,0.145694 -6.92639,0.444832 -38.962601,8.678727 -52.953543,47.211072 -50.861573,59.399272 3.457722,15.52322 15.917829,35.29499 34.251997,40.9321 18.781186,37.05028 101.463386,84.59296 119.930676,86.72681 0,0 -0.80514,43.80603 5.00578,53.88947 3.95328,5.90465 53.28298,24.30975 87.58019,24.73492 2.9347,0.0364 60.94396,30.78533 85.18994,41.60984 0.0938,11.26531 3.09207,21.07631 6.80035,30.53107 -7.08959,20.27903 5.00686,24.60955 8.5435,45.45486 2.26599,7.4667 14.54563,3.98134 14.30331,-8.10814 -6.43741,-16.40172 -5.44321,-32.0378 1.85565,-31.55055 l 22.72843,19.75012 34.20429,30.86708 c 3.95245,2.54852 15.3889,-2.47342 10.70452,-9.66983 l -30.08244,-34.2329 1.76025,-1.84996 50.32318,34.13935 c 4.07375,2.68777 13.40334,-7.55229 8.90243,-11.45679 l -47.16933,-32.08702 1.83474,-1.51205 41.79883,16.07502 c 4.80384,1.99136 11.21193,-8.43221 4.75566,-11.19715 l -41.20131,-20.08804 26.67845,6.70111 c 3.62236,0.40087 5.6736,-7.2065 1.64373,-8.02032 L 481.27837,378.07019 C 464.19871,369.59495 442.08453,353.60131 421.88865,353.87176 398.18748,331.04787 363.44443,291.354 351.1376,285.08904 l -81.21891,-3.41166 2.71098,-80.72443 C 237.26443,148.61077 208.10625,133.88097 169.65603,104.24322 158.30084,76.758041 137.41893,68.287543 120.58525,68.202346 Z m 198.30496,51.472504 -16.5695,95.23395 c 0.75511,0.18525 61.32172,-69.3059 60.9457,-69.92631 -0.32786,-0.54095 -44.3762,-25.30764 -44.3762,-25.30764 z m 99.05224,83.22542 -68.70255,52.80127 81.65039,-3.72474 c 0.81776,-0.49556 -12.01346,-49.1299 -12.94784,-49.07653 z m -182.81605,144.92904 -77.76718,45.76988 36.04087,31.71474 z" />
    </g>
  </g>
</svg>
