<?xml version="1.0" encoding="UTF-8" standalone="no"?>
<!-- Created with Inkscape (http://www.inkscape.org/) -->

<svg
   version="1.1"
   id="svg2"
   width="512"
   height="512"
   viewBox="0 0 512 512"
   sodipodi:docname="broken_jaw.svg"
   inkscape:version="1.1.1 (3bf5ae0d25, 2021-09-20)"
   xmlns:inkscape="http://www.inkscape.org/namespaces/inkscape"
   xmlns:sodipodi="http://sodipodi.sourceforge.net/DTD/sodipodi-0.dtd"
   xmlns="http://www.w3.org/2000/svg"
   xmlns:svg="http://www.w3.org/2000/svg">
  <defs
     id="defs6">
    <filter
       style="color-interpolation-filters:sRGB;"
       inkscape:label="Drop Shadow"
       id="filter1456"
       x="-0.25219632"
       y="-0.15892701"
       width="1.4910013"
       height="1.3094353">
      <feFlood
         flood-opacity="1"
         flood-color="rgb(58,63,94)"
         result="flood"
         id="feFlood1446" />
      <feComposite
         in="flood"
         in2="SourceGraphic"
         operator="out"
         result="composite1"
         id="feComposite1448" />
      <feGaussianBlur
         in="composite1"
         stdDeviation="15"
         result="blur"
         id="feGaussianBlur1450" />
      <feOffset
         dx="0"
         dy="0"
         result="offset"
         id="feOffset1452" />
      <feComposite
         in="offset"
         in2="SourceGraphic"
         operator="atop"
         result="composite2"
         id="feComposite1454" />
    </filter>
    <filter
       style="color-interpolation-filters:sRGB;"
       inkscape:label="Drop Shadow"
       id="filter1118"
       x="-0.18415702"
       y="-0.20966696"
       width="1.3586216"
       height="1.4082988">
      <feFlood
         flood-opacity="1"
         flood-color="rgb(58,63,94)"
         result="flood"
         id="feFlood1108" />
      <feComposite
         in="flood"
         in2="SourceGraphic"
         operator="out"
         result="composite1"
         id="feComposite1110" />
      <feGaussianBlur
         in="composite1"
         stdDeviation="15"
         result="blur"
         id="feGaussianBlur1112" />
      <feOffset
         dx="0"
         dy="0"
         result="offset"
         id="feOffset1114" />
      <feComposite
         in="offset"
         in2="SourceGraphic"
         operator="atop"
         result="composite2"
         id="feComposite1116" />
    </filter>
    <filter
       style="color-interpolation-filters:sRGB;"
       inkscape:label="Drop Shadow"
       id="filter947"
       x="-0.068173769"
       y="-0.077617386"
       width="1.1363475"
       height="1.1552348">
      <feFlood
         flood-opacity="1"
         flood-color="rgb(58,63,94)"
         result="flood"
         id="feFlood937" />
      <feComposite
         in="flood"
         in2="SourceGraphic"
         operator="out"
         result="composite1"
         id="feComposite939" />
      <feGaussianBlur
         in="composite1"
         stdDeviation="11.7228"
         result="blur"
         id="feGaussianBlur941" />
      <feOffset
         dx="0"
         dy="0"
         result="offset"
         id="feOffset943" />
      <feComposite
         in="offset"
         in2="SourceGraphic"
         operator="atop"
         result="composite2"
         id="feComposite945" />
    </filter>
  </defs>
  <sodipodi:namedview
     id="namedview4"
     pagecolor="#505050"
     bordercolor="#eeeeee"
     borderopacity="1"
     inkscape:pageshadow="0"
     inkscape:pageopacity="0"
     inkscape:pagecheckerboard="0"
     showgrid="false"
     inkscape:zoom="1.2788086"
     inkscape:cx="303.79839"
     inkscape:cy="230.29248"
     inkscape:window-width="1716"
     inkscape:window-height="1414"
     inkscape:window-x="3160"
     inkscape:window-y="587"
     inkscape:window-maximized="1"
     inkscape:current-layer="g827" />
  <g
     inkscape:groupmode="layer"
     inkscape:label="Image"
     id="g8">
    <g
       id="g827"
       style="fill:#000000">
      <g
         id="g874">
        <path
           d="M 0,0 H 512 V 512 H 0 Z"
           fill="#b90202"
           fill-opacity="1"
           id="path2"
           style="fill:#1b1f21;fill-opacity:0" />
      </g>
      <g
         id="g882"
         transform="matrix(-1.1144873,0,0,1.1144873,574.32246,-16.250032)"
         style="fill:#ff0ec0;fill-opacity:1;stroke:none;filter:url(#filter947)">
        <g
           class=""
           id="g871"
           transform="matrix(0.8606564,0,0,0.8606564,-21.831267,40.169755)"
           style="fill:#ff0ec0;fill-opacity:1;stroke:none">
          <path
             id="path869"
             style="fill:#ff0ec0;fill-opacity:1;stroke:none;stroke-width:60;stroke-linejoin:round;stroke-miterlimit:4;stroke-dasharray:none;stroke-opacity:1;paint-order:markers stroke fill"
             d="m -245.10938,4.9101562 c -23.05693,-0.7375715 -45.84948,11.0817268 -56.60937,41.2773438 40.61959,75.46267 28.35158,118.62386 -12.5,143.64258 l -0.67773,13.48828 -16.71875,18.01758 12.06445,11.16992 -30.88281,23.06641 2.9082,3.89257 c 49.53312,-20.2145 102.87636,-37.04933 150.32227,-47.63867 -29.25844,-77.10634 -25.16436,-120.933613 9.5996,-174.019529 -6.4504,-10.404501 -16.02481,-18.893631 -27.00195,-24.654297 h -0.004 c -9.48439,-4.9777356 -20.01957,-7.906928 -30.5,-8.2421878 z M -564.74609,42.388672 c -1.96456,0.137016 -4.19632,0.683457 -6.63282,1.841797 -4.588,2.182375 -9.30092,6.243878 -12.24414,10.660156 -2.94435,4.415873 -4.01244,8.836868 -3.27734,12.222656 0.73475,3.385007 2.98238,6.958925 10.74609,10.40625 8.33871,3.702398 12.27861,3.191587 12.54297,3.072266 0.13136,-0.05835 0.0218,0.12235 0.33399,-0.503906 0.31062,-0.625568 0.74333,-2.083338 0.9375,-4.201172 0.66215,-7.225125 -1.63443,-20.433042 -2.40625,-33.498047 z m 31.33398,21.1875 c -2.85842,0.0012 -4.90373,0.815046 -6.58984,1.933594 -2.99647,1.990887 -5.37106,5.925266 -6.41211,11.097656 -1.04018,5.170109 -0.57869,11.255764 1.12695,15.898437 1.70564,4.642674 4.32653,7.447682 7.04492,8.417971 2.59885,0.92509 6.54151,0.44093 10.95313,-2.082033 4.41161,-2.522954 8.78652,-6.948328 11.38867,-11.574219 2.60172,-4.624746 3.32212,-9.093323 2.33398,-12.412109 -0.12335,-0.415517 -0.27004,-0.830474 -0.44531,-1.248047 -0.17334,-0.417505 -0.37221,-0.835499 -0.62109,-1.251953 -1.49789,-2.490026 -4.42135,-4.930962 -10.42188,-7.070313 -3.41988,-1.219265 -6.1342,-1.709897 -8.35742,-1.708984 z m -63.43164,18.380859 c -10.67556,32.342439 4.90374,70.985849 26.36133,106.578129 39.08947,2.25266 86.91749,12.37694 135.5,27.01757 l 0.1875,-4.85546 38.51758,1.49023 -2.35547,-16.27344 24.33008,-3.49218 9.00976,-10.06055 c -5.09548,-0.66962 -10.31046,-1.70029 -15.64258,-3.07617 -4.28272,3.21642 -9.08307,5.70856 -14.13086,7.26562 -7.91022,2.44119 -16.90366,2.65793 -24.47265,-2.11523 -7.60512,-4.79462 -11.30323,-13.052 -12.38867,-21.23047 -0.0676,-0.51153 -0.11665,-1.03375 -0.16602,-1.54688 -7.19879,3.84998 -15.8279,5.7498 -24.07227,2.63086 -8.40832,-3.18091 -13.69385,-10.5334 -16.39062,-18.33203 -0.86661,-2.50774 -1.5049,-5.1156 -1.90625,-7.75781 -0.47116,0.29294 -0.92546,0.5974 -1.40625,0.87109 -7.18593,4.10857 -15.92046,6.26507 -24.34961,3.25977 -8.46752,-3.01917 -13.89538,-10.2521 -16.74023,-17.99805 -0.85455,-2.32622 -1.49291,-4.72394 -1.94141,-7.17773 -7.49679,3.03076 -16.94326,1.98754 -25.45703,-3.38086 -7.2635,-4.57962 -12.23553,-10.84777 -14.83789,-17.705081 -6.83939,2.1212 -14.343,0.203199 -23.48828,-3.859375 -5.94339,-2.63823 -10.71531,-6.163938 -14.16016,-10.251953 z m 106.87305,7.892578 c -2.85824,0.0016 -4.90373,0.815046 -6.58985,1.933594 -2.99647,1.990888 -5.37106,5.927228 -6.41211,11.099607 -1.04018,5.17012 -0.57868,11.25578 1.12696,15.89844 1.70564,4.64267 4.32654,7.44573 7.04492,8.41602 2.59885,0.9251 6.54151,0.44287 10.95312,-2.08008 4.41162,-2.52297 8.78652,-6.95028 11.38868,-11.57617 2.60173,-4.62475 3.32212,-9.09333 2.33398,-12.41211 -0.12334,-0.41551 -0.27199,-0.82852 -0.44727,-1.246098 -0.17333,-0.417495 -0.37213,-0.837477 -0.62109,-1.253906 -1.49789,-2.490016 -4.41939,-4.930961 -10.41992,-7.070312 -3.41989,-1.219269 -6.13435,-1.710226 -8.35742,-1.708985 z m 45.05468,22.126951 c -2.86119,-0.0546 -4.92474,0.71712 -6.63281,1.80469 -3.03378,1.93125 -5.49599,5.84177 -6.63476,10.99219 -1.13879,5.15041 -0.77909,11.23602 0.83593,15.91015 1.61731,4.67499 4.17246,7.53388 6.87305,8.55469 2.57948,0.97634 6.52179,0.54883 10.98047,-1.88867 4.45903,-2.43672 8.95277,-6.75824 11.64453,-11.33203 2.69106,-4.57537 3.48556,-9.03136 2.5625,-12.36914 -0.17315,-0.62627 -0.38353,-1.27494 -0.68359,-1.90625 -0.10067,-0.21047 -0.21678,-0.40551 -0.33789,-0.61524 -1.4486,-2.51888 -4.32102,-5.02839 -10.2793,-7.28125 -3.39571,-1.2847 -6.10275,-1.82664 -8.32813,-1.86914 z m 44.24414,23.13477 c -1.6085,-0.029 -2.99199,0.28525 -4.25195,0.76758 -3.35917,1.28776 -6.5492,4.62288 -8.69336,9.44336 -2.14365,4.81741 -3.01008,10.85614 -2.35937,15.75781 0.65176,4.90402 2.57792,8.20706 5.01953,9.74609 2.33294,1.47194 6.28971,1.86643 11.14453,0.36719 4.85474,-1.49731 10.12378,-4.85069 13.67383,-8.79492 3.55014,-3.94616 5.21235,-8.14614 4.97461,-11.60156 -0.0597,-0.86446 -0.20223,-1.77176 -0.50782,-2.69141 -0.11498,-0.34469 -0.25404,-0.70005 -0.41601,-1.05469 v 0.004 c -1.13154,-2.47126 -3.49694,-5.15375 -8.21289,-8.12696 -4.38653,-2.76614 -7.69025,-3.76813 -10.3711,-3.8164 z m -47.14062,92.45898 -95.09766,40.66407 26.17969,37.71484 z m 31.16797,27.46485 -65.56836,71.22461 45.84766,26.58398 z m 52.96289,21.27148 -40.13867,86.74024 52.47656,4.31054 z"
             transform="matrix(-1.1619039,0,0,1.1619039,-100.49954,20.908906)" />
        </g>
      </g>
    </g>
  </g>
</svg>
