<?xml version="1.0" encoding="UTF-8" standalone="no"?>
<!-- Created with Inkscape (http://www.inkscape.org/) -->

<svg
   version="1.1"
   id="svg2"
   width="512"
   height="512"
   viewBox="0 0 512 512"
   sodipodi:docname="concussion.svg"
   inkscape:version="1.1.1 (3bf5ae0d25, 2021-09-20)"
   xmlns:inkscape="http://www.inkscape.org/namespaces/inkscape"
   xmlns:sodipodi="http://sodipodi.sourceforge.net/DTD/sodipodi-0.dtd"
   xmlns="http://www.w3.org/2000/svg"
   xmlns:svg="http://www.w3.org/2000/svg">
  <defs
     id="defs6">
    <filter
       style="color-interpolation-filters:sRGB;"
       inkscape:label="Drop Shadow"
       id="filter889"
       x="-0.17629516"
       y="-0.16392974"
       width="1.3433116"
       height="1.3192316">
      <feFlood
         flood-opacity="1"
         flood-color="rgb(58,63,94)"
         result="flood"
         id="feFlood879" />
      <feComposite
         in="flood"
         in2="SourceGraphic"
         operator="out"
         result="composite1"
         id="feComposite881" />
      <feGaussianBlur
         in="composite1"
         stdDeviation="15"
         result="blur"
         id="feGaussianBlur883" />
      <feOffset
         dx="0"
         dy="0"
         result="offset"
         id="feOffset885" />
      <feComposite
         in="offset"
         in2="SourceGraphic"
         operator="atop"
         result="composite2"
         id="feComposite887" />
    </filter>
    <filter
       style="color-interpolation-filters:sRGB;"
       inkscape:label="Drop Shadow"
       id="filter1456"
       x="-0.25219632"
       y="-0.15892701"
       width="1.4910013"
       height="1.3094353">
      <feFlood
         flood-opacity="1"
         flood-color="rgb(58,63,94)"
         result="flood"
         id="feFlood1446" />
      <feComposite
         in="flood"
         in2="SourceGraphic"
         operator="out"
         result="composite1"
         id="feComposite1448" />
      <feGaussianBlur
         in="composite1"
         stdDeviation="15"
         result="blur"
         id="feGaussianBlur1450" />
      <feOffset
         dx="0"
         dy="0"
         result="offset"
         id="feOffset1452" />
      <feComposite
         in="offset"
         in2="SourceGraphic"
         operator="atop"
         result="composite2"
         id="feComposite1454" />
    </filter>
    <filter
       style="color-interpolation-filters:sRGB;"
       inkscape:label="Drop Shadow"
       id="filter965"
       x="-0.065263355"
       y="-0.060685755"
       width="1.1305267"
       height="1.1213715">
      <feFlood
         flood-opacity="1"
         flood-color="rgb(58,63,94)"
         result="flood"
         id="feFlood955" />
      <feComposite
         in="flood"
         in2="SourceGraphic"
         operator="out"
         result="composite1"
         id="feComposite957" />
      <feGaussianBlur
         in="composite1"
         stdDeviation="11.7228"
         result="blur"
         id="feGaussianBlur959" />
      <feOffset
         dx="0"
         dy="0"
         result="offset"
         id="feOffset961" />
      <feComposite
         in="offset"
         in2="SourceGraphic"
         operator="atop"
         result="composite2"
         id="feComposite963" />
    </filter>
  </defs>
  <sodipodi:namedview
     id="namedview4"
     pagecolor="#505050"
     bordercolor="#eeeeee"
     borderopacity="1"
     inkscape:pageshadow="0"
     inkscape:pageopacity="0"
     inkscape:pagecheckerboard="0"
     showgrid="false"
     inkscape:zoom="1.2788086"
     inkscape:cx="257.27071"
     inkscape:cy="270.17335"
     inkscape:window-width="1143"
     inkscape:window-height="1414"
     inkscape:window-x="3733"
     inkscape:window-y="587"
     inkscape:window-maximized="1"
     inkscape:current-layer="g827" />
  <g
     inkscape:groupmode="layer"
     inkscape:label="Image"
     id="g8">
    <g
       id="g827"
       style="fill:#000000">
      <g
         id="g1428"
         transform="matrix(0.48321537,0,0,0.48321537,-285.26778,214.42144)">
        <g
           id="g1364">
          <g
             id="g1362" />
        </g>
        <g
           id="g1370">
          <g
             id="g1368" />
        </g>
        <g
           id="g1372" />
        <g
           id="g1374" />
        <g
           id="g1376" />
        <g
           id="g1378" />
        <g
           id="g1380" />
        <g
           id="g1382" />
        <g
           id="g1384" />
        <g
           id="g1386" />
        <g
           id="g1388" />
        <g
           id="g1390" />
        <g
           id="g1392" />
        <g
           id="g1394" />
        <g
           id="g1396" />
        <g
           id="g1398" />
        <g
           id="g1400" />
      </g>
      <g
         id="g958">
        <path
           d="M 0,0 H 512 V 512 H 0 Z"
           fill="#b90202"
           fill-opacity="1"
           id="path2"
           style="fill:#1b1f21;fill-opacity:0" />
      </g>
      <path
         id="path1228"
         style="fill:#ff0ec0;fill-opacity:1;stroke:none;stroke-width:85.1904;stroke-linejoin:round;stroke-miterlimit:4;stroke-dasharray:none;stroke-opacity:1;paint-order:markers stroke fill;filter:url(#filter965)"
         d="m 161.2482,24.217217 c -5.52953,-0.270859 -11.77169,1.836331 -16.94127,2.755191 -9.17481,1.580314 -29.91726,10.30363 -39.65243,16.677096 C 94.500102,50.267706 84.777407,57.524095 76.222105,67.213408 52.127564,94.137004 40.329484,124.3886 40.453357,158.9247 c 0.02913,8.12147 0.19907,15.53377 0.37771,16.47086 1.199507,5.82915 3.875124,9.50511 9.908468,9.51222 6.408335,-0.30023 10.161602,-5.91515 10.246788,-7.67928 0.03357,-0.69574 0.01268,-7.40072 -0.04403,-14.89748 -0.25419,-33.60825 11.106575,-61.83059 34.109602,-84.74107 8.186365,-8.153415 20.762645,-17.400974 27.985175,-20.576988 10.22613,-4.530078 17.30214,-7.226124 30.81452,-10.629124 8.29114,-1.232954 9.50295,-1.513815 12.72622,-2.940569 6.58735,-2.915844 6.52004,-14.485112 -0.10431,-18.030352 -1.61907,-0.750234 -3.38217,-1.105401 -5.22534,-1.1957 z m 25.66331,47.153304 c -4.24735,-0.451196 -10.78834,0.515512 -19.21448,2.864094 -4.92823,1.459364 -9.70704,3.354974 -15.90313,6.23566 -2.22273,0.436627 -14.19156,8.296567 -19.48558,12.795734 -23.7566,20.189811 -38.372943,54.006961 -35.713132,82.625431 0.791038,8.5113 2.721038,12.62796 6.706052,14.30195 3.717,1.5614 8.71446,0.32228 11.6997,-2.89886 2.43917,-2.63187 2.61676,-3.64768 2.22221,-12.77488 -1.25203,-28.96494 12.95059,-56.04301 37.37922,-71.26869 9.89769,-6.168958 19.32141,-9.653581 31.21308,-11.53749 5.88829,-0.932862 8.98052,-3.471782 9.84591,-8.084808 0.905,-4.824075 -1.10747,-9.143895 -5.28097,-11.331249 -0.89047,-0.466702 -2.05312,-0.776501 -3.46888,-0.926892 z m 88.57607,49.502969 c -9.24385,0 -16.76052,7.51904 -16.76052,16.76747 v 194.92528 c 0,0.21557 -0.13904,0.4312 -0.13904,0.66969 0,0.86911 0.13904,1.72357 0.13904,2.56516 v 44.40276 0.18538 0.2572 h 0.009 c 0.3004,15.67623 12.20039,26.32837 26.80571,26.32837 14.24987,0 25.9409,-11.14013 26.78021,-25.17902 2.25421,0.44029 4.51886,0.67895 6.75471,0.67895 19.72602,0 35.77108,-16.04038 35.77108,-35.7618 0,-3.0293 -0.39477,-6.01349 -1.13777,-8.91438 21.23493,-6.31314 36.76979,-25.99983 36.76979,-49.25733 0,-14.24758 -5.83373,-27.1583 -15.23809,-36.47782 4.24469,-8.01928 6.5091,-17.01383 6.5091,-26.14529 0,-24.44997 -15.98826,-46.09895 -39.13569,-53.39128 0.69026,-3.07059 1.03581,-6.14921 1.03581,-9.17623 0,-23.41573 -19.05215,-42.46784 -42.47018,-42.46784 z m -46.95865,0.49124 -25.69575,0.009 c -23.41345,0 -42.46322,19.04747 -42.46322,42.46322 0,3.0293 0.34784,6.10796 1.0358,9.17853 -23.14744,7.29464 -39.13104,28.93899 -39.13104,53.38895 0,9.13378 2.26202,18.12839 6.50214,26.15225 -9.39978,9.31494 -15.23578,22.22564 -15.23578,36.4755 0,23.25752 15.53489,42.94417 36.7721,49.25503 -0.74758,2.90546 -1.14238,5.892 -1.14238,8.91902 0,19.726 16.04735,35.77105 35.77105,35.77105 2.24045,0 4.50056,-0.22472 6.75704,-0.66272 0.83931,14.04118 12.5234,25.20682 26.77327,25.20682 14.7085,0 26.81961,-11.89754 26.81961,-26.56935 v -0.0742 -242.7506 c -0.002,-9.24384 -7.51671,-16.76282 -16.76284,-16.76282 z M 406.798,327.31772 c -8.8164,0.0425 -10.49144,6.93383 -11.18064,16.22756 -2.7236,38.37042 -33.54738,70.09742 -71.17137,73.25687 -11.76772,0.98819 -13.51982,1.5681 -15.33079,5.0701 -3.06976,5.93625 -1.33931,12.46244 4.09686,15.44434 4.44006,2.43552 26.49744,-0.0532 35.65521,-4.02272 19.39953,-8.4089 24.61854,-11.68762 36.17658,-22.72738 13.34119,-12.74295 20.78889,-24.31001 26.15224,-40.61407 2.15047,-6.71561 11.90376,-41.98636 -4.39809,-42.6347 z m 57.40701,14.39695 c -8.37389,-1.23736 -12.88976,7.95154 -14.04934,19.39521 -2.49425,26.18391 -10.87264,45.88257 -28.37448,66.71301 -5.84358,6.95496 -18.82567,17.61117 -27.47769,22.5536 -17.45935,9.97357 -28.86788,13.43669 -50.54803,15.34701 -12.87488,1.13445 -17.03628,4.0236 -17.03628,11.82481 0.28155,16.79275 30.30065,8.47459 41.15399,6.07346 0.5564,-0.34386 2.63169,-0.88138 4.61128,-1.19336 7.29222,-1.14928 31.00848,-11.97304 38.02342,-17.35374 18.97104,-14.55138 29.75169,-25.22899 36.86016,-36.50562 1.02773,-1.63035 2.54299,-3.67552 3.36693,-4.5441 2.43471,-2.56655 9.92953,-18.57178 13.43529,-28.6896 3.77078,-10.88265 8.07962,-25.69153 7.28075,-39.08007 -0.3058,-5.12467 0.11467,-9.31083 -3.42025,-13.34724 -1.35525,-0.62609 -2.62947,-1.0166 -3.82575,-1.19337 z"
         transform="matrix(0.99929109,0,0,1.000662,0.18148224,-0.16932144)" />
    </g>
  </g>
</svg>
