<?xml version="1.0" encoding="UTF-8" standalone="no"?>
<!-- Created with Inkscape (http://www.inkscape.org/) -->

<svg
   version="1.1"
   id="svg2"
   width="512"
   height="512"
   viewBox="0 0 512 512"
   sodipodi:docname="damaged_ear.svg"
   inkscape:version="1.1.1 (3bf5ae0d25, 2021-09-20)"
   xmlns:inkscape="http://www.inkscape.org/namespaces/inkscape"
   xmlns:sodipodi="http://sodipodi.sourceforge.net/DTD/sodipodi-0.dtd"
   xmlns="http://www.w3.org/2000/svg"
   xmlns:svg="http://www.w3.org/2000/svg">
  <defs
     id="defs6">
    <filter
       style="color-interpolation-filters:sRGB;"
       inkscape:label="Drop Shadow"
       id="filter1456"
       x="-0.25219632"
       y="-0.15892701"
       width="1.4910013"
       height="1.3094353">
      <feFlood
         flood-opacity="1"
         flood-color="rgb(58,63,94)"
         result="flood"
         id="feFlood1446" />
      <feComposite
         in="flood"
         in2="SourceGraphic"
         operator="out"
         result="composite1"
         id="feComposite1448" />
      <feGaussianBlur
         in="composite1"
         stdDeviation="15"
         result="blur"
         id="feGaussianBlur1450" />
      <feOffset
         dx="0"
         dy="0"
         result="offset"
         id="feOffset1452" />
      <feComposite
         in="offset"
         in2="SourceGraphic"
         operator="atop"
         result="composite2"
         id="feComposite1454" />
    </filter>
    <filter
       style="color-interpolation-filters:sRGB;"
       inkscape:label="Drop Shadow"
       id="filter1902"
       x="-0.12579877"
       y="-0.11285558"
       width="1.2449766"
       height="1.2197714">
      <feFlood
         flood-opacity="1"
         flood-color="rgb(58,63,94)"
         result="flood"
         id="feFlood1892" />
      <feComposite
         in="flood"
         in2="SourceGraphic"
         operator="out"
         result="composite1"
         id="feComposite1894" />
      <feGaussianBlur
         in="composite1"
         stdDeviation="15"
         result="blur"
         id="feGaussianBlur1896" />
      <feOffset
         dx="0"
         dy="0"
         result="offset"
         id="feOffset1898" />
      <feComposite
         in="offset"
         in2="SourceGraphic"
         operator="atop"
         result="composite2"
         id="feComposite1900" />
    </filter>
    <filter
       style="color-interpolation-filters:sRGB;"
       inkscape:label="Drop Shadow"
       id="filter1067"
       x="-0.079286197"
       y="-0.071128592"
       width="1.1585724"
       height="1.1422572">
      <feFlood
         flood-opacity="1"
         flood-color="rgb(58,63,94)"
         result="flood"
         id="feFlood1057" />
      <feComposite
         in="flood"
         in2="SourceGraphic"
         operator="out"
         result="composite1"
         id="feComposite1059" />
      <feGaussianBlur
         in="composite1"
         stdDeviation="15"
         result="blur"
         id="feGaussianBlur1061" />
      <feOffset
         dx="0"
         dy="0"
         result="offset"
         id="feOffset1063" />
      <feComposite
         in="offset"
         in2="SourceGraphic"
         operator="atop"
         result="composite2"
         id="feComposite1065" />
    </filter>
    <filter
       style="color-interpolation-filters:sRGB;"
       inkscape:label="Drop Shadow"
       id="filter954"
       x="-0.049189041"
       y="-0.044128075"
       width="1.0983781"
       height="1.0882562">
      <feFlood
         flood-opacity="1"
         flood-color="rgb(58,63,94)"
         result="flood"
         id="feFlood944" />
      <feComposite
         in="flood"
         in2="SourceGraphic"
         operator="out"
         result="composite1"
         id="feComposite946" />
      <feGaussianBlur
         in="composite1"
         stdDeviation="12.3821"
         result="blur"
         id="feGaussianBlur948" />
      <feOffset
         dx="0"
         dy="0"
         result="offset"
         id="feOffset950" />
      <feComposite
         in="offset"
         in2="SourceGraphic"
         operator="atop"
         result="composite2"
         id="feComposite952" />
    </filter>
  </defs>
  <sodipodi:namedview
     id="namedview4"
     pagecolor="#505050"
     bordercolor="#eeeeee"
     borderopacity="1"
     inkscape:pageshadow="0"
     inkscape:pageopacity="0"
     inkscape:pagecheckerboard="0"
     showgrid="false"
     inkscape:zoom="1.2788086"
     inkscape:cx="115.34173"
     inkscape:cy="244.36808"
     inkscape:window-width="1716"
     inkscape:window-height="1414"
     inkscape:window-x="3160"
     inkscape:window-y="587"
     inkscape:window-maximized="1"
     inkscape:current-layer="g2972" />
  <g
     inkscape:groupmode="layer"
     inkscape:label="Image"
     id="g8">
    <g
       id="g827"
       style="fill:#000000">
      <g
         id="g2968">
        <g
           id="g2978"
           transform="matrix(0.68651129,0,0,0.68651129,-30.260265,30.807018)">
          <g
             id="g882"
             transform="matrix(1.4566403,0,0,1.4566403,44.078317,-44.874748)">
            <path
               d="M 0,0 H 512 V 512 H 0 Z"
               fill="#b90202"
               fill-opacity="1"
               id="path2"
               style="fill:#1b1f21;fill-opacity:0" />
          </g>
          <g
             id="g2972"
             transform="translate(-595.08796,8.215252)"
             style="fill:#ff0ec0;fill-opacity:1;stroke:none;stroke-width:1.00071;stroke-miterlimit:4;stroke-dasharray:none">
            <path
               style="fill:#ff0ec0;fill-opacity:1;stroke:none;stroke-width:1.18217;stroke-linejoin:round;stroke-miterlimit:4;stroke-dasharray:none;stroke-opacity:1;paint-order:markers stroke fill;filter:url(#filter954)"
               d="m 711.53524,553.67423 c 1.95629,-7.08524 10.62952,-14.91288 18.07061,-16.30882 11.5571,-2.16814 24.12317,6.04034 26.83988,17.53263 2.35463,9.96023 12.24298,26.05876 20.82288,33.90028 16.30558,14.90246 34.48878,21.36969 55.94721,19.89889 10.61428,-0.72751 14.71362,-1.89611 25.63421,-7.30747 17.03423,-8.44078 25.39181,-16.76297 33.72694,-33.58395 6.41404,-12.94392 6.74706,-14.34208 8.11091,-34.04557 1.78216,-25.74545 6.78723,-45.82254 15.98142,-64.10657 13.69248,-27.22953 28.27024,-43.57955 73.46106,-82.39229 48.21494,-41.41 61.05354,-55.07895 77.61504,-82.63483 14.7483,-24.5387 22.2561,-50.61831 24.7672,-86.03174 2.7363,-38.5923 -1.9833,-64.95634 -17.0735,-95.37306 -26.9936,-54.410102 -74.7413,-87.399304 -135.52861,-93.637249 -27.11253,-2.782275 -60.31684,2.230639 -83.04958,12.538122 -53.25378,24.146466 -88.18342,67.779407 -99.76828,124.627517 -1.81051,8.88399 -4.40944,18.04478 -5.77554,20.35731 -7.85657,13.30029 -30.09386,12.97325 -38.34795,-0.56398 -9.70937,-15.92388 5.35912,-68.63473 30.76108,-107.604811 11.6444,-17.863937 38.46786,-45.263309 56.20521,-57.411864 24.75755,-16.9568382 55.15182,-29.7875649 84.40481,-35.630956 18.63482,-3.72238 60.41241,-3.734855 79.13524,-0.02363 43.71272,8.6647212 81.31722,28.894253 113.38462,60.995837 25.0656,25.0923 41.9573,52.716207 52.4684,85.804384 8.1239,25.57355 9.7466,37.21284 9.6622,69.30484 -0.1517,57.58703 -11.2676,96.71518 -39.5331,139.15886 -15.3881,23.10709 -36.0289,44.50036 -73.7653,76.45493 -35.29779,29.88956 -50.05429,44.50179 -59.90519,59.31964 -12.74032,19.16417 -16.98296,33.10098 -18.84781,61.9142 -1.71187,26.45015 -8.24854,45.65987 -22.85583,67.1682 -14.16915,20.8631 -40.86597,39.01266 -67.34767,45.78553 -57.02529,21.46743 -155.94088,-33.18169 -145.20056,-98.10437 z m 366.49036,-39.46389 127.5693,76.3984 -49.6802,51.54744 z m 63.8578,-90.30053 139.9578,30.17811 -18.5277,53.698 z M 818.56529,412.7172 c -3.67324,-1.34276 -9.52343,-7.11517 -11.963,-11.80404 -4.88174,-9.38256 -1.05753,-22.7279 8.26283,-28.83485 2.26591,-1.48471 9.03046,-3.31606 15.0321,-4.06965 14.12886,-1.77408 23.08726,-5.84156 31.5879,-14.34217 10.39206,-10.39214 14.47014,-20.06273 14.48266,-34.34352 0.013,-14.8174 -4.17258,-24.90711 -14.5676,-35.11753 -9.08422,-8.9229 -18.27546,-13.03899 -32.30307,-14.46625 -8.80353,-0.8957 -11.70146,-1.94297 -16.12543,-5.82726 -8.25504,-7.24799 -9.00991,-12.0561 -8.26106,-52.62118 0.63544,-34.42628 0.86686,-36.67139 5.01724,-48.69126 14.49436,-41.97743 43.75951,-69.310541 86.33049,-80.631005 13.49992,-3.589904 42.61611,-3.530353 56.39128,0.115298 51.42667,13.610407 89.23517,60.283157 90.31437,111.488557 0.2766,13.11835 -1.577,17.32927 -10.5903,24.05864 -5.9408,4.4355 -18.0477,4.4355 -23.9885,0 -8.1273,-6.06782 -10.10775,-10.32642 -11.62036,-24.98685 -4.09745,-39.71509 -33.64707,-67.05973 -72.4672,-67.05973 -31.88393,0 -57.94461,18.16486 -69.28434,48.29261 -2.69249,7.15338 -3.65315,13.92731 -4.3206,30.46291 l -0.85824,21.26399 12.78474,5.22264 c 16.31515,6.66483 28.92079,15.97516 39.31475,29.03743 15.52354,19.50881 21.63575,38.54242 20.35483,63.38678 -1.41925,27.52749 -10.4223,46.73309 -30.7098,65.51067 -12.49248,11.56263 -26.17066,19.03971 -41.39485,22.62807 -9.92662,2.33975 -26.71017,3.04898 -31.41884,1.3277 z m 349.67441,-94.94973 145.8962,-40.29178 -6.058,77.32737 z"
               id="path829"
               sodipodi:nodetypes="cssssssssssssssscsssssssssssssccccccccccssssscsssssscssssssscsssssscccc" />
          </g>
        </g>
      </g>
    </g>
  </g>
</svg>
