<?xml version="1.0" encoding="UTF-8" standalone="no"?>
<!-- Created with Inkscape (http://www.inkscape.org/) -->

<svg
   version="1.1"
   id="svg2"
   width="512"
   height="512"
   viewBox="0 0 512 512"
   sodipodi:docname="dismembered_hand.svg"
   inkscape:version="1.2.1 (9c6d41e410, 2022-07-14)"
   xmlns:inkscape="http://www.inkscape.org/namespaces/inkscape"
   xmlns:sodipodi="http://sodipodi.sourceforge.net/DTD/sodipodi-0.dtd"
   xmlns="http://www.w3.org/2000/svg"
   xmlns:svg="http://www.w3.org/2000/svg">
  <defs
     id="defs6">
    <filter
       style="color-interpolation-filters:sRGB;"
       inkscape:label="Drop Shadow"
       id="filter1456"
       x="-0.25219632"
       y="-0.15892701"
       width="1.4910013"
       height="1.3094353">
      <feFlood
         flood-opacity="1"
         flood-color="rgb(58,63,94)"
         result="flood"
         id="feFlood1446" />
      <feComposite
         in="flood"
         in2="SourceGraphic"
         operator="out"
         result="composite1"
         id="feComposite1448" />
      <feGaussianBlur
         in="composite1"
         stdDeviation="15"
         result="blur"
         id="feGaussianBlur1450" />
      <feOffset
         dx="0"
         dy="0"
         result="offset"
         id="feOffset1452" />
      <feComposite
         in="offset"
         in2="SourceGraphic"
         operator="atop"
         result="composite2"
         id="feComposite1454" />
    </filter>
    <filter
       style="color-interpolation-filters:sRGB;"
       inkscape:label="Drop Shadow"
       id="filter1133"
       x="-1.0374394"
       y="-1.3279239"
       width="3.0202767"
       height="3.585957">
      <feFlood
         flood-opacity="1"
         flood-color="rgb(58,63,94)"
         result="flood"
         id="feFlood1123" />
      <feComposite
         in="flood"
         in2="SourceGraphic"
         operator="out"
         result="composite1"
         id="feComposite1125" />
      <feGaussianBlur
         in="composite1"
         stdDeviation="15"
         result="blur"
         id="feGaussianBlur1127" />
      <feOffset
         dx="0"
         dy="0"
         result="offset"
         id="feOffset1129" />
      <feComposite
         in="offset"
         in2="SourceGraphic"
         operator="atop"
         result="composite2"
         id="feComposite1131" />
    </filter>
    <filter
       style="color-interpolation-filters:sRGB;"
       inkscape:label="Drop Shadow"
       id="filter992"
       x="-0.16194178"
       y="-0.2072857"
       width="1.3238836"
       height="1.4145714">
      <feFlood
         flood-opacity="1"
         flood-color="rgb(58,63,94)"
         result="flood"
         id="feFlood982" />
      <feComposite
         in="flood"
         in2="SourceGraphic"
         operator="out"
         result="composite1"
         id="feComposite984" />
      <feGaussianBlur
         in="composite1"
         stdDeviation="2"
         result="blur"
         id="feGaussianBlur986" />
      <feOffset
         dx="0"
         dy="0"
         result="offset"
         id="feOffset988" />
      <feComposite
         in="offset"
         in2="SourceGraphic"
         operator="atop"
         result="composite2"
         id="feComposite990" />
    </filter>
  </defs>
  <sodipodi:namedview
     id="namedview4"
     pagecolor="#505050"
     bordercolor="#eeeeee"
     borderopacity="1"
     inkscape:pageshadow="0"
     inkscape:pageopacity="0"
     inkscape:pagecheckerboard="0"
     showgrid="false"
     inkscape:zoom="1"
     inkscape:cx="165.5"
     inkscape:cy="202"
     inkscape:window-width="1920"
     inkscape:window-height="1009"
     inkscape:window-x="1912"
     inkscape:window-y="-8"
     inkscape:window-maximized="1"
     inkscape:current-layer="g8"
     showguides="true"
     inkscape:guide-bbox="true"
     inkscape:showpageshadow="2"
     inkscape:deskcolor="#505050" />
  <g
     inkscape:groupmode="layer"
     inkscape:label="Image"
     id="g8">
    <path
       d="M 1.189475e-5,0 H 512.00001 V 512 H 1.189475e-5 Z"
       fill="#b90202"
       fill-opacity="1"
       id="path2"
       style="fill:#1b1f21;fill-opacity:0" />
    <path
       id="path895"
       style="fill:#ff0ec0;fill-opacity:1;stroke:none;stroke-width:15.9241;stroke-linejoin:round;stroke-miterlimit:4;stroke-dasharray:none;stroke-opacity:1;paint-order:markers stroke fill;filter:url(#filter992)"
       d="m 389.78502,69.632484 c -0.0189,0.34467 -0.0258,0.688019 -0.022,1.031453 0.0171,1.567581 0.25491,3.141721 0.56546,4.900242 1.93757,10.971896 9.43397,21.891519 9.43397,21.891519 1.89295,2.883372 3.32687,5.707412 4.37417,8.114782 l 1.54083,-5.636612 4.52571,4.607822 1.4327,-8.047342 2.97618,6.635362 0.91996,-0.69166 c -1.00203,-4.592573 -1.70707,-12.906183 -1.70707,-12.906183 -0.2102,-7.294093 -1.70115,-10.704383 -2.63839,-13.777421 -0.77881,-2.553676 -3.13975,-7.751593 -3.13975,-7.751593 h -18.00873 c 0,0 -0.27504,2.661084 -0.25305,1.629631 z m 57.68399,29.437454 c -4.14483,-0.0025 -10.68466,1.660712 -14.66801,2.994222 -3.16911,1.06351 -7.37759,2.3916 -9.59753,2.4134 -0.53443,-10e-4 -1.21896,-0.0646 -1.99481,-0.16956 l 0.33513,1.10088 -7.25355,0.52607 7.07196,4.09978 -5.87828,2.67578 4.76871,3.37674 c 4.1145,-0.25183 6.93467,0.041 7.23421,0.15022 2.00609,0.7305 6.70278,2.93814 6.70278,2.93814 l 4.29272,1.3646 c 1.10566,0.3134 5.03497,1.05718 6.79158,1.80787 10.77042,4.73021 9.33315,2.22315 9.33315,2.22315 0.53849,-1.47885 -7.74625,-6.33628 -7.74625,-6.33628 2.28899,0.83351 8.9379,3.88839 11.97221,3.59507 3.62098,-0.3546 0.40482,-2.757 -0.3131,-3.04029 -13.90205,-5.50458 -9.91533,-5.00838 -9.91533,-5.00838 11.6927,3.32738 14.63375,3.25516 14.4023,1.12091 -0.15497,-1.60937 -13.62988,-5.09652 -13.62988,-5.09652 8.58862,0.46753 10.46877,-0.86521 10.46877,-0.86521 4.13265,-2.88463 -4.25715,-3.22504 -5.94171,-3.22856 -8.95287,-0.0115 -11.72586,-0.9213 -11.72586,-0.9213 8.41121,-0.99527 9.13086,-3.79201 9.13086,-3.79201 0.0564,-1.401851 -1.51494,-1.927316 -3.84007,-1.928722 z m -42.69618,9.726392 -11.50222,4.36749 2.29055,3.31267 z m 3.15645,4.15451 c 0,0 -10.27433,5.76195 -10.37329,5.89497 -0.0823,0.11064 4.52331,3.08615 4.71731,3.04765 z m 4.21327,1.00407 -3.36475,10.29119 5.13457,0.22699 z"
       sodipodi:nodetypes="ccsccccccccscccccccccccccccccccccccccccccccccccccccc"
       transform="matrix(6.2218096,0,0,6.2218096,-2396.9215,-345.14472)" />
  </g>
</svg>
