<?xml version="1.0" encoding="UTF-8" standalone="no"?>
<svg
   viewBox="0 0 512 512"
   width="512"
   height="512"
   version="1.1"
   id="svg21"
   sodipodi:docname="Head_Critical_Injury.svg"
   inkscape:version="1.2.1 (9c6d41e410, 2022-07-14)"
   xmlns:inkscape="http://www.inkscape.org/namespaces/inkscape"
   xmlns:sodipodi="http://sodipodi.sourceforge.net/DTD/sodipodi-0.dtd"
   xmlns="http://www.w3.org/2000/svg"
   xmlns:svg="http://www.w3.org/2000/svg">
  <sodipodi:namedview
     id="namedview23"
     pagecolor="#ffffff"
     bordercolor="#000000"
     borderopacity="0.25"
     inkscape:showpageshadow="2"
     inkscape:pageopacity="0.0"
     inkscape:pagecheckerboard="0"
     inkscape:deskcolor="#d1d1d1"
     showgrid="false"
     inkscape:zoom="0.83398438"
     inkscape:cx="90.529274"
     inkscape:cy="360.91803"
     inkscape:window-width="1920"
     inkscape:window-height="1009"
     inkscape:window-x="1912"
     inkscape:window-y="-8"
     inkscape:window-maximized="1"
     inkscape:current-layer="svg21" />
  <defs
     id="defs13">
    <filter
       id="shadow-1"
       height="1.3025683"
       width="1.5321701"
       x="-0.26608505"
       y="-0.15128413">
      <feFlood
         flood-color="rgba(58, 63, 94, 1)"
         result="flood"
         id="feFlood2" />
      <feComposite
         in="flood"
         in2="SourceGraphic"
         operator="out"
         result="composite"
         id="feComposite4" />
      <feGaussianBlur
         in="composite"
         stdDeviation="15"
         result="blur"
         id="feGaussianBlur6" />
      <feOffset
         dx="0"
         dy="0"
         result="offset"
         id="feOffset8" />
      <feComposite
         in2="SourceGraphic"
         in="offset"
         operator="atop"
         id="feComposite10" />
    </filter>
  </defs>
  <path
     d="M0 0h512v512H0z"
     fill="#1b1f21"
     fill-opacity="0"
     id="path15" />
  <g
     class=""
     transform="translate(0,0)"
     style=""
     id="g19">
    <path
       d="m 263.47,19.03 c -1.234,0.04 -2.47,0.126 -3.69,0.126 -38.983,0 -70.75,33.895 -70.75,75.906 0,21.274 8.43,40.465 21.5,54.282 -80.868,10.566 -98.35,105.42 -79.124,191.562 h 31.656 l -1.03,-105.344 18.687,-0.187 1.25,129.25 10.218,130.313 h 55.53 V 319.344 h 18.688 v 175.594 h 56.22 l 12.687,-143.313 1.125,-116.25 18.687,0.188 -1.03,105.343 h 33.5 c 21.795,-88.46 -5.595,-178.95 -79.626,-190.687 13.658,-13.88 22.53,-33.346 22.53,-55.157 0,-39.39 -27.808,-72.008 -63.406,-75.907 -1.187,-0.15 -2.393,-0.162 -3.625,-0.125 z m -15.19,17.47 12.25,35.03 25.095,-27 -18.594,44.845 44.22,-9.125 -29.094,19.313 21.594,12.28 -34.47,1.75 20.908,38.563 -26.375,-15.78 -10.907,20.03 -11.531,-28.184 -25.125,3.686 L 241.844,99 211,74.406 l 31.438,3.563 5.843,-41.47 z"
       fill="#ff0ec0"
       fill-opacity="1"
       filter="url(#shadow-1)"
       id="path17"
       sodipodi:nodetypes="cssccccccccccccccccccsccccccccccccccccccccc" />
  </g>
</svg>
