<?xml version="1.0" encoding="UTF-8" standalone="no"?>
<!-- Created with Inkscape (http://www.inkscape.org/) -->

<svg
   version="1.1"
   id="svg2"
   width="512"
   height="512"
   viewBox="0 0 512 512"
   sodipodi:docname="lost_eye.svg"
   inkscape:version="1.1.1 (3bf5ae0d25, 2021-09-20)"
   xmlns:inkscape="http://www.inkscape.org/namespaces/inkscape"
   xmlns:sodipodi="http://sodipodi.sourceforge.net/DTD/sodipodi-0.dtd"
   xmlns="http://www.w3.org/2000/svg"
   xmlns:svg="http://www.w3.org/2000/svg">
  <defs
     id="defs6">
    <filter
       style="color-interpolation-filters:sRGB;"
       inkscape:label="Drop Shadow"
       id="filter1456"
       x="-0.25219632"
       y="-0.15892701"
       width="1.4910013"
       height="1.3094353">
      <feFlood
         flood-opacity="1"
         flood-color="rgb(58,63,94)"
         result="flood"
         id="feFlood1446" />
      <feComposite
         in="flood"
         in2="SourceGraphic"
         operator="out"
         result="composite1"
         id="feComposite1448" />
      <feGaussianBlur
         in="composite1"
         stdDeviation="15"
         result="blur"
         id="feGaussianBlur1450" />
      <feOffset
         dx="0"
         dy="0"
         result="offset"
         id="feOffset1452" />
      <feComposite
         in="offset"
         in2="SourceGraphic"
         operator="atop"
         result="composite2"
         id="feComposite1454" />
    </filter>
    <filter
       style="color-interpolation-filters:sRGB;"
       inkscape:label="Drop Shadow"
       id="filter1198"
       x="-0.13832304"
       y="-0.13210768"
       width="1.2693659"
       height="1.2572623">
      <feFlood
         flood-opacity="1"
         flood-color="rgb(58,63,94)"
         result="flood"
         id="feFlood1188" />
      <feComposite
         in="flood"
         in2="SourceGraphic"
         operator="out"
         result="composite1"
         id="feComposite1190" />
      <feGaussianBlur
         in="composite1"
         stdDeviation="15"
         result="blur"
         id="feGaussianBlur1192" />
      <feOffset
         dx="0"
         dy="0"
         result="offset"
         id="feOffset1194" />
      <feComposite
         in="offset"
         in2="SourceGraphic"
         operator="atop"
         result="composite2"
         id="feComposite1196" />
    </filter>
    <filter
       style="color-interpolation-filters:sRGB;"
       inkscape:label="Drop Shadow"
       id="filter946"
       x="-0.065237"
       y="-0.062305663"
       width="1.130474"
       height="1.1246113">
      <feFlood
         flood-opacity="1"
         flood-color="rgb(58,63,94)"
         result="flood"
         id="feFlood936" />
      <feComposite
         in="flood"
         in2="SourceGraphic"
         operator="out"
         result="composite1"
         id="feComposite938" />
      <feGaussianBlur
         in="composite1"
         stdDeviation="15"
         result="blur"
         id="feGaussianBlur940" />
      <feOffset
         dx="0"
         dy="0"
         result="offset"
         id="feOffset942" />
      <feComposite
         in="offset"
         in2="SourceGraphic"
         operator="atop"
         result="composite2"
         id="feComposite944" />
    </filter>
    <filter
       style="color-interpolation-filters:sRGB;"
       inkscape:label="Drop Shadow"
       id="filter953"
       x="-0.044919094"
       y="-0.042900715"
       width="1.0898382"
       height="1.0858014">
      <feFlood
         flood-opacity="1"
         flood-color="rgb(58,63,94)"
         result="flood"
         id="feFlood942" />
      <feComposite
         in="flood"
         in2="SourceGraphic"
         operator="out"
         result="composite1"
         id="feComposite945" />
      <feGaussianBlur
         in="composite1"
         stdDeviation="12.3821"
         result="blur"
         id="feGaussianBlur947" />
      <feOffset
         dx="0"
         dy="0"
         result="offset"
         id="feOffset949" />
      <feComposite
         in="offset"
         in2="SourceGraphic"
         operator="atop"
         result="composite2"
         id="feComposite951" />
    </filter>
  </defs>
  <sodipodi:namedview
     id="namedview4"
     pagecolor="#505050"
     bordercolor="#eeeeee"
     borderopacity="1"
     inkscape:pageshadow="0"
     inkscape:pageopacity="0"
     inkscape:pagecheckerboard="0"
     showgrid="false"
     inkscape:zoom="1.2788086"
     inkscape:cx="263.91752"
     inkscape:cy="270.95533"
     inkscape:window-width="1716"
     inkscape:window-height="1414"
     inkscape:window-x="3160"
     inkscape:window-y="587"
     inkscape:window-maximized="1"
     inkscape:current-layer="g8" />
  <g
     inkscape:groupmode="layer"
     inkscape:label="Image"
     id="g8">
    <g
       id="g874">
      <path
         d="M 0,0 H 512 V 512 H 0 Z"
         fill="#b90202"
         fill-opacity="1"
         id="path2"
         style="fill:#1b1f21;fill-opacity:0" />
    </g>
    <g
       id="g5383"
       transform="matrix(0.66336923,0,0,0.66336923,77.455698,52.39658)"
       style="fill:#ff0ec0;fill-opacity:1;stroke:none;stroke-opacity:1;filter:url(#filter953)">
      <g
         id="g827"
         style="fill:#ff0ec0;fill-opacity:1;stroke:none;stroke-width:100;stroke-linejoin:round;stroke-miterlimit:4;stroke-dasharray:none;stroke-opacity:1;paint-order:markers stroke fill"
         transform="matrix(1.2040804,0,0,1.2040804,-54.903669,-62.645482)">
        <path
           style="fill:#ff0ec0;fill-opacity:1;stroke:none;stroke-width:100;stroke-linejoin:round;stroke-miterlimit:4;stroke-dasharray:none;stroke-opacity:1;paint-order:markers stroke fill"
           d="M 338.11094,594.5744 315.7608,440.82376 423.99966,564.68124 Z m 49.92969,-190.10542 c 0,0 119.2813,70.89582 119.34708,71.93 0.0691,1.08523 -47.67489,56.72687 -47.67489,56.72687 z M 136.82734,435.3116 C 107.81036,422.67362 77.807339,404.78505 51.877049,384.66202 39.384169,374.96701 8.7584393,344.74791 0.34551931,333.81467 l -5.93708001,-7.71568 3.33371,-3.96126 C 24.290649,290.59162 46.468279,270.33335 76.777599,249.9426 112.64409,225.81323 150.86508,209.4371 186.7776,202.81207 c 16.07916,-2.96623 56.92105,-5.18347 54.66667,-2.96778 -1.84683,1.81514 -44.5687,29.71159 -46.83131,30.57985 -3.85992,1.48118 -1.545,4.02352 5.76045,6.32636 l 7.59582,2.39437 c -14.10897,5.23055 -28.07287,13.57789 -37.93554,21.07293 l -13.99167,-15.0319 c -38.23333,16.22138 -77.441111,41.89029 -103.931091,67.24339 l -14.66667,14.26406 9.37147,9.0953 c 18.19407,17.65792 42.2804,36.53774 62.579591,49.05245 10.35796,6.38583 43.54356,22.28519 44.50581,21.32295 0.26569,-0.26569 -3.20567,-4.86532 -7.71415,-10.22138 -24.07143,-30.7551 -26.7111,-60.9355 -22.3984,-94.77677 8.18128,1.21368 18.63051,9.07461 18.63051,9.07461 -9.72699,49.61863 19.07836,83.33249 64.06052,102.84441 l 6.36868,2.08828 -4.29438,3.1683 c -2.36191,1.74257 -4.77782,3.1683 -5.36868,3.1683 -0.59087,0 -1.0743,0.7867 -1.0743,1.74824 l 44.90851,30.54253 c -34.51268,3.98654 -78.17581,-4.91636 -110.1921,-18.48897 z m 37.47571,-93.05203 101.08373,21.94809 c -32.86375,35.21212 -88.32183,30.72931 -101.08373,-21.94809 z m 209.14122,8.952 8.38252,-15.53296 c 18.45347,-9.81302 31.4491,-23.77492 40.61051,-43.63005 9.99343,-21.65833 9.84868,-51.58425 -0.35088,-72.53877 -37.04226,-60.70947 -123.27172,-81.57609 -152.74511,-22 -1.22564,0 -4.70387,0.87338 -7.7294,1.94085 -3.02554,1.06747 -5.50098,1.60636 -5.50098,1.19755 0,-0.40883 4.85966,-13.13222 10.79923,-28.27419 6.66107,-16.98133 11.898,-28.41679 13.66667,-29.84281 33.71917,-21.49456 72.84872,-30.68178 109.75995,-35.65213 20.6516,-2.78132 65.21902,-2.18054 90.57069,1.22091 7.98052,1.78919 51.52049,8.48992 51.99386,12.83863 3.24189,1.24509 -2.65445,40.34159 -5.62454,51.23785 -19.37537,71.08172 -41.39358,120.19275 -82.13969,161.49352 l -13.97,14.16017 -13.19474,0.88031 c -15.79927,1.05408 -26.52681,1.91416 -36.86142,2.9554 -4.33777,0.43705 -7.66667,0.2398 -7.66667,-0.45428 z M 508.21215,146.65628 c -13.9479,-0.91055 -87.43619,-10.15376 -140.43948,-0.14649 13.07544,3.68254 32.18801,11.22411 43.81486,18.42376 7.34249,4.63513 23.01312,19.74577 28.25247,27.2429 16.40454,23.47377 24.34528,58.45061 18.69197,82.33334 25.2414,-25.84865 47.21042,-76.78542 49.68018,-127.85351 z m -333.83946,162.66334 37.03227,6.42303 -38.29403,17.76368 c -2.48049,-8.28006 -0.41782,-16.3551 1.26176,-24.18671 z m 15.70699,-25.80983 c 13.74149,-11.89994 35.54894,-17.77342 50.57369,-15.71485 15.9221,3.92081 25.57614,9.02505 36.24085,19.9467 l -58.71707,25.76815 z m 118.38946,15 57.81596,-99.48694 c 23.76939,7.43707 40.73145,30.25729 42.80508,52.78227 z M 102.84741,60.06349 c 0,0 76.76875,-41.492925 77.49368,-40.767994 0.71915,0.719145 33.04151,132.880954 33.04151,132.880954 z"
           id="path829"
           sodipodi:nodetypes="cccccscccsscsssssscccccssscccccssccccccccsccsssccccsscssccccsccccccccccccccccscc" />
      </g>
    </g>
  </g>
</svg>
