<?xml version="1.0" encoding="UTF-8" standalone="no"?>
<!-- Created with Inkscape (http://www.inkscape.org/) -->

<svg
   version="1.1"
   id="svg2"
   width="512"
   height="512"
   viewBox="0 0 512 512"
   sodipodi:docname="whiplash.svg"
   inkscape:version="1.1.1 (3bf5ae0d25, 2021-09-20)"
   xmlns:inkscape="http://www.inkscape.org/namespaces/inkscape"
   xmlns:sodipodi="http://sodipodi.sourceforge.net/DTD/sodipodi-0.dtd"
   xmlns="http://www.w3.org/2000/svg"
   xmlns:svg="http://www.w3.org/2000/svg">
  <defs
     id="defs6">
    <filter
       style="color-interpolation-filters:sRGB;"
       inkscape:label="Drop Shadow"
       id="filter1456"
       x="-0.25219632"
       y="-0.15892701"
       width="1.4910013"
       height="1.3094353">
      <feFlood
         flood-opacity="1"
         flood-color="rgb(58,63,94)"
         result="flood"
         id="feFlood1446" />
      <feComposite
         in="flood"
         in2="SourceGraphic"
         operator="out"
         result="composite1"
         id="feComposite1448" />
      <feGaussianBlur
         in="composite1"
         stdDeviation="15"
         result="blur"
         id="feGaussianBlur1450" />
      <feOffset
         dx="0"
         dy="0"
         result="offset"
         id="feOffset1452" />
      <feComposite
         in="offset"
         in2="SourceGraphic"
         operator="atop"
         result="composite2"
         id="feComposite1454" />
    </filter>
    <filter
       style="color-interpolation-filters:sRGB;"
       inkscape:label="Drop Shadow"
       id="filter1160"
       x="-0.16618263"
       y="-0.2005061"
       width="1.3236188"
       height="1.3904593">
      <feFlood
         flood-opacity="1"
         flood-color="rgb(58,63,94)"
         result="flood"
         id="feFlood1150" />
      <feComposite
         in="flood"
         in2="SourceGraphic"
         operator="out"
         result="composite1"
         id="feComposite1152" />
      <feGaussianBlur
         in="composite1"
         stdDeviation="15"
         result="blur"
         id="feGaussianBlur1154" />
      <feOffset
         dx="0"
         dy="0"
         result="offset"
         id="feOffset1156" />
      <feComposite
         in="offset"
         in2="SourceGraphic"
         operator="atop"
         result="composite2"
         id="feComposite1158" />
    </filter>
  </defs>
  <sodipodi:namedview
     id="namedview4"
     pagecolor="#505050"
     bordercolor="#eeeeee"
     borderopacity="1"
     inkscape:pageshadow="0"
     inkscape:pageopacity="0"
     inkscape:pagecheckerboard="0"
     showgrid="false"
     inkscape:zoom="1.2788086"
     inkscape:cx="326.47575"
     inkscape:cy="335.85949"
     inkscape:window-width="1716"
     inkscape:window-height="1414"
     inkscape:window-x="3160"
     inkscape:window-y="587"
     inkscape:window-maximized="1"
     inkscape:current-layer="g827" />
  <g
     inkscape:groupmode="layer"
     inkscape:label="Image"
     id="g8">
    <g
       id="g827"
       style="fill:#000000">
      <g
         id="g872">
        <path
           d="M 0,0 H 512 V 512 H 0 Z"
           fill="#b90202"
           fill-opacity="1"
           id="path2"
           style="fill:#1b1f21;fill-opacity:0" />
      </g>
      <path
         style="fill:#ff0ec0;fill-opacity:1;stroke:none;stroke-width:78.3386;stroke-linejoin:round;stroke-miterlimit:4;stroke-dasharray:none;stroke-opacity:1;paint-order:markers stroke fill;filter:url(#filter1160)"
         d="m 145.81738,445.21143 -3.0354,-0.34623 0.6962,-22.40052 c 0.59184,-19.04238 0.46941,-22.48757 -0.8166,-22.98105 -0.83203,-0.31928 -6.32997,1.80871 -12.21762,4.72889 -11.04605,5.47864 -13.25332,6.04656 -16.58038,4.26599 -1.77524,-0.95009 -13.877374,-22.09423 -16.064371,-28.06674 -1.126628,-3.07678 -14.566551,-28.09054 -16.592734,-30.88161 -1.444414,-1.98972 -1.713897,-1.97667 -17.276918,0.83694 -16.82022,3.04087 -19.44657,-3.44972 -21.946249,-7.86652 -2.796174,-4.94068 -0.322058,-9.5072 -0.120736,-42.52068 l 0.284259,-46.61284 -2.687286,-6.26709 c -6.101438,-14.22935 -11.184146,-37.94704 -11.97542,-55.8815 -0.67144,-15.21859 0.835183,-25.10891 6.649017,-43.64774 3.130205,-9.98141 4.970032,-13.69815 11.993399,-24.22852 C 58.449187,104.86645 76.242875,89.358688 95.143376,80.622465 222.5085,32.350609 325.17746,113.51635 266.7921,235.08806 c 0.85054,10.05345 1.81238,24.62442 2.13744,32.37994 0.86268,20.58278 2.35426,30.95612 7.05892,49.09216 2.30992,8.90449 4.62227,19.01017 5.13859,22.45706 0.5163,3.4469 2.75977,13.31756 4.98547,21.9348 4.04355,15.65541 6.07864,24.38701 7.05993,30.29092 0.28645,1.72344 3.27929,14.17805 6.65073,27.67692 3.37145,13.49888 5.73365,24.93967 5.24932,25.42399 -0.81509,0.81508 -152.47225,1.64128 -159.25512,0.86758 z m 172.09496,-37.77853 70.92448,-12.71542 -15.85444,-35.74354 c -0.39048,-0.41246 111.68171,22.02452 111.68171,22.02452 l -71.79491,15.27923 21.3611,37.7896 z m 26.78684,-73.0969 54.31473,-49.54892 -31.59071,-20.80959 108.70229,-45.83153 -56.22129,54.88591 c 9.45981,6.04212 36.22064,18.61094 36.22064,18.61094 z m -44.91411,-40.03557 27.15737,-76.23001 -36.55799,-1.30527 68.76033,-91.71058 -19.66817,70.99817 41.16391,-2.94902 z"
         id="path829"
         sodipodi:nodetypes="scssssssssscssssccssssssssccccccccccccccccccccc" />
    </g>
  </g>
</svg>
