<?xml version="1.0" encoding="UTF-8" standalone="no"?>
<svg
   viewBox="0 0 512 512"
   style="height: 512px; width: 512px;"
   version="1.1"
   id="svg21"
   sodipodi:docname="bicycle.svg"
   xml:space="preserve"
   inkscape:version="1.2.2 (b0a8486541, 2022-12-01)"
   xmlns:inkscape="http://www.inkscape.org/namespaces/inkscape"
   xmlns:sodipodi="http://sodipodi.sourceforge.net/DTD/sodipodi-0.dtd"
   xmlns="http://www.w3.org/2000/svg"
   xmlns:svg="http://www.w3.org/2000/svg"><sodipodi:namedview
     id="namedview23"
     pagecolor="#ffffff"
     bordercolor="#666666"
     borderopacity="1.0"
     inkscape:showpageshadow="2"
     inkscape:pageopacity="0.0"
     inkscape:pagecheckerboard="0"
     inkscape:deskcolor="#d1d1d1"
     showgrid="false"
     inkscape:zoom="1.84375"
     inkscape:cx="308.88136"
     inkscape:cy="331.9322"
     inkscape:window-width="1716"
     inkscape:window-height="1402"
     inkscape:window-x="3160"
     inkscape:window-y="684"
     inkscape:window-maximized="1"
     inkscape:current-layer="svg21" /><defs
     id="defs13"><filter
       id="shadow-1"
       height="1.2166534"
       width="1.1515789"
       x="-0.075789474"
       y="-0.10832671"><feFlood
         flood-color="rgba(58, 63, 94, 1)"
         result="flood"
         id="feFlood2" /><feComposite
         in="flood"
         in2="SourceGraphic"
         operator="out"
         result="composite"
         id="feComposite4" /><feGaussianBlur
         in="composite"
         stdDeviation="15"
         result="blur"
         id="feGaussianBlur6" /><feOffset
         dx="0"
         dy="0"
         result="offset"
         id="feOffset8" /><feComposite
         in2="SourceGraphic"
         in="offset"
         operator="atop"
         id="feComposite10" /></filter><filter
       id="shadow-1-5"
       height="1.1536426"
       width="1.1836397"
       x="-0.091819868"
       y="-0.076821308"><feFlood
         flood-color="rgba(58, 63, 94, 1)"
         result="flood"
         id="feFlood2-3" /><feComposite
         in="flood"
         in2="SourceGraphic"
         operator="out"
         result="composite"
         id="feComposite4-5" /><feGaussianBlur
         in="composite"
         stdDeviation="15"
         result="blur"
         id="feGaussianBlur6-6" /><feOffset
         dx="0"
         dy="0"
         result="offset"
         id="feOffset8-2" /><feComposite
         in2="SourceGraphic"
         in="offset"
         operator="atop"
         id="feComposite10-9" /></filter><filter
       style="color-interpolation-filters:sRGB;"
       inkscape:label="Drop Shadow"
       id="filter1251"
       x="-0.060000001"
       y="-0.060000001"
       width="1.12"
       height="1.12"><feFlood
         flood-opacity="1"
         flood-color="rgb(58,63,94)"
         result="flood"
         id="feFlood1241" /><feComposite
         in="flood"
         in2="SourceGraphic"
         operator="out"
         result="composite1"
         id="feComposite1243" /><feGaussianBlur
         in="composite1"
         stdDeviation="0.8"
         result="blur"
         id="feGaussianBlur1245" /><feOffset
         dx="0"
         dy="0"
         result="offset"
         id="feOffset1247" /><feComposite
         in="offset"
         in2="SourceGraphic"
         operator="atop"
         result="composite2"
         id="feComposite1249" /></filter><filter
       style="color-interpolation-filters:sRGB;"
       inkscape:label="Drop Shadow"
       id="filter1501"
       x="-0.064327537"
       y="-0.075563336"
       width="1.1286551"
       height="1.1511267"><feFlood
         flood-opacity="1"
         flood-color="rgb(58,63,94)"
         result="flood"
         id="feFlood1491" /><feComposite
         in="flood"
         in2="SourceGraphic"
         operator="out"
         result="composite1"
         id="feComposite1493" /><feGaussianBlur
         in="composite1"
         stdDeviation="11.4908"
         result="blur"
         id="feGaussianBlur1495" /><feOffset
         dx="0"
         dy="0"
         result="offset"
         id="feOffset1497" /><feComposite
         in="offset"
         in2="SourceGraphic"
         operator="atop"
         result="composite2"
         id="feComposite1499" /></filter><filter
       style="color-interpolation-filters:sRGB;"
       inkscape:label="Drop Shadow"
       id="filter1235"
       x="-0.89345794"
       y="-1.0876902"
       width="2.7869159"
       height="3.1753803"><feFlood
         flood-opacity="1"
         flood-color="rgb(58,63,94)"
         result="flood"
         id="feFlood1225" /><feComposite
         in="flood"
         in2="SourceGraphic"
         operator="out"
         result="composite1"
         id="feComposite1227" /><feGaussianBlur
         in="composite1"
         stdDeviation="10.4237"
         result="blur"
         id="feGaussianBlur1229" /><feOffset
         dx="0"
         dy="0"
         result="offset"
         id="feOffset1231" /><feComposite
         in="offset"
         in2="SourceGraphic"
         operator="atop"
         result="composite2"
         id="feComposite1233" /></filter><filter
       style="color-interpolation-filters:sRGB;"
       inkscape:label="Drop Shadow"
       id="filter1617"
       x="-0.035450979"
       y="-0.057723612"
       width="1.070902"
       height="1.1154472"><feFlood
         flood-opacity="1"
         flood-color="rgb(58,63,94)"
         result="flood"
         id="feFlood1607" /><feComposite
         in="flood"
         in2="SourceGraphic"
         operator="out"
         result="composite1"
         id="feComposite1609" /><feGaussianBlur
         in="composite1"
         stdDeviation="6.9019"
         result="blur"
         id="feGaussianBlur1611" /><feOffset
         dx="0"
         dy="0"
         result="offset"
         id="feOffset1613" /><feComposite
         in="offset"
         in2="SourceGraphic"
         operator="atop"
         result="composite2"
         id="feComposite1615" /></filter></defs><path
     d="M0 0h512v512H0z"
     fill="#1b1f21"
     fill-opacity="0"
     id="path15" /><style
     type="text/css"
     id="style361">
	.st0{fill:#000000;}
</style><g
     id="g630"
     style="fill:#ff0ec0;fill-opacity:1;filter:url(#filter1617)"><g
       id="g377"
       transform="matrix(0.91260259,0,0,0.91260259,22.373737,22.373281)"
       style="fill:#ff0ec0;fill-opacity:1">
	<path
   class="st0"
   d="m 274.326,147.552 62.35,6.409 c 3.662,0.374 6.994,-2.15 7.621,-5.775 l 2.62,-15.214 c 0.35,-2.036 -0.214,-4.126 -1.546,-5.701 -1.328,-1.582 -3.291,-2.497 -5.354,-2.497 H 275.04 c -3.869,0 -7.003,3.138 -7.003,7.003 v 8.806 c 0,3.598 2.713,6.602 6.289,6.969 z"
   id="path363"
   style="fill:#ff0ec0;fill-opacity:1" />
	<path
   class="st0"
   d="m 411.116,334.266 c 11.673,0 21.136,-9.46 21.136,-21.136 0,-11.683 -9.463,-21.13 -21.136,-21.13 -11.67,0 -21.133,9.447 -21.133,21.13 10e-4,11.676 9.464,21.136 21.133,21.136 z"
   id="path365"
   style="fill:#ff0ec0;fill-opacity:1" />
	<path
   class="st0"
   d="m 100.884,334.266 c 11.67,0 21.133,-9.46 21.133,-21.136 0,-11.683 -9.463,-21.13 -21.133,-21.13 -11.673,0 -21.136,9.447 -21.136,21.13 0,11.676 9.463,21.136 21.136,21.136 z"
   id="path367"
   style="fill:#ff0ec0;fill-opacity:1" />
	<path
   class="st0"
   d="m 151.822,225.368 -9.857,30.382 c 2.974,2.163 5.815,4.493 8.418,7.09 12.692,12.718 20.492,30.116 20.502,49.496 -0.01,19.38 -7.811,36.791 -20.502,49.502 -12.717,12.691 -30.118,20.495 -49.499,20.502 C 81.504,382.333 64.103,374.529 51.385,361.838 38.695,349.127 30.89,331.716 30.883,312.336 30.89,292.955 38.694,275.558 51.385,262.84 64.096,250.156 81.49,242.352 100.861,242.338 l 9.861,-30.382 c -3.238,-0.314 -6.519,-0.501 -9.838,-0.501 C 45.16,211.468 0.01,256.618 0,312.336 c 0.01,55.73 45.16,100.873 100.884,100.887 55.725,-0.014 100.874,-45.156 100.881,-100.887 -0.004,-37.113 -20.095,-69.451 -49.943,-86.968 z"
   id="path369"
   style="fill:#ff0ec0;fill-opacity:1" />
	<path
   class="st0"
   d="m 344.263,291.513 c 1.158,-3.732 2.684,-7.304 4.426,-10.742 l -22.498,-22.738 c -6.466,10.094 -11.235,21.363 -13.779,33.48 z"
   id="path371"
   style="fill:#ff0ec0;fill-opacity:1" />
	<path
   class="st0"
   d="m 411.116,211.454 c -20.038,0.007 -38.664,5.922 -54.36,15.996 l 22.411,22.651 c 9.574,-4.933 20.395,-7.764 31.948,-7.764 19.38,0.007 36.781,7.811 49.499,20.502 12.691,12.718 20.496,30.116 20.502,49.496 -0.006,19.38 -7.81,36.791 -20.502,49.502 -12.718,12.691 -30.119,20.495 -49.499,20.502 -19.381,-0.007 -36.782,-7.811 -49.499,-20.502 -7.541,-7.55 -13.296,-16.79 -16.777,-27.085 h -32.018 c 10.204,44.916 50.286,78.456 98.294,78.47 C 466.841,413.209 511.99,368.066 512,312.336 511.99,256.618 466.841,211.468 411.116,211.454 Z"
   id="path373"
   style="fill:#ff0ec0;fill-opacity:1" />
	<path
   class="st0"
   d="m 380.717,313.13 c 0,-3.245 0.647,-6.322 1.599,-9.26 H 265.87 l 31.828,-92.196 86.574,87.496 c 2.934,-5.608 7.52,-10.154 13.172,-13.039 l -93,-93.998 9.694,-28.072 -18.934,-1.95 -7.153,20.716 -125.601,-30.255 3.111,-9.593 c 1.108,-3.412 1.649,-6.93 1.649,-10.421 0,-7.05 -2.206,-14.026 -6.459,-19.867 -6.356,-8.733 -16.506,-13.913 -27.318,-13.913 H 102.3 v 18.532 h 31.133 c 4.876,0 9.466,2.336 12.334,6.276 1.916,2.636 2.914,5.781 2.914,8.972 0,1.576 -0.244,3.158 -0.744,4.7 L 100.74,282.754 c 0.051,-0.007 0.094,-0.02 0.144,-0.02 6.533,0 12.555,2.116 17.514,5.641 l 35.33,-108.912 91.124,138.754 c 1.719,2.617 4.616,4.179 7.744,4.179 h 129.721 c -0.953,-2.938 -1.6,-6.009 -1.6,-9.266 z M 250.172,292.568 172.31,174.002 281.98,200.425 Z"
   id="path375"
   style="fill:#ff0ec0;fill-opacity:1" />
</g></g></svg>
