<?xml version="1.0" encoding="UTF-8" standalone="no"?>
<svg
   viewBox="0 0 512 512"
   style="height: 512px; width: 512px;"
   version="1.1"
   id="svg21"
   sodipodi:docname="bottle_dynamo.svg"
   inkscape:version="1.2.2 (b0a8486541, 2022-12-01)"
   xmlns:inkscape="http://www.inkscape.org/namespaces/inkscape"
   xmlns:sodipodi="http://sodipodi.sourceforge.net/DTD/sodipodi-0.dtd"
   xmlns="http://www.w3.org/2000/svg"
   xmlns:svg="http://www.w3.org/2000/svg">
  <sodipodi:namedview
     id="namedview23"
     pagecolor="#ffffff"
     bordercolor="#666666"
     borderopacity="1.0"
     inkscape:showpageshadow="2"
     inkscape:pageopacity="0.0"
     inkscape:pagecheckerboard="0"
     inkscape:deskcolor="#d1d1d1"
     showgrid="false"
     inkscape:zoom="1.84375"
     inkscape:cx="254.64407"
     inkscape:cy="240.27119"
     inkscape:window-width="1716"
     inkscape:window-height="1402"
     inkscape:window-x="3160"
     inkscape:window-y="684"
     inkscape:window-maximized="1"
     inkscape:current-layer="svg21" />
  <defs
     id="defs13">
    <filter
       id="shadow-1"
       height="1.2166534"
       width="1.1515789"
       x="-0.075789474"
       y="-0.10832671">
      <feFlood
         flood-color="rgba(58, 63, 94, 1)"
         result="flood"
         id="feFlood2" />
      <feComposite
         in="flood"
         in2="SourceGraphic"
         operator="out"
         result="composite"
         id="feComposite4" />
      <feGaussianBlur
         in="composite"
         stdDeviation="15"
         result="blur"
         id="feGaussianBlur6" />
      <feOffset
         dx="0"
         dy="0"
         result="offset"
         id="feOffset8" />
      <feComposite
         in2="SourceGraphic"
         in="offset"
         operator="atop"
         id="feComposite10" />
    </filter>
    <filter
       style="color-interpolation-filters:sRGB;"
       inkscape:label="Drop Shadow"
       id="filter1438"
       x="-0.17794416"
       y="-0.10055848"
       width="1.3558883"
       height="1.201117">
      <feFlood
         flood-opacity="1"
         flood-color="rgb(58,63,94)"
         result="flood"
         id="feFlood1428" />
      <feComposite
         in="flood"
         in2="SourceGraphic"
         operator="out"
         result="composite1"
         id="feComposite1430" />
      <feGaussianBlur
         in="composite1"
         stdDeviation="15"
         result="blur"
         id="feGaussianBlur1432" />
      <feOffset
         dx="0"
         dy="0"
         result="offset"
         id="feOffset1434" />
      <feComposite
         in="offset"
         in2="SourceGraphic"
         operator="atop"
         result="composite2"
         id="feComposite1436" />
    </filter>
  </defs>
  <path
     d="M0 0h512v512H0z"
     fill="#1b1f21"
     fill-opacity="0"
     id="path15" />
  <g
     class=""
     id="g334"
     transform="matrix(0.87168574,0.87168574,-0.87168574,0.87168574,289.14221,-211.01913)"
     style="fill:#ff0ec0;fill-opacity:1;filter:url(#filter1438)">
    <path
       id="path332"
       d="m 154.84467,133.00009 c 44.93032,237.99687 -0.0933,0.0193 44.62362,238.00006 h 15.53153 v -23.00022 c 0,-21.99998 20.5002,-32.99914 41.00018,-32.99914 20.49998,0 41.00018,10.99916 41.00018,32.99914 v 23.00022 h 15.53153 c 44.40839,-237.7926 -0.34327,1.4836 44.62362,-238.00006 z M 256,143.80862 300.53807,232.88476 H 256 v 62.35425 L 211.46193,206.16287 H 256 Z m 0,189.19213 c -11.49999,0 -23.00022,4.99819 -23.00022,14.99918 v 6.99972 h 46.00044 v -6.99972 c 0,-10.00099 -11.50023,-14.99918 -23.00022,-14.99918 z m -23.00022,39.99887 v 29.99994 h 46.00044 v -29.99994 z m -32.99914,21.00075 v 35.99993 h 14.99918 v -35.99993 z m 96.99954,0 v 35.99993 h 14.99918 v -35.99993 z m -64.0004,26.99916 v 29.99994 h 46.00044 v -29.99994 z m 0,47.9999 v 7.00131 c 0,19.99998 46.00044,19.99998 46.00044,0 v -7.00131 z"
       style="fill:#ff0ec0;fill-opacity:1" />
  </g>
  <g
     class=""
     id="g590"
     transform="matrix(0.73206214,0,0,0.73206214,207.95183,-35.201739)" />
</svg>
