<?xml version="1.0" encoding="UTF-8" standalone="no"?>
<svg
   viewBox="0 0 512 512"
   style="height: 512px; width: 512px;"
   version="1.1"
   id="svg21"
   sodipodi:docname="cycle_armor.svg"
   xml:space="preserve"
   inkscape:version="1.2.2 (b0a8486541, 2022-12-01)"
   xmlns:inkscape="http://www.inkscape.org/namespaces/inkscape"
   xmlns:sodipodi="http://sodipodi.sourceforge.net/DTD/sodipodi-0.dtd"
   xmlns="http://www.w3.org/2000/svg"
   xmlns:svg="http://www.w3.org/2000/svg"><sodipodi:namedview
     id="namedview23"
     pagecolor="#ffffff"
     bordercolor="#666666"
     borderopacity="1.0"
     inkscape:showpageshadow="2"
     inkscape:pageopacity="0.0"
     inkscape:pagecheckerboard="0"
     inkscape:deskcolor="#d1d1d1"
     showgrid="false"
     inkscape:zoom="1.84375"
     inkscape:cx="308.88136"
     inkscape:cy="331.9322"
     inkscape:window-width="1716"
     inkscape:window-height="1402"
     inkscape:window-x="3160"
     inkscape:window-y="684"
     inkscape:window-maximized="1"
     inkscape:current-layer="svg21" /><defs
     id="defs13"><filter
       id="shadow-1"
       height="1.2166534"
       width="1.1515789"
       x="-0.075789474"
       y="-0.10832671"><feFlood
         flood-color="rgba(58, 63, 94, 1)"
         result="flood"
         id="feFlood2" /><feComposite
         in="flood"
         in2="SourceGraphic"
         operator="out"
         result="composite"
         id="feComposite4" /><feGaussianBlur
         in="composite"
         stdDeviation="15"
         result="blur"
         id="feGaussianBlur6" /><feOffset
         dx="0"
         dy="0"
         result="offset"
         id="feOffset8" /><feComposite
         in2="SourceGraphic"
         in="offset"
         operator="atop"
         id="feComposite10" /></filter><filter
       id="shadow-1-5"
       height="1.1536426"
       width="1.1836397"
       x="-0.091819868"
       y="-0.076821308"><feFlood
         flood-color="rgba(58, 63, 94, 1)"
         result="flood"
         id="feFlood2-3" /><feComposite
         in="flood"
         in2="SourceGraphic"
         operator="out"
         result="composite"
         id="feComposite4-5" /><feGaussianBlur
         in="composite"
         stdDeviation="15"
         result="blur"
         id="feGaussianBlur6-6" /><feOffset
         dx="0"
         dy="0"
         result="offset"
         id="feOffset8-2" /><feComposite
         in2="SourceGraphic"
         in="offset"
         operator="atop"
         id="feComposite10-9" /></filter><filter
       style="color-interpolation-filters:sRGB;"
       inkscape:label="Drop Shadow"
       id="filter1251"
       x="-0.060000001"
       y="-0.060000001"
       width="1.12"
       height="1.12"><feFlood
         flood-opacity="1"
         flood-color="rgb(58,63,94)"
         result="flood"
         id="feFlood1241" /><feComposite
         in="flood"
         in2="SourceGraphic"
         operator="out"
         result="composite1"
         id="feComposite1243" /><feGaussianBlur
         in="composite1"
         stdDeviation="0.8"
         result="blur"
         id="feGaussianBlur1245" /><feOffset
         dx="0"
         dy="0"
         result="offset"
         id="feOffset1247" /><feComposite
         in="offset"
         in2="SourceGraphic"
         operator="atop"
         result="composite2"
         id="feComposite1249" /></filter><filter
       style="color-interpolation-filters:sRGB;"
       inkscape:label="Drop Shadow"
       id="filter1501"
       x="-0.064327537"
       y="-0.075563336"
       width="1.1286551"
       height="1.1511267"><feFlood
         flood-opacity="1"
         flood-color="rgb(58,63,94)"
         result="flood"
         id="feFlood1491" /><feComposite
         in="flood"
         in2="SourceGraphic"
         operator="out"
         result="composite1"
         id="feComposite1493" /><feGaussianBlur
         in="composite1"
         stdDeviation="11.4908"
         result="blur"
         id="feGaussianBlur1495" /><feOffset
         dx="0"
         dy="0"
         result="offset"
         id="feOffset1497" /><feComposite
         in="offset"
         in2="SourceGraphic"
         operator="atop"
         result="composite2"
         id="feComposite1499" /></filter><filter
       style="color-interpolation-filters:sRGB;"
       inkscape:label="Drop Shadow"
       id="filter1235"
       x="-0.89345794"
       y="-1.0876902"
       width="2.7869159"
       height="3.1753803"><feFlood
         flood-opacity="1"
         flood-color="rgb(58,63,94)"
         result="flood"
         id="feFlood1225" /><feComposite
         in="flood"
         in2="SourceGraphic"
         operator="out"
         result="composite1"
         id="feComposite1227" /><feGaussianBlur
         in="composite1"
         stdDeviation="10.4237"
         result="blur"
         id="feGaussianBlur1229" /><feOffset
         dx="0"
         dy="0"
         result="offset"
         id="feOffset1231" /><feComposite
         in="offset"
         in2="SourceGraphic"
         operator="atop"
         result="composite2"
         id="feComposite1233" /></filter><filter
       style="color-interpolation-filters:sRGB;"
       inkscape:label="Drop Shadow"
       id="filter1805"
       x="-0.035122019"
       y="-0.046851095"
       width="1.070244"
       height="1.0937022"><feFlood
         flood-opacity="1"
         flood-color="rgb(58,63,94)"
         result="flood"
         id="feFlood1795" /><feComposite
         in="flood"
         in2="SourceGraphic"
         operator="out"
         result="composite1"
         id="feComposite1797" /><feGaussianBlur
         in="composite1"
         stdDeviation="6.9019"
         result="blur"
         id="feGaussianBlur1799" /><feOffset
         dx="0"
         dy="0"
         result="offset"
         id="feOffset1801" /><feComposite
         in="offset"
         in2="SourceGraphic"
         operator="atop"
         result="composite2"
         id="feComposite1803" /></filter></defs><path
     d="M0 0h512v512H0z"
     fill="#1b1f21"
     fill-opacity="0"
     id="path15" /><style
     type="text/css"
     id="style361">
	.st0{fill:#000000;}
</style><g
     id="g1793"
     style="filter:url(#filter1805)"><g
       id="g630"
       style="fill:#ff0ec0;fill-opacity:1"><g
         id="g377"
         transform="matrix(0.91260259,0,0,0.91260259,22.373737,22.373281)"
         style="fill:#ff0ec0;fill-opacity:1">
	<path
   class="st0"
   d="m 274.326,147.552 62.35,6.409 c 3.662,0.374 6.994,-2.15 7.621,-5.775 l 2.62,-15.214 c 0.35,-2.036 -0.214,-4.126 -1.546,-5.701 -1.328,-1.582 -3.291,-2.497 -5.354,-2.497 H 275.04 c -3.869,0 -7.003,3.138 -7.003,7.003 v 8.806 c 0,3.598 2.713,6.602 6.289,6.969 z"
   id="path363"
   style="fill:#ff0ec0;fill-opacity:1" />
	<path
   class="st0"
   d="m 411.116,334.266 c 11.673,0 21.136,-9.46 21.136,-21.136 0,-11.683 -9.463,-21.13 -21.136,-21.13 -11.67,0 -21.133,9.447 -21.133,21.13 10e-4,11.676 9.464,21.136 21.133,21.136 z"
   id="path365"
   style="fill:#ff0ec0;fill-opacity:1" />
	<path
   class="st0"
   d="m 100.884,334.266 c 11.67,0 21.133,-9.46 21.133,-21.136 0,-11.683 -9.463,-21.13 -21.133,-21.13 -11.673,0 -21.136,9.447 -21.136,21.13 0,11.676 9.463,21.136 21.136,21.136 z"
   id="path367"
   style="fill:#ff0ec0;fill-opacity:1" />
	<path
   class="st0"
   d="m 151.822,225.368 -9.857,30.382 c 2.974,2.163 5.815,4.493 8.418,7.09 12.692,12.718 20.492,30.116 20.502,49.496 -0.01,19.38 -7.811,36.791 -20.502,49.502 -12.717,12.691 -30.118,20.495 -49.499,20.502 C 81.504,382.333 64.103,374.529 51.385,361.838 38.695,349.127 30.89,331.716 30.883,312.336 30.89,292.955 38.694,275.558 51.385,262.84 64.096,250.156 81.49,242.352 100.861,242.338 l 9.861,-30.382 c -3.238,-0.314 -6.519,-0.501 -9.838,-0.501 C 45.16,211.468 0.01,256.618 0,312.336 c 0.01,55.73 45.16,100.873 100.884,100.887 55.725,-0.014 100.874,-45.156 100.881,-100.887 -0.004,-37.113 -20.095,-69.451 -49.943,-86.968 z"
   id="path369"
   style="fill:#ff0ec0;fill-opacity:1" />
	<path
   class="st0"
   d="m 344.263,291.513 c 1.158,-3.732 2.684,-7.304 4.426,-10.742 l -22.498,-22.738 c -6.466,10.094 -11.235,21.363 -13.779,33.48 z"
   id="path371"
   style="fill:#ff0ec0;fill-opacity:1" />
	<path
   id="path373"
   style="fill:#ff0ec0;fill-opacity:1"
   class="st0"
   d="M 411.11527 211.45499 C 391.07729 211.46199 372.45092 217.37664 356.75494 227.45063 L 379.1668 250.10005 C 388.74079 245.16705 399.56228 242.33765 411.11527 242.33765 C 430.49525 242.34465 447.89514 250.14736 460.61313 262.83834 C 470.20477 272.45039 477.00045 284.7383 479.75267 298.5321 C 489.72369 303.20314 500.51449 307.88501 511.99434 312.57162 C 511.99453 312.4927 512.00074 312.41517 512.00076 312.3362 C 511.99076 256.61826 466.84021 211.46899 411.11527 211.45499 z M 312.82152 334.75235 C 314.97031 344.21091 318.45784 353.1547 323.05154 361.39747 C 321.86298 352.85438 321.07629 343.98766 320.77012 334.75235 L 312.82152 334.75235 z " />
	<path
   id="path375"
   style="fill:#ff0ec0;fill-opacity:1"
   class="st0"
   d="M 102.29939 98.777166 L 102.29939 117.31104 L 133.43244 117.31104 C 138.30844 117.31104 142.89825 119.64602 145.76625 123.58602 C 147.68224 126.22202 148.68116 129.36662 148.68116 132.55761 C 148.68116 134.13361 148.43638 135.71543 147.93638 137.25743 L 100.7392 282.75477 C 100.7902 282.74777 100.83473 282.73337 100.88473 282.73337 C 107.41773 282.73337 113.43875 284.84986 118.39775 288.37486 L 153.72768 179.46373 L 244.85185 318.21739 C 246.57085 320.83439 249.46699 322.395 252.59499 322.395 L 321.22383 322.395 A 11.336917 11.336917 0 0 1 327.74921 314.87017 C 336.92652 311.19812 345.63395 307.531 353.88497 303.86969 L 265.87047 303.86969 L 297.69694 211.67329 L 377.80137 292.63166 C 383.85177 289.60835 389.50298 286.59194 394.91632 283.57873 L 304.4449 192.13354 L 314.13773 164.06092 L 295.20364 162.11123 L 288.05119 182.82594 L 162.45101 152.57249 L 165.56068 142.9781 C 166.66868 139.56611 167.21075 136.04861 167.21075 132.55761 C 167.21075 125.50762 165.00471 118.53141 160.75172 112.69041 C 154.39573 103.95742 144.24443 98.777166 133.43244 98.777166 L 102.29939 98.777166 z M 172.31078 174.00201 L 281.97953 200.42456 L 250.17232 292.56745 L 172.31078 174.00201 z " />
</g></g><path
       d="M 12,22 C 10.852,22 8.582,20.638 6.87,18.66 4.44,15.854 3,11.967 3,7 A 1,1 0 0 1 3.629,6.071 c 3.274,-1.31 5.88,-2.613 7.816,-3.903 a 1,1 0 0 1 1.11,0 c 1.935,1.29 4.543,2.594 7.816,3.903 A 1,1 0 0 1 21,7 c 0,4.968 -1.44,8.855 -3.87,11.66 C 15.419,20.637 13.149,22 12,22 Z"
       fill="#000000"
       id="path571"
       style="fill:#ff0ec0;fill-opacity:1"
       transform="matrix(9.4021216,0,0,9.4021216,296.55809,259.22848)" /></g></svg>
