<?xml version="1.0" encoding="UTF-8" standalone="no"?>
<svg
   viewBox="0 0 512 512"
   style="height: 512px; width: 512px;"
   version="1.1"
   id="svg21"
   sodipodi:docname="extended_seat.svg"
   xml:space="preserve"
   inkscape:version="1.2.2 (b0a8486541, 2022-12-01)"
   xmlns:inkscape="http://www.inkscape.org/namespaces/inkscape"
   xmlns:sodipodi="http://sodipodi.sourceforge.net/DTD/sodipodi-0.dtd"
   xmlns="http://www.w3.org/2000/svg"
   xmlns:svg="http://www.w3.org/2000/svg"><sodipodi:namedview
     id="namedview23"
     pagecolor="#ffffff"
     bordercolor="#666666"
     borderopacity="1.0"
     inkscape:showpageshadow="2"
     inkscape:pageopacity="0.0"
     inkscape:pagecheckerboard="0"
     inkscape:deskcolor="#d1d1d1"
     showgrid="false"
     inkscape:zoom="1.3037281"
     inkscape:cx="320.23548"
     inkscape:cy="314.48275"
     inkscape:window-width="3436"
     inkscape:window-height="1386"
     inkscape:window-x="1440"
     inkscape:window-y="702"
     inkscape:window-maximized="1"
     inkscape:current-layer="svg21" /><defs
     id="defs13"><filter
       id="shadow-1"
       height="1.2166534"
       width="1.1515789"
       x="-0.075789474"
       y="-0.10832671"><feFlood
         flood-color="rgba(58, 63, 94, 1)"
         result="flood"
         id="feFlood2" /><feComposite
         in="flood"
         in2="SourceGraphic"
         operator="out"
         result="composite"
         id="feComposite4" /><feGaussianBlur
         in="composite"
         stdDeviation="15"
         result="blur"
         id="feGaussianBlur6" /><feOffset
         dx="0"
         dy="0"
         result="offset"
         id="feOffset8" /><feComposite
         in2="SourceGraphic"
         in="offset"
         operator="atop"
         id="feComposite10" /></filter><filter
       id="shadow-1-5"
       height="1.1536426"
       width="1.1836397"
       x="-0.091819868"
       y="-0.076821308"><feFlood
         flood-color="rgba(58, 63, 94, 1)"
         result="flood"
         id="feFlood2-3" /><feComposite
         in="flood"
         in2="SourceGraphic"
         operator="out"
         result="composite"
         id="feComposite4-5" /><feGaussianBlur
         in="composite"
         stdDeviation="15"
         result="blur"
         id="feGaussianBlur6-6" /><feOffset
         dx="0"
         dy="0"
         result="offset"
         id="feOffset8-2" /><feComposite
         in2="SourceGraphic"
         in="offset"
         operator="atop"
         id="feComposite10-9" /></filter><filter
       style="color-interpolation-filters:sRGB;"
       inkscape:label="Drop Shadow"
       id="filter1251"
       x="-0.060000001"
       y="-0.060000001"
       width="1.12"
       height="1.12"><feFlood
         flood-opacity="1"
         flood-color="rgb(58,63,94)"
         result="flood"
         id="feFlood1241" /><feComposite
         in="flood"
         in2="SourceGraphic"
         operator="out"
         result="composite1"
         id="feComposite1243" /><feGaussianBlur
         in="composite1"
         stdDeviation="0.8"
         result="blur"
         id="feGaussianBlur1245" /><feOffset
         dx="0"
         dy="0"
         result="offset"
         id="feOffset1247" /><feComposite
         in="offset"
         in2="SourceGraphic"
         operator="atop"
         result="composite2"
         id="feComposite1249" /></filter><filter
       style="color-interpolation-filters:sRGB;"
       inkscape:label="Drop Shadow"
       id="filter1501"
       x="-0.064327537"
       y="-0.075563336"
       width="1.1286551"
       height="1.1511267"><feFlood
         flood-opacity="1"
         flood-color="rgb(58,63,94)"
         result="flood"
         id="feFlood1491" /><feComposite
         in="flood"
         in2="SourceGraphic"
         operator="out"
         result="composite1"
         id="feComposite1493" /><feGaussianBlur
         in="composite1"
         stdDeviation="11.4908"
         result="blur"
         id="feGaussianBlur1495" /><feOffset
         dx="0"
         dy="0"
         result="offset"
         id="feOffset1497" /><feComposite
         in="offset"
         in2="SourceGraphic"
         operator="atop"
         result="composite2"
         id="feComposite1499" /></filter><filter
       style="color-interpolation-filters:sRGB;"
       inkscape:label="Drop Shadow"
       id="filter1235"
       x="-0.89345794"
       y="-1.0876902"
       width="2.7869159"
       height="3.1753803"><feFlood
         flood-opacity="1"
         flood-color="rgb(58,63,94)"
         result="flood"
         id="feFlood1225" /><feComposite
         in="flood"
         in2="SourceGraphic"
         operator="out"
         result="composite1"
         id="feComposite1227" /><feGaussianBlur
         in="composite1"
         stdDeviation="10.4237"
         result="blur"
         id="feGaussianBlur1229" /><feOffset
         dx="0"
         dy="0"
         result="offset"
         id="feOffset1231" /><feComposite
         in="offset"
         in2="SourceGraphic"
         operator="atop"
         result="composite2"
         id="feComposite1233" /></filter><filter
       style="color-interpolation-filters:sRGB;"
       inkscape:label="Drop Shadow"
       id="filter1617"
       x="-0.035450979"
       y="-0.057723612"
       width="1.070902"
       height="1.1154472"><feFlood
         flood-opacity="1"
         flood-color="rgb(58,63,94)"
         result="flood"
         id="feFlood1607" /><feComposite
         in="flood"
         in2="SourceGraphic"
         operator="out"
         result="composite1"
         id="feComposite1609" /><feGaussianBlur
         in="composite1"
         stdDeviation="6.9019"
         result="blur"
         id="feGaussianBlur1611" /><feOffset
         dx="0"
         dy="0"
         result="offset"
         id="feOffset1613" /><feComposite
         in="offset"
         in2="SourceGraphic"
         operator="atop"
         result="composite2"
         id="feComposite1615" /></filter><filter
       style="color-interpolation-filters:sRGB;"
       inkscape:label="Drop Shadow"
       id="filter982"
       x="-0.052411853"
       y="-0.087367145"
       width="1.1048237"
       height="1.1747343"><feFlood
         flood-opacity="1"
         flood-color="rgb(58,63,94)"
         result="flood"
         id="feFlood972" /><feComposite
         in="flood"
         in2="SourceGraphic"
         operator="out"
         result="composite1"
         id="feComposite974" /><feGaussianBlur
         in="composite1"
         stdDeviation="10.3723"
         result="blur"
         id="feGaussianBlur976" /><feOffset
         dx="0"
         dy="0"
         result="offset"
         id="feOffset978" /><feComposite
         in="offset"
         in2="SourceGraphic"
         operator="atop"
         result="composite2"
         id="feComposite980" /></filter><symbol
       id="v"
       overflow="visible"><path
         d="m4.7969-0.28125c-0.24219 0.125-0.49609 0.21875-0.76562 0.28125-0.27344 0.0625-0.55469 0.09375-0.84375 0.09375-0.86719 0-1.5547-0.23828-2.0625-0.71875-0.51172-0.48828-0.76562-1.1484-0.76562-1.9844 0-0.83203 0.25391-1.4922 0.76562-1.9844 0.50781-0.48828 1.1953-0.73438 2.0625-0.73438 0.28906 0 0.57031 0.039063 0.84375 0.10938 0.26953 0.0625 0.52344 0.15625 0.76562 0.28125v1.0781c-0.24219-0.16406-0.48438-0.28516-0.73438-0.35938-0.24219-0.082031-0.49609-0.125-0.76562-0.125-0.48047 0-0.85938 0.15625-1.1406 0.46875-0.27344 0.30469-0.40625 0.72656-0.40625 1.2656 0 0.54297 0.13281 0.96875 0.40625 1.2812 0.28125 0.30469 0.66016 0.45312 1.1406 0.45312 0.26953 0 0.52344-0.035156 0.76562-0.10938 0.25-0.082031 0.49219-0.21094 0.73438-0.39062z"
         id="path1288" /></symbol><symbol
       id="d"
       overflow="visible"><path
         d="m3.5156-2.8594c-0.11719-0.050781-0.22656-0.085937-0.32812-0.10938-0.10547-0.019531-0.21484-0.03125-0.32812-0.03125-0.32422 0-0.57422 0.10547-0.75 0.3125-0.16797 0.19922-0.25 0.49219-0.25 0.875v1.8125h-1.25v-3.9219h1.25v0.64062c0.15625-0.25 0.33594-0.42969 0.54688-0.54688 0.20703-0.125 0.45703-0.1875 0.75-0.1875 0.039062 0 0.085938 0.007813 0.14062 0.015625 0.050781 0 0.125 0.007812 0.21875 0.015625z"
         id="path1291" /></symbol><symbol
       id="b"
       overflow="visible"><path
         d="m4.5156-1.9688v0.35938h-2.9219c0.019531 0.29297 0.11719 0.51172 0.29688 0.65625 0.1875 0.14844 0.44531 0.21875 0.78125 0.21875 0.25781 0 0.52344-0.035156 0.79688-0.10938 0.28125-0.082031 0.56641-0.20312 0.85938-0.35938v0.96875c-0.29297 0.11719-0.58984 0.19922-0.89062 0.25-0.29297 0.050781-0.58984 0.078125-0.89062 0.078125-0.71094 0-1.2617-0.17578-1.6562-0.53125-0.38672-0.36328-0.57812-0.86719-0.57812-1.5156 0-0.64453 0.19141-1.1484 0.57812-1.5156 0.38281-0.36328 0.91406-0.54688 1.5938-0.54688 0.61328 0 1.1016 0.1875 1.4688 0.5625 0.375 0.36719 0.5625 0.85938 0.5625 1.4844zm-1.2812-0.42188c0-0.23828-0.074219-0.42969-0.21875-0.57812-0.13672-0.14453-0.32031-0.21875-0.54688-0.21875-0.24219 0-0.4375 0.070312-0.59375 0.20312-0.14844 0.13672-0.24219 0.33594-0.28125 0.59375z"
         id="path1294" /></symbol><symbol
       id="l"
       overflow="visible"><path
         d="m2.3594-1.7656c-0.26172 0-0.46094 0.046875-0.59375 0.14062-0.125 0.085938-0.1875 0.21484-0.1875 0.39062 0 0.15625 0.050781 0.28125 0.15625 0.375 0.10156 0.085937 0.25 0.125 0.4375 0.125 0.23828 0 0.4375-0.082031 0.59375-0.25 0.16406-0.16406 0.25-0.37891 0.25-0.64062v-0.14062zm1.9219-0.46875v2.2344h-1.2656v-0.57812c-0.16797 0.24219-0.35938 0.41406-0.57812 0.51562-0.21094 0.10156-0.46484 0.15625-0.76562 0.15625-0.40625 0-0.73438-0.11328-0.98438-0.34375-0.25-0.23828-0.375-0.54688-0.375-0.92188 0-0.45703 0.15625-0.79688 0.46875-1.0156s0.80469-0.32812 1.4844-0.32812h0.75v-0.09375c0-0.19531-0.078125-0.34375-0.23438-0.4375s-0.40234-0.14062-0.73438-0.14062c-0.27344 0-0.52344 0.03125-0.75 0.09375-0.23047 0.054688-0.44531 0.13281-0.64062 0.23438v-0.95312c0.25781-0.070312 0.52344-0.125 0.79688-0.15625 0.26953-0.03125 0.53906-0.046875 0.8125-0.046875 0.70703 0 1.2188 0.14062 1.5312 0.42188 0.32031 0.27344 0.48438 0.72656 0.48438 1.3594z"
         id="path1297" /></symbol><symbol
       id="a"
       overflow="visible"><path
         d="m1.9688-5.0312v1.1094h1.2969v0.89062h-1.2969v1.6719c0 0.17969 0.035156 0.30469 0.10938 0.375 0.070313 0.0625 0.21875 0.09375 0.4375 0.09375h0.64062v0.89062h-1.0781c-0.49219 0-0.83984-0.10156-1.0469-0.3125-0.21094-0.20703-0.3125-0.55469-0.3125-1.0469v-1.6719h-0.625v-0.89062h0.625v-1.1094z"
         id="path1300" /></symbol><symbol
       id="f"
       overflow="visible"><path
         d="m3.2656-3.3438v-2.1094h1.2656v5.4531h-1.2656v-0.5625c-0.16797 0.23047-0.35547 0.39844-0.5625 0.5-0.21094 0.10156-0.44922 0.15625-0.71875 0.15625-0.49219 0-0.89062-0.1875-1.2031-0.5625-0.30469-0.38281-0.45312-0.87891-0.45312-1.4844 0-0.60156 0.14844-1.0977 0.45312-1.4844 0.3125-0.38281 0.71094-0.57812 1.2031-0.57812 0.26953 0 0.50781 0.058594 0.71875 0.17188 0.20703 0.10547 0.39453 0.27344 0.5625 0.5zm-0.82812 2.5312c0.26953 0 0.47266-0.09375 0.60938-0.28125 0.14453-0.19531 0.21875-0.48438 0.21875-0.85938s-0.074219-0.66016-0.21875-0.85938c-0.13672-0.19531-0.33984-0.29688-0.60938-0.29688-0.26172 0-0.46484 0.10156-0.60938 0.29688-0.13672 0.19922-0.20312 0.48438-0.20312 0.85938s0.066406 0.66406 0.20312 0.85938c0.14453 0.1875 0.34766 0.28125 0.60938 0.28125z"
         id="path1303" /></symbol><symbol
       id="k"
       overflow="visible"><path
         d="m2.6875-0.8125c0.26953 0 0.47266-0.09375 0.60938-0.28125 0.14453-0.19531 0.21875-0.48438 0.21875-0.85938s-0.074219-0.66016-0.21875-0.85938c-0.13672-0.19531-0.33984-0.29688-0.60938-0.29688-0.27344 0-0.48047 0.10156-0.625 0.29688-0.13672 0.19922-0.20312 0.48438-0.20312 0.85938 0 0.36719 0.066406 0.64844 0.20312 0.84375 0.14453 0.19922 0.35156 0.29688 0.625 0.29688zm-0.82812-2.5312c0.16406-0.22656 0.35156-0.39453 0.5625-0.5 0.21875-0.11328 0.46094-0.17188 0.73438-0.17188 0.47656 0 0.875 0.19531 1.1875 0.57812 0.3125 0.38672 0.46875 0.88281 0.46875 1.4844 0 0.60547-0.15625 1.1016-0.46875 1.4844-0.3125 0.375-0.71094 0.5625-1.1875 0.5625-0.27344 0-0.51562-0.054688-0.73438-0.15625-0.21094-0.10156-0.39844-0.26953-0.5625-0.5v0.5625h-1.25v-5.4531h1.25z"
         id="path1306" /></symbol><symbol
       id="e"
       overflow="visible"><path
         d="m0.09375-3.9219h1.25l1.0469 2.6562 0.90625-2.6562h1.25l-1.6562 4.2969c-0.16797 0.4375-0.35938 0.73828-0.57812 0.90625-0.21875 0.17578-0.51172 0.26562-0.875 0.26562h-0.71875v-0.82812h0.39062c0.20703 0 0.35938-0.039062 0.45312-0.10938 0.10156-0.0625 0.17969-0.17969 0.23438-0.34375l0.03125-0.10938z"
         id="path1309" /></symbol><symbol
       id="j"
       overflow="visible"><path
         d="m3.8281-0.95312h-2.1094l-0.32812 0.95312h-1.3594l1.9375-5.2344h1.6094l1.9375 5.2344h-1.3594zm-1.7656-0.96875h1.4219l-0.70312-2.0781z"
         id="path1312" /></symbol><symbol
       id="i"
       overflow="visible"><path
         d="m4.2344-3.2656c0.15625-0.25 0.34375-0.4375 0.5625-0.5625s0.45703-0.1875 0.71875-0.1875c0.45703 0 0.80078 0.14062 1.0312 0.42188 0.23828 0.27344 0.35938 0.67188 0.35938 1.2031v2.3906h-1.2656v-2.0469c0.007813-0.03125 0.015625-0.0625 0.015625-0.09375v-0.14062c0-0.28125-0.042969-0.48438-0.125-0.60938-0.085938-0.125-0.21484-0.1875-0.39062-0.1875-0.24219 0-0.42969 0.10156-0.5625 0.29688-0.125 0.19922-0.19531 0.48438-0.20312 0.85938v1.9219h-1.25v-2.0469c0-0.4375-0.042969-0.71875-0.125-0.84375-0.074219-0.125-0.20312-0.1875-0.39062-0.1875-0.24219 0-0.42969 0.10156-0.5625 0.29688-0.125 0.19922-0.1875 0.48438-0.1875 0.85938v1.9219h-1.2656v-3.9219h1.2656v0.57812c0.15625-0.22656 0.33203-0.39453 0.53125-0.5 0.19531-0.11328 0.41406-0.17188 0.65625-0.17188 0.26953 0 0.50781 0.070313 0.71875 0.20312 0.20703 0.125 0.36328 0.30859 0.46875 0.54688z"
         id="path1315" /></symbol><symbol
       id="h"
       overflow="visible"><path
         d="m4.5469-2.3906v2.3906h-1.2656v-1.8281c0-0.33203-0.011719-0.5625-0.03125-0.6875-0.011719-0.13281-0.03125-0.23438-0.0625-0.29688-0.054688-0.082031-0.12109-0.14453-0.20312-0.1875-0.085937-0.050781-0.17969-0.078125-0.28125-0.078125-0.27344 0-0.48047 0.10547-0.625 0.3125-0.14844 0.19922-0.21875 0.48047-0.21875 0.84375v1.9219h-1.25v-5.4531h1.25v2.1094c0.1875-0.22656 0.38281-0.39453 0.59375-0.5 0.21875-0.11328 0.45312-0.17188 0.70312-0.17188 0.45703 0 0.80078 0.14062 1.0312 0.42188 0.23828 0.27344 0.35938 0.67188 0.35938 1.2031z"
         id="path1318" /></symbol><symbol
       id="u"
       overflow="visible"><path
         d="m3.6719-3.7969v0.95312c-0.27344-0.11328-0.53125-0.19531-0.78125-0.25-0.25-0.0625-0.48438-0.09375-0.70312-0.09375-0.24219 0-0.41797 0.03125-0.53125 0.09375-0.11719 0.0625-0.17188 0.15625-0.17188 0.28125 0 0.09375 0.039063 0.17188 0.125 0.23438 0.082031 0.054687 0.23828 0.089844 0.46875 0.10938l0.21875 0.03125c0.64453 0.085938 1.0781 0.21875 1.2969 0.40625s0.32812 0.48047 0.32812 0.875c0 0.41797-0.15625 0.73047-0.46875 0.9375-0.30469 0.21094-0.75781 0.3125-1.3594 0.3125-0.26172 0-0.53125-0.023438-0.8125-0.0625-0.27344-0.03125-0.55469-0.085938-0.84375-0.17188v-0.95312c0.25 0.125 0.50391 0.21875 0.76562 0.28125 0.25781 0.054688 0.52344 0.078125 0.79688 0.078125 0.25 0 0.42969-0.03125 0.54688-0.09375 0.125-0.070313 0.1875-0.17578 0.1875-0.3125 0-0.10156-0.042969-0.17969-0.125-0.23438-0.085937-0.0625-0.25781-0.10938-0.51562-0.14062l-0.21875-0.03125c-0.55469-0.0625-0.94531-0.1875-1.1719-0.375-0.21875-0.19531-0.32812-0.48828-0.32812-0.875 0-0.41406 0.14062-0.72266 0.42188-0.92188 0.28125-0.19531 0.71875-0.29688 1.3125-0.29688 0.22656 0 0.46875 0.023437 0.71875 0.0625 0.25781 0.03125 0.53906 0.085937 0.84375 0.15625z"
         id="path1321" /></symbol><symbol
       id="t"
       overflow="visible"><path
         d="m4.2969-5.0625v1.1094c-0.29297-0.13281-0.57422-0.23438-0.84375-0.29688-0.27344-0.0625-0.52734-0.09375-0.76562-0.09375-0.32422 0-0.5625 0.046875-0.71875 0.14062-0.15625 0.085937-0.23438 0.21875-0.23438 0.40625 0 0.13672 0.050781 0.24609 0.15625 0.32812 0.10156 0.074219 0.28906 0.14062 0.5625 0.20312l0.57812 0.10938c0.58203 0.11719 0.99219 0.29297 1.2344 0.53125 0.25 0.24219 0.375 0.57812 0.375 1.0156 0 0.57422-0.17188 1-0.51562 1.2812s-0.86719 0.42188-1.5625 0.42188c-0.33594 0-0.66797-0.03125-1-0.09375-0.33594-0.0625-0.66797-0.14844-1-0.26562v-1.1406c0.33203 0.17969 0.65625 0.3125 0.96875 0.40625 0.3125 0.085938 0.61328 0.125 0.90625 0.125 0.28906 0 0.51562-0.046875 0.67188-0.14062 0.15625-0.10156 0.23438-0.24219 0.23438-0.42188 0-0.16406-0.058594-0.28906-0.17188-0.375-0.10547-0.09375-0.3125-0.17578-0.625-0.25l-0.51562-0.10938c-0.53125-0.11328-0.91797-0.28906-1.1562-0.53125-0.24219-0.25-0.35938-0.58203-0.35938-1 0-0.51953 0.16406-0.92188 0.5-1.2031 0.33203-0.28125 0.81641-0.42188 1.4531-0.42188 0.28906 0 0.58594 0.027344 0.89062 0.078125 0.30078 0.042969 0.61328 0.10547 0.9375 0.1875z"
         id="path1324" /></symbol><symbol
       id="g"
       overflow="visible"><path
         d="m0.5625-1.5312v-2.3906h1.2656v0.39062c0 0.21094-0.007813 0.47656-0.015625 0.79688v0.64062c0 0.32422 0.003906 0.55469 0.015625 0.6875 0.019531 0.13672 0.050781 0.23438 0.09375 0.29688 0.050781 0.085937 0.11719 0.15234 0.20312 0.20312 0.082031 0.042969 0.17578 0.0625 0.28125 0.0625 0.25781 0 0.46094-0.097656 0.60938-0.29688 0.15625-0.20703 0.23438-0.48828 0.23438-0.84375v-1.9375h1.25v3.9219h-1.25v-0.5625c-0.1875 0.23047-0.39062 0.39844-0.60938 0.5-0.21094 0.10156-0.4375 0.15625-0.6875 0.15625-0.46094 0-0.80859-0.13281-1.0469-0.40625-0.23047-0.28125-0.34375-0.6875-0.34375-1.2188z"
         id="path1327" /></symbol><symbol
       id="s"
       overflow="visible"><path
         d="m0.60938-3.9219h1.25v3.9219h-1.25zm0-1.5312h1.25v1.0312h-1.25z"
         id="path1330" /></symbol><symbol
       id="c"
       overflow="visible"><path
         d="m2.4688-3.125c-0.28125 0-0.49609 0.10547-0.64062 0.3125-0.14844 0.19922-0.21875 0.48438-0.21875 0.85938s0.070313 0.66406 0.21875 0.85938c0.14453 0.19922 0.35938 0.29688 0.64062 0.29688 0.26953 0 0.47656-0.097656 0.625-0.29688 0.14453-0.19531 0.21875-0.48438 0.21875-0.85938s-0.074219-0.66016-0.21875-0.85938c-0.14844-0.20703-0.35547-0.3125-0.625-0.3125zm0-0.89062c0.67578 0 1.2031 0.18359 1.5781 0.54688 0.38281 0.36719 0.57812 0.87109 0.57812 1.5156 0 0.64844-0.19531 1.1523-0.57812 1.5156-0.375 0.35547-0.90234 0.53125-1.5781 0.53125-0.67969 0-1.2109-0.17578-1.5938-0.53125-0.375-0.36328-0.5625-0.86719-0.5625-1.5156 0-0.64453 0.1875-1.1484 0.5625-1.5156 0.38281-0.36328 0.91406-0.54688 1.5938-0.54688z"
         id="path1333" /></symbol><symbol
       id="r"
       overflow="visible"><path
         d="m3.1875-5.4531v0.82812h-0.70312c-0.17969 0-0.30469 0.03125-0.375 0.09375-0.0625 0.0625-0.09375 0.17969-0.09375 0.34375v0.26562h1.0625v0.89062h-1.0625v3.0312h-1.25v-3.0312h-0.625v-0.89062h0.625v-0.26562c0-0.4375 0.11328-0.75391 0.34375-0.95312 0.23828-0.20703 0.60938-0.3125 1.1094-0.3125z"
         id="path1336" /></symbol><symbol
       id="q"
       overflow="visible"><path
         d="m0.65625-5.2344h1.5156l1.8906 3.5938v-3.5938h1.2812v5.2344h-1.5l-1.9062-3.5938v3.5938h-1.2812z"
         id="path1339" /></symbol><symbol
       id="p"
       overflow="visible"><path
         d="m4.5469-2.3906v2.3906h-1.2656v-1.8281c0-0.33203-0.011719-0.5625-0.03125-0.6875-0.011719-0.13281-0.03125-0.23438-0.0625-0.29688-0.054688-0.082031-0.12109-0.14453-0.20312-0.1875-0.085937-0.050781-0.17969-0.078125-0.28125-0.078125-0.27344 0-0.48047 0.10547-0.625 0.3125-0.14844 0.19922-0.21875 0.48047-0.21875 0.84375v1.9219h-1.25v-3.9219h1.25v0.57812c0.1875-0.22656 0.38281-0.39453 0.59375-0.5 0.21875-0.11328 0.45312-0.17188 0.70312-0.17188 0.45703 0 0.80078 0.14062 1.0312 0.42188 0.23828 0.27344 0.35938 0.67188 0.35938 1.2031z"
         id="path1342" /></symbol><symbol
       id="o"
       overflow="visible"><path
         d="m0.65625-5.2344h2.2344c0.66406 0 1.1758 0.15234 1.5312 0.45312 0.36328 0.29297 0.54688 0.71484 0.54688 1.2656 0 0.54297-0.18359 0.96484-0.54688 1.2656-0.35547 0.29297-0.86719 0.4375-1.5312 0.4375h-0.89062v1.8125h-1.3438zm1.3438 0.98438v1.4531h0.75c0.25781 0 0.46094-0.0625 0.60938-0.1875 0.14453-0.125 0.21875-0.30078 0.21875-0.53125 0-0.23828-0.074219-0.42188-0.21875-0.54688-0.14844-0.125-0.35156-0.1875-0.60938-0.1875z"
         id="path1345" /></symbol><symbol
       id="n"
       overflow="visible"><path
         d="m0.60938-3.9219h1.25v3.8594c0 0.51953-0.13281 0.91406-0.39062 1.1875-0.25 0.28125-0.61719 0.42188-1.0938 0.42188h-0.60938v-0.82812h0.21875c0.23828 0 0.39844-0.054688 0.48438-0.15625 0.09375-0.10547 0.14062-0.3125 0.14062-0.625zm0-1.5312h1.25v1.0312h-1.25z"
         id="path1348" /></symbol><symbol
       id="m"
       overflow="visible"><path
         d="m3.7656-3.7969v1.0156c-0.16797-0.11328-0.33984-0.19531-0.51562-0.25-0.16797-0.0625-0.34375-0.09375-0.53125-0.09375-0.34375 0-0.61719 0.10547-0.8125 0.3125-0.19922 0.21094-0.29688 0.49609-0.29688 0.85938 0 0.36719 0.097656 0.65234 0.29688 0.85938 0.19531 0.19922 0.46875 0.29688 0.8125 0.29688 0.19531 0 0.38281-0.023437 0.5625-0.078125 0.17578-0.0625 0.33594-0.14844 0.48438-0.26562v1.0312c-0.1875 0.074219-0.38672 0.125-0.59375 0.15625-0.19922 0.03125-0.40234 0.046875-0.60938 0.046875-0.71094 0-1.2617-0.17578-1.6562-0.53125-0.39844-0.36328-0.59375-0.86719-0.59375-1.5156 0-0.64453 0.19531-1.1484 0.59375-1.5156 0.39453-0.36328 0.94531-0.54688 1.6562-0.54688 0.20703 0 0.41016 0.023437 0.60938 0.0625 0.19531 0.03125 0.39453 0.085937 0.59375 0.15625z"
         id="path1351" /></symbol><filter
       style="color-interpolation-filters:sRGB;"
       inkscape:label="Drop Shadow"
       id="filter1737"
       x="-0.049163726"
       y="-0.17096595"
       width="1.0983275"
       height="1.3419319"><feFlood
         flood-opacity="1"
         flood-color="rgb(58,63,94)"
         result="flood"
         id="feFlood1727" /><feComposite
         in="flood"
         in2="SourceGraphic"
         operator="out"
         result="composite1"
         id="feComposite1729" /><feGaussianBlur
         in="composite1"
         stdDeviation="26.1573"
         result="blur"
         id="feGaussianBlur1731" /><feOffset
         dx="0"
         dy="0"
         result="offset"
         id="feOffset1733" /><feComposite
         in="offset"
         in2="SourceGraphic"
         operator="atop"
         result="composite2"
         id="feComposite1735" /></filter></defs><path
     d="M0 0h512v512H0z"
     fill="#1b1f21"
     fill-opacity="0"
     id="path15" /><style
     type="text/css"
     id="style361">
	.st0{fill:#000000;}
</style><g
     id="g1581"
     transform="matrix(-0.36521009,0,0,0.36521009,324.64654,169.37221)"
     style="fill:#ff0ec0;fill-opacity:1;filter:url(#filter1737)"><path
       d="m 566.93367,350.80922 c -12.16147,12.15627 -28.28667,18.84933 -45.396,18.84933 H -95.914554 c -0.13027,0.13027 -0.26563,0.25 -0.39584,0.38022 -13.374656,13.0364 -27.937326,24.28666 -43.359996,33.636 h 682.62555 c 19.016,0 37.552,-7.89067 50.85467,-21.64 L 701.54982,270.66544 c -20.604,4.67186 -42.62533,8.30733 -65.484,11.07293 z"
       id="path1356"
       style="fill:#ff0ec0;fill-opacity:1;stroke-width:1.33333"
       sodipodi:nodetypes="cscccscccc" /><path
       d="m 817.12033,131.51589 c -9,-12.974 -23.09867,-21.15066 -38.672,-22.43733 L -228.77743,54.297227 c -106.07333,-8.760399 -202.33332,66.385333 -219.10666,171.066663 -6.40107,39.95867 -0.95312,77.34933 15.76,108.12533 34.37467,63.30667 111.83333,89.396 173.34666,87.17733 24.588,-0.89063 48.82267,-6.45306 71.69333,-16.21333 0.21875,-0.10933 0.4375,-0.20312 0.67188,-0.28645 24.28134,-10.4636 47.00534,-25.66667 66.932,-45.09334 0.8073,-0.79166 1.64067,-1.55733 2.4584,-2.33333 0.11973,-0.12493 0.24479,-0.23959 0.375,-0.35416 57.906673,-54.932 480.9991,-85.16666 562.49244,-82.99466 221.73332,5.87493 355.93332,-28.25067 377.90665,-96.09334 0.26042,-0.79688 0.50522,-1.61453 0.73959,-2.44266 4.17707,-14.776 1.4896,-30.57867 -7.36973,-43.344 z"
       id="path1358"
       style="fill:#ff0ec0;fill-opacity:1;stroke-width:1.33333"
       sodipodi:nodetypes="cccccccccccccccc" /></g></svg>
