<?xml version="1.0" encoding="UTF-8" standalone="no"?>
<svg
   viewBox="0 0 512 512"
   style="height: 512px; width: 512px;"
   version="1.1"
   id="svg21"
   sodipodi:docname="folding_frame.svg"
   xml:space="preserve"
   inkscape:version="1.2.2 (b0a8486541, 2022-12-01)"
   xmlns:inkscape="http://www.inkscape.org/namespaces/inkscape"
   xmlns:sodipodi="http://sodipodi.sourceforge.net/DTD/sodipodi-0.dtd"
   xmlns="http://www.w3.org/2000/svg"
   xmlns:svg="http://www.w3.org/2000/svg"><sodipodi:namedview
     id="namedview23"
     pagecolor="#ffffff"
     bordercolor="#666666"
     borderopacity="1.0"
     inkscape:showpageshadow="2"
     inkscape:pageopacity="0.0"
     inkscape:pagecheckerboard="0"
     inkscape:deskcolor="#d1d1d1"
     showgrid="false"
     inkscape:zoom="1.3037281"
     inkscape:cx="353.98485"
     inkscape:cy="314.48274"
     inkscape:window-width="1716"
     inkscape:window-height="1402"
     inkscape:window-x="3160"
     inkscape:window-y="684"
     inkscape:window-maximized="1"
     inkscape:current-layer="svg21" /><defs
     id="defs13"><filter
       id="shadow-1"
       height="1.2166534"
       width="1.1515789"
       x="-0.075789474"
       y="-0.10832671"><feFlood
         flood-color="rgba(58, 63, 94, 1)"
         result="flood"
         id="feFlood2" /><feComposite
         in="flood"
         in2="SourceGraphic"
         operator="out"
         result="composite"
         id="feComposite4" /><feGaussianBlur
         in="composite"
         stdDeviation="15"
         result="blur"
         id="feGaussianBlur6" /><feOffset
         dx="0"
         dy="0"
         result="offset"
         id="feOffset8" /><feComposite
         in2="SourceGraphic"
         in="offset"
         operator="atop"
         id="feComposite10" /></filter><filter
       id="shadow-1-5"
       height="1.1536426"
       width="1.1836397"
       x="-0.091819868"
       y="-0.076821308"><feFlood
         flood-color="rgba(58, 63, 94, 1)"
         result="flood"
         id="feFlood2-3" /><feComposite
         in="flood"
         in2="SourceGraphic"
         operator="out"
         result="composite"
         id="feComposite4-5" /><feGaussianBlur
         in="composite"
         stdDeviation="15"
         result="blur"
         id="feGaussianBlur6-6" /><feOffset
         dx="0"
         dy="0"
         result="offset"
         id="feOffset8-2" /><feComposite
         in2="SourceGraphic"
         in="offset"
         operator="atop"
         id="feComposite10-9" /></filter><filter
       style="color-interpolation-filters:sRGB;"
       inkscape:label="Drop Shadow"
       id="filter1251"
       x="-0.060000001"
       y="-0.060000001"
       width="1.12"
       height="1.12"><feFlood
         flood-opacity="1"
         flood-color="rgb(58,63,94)"
         result="flood"
         id="feFlood1241" /><feComposite
         in="flood"
         in2="SourceGraphic"
         operator="out"
         result="composite1"
         id="feComposite1243" /><feGaussianBlur
         in="composite1"
         stdDeviation="0.8"
         result="blur"
         id="feGaussianBlur1245" /><feOffset
         dx="0"
         dy="0"
         result="offset"
         id="feOffset1247" /><feComposite
         in="offset"
         in2="SourceGraphic"
         operator="atop"
         result="composite2"
         id="feComposite1249" /></filter><filter
       style="color-interpolation-filters:sRGB;"
       inkscape:label="Drop Shadow"
       id="filter1501"
       x="-0.064327537"
       y="-0.075563336"
       width="1.1286551"
       height="1.1511267"><feFlood
         flood-opacity="1"
         flood-color="rgb(58,63,94)"
         result="flood"
         id="feFlood1491" /><feComposite
         in="flood"
         in2="SourceGraphic"
         operator="out"
         result="composite1"
         id="feComposite1493" /><feGaussianBlur
         in="composite1"
         stdDeviation="11.4908"
         result="blur"
         id="feGaussianBlur1495" /><feOffset
         dx="0"
         dy="0"
         result="offset"
         id="feOffset1497" /><feComposite
         in="offset"
         in2="SourceGraphic"
         operator="atop"
         result="composite2"
         id="feComposite1499" /></filter><filter
       style="color-interpolation-filters:sRGB;"
       inkscape:label="Drop Shadow"
       id="filter1235"
       x="-0.89345794"
       y="-1.0876902"
       width="2.7869159"
       height="3.1753803"><feFlood
         flood-opacity="1"
         flood-color="rgb(58,63,94)"
         result="flood"
         id="feFlood1225" /><feComposite
         in="flood"
         in2="SourceGraphic"
         operator="out"
         result="composite1"
         id="feComposite1227" /><feGaussianBlur
         in="composite1"
         stdDeviation="10.4237"
         result="blur"
         id="feGaussianBlur1229" /><feOffset
         dx="0"
         dy="0"
         result="offset"
         id="feOffset1231" /><feComposite
         in="offset"
         in2="SourceGraphic"
         operator="atop"
         result="composite2"
         id="feComposite1233" /></filter><filter
       style="color-interpolation-filters:sRGB;"
       inkscape:label="Drop Shadow"
       id="filter1617"
       x="-0.035450979"
       y="-0.057723612"
       width="1.070902"
       height="1.1154472"><feFlood
         flood-opacity="1"
         flood-color="rgb(58,63,94)"
         result="flood"
         id="feFlood1607" /><feComposite
         in="flood"
         in2="SourceGraphic"
         operator="out"
         result="composite1"
         id="feComposite1609" /><feGaussianBlur
         in="composite1"
         stdDeviation="6.9019"
         result="blur"
         id="feGaussianBlur1611" /><feOffset
         dx="0"
         dy="0"
         result="offset"
         id="feOffset1613" /><feComposite
         in="offset"
         in2="SourceGraphic"
         operator="atop"
         result="composite2"
         id="feComposite1615" /></filter><filter
       style="color-interpolation-filters:sRGB;"
       inkscape:label="Drop Shadow"
       id="filter982"
       x="-0.052411853"
       y="-0.087367145"
       width="1.1048237"
       height="1.1747343"><feFlood
         flood-opacity="1"
         flood-color="rgb(58,63,94)"
         result="flood"
         id="feFlood972" /><feComposite
         in="flood"
         in2="SourceGraphic"
         operator="out"
         result="composite1"
         id="feComposite974" /><feGaussianBlur
         in="composite1"
         stdDeviation="10.3723"
         result="blur"
         id="feGaussianBlur976" /><feOffset
         dx="0"
         dy="0"
         result="offset"
         id="feOffset978" /><feComposite
         in="offset"
         in2="SourceGraphic"
         operator="atop"
         result="composite2"
         id="feComposite980" /></filter></defs><path
     d="M0 0h512v512H0z"
     fill="#1b1f21"
     fill-opacity="0"
     id="path15" /><style
     type="text/css"
     id="style361">
	.st0{fill:#000000;}
</style><path
     d="m 427.00915,265.42346 c -8.12432,0.0424 -16.17203,1.58922 -23.73294,4.55586 -12.74799,-38.36654 -20.72008,-78.15761 -23.73295,-118.47486 h 9.30245 c 5.2424,0 9.49317,-4.25078 9.49317,-9.49318 0,-5.2424 -4.25077,-9.49318 -9.49317,-9.49318 h -18.98636 c -5.2424,0 -9.49318,4.25078 -9.49318,9.49318 0.89423,34.67994 6.0561,69.11359 15.38004,102.52632 L 257.46663,227.44988 h -4.36512 l -47.4659,15.75651 -31.89924,-110.68503 h 6.45449 c 5.2424,0 9.49318,-4.25078 9.49318,-9.49318 0,-5.2424 -4.25078,-9.49318 -9.49318,-9.49318 h -37.9727 c -5.24241,0 -9.49318,4.25078 -9.49318,9.49318 0,5.2424 4.25077,9.49318 9.49318,9.49318 h 11.77371 l 34.17543,119.41875 -53.72921,35.69218 -0.004,0.004 C 120.86372,272.51122 101.119,264.42411 80.840483,265.68806 c -20.282856,1.2672 -38.871041,11.73899 -50.458143,28.43288 -11.587102,16.69389 -14.900493,37.76875 -8.988898,57.21294 5.907795,19.4442 20.384837,35.11175 39.303922,42.53704 18.914756,7.42507 40.189236,5.78486 57.743476,-4.44997 17.55425,-10.23484 29.46249,-27.93707 32.32346,-48.05501 h 40.62971 c 2.8141,8.46335 9.42961,15.12507 17.87647,17.99038 8.44643,2.86488 17.74845,1.61048 25.13143,-3.39465 7.38265,-5.00512 11.99829,-13.17978 12.45939,-22.08818 0.46618,-8.90829 -3.2675,-17.51627 -10.09077,-23.26642 l 25.24969,-63.2224 119.41876,17.08772 c 1.51717,5.31444 3.22941,10.63323 4.74658,15.38004 h 0.004 c -16.40964,13.09515 -25.61856,33.21743 -24.8092,54.20007 0.8137,20.9783 11.55238,40.32485 28.9287,52.11484 17.37631,11.78998 39.3202,14.61732 59.11591,7.61993 19.79572,-6.99696 35.09114,-22.9876 41.19823,-43.0795 6.10699,-20.08865 2.30125,-41.8839 -10.25599,-58.71775 -12.5527,-16.82951 -32.36144,-26.69482 -53.35709,-26.56788 z m -216.44446,-3.22941 29.2379,-9.68392 -18.98635,48.60616 z m -17.27867,9.11171 9.30245,36.83245 v 0.004 c -5.11102,3.43285 -8.9761,8.4294 -11.00992,14.23977 h -40.82066 c -0.92388,-6.58165 -2.84372,-12.98125 -5.6959,-18.98636 z M 85.25474,360.35503 c -10.175493,0 -19.575473,-5.42891 -24.664904,-14.23977 -5.085631,-8.81086 -5.085631,-19.66878 0,-28.47954 5.089863,-8.81086 14.489305,-14.23976 24.664904,-14.23976 6.098527,0.0254 12.027592,2.02579 16.89678,5.6959 l -22.216211,14.80719 h 0.0041 c -3.56423,2.30126 -5.17037,6.68341 -3.932893,10.74335 1.233245,4.05581 5.009362,6.80199 9.247337,6.72573 H 112.0257 c -1.95798,5.53913 -5.58144,10.3365 -10.37469,13.73527 -4.793243,3.39889 -10.523,5.23394 -16.39662,5.25087 z m 132.9045,-18.98636 c -3.8397,0 -7.30216,-2.31395 -8.76845,-5.86114 -1.47063,-3.54719 -0.66114,-7.62839 2.05541,-10.34507 2.71654,-2.71668 6.79777,-3.52604 10.34507,-2.05541 3.54719,1.46639 5.86114,4.92885 5.86114,8.76844 0,2.51737 -1.00018,4.93309 -2.78014,6.71303 -1.77997,1.77995 -4.19566,2.78015 -6.71303,2.78015 z m 208.84991,18.98636 c -7.55212,0 -14.7996,-3.0005 -20.13856,-8.34044 -5.33896,-5.33994 -8.34043,-12.58741 -8.34043,-20.13855 0.0254,-4.21259 1.00018,-8.36583 2.84795,-12.15019 l 18.98636,18.98636 c 3.721,3.72099 9.75594,3.72099 13.48139,0 3.72101,-3.72523 3.72101,-9.76018 0,-13.4814 l -17.65514,-17.65514 v -1.70791 l -0.004,-0.004 c 7.91242,-3.51758 16.99442,-3.24634 24.67792,0.73742 7.68774,3.98377 13.14615,11.24752 14.83323,19.73605 1.68675,8.49297 -0.58062,17.29168 -6.16211,23.91087 -5.58144,6.61561 -13.87088,10.3365 -22.52541,10.10769 z"
     id="path319"
     style="fill:#ff0ec0;fill-opacity:1;stroke-width:1.08493;filter:url(#filter982)"
     transform="matrix(-1,0,0,1,512,0)" /></svg>
