<?xml version="1.0" encoding="UTF-8" standalone="no"?>
<svg
   viewBox="0 0 512 512"
   style="height: 512px; width: 512px;"
   version="1.1"
   id="svg21"
   sodipodi:docname="neon_lighting.svg"
   xml:space="preserve"
   inkscape:version="1.2.2 (b0a8486541, 2022-12-01)"
   xmlns:inkscape="http://www.inkscape.org/namespaces/inkscape"
   xmlns:sodipodi="http://sodipodi.sourceforge.net/DTD/sodipodi-0.dtd"
   xmlns="http://www.w3.org/2000/svg"
   xmlns:svg="http://www.w3.org/2000/svg"><sodipodi:namedview
     id="namedview23"
     pagecolor="#ffffff"
     bordercolor="#666666"
     borderopacity="1.0"
     inkscape:showpageshadow="2"
     inkscape:pageopacity="0.0"
     inkscape:pagecheckerboard="0"
     inkscape:deskcolor="#d1d1d1"
     showgrid="false"
     inkscape:zoom="1.3037281"
     inkscape:cx="389.26828"
     inkscape:cy="207.09839"
     inkscape:window-width="1716"
     inkscape:window-height="1402"
     inkscape:window-x="3160"
     inkscape:window-y="684"
     inkscape:window-maximized="1"
     inkscape:current-layer="svg21" /><defs
     id="defs13"><filter
       id="shadow-1"
       height="1.2166534"
       width="1.1515789"
       x="-0.075789474"
       y="-0.10832671"><feFlood
         flood-color="rgba(58, 63, 94, 1)"
         result="flood"
         id="feFlood2" /><feComposite
         in="flood"
         in2="SourceGraphic"
         operator="out"
         result="composite"
         id="feComposite4" /><feGaussianBlur
         in="composite"
         stdDeviation="15"
         result="blur"
         id="feGaussianBlur6" /><feOffset
         dx="0"
         dy="0"
         result="offset"
         id="feOffset8" /><feComposite
         in2="SourceGraphic"
         in="offset"
         operator="atop"
         id="feComposite10" /></filter><filter
       id="shadow-1-5"
       height="1.1536426"
       width="1.1836397"
       x="-0.091819868"
       y="-0.076821308"><feFlood
         flood-color="rgba(58, 63, 94, 1)"
         result="flood"
         id="feFlood2-3" /><feComposite
         in="flood"
         in2="SourceGraphic"
         operator="out"
         result="composite"
         id="feComposite4-5" /><feGaussianBlur
         in="composite"
         stdDeviation="15"
         result="blur"
         id="feGaussianBlur6-6" /><feOffset
         dx="0"
         dy="0"
         result="offset"
         id="feOffset8-2" /><feComposite
         in2="SourceGraphic"
         in="offset"
         operator="atop"
         id="feComposite10-9" /></filter><filter
       style="color-interpolation-filters:sRGB;"
       inkscape:label="Drop Shadow"
       id="filter1251"
       x="-0.060000001"
       y="-0.060000001"
       width="1.12"
       height="1.12"><feFlood
         flood-opacity="1"
         flood-color="rgb(58,63,94)"
         result="flood"
         id="feFlood1241" /><feComposite
         in="flood"
         in2="SourceGraphic"
         operator="out"
         result="composite1"
         id="feComposite1243" /><feGaussianBlur
         in="composite1"
         stdDeviation="0.8"
         result="blur"
         id="feGaussianBlur1245" /><feOffset
         dx="0"
         dy="0"
         result="offset"
         id="feOffset1247" /><feComposite
         in="offset"
         in2="SourceGraphic"
         operator="atop"
         result="composite2"
         id="feComposite1249" /></filter><filter
       style="color-interpolation-filters:sRGB;"
       inkscape:label="Drop Shadow"
       id="filter1501"
       x="-0.064327537"
       y="-0.075563336"
       width="1.1286551"
       height="1.1511267"><feFlood
         flood-opacity="1"
         flood-color="rgb(58,63,94)"
         result="flood"
         id="feFlood1491" /><feComposite
         in="flood"
         in2="SourceGraphic"
         operator="out"
         result="composite1"
         id="feComposite1493" /><feGaussianBlur
         in="composite1"
         stdDeviation="11.4908"
         result="blur"
         id="feGaussianBlur1495" /><feOffset
         dx="0"
         dy="0"
         result="offset"
         id="feOffset1497" /><feComposite
         in="offset"
         in2="SourceGraphic"
         operator="atop"
         result="composite2"
         id="feComposite1499" /></filter><filter
       style="color-interpolation-filters:sRGB;"
       inkscape:label="Drop Shadow"
       id="filter1235"
       x="-0.89345794"
       y="-1.0876902"
       width="2.7869159"
       height="3.1753803"><feFlood
         flood-opacity="1"
         flood-color="rgb(58,63,94)"
         result="flood"
         id="feFlood1225" /><feComposite
         in="flood"
         in2="SourceGraphic"
         operator="out"
         result="composite1"
         id="feComposite1227" /><feGaussianBlur
         in="composite1"
         stdDeviation="10.4237"
         result="blur"
         id="feGaussianBlur1229" /><feOffset
         dx="0"
         dy="0"
         result="offset"
         id="feOffset1231" /><feComposite
         in="offset"
         in2="SourceGraphic"
         operator="atop"
         result="composite2"
         id="feComposite1233" /></filter><filter
       style="color-interpolation-filters:sRGB;"
       inkscape:label="Drop Shadow"
       id="filter1617"
       x="-0.035450979"
       y="-0.057723612"
       width="1.070902"
       height="1.1154472"><feFlood
         flood-opacity="1"
         flood-color="rgb(58,63,94)"
         result="flood"
         id="feFlood1607" /><feComposite
         in="flood"
         in2="SourceGraphic"
         operator="out"
         result="composite1"
         id="feComposite1609" /><feGaussianBlur
         in="composite1"
         stdDeviation="6.9019"
         result="blur"
         id="feGaussianBlur1611" /><feOffset
         dx="0"
         dy="0"
         result="offset"
         id="feOffset1613" /><feComposite
         in="offset"
         in2="SourceGraphic"
         operator="atop"
         result="composite2"
         id="feComposite1615" /></filter><filter
       style="color-interpolation-filters:sRGB;"
       inkscape:label="Drop Shadow"
       id="filter982"
       x="-0.052411853"
       y="-0.087367145"
       width="1.1048237"
       height="1.1747343"><feFlood
         flood-opacity="1"
         flood-color="rgb(58,63,94)"
         result="flood"
         id="feFlood972" /><feComposite
         in="flood"
         in2="SourceGraphic"
         operator="out"
         result="composite1"
         id="feComposite974" /><feGaussianBlur
         in="composite1"
         stdDeviation="10.3723"
         result="blur"
         id="feGaussianBlur976" /><feOffset
         dx="0"
         dy="0"
         result="offset"
         id="feOffset978" /><feComposite
         in="offset"
         in2="SourceGraphic"
         operator="atop"
         result="composite2"
         id="feComposite980" /></filter><symbol
       id="v"
       overflow="visible"><path
         d="m4.7969-0.28125c-0.24219 0.125-0.49609 0.21875-0.76562 0.28125-0.27344 0.0625-0.55469 0.09375-0.84375 0.09375-0.86719 0-1.5547-0.23828-2.0625-0.71875-0.51172-0.48828-0.76562-1.1484-0.76562-1.9844 0-0.83203 0.25391-1.4922 0.76562-1.9844 0.50781-0.48828 1.1953-0.73438 2.0625-0.73438 0.28906 0 0.57031 0.039063 0.84375 0.10938 0.26953 0.0625 0.52344 0.15625 0.76562 0.28125v1.0781c-0.24219-0.16406-0.48438-0.28516-0.73438-0.35938-0.24219-0.082031-0.49609-0.125-0.76562-0.125-0.48047 0-0.85938 0.15625-1.1406 0.46875-0.27344 0.30469-0.40625 0.72656-0.40625 1.2656 0 0.54297 0.13281 0.96875 0.40625 1.2812 0.28125 0.30469 0.66016 0.45312 1.1406 0.45312 0.26953 0 0.52344-0.035156 0.76562-0.10938 0.25-0.082031 0.49219-0.21094 0.73438-0.39062z"
         id="path1288" /></symbol><symbol
       id="d"
       overflow="visible"><path
         d="m3.5156-2.8594c-0.11719-0.050781-0.22656-0.085937-0.32812-0.10938-0.10547-0.019531-0.21484-0.03125-0.32812-0.03125-0.32422 0-0.57422 0.10547-0.75 0.3125-0.16797 0.19922-0.25 0.49219-0.25 0.875v1.8125h-1.25v-3.9219h1.25v0.64062c0.15625-0.25 0.33594-0.42969 0.54688-0.54688 0.20703-0.125 0.45703-0.1875 0.75-0.1875 0.039062 0 0.085938 0.007813 0.14062 0.015625 0.050781 0 0.125 0.007812 0.21875 0.015625z"
         id="path1291" /></symbol><symbol
       id="b"
       overflow="visible"><path
         d="m4.5156-1.9688v0.35938h-2.9219c0.019531 0.29297 0.11719 0.51172 0.29688 0.65625 0.1875 0.14844 0.44531 0.21875 0.78125 0.21875 0.25781 0 0.52344-0.035156 0.79688-0.10938 0.28125-0.082031 0.56641-0.20312 0.85938-0.35938v0.96875c-0.29297 0.11719-0.58984 0.19922-0.89062 0.25-0.29297 0.050781-0.58984 0.078125-0.89062 0.078125-0.71094 0-1.2617-0.17578-1.6562-0.53125-0.38672-0.36328-0.57812-0.86719-0.57812-1.5156 0-0.64453 0.19141-1.1484 0.57812-1.5156 0.38281-0.36328 0.91406-0.54688 1.5938-0.54688 0.61328 0 1.1016 0.1875 1.4688 0.5625 0.375 0.36719 0.5625 0.85938 0.5625 1.4844zm-1.2812-0.42188c0-0.23828-0.074219-0.42969-0.21875-0.57812-0.13672-0.14453-0.32031-0.21875-0.54688-0.21875-0.24219 0-0.4375 0.070312-0.59375 0.20312-0.14844 0.13672-0.24219 0.33594-0.28125 0.59375z"
         id="path1294" /></symbol><symbol
       id="l"
       overflow="visible"><path
         d="m2.3594-1.7656c-0.26172 0-0.46094 0.046875-0.59375 0.14062-0.125 0.085938-0.1875 0.21484-0.1875 0.39062 0 0.15625 0.050781 0.28125 0.15625 0.375 0.10156 0.085937 0.25 0.125 0.4375 0.125 0.23828 0 0.4375-0.082031 0.59375-0.25 0.16406-0.16406 0.25-0.37891 0.25-0.64062v-0.14062zm1.9219-0.46875v2.2344h-1.2656v-0.57812c-0.16797 0.24219-0.35938 0.41406-0.57812 0.51562-0.21094 0.10156-0.46484 0.15625-0.76562 0.15625-0.40625 0-0.73438-0.11328-0.98438-0.34375-0.25-0.23828-0.375-0.54688-0.375-0.92188 0-0.45703 0.15625-0.79688 0.46875-1.0156s0.80469-0.32812 1.4844-0.32812h0.75v-0.09375c0-0.19531-0.078125-0.34375-0.23438-0.4375s-0.40234-0.14062-0.73438-0.14062c-0.27344 0-0.52344 0.03125-0.75 0.09375-0.23047 0.054688-0.44531 0.13281-0.64062 0.23438v-0.95312c0.25781-0.070312 0.52344-0.125 0.79688-0.15625 0.26953-0.03125 0.53906-0.046875 0.8125-0.046875 0.70703 0 1.2188 0.14062 1.5312 0.42188 0.32031 0.27344 0.48438 0.72656 0.48438 1.3594z"
         id="path1297" /></symbol><symbol
       id="a"
       overflow="visible"><path
         d="m1.9688-5.0312v1.1094h1.2969v0.89062h-1.2969v1.6719c0 0.17969 0.035156 0.30469 0.10938 0.375 0.070313 0.0625 0.21875 0.09375 0.4375 0.09375h0.64062v0.89062h-1.0781c-0.49219 0-0.83984-0.10156-1.0469-0.3125-0.21094-0.20703-0.3125-0.55469-0.3125-1.0469v-1.6719h-0.625v-0.89062h0.625v-1.1094z"
         id="path1300" /></symbol><symbol
       id="f"
       overflow="visible"><path
         d="m3.2656-3.3438v-2.1094h1.2656v5.4531h-1.2656v-0.5625c-0.16797 0.23047-0.35547 0.39844-0.5625 0.5-0.21094 0.10156-0.44922 0.15625-0.71875 0.15625-0.49219 0-0.89062-0.1875-1.2031-0.5625-0.30469-0.38281-0.45312-0.87891-0.45312-1.4844 0-0.60156 0.14844-1.0977 0.45312-1.4844 0.3125-0.38281 0.71094-0.57812 1.2031-0.57812 0.26953 0 0.50781 0.058594 0.71875 0.17188 0.20703 0.10547 0.39453 0.27344 0.5625 0.5zm-0.82812 2.5312c0.26953 0 0.47266-0.09375 0.60938-0.28125 0.14453-0.19531 0.21875-0.48438 0.21875-0.85938s-0.074219-0.66016-0.21875-0.85938c-0.13672-0.19531-0.33984-0.29688-0.60938-0.29688-0.26172 0-0.46484 0.10156-0.60938 0.29688-0.13672 0.19922-0.20312 0.48438-0.20312 0.85938s0.066406 0.66406 0.20312 0.85938c0.14453 0.1875 0.34766 0.28125 0.60938 0.28125z"
         id="path1303" /></symbol><symbol
       id="k"
       overflow="visible"><path
         d="m2.6875-0.8125c0.26953 0 0.47266-0.09375 0.60938-0.28125 0.14453-0.19531 0.21875-0.48438 0.21875-0.85938s-0.074219-0.66016-0.21875-0.85938c-0.13672-0.19531-0.33984-0.29688-0.60938-0.29688-0.27344 0-0.48047 0.10156-0.625 0.29688-0.13672 0.19922-0.20312 0.48438-0.20312 0.85938 0 0.36719 0.066406 0.64844 0.20312 0.84375 0.14453 0.19922 0.35156 0.29688 0.625 0.29688zm-0.82812-2.5312c0.16406-0.22656 0.35156-0.39453 0.5625-0.5 0.21875-0.11328 0.46094-0.17188 0.73438-0.17188 0.47656 0 0.875 0.19531 1.1875 0.57812 0.3125 0.38672 0.46875 0.88281 0.46875 1.4844 0 0.60547-0.15625 1.1016-0.46875 1.4844-0.3125 0.375-0.71094 0.5625-1.1875 0.5625-0.27344 0-0.51562-0.054688-0.73438-0.15625-0.21094-0.10156-0.39844-0.26953-0.5625-0.5v0.5625h-1.25v-5.4531h1.25z"
         id="path1306" /></symbol><symbol
       id="e"
       overflow="visible"><path
         d="m0.09375-3.9219h1.25l1.0469 2.6562 0.90625-2.6562h1.25l-1.6562 4.2969c-0.16797 0.4375-0.35938 0.73828-0.57812 0.90625-0.21875 0.17578-0.51172 0.26562-0.875 0.26562h-0.71875v-0.82812h0.39062c0.20703 0 0.35938-0.039062 0.45312-0.10938 0.10156-0.0625 0.17969-0.17969 0.23438-0.34375l0.03125-0.10938z"
         id="path1309" /></symbol><symbol
       id="j"
       overflow="visible"><path
         d="m3.8281-0.95312h-2.1094l-0.32812 0.95312h-1.3594l1.9375-5.2344h1.6094l1.9375 5.2344h-1.3594zm-1.7656-0.96875h1.4219l-0.70312-2.0781z"
         id="path1312" /></symbol><symbol
       id="i"
       overflow="visible"><path
         d="m4.2344-3.2656c0.15625-0.25 0.34375-0.4375 0.5625-0.5625s0.45703-0.1875 0.71875-0.1875c0.45703 0 0.80078 0.14062 1.0312 0.42188 0.23828 0.27344 0.35938 0.67188 0.35938 1.2031v2.3906h-1.2656v-2.0469c0.007813-0.03125 0.015625-0.0625 0.015625-0.09375v-0.14062c0-0.28125-0.042969-0.48438-0.125-0.60938-0.085938-0.125-0.21484-0.1875-0.39062-0.1875-0.24219 0-0.42969 0.10156-0.5625 0.29688-0.125 0.19922-0.19531 0.48438-0.20312 0.85938v1.9219h-1.25v-2.0469c0-0.4375-0.042969-0.71875-0.125-0.84375-0.074219-0.125-0.20312-0.1875-0.39062-0.1875-0.24219 0-0.42969 0.10156-0.5625 0.29688-0.125 0.19922-0.1875 0.48438-0.1875 0.85938v1.9219h-1.2656v-3.9219h1.2656v0.57812c0.15625-0.22656 0.33203-0.39453 0.53125-0.5 0.19531-0.11328 0.41406-0.17188 0.65625-0.17188 0.26953 0 0.50781 0.070313 0.71875 0.20312 0.20703 0.125 0.36328 0.30859 0.46875 0.54688z"
         id="path1315" /></symbol><symbol
       id="h"
       overflow="visible"><path
         d="m4.5469-2.3906v2.3906h-1.2656v-1.8281c0-0.33203-0.011719-0.5625-0.03125-0.6875-0.011719-0.13281-0.03125-0.23438-0.0625-0.29688-0.054688-0.082031-0.12109-0.14453-0.20312-0.1875-0.085937-0.050781-0.17969-0.078125-0.28125-0.078125-0.27344 0-0.48047 0.10547-0.625 0.3125-0.14844 0.19922-0.21875 0.48047-0.21875 0.84375v1.9219h-1.25v-5.4531h1.25v2.1094c0.1875-0.22656 0.38281-0.39453 0.59375-0.5 0.21875-0.11328 0.45312-0.17188 0.70312-0.17188 0.45703 0 0.80078 0.14062 1.0312 0.42188 0.23828 0.27344 0.35938 0.67188 0.35938 1.2031z"
         id="path1318" /></symbol><symbol
       id="u"
       overflow="visible"><path
         d="m3.6719-3.7969v0.95312c-0.27344-0.11328-0.53125-0.19531-0.78125-0.25-0.25-0.0625-0.48438-0.09375-0.70312-0.09375-0.24219 0-0.41797 0.03125-0.53125 0.09375-0.11719 0.0625-0.17188 0.15625-0.17188 0.28125 0 0.09375 0.039063 0.17188 0.125 0.23438 0.082031 0.054687 0.23828 0.089844 0.46875 0.10938l0.21875 0.03125c0.64453 0.085938 1.0781 0.21875 1.2969 0.40625s0.32812 0.48047 0.32812 0.875c0 0.41797-0.15625 0.73047-0.46875 0.9375-0.30469 0.21094-0.75781 0.3125-1.3594 0.3125-0.26172 0-0.53125-0.023438-0.8125-0.0625-0.27344-0.03125-0.55469-0.085938-0.84375-0.17188v-0.95312c0.25 0.125 0.50391 0.21875 0.76562 0.28125 0.25781 0.054688 0.52344 0.078125 0.79688 0.078125 0.25 0 0.42969-0.03125 0.54688-0.09375 0.125-0.070313 0.1875-0.17578 0.1875-0.3125 0-0.10156-0.042969-0.17969-0.125-0.23438-0.085937-0.0625-0.25781-0.10938-0.51562-0.14062l-0.21875-0.03125c-0.55469-0.0625-0.94531-0.1875-1.1719-0.375-0.21875-0.19531-0.32812-0.48828-0.32812-0.875 0-0.41406 0.14062-0.72266 0.42188-0.92188 0.28125-0.19531 0.71875-0.29688 1.3125-0.29688 0.22656 0 0.46875 0.023437 0.71875 0.0625 0.25781 0.03125 0.53906 0.085937 0.84375 0.15625z"
         id="path1321" /></symbol><symbol
       id="t"
       overflow="visible"><path
         d="m4.2969-5.0625v1.1094c-0.29297-0.13281-0.57422-0.23438-0.84375-0.29688-0.27344-0.0625-0.52734-0.09375-0.76562-0.09375-0.32422 0-0.5625 0.046875-0.71875 0.14062-0.15625 0.085937-0.23438 0.21875-0.23438 0.40625 0 0.13672 0.050781 0.24609 0.15625 0.32812 0.10156 0.074219 0.28906 0.14062 0.5625 0.20312l0.57812 0.10938c0.58203 0.11719 0.99219 0.29297 1.2344 0.53125 0.25 0.24219 0.375 0.57812 0.375 1.0156 0 0.57422-0.17188 1-0.51562 1.2812s-0.86719 0.42188-1.5625 0.42188c-0.33594 0-0.66797-0.03125-1-0.09375-0.33594-0.0625-0.66797-0.14844-1-0.26562v-1.1406c0.33203 0.17969 0.65625 0.3125 0.96875 0.40625 0.3125 0.085938 0.61328 0.125 0.90625 0.125 0.28906 0 0.51562-0.046875 0.67188-0.14062 0.15625-0.10156 0.23438-0.24219 0.23438-0.42188 0-0.16406-0.058594-0.28906-0.17188-0.375-0.10547-0.09375-0.3125-0.17578-0.625-0.25l-0.51562-0.10938c-0.53125-0.11328-0.91797-0.28906-1.1562-0.53125-0.24219-0.25-0.35938-0.58203-0.35938-1 0-0.51953 0.16406-0.92188 0.5-1.2031 0.33203-0.28125 0.81641-0.42188 1.4531-0.42188 0.28906 0 0.58594 0.027344 0.89062 0.078125 0.30078 0.042969 0.61328 0.10547 0.9375 0.1875z"
         id="path1324" /></symbol><symbol
       id="g"
       overflow="visible"><path
         d="m0.5625-1.5312v-2.3906h1.2656v0.39062c0 0.21094-0.007813 0.47656-0.015625 0.79688v0.64062c0 0.32422 0.003906 0.55469 0.015625 0.6875 0.019531 0.13672 0.050781 0.23438 0.09375 0.29688 0.050781 0.085937 0.11719 0.15234 0.20312 0.20312 0.082031 0.042969 0.17578 0.0625 0.28125 0.0625 0.25781 0 0.46094-0.097656 0.60938-0.29688 0.15625-0.20703 0.23438-0.48828 0.23438-0.84375v-1.9375h1.25v3.9219h-1.25v-0.5625c-0.1875 0.23047-0.39062 0.39844-0.60938 0.5-0.21094 0.10156-0.4375 0.15625-0.6875 0.15625-0.46094 0-0.80859-0.13281-1.0469-0.40625-0.23047-0.28125-0.34375-0.6875-0.34375-1.2188z"
         id="path1327" /></symbol><symbol
       id="s"
       overflow="visible"><path
         d="m0.60938-3.9219h1.25v3.9219h-1.25zm0-1.5312h1.25v1.0312h-1.25z"
         id="path1330" /></symbol><symbol
       id="c"
       overflow="visible"><path
         d="m2.4688-3.125c-0.28125 0-0.49609 0.10547-0.64062 0.3125-0.14844 0.19922-0.21875 0.48438-0.21875 0.85938s0.070313 0.66406 0.21875 0.85938c0.14453 0.19922 0.35938 0.29688 0.64062 0.29688 0.26953 0 0.47656-0.097656 0.625-0.29688 0.14453-0.19531 0.21875-0.48438 0.21875-0.85938s-0.074219-0.66016-0.21875-0.85938c-0.14844-0.20703-0.35547-0.3125-0.625-0.3125zm0-0.89062c0.67578 0 1.2031 0.18359 1.5781 0.54688 0.38281 0.36719 0.57812 0.87109 0.57812 1.5156 0 0.64844-0.19531 1.1523-0.57812 1.5156-0.375 0.35547-0.90234 0.53125-1.5781 0.53125-0.67969 0-1.2109-0.17578-1.5938-0.53125-0.375-0.36328-0.5625-0.86719-0.5625-1.5156 0-0.64453 0.1875-1.1484 0.5625-1.5156 0.38281-0.36328 0.91406-0.54688 1.5938-0.54688z"
         id="path1333" /></symbol><symbol
       id="r"
       overflow="visible"><path
         d="m3.1875-5.4531v0.82812h-0.70312c-0.17969 0-0.30469 0.03125-0.375 0.09375-0.0625 0.0625-0.09375 0.17969-0.09375 0.34375v0.26562h1.0625v0.89062h-1.0625v3.0312h-1.25v-3.0312h-0.625v-0.89062h0.625v-0.26562c0-0.4375 0.11328-0.75391 0.34375-0.95312 0.23828-0.20703 0.60938-0.3125 1.1094-0.3125z"
         id="path1336" /></symbol><symbol
       id="q"
       overflow="visible"><path
         d="m0.65625-5.2344h1.5156l1.8906 3.5938v-3.5938h1.2812v5.2344h-1.5l-1.9062-3.5938v3.5938h-1.2812z"
         id="path1339" /></symbol><symbol
       id="p"
       overflow="visible"><path
         d="m4.5469-2.3906v2.3906h-1.2656v-1.8281c0-0.33203-0.011719-0.5625-0.03125-0.6875-0.011719-0.13281-0.03125-0.23438-0.0625-0.29688-0.054688-0.082031-0.12109-0.14453-0.20312-0.1875-0.085937-0.050781-0.17969-0.078125-0.28125-0.078125-0.27344 0-0.48047 0.10547-0.625 0.3125-0.14844 0.19922-0.21875 0.48047-0.21875 0.84375v1.9219h-1.25v-3.9219h1.25v0.57812c0.1875-0.22656 0.38281-0.39453 0.59375-0.5 0.21875-0.11328 0.45312-0.17188 0.70312-0.17188 0.45703 0 0.80078 0.14062 1.0312 0.42188 0.23828 0.27344 0.35938 0.67188 0.35938 1.2031z"
         id="path1342" /></symbol><symbol
       id="o"
       overflow="visible"><path
         d="m0.65625-5.2344h2.2344c0.66406 0 1.1758 0.15234 1.5312 0.45312 0.36328 0.29297 0.54688 0.71484 0.54688 1.2656 0 0.54297-0.18359 0.96484-0.54688 1.2656-0.35547 0.29297-0.86719 0.4375-1.5312 0.4375h-0.89062v1.8125h-1.3438zm1.3438 0.98438v1.4531h0.75c0.25781 0 0.46094-0.0625 0.60938-0.1875 0.14453-0.125 0.21875-0.30078 0.21875-0.53125 0-0.23828-0.074219-0.42188-0.21875-0.54688-0.14844-0.125-0.35156-0.1875-0.60938-0.1875z"
         id="path1345" /></symbol><symbol
       id="n"
       overflow="visible"><path
         d="m0.60938-3.9219h1.25v3.8594c0 0.51953-0.13281 0.91406-0.39062 1.1875-0.25 0.28125-0.61719 0.42188-1.0938 0.42188h-0.60938v-0.82812h0.21875c0.23828 0 0.39844-0.054688 0.48438-0.15625 0.09375-0.10547 0.14062-0.3125 0.14062-0.625zm0-1.5312h1.25v1.0312h-1.25z"
         id="path1348" /></symbol><symbol
       id="m"
       overflow="visible"><path
         d="m3.7656-3.7969v1.0156c-0.16797-0.11328-0.33984-0.19531-0.51562-0.25-0.16797-0.0625-0.34375-0.09375-0.53125-0.09375-0.34375 0-0.61719 0.10547-0.8125 0.3125-0.19922 0.21094-0.29688 0.49609-0.29688 0.85938 0 0.36719 0.097656 0.65234 0.29688 0.85938 0.19531 0.19922 0.46875 0.29688 0.8125 0.29688 0.19531 0 0.38281-0.023437 0.5625-0.078125 0.17578-0.0625 0.33594-0.14844 0.48438-0.26562v1.0312c-0.1875 0.074219-0.38672 0.125-0.59375 0.15625-0.19922 0.03125-0.40234 0.046875-0.60938 0.046875-0.71094 0-1.2617-0.17578-1.6562-0.53125-0.39844-0.36328-0.59375-0.86719-0.59375-1.5156 0-0.64453 0.19531-1.1484 0.59375-1.5156 0.39453-0.36328 0.94531-0.54688 1.6562-0.54688 0.20703 0 0.41016 0.023437 0.60938 0.0625 0.19531 0.03125 0.39453 0.085937 0.59375 0.15625z"
         id="path1351" /></symbol><filter
       style="color-interpolation-filters:sRGB;"
       inkscape:label="Drop Shadow"
       id="filter1737"
       x="-0.049163726"
       y="-0.17096595"
       width="1.0983275"
       height="1.3419319"><feFlood
         flood-opacity="1"
         flood-color="rgb(58,63,94)"
         result="flood"
         id="feFlood1727" /><feComposite
         in="flood"
         in2="SourceGraphic"
         operator="out"
         result="composite1"
         id="feComposite1729" /><feGaussianBlur
         in="composite1"
         stdDeviation="26.1573"
         result="blur"
         id="feGaussianBlur1731" /><feOffset
         dx="0"
         dy="0"
         result="offset"
         id="feOffset1733" /><feComposite
         in="offset"
         in2="SourceGraphic"
         operator="atop"
         result="composite2"
         id="feComposite1735" /></filter><symbol
       id="q-3"
       overflow="visible"><path
         d="m29.312-1.75c-1.5117 0.78125-3.0898 1.3711-4.7344 1.7656-1.6367 0.40625-3.3398 0.60938-5.1094 0.60938-5.3125 0-9.5273-1.4844-12.641-4.4531-3.1055-2.9688-4.6562-7-4.6562-12.094s1.5508-9.125 4.6562-12.094c3.1133-2.9688 7.3281-4.4531 12.641-4.4531 1.7695 0 3.4727 0.19922 5.1094 0.59375 1.6445 0.39844 3.2227 0.99219 4.7344 1.7812v6.5938c-1.5312-1.0391-3.0391-1.8008-4.5156-2.2812-1.4805-0.48828-3.0391-0.73438-4.6719-0.73438-2.9375 0-5.2461 0.94531-6.9219 2.8281-1.6797 1.875-2.5156 4.4648-2.5156 7.7656 0 3.293 0.83594 5.8828 2.5156 7.7656 1.6758 1.875 3.9844 2.8125 6.9219 2.8125 1.6328 0 3.1914-0.23828 4.6719-0.71875 1.4766-0.48828 2.9844-1.2539 4.5156-2.2969z"
         id="path2220" /></symbol><symbol
       id="d-6"
       overflow="visible"><path
         d="m21.453-17.406c-0.67969-0.3125-1.3516-0.53906-2.0156-0.6875-0.65625-0.15625-1.3203-0.23438-1.9844-0.23438-1.9688 0-3.4844 0.63281-4.5469 1.8906-1.0547 1.2617-1.5781 3.0703-1.5781 5.4219v11.016h-7.6562v-23.922h7.6562v3.9219c0.97656-1.5625 2.1016-2.7031 3.375-3.4219 1.2812-0.71875 2.8125-1.0781 4.5938-1.0781 0.25 0 0.52344 0.011719 0.82812 0.03125 0.30078 0.023438 0.73438 0.070312 1.2969 0.14062z"
         id="path2223" /></symbol><symbol
       id="a-7"
       overflow="visible"><path
         d="m27.562-12.031v2.1875h-17.891c0.1875 1.793 0.83203 3.1367 1.9375 4.0312 1.1133 0.89844 2.6719 1.3438 4.6719 1.3438 1.6016 0 3.25-0.23438 4.9375-0.70312 1.6875-0.47656 3.4219-1.2031 5.2031-2.1719v5.8906c-1.8047 0.6875-3.6094 1.2031-5.4219 1.5469-1.8125 0.35156-3.6211 0.53125-5.4219 0.53125-4.3359 0-7.7031-1.0977-10.109-3.2969-2.3984-2.207-3.5938-5.2969-3.5938-9.2656 0-3.9062 1.1758-6.9727 3.5312-9.2031 2.3633-2.2383 5.6094-3.3594 9.7344-3.3594 3.7578 0 6.7695 1.1367 9.0312 3.4062 2.2578 2.2617 3.3906 5.2812 3.3906 9.0625zm-7.8594-2.5312c0-1.457-0.42969-2.6289-1.2812-3.5156-0.84375-0.89453-1.9492-1.3438-3.3125-1.3438-1.4922 0-2.6992 0.41797-3.625 1.25-0.91797 0.83594-1.4922 2.0391-1.7188 3.6094z"
         id="path2226" /></symbol><symbol
       id="c-5"
       overflow="visible"><path
         d="m14.391-10.766c-1.5938 0-2.793 0.27344-3.5938 0.8125-0.80469 0.54297-1.2031 1.3398-1.2031 2.3906 0 0.96875 0.32031 1.7305 0.96875 2.2812 0.64453 0.54297 1.5469 0.8125 2.7031 0.8125 1.4375 0 2.6445-0.51562 3.625-1.5469 0.98828-1.0312 1.4844-2.3203 1.4844-3.875v-0.875zm11.688-2.8906v13.656h-7.7031v-3.5469c-1.0312 1.4492-2.1875 2.5078-3.4688 3.1719s-2.8398 1-4.6719 1c-2.4805 0-4.4961-0.72266-6.0469-2.1719-1.543-1.4453-2.3125-3.3203-2.3125-5.625 0-2.8125 0.96094-4.8672 2.8906-6.1719 1.9375-1.3125 4.9688-1.9688 9.0938-1.9688h4.5156v-0.60938c0-1.207-0.48047-2.0938-1.4375-2.6562-0.94922-0.5625-2.4375-0.84375-4.4688-0.84375-1.6367 0-3.1562 0.16797-4.5625 0.5-1.4062 0.32422-2.7188 0.8125-3.9375 1.4688v-5.8281c1.6445-0.40625 3.2891-0.70703 4.9375-0.90625 1.6562-0.20703 3.3047-0.3125 4.9531-0.3125 4.3203 0 7.4375 0.85547 9.3438 2.5625 1.9141 1.6992 2.875 4.4609 2.875 8.2812z"
         id="path2229" /></symbol><symbol
       id="b-3"
       overflow="visible"><path
         d="m12.031-30.719v6.7969h7.875v5.4688h-7.875v10.141c0 1.1172 0.21875 1.8711 0.65625 2.2656 0.4375 0.38672 1.3125 0.57812 2.625 0.57812h3.9375v5.4688h-6.5625c-3.0234 0-5.1641-0.62891-6.4219-1.8906-1.2617-1.2578-1.8906-3.3984-1.8906-6.4219v-10.141h-3.7969v-5.4688h3.7969v-6.7969z"
         id="path2232" /></symbol><symbol
       id="h-5"
       overflow="visible"><path
         d="m19.953-20.422v-12.812h7.6875v33.234h-7.6875v-3.4531c-1.0547 1.4062-2.2148 2.4375-3.4844 3.0938-1.2734 0.65625-2.7422 0.98438-4.4062 0.98438-2.9492 0-5.3711-1.1719-7.2656-3.5156-1.8867-2.3438-2.8281-5.3594-2.8281-9.0469s0.94141-6.7031 2.8281-9.0469c1.8945-2.3438 4.3164-3.5156 7.2656-3.5156 1.6562 0 3.1172 0.33594 4.3906 1 1.2812 0.65625 2.4453 1.6836 3.5 3.0781zm-5.0469 15.484c1.6445 0 2.8945-0.59766 3.75-1.7969 0.86328-1.1953 1.2969-2.9297 1.2969-5.2031 0-2.2812-0.43359-4.0195-1.2969-5.2188-0.85547-1.1953-2.1055-1.7969-3.75-1.7969-1.625 0-2.8711 0.60156-3.7344 1.7969-0.85547 1.1992-1.2812 2.9375-1.2812 5.2188 0 2.2734 0.42578 4.0078 1.2812 5.2031 0.86328 1.1992 2.1094 1.7969 3.7344 1.7969z"
         id="path2235" /></symbol><symbol
       id="g-6"
       overflow="visible"><path
         d="m16.406-4.9375c1.6328 0 2.8828-0.59766 3.75-1.7969 0.86328-1.1953 1.2969-2.9297 1.2969-5.2031 0-2.2812-0.43359-4.0195-1.2969-5.2188-0.86719-1.1953-2.1172-1.7969-3.75-1.7969-1.6367 0-2.8906 0.60547-3.7656 1.8125-0.875 1.1992-1.3125 2.9336-1.3125 5.2031 0 2.2617 0.4375 3.9961 1.3125 5.2031 0.875 1.1992 2.1289 1.7969 3.7656 1.7969zm-5.0781-15.484c1.0508-1.3945 2.2188-2.4219 3.5-3.0781 1.2812-0.66406 2.7539-1 4.4219-1 2.9453 0 5.3672 1.1719 7.2656 3.5156 1.8945 2.3438 2.8438 5.3594 2.8438 9.0469s-0.94922 6.7031-2.8438 9.0469c-1.8984 2.3438-4.3203 3.5156-7.2656 3.5156-1.668 0-3.1406-0.33594-4.4219-1s-2.4492-1.6914-3.5-3.0781v3.4531h-7.6562v-33.234h7.6562z"
         id="path2238" /></symbol><symbol
       id="f-2"
       overflow="visible"><path
         d="m0.53125-23.922h7.6562l6.4219 16.234 5.4688-16.234h7.6562l-10.062 26.188c-1.0117 2.6641-2.1953 4.5234-3.5469 5.5781-1.3438 1.0625-3.1211 1.5938-5.3281 1.5938h-4.4219v-5.0156h2.3906c1.3008 0 2.2422-0.21094 2.8281-0.625 0.59375-0.40625 1.0547-1.1484 1.3906-2.2188l0.20312-0.65625z"
         id="path2241" /></symbol><symbol
       id="e-9"
       overflow="visible"><path
         d="m15.703-17.75c1.7188 0 2.9531-0.31641 3.7031-0.95312 0.75-0.64453 1.125-1.7031 1.125-3.1719 0-1.4453-0.375-2.4844-1.125-3.1094-0.75-0.63281-1.9844-0.95312-3.7031-0.95312h-3.4688v8.1875zm-3.4688 5.6875v12.062h-8.2188v-31.891h12.562c4.1953 0 7.2734 0.70312 9.2344 2.1094 1.957 1.4062 2.9375 3.6367 2.9375 6.6875 0 2.1055-0.51172 3.8359-1.5312 5.1875-1.0117 1.3555-2.543 2.3555-4.5938 3 1.125 0.25 2.1289 0.82812 3.0156 1.7344 0.89453 0.90625 1.7969 2.2773 2.7031 4.1094l4.4688 9.0625h-8.7656l-3.875-7.9219c-0.79297-1.5938-1.5898-2.6797-2.3906-3.2656-0.80469-0.58203-1.875-0.875-3.2188-0.875z"
         id="path2244" /></symbol><symbol
       id="p-1"
       overflow="visible"><path
         d="m3.6719-33.234h7.6562v33.234h-7.6562z"
         id="path2247" /></symbol><symbol
       id="o-2"
       overflow="visible"><path
         d="m19.422-33.234v5.0156h-4.2344c-1.0859 0-1.8398 0.19922-2.2656 0.59375-0.42969 0.38672-0.64062 1.0625-0.64062 2.0312v1.6719h6.5312v5.4688h-6.5312v18.453h-7.6406v-18.453h-3.8125v-5.4688h3.8125v-1.6719c0-2.6016 0.72266-4.5234 2.1719-5.7656 1.457-1.25 3.707-1.875 6.75-1.875z"
         id="path2250" /></symbol><symbol
       id="n-7"
       overflow="visible"><path
         d="m26.219-30.891v6.75c-1.7617-0.78125-3.4766-1.3672-5.1406-1.7656-1.668-0.40625-3.2422-0.60938-4.7188-0.60938-1.9609 0-3.4141 0.27344-4.3594 0.8125-0.9375 0.54297-1.4062 1.3867-1.4062 2.5312 0 0.85547 0.31641 1.5234 0.95312 2 0.63281 0.46875 1.7852 0.875 3.4531 1.2188l3.5 0.70312c3.5391 0.71875 6.0625 1.8047 7.5625 3.25 1.5 1.4492 2.25 3.5117 2.25 6.1875 0 3.5234-1.0469 6.1406-3.1406 7.8594-2.0859 1.7188-5.2734 2.5781-9.5625 2.5781-2.0234 0-4.0547-0.19531-6.0938-0.57812-2.0312-0.38281-4.0625-0.95703-6.0938-1.7188v-6.9375c2.0312 1.0859 3.9922 1.9023 5.8906 2.4531 1.9062 0.54297 3.7422 0.8125 5.5156 0.8125 1.7891 0 3.1602-0.29688 4.1094-0.89062 0.95703-0.60156 1.4375-1.457 1.4375-2.5625 0-1-0.32422-1.7695-0.96875-2.3125-0.64844-0.53906-1.9375-1.0234-3.875-1.4531l-3.1875-0.70312c-3.1875-0.6875-5.5234-1.7734-7-3.2656-1.4688-1.5-2.2031-3.5156-2.2031-6.0469 0-3.1758 1.0234-5.6172 3.0781-7.3281 2.0508-1.707 5-2.5625 8.8438-2.5625 1.75 0 3.5508 0.13281 5.4062 0.39062 1.8516 0.26172 3.7695 0.65625 5.75 1.1875z"
         id="path2253" /></symbol><symbol
       id="m-0"
       overflow="visible"><path
         d="m23-23.172v6.2344c-1.0312-0.71875-2.0742-1.2422-3.125-1.5781-1.043-0.34375-2.125-0.51562-3.25-0.51562-2.1367 0-3.8047 0.625-5 1.875-1.1875 1.2422-1.7812 2.9805-1.7812 5.2188 0 2.2305 0.59375 3.9688 1.7812 5.2188 1.1953 1.25 2.8633 1.875 5 1.875 1.1953 0 2.332-0.17578 3.4062-0.53125 1.0703-0.36328 2.0625-0.89453 2.9688-1.5938v6.2656c-1.1875 0.4375-2.4023 0.76562-3.6406 0.98438-1.2305 0.22656-2.4648 0.34375-3.7031 0.34375-4.3125 0-7.6875-1.1094-10.125-3.3281s-3.6562-5.2969-3.6562-9.2344c0-3.9453 1.2188-7.0234 3.6562-9.2344 2.4375-2.2188 5.8125-3.3281 10.125-3.3281 1.25 0 2.4844 0.10938 3.7031 0.32812s2.4297 0.55469 3.6406 1z"
         id="path2256" /></symbol><symbol
       id="l-9"
       overflow="visible"><path
         d="m27.734-14.562v14.562h-7.7031v-11.109c0-2.0938-0.046875-3.5312-0.14062-4.3125-0.085937-0.78125-0.24219-1.3594-0.46875-1.7344-0.30469-0.5-0.71094-0.88281-1.2188-1.1562-0.51172-0.28125-1.0938-0.42188-1.75-0.42188-1.5938 0-2.8516 0.61719-3.7656 1.8438-0.90625 1.2305-1.3594 2.9375-1.3594 5.125v11.766h-7.6562v-33.234h7.6562v12.812c1.1445-1.3945 2.3633-2.4219 3.6562-3.0781 1.3008-0.66406 2.7383-1 4.3125-1 2.7578 0 4.8516 0.85156 6.2812 2.5469 1.4375 1.6875 2.1562 4.1523 2.1562 7.3906z"
         id="path2259" /></symbol><symbol
       id="k-3"
       overflow="visible"><path
         d="m25.844-19.953c0.96875-1.4766 2.1172-2.6016 3.4531-3.375 1.332-0.78125 2.7969-1.1719 4.3906-1.1719 2.75 0 4.8438 0.85156 6.2812 2.5469 1.4375 1.6875 2.1562 4.1523 2.1562 7.3906v14.562h-7.6875v-12.469c0.007812-0.1875 0.019531-0.37891 0.03125-0.57812 0.007812-0.19531 0.015625-0.48438 0.015625-0.85938 0-1.6953-0.25-2.9258-0.75-3.6875-0.5-0.75781-1.3086-1.1406-2.4219-1.1406-1.4492 0-2.5703 0.60156-3.3594 1.7969-0.79297 1.1992-1.2031 2.9297-1.2344 5.1875v11.75h-7.6875v-12.469c0-2.6562-0.23047-4.3633-0.6875-5.125-0.44922-0.75781-1.2578-1.1406-2.4219-1.1406-1.4688 0-2.6055 0.60547-3.4062 1.8125-0.79297 1.1992-1.1875 2.918-1.1875 5.1562v11.766h-7.7031v-23.922h7.7031v3.5c0.9375-1.3516 2.0156-2.3672 3.2344-3.0469 1.2188-0.6875 2.5547-1.0312 4.0156-1.0312 1.6562 0 3.1133 0.40234 4.375 1.2031 1.2695 0.79297 2.2344 1.9062 2.8906 3.3438z"
         id="path2262" /></symbol><symbol
       id="j-6"
       overflow="visible"><path
         d="m3.6719-23.922h7.6562v23.922h-7.6562zm0-9.3125h7.6562v6.2344h-7.6562z"
         id="path2265" /></symbol><symbol
       id="i-0"
       overflow="visible"><path
         d="m2.5-23.922h20.875v5.3438l-12.609 13.109h12.609v5.4688h-21.406v-5.3438l12.594-13.109h-12.062z"
         id="path2268" /></symbol><filter
       style="color-interpolation-filters:sRGB;"
       inkscape:label="Drop Shadow"
       id="filter2473"
       x="-0.071239215"
       y="-0.071239814"
       width="1.1424784"
       height="1.1424796"><feFlood
         flood-opacity="1"
         flood-color="rgb(58,63,94)"
         result="flood"
         id="feFlood2463" /><feComposite
         in="flood"
         in2="SourceGraphic"
         operator="out"
         result="composite1"
         id="feComposite2465" /><feGaussianBlur
         in="composite1"
         stdDeviation="17.3442"
         result="blur"
         id="feGaussianBlur2467" /><feOffset
         dx="0"
         dy="0"
         result="offset"
         id="feOffset2469" /><feComposite
         in="offset"
         in2="SourceGraphic"
         operator="atop"
         result="composite2"
         id="feComposite2471" /></filter></defs><path
     d="M0 0h512v512H0z"
     fill="#1b1f21"
     fill-opacity="0"
     id="path15" /><style
     type="text/css"
     id="style361">
	.st0{fill:#000000;}
</style><g
     id="g2437"
     transform="matrix(0.68283007,0,0,0.68283007,35.937185,242.17265)"
     style="fill:#ff0ec0;fill-opacity:1;filter:url(#filter2473)"><path
       d="m 611.01598,-235.48665 c -4.56253,-4.56254 -11.93747,-4.56254 -16.49467,0 l -24.75466,24.75466 -16.49467,-16.51066 24.74534,-24.74534 c 4.56253,-4.56253 4.56253,-11.93746 0,-16.49466 -4.56254,-4.56254 -11.93747,-4.56254 -16.49467,0 l -24.74533,24.74533 -8.25,-8.25 c -2.19267,-2.19267 -5.14587,-3.41667 -8.25,-3.41667 -3.10414,0 -6.06774,1.22396 -8.25,3.41667 L 50.040662,209.99934 c -2.192667,2.19266 -3.416667,5.14586 -3.416667,8.25 0,3.10413 1.22396,6.06773 3.416667,8.25 l 8.25,8.25 -24.745333,24.74533 c -4.562533,4.56253 -4.562533,11.93746 0,16.49466 2.276,2.276 5.2604,3.41667 8.25,3.41667 2.9844,0 5.974,-1.14584 8.249999,-3.41667 L 74.790661,251.244 91.301327,267.73867 66.546661,292.49333 c -4.562533,4.56254 -4.562533,11.93747 0,16.49467 2.276,2.276 5.2604,3.41667 8.25,3.41667 2.9844,0 5.974,-1.14584 8.25,-3.41667 l 24.754669,-24.75467 8.25,8.25 c 2.276,2.276 5.2604,3.41667 8.25,3.41667 2.9844,0 5.974,-1.14584 8.25,-3.41667 l 461.97332,-461.97332 c 4.56253,-4.56253 4.56253,-11.93746 0,-16.49466 l -8.25,-8.25 24.75466,-24.75467 c 4.54694,-4.54693 4.54694,-11.93227 -0.0156,-16.49467 z M 144.20266,238.16667 c -2.276,2.276 -5.2604,3.41667 -8.25,3.41667 -2.9844,0 -5.974,-1.14584 -8.25,-3.41667 l -23.33333,-23.33333 c -4.562536,-4.56254 -4.562536,-11.93747 0,-16.49467 4.56253,-4.56253 11.93746,-4.56253 16.49466,0 l 23.33334,23.33333 c 4.55213,4.54694 4.55213,11.93227 0.005,16.49467 z m 395.98666,-395.98666 c -2.276,2.276 -5.2604,3.41667 -8.25,3.41667 -2.9844,0 -5.974,-1.14584 -8.25,-3.41667 l -23.33334,-23.33333 c -4.56253,-4.55213 -4.56253,-11.93747 0,-16.49467 4.56254,-4.56253 11.93747,-4.56253 16.49467,0 l 23.33333,23.33334 c 4.55214,4.54693 4.55214,11.93226 0.005,16.49466 z"
       id="path2273"
       style="stroke-width:1.33333;fill:#ff0ec0;fill-opacity:1" /><path
       d="m 215.04266,-70.48799 c 2.276,2.276 5.2604,3.416666 8.25,3.416666 2.9844,0 5.974,-1.14584 8.25,-3.416666 4.56253,-4.562534 4.56253,-11.937467 0,-16.494667 l -32.99467,-32.994663 c -4.56253,-4.56254 -11.93746,-4.56254 -16.49466,0 -4.56254,4.56253 -4.56254,11.93746 0,16.49466 z"
       id="path2275"
       style="stroke-width:1.33333;fill:#ff0ec0;fill-opacity:1" /><path
       d="m 311.21599,-141.04799 c 1.63547,4.89067 6.18227,7.9792 11.07293,7.9792 1.21355,0 2.4636,-0.19792 3.68747,-0.60416 6.11453,-2.0416 9.41666,-8.64587 7.37493,-14.76 l -16.49466,-49.48933 c -2.0312,-6.10413 -8.60934,-9.42707 -14.76,-7.37493 -6.11454,2.0416 -9.41667,8.64586 -7.37494,14.76 z"
       id="path2277"
       style="stroke-width:1.33333;fill:#ff0ec0;fill-opacity:1" /><path
       d="m 104.10933,14.832007 49.48933,16.494667 c 1.22396,0.411453 2.474,0.59896 3.68747,0.59896 4.89066,0 9.43746,-3.093734 11.07293,-7.9792 2.0416,-6.114533 -1.26041,-12.7188 -7.37493,-14.7599997 L 111.49479,-7.308232 C 105.35933,-9.3707653 98.765594,-6.0374053 96.734794,0.06670117 94.693194,6.1760344 97.995207,12.790701 104.10973,14.832034 Z"
       id="path2279"
       style="stroke-width:1.33333;fill:#ff0ec0;fill-opacity:1" /><path
       d="m 429.52265,111.00534 c -4.56253,-4.56253 -11.93746,-4.56253 -16.49466,0 -4.56254,4.56253 -4.56254,11.93746 0,16.49466 l 32.99466,32.99467 c 2.276,2.276 5.2604,3.41667 8.25,3.41667 2.9844,0 5.974,-1.14584 8.25,-3.41667 4.56253,-4.56253 4.56253,-11.93747 0,-16.49467 z"
       id="path2281"
       style="stroke-width:1.33333;fill:#ff0ec0;fill-opacity:1" /><path
       d="m 333.34932,181.56534 c -2.0312,-6.10414 -8.61973,-9.44787 -14.76,-7.37494 -6.11453,2.0312 -9.41666,8.63547 -7.37493,14.76 l 16.49466,49.48934 c 1.63547,4.89066 6.18227,7.9792 11.07294,7.9792 1.21354,0 2.4636,-0.19792 3.68746,-0.60418 6.10414,-2.0312 9.41667,-8.63546 7.37494,-14.76 z"
       id="path2283"
       style="stroke-width:1.33333;fill:#ff0ec0;fill-opacity:1" /><path
       d="M 540.45598,25.685341 490.96665,9.1906743 c -6.14587,-2.0625333 -12.7188,1.2708267 -14.76,7.3749327 -2.0416,6.114534 1.26041,12.7188 7.37493,14.76 l 49.48934,16.494666 c 1.22396,0.406254 2.474,0.60416 3.68746,0.60416 4.89067,0 9.43747,-3.093733 11.06254,-7.9792 2.05213,-6.119733 -1.25,-12.718799 -7.36454,-14.759999 z"
       id="path2285"
       style="stroke-width:1.33333;fill:#ff0ec0;fill-opacity:1" /></g></svg>
