<?xml version="1.0" encoding="UTF-8" standalone="no"?>
<svg
   viewBox="0 0 512 512"
   style="height: 512px; width: 512px;"
   version="1.1"
   id="svg21"
   sodipodi:docname="trailer.svg"
   xml:space="preserve"
   inkscape:version="1.2.2 (b0a8486541, 2022-12-01)"
   xmlns:inkscape="http://www.inkscape.org/namespaces/inkscape"
   xmlns:sodipodi="http://sodipodi.sourceforge.net/DTD/sodipodi-0.dtd"
   xmlns="http://www.w3.org/2000/svg"
   xmlns:svg="http://www.w3.org/2000/svg"><sodipodi:namedview
     id="namedview23"
     pagecolor="#ffffff"
     bordercolor="#666666"
     borderopacity="1.0"
     inkscape:showpageshadow="2"
     inkscape:pageopacity="0.0"
     inkscape:pagecheckerboard="0"
     inkscape:deskcolor="#d1d1d1"
     showgrid="false"
     inkscape:zoom="1.84375"
     inkscape:cx="224"
     inkscape:cy="261.42373"
     inkscape:window-width="1716"
     inkscape:window-height="1402"
     inkscape:window-x="3160"
     inkscape:window-y="684"
     inkscape:window-maximized="1"
     inkscape:current-layer="svg21" /><defs
     id="defs13"><filter
       id="shadow-1"
       height="1.2166534"
       width="1.1515789"
       x="-0.075789474"
       y="-0.10832671"><feFlood
         flood-color="rgba(58, 63, 94, 1)"
         result="flood"
         id="feFlood2" /><feComposite
         in="flood"
         in2="SourceGraphic"
         operator="out"
         result="composite"
         id="feComposite4" /><feGaussianBlur
         in="composite"
         stdDeviation="15"
         result="blur"
         id="feGaussianBlur6" /><feOffset
         dx="0"
         dy="0"
         result="offset"
         id="feOffset8" /><feComposite
         in2="SourceGraphic"
         in="offset"
         operator="atop"
         id="feComposite10" /></filter><filter
       id="shadow-1-5"
       height="1.1536426"
       width="1.1836397"
       x="-0.091819868"
       y="-0.076821308"><feFlood
         flood-color="rgba(58, 63, 94, 1)"
         result="flood"
         id="feFlood2-3" /><feComposite
         in="flood"
         in2="SourceGraphic"
         operator="out"
         result="composite"
         id="feComposite4-5" /><feGaussianBlur
         in="composite"
         stdDeviation="15"
         result="blur"
         id="feGaussianBlur6-6" /><feOffset
         dx="0"
         dy="0"
         result="offset"
         id="feOffset8-2" /><feComposite
         in2="SourceGraphic"
         in="offset"
         operator="atop"
         id="feComposite10-9" /></filter><filter
       style="color-interpolation-filters:sRGB;"
       inkscape:label="Drop Shadow"
       id="filter1251"
       x="-0.060000001"
       y="-0.060000001"
       width="1.12"
       height="1.12"><feFlood
         flood-opacity="1"
         flood-color="rgb(58,63,94)"
         result="flood"
         id="feFlood1241" /><feComposite
         in="flood"
         in2="SourceGraphic"
         operator="out"
         result="composite1"
         id="feComposite1243" /><feGaussianBlur
         in="composite1"
         stdDeviation="0.8"
         result="blur"
         id="feGaussianBlur1245" /><feOffset
         dx="0"
         dy="0"
         result="offset"
         id="feOffset1247" /><feComposite
         in="offset"
         in2="SourceGraphic"
         operator="atop"
         result="composite2"
         id="feComposite1249" /></filter><filter
       style="color-interpolation-filters:sRGB;"
       inkscape:label="Drop Shadow"
       id="filter1501"
       x="-0.064327537"
       y="-0.075563336"
       width="1.1286551"
       height="1.1511267"><feFlood
         flood-opacity="1"
         flood-color="rgb(58,63,94)"
         result="flood"
         id="feFlood1491" /><feComposite
         in="flood"
         in2="SourceGraphic"
         operator="out"
         result="composite1"
         id="feComposite1493" /><feGaussianBlur
         in="composite1"
         stdDeviation="11.4908"
         result="blur"
         id="feGaussianBlur1495" /><feOffset
         dx="0"
         dy="0"
         result="offset"
         id="feOffset1497" /><feComposite
         in="offset"
         in2="SourceGraphic"
         operator="atop"
         result="composite2"
         id="feComposite1499" /></filter><filter
       style="color-interpolation-filters:sRGB;"
       inkscape:label="Drop Shadow"
       id="filter1235"
       x="-0.89345794"
       y="-1.0876902"
       width="2.7869159"
       height="3.1753803"><feFlood
         flood-opacity="1"
         flood-color="rgb(58,63,94)"
         result="flood"
         id="feFlood1225" /><feComposite
         in="flood"
         in2="SourceGraphic"
         operator="out"
         result="composite1"
         id="feComposite1227" /><feGaussianBlur
         in="composite1"
         stdDeviation="10.4237"
         result="blur"
         id="feGaussianBlur1229" /><feOffset
         dx="0"
         dy="0"
         result="offset"
         id="feOffset1231" /><feComposite
         in="offset"
         in2="SourceGraphic"
         operator="atop"
         result="composite2"
         id="feComposite1233" /></filter><filter
       style="color-interpolation-filters:sRGB;"
       inkscape:label="Drop Shadow"
       id="filter1617"
       x="-0.035450979"
       y="-0.057723612"
       width="1.070902"
       height="1.1154472"><feFlood
         flood-opacity="1"
         flood-color="rgb(58,63,94)"
         result="flood"
         id="feFlood1607" /><feComposite
         in="flood"
         in2="SourceGraphic"
         operator="out"
         result="composite1"
         id="feComposite1609" /><feGaussianBlur
         in="composite1"
         stdDeviation="6.9019"
         result="blur"
         id="feGaussianBlur1611" /><feOffset
         dx="0"
         dy="0"
         result="offset"
         id="feOffset1613" /><feComposite
         in="offset"
         in2="SourceGraphic"
         operator="atop"
         result="composite2"
         id="feComposite1615" /></filter><filter
       style="color-interpolation-filters:sRGB;"
       inkscape:label="Drop Shadow"
       id="filter3747"
       x="-0.17531828"
       y="-0.18620839"
       width="1.3506366"
       height="1.3724168"><feFlood
         flood-opacity="1"
         flood-color="rgb(58,63,94)"
         result="flood"
         id="feFlood3737" /><feComposite
         in="flood"
         in2="SourceGraphic"
         operator="out"
         result="composite1"
         id="feComposite3739" /><feGaussianBlur
         in="composite1"
         stdDeviation="3.34004"
         result="blur"
         id="feGaussianBlur3741" /><feOffset
         dx="0"
         dy="0"
         result="offset"
         id="feOffset3743" /><feComposite
         in="offset"
         in2="SourceGraphic"
         operator="atop"
         result="composite2"
         id="feComposite3745" /></filter><filter
       style="color-interpolation-filters:sRGB;"
       inkscape:label="Drop Shadow"
       id="filter354"
       x="-0.052489875"
       y="-0.055750348"
       width="1.1049798"
       height="1.1115007"><feFlood
         flood-opacity="1"
         flood-color="rgb(58,63,94)"
         result="flood"
         id="feFlood344" /><feComposite
         in="flood"
         in2="SourceGraphic"
         operator="out"
         result="composite1"
         id="feComposite346" /><feGaussianBlur
         in="composite1"
         stdDeviation="1"
         result="blur"
         id="feGaussianBlur348" /><feOffset
         dx="0"
         dy="0"
         result="offset"
         id="feOffset350" /><feComposite
         in="offset"
         in2="SourceGraphic"
         operator="atop"
         result="composite2"
         id="feComposite352" /></filter></defs><path
     d="M0 0h512v512H0z"
     fill="#1b1f21"
     fill-opacity="0"
     id="path15" /><style
     type="text/css"
     id="style361">
	.st0{fill:#000000;}
</style><g
     style="fill:#ff0ec0;fill-opacity:1;filter:url(#filter354)"
     id="g3288"
     transform="matrix(-8.9293866,0,0,8.9293866,479.31788,28.013904)"><path
       d="m 10.816406,4.0078125 c -0.586,-0.009 -1.1530623,0.2465 -1.5390622,0.6875 L 2.6425781,12.265625 c -0.406,0.463 -0.5749844,1.086406 -0.4589843,1.691406 L 5.7148438,32.5 c 0.1689999,0.885 0.9086406,1.548141 1.8066406,1.619141 l 2.4960936,0.197265 2.001953,0.158203 c -0.323,0.956 -0.505859,1.976063 -0.505859,3.039063 0,5.262 4.280969,9.542969 9.542969,9.542969 5.262,0 9.542968,-4.280969 9.542968,-9.542969 0,-0.541 -0.05753,-1.066985 -0.144531,-1.583984 l 2.003906,0.158203 10.435547,0.824218 c 0.687,0.054 1.352672,-0.248734 1.763672,-0.802734 l 2.818359,-3.804687 c 0.346001,-0.466001 0.471657,-1.054094 0.347657,-1.621094 -1.036,-4.736 -7.368813,-26.2337815 -37.007813,-26.6757815 z m 5.447266,2.2539063 c 2.183,0.318 4.314859,0.7386875 6.380859,1.3046874 0.346,0.093 0.681485,0.1978282 1.021485,0.2988282 0.476,0.143 0.948015,0.2970312 1.416015,0.4570312 0.544,0.186 1.079469,0.3818438 1.605469,0.5898438 0.459,0.181 0.913281,0.3722656 1.363281,0.5722656 0.416,0.186 0.826469,0.3761719 1.230469,0.576172 0.552,0.273 1.098719,0.562187 1.636719,0.867187 0.21,0.12 0.422906,0.233422 0.628906,0.357422 0.648,0.388 1.28025,0.810953 1.90625,1.251953 0.176,0.125 0.355297,0.246 0.529297,0.375 0.616,0.455 1.2205,0.942079 1.8125,1.455079 0.179,0.154999 0.354297,0.313656 0.529297,0.472656 0.579,0.526 1.148125,1.073156 1.703125,1.660156 0.118,0.125 0.229703,0.257766 0.345703,0.384766 0.248,0.271 0.499187,0.535359 0.742187,0.818359 1.046,1.224 1.67011,2.030172 2.53711,3.451172 0.532,0.836 1.001015,1.658031 1.416015,2.457031 0.205,0.367 0.422157,0.757453 0.660157,1.189453 L 16.841797,19.162109 c -1.66,-0.433 -3.019516,-1.575671 -3.728516,-3.138671 -0.709,-1.563001 -0.67489,-3.340391 0.03711,-4.775391 z m 4.792969,23.7109372 c 4.159,0 7.542968,3.383969 7.542968,7.542969 0,4.159 -3.383968,7.542969 -7.542968,7.542969 -4.159,0 -7.542969,-3.383969 -7.542969,-7.542969 0,-4.159 3.383969,-7.542969 7.542969,-7.542969 z m 0,5.570313 a 1.971,1.971 0 0 0 -1.970703,1.970703 1.971,1.971 0 0 0 1.970703,1.970703 1.971,1.971 0 0 0 1.970703,-1.970703 1.971,1.971 0 0 0 -1.970703,-1.970703 z"
       id="path3279"
       style="fill:#ff0ec0;fill-opacity:1" /></g></svg>
