<?xml version="1.0" encoding="UTF-8" standalone="no"?>
<svg
   style="height: 512px; width: 512px;"
   viewBox="0 0 512 512"
   version="1.1"
   id="svg83"
   width="512px"
   height="512px"
   sodipodi:docname="chipware-cocket.svg"
   inkscape:version="1.2.1 (9c6d41e410, 2022-07-14, custom)"
   xmlns:inkscape="http://www.inkscape.org/namespaces/inkscape"
   xmlns:sodipodi="http://sodipodi.sourceforge.net/DTD/sodipodi-0.dtd"
   xmlns="http://www.w3.org/2000/svg"
   xmlns:svg="http://www.w3.org/2000/svg">
  <sodipodi:namedview
     id="namedview85"
     pagecolor="#ffffff"
     bordercolor="#666666"
     borderopacity="1.0"
     inkscape:showpageshadow="2"
     inkscape:pageopacity="0.0"
     inkscape:pagecheckerboard="0"
     inkscape:deskcolor="#d1d1d1"
     showgrid="false"
     showguides="true"
     inkscape:zoom="1.6103252"
     inkscape:cx="278.20467"
     inkscape:cy="350.86081"
     inkscape:window-width="3436"
     inkscape:window-height="1402"
     inkscape:window-x="1440"
     inkscape:window-y="684"
     inkscape:window-maximized="1"
     inkscape:current-layer="svg83">
    <sodipodi:guide
       position="40.83705,225.26244"
       orientation="1,0"
       id="guide307"
       inkscape:locked="false" />
    <sodipodi:guide
       position="105.38593,315.27959"
       orientation="1,0"
       id="guide311"
       inkscape:locked="false" />
    <sodipodi:guide
       position="192.81819,223.54895"
       orientation="0,-1"
       id="guide2592"
       inkscape:locked="false" />
  </sodipodi:namedview>
  <defs
     id="defs75">
    <filter
       id="shadow-1"
       height="1.1794068"
       width="1.1672465"
       x="-0.08362326"
       y="-0.089703423">
      <feFlood
         flood-color="rgba(58, 63, 94, 1)"
         result="flood"
         id="feFlood64" />
      <feComposite
         in="flood"
         in2="SourceGraphic"
         operator="out"
         result="composite"
         id="feComposite66" />
      <feGaussianBlur
         in="composite"
         stdDeviation="15"
         result="blur"
         id="feGaussianBlur68" />
      <feOffset
         dx="0"
         dy="0"
         result="offset"
         id="feOffset70" />
      <feComposite
         in2="SourceGraphic"
         in="offset"
         operator="atop"
         id="feComposite72" />
    </filter>
    <filter
       style="color-interpolation-filters:sRGB;"
       inkscape:label="Drop Shadow"
       id="filter2590"
       x="-0.12819733"
       y="-0.13751775"
       width="1.2563947"
       height="1.2750355">
      <feFlood
         flood-opacity="1"
         flood-color="rgb(58,63,94)"
         result="flood"
         id="feFlood2580" />
      <feComposite
         in="flood"
         in2="SourceGraphic"
         operator="out"
         result="composite1"
         id="feComposite2582" />
      <feGaussianBlur
         in="composite1"
         stdDeviation="15"
         result="blur"
         id="feGaussianBlur2584" />
      <feOffset
         dx="0"
         dy="0"
         result="offset"
         id="feOffset2586" />
      <feComposite
         in="offset"
         in2="SourceGraphic"
         operator="atop"
         result="composite2"
         id="feComposite2588" />
    </filter>
  </defs>
  <path
     d="M0 0h512v512H0z"
     fill="#1b1f21"
     fill-opacity="0"
     id="path77" />
  <g
     class=""
     transform="rotate(90,247.20661,234.45461)"
     id="g81">
    <g
       id="g314"
       transform="rotate(180,260.34302,225.66122)">
      <g
         id="g317">
        <path
           id="path79"
           d="M 471.20748 132.68271 L 455.32857 132.68271 L 455.32857 102.99911 L 471.00045 102.99911 L 471.00045 24.999113 L 41.000446 24.999113 L 41.000446 102.99911 L 153.32857 102.99911 L 153.32857 132.68271 L 41.207478 132.68271 L 41.207478 210.68271 L 173.08248 210.68271 L 173.08248 240.48544 L 298.26021 240.48544 C 297.86945 239.83092 297.58443 239.10781 297.58443 238.29013 L 297.58443 212.97372 C 297.58443 210.56025 299.5401 208.60458 301.95357 208.60458 C 304.36705 208.60458 306.32466 210.56025 306.32467 212.97372 L 306.32467 238.29013 C 306.32467 239.10781 306.03978 239.83092 305.64888 240.48544 L 316.92623 240.48544 C 316.53524 239.83079 316.24849 239.10807 316.24849 238.29013 L 316.24849 212.97372 C 316.24849 210.56025 318.20612 208.60458 320.61959 208.60458 C 323.03264 208.60458 324.98873 210.56025 324.98873 212.97372 L 324.98873 238.29013 C 324.98873 239.10781 324.70389 239.83092 324.31295 240.48544 L 339.46138 240.48544 C 338.46811 238.99268 337.6246 237.40452 336.94381 235.72568 C 335.63833 232.50676 334.97701 229.10804 334.97701 225.62411 C 334.97701 222.13999 335.63854 218.74127 336.94381 215.52255 C 338.29701 212.18551 340.28128 209.19465 342.84224 206.63388 C 345.40301 204.07291 348.39388 202.08866 351.73092 200.73544 C 354.94961 199.43017 358.34855 198.76669 361.83248 198.76669 C 365.3166 198.76649 368.71512 199.43017 371.93404 200.73544 C 375.27108 202.08886 378.26174 204.07311 380.82271 206.63388 C 383.38369 209.19465 385.36793 212.18551 386.72115 215.52255 C 388.02663 218.74146 388.6899 222.13999 388.6899 225.62411 C 388.6899 229.10804 388.02663 232.50676 386.72115 235.72568 C 386.04025 237.40452 385.19705 238.99268 384.20357 240.48544 L 455.08248 240.48544 L 455.08248 210.68271 L 471.20748 210.68271 L 471.20748 132.68271 z M 470.93404 240.48739 L 384.20357 240.48739 C 383.22252 241.9613 382.09491 243.34225 380.82271 244.61435 C 378.26194 247.1753 375.27108 249.15959 371.93404 250.51278 C 368.71512 251.81826 365.31639 252.47958 361.83248 252.47958 C 358.34855 252.47958 354.94961 251.81806 351.73092 250.51278 C 348.39388 249.15959 345.40321 247.1751 342.84224 244.61435 C 341.57005 243.34225 340.44224 241.9613 339.46138 240.48739 L 324.31099 240.48739 C 323.54773 241.76345 322.21413 242.66122 320.61959 242.66122 C 319.02464 242.66122 317.6891 241.76363 316.92623 240.48739 L 305.64693 240.48739 C 304.88376 241.76345 303.54839 242.66122 301.95357 242.66122 C 300.35876 242.66122 299.02507 241.76345 298.26217 240.48739 L 40.93404 240.48739 L 40.93404 318.48739 L 153.09615 318.48739 L 153.09615 348.32333 L 40.705524 348.32333 L 40.705524 426.32333 L 470.70552 426.32333 L 470.70552 348.32333 L 455.09615 348.32333 L 455.09615 318.48739 L 470.93404 318.48739 L 470.93404 240.48739 z M 417.20748 261.29013 C 417.20748 264.40622 415.99429 267.33806 413.79342 269.54403 L 405.47115 277.88583 C 403.26679 280.0957 400.33299 281.31543 397.21138 281.31943 C 394.0898 281.32331 391.15508 280.11135 388.94381 277.90536 L 382.37154 271.34482 C 380.158 269.13659 378.93795 266.19808 378.93795 263.07138 C 378.93795 259.95508 380.15112 257.02326 382.35201 254.81747 L 390.67427 246.47568 C 395.22519 241.91398 402.64003 241.90361 407.20357 246.45614 L 413.77388 253.01669 C 415.98742 255.22493 417.20748 258.16323 417.20748 261.29013 z M 417.14693 192.30185 L 417.14693 192.3038 C 417.1456 193.4222 416.71814 194.53922 415.86373 195.39169 C 414.15512 197.09615 411.38857 197.09248 409.68404 195.38388 L 391.80123 177.46005 C 390.95009 176.60707 390.52584 175.49067 390.52584 174.37411 C 390.52584 173.25387 390.95341 172.13416 391.80904 171.28036 C 393.51785 169.57577 396.28615 169.57957 397.99068 171.28818 L 415.87154 189.212 C 416.7237 190.0663 417.14793 191.18345 417.14693 192.30185 z M 408.46724 261.28818 C 408.46724 260.53272 408.17876 259.77776 407.60201 259.20224 L 401.02974 252.64169 C 399.87788 251.49307 398.01098 251.49374 396.86177 252.6456 L 388.53951 260.98935 C 387.96582 261.56426 387.67818 262.31878 387.67818 263.07138 C 387.67818 263.82683 387.96668 264.58201 388.54342 265.15732 L 395.11763 271.71786 C 396.26969 272.86736 398.13445 272.86561 399.28365 271.71396 L 407.60787 263.37021 C 408.18155 262.79509 408.46724 262.04274 408.46724 261.29013 L 408.46724 261.28818 z M 403.93404 205.48544 C 403.93266 206.60379 403.50494 207.72106 402.65084 208.57333 C 400.94202 210.2778 398.17568 210.27413 396.47115 208.56552 L 378.59029 190.64169 C 377.73915 189.78871 377.31295 188.67232 377.31295 187.55575 C 377.31295 186.43572 377.74052 185.31559 378.59615 184.462 C 380.30496 182.75735 383.07131 182.76122 384.77584 184.46982 L 402.65865 202.39364 C 403.51092 203.24794 403.93504 204.36709 403.93404 205.48544 z M 379.94967 225.62411 C 379.94967 220.98753 378.1804 216.35073 374.64302 212.81357 C 367.56828 205.7386 356.09708 205.7386 349.02193 212.81357 C 345.48475 216.35093 343.71724 220.98753 343.71724 225.62411 C 343.71724 230.26051 345.48475 234.89729 349.02193 238.43466 C 349.8036 239.21628 350.65654 239.87653 351.53365 240.48544 L 372.13131 240.48544 C 373.00837 239.87653 373.86141 239.21628 374.64302 238.43466 C 378.18061 234.89729 379.94967 230.26051 379.94967 225.62411 z M 372.12935 240.48739 L 351.5356 240.48739 C 357.71944 244.77901 365.94577 244.77901 372.12935 240.48739 z M 272.20748 162.68271 L 272.20748 180.68271 L 224.20748 180.68271 L 220.20748 162.68271 L 272.20748 162.68271 z M 272.00045 54.999113 L 272.00045 72.999113 L 220.00045 72.999113 L 224.00045 54.999113 L 272.00045 54.999113 z M 271.93404 270.48739 L 271.93404 288.48739 L 219.93404 288.48739 L 223.93404 270.48739 L 271.93404 270.48739 z M 271.70552 378.32333 L 271.70552 396.32333 L 223.70552 396.32333 L 219.70552 378.32333 L 271.70552 378.32333 z M 196.20748 162.68271 L 192.20748 180.68271 L 144.20748 180.68271 L 144.20748 162.68271 L 196.20748 162.68271 z M 196.00045 72.999113 L 144.00045 72.999113 L 144.00045 54.999113 L 192.00045 54.999113 L 196.00045 72.999113 z M 195.93404 288.48739 L 143.93404 288.48739 L 143.93404 270.48739 L 191.93404 270.48739 L 195.93404 288.48739 z M 195.70552 378.32333 L 191.70552 396.32333 L 143.70552 396.32333 L 143.70552 378.32333 L 195.70552 378.32333 z M 112.20748 162.68271 L 112.20748 180.68271 L 64.207478 180.68271 L 64.207478 162.68271 L 112.20748 162.68271 z M 112.00045 54.999113 L 112.00045 72.999113 L 64.000446 72.999113 L 64.000446 54.999113 L 112.00045 54.999113 z M 111.93404 270.48739 L 111.93404 288.48739 L 63.93404 288.48739 L 63.93404 270.48739 L 111.93404 270.48739 z M 111.70552 378.32333 L 111.70552 396.32333 L 63.705524 396.32333 L 63.705524 378.32333 L 111.70552 378.32333 z "
           style="fill:#ff0ec0;fill-opacity:1;filter:url(#filter2590)" />
      </g>
    </g>
  </g>
</svg>
