<?xml version="1.0" encoding="UTF-8" standalone="no"?>
<!-- Generator: Adobe Illustrator 19.0.0, SVG Export Plug-In . SVG Version: 6.00 Build 0)  -->

<svg
   version="1.1"
   id="Layer_1"
   x="0px"
   y="0px"
   viewBox="0 0 512 512"
   xml:space="preserve"
   sodipodi:docname="bodyweightsuit.svg"
   width="512"
   height="512"
   inkscape:version="1.2.1 (9c6d41e410, 2022-07-14)"
   xmlns:inkscape="http://www.inkscape.org/namespaces/inkscape"
   xmlns:sodipodi="http://sodipodi.sourceforge.net/DTD/sodipodi-0.dtd"
   xmlns="http://www.w3.org/2000/svg"
   xmlns:svg="http://www.w3.org/2000/svg"><defs
   id="defs2612"><filter
     style="color-interpolation-filters:sRGB;"
     inkscape:label="Drop Shadow"
     id="filter3152"
     x="-0.19166183"
     y="-0.1213115"
     width="1.3833237"
     height="1.242623"><feFlood
       flood-opacity="1"
       flood-color="rgb(58,63,94)"
       result="flood"
       id="feFlood3142" /><feComposite
       in="flood"
       in2="SourceGraphic"
       operator="out"
       result="composite1"
       id="feComposite3144" /><feGaussianBlur
       in="composite1"
       stdDeviation="22.9955"
       result="blur"
       id="feGaussianBlur3146" /><feOffset
       dx="0"
       dy="0"
       result="offset"
       id="feOffset3148" /><feComposite
       in="offset"
       in2="SourceGraphic"
       operator="atop"
       result="composite2"
       id="feComposite3150" /></filter></defs><sodipodi:namedview
   id="namedview2610"
   pagecolor="#1b1f21"
   bordercolor="#666666"
   borderopacity="1.0"
   inkscape:showpageshadow="2"
   inkscape:pageopacity="1"
   inkscape:pagecheckerboard="0"
   inkscape:deskcolor="#d1d1d1"
   showgrid="false"
   inkscape:zoom="0.99592555"
   inkscape:cx="359.96667"
   inkscape:cy="223.91232"
   inkscape:window-width="1920"
   inkscape:window-height="1009"
   inkscape:window-x="1912"
   inkscape:window-y="-8"
   inkscape:window-maximized="1"
   inkscape:current-layer="Layer_1" />

<path
   d="M 0,0 H 512 V 512 H 0 Z"
   fill="#1b1f21"
   fill-opacity="0"
   id="path15" /><path
   id="path2573"
   style="fill:#ff0ec0;fill-opacity:1;stroke-width:1.2567;filter:url(#filter3152)"
   d="m 256.00585,28.531036 c -39.27327,0 -37.95649,23.563254 -37.95649,23.563254 0,13.091091 -32.72346,18.325338 -32.72346,18.325338 -22.2512,1.301947 -32.72346,19.631133 -32.72346,19.631133 l -40.5779,82.468939 c 7.85317,22.24617 37.95648,24.8666 37.95648,24.8666 l 32.72346,-45.8109 13.08743,102.09517 1.15608,-0.61117 c 0.15081,0.2727 6.24282,11.70944 15.15411,24.73896 3.90334,-39.40024 6.64939,-72.16676 6.38173,-83.87045 -0.76157,-32.48333 -16.19451,-89.40744 -20.03124,-103.091707 -11.5441,18.342877 -15.71222,38.422587 -15.77756,38.746837 l -0.20126,1.01617 -1.03826,0.0319 c -29.37927,0.83696 -54.44492,56.25767 -54.69375,56.81691 l -2.39805,-1.06527 c 1.03427,-2.31737 25.44956,-56.26434 55.97745,-58.31906 1.63624,-7.33538 12.40732,-50.248434 43.67794,-64.919214 -4.81445,-2.675527 -7.47449,-5.059484 -7.71452,-5.289461 l 1.77216,-1.921876 c 0.0565,0.05656 3.25648,2.900619 9.09639,5.858904 l 0.008,-0.005 0.0196,0.01717 c 6.41924,3.249841 16.043,6.649255 28.38636,6.649255 23.5871,0 37.37522,-12.402301 37.5122,-12.520432 l 1.77216,1.916968 c -0.24004,0.226207 -2.77582,2.487046 -7.34143,5.078373 31.65013,14.459654 42.53259,57.764583 44.16883,65.137663 30.53669,2.04969 54.95083,55.99936 55.97254,58.31169 l -2.38823,1.06526 c -0.24883,-0.56049 -25.32083,-55.97993 -54.6913,-56.8169 l -1.0407,-0.0319 -0.21109,-1.01616 c -0.0604,-0.33428 -4.37774,-21.07197 -16.3642,-39.659911 -3.33905,11.831881 -19.5036,70.733551 -20.28402,104.002321 -0.26768,11.76528 2.51455,44.83066 6.44552,84.50863 9.33357,-13.29344 15.79236,-25.10922 15.94693,-25.38696 l 1.14379,0.62344 13.08744,-102.09025 32.72346,45.8109 c 0,0 30.11338,-2.62042 37.95647,-24.86659 L 359.40679,90.050761 c 0,0 -10.47226,-18.324159 -32.72346,-19.631133 0,0 -32.72101,-5.234247 -32.72101,-18.325338 0,0 1.31178,-23.563254 -37.95647,-23.563254 z m -0.43446,2.186965 a 29.323998,11.190974 0 0 1 29.32399,11.192545 29.323998,11.190974 0 0 1 -29.32399,11.190092 29.323998,11.190974 0 0 1 -29.32398,-11.190092 29.323998,11.190974 0 0 1 29.32398,-11.192545 z m 28.9779,33.796088 c -6.67813,3.292569 -16.45106,6.563348 -28.9779,6.563348 -12.27802,0 -21.91241,-3.141024 -28.57043,-6.366987 -11.35183,4.769197 -20.07989,13.578 -26.64367,23.226985 2.28595,8.040408 19.92982,70.923515 20.74793,105.931555 0.27271,12.08448 -2.63775,46.36997 -6.70569,87.23804 11.78413,16.64633 27.58687,34.52754 41.17186,34.52754 13.42538,0 29.27791,-17.47628 41.24552,-33.963 -4.11068,-41.1169 -7.04868,-75.66531 -6.76216,-87.80258 C 290.92942,156.6416 310.81546,87.888699 311.05548,87.088176 304.45905,77.646547 295.79304,69.09855 284.54929,64.514089 Z M 316.67631,255.4648 c -1.34962,2.46209 -7.71534,13.90261 -17.16435,27.01184 8.46014,84.66929 21.74831,196.69196 21.95063,198.36088 l -2.59931,0.3019 c -0.19729,-1.64502 -13.17591,-111.11849 -21.65365,-195.50628 -12.09453,16.20396 -27.76414,32.61547 -41.64069,32.61547 -14.03614,0 -29.6472,-16.75005 -41.56705,-33.11864 -8.47899,84.46192 -21.50777,194.35425 -21.7101,196.01436 l -2.60178,-0.29945 c 0.20234,-1.67896 13.5472,-114.19442 21.99728,-198.93032 -9.0286,-12.86246 -15.04652,-23.95413 -16.37154,-26.42274 -24.51573,88.96875 -34.86626,218.08773 -34.86626,218.08773 45.80938,22.25119 77.23102,0 77.23102,0 0,-60.16095 18.29655,-73.28006 18.32043,-73.29891 0.0276,0.0189 18.31797,13.1367 18.31797,73.29891 0,0 31.42038,22.25119 77.23102,0 0,0 -10.35263,-129.14634 -34.87362,-218.11475 z" />


<g
   id="g2579">
</g>
<g
   id="g2581">
</g>
<g
   id="g2583">
</g>
<g
   id="g2585">
</g>
<g
   id="g2587">
</g>
<g
   id="g2589">
</g>
<g
   id="g2591">
</g>
<g
   id="g2593">
</g>
<g
   id="g2595">
</g>
<g
   id="g2597">
</g>
<g
   id="g2599">
</g>
<g
   id="g2601">
</g>
<g
   id="g2603">
</g>
<g
   id="g2605">
</g>
<g
   id="g2607">
</g>
</svg>
