<?xml version="1.0" encoding="UTF-8" standalone="no"?>
<svg
   width="512"
   height="512"
   viewBox="0 0 512 512"
   version="1.1"
   id="svg8"
   sodipodi:docname="flak_body.svg"
   inkscape:version="1.2.2 (b0a8486541, 2022-12-01)"
   xml:space="preserve"
   xmlns:inkscape="http://www.inkscape.org/namespaces/inkscape"
   xmlns:sodipodi="http://sodipodi.sourceforge.net/DTD/sodipodi-0.dtd"
   xmlns="http://www.w3.org/2000/svg"
   xmlns:svg="http://www.w3.org/2000/svg"><defs
     id="defs12"><filter
       style="color-interpolation-filters:sRGB;"
       inkscape:label="Drop Shadow"
       id="filter875"
       x="-0.31291152"
       y="-0.16857506"
       width="1.6092078"
       height="1.3282203"><feFlood
         flood-opacity="1"
         flood-color="rgb(58,63,94)"
         result="flood"
         id="feFlood865" /><feComposite
         in="flood"
         in2="SourceGraphic"
         operator="out"
         result="composite1"
         id="feComposite867" /><feGaussianBlur
         in="composite1"
         stdDeviation="15"
         result="blur"
         id="feGaussianBlur869" /><feOffset
         dx="0"
         dy="0"
         result="offset"
         id="feOffset871" /><feComposite
         in="offset"
         in2="SourceGraphic"
         operator="atop"
         result="composite2"
         id="feComposite873" /></filter><filter
       style="color-interpolation-filters:sRGB;"
       inkscape:label="Drop Shadow"
       id="filter1015"
       x="-0.081997928"
       y="-0.044180702"
       width="1.1639959"
       height="1.0883614"><feFlood
         flood-opacity="1"
         flood-color="rgb(58,63,94)"
         result="flood"
         id="feFlood1005" /><feComposite
         in="flood"
         in2="SourceGraphic"
         operator="out"
         result="composite1"
         id="feComposite1007" /><feGaussianBlur
         in="composite1"
         stdDeviation="8.30229"
         result="blur"
         id="feGaussianBlur1009" /><feOffset
         dx="0"
         dy="0"
         result="offset"
         id="feOffset1011" /><feComposite
         in="offset"
         in2="SourceGraphic"
         operator="atop"
         result="composite2"
         id="feComposite1013" /></filter><filter
       style="color-interpolation-filters:sRGB;"
       inkscape:label="Drop Shadow"
       id="filter35638"
       x="-0.057142887"
       y="-0.13067032"
       width="1.1142858"
       height="1.2613406"><feFlood
         flood-opacity="1"
         flood-color="rgb(58,63,94)"
         result="flood"
         id="feFlood35628" /><feComposite
         in="flood"
         in2="SourceGraphic"
         operator="out"
         result="composite1"
         id="feComposite35630" /><feGaussianBlur
         in="composite1"
         stdDeviation="6"
         result="blur"
         id="feGaussianBlur35632" /><feOffset
         dx="0"
         dy="0"
         result="offset"
         id="feOffset35634" /><feComposite
         in="offset"
         in2="SourceGraphic"
         operator="atop"
         result="composite2"
         id="feComposite35636" /></filter><filter
       style="color-interpolation-filters:sRGB;"
       inkscape:label="Drop Shadow"
       id="filter35813"
       x="-0.053321701"
       y="-0.069584126"
       width="1.1066434"
       height="1.1391683"><feFlood
         flood-opacity="1"
         flood-color="rgb(58,63,94)"
         result="flood"
         id="feFlood35803" /><feComposite
         in="flood"
         in2="SourceGraphic"
         operator="out"
         result="composite1"
         id="feComposite35805" /><feGaussianBlur
         in="composite1"
         stdDeviation="8"
         result="blur"
         id="feGaussianBlur35807" /><feOffset
         dx="0"
         dy="0"
         result="offset"
         id="feOffset35809" /><feComposite
         in="offset"
         in2="SourceGraphic"
         operator="atop"
         result="composite2"
         id="feComposite35811" /></filter><filter
       style="color-interpolation-filters:sRGB;"
       inkscape:label="Drop Shadow"
       id="filter36051"
       x="-0.028125"
       y="-0.038976963"
       width="1.05625"
       height="1.0779539"><feFlood
         flood-opacity="1"
         flood-color="rgb(58,63,94)"
         result="flood"
         id="feFlood36041" /><feComposite
         in="flood"
         in2="SourceGraphic"
         operator="out"
         result="composite1"
         id="feComposite36043" /><feGaussianBlur
         in="composite1"
         stdDeviation="6"
         result="blur"
         id="feGaussianBlur36045" /><feOffset
         dx="0"
         dy="0"
         result="offset"
         id="feOffset36047" /><feComposite
         in="offset"
         in2="SourceGraphic"
         operator="atop"
         result="composite2"
         id="feComposite36049" /></filter><filter
       style="color-interpolation-filters:sRGB;"
       inkscape:label="Drop Shadow"
       id="filter36337"
       x="-0.031246302"
       y="-0.031246303"
       width="1.0624926"
       height="1.0624926"><feFlood
         flood-opacity="1"
         flood-color="rgb(58,63,94)"
         result="flood"
         id="feFlood36327" /><feComposite
         in="flood"
         in2="SourceGraphic"
         operator="out"
         result="composite1"
         id="feComposite36329" /><feGaussianBlur
         in="composite1"
         stdDeviation="6"
         result="blur"
         id="feGaussianBlur36331" /><feOffset
         dx="0"
         dy="0"
         result="offset"
         id="feOffset36333" /><feComposite
         in="offset"
         in2="SourceGraphic"
         operator="atop"
         result="composite2"
         id="feComposite36335" /></filter><filter
       style="color-interpolation-filters:sRGB;"
       inkscape:label="Drop Shadow"
       id="filter1651"
       x="-0.065343256"
       y="-0.053154622"
       width="1.1306865"
       height="1.1063092"><feFlood
         flood-opacity="1"
         flood-color="rgb(58,63,94)"
         result="flood"
         id="feFlood1641" /><feComposite
         in="flood"
         in2="SourceGraphic"
         operator="out"
         result="composite1"
         id="feComposite1643" /><feGaussianBlur
         in="composite1"
         stdDeviation="23.9195"
         result="blur"
         id="feGaussianBlur1645" /><feOffset
         dx="0"
         dy="0"
         result="offset"
         id="feOffset1647" /><feComposite
         in="offset"
         in2="SourceGraphic"
         operator="atop"
         result="composite2"
         id="feComposite1649" /></filter><filter
       style="color-interpolation-filters:sRGB;"
       inkscape:label="Drop Shadow"
       id="filter2460"
       x="-0.055034241"
       y="-0.04783849"
       width="1.1100685"
       height="1.095677"><feFlood
         flood-opacity="1"
         flood-color="rgb(58,63,94)"
         result="flood"
         id="feFlood2450" /><feComposite
         in="flood"
         in2="SourceGraphic"
         operator="out"
         result="composite1"
         id="feComposite2452" /><feGaussianBlur
         in="composite1"
         stdDeviation="23.9195"
         result="blur"
         id="feGaussianBlur2454" /><feOffset
         dx="0"
         dy="0"
         result="offset"
         id="feOffset2456" /><feComposite
         in="offset"
         in2="SourceGraphic"
         operator="atop"
         result="composite2"
         id="feComposite2458" /></filter><filter
       style="color-interpolation-filters:sRGB;"
       inkscape:label="Drop Shadow"
       id="filter3393"
       x="-0.043597231"
       y="-0.047813213"
       width="1.0871945"
       height="1.0956264"><feFlood
         flood-opacity="1"
         flood-color="rgb(58,63,94)"
         result="flood"
         id="feFlood3383" /><feComposite
         in="flood"
         in2="SourceGraphic"
         operator="out"
         result="composite1"
         id="feComposite3385" /><feGaussianBlur
         in="composite1"
         stdDeviation="20.3254"
         result="blur"
         id="feGaussianBlur3387" /><feOffset
         dx="0"
         dy="0"
         result="offset"
         id="feOffset3389" /><feComposite
         in="offset"
         in2="SourceGraphic"
         operator="atop"
         result="composite2"
         id="feComposite3391" /></filter><filter
       style="color-interpolation-filters:sRGB;"
       inkscape:label="Drop Shadow"
       id="filter4405"
       x="-0.046458051"
       y="-0.04645802"
       width="1.0929161"
       height="1.092916"><feFlood
         flood-opacity="1"
         flood-color="rgb(58,63,94)"
         result="flood"
         id="feFlood4395" /><feComposite
         in="flood"
         in2="SourceGraphic"
         operator="out"
         result="composite1"
         id="feComposite4397" /><feGaussianBlur
         in="composite1"
         stdDeviation="20.3254"
         result="blur"
         id="feGaussianBlur4399" /><feOffset
         dx="0"
         dy="0"
         result="offset"
         id="feOffset4401" /><feComposite
         in="offset"
         in2="SourceGraphic"
         operator="atop"
         result="composite2"
         id="feComposite4403" /></filter></defs><sodipodi:namedview
     id="namedview10"
     pagecolor="#505050"
     bordercolor="#eeeeee"
     borderopacity="1"
     inkscape:pageshadow="0"
     inkscape:pageopacity="0"
     inkscape:pagecheckerboard="0"
     showgrid="false"
     inkscape:zoom="0.43896485"
     inkscape:cx="369.05005"
     inkscape:cy="503.45717"
     inkscape:window-width="1716"
     inkscape:window-height="1386"
     inkscape:window-x="1440"
     inkscape:window-y="702"
     inkscape:window-maximized="1"
     inkscape:current-layer="svg8"
     inkscape:showpageshadow="2"
     inkscape:deskcolor="#505050"
     showguides="true" /><path
     d="M0 0h512v512H0z"
     fill="#b90202"
     fill-opacity="1"
     id="path2"
     style="fill:#1b1f21;fill-opacity:0" /><style
     type="text/css"
     id="style35976">
	.st0{fill:#000000;}
</style><g
     id="g3795"
     transform="matrix(0.45315836,0,0,0.45315836,-15.894993,-15.895197)"
     style="fill:#ff0ec0;fill-opacity:1;filter:url(#filter4405)"><path
       d="M 441.7,187.5 399.512,75 h -162.92 l 56.25,112.5 z"
       id="path3759"
       style="fill:#ff0ec0;fill-opacity:1" /><path
       d="m 881.25,750 h -562.5 c -4.9727,0.004 -9.7383,1.9844 -13.254,5.4961 -3.5117,3.5156 -5.4922,8.2812 -5.4961,13.254 v 356.25 h 600 v -356.25 c -0.004,-4.9727 -1.9844,-9.7383 -5.4961,-13.254 -3.5156,-3.5117 -8.2812,-5.4922 -13.254,-5.4961 z m -18.75,318.75 c 0,4.9727 -1.9766,9.7422 -5.4922,13.258 -3.5156,3.5156 -8.2852,5.4922 -13.258,5.4922 h -487.5 c -4.9727,0 -9.7422,-1.9766 -13.258,-5.4922 -3.5156,-3.5156 -5.4922,-8.2852 -5.4922,-13.258 v -75 c 0,-4.9727 1.9766,-9.7422 5.4922,-13.258 3.5156,-3.5156 8.2852,-5.4922 13.258,-5.4922 h 487.5 c 4.9727,0 9.7422,1.9766 13.258,5.4922 3.5156,3.5156 5.4922,8.2852 5.4922,13.258 z m 0,-150 c 0,4.9727 -1.9766,9.7422 -5.4922,13.258 -3.5156,3.5156 -8.2852,5.4922 -13.258,5.4922 h -487.5 c -4.9727,0 -9.7422,-1.9766 -13.258,-5.4922 -3.5156,-3.5156 -5.4922,-8.2852 -5.4922,-13.258 v -75 c 0,-4.9727 1.9766,-9.7422 5.4922,-13.258 3.5156,-3.5156 8.2852,-5.4922 13.258,-5.4922 h 487.5 c 4.9727,0 9.7422,1.9766 13.258,5.4922 3.5156,3.5156 5.4922,8.2852 5.4922,13.258 z"
       id="path3761"
       style="fill:#ff0ec0;fill-opacity:1" /><path
       d="m 334.63,300 h 93.234 l -12.5,-75 H 322.13 Z"
       id="path3763"
       style="fill:#ff0ec0;fill-opacity:1" /><path
       d="m 734.12,300 12.5,-75 h -8.2031 c -18.664,15.441 -46.77,26.391 -83.77,32.559 h -0.004 c -18.062,3.0078 -36.328,4.6602 -54.641,4.9414 -18.312,-0.28125 -36.578,-1.9336 -54.645,-4.9414 -37.004,-6.168 -65.105,-17.109 -83.77,-32.559 h -8.2031 l 12.5,75 z"
       id="path3765"
       style="fill:#ff0ec0;fill-opacity:1" /><path
       d="m 865.37,300 12.5,-75 h -93.234 l -12.5,75 z"
       id="path3767"
       style="fill:#ff0ec0;fill-opacity:1" /><path
       d="M 75,862.5 H 187.5 V 900 H 75 Z"
       id="path3769"
       style="fill:#ff0ec0;fill-opacity:1" /><path
       d="m 918.75,225 h -2.8672 l -12.5,75 h 15.367 c 5.4727,0 10.672,2.3906 14.234,6.5469 1.875,2.1875 20.312,24.277 42.016,69.766 v -240.64 l -39.48,78.961 c -1.5586,3.1133 -3.9492,5.7344 -6.9141,7.5625 -2.9609,1.832 -6.375,2.8008 -9.8555,2.8008 z"
       id="path3771"
       style="fill:#ff0ec0;fill-opacity:1" /><path
       d="M 375,1012.5 H 825 V 1050 H 375 Z"
       id="path3773"
       style="fill:#ff0ec0;fill-opacity:1" /><path
       d="M 75,806.25 V 825 h 131.25 c 4.9727,0 9.7422,1.9766 13.258,5.4922 3.5156,3.5156 5.4922,8.2852 5.4922,13.258 v 75 c 0,4.9727 -1.9766,9.7422 -5.4922,13.258 -3.5156,3.5156 -8.2852,5.4922 -13.258,5.4922 H 75 v 37.5 h 131.25 c 4.9727,0 9.7422,1.9766 13.258,5.4922 3.5156,3.5156 5.4922,8.2852 5.4922,13.258 v 75 c 0,4.9727 -1.9766,9.7422 -5.4922,13.258 -3.5156,3.5156 -8.2852,5.4922 -13.258,5.4922 H 75 v 37.5 h 187.5 v -337.5 H 93.75 c -4.9727,0.004 -9.7383,1.9844 -13.254,5.4961 -3.5117,3.5156 -5.4922,8.2812 -5.4961,13.254 z"
       id="path3775"
       style="fill:#ff0ec0;fill-opacity:1" /><path
       d="m 281.25,300 h 15.367 l -12.5,-75 h -2.8672 c -3.4805,0 -6.8945,-0.96875 -9.8555,-2.8008 -2.9648,-1.8281 -5.3555,-4.4492 -6.9141,-7.5625 l -39.48,-78.961 v 240.64 c 21.703,-45.488 40.141,-67.578 42.016,-69.766 3.5625,-4.1562 8.7617,-6.5469 14.234,-6.5469 z"
       id="path3777"
       style="fill:#ff0ec0;fill-opacity:1" /><path
       d="M 963.41,75 H 800.49 l -42.188,112.5 h 148.86 z"
       id="path3779"
       style="fill:#ff0ec0;fill-opacity:1" /><path
       d="M 375,862.5 H 825 V 900 H 375 Z"
       id="path3781"
       style="fill:#ff0ec0;fill-opacity:1" /><path
       d="M 1106.2,787.5 H 937.45 V 1125 h 187.5 v -37.5 H 993.7 c -4.9727,0 -9.7422,-1.9766 -13.258,-5.4922 -3.5156,-3.5156 -5.4922,-8.2852 -5.4922,-13.258 v -75 c 0,-4.9727 1.9766,-9.7422 5.4922,-13.258 3.5156,-3.5156 8.2852,-5.4922 13.258,-5.4922 h 131.25 v -37.5 H 993.7 c -4.9727,0 -9.7422,-1.9766 -13.258,-5.4922 -3.5156,-3.5156 -5.4922,-8.2852 -5.4922,-13.258 v -75 c 0,-4.9727 1.9766,-9.7422 5.4922,-13.258 3.5156,-3.5156 8.2852,-5.4922 13.258,-5.4922 h 131.25 v -18.75 c 0,-4.9727 -1.9844,-9.7383 -5.4961,-13.254 -3.5156,-3.5117 -8.2812,-5.4922 -13.254,-5.4961 z"
       id="path3783"
       style="fill:#ff0ec0;fill-opacity:1" /><path
       d="M 1012.5,862.5 H 1125 V 900 h -112.5 z"
       id="path3785"
       style="fill:#ff0ec0;fill-opacity:1" /><path
       d="M 1012.5,1012.5 H 1125 v 37.5 h -112.5 z"
       id="path3787"
       style="fill:#ff0ec0;fill-opacity:1" /><path
       d="M 958.41,433.32 C 938.547,381.386 918.515,350.179 909.453,337.504 H 290.543 C 281.5157,350.16 261.461,381.363 241.59,433.32 217.891,495.289 189.844,599.77 187.652,750 h 78.074 c 3.8867,-10.957 11.07,-20.445 20.562,-27.16 9.4961,-6.7109 20.832,-10.324 32.461,-10.34 h 562.5 c 11.629,0.0156 22.965,3.6289 32.461,10.34 9.4922,6.7148 16.676,16.203 20.562,27.16 h 78.074 C 1010.1546,599.77 982.108,495.29 958.408,433.32 Z M 806.25,581.25 c 0,4.9727 -1.9766,9.7422 -5.4922,13.258 -3.5156,3.5156 -8.2852,5.4922 -13.258,5.4922 h -375 c -4.9727,0 -9.7422,-1.9766 -13.258,-5.4922 -3.5156,-3.5156 -5.4922,-8.2852 -5.4922,-13.258 v -150 c 0,-4.9727 1.9766,-9.7422 5.4922,-13.258 3.5156,-3.5156 8.2852,-5.4922 13.258,-5.4922 h 375 c 4.9727,0 9.7422,1.9766 13.258,5.4922 3.5156,3.5156 5.4922,8.2852 5.4922,13.258 z"
       id="path3789"
       style="fill:#ff0ec0;fill-opacity:1" /><path
       d="m 431.25,450 h 337.5 v 112.5 h -337.5 z"
       id="path3791"
       style="fill:#ff0ec0;fill-opacity:1" /><path
       d="M 75,1012.5 H 187.5 V 1050 H 75 Z"
       id="path3793"
       style="fill:#ff0ec0;fill-opacity:1" /></g></svg>
