<?xml version="1.0" encoding="UTF-8" standalone="no"?>
<svg
   width="512"
   height="512"
   viewBox="0 0 512 512"
   version="1.1"
   id="svg8"
   sodipodi:docname="flak_head.svg"
   inkscape:version="1.2.2 (b0a8486541, 2022-12-01)"
   xml:space="preserve"
   xmlns:inkscape="http://www.inkscape.org/namespaces/inkscape"
   xmlns:sodipodi="http://sodipodi.sourceforge.net/DTD/sodipodi-0.dtd"
   xmlns="http://www.w3.org/2000/svg"
   xmlns:svg="http://www.w3.org/2000/svg"><defs
     id="defs12"><filter
       style="color-interpolation-filters:sRGB;"
       inkscape:label="Drop Shadow"
       id="filter875"
       x="-0.31291152"
       y="-0.16857506"
       width="1.6092078"
       height="1.3282203"><feFlood
         flood-opacity="1"
         flood-color="rgb(58,63,94)"
         result="flood"
         id="feFlood865" /><feComposite
         in="flood"
         in2="SourceGraphic"
         operator="out"
         result="composite1"
         id="feComposite867" /><feGaussianBlur
         in="composite1"
         stdDeviation="15"
         result="blur"
         id="feGaussianBlur869" /><feOffset
         dx="0"
         dy="0"
         result="offset"
         id="feOffset871" /><feComposite
         in="offset"
         in2="SourceGraphic"
         operator="atop"
         result="composite2"
         id="feComposite873" /></filter><filter
       style="color-interpolation-filters:sRGB;"
       inkscape:label="Drop Shadow"
       id="filter1015"
       x="-0.081997928"
       y="-0.044180702"
       width="1.1639959"
       height="1.0883614"><feFlood
         flood-opacity="1"
         flood-color="rgb(58,63,94)"
         result="flood"
         id="feFlood1005" /><feComposite
         in="flood"
         in2="SourceGraphic"
         operator="out"
         result="composite1"
         id="feComposite1007" /><feGaussianBlur
         in="composite1"
         stdDeviation="8.30229"
         result="blur"
         id="feGaussianBlur1009" /><feOffset
         dx="0"
         dy="0"
         result="offset"
         id="feOffset1011" /><feComposite
         in="offset"
         in2="SourceGraphic"
         operator="atop"
         result="composite2"
         id="feComposite1013" /></filter><filter
       style="color-interpolation-filters:sRGB;"
       inkscape:label="Drop Shadow"
       id="filter35638"
       x="-0.057142887"
       y="-0.13067032"
       width="1.1142858"
       height="1.2613406"><feFlood
         flood-opacity="1"
         flood-color="rgb(58,63,94)"
         result="flood"
         id="feFlood35628" /><feComposite
         in="flood"
         in2="SourceGraphic"
         operator="out"
         result="composite1"
         id="feComposite35630" /><feGaussianBlur
         in="composite1"
         stdDeviation="6"
         result="blur"
         id="feGaussianBlur35632" /><feOffset
         dx="0"
         dy="0"
         result="offset"
         id="feOffset35634" /><feComposite
         in="offset"
         in2="SourceGraphic"
         operator="atop"
         result="composite2"
         id="feComposite35636" /></filter><filter
       style="color-interpolation-filters:sRGB;"
       inkscape:label="Drop Shadow"
       id="filter35813"
       x="-0.053321701"
       y="-0.069584126"
       width="1.1066434"
       height="1.1391683"><feFlood
         flood-opacity="1"
         flood-color="rgb(58,63,94)"
         result="flood"
         id="feFlood35803" /><feComposite
         in="flood"
         in2="SourceGraphic"
         operator="out"
         result="composite1"
         id="feComposite35805" /><feGaussianBlur
         in="composite1"
         stdDeviation="8"
         result="blur"
         id="feGaussianBlur35807" /><feOffset
         dx="0"
         dy="0"
         result="offset"
         id="feOffset35809" /><feComposite
         in="offset"
         in2="SourceGraphic"
         operator="atop"
         result="composite2"
         id="feComposite35811" /></filter><filter
       style="color-interpolation-filters:sRGB;"
       inkscape:label="Drop Shadow"
       id="filter36051"
       x="-0.028125"
       y="-0.038976963"
       width="1.05625"
       height="1.0779539"><feFlood
         flood-opacity="1"
         flood-color="rgb(58,63,94)"
         result="flood"
         id="feFlood36041" /><feComposite
         in="flood"
         in2="SourceGraphic"
         operator="out"
         result="composite1"
         id="feComposite36043" /><feGaussianBlur
         in="composite1"
         stdDeviation="6"
         result="blur"
         id="feGaussianBlur36045" /><feOffset
         dx="0"
         dy="0"
         result="offset"
         id="feOffset36047" /><feComposite
         in="offset"
         in2="SourceGraphic"
         operator="atop"
         result="composite2"
         id="feComposite36049" /></filter><filter
       style="color-interpolation-filters:sRGB;"
       inkscape:label="Drop Shadow"
       id="filter36337"
       x="-0.031246302"
       y="-0.031246303"
       width="1.0624926"
       height="1.0624926"><feFlood
         flood-opacity="1"
         flood-color="rgb(58,63,94)"
         result="flood"
         id="feFlood36327" /><feComposite
         in="flood"
         in2="SourceGraphic"
         operator="out"
         result="composite1"
         id="feComposite36329" /><feGaussianBlur
         in="composite1"
         stdDeviation="6"
         result="blur"
         id="feGaussianBlur36331" /><feOffset
         dx="0"
         dy="0"
         result="offset"
         id="feOffset36333" /><feComposite
         in="offset"
         in2="SourceGraphic"
         operator="atop"
         result="composite2"
         id="feComposite36335" /></filter><filter
       style="color-interpolation-filters:sRGB;"
       inkscape:label="Drop Shadow"
       id="filter1651"
       x="-0.065343256"
       y="-0.053154622"
       width="1.1306865"
       height="1.1063092"><feFlood
         flood-opacity="1"
         flood-color="rgb(58,63,94)"
         result="flood"
         id="feFlood1641" /><feComposite
         in="flood"
         in2="SourceGraphic"
         operator="out"
         result="composite1"
         id="feComposite1643" /><feGaussianBlur
         in="composite1"
         stdDeviation="23.9195"
         result="blur"
         id="feGaussianBlur1645" /><feOffset
         dx="0"
         dy="0"
         result="offset"
         id="feOffset1647" /><feComposite
         in="offset"
         in2="SourceGraphic"
         operator="atop"
         result="composite2"
         id="feComposite1649" /></filter><filter
       style="color-interpolation-filters:sRGB;"
       inkscape:label="Drop Shadow"
       id="filter2460"
       x="-0.055034241"
       y="-0.04783849"
       width="1.1100685"
       height="1.095677"><feFlood
         flood-opacity="1"
         flood-color="rgb(58,63,94)"
         result="flood"
         id="feFlood2450" /><feComposite
         in="flood"
         in2="SourceGraphic"
         operator="out"
         result="composite1"
         id="feComposite2452" /><feGaussianBlur
         in="composite1"
         stdDeviation="23.9195"
         result="blur"
         id="feGaussianBlur2454" /><feOffset
         dx="0"
         dy="0"
         result="offset"
         id="feOffset2456" /><feComposite
         in="offset"
         in2="SourceGraphic"
         operator="atop"
         result="composite2"
         id="feComposite2458" /></filter><filter
       style="color-interpolation-filters:sRGB;"
       inkscape:label="Drop Shadow"
       id="filter3393"
       x="-0.043597231"
       y="-0.047813213"
       width="1.0871945"
       height="1.0956264"><feFlood
         flood-opacity="1"
         flood-color="rgb(58,63,94)"
         result="flood"
         id="feFlood3383" /><feComposite
         in="flood"
         in2="SourceGraphic"
         operator="out"
         result="composite1"
         id="feComposite3385" /><feGaussianBlur
         in="composite1"
         stdDeviation="20.3254"
         result="blur"
         id="feGaussianBlur3387" /><feOffset
         dx="0"
         dy="0"
         result="offset"
         id="feOffset3389" /><feComposite
         in="offset"
         in2="SourceGraphic"
         operator="atop"
         result="composite2"
         id="feComposite3391" /></filter></defs><sodipodi:namedview
     id="namedview10"
     pagecolor="#505050"
     bordercolor="#eeeeee"
     borderopacity="1"
     inkscape:pageshadow="0"
     inkscape:pageopacity="0"
     inkscape:pagecheckerboard="0"
     showgrid="false"
     inkscape:zoom="0.43896485"
     inkscape:cx="369.05005"
     inkscape:cy="503.45717"
     inkscape:window-width="1716"
     inkscape:window-height="1386"
     inkscape:window-x="1440"
     inkscape:window-y="702"
     inkscape:window-maximized="1"
     inkscape:current-layer="svg8"
     inkscape:showpageshadow="2"
     inkscape:deskcolor="#505050"
     showguides="true" /><path
     d="M0 0h512v512H0z"
     fill="#b90202"
     fill-opacity="1"
     id="path2"
     style="fill:#1b1f21;fill-opacity:0" /><style
     type="text/css"
     id="style35976">
	.st0{fill:#000000;}
</style><g
     id="g2749"
     transform="matrix(-0.39381991,0,0,0.39381991,493.37022,19.70803)"
     style="fill:#ff0ec0;fill-opacity:1;filter:url(#filter3393)"><path
       d="m 634.57,997.78 c -1.6875,10.219 5.2266,19.875 15.445,21.562 l 19.594,3.2344 c -0.77344,2.1328 -1.5469,4.2891 -2.3438,6.4688 -3.2578,8.8594 -6.7266,17.625 -10.359,26.227 l -25.805,-4.2656 c -10.219,-1.7109 -19.875,5.2266 -21.562,15.422 -1.6875,10.219 5.2266,19.875 15.445,21.562 l 15.398,2.5547 c -0.89062,1.7344 -1.7578,3.4922 -2.6719,5.2031 -5.3438,10.125 -16.57,15.797 -27.938,14.062 -8.5078,-1.2656 -15.727,-6.3516 -19.805,-13.898 -4.0547,-7.5234 -4.3594,-16.289 -0.79688,-24.047 3.5391,-7.7344 6.6328,-14.859 9.2344,-21.164 21.352,-52.125 32.836,-91.219 38.602,-114.19 17.086,6.7266 35.25,12.281 54.562,16.266 -2.4375,8.9062 -5.7422,20.461 -9.9141,33.797 l -25.523,-4.2422 c -10.219,-1.6875 -19.852,5.2266 -21.562,15.445 z"
       id="path2733"
       style="fill:#ff0ec0;fill-opacity:1" /><path
       d="m 544.1,903.52 c -0.77344,2.1797 -1.5469,4.3359 -2.3438,6.4688 -3.2344,8.8594 -6.7031,17.625 -10.359,26.227 l -25.805,-4.2656 c -10.219,-1.6875 -19.875,5.2266 -21.562,15.445 -1.687,10.2184 5.2266,19.852 15.445,21.539 l 15.422,2.5547 c -0.89063,1.7344 -1.7812,3.4922 -2.6953,5.2031 -5.3438,10.125 -16.547,15.797 -27.938,14.062 -8.4844,-1.2656 -15.703,-6.3516 -19.805,-13.898 -4.0547,-7.5234 -4.3594,-16.289 -0.79688,-24.047 3.5391,-7.7109 6.6562,-14.836 9.2344,-21.164 13.641,-33.258 23.25,-61.289 29.977,-83.344 5.6953,5.2969 11.672,10.664 17.906,16.031 -5.9531,2.3203 -10.57,7.6172 -11.695,14.391 -1.6875,10.219 5.2266,19.875 15.445,21.562 z"
       id="path2735"
       style="fill:#ff0ec0;fill-opacity:1" /><path
       d="m 1148.6,776.55 c -30.773,41.953 -83.438,80.953 -144.49,106.99 -80.789,34.43 -173.09,46.922 -274.27,37.148 -117.77,-11.391 -195.7,-92.273 -242.25,-140.6 l -2.7422,-2.8359 c -55.523,-57.609 -135.7,-123.87 -263.95,-124.92 h -177.61 l 9.8438,-38.531 168.23,1.0312 c 160.27,1.3359 254.86,99.445 290.48,136.38 l 2.7422,2.8594 c 45.75,47.461 114.87,119.23 218.86,129.28 20.648,1.9922 41.227,3.0234 61.195,3.0234 79.172,0 150.94,-15.422 213.3,-45.797 45.727,-22.266 83.812,-51.938 110.11,-85.805 17.906,-23.062 31.055,-43.617 40.664,-61.008 5.2266,30.562 6.4688,60.164 -10.125,82.781 z"
       id="path2737"
       style="fill:#ff0ec0;fill-opacity:1" /><path
       d="M 958.85,632.41 C 935.202,572.832 878.506,534.324 814.38,534.324 H 571.26 c -45.961,0 -89.719,19.852 -120,54.422 l -34.5,39.375 c 60.773,33.539 100.95,75.188 122.04,97.078 l 2.7422,2.8359 c 41.93,43.523 105.28,109.27 195.47,118.01 19.453,1.875 38.812,2.8359 57.562,2.8359 73.453,0 139.69,-14.133 196.92,-42 10.5,-5.1328 20.531,-10.664 30.023,-16.57 z M 733.92,753.28 c -31.008,0 -56.25,-25.242 -56.25,-56.25 0,-31.008 25.242,-56.25 56.25,-56.25 31.008,0 56.25,25.242 56.25,56.25 0,31.008 -25.219,56.25 -56.25,56.25 z"
       id="path2739"
       style="fill:#ff0ec0;fill-opacity:1" /><path
       d="m 1144.9,607.97 c 0,-38.133 -5.3438,-172.2 -74.086,-295.43 C 988.408,164.79 847.434,89.88 651.824,89.88 c -112.76,0 -209.41,18.445 -287.25,54.844 -62.836,29.367 -113.91,70.641 -151.78,122.62 -71.25,97.828 -73.312,202.78 -73.312,214.43 v 69.422 c 0,6.9375 -3.8203,13.312 -9.9375,16.57 l -16.711,8.8828 108.75,0.67969 c 62.602,0.51562 115.88,14.297 160.31,33.656 l 41.133,-46.945 c 37.43,-42.703 91.453,-67.219 148.22,-67.219 h 243.12 c 79.57,0 149.98,47.789 179.32,121.76 l 59.25,149.27 c 13.641,-11.25 25.547,-23.344 35.438,-36.07 42.516,-54.773 55.195,-93.07 58.008,-103.17 -0.9141,-7.0781 -1.4766,-13.945 -1.4766,-20.648 z M 362.53,553.689 c -31.008,0 -56.25,-25.242 -56.25,-56.25 0,-31.008 25.242,-56.25 56.25,-56.25 31.008,0 56.25,25.242 56.25,56.25 0,31.008 -25.219,56.25 -56.25,56.25 z m 687.21,37.5 c -31.008,0 -56.25,-25.242 -56.25,-56.25 0,-31.008 25.242,-56.25 56.25,-56.25 31.008,0 56.25,25.242 56.25,56.25 0,31.008 -25.219,56.25 -56.25,56.25 z"
       id="path2741"
       style="fill:#ff0ec0;fill-opacity:1" /><path
       d="m 381.3,497.44 c 0,10.355 -8.3945,18.75 -18.75,18.75 -10.355,0 -18.75,-8.3945 -18.75,-18.75 0,-10.3555 8.3945,-18.75 18.75,-18.75 10.355,0 18.75,8.3945 18.75,18.75"
       id="path2743"
       style="fill:#ff0ec0;fill-opacity:1" /><path
       d="m 752.67,697.03 c 0,10.355 -8.3945,18.75 -18.75,18.75 -10.3555,0 -18.75,-8.3945 -18.75,-18.75 0,-10.3555 8.3945,-18.75 18.75,-18.75 10.3555,0 18.75,8.3945 18.75,18.75"
       id="path2745"
       style="fill:#ff0ec0;fill-opacity:1" /><path
       d="m 1068.5,534.94 c 0,10.355 -8.3945,18.75 -18.75,18.75 -10.3555,0 -18.75,-8.3945 -18.75,-18.75 0,-10.3555 8.3945,-18.75 18.75,-18.75 10.3555,0 18.75,8.3945 18.75,18.75"
       id="path2747"
       style="fill:#ff0ec0;fill-opacity:1" /></g></svg>
