<?xml version="1.0" encoding="UTF-8" standalone="no"?>
<svg
   width="512"
   height="512"
   viewBox="0 0 512 512"
   version="1.1"
   id="svg8"
   sodipodi:docname="kevlar_body.svg"
   inkscape:version="1.2.2 (b0a8486541, 2022-12-01)"
   xml:space="preserve"
   xmlns:inkscape="http://www.inkscape.org/namespaces/inkscape"
   xmlns:sodipodi="http://sodipodi.sourceforge.net/DTD/sodipodi-0.dtd"
   xmlns="http://www.w3.org/2000/svg"
   xmlns:svg="http://www.w3.org/2000/svg"><defs
     id="defs12"><filter
       style="color-interpolation-filters:sRGB;"
       inkscape:label="Drop Shadow"
       id="filter875"
       x="-0.31291152"
       y="-0.16857506"
       width="1.6092078"
       height="1.3282203"><feFlood
         flood-opacity="1"
         flood-color="rgb(58,63,94)"
         result="flood"
         id="feFlood865" /><feComposite
         in="flood"
         in2="SourceGraphic"
         operator="out"
         result="composite1"
         id="feComposite867" /><feGaussianBlur
         in="composite1"
         stdDeviation="15"
         result="blur"
         id="feGaussianBlur869" /><feOffset
         dx="0"
         dy="0"
         result="offset"
         id="feOffset871" /><feComposite
         in="offset"
         in2="SourceGraphic"
         operator="atop"
         result="composite2"
         id="feComposite873" /></filter><filter
       style="color-interpolation-filters:sRGB;"
       inkscape:label="Drop Shadow"
       id="filter1015"
       x="-0.081997928"
       y="-0.044180702"
       width="1.1639959"
       height="1.0883614"><feFlood
         flood-opacity="1"
         flood-color="rgb(58,63,94)"
         result="flood"
         id="feFlood1005" /><feComposite
         in="flood"
         in2="SourceGraphic"
         operator="out"
         result="composite1"
         id="feComposite1007" /><feGaussianBlur
         in="composite1"
         stdDeviation="8.30229"
         result="blur"
         id="feGaussianBlur1009" /><feOffset
         dx="0"
         dy="0"
         result="offset"
         id="feOffset1011" /><feComposite
         in="offset"
         in2="SourceGraphic"
         operator="atop"
         result="composite2"
         id="feComposite1013" /></filter><filter
       style="color-interpolation-filters:sRGB;"
       inkscape:label="Drop Shadow"
       id="filter35638"
       x="-0.057142887"
       y="-0.13067032"
       width="1.1142858"
       height="1.2613406"><feFlood
         flood-opacity="1"
         flood-color="rgb(58,63,94)"
         result="flood"
         id="feFlood35628" /><feComposite
         in="flood"
         in2="SourceGraphic"
         operator="out"
         result="composite1"
         id="feComposite35630" /><feGaussianBlur
         in="composite1"
         stdDeviation="6"
         result="blur"
         id="feGaussianBlur35632" /><feOffset
         dx="0"
         dy="0"
         result="offset"
         id="feOffset35634" /><feComposite
         in="offset"
         in2="SourceGraphic"
         operator="atop"
         result="composite2"
         id="feComposite35636" /></filter><filter
       style="color-interpolation-filters:sRGB;"
       inkscape:label="Drop Shadow"
       id="filter35813"
       x="-0.053321701"
       y="-0.069584126"
       width="1.1066434"
       height="1.1391683"><feFlood
         flood-opacity="1"
         flood-color="rgb(58,63,94)"
         result="flood"
         id="feFlood35803" /><feComposite
         in="flood"
         in2="SourceGraphic"
         operator="out"
         result="composite1"
         id="feComposite35805" /><feGaussianBlur
         in="composite1"
         stdDeviation="8"
         result="blur"
         id="feGaussianBlur35807" /><feOffset
         dx="0"
         dy="0"
         result="offset"
         id="feOffset35809" /><feComposite
         in="offset"
         in2="SourceGraphic"
         operator="atop"
         result="composite2"
         id="feComposite35811" /></filter><filter
       style="color-interpolation-filters:sRGB;"
       inkscape:label="Drop Shadow"
       id="filter36051"
       x="-0.028125"
       y="-0.038976963"
       width="1.05625"
       height="1.0779539"><feFlood
         flood-opacity="1"
         flood-color="rgb(58,63,94)"
         result="flood"
         id="feFlood36041" /><feComposite
         in="flood"
         in2="SourceGraphic"
         operator="out"
         result="composite1"
         id="feComposite36043" /><feGaussianBlur
         in="composite1"
         stdDeviation="6"
         result="blur"
         id="feGaussianBlur36045" /><feOffset
         dx="0"
         dy="0"
         result="offset"
         id="feOffset36047" /><feComposite
         in="offset"
         in2="SourceGraphic"
         operator="atop"
         result="composite2"
         id="feComposite36049" /></filter><filter
       style="color-interpolation-filters:sRGB;"
       inkscape:label="Drop Shadow"
       id="filter36337"
       x="-0.031246302"
       y="-0.031246303"
       width="1.0624926"
       height="1.0624926"><feFlood
         flood-opacity="1"
         flood-color="rgb(58,63,94)"
         result="flood"
         id="feFlood36327" /><feComposite
         in="flood"
         in2="SourceGraphic"
         operator="out"
         result="composite1"
         id="feComposite36329" /><feGaussianBlur
         in="composite1"
         stdDeviation="6"
         result="blur"
         id="feGaussianBlur36331" /><feOffset
         dx="0"
         dy="0"
         result="offset"
         id="feOffset36333" /><feComposite
         in="offset"
         in2="SourceGraphic"
         operator="atop"
         result="composite2"
         id="feComposite36335" /></filter><filter
       style="color-interpolation-filters:sRGB;"
       inkscape:label="Drop Shadow"
       id="filter1651"
       x="-0.065343256"
       y="-0.053154622"
       width="1.1306865"
       height="1.1063092"><feFlood
         flood-opacity="1"
         flood-color="rgb(58,63,94)"
         result="flood"
         id="feFlood1641" /><feComposite
         in="flood"
         in2="SourceGraphic"
         operator="out"
         result="composite1"
         id="feComposite1643" /><feGaussianBlur
         in="composite1"
         stdDeviation="23.9195"
         result="blur"
         id="feGaussianBlur1645" /><feOffset
         dx="0"
         dy="0"
         result="offset"
         id="feOffset1647" /><feComposite
         in="offset"
         in2="SourceGraphic"
         operator="atop"
         result="composite2"
         id="feComposite1649" /></filter><filter
       style="color-interpolation-filters:sRGB;"
       inkscape:label="Drop Shadow"
       id="filter2460"
       x="-0.055034241"
       y="-0.04783849"
       width="1.1100685"
       height="1.095677"><feFlood
         flood-opacity="1"
         flood-color="rgb(58,63,94)"
         result="flood"
         id="feFlood2450" /><feComposite
         in="flood"
         in2="SourceGraphic"
         operator="out"
         result="composite1"
         id="feComposite2452" /><feGaussianBlur
         in="composite1"
         stdDeviation="23.9195"
         result="blur"
         id="feGaussianBlur2454" /><feOffset
         dx="0"
         dy="0"
         result="offset"
         id="feOffset2456" /><feComposite
         in="offset"
         in2="SourceGraphic"
         operator="atop"
         result="composite2"
         id="feComposite2458" /></filter><filter
       style="color-interpolation-filters:sRGB;"
       inkscape:label="Drop Shadow"
       id="filter3393"
       x="-0.043597231"
       y="-0.047813213"
       width="1.0871945"
       height="1.0956264"><feFlood
         flood-opacity="1"
         flood-color="rgb(58,63,94)"
         result="flood"
         id="feFlood3383" /><feComposite
         in="flood"
         in2="SourceGraphic"
         operator="out"
         result="composite1"
         id="feComposite3385" /><feGaussianBlur
         in="composite1"
         stdDeviation="20.3254"
         result="blur"
         id="feGaussianBlur3387" /><feOffset
         dx="0"
         dy="0"
         result="offset"
         id="feOffset3389" /><feComposite
         in="offset"
         in2="SourceGraphic"
         operator="atop"
         result="composite2"
         id="feComposite3391" /></filter><filter
       style="color-interpolation-filters:sRGB;"
       inkscape:label="Drop Shadow"
       id="filter4405"
       x="-0.046458051"
       y="-0.04645802"
       width="1.0929161"
       height="1.092916"><feFlood
         flood-opacity="1"
         flood-color="rgb(58,63,94)"
         result="flood"
         id="feFlood4395" /><feComposite
         in="flood"
         in2="SourceGraphic"
         operator="out"
         result="composite1"
         id="feComposite4397" /><feGaussianBlur
         in="composite1"
         stdDeviation="20.3254"
         result="blur"
         id="feGaussianBlur4399" /><feOffset
         dx="0"
         dy="0"
         result="offset"
         id="feOffset4401" /><feComposite
         in="offset"
         in2="SourceGraphic"
         operator="atop"
         result="composite2"
         id="feComposite4403" /></filter><filter
       style="color-interpolation-filters:sRGB;"
       inkscape:label="Drop Shadow"
       id="filter6546"
       x="-0.045088306"
       y="-0.041489669"
       width="1.0901766"
       height="1.0829793"><feFlood
         flood-opacity="1"
         flood-color="rgb(58,63,94)"
         result="flood"
         id="feFlood6536" /><feComposite
         in="flood"
         in2="SourceGraphic"
         operator="out"
         result="composite1"
         id="feComposite6538" /><feGaussianBlur
         in="composite1"
         stdDeviation="18.8"
         result="blur"
         id="feGaussianBlur6540" /><feOffset
         dx="0"
         dy="0"
         result="offset"
         id="feOffset6542" /><feComposite
         in="offset"
         in2="SourceGraphic"
         operator="atop"
         result="composite2"
         id="feComposite6544" /></filter></defs><sodipodi:namedview
     id="namedview10"
     pagecolor="#505050"
     bordercolor="#eeeeee"
     borderopacity="1"
     inkscape:pageshadow="0"
     inkscape:pageopacity="0"
     inkscape:pagecheckerboard="0"
     showgrid="false"
     inkscape:zoom="0.43896485"
     inkscape:cx="369.05005"
     inkscape:cy="503.45717"
     inkscape:window-width="1716"
     inkscape:window-height="1386"
     inkscape:window-x="1440"
     inkscape:window-y="702"
     inkscape:window-maximized="1"
     inkscape:current-layer="svg8"
     inkscape:showpageshadow="2"
     inkscape:deskcolor="#505050"
     showguides="true" /><path
     d="M0 0h512v512H0z"
     fill="#b90202"
     fill-opacity="1"
     id="path2"
     style="fill:#1b1f21;fill-opacity:0" /><style
     type="text/css"
     id="style35976">
	.st0{fill:#000000;}
</style><g
     id="g5952"
     transform="matrix(0.4248298,0,0,0.4248298,1.0952165,1.10212)"
     style="fill:#ff0ec0;fill-opacity:1;filter:url(#filter6546)"><path
       d="m 375,959.64 -175.09,29.176 8.3438,38.359 166.74,-30.336 z"
       id="path5932"
       style="fill:#ff0ec0;fill-opacity:1" /><path
       d="m 337.5,659.64 -201.84,33.637 7.7617,35.68 194.08,-32.344 z"
       id="path5934"
       style="fill:#ff0ec0;fill-opacity:1" /><path
       d="m 356.25,809.64 -188.46,31.406 8.3828,38.551 180.07,-32.758 z"
       id="path5936"
       style="fill:#ff0ec0;fill-opacity:1" /><path
       d="M 931.82,293.48 1060.99,99.71 999.431,62.772 870.261,256.542 Z"
       id="path5938"
       style="fill:#ff0ec0;fill-opacity:1" /><path
       d="M 329.74,256.54 200.57,62.77 l -61.559,36.938 129.17,193.77 z"
       id="path5940"
       style="fill:#ff0ec0;fill-opacity:1" /><path
       d="m 862.5,696.62 194.08,32.344 7.7617,-35.68 -201.84,-33.637 z"
       id="path5942"
       style="fill:#ff0ec0;fill-opacity:1" /><path
       d="m 825,996.84 166.74,30.336 8.3438,-38.359 -175.09,-29.176 z"
       id="path5944"
       style="fill:#ff0ec0;fill-opacity:1" /><path
       d="m 525,450 h 150 v 562.5 H 525 Z"
       id="path5946"
       style="fill:#ff0ec0;fill-opacity:1" /><path
       d="m 825,712.5 v -75 c 0,-5.5117 2.418,-10.742 6.6367,-14.305 4.1992,-3.5625 9.7695,-5.1016 15.207,-4.1992 l 195.96,32.664 -54.957,-64.125 c -20.363,-23.762 -31.594,-54.098 -31.594,-85.41 v -6.8242 c 0,-20.27 4.7812,-40.574 13.855,-58.688 l 130.26,-260.53 -32.551,-18.996 -114.71,172.05 c -3.6016,5.418 -9.5469,8.3633 -15.621,8.3633 -3.2812,0 -6.6172,-0.86328 -9.6367,-2.6797 l -93.75,-56.25 c -4.3867,-2.6445 -7.5195,-6.957 -8.6445,-11.961 -1.125,-5.0078 -0.14844,-10.238 2.6992,-14.512 l 112.71,-169.05 -33.074,-19.297 c -8.3984,-4.9141 -17.98,-7.5 -27.73,-7.5 h -4.6875 c -27.77,0 -50.363,22.594 -50.363,50.383 0,45.074 -17.551,87.449 -49.426,119.32 l -5.8672,5.8672 c -31.875,31.875 -74.25,49.426 -119.32,49.426 h -100.74 c -45.074,0 -87.449,-17.551 -119.32,-49.426 l -5.8672,-5.8672 c -31.898,-31.875 -49.449,-74.27 -49.449,-119.32 0,-27.789 -22.594,-50.383 -50.383,-50.383 h -4.6875 c -9.75,0 -19.332,2.5859 -27.73,7.5 l -33.074,19.293 112.71,169.05 c 2.8516,4.2734 3.8242,9.5078 2.6992,14.512 -1.125,5.0078 -4.2578,9.3359 -8.6445,11.961 l -93.75,56.25 c -3,1.8203 -6.3359,2.6836 -9.6172,2.6836 -6.0742,0 -12.02,-2.9453 -15.617,-8.3438 l -114.71,-172.07 -32.551,18.996 130.26,260.53 c 9.0742,18.129 13.855,38.418 13.855,58.707 v 6.8242 c 0,31.312 -11.23,61.648 -31.594,85.426 l -54.957,64.125 195.96,-32.664 c 5.3984,-0.89844 10.988,0.61719 15.207,4.1992 4.2188,3.5273 6.6367,8.7578 6.6367,14.27 v 75 c 0,9.168 -6.6367,16.988 -15.656,18.488 l -207.94,34.648 8.418,38.699 212.1,-35.344 c 5.418,-0.88281 10.988,0.61719 15.207,4.1992 4.1992,3.5664 6.6172,8.7969 6.6172,14.309 v 75 c 0,9.0547 -6.4883,16.82 -15.395,18.43 l -194.21,35.328 7.8008,35.867 198.73,-33.113 c 5.418,-0.89844 10.988,0.61719 15.207,4.1992 4.1992,3.5469 6.6172,8.7773 6.6172,14.289 v 75 c 0,9.0547 -6.4883,16.82 -15.395,18.43 l -180.88,32.887 6,27.602 c 119.4,34.746 242.72,52.332 366.9,52.332 h 21.73 c 124.26,0 247.65,-17.586 366.92,-52.332 l 6,-27.602 -180.88,-32.887 c -8.9023,-1.6094 -15.391,-9.375 -15.391,-18.43 v -75 c 0,-5.5117 2.418,-10.742 6.6367,-14.305 4.1992,-3.5625 9.75,-5.082 15.207,-4.1992 l 198.73,33.113 7.8008,-35.867 -194.21,-35.305 c -8.9258,-1.6172 -15.414,-9.3828 -15.414,-18.438 v -75 c 0,-5.5117 2.418,-10.742 6.6367,-14.305 4.2187,-3.563 9.7695,-5.082 15.207,-4.1992 l 212.1,35.344 8.418,-38.699 -207.94,-34.648 c -9.0391,-1.5039 -15.676,-9.3242 -15.676,-18.492 z m -112.5,318.75 c 0,10.367 -8.3984,18.75 -18.75,18.75 h -187.5 c -10.352,0 -18.75,-8.3828 -18.75,-18.75 v -600 c 0,-10.352 8.3984,-18.75 18.75,-18.75 h 187.5 c 10.352,0 18.75,8.3984 18.75,18.75 z"
       id="path5948"
       style="fill:#ff0ec0;fill-opacity:1" /><path
       d="m 843.75,846.84 180.07,32.758 8.3828,-38.551 -188.46,-31.406 z"
       id="path5950"
       style="fill:#ff0ec0;fill-opacity:1" /></g></svg>
