<?xml version="1.0" encoding="UTF-8" standalone="no"?>
<svg
   width="512"
   height="512"
   viewBox="0 0 512 512"
   version="1.1"
   id="svg8"
   sodipodi:docname="helmet_leather.svg"
   inkscape:version="1.2.2 (b0a8486541, 2022-12-01)"
   xml:space="preserve"
   xmlns:inkscape="http://www.inkscape.org/namespaces/inkscape"
   xmlns:sodipodi="http://sodipodi.sourceforge.net/DTD/sodipodi-0.dtd"
   xmlns="http://www.w3.org/2000/svg"
   xmlns:svg="http://www.w3.org/2000/svg"><defs
     id="defs12"><filter
       style="color-interpolation-filters:sRGB;"
       inkscape:label="Drop Shadow"
       id="filter875"
       x="-0.31291152"
       y="-0.16857506"
       width="1.6092078"
       height="1.3282203"><feFlood
         flood-opacity="1"
         flood-color="rgb(58,63,94)"
         result="flood"
         id="feFlood865" /><feComposite
         in="flood"
         in2="SourceGraphic"
         operator="out"
         result="composite1"
         id="feComposite867" /><feGaussianBlur
         in="composite1"
         stdDeviation="15"
         result="blur"
         id="feGaussianBlur869" /><feOffset
         dx="0"
         dy="0"
         result="offset"
         id="feOffset871" /><feComposite
         in="offset"
         in2="SourceGraphic"
         operator="atop"
         result="composite2"
         id="feComposite873" /></filter><filter
       style="color-interpolation-filters:sRGB;"
       inkscape:label="Drop Shadow"
       id="filter1015"
       x="-0.081997928"
       y="-0.044180702"
       width="1.1639959"
       height="1.0883614"><feFlood
         flood-opacity="1"
         flood-color="rgb(58,63,94)"
         result="flood"
         id="feFlood1005" /><feComposite
         in="flood"
         in2="SourceGraphic"
         operator="out"
         result="composite1"
         id="feComposite1007" /><feGaussianBlur
         in="composite1"
         stdDeviation="8.30229"
         result="blur"
         id="feGaussianBlur1009" /><feOffset
         dx="0"
         dy="0"
         result="offset"
         id="feOffset1011" /><feComposite
         in="offset"
         in2="SourceGraphic"
         operator="atop"
         result="composite2"
         id="feComposite1013" /></filter><filter
       style="color-interpolation-filters:sRGB;"
       inkscape:label="Drop Shadow"
       id="filter35638"
       x="-0.057142887"
       y="-0.13067032"
       width="1.1142858"
       height="1.2613406"><feFlood
         flood-opacity="1"
         flood-color="rgb(58,63,94)"
         result="flood"
         id="feFlood35628" /><feComposite
         in="flood"
         in2="SourceGraphic"
         operator="out"
         result="composite1"
         id="feComposite35630" /><feGaussianBlur
         in="composite1"
         stdDeviation="6"
         result="blur"
         id="feGaussianBlur35632" /><feOffset
         dx="0"
         dy="0"
         result="offset"
         id="feOffset35634" /><feComposite
         in="offset"
         in2="SourceGraphic"
         operator="atop"
         result="composite2"
         id="feComposite35636" /></filter><filter
       style="color-interpolation-filters:sRGB;"
       inkscape:label="Drop Shadow"
       id="filter35813"
       x="-0.053321701"
       y="-0.069584126"
       width="1.1066434"
       height="1.1391683"><feFlood
         flood-opacity="1"
         flood-color="rgb(58,63,94)"
         result="flood"
         id="feFlood35803" /><feComposite
         in="flood"
         in2="SourceGraphic"
         operator="out"
         result="composite1"
         id="feComposite35805" /><feGaussianBlur
         in="composite1"
         stdDeviation="8"
         result="blur"
         id="feGaussianBlur35807" /><feOffset
         dx="0"
         dy="0"
         result="offset"
         id="feOffset35809" /><feComposite
         in="offset"
         in2="SourceGraphic"
         operator="atop"
         result="composite2"
         id="feComposite35811" /></filter><filter
       style="color-interpolation-filters:sRGB;"
       inkscape:label="Drop Shadow"
       id="filter36051"
       x="-0.028125"
       y="-0.038976963"
       width="1.05625"
       height="1.0779539"><feFlood
         flood-opacity="1"
         flood-color="rgb(58,63,94)"
         result="flood"
         id="feFlood36041" /><feComposite
         in="flood"
         in2="SourceGraphic"
         operator="out"
         result="composite1"
         id="feComposite36043" /><feGaussianBlur
         in="composite1"
         stdDeviation="6"
         result="blur"
         id="feGaussianBlur36045" /><feOffset
         dx="0"
         dy="0"
         result="offset"
         id="feOffset36047" /><feComposite
         in="offset"
         in2="SourceGraphic"
         operator="atop"
         result="composite2"
         id="feComposite36049" /></filter><filter
       style="color-interpolation-filters:sRGB;"
       inkscape:label="Drop Shadow"
       id="filter36337"
       x="-0.031246302"
       y="-0.031246303"
       width="1.0624926"
       height="1.0624926"><feFlood
         flood-opacity="1"
         flood-color="rgb(58,63,94)"
         result="flood"
         id="feFlood36327" /><feComposite
         in="flood"
         in2="SourceGraphic"
         operator="out"
         result="composite1"
         id="feComposite36329" /><feGaussianBlur
         in="composite1"
         stdDeviation="6"
         result="blur"
         id="feGaussianBlur36331" /><feOffset
         dx="0"
         dy="0"
         result="offset"
         id="feOffset36333" /><feComposite
         in="offset"
         in2="SourceGraphic"
         operator="atop"
         result="composite2"
         id="feComposite36335" /></filter><filter
       style="color-interpolation-filters:sRGB;"
       inkscape:label="Drop Shadow"
       id="filter1651"
       x="-0.065343256"
       y="-0.053154622"
       width="1.1306865"
       height="1.1063092"><feFlood
         flood-opacity="1"
         flood-color="rgb(58,63,94)"
         result="flood"
         id="feFlood1641" /><feComposite
         in="flood"
         in2="SourceGraphic"
         operator="out"
         result="composite1"
         id="feComposite1643" /><feGaussianBlur
         in="composite1"
         stdDeviation="23.9195"
         result="blur"
         id="feGaussianBlur1645" /><feOffset
         dx="0"
         dy="0"
         result="offset"
         id="feOffset1647" /><feComposite
         in="offset"
         in2="SourceGraphic"
         operator="atop"
         result="composite2"
         id="feComposite1649" /></filter></defs><sodipodi:namedview
     id="namedview10"
     pagecolor="#505050"
     bordercolor="#eeeeee"
     borderopacity="1"
     inkscape:pageshadow="0"
     inkscape:pageopacity="0"
     inkscape:pagecheckerboard="0"
     showgrid="false"
     inkscape:zoom="0.43896485"
     inkscape:cx="369.05005"
     inkscape:cy="503.45717"
     inkscape:window-width="1716"
     inkscape:window-height="1386"
     inkscape:window-x="1440"
     inkscape:window-y="702"
     inkscape:window-maximized="1"
     inkscape:current-layer="svg8"
     inkscape:showpageshadow="2"
     inkscape:deskcolor="#505050"
     showguides="true" /><path
     d="M0 0h512v512H0z"
     fill="#b90202"
     fill-opacity="1"
     id="path2"
     style="fill:#1b1f21;fill-opacity:0" /><style
     type="text/css"
     id="style35976">
	.st0{fill:#000000;}
</style><g
     id="g862"
     transform="matrix(-0.49964551,0,0,0.39478133,555.66595,19.132702)"
     style="fill:#ff0ec0;fill-opacity:1;filter:url(#filter1651)"><path
       d="m 816,727.2 c 33.602,1.1992 61.199,-9.6016 80.398,-30 37.199,-38.398 38.398,-104.4 37.199,-122.4 -68.398,-9.6016 -158.4,-22.801 -225.6,-34.801 -4.8008,21.602 -15.602,100.8 20.398,148.8 18,24 48,37.199 87.602,38.398 z"
       id="path850"
       style="fill:#ff0ec0;fill-opacity:1" /><path
       d="m 954,577.2 c 0,24 -2.3984,91.199 -43.199,133.2 -22.801,24 -52.801,36 -91.199,36 h -4.8008 c -45.602,-1.1992 -80.398,-16.801 -103.2,-46.801 -42,-54 -28.801,-139.2 -24,-163.2 -16.801,-3.6016 -31.199,-6 -44.398,-8.3984 l -58.801,-13.199 c -4.8008,108 -12,348 2.3984,433.2 13.199,75.602 76.801,92.398 154.8,92.398 h 16.801 c 61.199,-1.1992 103.2,-44.398 110.4,-86.398 4.8008,-30 10.801,-108 15.602,-141.6 2.3984,-19.199 14.398,-36 31.199,-45.602 15.602,-8.3984 36,-15.602 62.398,-19.199 21.602,-2.3984 38.398,-19.199 40.801,-39.602 l 12,-102 c 0,-6 0,-12 -1.1992,-18 -9.6016,-1.1953 -38.402,-4.7969 -75.602,-10.797 z"
       id="path852"
       style="fill:#ff0ec0;fill-opacity:1" /><path
       d="m 469.2,572.4 c -16.801,-7.1992 -33.602,-19.199 -52.801,-32.398 -32.398,-22.801 -69.598,-48 -116.4,-57.602 -7.1992,-1.1992 -14.398,-3.6016 -20.398,-4.8008 -13.199,122.4 -38.398,372 -40.801,423.6 -2.3984,69.602 60,126 136.8,138 39.602,7.1992 84,7.1992 122.4,-1.1992 C 448.801,937.2 459.602,694.8 469.199,572.4 Z"
       id="path854"
       style="fill:#ff0ec0;fill-opacity:1" /><path
       d="m 428.4,524.4 c 32.398,22.801 60,42 84,36 45.602,-10.801 39.602,-46.801 38.398,-50.398 v -2.3984 c -2.3984,-164.4 -132,-344.4 -248.4,-344.4 -112.8,0 -138,117.6 -139.2,118.8 -18,129.6 56.398,164.4 140.4,181.2 51.602,9.5977 90.004,37.195 124.8,61.195 z"
       id="path856"
       style="fill:#ff0ec0;fill-opacity:1" /><path
       d="m 980.4,768 c -20.398,2.3984 -38.398,8.3984 -55.199,16.801 -10.801,6 -19.199,16.801 -20.398,30 -2.3984,14.398 -3.6016,37.199 -6,62.398 -3.6016,31.199 -6,63.602 -9.6016,80.398 -8.3984,48 -55.199,100.8 -128.4,103.2 h -16.801 c -66,0 -157.2,-10.801 -174,-109.2 -13.199,-79.199 -8.3984,-278.4 -3.6016,-408 -7.1992,15.602 -21.602,30 -49.199,36 -4.8008,1.1992 -9.6016,1.1992 -14.398,1.1992 h -7.1992 c -8.3984,127.2 -19.199,382.8 33.602,460.8 62.398,91.199 169.2,97.199 194.4,97.199 h 6 c 0,0 9.6016,1.1992 24,1.1992 50.398,0 162,-16.801 189.6,-163.2 l 8.3984,-81.602 c 2.3984,-10.801 8.3984,-44.398 16.801,-50.398 18,-14.398 32.398,-10.801 39.602,-32.398 8.3984,-26.398 13.199,-33.602 3.6016,-56.398 -8.4062,6 -19.207,9.6016 -31.207,12 z"
       id="path858"
       style="fill:#ff0ec0;fill-opacity:1" /><path
       d="m 927.6,153.6 c -132,-84 -270,-93.602 -324,-93.602 -15.602,0 -24,1.1992 -24,1.1992 -91.199,12 -154.8,60 -196.8,106.8 36,20.398 70.801,54 99.602,93.602 3.6016,-4.8008 9.6016,-10.801 16.801,-16.801 3.6016,-3.6016 8.3984,-3.6016 12,0 3.6016,3.6016 3.6016,8.3984 0,12 -8.3984,8.3984 -14.398,15.602 -19.199,19.199 42,63.602 72,141.6 76.801,217.2 l 44.398,8.3984 c 9.6016,2.3984 20.398,4.8008 33.602,7.1992 76.801,18 264,44.398 345.6,55.199 v -3.6016 c 2.3984,-8.3984 4.8008,-19.199 6,-33.602 0,-4.8008 4.8008,-8.3984 9.6016,-7.1992 4.8008,0 8.3984,4.8008 7.1992,9.6016 -1.1992,14.398 -3.6016,26.398 -6,36 v 1.1992 c 14.398,2.3984 24,3.6016 24,3.6016 -0.01,0.004 43.191,-321.6 -105.61,-416.39 z m -354,46.797 c -8.3984,6 -18,14.398 -26.398,21.602 -1.1992,1.1992 -3.6016,2.3984 -6,2.3984 -2.3984,0 -4.8008,-1.1992 -7.1992,-3.6016 -3.6016,-3.6016 -2.3984,-9.6016 1.1992,-12 9.6016,-8.3984 19.199,-15.602 27.602,-22.801 3.6016,-2.3984 9.6016,-2.3984 12,1.1992 3.5938,4.8047 2.3945,10.805 -1.2031,13.203 z m 262.8,103.2 c 0,10.801 1.1992,22.801 1.1992,34.801 0,4.8008 -3.6016,8.3984 -8.3984,9.6016 -4.8008,0 -8.3984,-3.6016 -8.3984,-8.3984 0,-12 -1.1992,-24 -1.1992,-34.801 0,-4.8008 3.6016,-8.3984 8.3984,-9.6016 3.6016,-0.004 8.3984,3.5977 8.3984,8.3984 z m -192,-139.2 c -9.6016,2.3984 -19.199,6 -31.199,12 -1.1992,1.1992 -2.3984,1.1992 -3.6016,1.1992 -3.6016,0 -6,-1.1992 -8.3984,-4.8008 -2.3984,-4.8008 0,-9.6016 3.6016,-12 12,-6 24,-10.801 34.801,-13.199 4.8008,-1.1992 9.6016,2.3984 10.801,7.1992 1.1992,3.6016 -1.2031,8.4023 -6.0039,9.6016 z m 81.602,3.6016 c -13.199,-1.1992 -24,-2.3984 -36,-3.6016 -4.8008,0 -8.3984,-4.8008 -8.3984,-9.6016 0,-4.8008 4.8008,-8.3984 9.6016,-8.3984 12,1.1992 22.801,2.3984 34.801,3.6016 4.8008,1.1992 8.3984,4.8008 7.1992,9.6016 1.1953,6 -2.4023,8.3984 -7.2031,8.3984 z m 81.602,13.199 c -10.801,-2.3984 -22.801,-4.8008 -34.801,-6 -4.8008,-1.1992 -8.3984,-4.8008 -7.1992,-9.6016 1.1992,-4.8008 4.8008,-8.3984 9.6016,-7.1992 12,2.3984 24,3.6016 34.801,6 4.8008,1.1992 8.3984,6 7.1992,10.801 -1.1992,3.6016 -4.8008,7.1992 -8.3984,7.1992 -0.004,0 -0.004,0 -1.2031,-1.1992 z m 13.199,30 c 4.8008,0 9.6016,2.3984 9.6016,7.1992 0,0 1.1992,13.199 3.6016,34.801 0,4.8008 -3.6016,9.6016 -8.3984,9.6016 h -1.1992 c -4.8008,0 -8.3984,-3.6016 -8.3984,-8.3984 -1.1992,-21.602 -3.6016,-34.801 -3.6016,-34.801 -0.008,-3.6016 3.5938,-7.2031 8.3945,-8.4023 z m 9.5977,297.6 c -1.1992,4.8008 -4.8008,7.1992 -8.3984,7.1992 h -1.1992 c -4.8008,-1.1992 -8.3984,-4.8008 -7.1992,-9.6016 1.1992,-10.801 3.6016,-21.602 4.8008,-33.602 0,-4.8008 4.8008,-8.3984 9.6016,-8.3984 4.8008,0 8.3984,4.8008 8.3984,9.6016 -2.4023,12 -3.6016,24 -6.0039,34.801 z m 7.2031,-85.199 c 0,4.8008 -3.6016,8.3984 -8.3984,8.3984 -4.8008,0 -8.3984,-3.6016 -8.3984,-9.6016 v -34.801 c 0,-4.8008 3.6016,-8.3984 8.3984,-8.3984 4.8008,0 8.3984,3.6016 8.3984,8.3984 1.1992,13.203 1.1992,25.203 0,36.004 z m 61.199,-225.6 c -1.1992,3.6016 -4.8008,6 -8.3984,6 h -2.3984 c -9.6016,-3.6016 -21.602,-7.1992 -32.398,-9.6016 -4.8008,-1.1992 -7.1992,-6 -6,-10.801 1.1992,-4.8008 6,-7.1992 10.801,-6 12,3.6016 24,7.1992 33.602,10.801 4.793,0 7.1914,4.8008 4.793,9.6016 z m 70.801,43.199 c -1.1992,1.1992 -3.6016,2.3984 -6,2.3984 -2.3984,0 -4.8008,-1.1992 -7.1992,-3.6016 -2.3984,-3.6016 -6,-6 -8.3984,-8.3984 -4.8008,-3.6016 -10.801,-7.1992 -16.801,-10.801 -4.8008,-2.3984 -6,-7.1992 -3.6016,-12 2.3984,-4.8008 7.1992,-6 12,-3.6016 7.1992,3.6016 13.199,8.3984 19.199,12 3.6016,2.3984 8.3984,7.1992 12,10.801 2.3984,4.8047 2.3984,10.805 -1.1992,13.203 z m 18,73.199 c -2.3984,-12 -6,-22.801 -9.6016,-32.398 -1.1992,-4.8008 1.1992,-9.6016 4.8008,-10.801 4.8008,-1.1992 9.6016,1.1992 10.801,4.8008 3.6016,10.801 7.1992,21.602 9.6016,34.801 1.1992,4.8008 -2.3984,9.6016 -6,10.801 h -2.3984 c -2.4062,-1.2031 -6.0039,-3.6016 -7.2031,-7.2031 z m 8.3984,46.801 c -1.1992,-4.8008 2.3984,-9.6016 7.1992,-9.6016 4.8008,-1.1992 9.6016,2.3984 9.6016,7.1992 1.1992,10.801 2.3984,22.801 3.6016,34.801 0,4.8008 -3.6016,9.6016 -8.3984,9.6016 h -1.1992 c -4.8008,0 -8.3984,-3.6016 -8.3984,-8.3984 -0.008,-10.801 -1.207,-22.801 -2.4062,-33.602 z m 24,118.8 c 0,4.8008 -3.6016,8.3984 -8.3984,8.3984 -4.8008,0 -8.3984,-3.6016 -8.3984,-8.3984 v -16.801 -18 c 0,-4.8008 3.6016,-8.3984 8.3984,-8.3984 4.8008,0 8.3984,3.6016 8.3984,8.3984 v 18 z"
       id="path860"
       style="fill:#ff0ec0;fill-opacity:1" /></g></svg>
