<?xml version="1.0" encoding="UTF-8" standalone="no"?>
<svg
   width="512"
   height="512"
   viewBox="0 0 512 512"
   version="1.1"
   id="svg8"
   sodipodi:docname="leathers_body.svg"
   inkscape:version="1.2.2 (b0a8486541, 2022-12-01)"
   xml:space="preserve"
   xmlns:inkscape="http://www.inkscape.org/namespaces/inkscape"
   xmlns:sodipodi="http://sodipodi.sourceforge.net/DTD/sodipodi-0.dtd"
   xmlns="http://www.w3.org/2000/svg"
   xmlns:svg="http://www.w3.org/2000/svg"><defs
     id="defs12"><filter
       style="color-interpolation-filters:sRGB;"
       inkscape:label="Drop Shadow"
       id="filter875"
       x="-0.31291152"
       y="-0.16857506"
       width="1.6092078"
       height="1.3282203"><feFlood
         flood-opacity="1"
         flood-color="rgb(58,63,94)"
         result="flood"
         id="feFlood865" /><feComposite
         in="flood"
         in2="SourceGraphic"
         operator="out"
         result="composite1"
         id="feComposite867" /><feGaussianBlur
         in="composite1"
         stdDeviation="15"
         result="blur"
         id="feGaussianBlur869" /><feOffset
         dx="0"
         dy="0"
         result="offset"
         id="feOffset871" /><feComposite
         in="offset"
         in2="SourceGraphic"
         operator="atop"
         result="composite2"
         id="feComposite873" /></filter><filter
       style="color-interpolation-filters:sRGB;"
       inkscape:label="Drop Shadow"
       id="filter1015"
       x="-0.081997928"
       y="-0.044180702"
       width="1.1639959"
       height="1.0883614"><feFlood
         flood-opacity="1"
         flood-color="rgb(58,63,94)"
         result="flood"
         id="feFlood1005" /><feComposite
         in="flood"
         in2="SourceGraphic"
         operator="out"
         result="composite1"
         id="feComposite1007" /><feGaussianBlur
         in="composite1"
         stdDeviation="8.30229"
         result="blur"
         id="feGaussianBlur1009" /><feOffset
         dx="0"
         dy="0"
         result="offset"
         id="feOffset1011" /><feComposite
         in="offset"
         in2="SourceGraphic"
         operator="atop"
         result="composite2"
         id="feComposite1013" /></filter><filter
       style="color-interpolation-filters:sRGB;"
       inkscape:label="Drop Shadow"
       id="filter35638"
       x="-0.057142887"
       y="-0.13067032"
       width="1.1142858"
       height="1.2613406"><feFlood
         flood-opacity="1"
         flood-color="rgb(58,63,94)"
         result="flood"
         id="feFlood35628" /><feComposite
         in="flood"
         in2="SourceGraphic"
         operator="out"
         result="composite1"
         id="feComposite35630" /><feGaussianBlur
         in="composite1"
         stdDeviation="6"
         result="blur"
         id="feGaussianBlur35632" /><feOffset
         dx="0"
         dy="0"
         result="offset"
         id="feOffset35634" /><feComposite
         in="offset"
         in2="SourceGraphic"
         operator="atop"
         result="composite2"
         id="feComposite35636" /></filter><filter
       style="color-interpolation-filters:sRGB;"
       inkscape:label="Drop Shadow"
       id="filter35813"
       x="-0.053321701"
       y="-0.069584126"
       width="1.1066434"
       height="1.1391683"><feFlood
         flood-opacity="1"
         flood-color="rgb(58,63,94)"
         result="flood"
         id="feFlood35803" /><feComposite
         in="flood"
         in2="SourceGraphic"
         operator="out"
         result="composite1"
         id="feComposite35805" /><feGaussianBlur
         in="composite1"
         stdDeviation="8"
         result="blur"
         id="feGaussianBlur35807" /><feOffset
         dx="0"
         dy="0"
         result="offset"
         id="feOffset35809" /><feComposite
         in="offset"
         in2="SourceGraphic"
         operator="atop"
         result="composite2"
         id="feComposite35811" /></filter><filter
       style="color-interpolation-filters:sRGB;"
       inkscape:label="Drop Shadow"
       id="filter36051"
       x="-0.028125"
       y="-0.038976963"
       width="1.05625"
       height="1.0779539"><feFlood
         flood-opacity="1"
         flood-color="rgb(58,63,94)"
         result="flood"
         id="feFlood36041" /><feComposite
         in="flood"
         in2="SourceGraphic"
         operator="out"
         result="composite1"
         id="feComposite36043" /><feGaussianBlur
         in="composite1"
         stdDeviation="6"
         result="blur"
         id="feGaussianBlur36045" /><feOffset
         dx="0"
         dy="0"
         result="offset"
         id="feOffset36047" /><feComposite
         in="offset"
         in2="SourceGraphic"
         operator="atop"
         result="composite2"
         id="feComposite36049" /></filter><filter
       style="color-interpolation-filters:sRGB;"
       inkscape:label="Drop Shadow"
       id="filter36337"
       x="-0.031246302"
       y="-0.031246303"
       width="1.0624926"
       height="1.0624926"><feFlood
         flood-opacity="1"
         flood-color="rgb(58,63,94)"
         result="flood"
         id="feFlood36327" /><feComposite
         in="flood"
         in2="SourceGraphic"
         operator="out"
         result="composite1"
         id="feComposite36329" /><feGaussianBlur
         in="composite1"
         stdDeviation="6"
         result="blur"
         id="feGaussianBlur36331" /><feOffset
         dx="0"
         dy="0"
         result="offset"
         id="feOffset36333" /><feComposite
         in="offset"
         in2="SourceGraphic"
         operator="atop"
         result="composite2"
         id="feComposite36335" /></filter><filter
       style="color-interpolation-filters:sRGB;"
       inkscape:label="Drop Shadow"
       id="filter1651"
       x="-0.065343256"
       y="-0.053154622"
       width="1.1306865"
       height="1.1063092"><feFlood
         flood-opacity="1"
         flood-color="rgb(58,63,94)"
         result="flood"
         id="feFlood1641" /><feComposite
         in="flood"
         in2="SourceGraphic"
         operator="out"
         result="composite1"
         id="feComposite1643" /><feGaussianBlur
         in="composite1"
         stdDeviation="23.9195"
         result="blur"
         id="feGaussianBlur1645" /><feOffset
         dx="0"
         dy="0"
         result="offset"
         id="feOffset1647" /><feComposite
         in="offset"
         in2="SourceGraphic"
         operator="atop"
         result="composite2"
         id="feComposite1649" /></filter><filter
       style="color-interpolation-filters:sRGB;"
       inkscape:label="Drop Shadow"
       id="filter2460"
       x="-0.055034241"
       y="-0.04783849"
       width="1.1100685"
       height="1.095677"><feFlood
         flood-opacity="1"
         flood-color="rgb(58,63,94)"
         result="flood"
         id="feFlood2450" /><feComposite
         in="flood"
         in2="SourceGraphic"
         operator="out"
         result="composite1"
         id="feComposite2452" /><feGaussianBlur
         in="composite1"
         stdDeviation="23.9195"
         result="blur"
         id="feGaussianBlur2454" /><feOffset
         dx="0"
         dy="0"
         result="offset"
         id="feOffset2456" /><feComposite
         in="offset"
         in2="SourceGraphic"
         operator="atop"
         result="composite2"
         id="feComposite2458" /></filter></defs><sodipodi:namedview
     id="namedview10"
     pagecolor="#505050"
     bordercolor="#eeeeee"
     borderopacity="1"
     inkscape:pageshadow="0"
     inkscape:pageopacity="0"
     inkscape:pagecheckerboard="0"
     showgrid="false"
     inkscape:zoom="0.43896485"
     inkscape:cx="369.05005"
     inkscape:cy="503.45717"
     inkscape:window-width="1716"
     inkscape:window-height="1386"
     inkscape:window-x="1440"
     inkscape:window-y="702"
     inkscape:window-maximized="1"
     inkscape:current-layer="svg8"
     inkscape:showpageshadow="2"
     inkscape:deskcolor="#505050"
     showguides="true" /><path
     d="M0 0h512v512H0z"
     fill="#b90202"
     fill-opacity="1"
     id="path2"
     style="fill:#1b1f21;fill-opacity:0" /><style
     type="text/css"
     id="style35976">
	.st0{fill:#000000;}
</style><g
     id="g1885"
     transform="matrix(0.36457218,0,0,0.36457218,37.251847,37.254687)"
     style="fill:#ff0ec0;fill-opacity:1;filter:url(#filter2460)"><path
       d="m 600,745.01 c -6.1406,0 -12.281,-0.98437 -18.117,-2.9531 -87.176,-29.285 -153.92,-79.402 -198.37,-121.4 v 149.61 c 42.312,42.738 111.39,98.945 204.64,130.28 7.6367,2.5664 16.051,2.5664 23.695,0 93.246,-31.336 162.33,-87.555 204.64,-130.29 v -149.59 c -44.449,42 -111.21,92.117 -198.38,121.4 -5.832,1.9648 -11.973,2.9492 -18.113,2.9492 z"
       id="path1863"
       style="fill:#ff0ec0;fill-opacity:1" /><path
       d="m 111.47,17.918 c 19.965,60.254 79.777,262.58 11.582,336.41 -3.375,3.6641 -5.2344,8.3281 -5.2344,13.148 v 165.82 l 120.05,6.0039 c 20.969,1.043 37.395,18.312 37.395,39.312 v 52.086 c 0,20.988 -16.422,38.258 -37.395,39.312 l -120.05,5.9922 v 64.414 c 21.895,8.1875 92.371,37.441 135.48,89.184 3.4844,4.1719 2.9141,10.383 -1.2578,13.855 -1.8398,1.5352 -4.0742,2.2812 -6.2969,2.2812 -2.8242,0 -5.6172,-1.2109 -7.5664,-3.543 -35.895,-43.07 -94.555,-70.16 -120.36,-80.602 v 58.066 c 16.738,7.7148 64.473,31.785 96.062,68.902 3.5234,4.1328 3.0195,10.352 -1.1211,13.875 -1.8516,1.5742 -4.1133,2.3438 -6.3672,2.3438 -2.7852,0 -5.5508,-1.1797 -7.5,-3.4648 -24.668,-28.977 -61.402,-49.879 -81.074,-59.758 v 227.8 c 7.5586,11.582 59.004,79.207 246.01,112.34 l -0.004,-1101.7 c -35.031,-36.359 -56.355,-67.684 -64.195,-79.992 z"
       id="path1865"
       style="fill:#ff0ec0;fill-opacity:1" /><path
       d="m 600,548.2 c -6.1406,0 -12.281,-0.98438 -18.117,-2.9531 -87.176,-29.285 -153.92,-79.402 -198.37,-121.4 v 169.29 c 42.312,42.738 111.39,98.945 204.64,130.28 7.6367,2.5664 16.051,2.5664 23.695,0 93.246,-31.332 162.33,-87.551 204.64,-130.29 v -169.27 c -44.449,42 -111.21,92.117 -198.38,121.4 -5.832,1.9648 -11.973,2.9492 -18.113,2.9492 z"
       id="path1867"
       style="fill:#ff0ec0;fill-opacity:1" /><path
       d="m 600,371.07 c -6.1406,0 -12.281,-0.98438 -18.117,-2.9531 -87.176,-29.285 -153.92,-79.402 -198.37,-121.4 v 149.61 c 42.312,42.738 111.39,98.945 204.64,130.28 7.6367,2.5664 16.051,2.5664 23.695,0 93.246,-31.332 162.33,-87.551 204.64,-130.29 v -149.59 c -44.449,42 -111.21,92.117 -198.38,121.4 -5.832,1.9688 -11.973,2.9531 -18.113,2.9531 z"
       id="path1869"
       style="fill:#ff0ec0;fill-opacity:1" /><path
       d="m 600,922.14 c -6.1406,0 -12.281,-0.98438 -18.117,-2.9531 -87.176,-29.285 -153.92,-79.402 -198.37,-121.4 v 179.12 c 42.312,42.738 111.39,98.945 204.64,130.28 7.6367,2.5664 16.051,2.5664 23.695,0 93.246,-31.332 162.33,-87.547 204.64,-130.29 v -179.12 c -44.449,42 -111.21,92.117 -198.38,121.4 -5.832,1.9688 -11.973,2.9531 -18.113,2.9531 z"
       id="path1871"
       style="fill:#ff0ec0;fill-opacity:1" /><path
       d="m 600,1128.8 c -6.1406,0 -12.281,-0.9844 -18.117,-2.9531 -87.176,-29.285 -153.92,-79.402 -198.37,-121.4 v 180.51 c 58.895,9.1992 130.16,15.055 216.49,15.055 86.33,0 157.59,-5.8555 216.49,-15.055 v -180.51 c -44.449,42 -111.21,92.117 -198.38,121.4 -5.832,1.9688 -11.973,2.9531 -18.113,2.9531 z"
       id="path1873"
       style="fill:#ff0ec0;fill-opacity:1" /><path
       d="m 1118.5,554.25 c -1.9766,-1.8789 -4.4883,-2.8242 -7.2812,-2.6953 l -148.09,7.4023 c -10.48,0.53125 -18.695,9.1602 -18.695,19.66 v 52.086 c 0,10.488 8.207,19.129 18.695,19.66 l 148.1,7.3984 c 2.7734,0.0391 5.3047,-0.82812 7.2812,-2.6953 1.9688,-1.8711 3.0586,-4.4102 3.0586,-7.1328 v -86.547 c -0.01,-2.7344 -1.0898,-5.2656 -3.0703,-7.1367 z m -115.02,78.488 c 0,5.4336 -4.4102,9.8398 -9.8398,9.8398 -5.4336,0 -9.8398,-4.4102 -9.8398,-9.8398 v -56.582 c 0,-5.4336 4.4102,-9.8398 9.8398,-9.8398 5.4336,0 9.8398,4.4102 9.8398,9.8398 z m 39.363,0 c 0,5.4336 -4.4102,9.8398 -9.8398,9.8398 -5.4336,0 -9.8398,-4.4102 -9.8398,-9.8398 v -56.582 c 0,-5.4336 4.4102,-9.8398 9.8398,-9.8398 5.4336,0 9.8398,4.4102 9.8398,9.8398 z m 39.359,3.2773 c 0,5.4336 -4.4102,9.8398 -9.8398,9.8398 -5.4336,0 -9.8398,-4.4102 -9.8398,-9.8398 v -61.914 c 0,-5.4336 4.4102,-9.8398 9.8398,-9.8398 5.4336,0 9.8398,4.4102 9.8398,9.8398 z"
       id="path1875"
       style="fill:#ff0ec0;fill-opacity:1" /><path
       d="m 600,223.46 c -6.1406,0 -12.27,-0.98438 -18.117,-2.9414 -85.551,-28.742 -151.47,-76.676 -198.38,-121.04 v 119.71 c 42.312,42.738 111.39,98.945 204.64,130.28 7.6367,2.5664 16.051,2.5664 23.695,0 93.25,-31.328 162.33,-87.547 204.64,-130.29 v -119.71 c -46.898,44.359 -112.82,92.293 -198.38,121.04 -5.832,1.9648 -11.973,2.9492 -18.113,2.9492 z"
       id="path1877"
       style="fill:#ff0ec0;fill-opacity:1" /><path
       d="m 236.89,650.35 c 10.488,-0.53125 18.695,-9.1602 18.695,-19.66 v -52.086 c 0,-10.488 -8.207,-19.129 -18.695,-19.66 l -148.1,-7.3984 c -0.17578,0 -0.34375,-0.0117 -0.51172,-0.0117 -2.5273,0 -4.9219,0.95312 -6.7695,2.707 -1.9688,1.8789 -3.0508,4.4102 -3.0508,7.1328 v 86.547 c 0,2.7266 1.082,5.2539 3.0586,7.1328 1.9766,1.8789 4.5078,2.7656 7.2812,2.6953 z m -99.387,-14.336 c 0,5.4336 -4.4102,9.8398 -9.8398,9.8398 -5.4336,0 -9.8398,-4.4102 -9.8398,-9.8398 V 574.1 c 0,-5.4336 4.4102,-9.8398 9.8398,-9.8398 5.4336,0 9.8398,4.4102 9.8398,9.8398 z m 39.363,-3.2773 c 0,5.4336 -4.4102,9.8398 -9.8398,9.8398 -5.4336,0 -9.8398,-4.4102 -9.8398,-9.8398 v -56.582 c 0,-5.4336 4.4102,-9.8398 9.8398,-9.8398 5.4336,0 9.8398,4.4102 9.8398,9.8398 z m 39.359,0 c 0,5.4336 -4.4102,9.8398 -9.8398,9.8398 -5.4336,0 -9.8398,-4.4102 -9.8398,-9.8398 v -56.582 c 0,-5.4336 4.4102,-9.8398 9.8398,-9.8398 5.4336,0 9.8398,4.4102 9.8398,9.8398 z"
       id="path1879"
       style="fill:#ff0ec0;fill-opacity:1" /><path
       d="m 588.15,201.87 c 7.6367,2.5664 16.059,2.5664 23.695,0 109.06,-36.648 186.02,-107.25 230.27,-158.05 -48.316,29.098 -127.03,61.16 -241.88,63.883 -115.07,-2.7266 -193.89,-34.766 -242.27,-63.863 44.293,50.816 121.29,121.44 230.19,158.03 z"
       id="path1881"
       style="fill:#ff0ec0;fill-opacity:1" /><path
       d="m 962.13,670 c -20.969,-1.043 -37.395,-18.312 -37.395,-39.312 v -52.086 c 0,-20.988 16.422,-38.258 37.395,-39.312 l 120.05,-6.0039 v -165.81 c 0,-4.8203 -1.8594,-9.4844 -5.2344,-13.137 -68.203,-73.832 -8.3828,-276.16 11.574,-336.41 L 900.36569,-9e-4 c -7.8398,12.309 -29.164,43.633 -64.195,79.992 v 1101.7 c 186.76001,-33.094 238.34001,-100.59 246.01001,-112.35 v -227.8 c -19.672,9.8789 -56.406,30.781 -81.066,59.762 -1.94921,2.2812 -4.71481,3.4648 -7.50001,3.4648 -2.2539,0 -4.5156,-0.76562 -6.3672,-2.3438 -4.1445,-3.5234 -4.6445,-9.7305 -1.1211,-13.875 31.58601,-37.117 79.31201,-61.188 96.06201,-68.902 v -58.066 c -25.812,10.441 -84.46901,37.531 -120.37001,80.602 -1.9492,2.332 -4.7422,3.543 -7.5664,3.543 -2.2227,0 -4.457,-0.74609 -6.2969,-2.2812 -4.1719,-3.4844 -4.7344,-9.6836 -1.2578,-13.855 43.109,-51.73 113.59001,-80.988 135.48001,-89.184 v -64.414 z"
       id="path1883"
       style="fill:#ff0ec0;fill-opacity:1" /></g></svg>
