<?xml version="1.0" encoding="UTF-8" standalone="no"?>
<svg
   width="512"
   height="512"
   viewBox="0 0 512 512"
   version="1.1"
   id="svg8"
   sodipodi:docname="medium-armorjack_body.svg"
   inkscape:version="1.2.2 (b0a8486541, 2022-12-01)"
   xml:space="preserve"
   xmlns:inkscape="http://www.inkscape.org/namespaces/inkscape"
   xmlns:sodipodi="http://sodipodi.sourceforge.net/DTD/sodipodi-0.dtd"
   xmlns="http://www.w3.org/2000/svg"
   xmlns:svg="http://www.w3.org/2000/svg"><defs
     id="defs12"><filter
       style="color-interpolation-filters:sRGB;"
       inkscape:label="Drop Shadow"
       id="filter875"
       x="-0.31291152"
       y="-0.16857506"
       width="1.6092078"
       height="1.3282203"><feFlood
         flood-opacity="1"
         flood-color="rgb(58,63,94)"
         result="flood"
         id="feFlood865" /><feComposite
         in="flood"
         in2="SourceGraphic"
         operator="out"
         result="composite1"
         id="feComposite867" /><feGaussianBlur
         in="composite1"
         stdDeviation="15"
         result="blur"
         id="feGaussianBlur869" /><feOffset
         dx="0"
         dy="0"
         result="offset"
         id="feOffset871" /><feComposite
         in="offset"
         in2="SourceGraphic"
         operator="atop"
         result="composite2"
         id="feComposite873" /></filter><filter
       style="color-interpolation-filters:sRGB;"
       inkscape:label="Drop Shadow"
       id="filter1015"
       x="-0.081997928"
       y="-0.044180702"
       width="1.1639959"
       height="1.0883614"><feFlood
         flood-opacity="1"
         flood-color="rgb(58,63,94)"
         result="flood"
         id="feFlood1005" /><feComposite
         in="flood"
         in2="SourceGraphic"
         operator="out"
         result="composite1"
         id="feComposite1007" /><feGaussianBlur
         in="composite1"
         stdDeviation="8.30229"
         result="blur"
         id="feGaussianBlur1009" /><feOffset
         dx="0"
         dy="0"
         result="offset"
         id="feOffset1011" /><feComposite
         in="offset"
         in2="SourceGraphic"
         operator="atop"
         result="composite2"
         id="feComposite1013" /></filter><filter
       style="color-interpolation-filters:sRGB;"
       inkscape:label="Drop Shadow"
       id="filter35638"
       x="-0.057142887"
       y="-0.13067032"
       width="1.1142858"
       height="1.2613406"><feFlood
         flood-opacity="1"
         flood-color="rgb(58,63,94)"
         result="flood"
         id="feFlood35628" /><feComposite
         in="flood"
         in2="SourceGraphic"
         operator="out"
         result="composite1"
         id="feComposite35630" /><feGaussianBlur
         in="composite1"
         stdDeviation="6"
         result="blur"
         id="feGaussianBlur35632" /><feOffset
         dx="0"
         dy="0"
         result="offset"
         id="feOffset35634" /><feComposite
         in="offset"
         in2="SourceGraphic"
         operator="atop"
         result="composite2"
         id="feComposite35636" /></filter><filter
       style="color-interpolation-filters:sRGB;"
       inkscape:label="Drop Shadow"
       id="filter35813"
       x="-0.053321701"
       y="-0.069584126"
       width="1.1066434"
       height="1.1391683"><feFlood
         flood-opacity="1"
         flood-color="rgb(58,63,94)"
         result="flood"
         id="feFlood35803" /><feComposite
         in="flood"
         in2="SourceGraphic"
         operator="out"
         result="composite1"
         id="feComposite35805" /><feGaussianBlur
         in="composite1"
         stdDeviation="8"
         result="blur"
         id="feGaussianBlur35807" /><feOffset
         dx="0"
         dy="0"
         result="offset"
         id="feOffset35809" /><feComposite
         in="offset"
         in2="SourceGraphic"
         operator="atop"
         result="composite2"
         id="feComposite35811" /></filter><filter
       style="color-interpolation-filters:sRGB;"
       inkscape:label="Drop Shadow"
       id="filter36051"
       x="-0.028125"
       y="-0.038976963"
       width="1.05625"
       height="1.0779539"><feFlood
         flood-opacity="1"
         flood-color="rgb(58,63,94)"
         result="flood"
         id="feFlood36041" /><feComposite
         in="flood"
         in2="SourceGraphic"
         operator="out"
         result="composite1"
         id="feComposite36043" /><feGaussianBlur
         in="composite1"
         stdDeviation="6"
         result="blur"
         id="feGaussianBlur36045" /><feOffset
         dx="0"
         dy="0"
         result="offset"
         id="feOffset36047" /><feComposite
         in="offset"
         in2="SourceGraphic"
         operator="atop"
         result="composite2"
         id="feComposite36049" /></filter><filter
       style="color-interpolation-filters:sRGB;"
       inkscape:label="Drop Shadow"
       id="filter36337"
       x="-0.031246302"
       y="-0.031246303"
       width="1.0624926"
       height="1.0624926"><feFlood
         flood-opacity="1"
         flood-color="rgb(58,63,94)"
         result="flood"
         id="feFlood36327" /><feComposite
         in="flood"
         in2="SourceGraphic"
         operator="out"
         result="composite1"
         id="feComposite36329" /><feGaussianBlur
         in="composite1"
         stdDeviation="6"
         result="blur"
         id="feGaussianBlur36331" /><feOffset
         dx="0"
         dy="0"
         result="offset"
         id="feOffset36333" /><feComposite
         in="offset"
         in2="SourceGraphic"
         operator="atop"
         result="composite2"
         id="feComposite36335" /></filter><filter
       style="color-interpolation-filters:sRGB;"
       inkscape:label="Drop Shadow"
       id="filter1651"
       x="-0.065343256"
       y="-0.053154622"
       width="1.1306865"
       height="1.1063092"><feFlood
         flood-opacity="1"
         flood-color="rgb(58,63,94)"
         result="flood"
         id="feFlood1641" /><feComposite
         in="flood"
         in2="SourceGraphic"
         operator="out"
         result="composite1"
         id="feComposite1643" /><feGaussianBlur
         in="composite1"
         stdDeviation="23.9195"
         result="blur"
         id="feGaussianBlur1645" /><feOffset
         dx="0"
         dy="0"
         result="offset"
         id="feOffset1647" /><feComposite
         in="offset"
         in2="SourceGraphic"
         operator="atop"
         result="composite2"
         id="feComposite1649" /></filter><filter
       style="color-interpolation-filters:sRGB;"
       inkscape:label="Drop Shadow"
       id="filter2460"
       x="-0.055034241"
       y="-0.04783849"
       width="1.1100685"
       height="1.095677"><feFlood
         flood-opacity="1"
         flood-color="rgb(58,63,94)"
         result="flood"
         id="feFlood2450" /><feComposite
         in="flood"
         in2="SourceGraphic"
         operator="out"
         result="composite1"
         id="feComposite2452" /><feGaussianBlur
         in="composite1"
         stdDeviation="23.9195"
         result="blur"
         id="feGaussianBlur2454" /><feOffset
         dx="0"
         dy="0"
         result="offset"
         id="feOffset2456" /><feComposite
         in="offset"
         in2="SourceGraphic"
         operator="atop"
         result="composite2"
         id="feComposite2458" /></filter><filter
       style="color-interpolation-filters:sRGB;"
       inkscape:label="Drop Shadow"
       id="filter3393"
       x="-0.043597231"
       y="-0.047813213"
       width="1.0871945"
       height="1.0956264"><feFlood
         flood-opacity="1"
         flood-color="rgb(58,63,94)"
         result="flood"
         id="feFlood3383" /><feComposite
         in="flood"
         in2="SourceGraphic"
         operator="out"
         result="composite1"
         id="feComposite3385" /><feGaussianBlur
         in="composite1"
         stdDeviation="20.3254"
         result="blur"
         id="feGaussianBlur3387" /><feOffset
         dx="0"
         dy="0"
         result="offset"
         id="feOffset3389" /><feComposite
         in="offset"
         in2="SourceGraphic"
         operator="atop"
         result="composite2"
         id="feComposite3391" /></filter><filter
       style="color-interpolation-filters:sRGB;"
       inkscape:label="Drop Shadow"
       id="filter4405"
       x="-0.046458051"
       y="-0.04645802"
       width="1.0929161"
       height="1.092916"><feFlood
         flood-opacity="1"
         flood-color="rgb(58,63,94)"
         result="flood"
         id="feFlood4395" /><feComposite
         in="flood"
         in2="SourceGraphic"
         operator="out"
         result="composite1"
         id="feComposite4397" /><feGaussianBlur
         in="composite1"
         stdDeviation="20.3254"
         result="blur"
         id="feGaussianBlur4399" /><feOffset
         dx="0"
         dy="0"
         result="offset"
         id="feOffset4401" /><feComposite
         in="offset"
         in2="SourceGraphic"
         operator="atop"
         result="composite2"
         id="feComposite4403" /></filter><filter
       style="color-interpolation-filters:sRGB;"
       inkscape:label="Drop Shadow"
       id="filter6546"
       x="-0.045088306"
       y="-0.041489669"
       width="1.0901766"
       height="1.0829793"><feFlood
         flood-opacity="1"
         flood-color="rgb(58,63,94)"
         result="flood"
         id="feFlood6536" /><feComposite
         in="flood"
         in2="SourceGraphic"
         operator="out"
         result="composite1"
         id="feComposite6538" /><feGaussianBlur
         in="composite1"
         stdDeviation="18.8"
         result="blur"
         id="feGaussianBlur6540" /><feOffset
         dx="0"
         dy="0"
         result="offset"
         id="feOffset6542" /><feComposite
         in="offset"
         in2="SourceGraphic"
         operator="atop"
         result="composite2"
         id="feComposite6544" /></filter><filter
       style="color-interpolation-filters:sRGB;"
       inkscape:label="Drop Shadow"
       id="filter7837"
       x="-0.046995845"
       y="-0.052469336"
       width="1.0939917"
       height="1.1049387"><feFlood
         flood-opacity="1"
         flood-color="rgb(58,63,94)"
         result="flood"
         id="feFlood7827" /><feComposite
         in="flood"
         in2="SourceGraphic"
         operator="out"
         result="composite1"
         id="feComposite7829" /><feGaussianBlur
         in="composite1"
         stdDeviation="18.8"
         result="blur"
         id="feGaussianBlur7831" /><feOffset
         dx="0"
         dy="0"
         result="offset"
         id="feOffset7833" /><feComposite
         in="offset"
         in2="SourceGraphic"
         operator="atop"
         result="composite2"
         id="feComposite7835" /></filter><filter
       style="color-interpolation-filters:sRGB;"
       inkscape:label="Drop Shadow"
       id="filter9439"
       x="-0.088570994"
       y="-0.080923279"
       width="1.177142"
       height="1.1618466"><feFlood
         flood-opacity="1"
         flood-color="rgb(58,63,94)"
         result="flood"
         id="feFlood9429" /><feComposite
         in="flood"
         in2="SourceGraphic"
         operator="out"
         result="composite1"
         id="feComposite9431" /><feGaussianBlur
         in="composite1"
         stdDeviation="14.9"
         result="blur"
         id="feGaussianBlur9433" /><feOffset
         dx="0"
         dy="0"
         result="offset"
         id="feOffset9435" /><feComposite
         in="offset"
         in2="SourceGraphic"
         operator="atop"
         result="composite2"
         id="feComposite9437" /></filter><filter
       style="color-interpolation-filters:sRGB;"
       inkscape:label="Drop Shadow"
       id="filter10197"
       x="-0.042374364"
       y="-0.042372415"
       width="1.0847487"
       height="1.0847448"><feFlood
         flood-opacity="1"
         flood-color="rgb(58,63,94)"
         result="flood"
         id="feFlood10187" /><feComposite
         in="flood"
         in2="SourceGraphic"
         operator="out"
         result="composite1"
         id="feComposite10189" /><feGaussianBlur
         in="composite1"
         stdDeviation="19.2"
         result="blur"
         id="feGaussianBlur10191" /><feOffset
         dx="0"
         dy="0"
         result="offset"
         id="feOffset10193" /><feComposite
         in="offset"
         in2="SourceGraphic"
         operator="atop"
         result="composite2"
         id="feComposite10195" /></filter><filter
       style="color-interpolation-filters:sRGB;"
       inkscape:label="Drop Shadow"
       id="filter11402"
       x="-0.058514288"
       y="-0.043885716"
       width="1.1170286"
       height="1.0877714"><feFlood
         flood-opacity="1"
         flood-color="rgb(58,63,94)"
         result="flood"
         id="feFlood11392" /><feComposite
         in="flood"
         in2="SourceGraphic"
         operator="out"
         result="composite1"
         id="feComposite11394" /><feGaussianBlur
         in="composite1"
         stdDeviation="19.2"
         result="blur"
         id="feGaussianBlur11396" /><feOffset
         dx="0"
         dy="0"
         result="offset"
         id="feOffset11398" /><feComposite
         in="offset"
         in2="SourceGraphic"
         operator="atop"
         result="composite2"
         id="feComposite11400" /></filter><filter
       style="color-interpolation-filters:sRGB;"
       inkscape:label="Drop Shadow"
       id="filter12788"
       x="-0.043274955"
       y="-0.046104414"
       width="1.0865499"
       height="1.0922088"><feFlood
         flood-opacity="1"
         flood-color="rgb(58,63,94)"
         result="flood"
         id="feFlood12778" /><feComposite
         in="flood"
         in2="SourceGraphic"
         operator="out"
         result="composite1"
         id="feComposite12780" /><feGaussianBlur
         in="composite1"
         stdDeviation="19.2"
         result="blur"
         id="feGaussianBlur12782" /><feOffset
         dx="0"
         dy="0"
         result="offset"
         id="feOffset12784" /><feComposite
         in="offset"
         in2="SourceGraphic"
         operator="atop"
         result="composite2"
         id="feComposite12786" /></filter><filter
       style="color-interpolation-filters:sRGB;"
       inkscape:label="Drop Shadow"
       id="filter13592"
       x="-0.048666705"
       y="-0.04200891"
       width="1.0973334"
       height="1.0840178"><feFlood
         flood-opacity="1"
         flood-color="rgb(58,63,94)"
         result="flood"
         id="feFlood13582" /><feComposite
         in="flood"
         in2="SourceGraphic"
         operator="out"
         result="composite1"
         id="feComposite13584" /><feGaussianBlur
         in="composite1"
         stdDeviation="19.2"
         result="blur"
         id="feGaussianBlur13586" /><feOffset
         dx="0"
         dy="0"
         result="offset"
         id="feOffset13588" /><feComposite
         in="offset"
         in2="SourceGraphic"
         operator="atop"
         result="composite2"
         id="feComposite13590" /></filter></defs><sodipodi:namedview
     id="namedview10"
     pagecolor="#505050"
     bordercolor="#eeeeee"
     borderopacity="1"
     inkscape:pageshadow="0"
     inkscape:pageopacity="0"
     inkscape:pagecheckerboard="0"
     showgrid="false"
     inkscape:zoom="0.43896485"
     inkscape:cx="369.05005"
     inkscape:cy="503.45717"
     inkscape:window-width="1716"
     inkscape:window-height="1386"
     inkscape:window-x="1440"
     inkscape:window-y="702"
     inkscape:window-maximized="1"
     inkscape:current-layer="svg8"
     inkscape:showpageshadow="2"
     inkscape:deskcolor="#505050"
     showguides="true" /><path
     d="M0 0h512v512H0z"
     fill="#b90202"
     fill-opacity="1"
     id="path2"
     style="fill:#1b1f21;fill-opacity:0" /><style
     type="text/css"
     id="style35976">
	.st0{fill:#000000;}
</style><g
     id="g13007"
     transform="matrix(0.41681669,0,0,0.41681669,5.914571,5.902568)"
     style="fill:#ff0ec0;fill-opacity:1;filter:url(#filter13592)"><path
       d="m 482.18,890.62 h -12.992 0.004 c -19.055,0.11719 -37,-8.9414 -48.215,-24.348 l -13.16,-18.117 v 222.93 h 135.94 v -222.93 l -13.262,18.121 c -11.254,15.406 -29.23,24.465 -48.312,24.344 z"
       id="path12981"
       style="fill:#ff0ec0;fill-opacity:1" /><path
       d="m 730.81,890.62 h -12.992 0.004 c -19.082,0.12109 -37.059,-8.9375 -48.312,-24.344 l -13.262,-18.121 v 222.93 h 135.94 v -222.93 l -13.16,18.121 c -11.215,15.402 -29.16,24.461 -48.215,24.344 z"
       id="path12983"
       style="fill:#ff0ec0;fill-opacity:1" /><path
       d="m 717.82,867.19 h 12.992 -0.004 c 11.703,-0.0781 22.664,-5.7305 29.516,-15.219 L 781.48,822.659 H 667.15 l 21.156,29.312 c 6.8516,9.4883 17.812,15.141 29.516,15.219 z"
       id="path12985"
       style="fill:#ff0ec0;fill-opacity:1" /><path
       d="m 234.38,1048.7 c 0.11328,2.9336 -1.0234,5.7734 -3.1289,7.8164 -2.1055,2.0469 -4.9805,3.0977 -7.9062,2.8945 h -63.965 v 89.062 h 147.66 v -126.56 h -72.656 z"
       id="path12987"
       style="fill:#ff0ec0;fill-opacity:1" /><path
       d="M 851.95,684.38 H 348.04 c -9.043,0 -17.578,7.3594 -17.578,16.406 v 447.66 h 536.72 v -447.66 c 0,-9.0469 -6.1914,-16.406 -15.234,-16.406 z"
       id="path12989"
       sodipodi:nodetypes="cssccscc"
       style="fill:#ff0ec0;fill-opacity:1" /><path
       d="m 210.94,864.84 h -81.262 c -1.6211,0.0859 -2.9414,1.3359 -3.1133,2.9531 v 166.45 c 0,1.4922 1.6211,1.6953 3.1133,1.6953 h 81.262 z"
       id="path12991"
       style="fill:#ff0ec0;fill-opacity:1" /><path
       d="m 234.38,907.03 h 72.656 v 91.406 H 234.38 Z"
       id="path12993"
       style="fill:#ff0ec0;fill-opacity:1" /><path
       d="m 469.19,867.19 h 12.992 -0.004 c 11.703,-0.0781 22.664,-5.7305 29.516,-15.219 L 532.85,822.659 H 418.52 l 21.156,29.312 c 6.8516,9.4883 17.812,15.141 29.516,15.219 z"
       id="path12995"
       style="fill:#ff0ec0;fill-opacity:1" /><path
       d="m 389.06,489.84 h 419.53 c 9.0625,0 16.406,9.0625 16.406,16.406 v 67.969 c 0,9.0625 -7.3438,16.406 -16.406,16.406 H 389.06 c -9.0625,0 -16.406,-9.0625 -16.406,-16.406 v -67.969 c 0,-9.0625 7.3438,-16.406 16.406,-16.406 z"
       id="path12997"
       style="fill:#ff0ec0;fill-opacity:1" /><path
       d="m 890.62,907.03 h 75 v 91.406 h -75 z"
       id="path12999"
       style="fill:#ff0ec0;fill-opacity:1" /><path
       d="m 890.62,883.59 h 75 v -30.219 c -0.16016,-3.0625 0.91797,-6.0586 2.9961,-8.3125 2.0781,-2.25 4.9766,-3.5703 8.0391,-3.6562 h 63.965 v -251.47 c 0.09,-25.223 -9.8281,-49.449 -27.582,-67.363 -77.188,-77.809 -120.37,-183.05 -120.07,-292.65 v -161.95 c -0.004,-4.3516 -1.7344,-8.5195 -4.8125,-11.594 -3.0742,-3.0781 -7.2422,-4.8086 -11.594,-4.8125 h -100.26 c -4.4062,-0.01563 -8.6406,1.6914 -11.805,4.7578 -3.1602,3.0664 -5,7.2461 -5.1211,11.648 v 103.2 c 0,56.941 -30.375,109.55 -79.688,138.02 -49.313,28.47 -110.06,28.469 -159.38,0 -49.32,-28.469 -79.688,-81.082 -79.688,-138.02 v -103.2 c -0.12109,-4.4023 -1.9609,-8.582 -5.1211,-11.648 -3.1641,-3.0664 -7.3984,-4.7734 -11.805,-4.7578 h -100.26 c -4.3516,0.0039 -8.5195,1.7344 -11.594,4.8125 -3.0781,3.0742 -4.8086,7.2422 -4.8125,11.594 v 161.95 c 0.29297,109.6 -42.887,214.84 -120.07,292.65 -17.754,17.914 -27.672,42.141 -27.582,67.363 v 251.47 h 63.965 c 3.0625,0.0859 5.9609,1.4062 8.0391,3.6562 2.0781,2.2539 3.1562,5.25 2.9961,8.3125 v 30.219 h 72.656 V 700.78 c 0,-21.969 19.047,-39.844 41.016,-39.844 h 503.91 c 21.969,0 38.672,17.875 38.672,39.844 z M 239.06,807.559 c 0,6.4727 -5.2461,11.719 -11.719,11.719 -6.4729,0 -11.719,-5.2461 -11.719,-11.719 v -117.14 c 0,-6.4727 5.2461,-11.719 11.719,-11.719 6.4729,0 11.719,5.2461 11.719,11.719 z m 0,-171.65 c 0,6.4727 -5.2461,11.719 -11.719,11.719 -6.4729,0 -11.719,-5.2461 -11.719,-11.719 v -16.188 c 0,-6.4727 5.2461,-11.719 11.719,-11.719 6.4729,0 11.719,5.2461 11.719,11.719 z m 609.38,-61.691 c 0,10.566 -4.1992,20.703 -11.672,28.172 -7.4688,7.4727 -17.605,11.672 -28.172,11.672 h -419.53 c -10.566,0 -20.703,-4.1992 -28.172,-11.672 -7.4727,-7.4688 -11.672,-17.605 -11.672,-28.172 v -67.969 c 0,-10.566 4.1992,-20.703 11.672,-28.172 7.4688,-7.4727 17.605,-11.672 28.172,-11.672 h 419.53 c 10.566,0 20.703,4.1992 28.172,11.672 7.4727,7.4688 11.672,17.605 11.672,28.172 z"
       id="path13001"
       style="fill:#ff0ec0;fill-opacity:1" /><path
       d="m 1070.3,864.84 h -81.262 v 171.09 h 81.262 c 1.4922,0 3.1133,-0.2031 3.1133,-1.6953 v -166.45 c -0.1719,-1.6172 -1.4922,-2.8672 -3.1133,-2.9531 z"
       id="path13003"
       style="fill:#ff0ec0;fill-opacity:1" /><path
       d="m 965.62,1048.7 v -26.789 h -75 v 126.56 h 150 v -89.062 h -63.965 c -2.9258,0.2031 -5.8008,-0.8477 -7.9062,-2.8945 -2.1055,-2.043 -3.2422,-4.8828 -3.1289,-7.8164 z"
       id="path13005"
       style="fill:#ff0ec0;fill-opacity:1" /></g></svg>
