<svg xmlns="http://www.w3.org/2000/svg" viewBox="0 0 512 512" style="height: 512px; width: 512px;"><defs><filter id="shadow-1" height="300%" width="300%" x="-100%" y="-100%"><feFlood flood-color="rgba(58, 63, 94, 1)" result="flood"></feFlood><feComposite in="flood" in2="SourceGraphic" operator="out" result="composite"></feComposite><feGaussianBlur in="composite" stdDeviation="15" result="blur"></feGaussianBlur><feOffset dx="0" dy="0" result="offset"></feOffset><feComposite in2="SourceGraphic" in="offset" operator="atop"></feComposite></filter></defs><path d="M0 0h512v512H0z" fill="#1b1f21" fill-opacity="0"></path><g class="" transform="translate(0,0)" style=""><path d="M208.242 24.629l-52.058 95.205 95.207 52.059 17.271-31.586-42.424-23.198A143.26 143.26 0 0 1 256 114c78.638 0 142 63.362 142 142s-63.362 142-142 142-142-63.362-142-142c0-16.46 2.785-32.247 7.896-46.928l-32.32-16.16C82.106 212.535 78 233.798 78 256c0 98.093 79.907 178 178 178s178-79.907 178-178S354.093 78 256 78c-13.103 0-25.875 1.44-38.18 4.148l22.008-40.25-31.586-17.27zm104.27 130.379L247 253.275V368h18V258.725l62.488-93.733-14.976-9.984z" fill="#ff0ec0" fill-opacity="1" filter="url(#shadow-1)"></path></g></svg>