<?xml version="1.0" encoding="UTF-8" standalone="no"?>
<svg
   width="512" height="512"
   viewBox="0 0 512 512"
   version="1.1"
   id="svg6"
   sodipodi:docname="air_pistol.svg"
   inkscape:version="1.1.2 (0a00cf5339, 2022-02-04, custom)"
   xmlns:inkscape="http://www.inkscape.org/namespaces/inkscape"
   xmlns:sodipodi="http://sodipodi.sourceforge.net/DTD/sodipodi-0.dtd"
   xmlns="http://www.w3.org/2000/svg"
   xmlns:svg="http://www.w3.org/2000/svg">
  <defs
     id="defs10">
    <filter
       style="color-interpolation-filters:sRGB;"
       inkscape:label="Drop Shadow"
       id="filter2623"
       x="-0.15666143"
       y="-0.21157594"
       width="1.3133229"
       height="1.4231519">
      <feFlood
         flood-opacity="1"
         flood-color="rgb(58,63,94)"
         result="flood"
         id="feFlood2613" />
      <feComposite
         in="flood"
         in2="SourceGraphic"
         operator="out"
         result="composite1"
         id="feComposite2615" />
      <feGaussianBlur
         in="composite1"
         stdDeviation="15"
         result="blur"
         id="feGaussianBlur2617" />
      <feOffset
         dx="0"
         dy="0"
         result="offset"
         id="feOffset2619" />
      <feComposite
         in="offset"
         in2="SourceGraphic"
         operator="atop"
         result="composite2"
         id="feComposite2621" />
    </filter>
  </defs>
  <sodipodi:namedview
     id="namedview8"
     pagecolor="#ffffff"
     bordercolor="#666666"
     borderopacity="1.0"
     inkscape:pageshadow="2"
     inkscape:pageopacity="0.0"
     inkscape:pagecheckerboard="0"
     showgrid="false"
     inkscape:zoom="1.4142136"
     inkscape:cx="204.70741"
     inkscape:cy="272.58966"
     inkscape:window-width="1716"
     inkscape:window-height="1413"
     inkscape:window-x="3160"
     inkscape:window-y="673"
     inkscape:window-maximized="1"
     inkscape:current-layer="svg6" />
  <path
     d="M 0.00546802,0.00458761 H 512.00548 V 512.00459 H 0.00546802 Z"
     fill="#1b1f21"
     fill-opacity="0"
     id="path15" />
  <g
     class=""
     transform="matrix(1.2717217,0.00566746,-0.00566746,1.2717217,-89.562108,-1.740735)"
     id="g4"
     style="fill:#ff0ec0;fill-opacity:1;filter:url(#filter2623)">
    <path
       id="path2"
       style="fill:#ff0ec0;fill-opacity:1;stroke-width:1.2041"
       d="m 455.48548,94.563102 -42.09993,-6.29e-4 -0.001,21.432487 42.09992,6.3e-4 z m -48.74145,-5.134239 -250.68006,0.109344 67.32247,59.000183 183.35647,-0.10853 z m -46.8564,13.067427 c 1.60145,1.08204 2.65346,2.91643 2.65346,4.99458 0,3.32501 -2.69602,6.01671 -6.02106,6.01966 l -123.30882,0.10997 c -3.35321,0.0403 -6.0924,-2.66836 -6.09215,-6.02181 -1.7e-4,-3.34867 2.73174,-6.05347 6.08025,-6.01999 l 123.32211,-0.1089 c 1.24689,-9.1e-4 2.40532,0.37726 3.36621,1.02649 z m 47.45041,52.77306 -187.78266,0.54718 -89.40424,-78.26732 c -25.87938,28.85109 -19.66227,61.21324 -26.94894,104.75656 l 304.13498,-0.54603 z m -47.45175,-28.69046 c 1.60146,1.08204 2.65462,2.91498 2.65462,4.99312 0,3.32502 -2.69457,6.01786 -6.01961,6.02081 l -123.31028,0.10884 c -3.3532,0.0402 -6.09354,-2.66692 -6.09331,-6.02037 -1.6e-4,-3.34869 2.7329,-6.05493 6.08142,-6.02144 l 123.32211,-0.1089 c 1.24689,-9e-4 2.40417,0.37871 3.36505,1.02794 z m -14.84412,64.91761 -19.2667,3.2e-4 2.6e-4,22.68563 c -0.10434,8.06157 -6.62823,14.56365 -14.69011,14.64155 l -43.10699,-3.2e-4 10e-4,19.26527 43.10699,3.1e-4 c 18.69615,-0.092 33.83687,-15.21114 33.95535,-33.90713 z m -61.40994,8e-4 -13.2439,-5.8e-4 c 0,0 5.11671,16.48529 17.00115,24.98622 -7.29683,-14.37692 -3.75725,-24.98564 -3.75725,-24.98564 z m -34.91839,2.1e-4 -69.83826,-7.2e-4 -14.26801,4.1e-4 c 8.12767,10.83688 12.05412,27.27224 1.66275,48.56071 -9.63279,19.73515 -16.4983,98.33863 -16.4983,98.33863 l 29.10353,1.3e-4 69.83824,7.3e-4 z" />
  </g>
</svg>
