<?xml version="1.0" standalone="yes"?>
<svg xmlns="http://www.w3.org/2000/svg" width="240" height="240">
<path style="fill:#1b1f21; stroke:none;" d="M0 0L0 240L240 240L240 0L0 0z"/>
<path style="fill:#ff0ec0; stroke:none;" d="M84 36L84 40L92 40L92 44L108 44L108 40L100 40L100 36L84 36z"/>
<path style="fill:#3a3f5e; stroke:none;" d="M84 40L84 48L108 48L108 44L92 44L92 40L84 40z"/>
<path style="fill:#ff0ec0; stroke:none;" d="M108 48L108 52L80 52L80 56L76 56L76 60L72 60L72 68L76 68L76 76L60 76L60 80L196 80L196 60L192 60L192 56L188 56L188 52L156 52L156 48L108 48z"/>
<path style="fill:#1b1f21; stroke:none;" d="M80 56L80 60L100 60L100 56L80 56M112 56L112 60L108 60L108 64L104 64L104 68L100 68L100 76L188 76L188 72L192 72L192 60L188 60L188 56L112 56z"/>
<path style="fill:#3a3f5e; stroke:none;" d="M80 60L80 64L100 64L100 60L80 60z"/>
<path style="fill:#ff0ec0; stroke:none;" d="M56 64L56 68L64 68L64 64L56 64z"/>
<path style="fill:#3a3f5e; stroke:none;" d="M56 68L56 72L64 72L64 68L56 68M68 68L68 72L64 72L64 76L76 76L76 68L68 68z"/>
<path style="fill:#ff0ec0; stroke:none;" d="M200 68L200 84L212 84L212 72L208 72L208 68L200 68M216 68L216 84L220 84L220 68L216 68M228 68L228 84L232 84L232 68L228 68M8 80L8 88L24 88L24 92L8 92L8 96L40 96L40 80L8 80M44 80L44 100L52 100L52 80L44 80z"/>
<path style="fill:#3a3f5e; stroke:none;" d="M104 80L104 84L124 84L124 92L128 92L128 84L188 84L188 92L196 92L196 80L104 80z"/>
<path style="fill:#1b1f21; stroke:none;" d="M24 84L24 88L28 88L28 84L24 84z"/>
<path style="fill:#ff0ec0; stroke:none;" d="M56 84L56 92L104 92L104 84L56 84z"/>
<path style="fill:#1b1f21; stroke:none;" d="M104 84L104 92L108 92L108 84L104 84z"/>
<path style="fill:#ff0ec0; stroke:none;" d="M108 84L108 92L120 92L120 84L108 84z"/>
<path style="fill:#1b1f21; stroke:none;" d="M128 84L128 92L188 92L188 84L128 84z"/>
<path style="fill:#3a3f5e; stroke:none;" d="M200 84L200 108L208 108L208 104L212 104L212 84L200 84M216 84L216 108L220 108L220 92L228 92L228 108L232 108L232 84L216 84M104 92L104 96L120 96L120 92L104 92z"/>
<path style="fill:#ff0ec0; stroke:none;" d="M124 92L124 96L148 96L148 104L152 104L152 96L156 96L156 104L160 104L160 96L184 96L184 104L188 104L188 96L196 96L196 92L124 92z"/>
<path style="fill:#3a3f5e; stroke:none;" d="M24 96L24 100L8 100L8 104L40 104L40 96L24 96z"/>
<path style="fill:#ff0ec0; stroke:none;" d="M56 96L56 116L64 116L64 120L68 120L68 124L120 124L120 104L68 104L68 100L64 100L64 96L56 96z"/>
<path style="fill:#3a3f5e; stroke:none;" d="M64 96L64 100L68 100L68 104L116 104L116 100L72 100L72 96L64 96z"/>
<path style="fill:#ff0ec0; stroke:none;" d="M72 96L72 100L116 100L116 96L72 96z"/>
<path style="fill:#3a3f5e; stroke:none;" d="M124 96L124 104L148 104L148 96L124 96M152 96L152 104L156 104L156 96L152 96M160 96L160 104L184 104L184 96L160 96M188 96L188 104L196 104L196 96L188 96M44 100L44 104L52 104L52 100L44 100M8 108L8 112L40 112L40 108L8 108M76 108L76 116L84 116L84 108L76 108M124 108L124 120L136 120L136 108L132 108L132 116L128 116L128 108L124 108z"/>
<path style="fill:#ff0ec0; stroke:none;" d="M136 108L136 120L124 120L124 124L140 124L140 108L136 108z"/>
<path style="fill:#3a3f5e; stroke:none;" d="M144 108L144 124L140 124L140 128L136 128L136 132L144 132L144 128L148 128L148 116L180 116L180 112L184 112L184 108L144 108z"/>
<path style="fill:#1b1f21; stroke:none;" d="M112 112L112 116L116 116L116 112L112 112z"/>
<path style="fill:#3a3f5e; stroke:none;" d="M8 116L8 124L12 124L12 120L16 120L16 116L8 116z"/>
<path style="fill:#1b1f21; stroke:none;" d="M96 116L96 120L100 120L100 116L96 116z"/>
<path style="fill:#ff0ec0; stroke:none;" d="M148 116L148 128L144 128L144 132L136 132L136 144L156 144L156 140L176 140L176 116L148 116z"/>
<path style="fill:#3a3f5e; stroke:none;" d="M68 128L68 136L64 136L64 144L60 144L60 148L64 148L64 144L68 144L68 140L80 140L80 136L72 136L72 128L68 128z"/>
<path style="fill:#ff0ec0; stroke:none;" d="M72 128L72 136L80 136L80 140L68 140L68 144L64 144L64 148L68 148L68 152L76 152L76 156L80 156L80 160L84 160L84 152L96 152L96 132L92 132L92 128L72 128z"/>
<path style="fill:#3a3f5e; stroke:none;" d="M100 128L100 148L104 148L104 152L112 152L112 148L108 148L108 144L104 144L104 132L108 132L108 128L100 128M112 128L112 132L116 132L116 128L112 128M124 128L124 132L128 132L128 148L124 148L124 152L128 152L128 148L132 148L132 128L124 128z"/>
<path style="fill:#ff0ec0; stroke:none;" d="M112 132L112 140L116 140L116 132L112 132M116 140L116 144L120 144L120 140L116 140z"/>
<path style="fill:#3a3f5e; stroke:none;" d="M156 144L156 148L176 148L176 144L156 144z"/>
<path style="fill:#ff0ec0; stroke:none;" d="M100 148L100 152L104 152L104 148L100 148z"/>
<path style="fill:#3a3f5e; stroke:none;" d="M136 148L136 152L156 152L156 148L136 148M56 152L56 160L52 160L52 168L48 168L48 176L44 176L44 180L48 180L48 184L56 184L56 188L64 188L64 180L68 180L68 172L72 172L72 164L76 164L76 156L68 156L68 152L56 152z"/>
<path style="fill:#1b1f21; stroke:none;" d="M68 152L68 156L76 156L76 152L68 152z"/>
<path style="fill:#3a3f5e; stroke:none;" d="M84 152L84 160L80 160L80 168L76 168L76 176L72 176L72 188L68 188L68 196L64 196L64 200L72 200L72 204L76 204L76 192L80 192L80 180L84 180L84 164L88 164L88 160L92 160L92 152L84 152z"/>
<path style="fill:#1b1f21; stroke:none;" d="M76 156L76 164L72 164L72 172L68 172L68 180L64 180L64 188L56 188L56 184L48 184L48 188L56 188L56 192L64 192L64 188L68 188L68 180L72 180L72 172L76 172L76 164L80 164L80 156L76 156z"/>
<path style="fill:#ff0ec0; stroke:none;" d="M88 160L88 164L84 164L84 168L92 168L92 160L88 160M76 164L76 168L80 168L80 164L76 164M72 172L72 176L76 176L76 172L72 172M68 180L68 188L72 188L72 180L68 180M40 184L40 188L36 188L36 192L44 192L44 196L52 196L52 200L60 200L60 204L68 204L68 208L76 208L76 204L72 204L72 200L64 200L64 196L68 196L68 188L64 188L64 192L56 192L56 188L48 188L48 184L40 184z"/>
<path style="fill:#ffffff; stroke:none;" d="M196 184L196 196L184 196L184 208L196 208L196 220L208 220L208 208L220 208L220 196L208 196L208 184L196 184z"/>
</svg>
