<?xml version="1.0" standalone="yes"?>
<svg xmlns="http://www.w3.org/2000/svg" width="240" height="240">
<path style="fill:#1b1f21; stroke:none;" d="M0 0L0 240L240 240L240 0L0 0z"/>
<path style="fill:#ff0ec0; stroke:none;" d="M164 32L164 36L160 36L160 40L156 40L156 44L152 44L152 48L148 48L148 52L144 52L144 56L140 56L140 60L136 60L136 64L132 64L132 68L128 68L128 72L124 72L124 80L120 80L120 84L116 84L116 88L112 88L112 92L108 92L108 96L104 96L104 100L100 100L100 104L96 104L96 112L92 112L92 116L88 116L88 120L84 120L84 124L80 124L80 128L76 128L76 132L72 132L72 136L68 136L68 144L64 144L64 148L60 148L60 152L56 152L56 156L60 156L60 164L56 164L56 160L48 160L48 164L44 164L44 168L48 168L48 176L44 176L44 172L40 172L40 176L36 176L36 184L28 184L28 188L24 188L24 192L28 192L28 196L36 196L36 200L44 200L44 192L48 192L48 176L52 176L52 184L60 184L60 164L64 164L64 168L72 168L72 164L76 164L76 160L84 160L84 156L88 156L88 152L92 152L92 148L96 148L96 144L100 144L100 148L104 148L104 136L108 136L108 132L116 132L116 128L120 128L120 124L124 124L124 120L128 120L128 116L132 116L132 112L136 112L136 108L140 108L140 104L148 104L148 100L152 100L152 96L156 96L156 108L160 108L160 88L164 88L164 84L168 84L168 80L172 80L172 88L176 88L176 72L180 72L180 68L184 68L184 64L188 64L188 48L184 48L184 40L180 40L180 36L176 36L176 32L164 32z"/>
<path style="fill:#3a3f5e; stroke:none;" d="M176 32L176 36L180 36L180 40L184 40L184 48L188 48L188 64L184 64L184 68L180 68L180 72L176 72L176 88L172 88L172 80L168 80L168 84L164 84L164 88L160 88L160 108L156 108L156 96L152 96L152 100L148 100L148 104L140 104L140 108L136 108L136 112L132 112L132 116L128 116L128 120L124 120L124 124L120 124L120 128L116 128L116 132L108 132L108 136L104 136L104 148L100 148L100 144L96 144L96 148L92 148L92 152L88 152L88 156L84 156L84 160L76 160L76 164L72 164L72 168L64 168L64 164L60 164L60 184L52 184L52 176L48 176L48 192L44 192L44 200L36 200L36 196L28 196L28 192L20 192L20 196L24 196L24 200L32 200L32 204L36 204L36 208L32 208L32 212L24 212L24 208L20 208L20 204L16 204L16 208L20 208L20 212L24 212L24 220L16 220L16 216L8 216L8 220L12 220L12 224L16 224L16 228L12 228L12 232L24 232L24 228L28 228L28 224L32 224L32 220L36 220L36 216L44 216L44 212L48 212L48 208L52 208L52 204L56 204L56 200L60 200L60 196L68 196L68 192L72 192L72 188L76 188L76 184L80 184L80 180L84 180L84 176L88 176L88 172L92 172L92 168L100 168L100 164L104 164L104 160L108 160L108 156L112 156L112 148L120 148L120 144L124 144L124 140L132 140L132 136L136 136L136 132L140 132L140 128L144 128L144 124L148 124L148 120L152 120L152 116L156 116L156 112L164 112L164 108L168 108L168 104L172 104L172 100L176 100L176 96L180 96L180 92L184 92L184 88L188 88L188 84L192 84L192 80L196 80L196 76L200 76L200 72L204 72L204 52L200 52L200 48L196 48L196 44L192 44L192 40L188 40L188 36L184 36L184 32L176 32M164 52L164 68L160 68L160 72L152 72L152 76L160 76L160 72L164 72L164 68L168 68L168 52L164 52z"/>
<path style="fill:#ff0ec0; stroke:none;" d="M192 52L192 56L196 56L196 68L192 68L192 72L188 72L188 76L184 76L184 80L188 80L188 76L192 76L192 72L196 72L196 68L200 68L200 56L196 56L196 52L192 52z"/>
<path style="fill:#3a3f5e; stroke:none;" d="M140 72L140 88L136 88L136 92L128 92L128 84L124 84L124 92L128 92L128 96L124 96L124 100L128 100L128 96L136 96L136 92L140 92L140 88L144 88L144 72L140 72M156 80L156 84L148 84L148 88L156 88L156 84L160 84L160 80L156 80z"/>
<path style="fill:#ff0ec0; stroke:none;" d="M136 116L136 120L132 120L132 128L136 128L136 120L144 120L144 116L136 116M112 140L112 144L116 144L116 140L112 140M112 148L112 152L116 152L116 148L112 148M100 152L100 156L104 156L104 152L100 152z"/>
<path style="fill:#3a3f5e; stroke:none;" d="M52 156L52 160L56 160L56 164L60 164L60 156L52 156M40 168L40 172L44 172L44 176L48 176L48 168L40 168z"/>
<path style="fill:#ff0ec0; stroke:none;" d="M64 172L64 180L68 180L68 176L72 176L72 172L64 172z"/>
<path style="fill:#3a3f5e; stroke:none;" d="M32 180L32 184L36 184L36 180L32 180M36 184L36 188L40 188L40 192L44 192L44 188L40 188L40 184L36 184z"/>
<path style="fill:#ff0ec0; stroke:none;" d="M20 196L20 200L16 200L16 204L20 204L20 208L24 208L24 212L32 212L32 208L36 208L36 204L32 204L32 200L24 200L24 196L20 196z"/>
<path style="fill:#ffffff; stroke:none;" d="M184 196L184 208L220 208L220 196L184 196z"/>
<path style="fill:#ff0ec0; stroke:none;" d="M12 204L12 208L8 208L8 216L16 216L16 220L24 220L24 212L20 212L20 208L16 208L16 204L12 204M8 220L8 232L12 232L12 228L16 228L16 224L12 224L12 220L8 220z"/>
</svg>
