<?xml version="1.0" standalone="yes"?>
<svg xmlns="http://www.w3.org/2000/svg" width="240" height="240">
<path style="fill:#1b1f21; stroke:none;" d="M0 0L0 240L240 240L240 0L0 0z"/>
<path style="fill:#ff0ec0; stroke:none;" d="M60 8L60 76L56 76L56 80L16 80L16 84L56 84L56 80L72 80L72 84L124 84L124 80L72 80L72 76L68 76L68 16L72 16L72 8L68 8L68 16L64 16L64 8L60 8M116 8L116 16L120 16L120 20L124 20L124 28L128 28L128 88L136 88L136 80L152 80L152 88L168 88L168 80L164 80L164 76L160 76L160 28L164 28L164 16L168 16L168 8L132 8L132 12L124 12L124 8L116 8z"/>
<path style="fill:#3a3f5e; stroke:none;" d="M124 8L124 12L132 12L132 8L124 8z"/>
<path style="fill:#1b1f21; stroke:none;" d="M132 16L132 28L136 28L136 32L152 32L152 16L132 16M140 40L140 48L152 48L152 40L140 40z"/>
<path style="fill:#3a3f5e; stroke:none;" d="M160 44L160 72L168 72L168 64L172 64L172 52L168 52L168 48L164 48L164 44L160 44M140 56L140 60L136 60L136 68L140 68L140 72L148 72L148 68L152 68L152 60L148 60L148 56L140 56z"/>
<path style="fill:#ff0ec0; stroke:none;" d="M176 60L176 64L172 64L172 76L192 76L192 60L176 60z"/>
<path style="fill:#3a3f5e; stroke:none;" d="M172 76L172 88L176 88L176 92L192 92L192 76L172 76M56 80L56 84L16 84L16 88L56 88L56 92L60 92L60 88L68 88L68 92L72 92L72 88L124 88L124 84L72 84L72 80L56 80z"/>
<path style="fill:#1b1f21; stroke:none;" d="M136 80L136 88L152 88L152 80L136 80z"/>
<path style="fill:#ff0ec0; stroke:none;" d="M60 88L60 176L64 176L64 160L68 160L68 112L64 112L64 96L68 96L68 88L60 88z"/>
<path style="fill:#3a3f5e; stroke:none;" d="M132 88L132 92L164 92L164 124L68 124L68 128L160 128L160 132L156 132L156 136L160 136L160 132L164 132L164 128L192 128L192 132L188 132L188 136L180 136L180 140L192 140L192 136L200 136L200 132L208 132L208 128L196 128L196 124L168 124L168 88L132 88z"/>
<path style="fill:#ff0ec0; stroke:none;" d="M100 92L100 104L112 104L112 92L100 92M136 92L136 108L132 108L132 116L128 116L128 120L124 120L124 124L164 124L164 92L136 92z"/>
<path style="fill:#1b1f21; stroke:none;" d="M140 96L140 104L152 104L152 96L140 96z"/>
<path style="fill:#3a3f5e; stroke:none;" d="M116 100L116 112L128 112L128 104L124 104L124 100L116 100z"/>
<path style="fill:#ff0ec0; stroke:none;" d="M124 100L124 104L132 104L132 100L124 100z"/>
<path style="fill:#3a3f5e; stroke:none;" d="M100 104L100 120L112 120L112 104L100 104z"/>
<path style="fill:#1b1f21; stroke:none;" d="M140 112L140 120L152 120L152 112L140 112z"/>
<path style="fill:#ff0ec0; stroke:none;" d="M180 112L180 116L188 116L188 120L192 120L192 124L196 124L196 128L216 128L216 124L208 124L208 120L200 120L200 116L192 116L192 112L180 112z"/>
<path style="fill:#3a3f5e; stroke:none;" d="M8 124L8 128L60 128L60 124L8 124z"/>
<path style="fill:#ff0ec0; stroke:none;" d="M152 128L152 168L156 168L156 132L160 132L160 128L152 128M104 132L104 140L148 140L148 132L104 132z"/>
<path style="fill:#3a3f5e; stroke:none;" d="M108 140L108 144L116 144L116 148L120 148L120 152L140 152L140 176L136 176L136 200L132 200L132 208L112 208L112 212L144 212L144 168L148 168L148 140L108 140z"/>
<path style="fill:#ff0ec0; stroke:none;" d="M120 152L120 176L116 176L116 200L112 200L112 208L132 208L132 200L136 200L136 176L140 176L140 152L120 152M68 160L68 208L72 208L72 160L68 160M148 168L148 216L116 216L116 228L120 228L120 232L136 232L136 228L156 228L156 232L180 232L180 228L160 228L160 224L156 224L156 220L152 220L152 168L148 168M56 176L56 232L60 232L60 176L56 176z"/>
<path style="fill:#ffffff; stroke:none;" d="M196 184L196 196L184 196L184 208L196 208L196 220L208 220L208 208L220 208L220 196L208 196L208 184L196 184z"/>
<path style="fill:#ff0ec0; stroke:none;" d="M72 208L72 232L76 232L76 208L72 208z"/>
<path style="fill:#3a3f5e; stroke:none;" d="M124 220L124 228L132 228L132 220L124 220z"/>
</svg>
