<?xml version="1.0" standalone="yes"?>
<svg xmlns="http://www.w3.org/2000/svg" width="240" height="240">
<path style="fill:#1b1f21; stroke:none;" d="M0 0L0 240L240 240L240 0L0 0z"/>
<path style="fill:#ff0ec0; stroke:none;" d="M188 8L188 16L192 16L192 8L188 8M204 8L204 12L212 12L212 8L204 8M176 12L176 20L180 20L180 12L176 12z"/>
<path style="fill:#3a3f5e; stroke:none;" d="M192 12L192 16L196 16L196 12L192 12M200 12L200 16L208 16L208 12L200 12z"/>
<path style="fill:#ff0ec0; stroke:none;" d="M216 12L216 16L224 16L224 12L216 12z"/>
<path style="fill:#3a3f5e; stroke:none;" d="M180 16L180 20L184 20L184 16L180 16M188 16L188 20L192 20L192 16L188 16M212 16L212 20L220 20L220 16L212 16z"/>
<path style="fill:#ff0ec0; stroke:none;" d="M168 20L168 28L172 28L172 20L168 20z"/>
<path style="fill:#3a3f5e; stroke:none;" d="M176 20L176 24L172 24L172 28L168 28L168 32L164 32L164 36L160 36L160 40L156 40L156 44L152 44L152 48L148 48L148 52L144 52L144 56L140 56L140 60L136 60L136 64L132 64L132 68L128 68L128 72L124 72L124 76L120 76L120 80L116 80L116 84L112 84L112 88L108 88L108 92L104 92L104 96L100 96L100 100L96 100L96 104L92 104L92 108L88 108L88 112L84 112L84 116L80 116L80 120L76 120L76 124L72 124L72 128L68 128L68 132L64 132L64 136L60 136L60 140L56 140L56 144L52 144L52 148L56 148L56 152L52 152L52 156L48 156L48 164L44 164L44 168L24 168L24 172L28 172L28 180L32 180L32 184L16 184L16 188L12 188L12 192L8 192L8 196L12 196L12 192L16 192L16 188L36 188L36 192L40 192L40 196L44 196L44 200L48 200L48 204L52 204L52 208L56 208L56 216L52 216L52 220L48 220L48 216L44 216L44 212L40 212L40 208L36 208L36 204L32 204L32 208L36 208L36 212L40 212L40 216L44 216L44 220L48 220L48 228L36 228L36 224L32 224L32 220L28 220L28 216L24 216L24 212L20 212L20 216L24 216L24 220L28 220L28 224L32 224L32 228L36 228L36 232L60 232L60 228L64 228L64 232L88 232L88 228L92 228L92 224L96 224L96 216L100 216L100 196L96 196L96 192L92 192L92 188L88 188L88 184L84 184L84 180L88 180L88 176L92 176L92 172L96 172L96 168L100 168L100 164L104 164L104 160L108 160L108 156L112 156L112 152L116 152L116 148L120 148L120 144L124 144L124 140L128 140L128 136L132 136L132 132L136 132L136 128L140 128L140 124L144 124L144 120L148 120L148 116L152 116L152 112L156 112L156 108L160 108L160 104L164 104L164 100L168 100L168 96L172 96L172 92L176 92L176 88L180 88L180 84L184 84L184 80L188 80L188 76L192 76L192 72L196 72L196 68L200 68L200 64L204 64L204 60L200 60L200 64L196 64L196 68L192 68L192 72L188 72L188 76L184 76L184 80L180 80L180 84L176 84L176 88L172 88L172 92L168 92L168 96L164 96L164 100L160 100L160 104L156 104L156 108L152 108L152 112L148 112L148 116L144 116L144 120L140 120L140 124L136 124L136 128L132 128L132 132L128 132L128 136L124 136L124 140L120 140L120 144L116 144L116 148L112 148L112 152L108 152L108 156L104 156L104 160L100 160L100 164L96 164L96 168L92 168L92 172L88 172L88 176L84 176L84 180L80 180L80 176L76 176L76 172L72 172L72 168L76 168L76 164L80 164L80 160L84 160L84 156L88 156L88 152L92 152L92 148L96 148L96 144L100 144L100 140L104 140L104 136L108 136L108 132L112 132L112 128L116 128L116 124L120 124L120 120L124 120L124 116L128 116L128 112L132 112L132 108L136 108L136 104L140 104L140 100L144 100L144 96L148 96L148 92L152 92L152 88L156 88L156 84L160 84L160 80L156 80L156 84L152 84L152 88L148 88L148 92L144 92L144 96L140 96L140 100L136 100L136 104L132 104L132 108L128 108L128 112L124 112L124 116L120 116L120 120L116 120L116 124L112 124L112 128L108 128L108 132L104 132L104 136L100 136L100 140L96 140L96 144L92 144L92 148L88 148L88 152L84 152L84 156L80 156L80 160L76 160L76 164L72 164L72 168L68 168L68 164L64 164L64 160L60 160L60 156L56 156L56 152L60 152L60 148L64 148L64 144L68 144L68 140L72 140L72 136L76 136L76 132L80 132L80 128L84 128L84 124L88 124L88 120L92 120L92 116L96 116L96 112L100 112L100 108L104 108L104 104L108 104L108 100L112 100L112 96L116 96L116 92L120 92L120 88L124 88L124 84L128 84L128 80L132 80L132 76L136 76L136 72L140 72L140 68L144 68L144 64L148 64L148 60L152 60L152 56L156 56L156 52L160 52L160 48L164 48L164 44L168 44L168 40L172 40L172 36L176 36L176 32L180 32L180 28L192 28L192 24L212 24L212 20L192 20L192 24L180 24L180 20L176 20M220 20L220 24L224 24L224 28L232 28L232 24L228 24L228 20L220 20z"/>
<path style="fill:#1b1f21; stroke:none;" d="M176 24L176 28L172 28L172 32L168 32L168 36L164 36L164 40L160 40L160 44L156 44L156 48L152 48L152 52L148 52L148 56L144 56L144 60L140 60L140 64L136 64L136 68L132 68L132 72L128 72L128 76L124 76L124 80L120 80L120 84L116 84L116 88L112 88L112 92L108 92L108 96L104 96L104 100L100 100L100 104L96 104L96 108L92 108L92 112L88 112L88 116L84 116L84 120L80 120L80 124L76 124L76 128L72 128L72 132L68 132L68 136L64 136L64 140L60 140L60 144L56 144L56 148L60 148L60 144L64 144L64 140L68 140L68 136L72 136L72 132L76 132L76 128L80 128L80 124L84 124L84 120L88 120L88 116L92 116L92 112L96 112L96 108L100 108L100 104L104 104L104 100L108 100L108 96L112 96L112 92L116 92L116 88L120 88L120 84L124 84L124 80L128 80L128 76L132 76L132 72L136 72L136 68L140 68L140 64L144 64L144 60L148 60L148 56L152 56L152 52L156 52L156 48L160 48L160 44L164 44L164 40L168 40L168 36L172 36L172 32L176 32L176 28L180 28L180 24L176 24M192 24L192 28L180 28L180 32L176 32L176 36L172 36L172 40L168 40L168 44L164 44L164 48L160 48L160 52L156 52L156 56L152 56L152 60L148 60L148 64L144 64L144 68L140 68L140 72L136 72L136 76L132 76L132 80L128 80L128 84L124 84L124 88L120 88L120 92L116 92L116 96L112 96L112 100L108 100L108 104L104 104L104 108L100 108L100 112L96 112L96 116L92 116L92 120L88 120L88 124L84 124L84 128L80 128L80 132L76 132L76 136L72 136L72 140L68 140L68 144L64 144L64 148L60 148L60 152L56 152L56 156L60 156L60 160L64 160L64 164L68 164L68 168L72 168L72 164L76 164L76 160L80 160L80 156L84 156L84 152L88 152L88 148L92 148L92 144L96 144L96 140L100 140L100 136L104 136L104 132L108 132L108 128L112 128L112 124L116 124L116 120L120 120L120 116L124 116L124 112L128 112L128 108L132 108L132 104L136 104L136 100L140 100L140 96L144 96L144 92L148 92L148 88L152 88L152 84L156 84L156 80L152 80L152 84L148 84L148 88L144 88L144 92L140 92L140 96L136 96L136 100L132 100L132 104L128 104L128 108L124 108L124 112L120 112L120 116L116 116L116 120L112 120L112 124L108 124L108 128L104 128L104 132L100 132L100 136L96 136L96 140L92 140L92 144L88 144L88 148L84 148L84 152L80 152L80 156L76 156L76 160L72 160L72 164L68 164L68 160L64 160L64 156L60 156L60 152L64 152L64 148L68 148L68 144L72 144L72 140L76 140L76 136L80 136L80 132L84 132L84 128L88 128L88 124L92 124L92 120L96 120L96 116L100 116L100 112L104 112L104 108L108 108L108 104L112 104L112 100L116 100L116 96L120 96L120 92L124 92L124 88L128 88L128 84L132 84L132 80L136 80L136 76L140 76L140 72L144 72L144 68L148 68L148 64L152 64L152 60L156 60L156 56L160 56L160 52L164 52L164 48L168 48L168 44L172 44L172 40L176 40L176 36L180 36L180 32L192 32L192 28L208 28L208 32L212 32L212 44L208 44L208 56L204 56L204 64L200 64L200 68L196 68L196 72L192 72L192 76L188 76L188 80L184 80L184 84L180 84L180 88L176 88L176 92L172 92L172 96L168 96L168 100L164 100L164 104L160 104L160 108L156 108L156 112L152 112L152 116L148 116L148 120L144 120L144 124L140 124L140 128L136 128L136 132L132 132L132 136L128 136L128 140L124 140L124 144L120 144L120 148L116 148L116 152L112 152L112 156L108 156L108 160L104 160L104 164L100 164L100 168L96 168L96 172L92 172L92 176L88 176L88 180L84 180L84 184L88 184L88 188L92 188L92 184L96 184L96 180L100 180L100 176L104 176L104 172L108 172L108 168L112 168L112 164L116 164L116 160L120 160L120 156L124 156L124 152L128 152L128 148L132 148L132 144L136 144L136 140L140 140L140 136L144 136L144 132L148 132L148 128L152 128L152 124L156 124L156 120L160 120L160 116L164 116L164 112L168 112L168 108L172 108L172 104L176 104L176 100L180 100L180 96L184 96L184 92L188 92L188 88L192 88L192 84L196 84L196 80L200 80L200 76L204 76L204 72L208 72L208 68L212 68L212 64L216 64L216 56L212 56L212 44L216 44L216 28L212 28L212 24L192 24z"/>
<path style="fill:#ff0ec0; stroke:none;" d="M212 24L212 28L216 28L216 24L212 24M160 28L160 36L164 36L164 28L160 28M192 28L192 32L180 32L180 36L176 36L176 40L172 40L172 44L168 44L168 48L164 48L164 52L160 52L160 56L156 56L156 60L152 60L152 64L148 64L148 68L144 68L144 72L140 72L140 76L136 76L136 80L132 80L132 84L128 84L128 88L124 88L124 92L120 92L120 96L116 96L116 100L112 100L112 104L108 104L108 108L104 108L104 112L100 112L100 116L96 116L96 120L92 120L92 124L88 124L88 128L84 128L84 132L80 132L80 136L76 136L76 140L72 140L72 144L68 144L68 148L64 148L64 152L60 152L60 156L64 156L64 160L68 160L68 164L72 164L72 160L76 160L76 156L80 156L80 152L84 152L84 148L88 148L88 144L92 144L92 140L96 140L96 136L100 136L100 132L104 132L104 128L108 128L108 124L112 124L112 120L116 120L116 116L120 116L120 112L124 112L124 108L128 108L128 104L132 104L132 100L136 100L136 96L140 96L140 92L144 92L144 88L148 88L148 84L152 84L152 80L160 80L160 88L156 88L156 92L152 92L152 96L148 96L148 100L144 100L144 104L140 104L140 108L136 108L136 112L132 112L132 116L128 116L128 120L124 120L124 124L120 124L120 128L116 128L116 132L112 132L112 136L108 136L108 140L104 140L104 144L100 144L100 148L96 148L96 152L92 152L92 156L88 156L88 160L84 160L84 164L80 164L80 168L76 168L76 172L80 172L80 176L88 176L88 172L92 172L92 168L96 168L96 164L100 164L100 160L104 160L104 156L108 156L108 152L112 152L112 148L116 148L116 144L120 144L120 140L124 140L124 136L128 136L128 132L132 132L132 128L136 128L136 124L140 124L140 120L144 120L144 116L148 116L148 112L152 112L152 108L156 108L156 104L160 104L160 100L164 100L164 96L168 96L168 92L172 92L172 88L176 88L176 84L180 84L180 80L184 80L184 76L188 76L188 72L192 72L192 68L196 68L196 64L200 64L200 60L204 60L204 44L208 44L208 32L204 32L204 28L192 28z"/>
<path style="fill:#3a3f5e; stroke:none;" d="M204 28L204 32L208 32L208 28L204 28z"/>
<path style="fill:#ff0ec0; stroke:none;" d="M216 28L216 44L220 44L220 28L216 28z"/>
<path style="fill:#3a3f5e; stroke:none;" d="M208 32L208 44L212 44L212 32L208 32M224 32L224 40L228 40L228 44L232 44L232 36L228 36L228 32L224 32z"/>
<path style="fill:#ff0ec0; stroke:none;" d="M152 36L152 44L156 44L156 36L152 36M144 44L144 52L148 52L148 44L144 44z"/>
<path style="fill:#1b1f21; stroke:none;" d="M188 44L188 52L196 52L196 44L188 44z"/>
<path style="fill:#3a3f5e; stroke:none;" d="M204 44L204 56L208 56L208 44L204 44z"/>
<path style="fill:#ff0ec0; stroke:none;" d="M212 44L212 56L216 56L216 44L212 44z"/>
<path style="fill:#3a3f5e; stroke:none;" d="M220 44L220 52L224 52L224 56L228 56L228 48L224 48L224 44L220 44z"/>
<path style="fill:#ff0ec0; stroke:none;" d="M136 52L136 60L140 60L140 52L136 52z"/>
<path style="fill:#1b1f21; stroke:none;" d="M180 52L180 56L176 56L176 60L172 60L172 64L168 64L168 68L172 68L172 72L176 72L176 68L180 68L180 64L184 64L184 60L188 60L188 56L184 56L184 52L180 52z"/>
<path style="fill:#3a3f5e; stroke:none;" d="M184 52L184 56L188 56L188 52L184 52M180 56L180 60L176 60L176 64L172 64L172 68L176 68L176 64L180 64L180 60L184 60L184 56L180 56z"/>
<path style="fill:#ff0ec0; stroke:none;" d="M208 56L208 64L204 64L204 68L200 68L200 72L196 72L196 76L192 76L192 80L188 80L188 84L184 84L184 88L180 88L180 92L176 92L176 96L172 96L172 100L168 100L168 104L164 104L164 108L160 108L160 112L156 112L156 116L152 116L152 120L148 120L148 124L144 124L144 128L140 128L140 132L136 132L136 136L132 136L132 140L128 140L128 144L124 144L124 148L120 148L120 152L116 152L116 156L112 156L112 160L108 160L108 164L104 164L104 168L100 168L100 172L96 172L96 176L92 176L92 180L88 180L88 184L92 184L92 180L96 180L96 176L100 176L100 172L104 172L104 168L108 168L108 164L112 164L112 160L116 160L116 156L120 156L120 152L124 152L124 148L128 148L128 144L132 144L132 140L136 140L136 136L140 136L140 132L144 132L144 128L148 128L148 124L152 124L152 120L156 120L156 116L160 116L160 112L164 112L164 108L168 108L168 104L172 104L172 100L176 100L176 96L180 96L180 92L184 92L184 88L188 88L188 84L192 84L192 80L196 80L196 76L200 76L200 72L204 72L204 68L208 68L208 64L212 64L212 56L208 56z"/>
<path style="fill:#3a3f5e; stroke:none;" d="M216 56L216 64L220 64L220 68L224 68L224 60L220 60L220 56L216 56z"/>
<path style="fill:#ff0ec0; stroke:none;" d="M128 60L128 68L132 68L132 60L128 60z"/>
<path style="fill:#3a3f5e; stroke:none;" d="M212 64L212 68L208 68L208 72L212 72L212 76L216 76L216 64L212 64z"/>
<path style="fill:#ff0ec0; stroke:none;" d="M120 68L120 76L124 76L124 68L120 68z"/>
<path style="fill:#3a3f5e; stroke:none;" d="M168 68L168 72L172 72L172 68L168 68z"/>
<path style="fill:#1b1f21; stroke:none;" d="M160 72L160 80L168 80L168 72L160 72z"/>
<path style="fill:#3a3f5e; stroke:none;" d="M204 72L204 76L200 76L200 80L204 80L204 84L208 84L208 72L204 72z"/>
<path style="fill:#ff0ec0; stroke:none;" d="M112 76L112 84L116 84L116 76L112 76z"/>
<path style="fill:#3a3f5e; stroke:none;" d="M196 80L196 84L192 84L192 88L196 88L196 92L200 92L200 80L196 80z"/>
<path style="fill:#ff0ec0; stroke:none;" d="M104 84L104 92L108 92L108 84L104 84z"/>
<path style="fill:#1b1f21; stroke:none;" d="M156 84L156 88L160 88L160 84L156 84z"/>
<path style="fill:#ff0ec0; stroke:none;" d="M20 88L20 92L16 92L16 104L20 104L20 108L24 108L24 152L32 152L32 148L36 148L36 104L32 104L32 96L28 96L28 92L24 92L24 88L20 88z"/>
<path style="fill:#3a3f5e; stroke:none;" d="M24 88L24 92L28 92L28 96L32 96L32 104L36 104L36 148L32 148L32 152L24 152L24 160L28 160L28 164L40 164L40 160L44 160L44 100L40 100L40 92L36 92L36 88L24 88z"/>
<path style="fill:#1b1f21; stroke:none;" d="M152 88L152 92L156 92L156 88L152 88z"/>
<path style="fill:#3a3f5e; stroke:none;" d="M188 88L188 92L184 92L184 96L188 96L188 100L192 100L192 88L188 88z"/>
<path style="fill:#ff0ec0; stroke:none;" d="M96 92L96 100L100 100L100 92L96 92z"/>
<path style="fill:#1b1f21; stroke:none;" d="M148 92L148 96L152 96L152 92L148 92M144 96L144 100L148 100L148 96L144 96z"/>
<path style="fill:#3a3f5e; stroke:none;" d="M180 96L180 100L176 100L176 104L180 104L180 108L184 108L184 96L180 96z"/>
<path style="fill:#ff0ec0; stroke:none;" d="M88 100L88 108L92 108L92 100L88 100z"/>
<path style="fill:#1b1f21; stroke:none;" d="M140 100L140 104L144 104L144 100L140 100M136 104L136 108L140 108L140 104L136 104z"/>
<path style="fill:#3a3f5e; stroke:none;" d="M172 104L172 108L168 108L168 112L172 112L172 116L176 116L176 104L172 104z"/>
<path style="fill:#ff0ec0; stroke:none;" d="M80 108L80 116L84 116L84 108L80 108z"/>
<path style="fill:#1b1f21; stroke:none;" d="M132 108L132 112L136 112L136 108L132 108M128 112L128 116L132 116L132 112L128 112z"/>
<path style="fill:#3a3f5e; stroke:none;" d="M164 112L164 116L160 116L160 120L164 120L164 124L168 124L168 112L164 112z"/>
<path style="fill:#ff0ec0; stroke:none;" d="M72 116L72 124L76 124L76 116L72 116z"/>
<path style="fill:#1b1f21; stroke:none;" d="M124 116L124 120L128 120L128 116L124 116M120 120L120 124L124 124L124 120L120 120z"/>
<path style="fill:#3a3f5e; stroke:none;" d="M156 120L156 124L152 124L152 128L156 128L156 132L160 132L160 120L156 120z"/>
<path style="fill:#ff0ec0; stroke:none;" d="M64 124L64 132L68 132L68 124L64 124z"/>
<path style="fill:#1b1f21; stroke:none;" d="M116 124L116 128L120 128L120 124L116 124M112 128L112 132L116 132L116 128L112 128z"/>
<path style="fill:#3a3f5e; stroke:none;" d="M148 128L148 132L144 132L144 136L148 136L148 140L152 140L152 128L148 128z"/>
<path style="fill:#ff0ec0; stroke:none;" d="M56 132L56 140L60 140L60 132L56 132z"/>
<path style="fill:#1b1f21; stroke:none;" d="M108 132L108 136L112 136L112 132L108 132M104 136L104 140L108 140L108 136L104 136z"/>
<path style="fill:#3a3f5e; stroke:none;" d="M140 136L140 140L136 140L136 144L140 144L140 148L144 148L144 136L140 136z"/>
<path style="fill:#1b1f21; stroke:none;" d="M100 140L100 144L104 144L104 140L100 140M96 144L96 148L100 148L100 144L96 144z"/>
<path style="fill:#3a3f5e; stroke:none;" d="M132 144L132 148L128 148L128 152L132 152L132 156L136 156L136 144L132 144z"/>
<path style="fill:#ff0ec0; stroke:none;" d="M8 148L8 192L12 192L12 188L16 188L16 184L32 184L32 180L28 180L28 172L24 172L24 164L20 164L20 148L8 148M48 148L48 156L52 156L52 148L48 148z"/>
<path style="fill:#1b1f21; stroke:none;" d="M52 148L52 152L56 152L56 148L52 148M92 148L92 152L96 152L96 148L92 148M88 152L88 156L92 156L92 152L88 152z"/>
<path style="fill:#3a3f5e; stroke:none;" d="M124 152L124 156L120 156L120 160L124 160L124 164L128 164L128 152L124 152z"/>
<path style="fill:#ff0ec0; stroke:none;" d="M52 156L52 164L56 164L56 172L64 172L64 180L56 180L56 176L52 176L52 180L48 180L48 184L40 184L40 180L36 180L36 184L40 184L40 188L44 188L44 192L48 192L48 196L52 196L52 200L60 200L60 196L56 196L56 192L60 192L60 188L64 188L64 200L68 200L68 196L72 196L72 208L76 208L76 204L80 204L80 208L84 208L84 204L88 204L88 200L92 200L92 192L88 192L88 188L84 188L84 184L80 184L80 180L76 180L76 176L72 176L72 172L68 172L68 168L64 168L64 164L60 164L60 160L56 160L56 156L52 156z"/>
<path style="fill:#1b1f21; stroke:none;" d="M84 156L84 160L88 160L88 156L84 156M80 160L80 164L84 164L84 160L80 160z"/>
<path style="fill:#3a3f5e; stroke:none;" d="M116 160L116 164L112 164L112 168L116 168L116 172L120 172L120 160L116 160z"/>
<path style="fill:#1b1f21; stroke:none;" d="M76 164L76 168L80 168L80 164L76 164M72 168L72 172L76 172L76 168L72 168z"/>
<path style="fill:#3a3f5e; stroke:none;" d="M108 168L108 172L104 172L104 176L108 176L108 180L112 180L112 168L108 168z"/>
<path style="fill:#1b1f21; stroke:none;" d="M56 172L56 180L64 180L64 172L56 172M76 172L76 176L80 176L80 172L76 172M80 176L80 180L84 180L84 176L80 176z"/>
<path style="fill:#3a3f5e; stroke:none;" d="M100 176L100 180L96 180L96 184L100 184L100 188L104 188L104 176L100 176M52 180L52 184L48 184L48 188L52 188L52 192L56 192L56 180L52 180z"/>
<path style="fill:#ff0ec0; stroke:none;" d="M92 184L92 188L96 188L96 184L92 184z"/>
<path style="fill:#ffffff; stroke:none;" d="M196 184L196 196L184 196L184 208L196 208L196 220L208 220L208 208L220 208L220 196L208 196L208 184L196 184z"/>
<path style="fill:#ff0ec0; stroke:none;" d="M16 188L16 192L12 192L12 196L8 196L8 220L12 220L12 224L16 224L16 228L20 228L20 232L24 232L24 228L20 228L20 224L16 224L16 220L12 220L12 216L16 216L16 212L24 212L24 216L28 216L28 220L32 220L32 224L36 224L36 228L40 228L40 224L36 224L36 220L32 220L32 216L28 216L28 212L24 212L24 204L36 204L36 208L40 208L40 212L44 212L44 216L48 216L48 220L52 220L52 216L56 216L56 208L52 208L52 204L48 204L48 200L44 200L44 196L40 196L40 192L36 192L36 188L16 188z"/>
<path style="fill:#1b1f21; stroke:none;" d="M72 188L72 196L80 196L80 188L72 188M24 204L24 212L28 212L28 216L32 216L32 220L36 220L36 224L40 224L40 228L48 228L48 220L44 220L44 216L40 216L40 212L36 212L36 208L32 208L32 204L24 204M60 212L60 216L64 216L64 228L68 228L68 216L64 216L64 212L60 212z"/>
<path style="fill:#3a3f5e; stroke:none;" d="M8 220L8 224L12 224L12 220L8 220M12 224L12 228L16 228L16 224L12 224M16 228L16 232L20 232L20 228L16 228z"/>
</svg>
