<?xml version="1.0" standalone="yes"?>
<svg xmlns="http://www.w3.org/2000/svg" width="240" height="240">
<path style="fill:#1b1f21; stroke:none;" d="M0 0L0 240L240 240L240 0L0 0z"/>
<path style="fill:#ff0ec0; stroke:none;" d="M188 44L188 52L184 52L184 56L180 56L180 60L176 60L176 64L172 64L172 68L168 68L168 72L160 72L160 76L156 76L156 80L152 80L152 84L148 84L148 88L144 88L144 92L140 92L140 96L136 96L136 100L132 100L132 104L128 104L128 108L124 108L124 112L120 112L120 116L116 116L116 120L112 120L112 124L116 124L116 120L120 120L120 116L124 116L124 112L128 112L128 108L132 108L132 104L136 104L136 100L144 100L144 104L140 104L140 108L136 108L136 112L132 112L132 116L128 116L128 120L124 120L124 124L120 124L120 132L124 132L124 128L128 128L128 124L132 124L132 120L136 120L136 116L140 116L140 112L144 112L144 108L148 108L148 104L152 104L152 100L156 100L156 96L160 96L160 92L164 92L164 88L168 88L168 84L172 84L172 80L176 80L176 76L180 76L180 72L184 72L184 64L188 64L188 52L192 52L192 44L188 44z"/>
<path style="fill:#3a3f5e; stroke:none;" d="M188 52L188 64L184 64L184 72L180 72L180 76L176 76L176 80L172 80L172 84L168 84L168 88L164 88L164 92L160 92L160 96L156 96L156 100L152 100L152 104L148 104L148 108L144 108L144 112L140 112L140 116L136 116L136 120L132 120L132 124L128 124L128 128L124 128L124 136L128 136L128 140L132 140L132 136L136 136L136 132L140 132L140 128L148 128L148 124L152 124L152 120L156 120L156 116L160 116L160 112L164 112L164 108L168 108L168 104L172 104L172 100L176 100L176 96L180 96L180 88L184 88L184 80L188 80L188 72L192 72L192 52L188 52M136 100L136 104L132 104L132 108L128 108L128 112L124 112L124 116L120 116L120 120L116 120L116 128L120 128L120 124L124 124L124 120L128 120L128 116L132 116L132 112L136 112L136 108L140 108L140 104L144 104L144 100L136 100z"/>
<path style="fill:#ff0ec0; stroke:none;" d="M96 120L96 124L104 124L104 128L108 128L108 132L112 132L112 136L116 136L116 140L120 140L120 136L116 136L116 132L112 132L112 128L108 128L108 124L104 124L104 120L96 120M100 136L100 140L104 140L104 144L108 144L108 136L100 136z"/>
<path style="fill:#3a3f5e; stroke:none;" d="M108 140L108 148L112 148L112 152L116 152L116 144L112 144L112 140L108 140M120 140L120 144L124 144L124 140L120 140z"/>
<path style="fill:#ff0ec0; stroke:none;" d="M88 144L88 148L92 148L92 152L100 152L100 144L88 144z"/>
<path style="fill:#3a3f5e; stroke:none;" d="M124 144L124 148L128 148L128 144L124 144M100 148L100 152L96 152L96 156L100 156L100 160L104 160L104 164L108 164L108 152L104 152L104 148L100 148M128 148L128 156L132 156L132 148L128 148z"/>
<path style="fill:#ff0ec0; stroke:none;" d="M80 152L80 156L76 156L76 160L80 160L80 164L88 164L88 160L92 160L92 156L88 156L88 152L80 152z"/>
<path style="fill:#3a3f5e; stroke:none;" d="M88 160L88 164L84 164L84 168L88 168L88 172L92 172L92 176L96 176L96 172L100 172L100 164L96 164L96 160L88 160z"/>
<path style="fill:#ff0ec0; stroke:none;" d="M68 164L68 168L64 168L64 172L68 172L68 176L76 176L76 172L80 172L80 168L76 168L76 164L68 164z"/>
<path style="fill:#3a3f5e; stroke:none;" d="M76 172L76 176L72 176L72 180L76 180L76 184L80 184L80 188L84 188L84 184L88 184L88 176L84 176L84 172L76 172z"/>
<path style="fill:#ff0ec0; stroke:none;" d="M56 176L56 184L60 184L60 188L64 188L64 184L68 184L68 180L64 180L64 176L56 176z"/>
<path style="fill:#3a3f5e; stroke:none;" d="M64 184L64 192L68 192L68 196L76 196L76 188L72 188L72 184L64 184z"/>
<path style="fill:#ff0ec0; stroke:none;" d="M48 188L48 192L52 192L52 196L56 196L56 188L48 188z"/>
<path style="fill:#3a3f5e; stroke:none;" d="M56 192L56 200L60 200L60 204L64 204L64 196L60 196L60 192L56 192z"/>
<path style="fill:#ff0ec0; stroke:none;" d="M36 196L36 200L40 200L40 204L48 204L48 196L36 196z"/>
<path style="fill:#3a3f5e; stroke:none;" d="M48 200L48 204L44 204L44 208L48 208L48 212L52 212L52 216L56 216L56 204L52 204L52 200L48 200z"/>
</svg>
