<?xml version="1.0" standalone="yes"?>
<svg xmlns="http://www.w3.org/2000/svg" width="240" height="240">
<path style="fill:#1b1f21; stroke:none;" d="M0 0L0 240L240 240L240 0L0 0z"/>
<path style="fill:#ff0ec0; stroke:none;" d="M28 20L28 28L32 28L32 20L28 20M40 20L40 28L56 28L56 20L40 20M8 28L8 36L16 36L16 28L8 28M64 28L64 36L76 36L76 28L64 28M20 32L20 36L60 36L60 32L20 32z"/>
<path style="fill:#3a3f5e; stroke:none;" d="M8 36L8 48L16 48L16 36L8 36M20 36L20 44L60 44L60 36L20 36M64 36L64 48L76 48L76 36L64 36z"/>
<path style="fill:#ff0ec0; stroke:none;" d="M228 40L228 44L196 44L196 48L168 48L168 52L156 52L156 56L232 56L232 40L228 40M20 48L20 52L56 52L56 56L12 56L12 60L72 60L72 56L60 56L60 48L20 48z"/>
<path style="fill:#3a3f5e; stroke:none;" d="M20 52L20 56L56 56L56 52L20 52z"/>
<path style="fill:#ff0ec0; stroke:none;" d="M140 52L140 60L144 60L144 52L140 52M148 52L148 56L152 56L152 52L148 52z"/>
<path style="fill:#3a3f5e; stroke:none;" d="M148 56L148 60L152 60L152 56L148 56M156 56L156 60L232 60L232 56L156 56z"/>
<path style="fill:#ff0ec0; stroke:none;" d="M12 64L12 76L44 76L44 64L12 64z"/>
<path style="fill:#1b1f21; stroke:none;" d="M16 68L16 72L20 72L20 68L16 68z"/>
<path style="fill:#3a3f5e; stroke:none;" d="M20 68L20 72L24 72L24 68L20 68z"/>
<path style="fill:#1b1f21; stroke:none;" d="M24 68L24 72L28 72L28 68L24 68z"/>
<path style="fill:#3a3f5e; stroke:none;" d="M28 68L28 72L32 72L32 68L28 68z"/>
<path style="fill:#1b1f21; stroke:none;" d="M32 68L32 72L36 72L36 68L32 68z"/>
<path style="fill:#3a3f5e; stroke:none;" d="M36 68L36 72L40 72L40 68L36 68M48 68L48 72L232 72L232 68L48 68z"/>
<path style="fill:#ff0ec0; stroke:none;" d="M8 80L8 96L12 96L12 84L136 84L136 80L8 80M140 80L140 88L144 88L144 80L140 80z"/>
<path style="fill:#3a3f5e; stroke:none;" d="M148 80L148 84L152 84L152 80L148 80M156 80L156 84L232 84L232 80L156 80M12 84L12 96L8 96L8 108L20 108L20 100L44 100L44 96L16 96L16 88L136 88L136 84L12 84z"/>
<path style="fill:#ff0ec0; stroke:none;" d="M148 84L148 88L152 88L152 84L148 84M156 84L156 88L168 88L168 92L196 92L196 96L228 96L228 100L232 100L232 84L156 84M16 92L16 96L44 96L44 100L152 100L152 92L16 92z"/>
<path style="fill:#3a3f5e; stroke:none;" d="M152 92L152 100L180 100L180 104L184 104L184 112L188 112L188 120L192 120L192 128L188 128L188 136L184 136L184 144L180 144L180 152L176 152L176 160L172 160L172 172L176 172L176 176L232 176L232 168L184 168L184 164L188 164L188 156L192 156L192 148L196 148L196 140L200 140L200 132L204 132L204 120L200 120L200 112L196 112L196 104L192 104L192 100L196 100L196 96L168 96L168 92L152 92z"/>
<path style="fill:#1b1f21; stroke:none;" d="M168 92L168 96L196 96L196 92L168 92z"/>
<path style="fill:#ff0ec0; stroke:none;" d="M20 100L20 148L24 148L24 152L8 152L8 156L28 156L28 160L32 160L32 164L36 164L36 168L40 168L40 172L44 172L44 176L48 176L48 180L68 180L68 176L56 176L56 172L52 172L52 168L48 168L48 164L44 164L44 160L52 160L52 152L48 152L48 144L52 144L52 136L56 136L56 132L60 132L60 128L76 128L76 124L80 124L80 116L84 116L84 112L56 112L56 120L52 120L52 128L48 128L48 136L44 136L44 144L40 144L40 152L36 152L36 148L32 148L32 144L28 144L28 100L20 100M176 100L176 104L180 104L180 100L176 100z"/>
<path style="fill:#3a3f5e; stroke:none;" d="M44 104L44 108L132 108L132 120L128 120L128 128L124 128L124 132L116 132L116 136L92 136L92 132L88 132L88 136L92 136L92 140L116 140L116 136L124 136L124 132L128 132L128 128L132 128L132 120L136 120L136 108L148 108L148 104L44 104z"/>
<path style="fill:#ff0ec0; stroke:none;" d="M180 104L180 112L184 112L184 104L180 104z"/>
<path style="fill:#3a3f5e; stroke:none;" d="M84 112L84 116L80 116L80 124L76 124L76 128L68 128L68 132L76 132L76 136L72 136L72 144L68 144L68 152L64 152L64 160L56 160L56 156L52 156L52 160L48 160L48 164L52 164L52 168L56 168L56 172L68 172L68 164L72 164L72 152L76 152L76 144L80 144L80 136L84 136L84 128L88 128L88 112L84 112M92 112L92 124L96 124L96 128L100 128L100 132L108 132L108 128L104 128L104 120L100 120L100 112L92 112z"/>
<path style="fill:#ff0ec0; stroke:none;" d="M184 112L184 120L188 120L188 112L184 112z"/>
<path style="fill:#1b1f21; stroke:none;" d="M68 116L68 124L76 124L76 116L68 116z"/>
<path style="fill:#ff0ec0; stroke:none;" d="M188 120L188 128L192 128L192 120L188 120z"/>
<path style="fill:#1b1f21; stroke:none;" d="M60 128L60 132L56 132L56 136L52 136L52 144L48 144L48 152L52 152L52 156L56 156L56 160L64 160L64 152L68 152L68 144L72 144L72 136L76 136L76 132L68 132L68 128L60 128z"/>
<path style="fill:#ff0ec0; stroke:none;" d="M184 128L184 136L188 136L188 128L184 128M180 136L180 144L184 144L184 136L180 136M176 144L176 152L180 152L180 144L176 144z"/>
<path style="fill:#1b1f21; stroke:none;" d="M40 152L40 160L44 160L44 152L40 152z"/>
<path style="fill:#ff0ec0; stroke:none;" d="M172 152L172 160L176 160L176 152L172 152z"/>
<path style="fill:#3a3f5e; stroke:none;" d="M8 156L8 160L28 160L28 156L8 156M28 160L28 164L32 164L32 160L28 160z"/>
<path style="fill:#1b1f21; stroke:none;" d="M44 160L44 164L48 164L48 160L44 160z"/>
<path style="fill:#ff0ec0; stroke:none;" d="M168 160L168 172L172 172L172 160L168 160z"/>
<path style="fill:#3a3f5e; stroke:none;" d="M32 164L32 168L36 168L36 164L32 164z"/>
<path style="fill:#1b1f21; stroke:none;" d="M48 164L48 168L52 168L52 164L48 164z"/>
<path style="fill:#ff0ec0; stroke:none;" d="M184 164L184 168L232 168L232 164L184 164z"/>
<path style="fill:#3a3f5e; stroke:none;" d="M36 168L36 172L40 172L40 168L36 168z"/>
<path style="fill:#1b1f21; stroke:none;" d="M52 168L52 172L56 172L56 168L52 168z"/>
<path style="fill:#3a3f5e; stroke:none;" d="M40 172L40 176L44 176L44 172L40 172z"/>
<path style="fill:#ff0ec0; stroke:none;" d="M172 172L172 176L176 176L176 172L172 172z"/>
<path style="fill:#3a3f5e; stroke:none;" d="M44 176L44 180L48 180L48 176L44 176M48 180L48 184L68 184L68 180L48 180z"/>
<path style="fill:#ffffff; stroke:none;" d="M196 184L196 196L184 196L184 208L196 208L196 220L208 220L208 208L220 208L220 196L208 196L208 184L196 184z"/>
</svg>
