<?xml version="1.0" standalone="yes"?>
<svg xmlns="http://www.w3.org/2000/svg" width="240" height="240">
<path style="fill:#1b1f21; stroke:none;" d="M0 0L0 240L240 240L240 0L0 0z"/>
<path style="fill:#ff0ec0; stroke:none;" d="M164 44L164 48L156 48L156 52L152 52L152 56L148 56L148 60L144 60L144 64L140 64L140 68L136 68L136 72L132 72L132 76L128 76L128 80L124 80L124 84L120 84L120 88L116 88L116 92L112 92L112 96L108 96L108 100L104 100L104 104L100 104L100 108L96 108L96 112L92 112L92 116L88 116L88 120L84 120L84 124L80 124L80 128L76 128L76 132L72 132L72 136L68 136L68 140L64 140L64 144L60 144L60 148L56 148L56 152L52 152L52 156L48 156L48 160L44 160L44 164L40 164L40 168L36 168L36 172L32 172L32 176L28 176L28 180L24 180L24 184L20 184L20 188L16 188L16 192L12 192L12 196L8 196L8 208L12 208L12 204L16 204L16 200L20 200L20 196L24 196L24 192L28 192L28 188L32 188L32 184L36 184L36 180L40 180L40 176L44 176L44 172L48 172L48 168L52 168L52 164L56 164L56 160L60 160L60 156L64 156L64 152L68 152L68 148L72 148L72 144L76 144L76 140L80 140L80 136L84 136L84 132L88 132L88 128L92 128L92 124L96 124L96 120L100 120L100 116L104 116L104 112L108 112L108 108L112 108L112 104L116 104L116 100L120 100L120 96L124 96L124 92L128 92L128 88L132 88L132 84L136 84L136 80L140 80L140 76L144 76L144 72L148 72L148 68L152 68L152 64L156 64L156 60L160 60L160 56L184 56L184 60L188 60L188 64L192 64L192 84L188 84L188 88L184 88L184 92L180 92L180 96L176 96L176 100L184 100L184 96L192 96L192 92L196 92L196 88L200 88L200 80L204 80L204 56L200 56L200 52L196 52L196 48L188 48L188 44L164 44z"/>
<path style="fill:#3a3f5e; stroke:none;" d="M160 56L160 60L156 60L156 64L152 64L152 68L148 68L148 72L144 72L144 76L140 76L140 80L136 80L136 84L132 84L132 88L128 88L128 92L124 92L124 96L120 96L120 100L116 100L116 104L112 104L112 108L108 108L108 112L104 112L104 116L100 116L100 120L96 120L96 124L92 124L92 128L88 128L88 132L84 132L84 136L80 136L80 140L76 140L76 144L72 144L72 148L68 148L68 152L64 152L64 156L60 156L60 160L56 160L56 164L52 164L52 168L48 168L48 172L44 172L44 176L40 176L40 180L36 180L36 184L32 184L32 188L28 188L28 192L24 192L24 196L20 196L20 200L16 200L16 204L12 204L12 208L8 208L8 216L12 216L12 212L16 212L16 208L20 208L20 204L24 204L24 200L28 200L28 196L32 196L32 192L36 192L36 188L40 188L40 184L44 184L44 180L48 180L48 176L52 176L52 172L56 172L56 168L60 168L60 164L64 164L64 160L68 160L68 156L72 156L72 152L76 152L76 148L80 148L80 144L84 144L84 140L88 140L88 136L92 136L92 132L96 132L96 128L100 128L100 124L104 124L104 120L108 120L108 116L112 116L112 112L116 112L116 108L120 108L120 104L124 104L124 100L128 100L128 96L132 96L132 92L136 92L136 88L140 88L140 84L144 84L144 80L148 80L148 76L152 76L152 72L156 72L156 68L160 68L160 64L164 64L164 60L184 60L184 56L160 56M204 64L204 80L200 80L200 88L196 88L196 92L192 92L192 100L188 100L188 96L184 96L184 100L188 100L188 104L184 104L184 108L192 108L192 104L196 104L196 100L200 100L200 96L204 96L204 88L208 88L208 64L204 64z"/>
<path style="fill:#1b1f21; stroke:none;" d="M188 96L188 100L192 100L192 96L188 96z"/>
<path style="fill:#ffffff; stroke:none;" d="M184 196L184 208L220 208L220 196L184 196z"/>
</svg>
