<?xml version="1.0" standalone="yes"?>
<svg xmlns="http://www.w3.org/2000/svg" width="240" height="240">
<path style="fill:#1b1f21; stroke:none;" d="M0 0L0 240L240 240L240 0L0 0z"/>
<path style="fill:#3a3f5e; stroke:none;" d="M140 8L140 12L220 12L220 8L140 8z"/>
<path style="fill:#ff0ec0; stroke:none;" d="M140 12L140 16L220 16L220 12L140 12M148 20L148 24L212 24L212 20L148 20M124 28L124 36L112 36L112 44L28 44L28 48L112 48L112 44L224 44L224 48L228 48L228 52L232 52L232 28L124 28M8 44L8 48L24 48L24 44L8 44z"/>
<path style="fill:#3a3f5e; stroke:none;" d="M112 44L112 48L28 48L28 64L104 64L104 60L112 60L112 56L124 56L124 148L128 148L128 52L132 52L132 48L220 48L220 52L224 52L224 60L232 60L232 52L228 52L228 48L224 48L224 44L112 44M8 48L8 80L16 80L16 76L24 76L24 48L8 48z"/>
<path style="fill:#ff0ec0; stroke:none;" d="M12 52L12 64L20 64L20 52L12 52M32 52L32 60L36 60L36 52L32 52M40 52L40 60L44 60L44 52L40 52M48 52L48 60L52 60L52 52L48 52M56 52L56 60L60 60L60 52L56 52M116 60L116 64L108 64L108 68L96 68L96 72L84 72L84 76L72 76L72 80L60 80L60 84L48 84L48 88L36 88L36 92L32 92L32 104L36 104L36 108L40 108L40 112L120 112L120 60L116 60M208 60L208 112L220 112L220 60L208 60M224 60L224 112L232 112L232 60L224 60z"/>
<path style="fill:#3a3f5e; stroke:none;" d="M220 64L220 112L208 112L208 172L136 172L136 176L212 176L212 172L220 172L220 168L232 168L232 112L224 112L224 64L220 64z"/>
<path style="fill:#ff0ec0; stroke:none;" d="M132 68L132 76L204 76L204 68L132 68z"/>
<path style="fill:#3a3f5e; stroke:none;" d="M132 76L132 80L204 80L204 76L132 76z"/>
<path style="fill:#ff0ec0; stroke:none;" d="M132 84L132 96L204 96L204 84L132 84z"/>
<path style="fill:#3a3f5e; stroke:none;" d="M48 96L48 104L56 104L56 96L48 96M132 96L132 108L204 108L204 96L132 96z"/>
<path style="fill:#ff0ec0; stroke:none;" d="M40 116L40 124L36 124L36 132L32 132L32 140L28 140L28 148L24 148L24 156L20 156L20 164L16 164L16 172L12 172L12 176L8 176L8 180L16 180L16 184L24 184L24 188L32 188L32 192L40 192L40 196L48 196L48 192L44 192L44 188L36 188L36 184L40 184L40 176L44 176L44 164L48 164L48 156L52 156L52 148L56 148L56 140L68 140L68 120L64 120L64 116L40 116z"/>
<path style="fill:#3a3f5e; stroke:none;" d="M72 116L72 144L76 144L76 116L72 116M84 116L84 124L88 124L88 132L92 132L92 136L100 136L100 132L96 132L96 124L92 124L92 116L84 116M112 116L112 144L76 144L76 148L108 148L108 152L116 152L116 164L120 164L120 116L112 116z"/>
<path style="fill:#ff0ec0; stroke:none;" d="M132 120L132 132L204 132L204 120L132 120z"/>
<path style="fill:#3a3f5e; stroke:none;" d="M132 132L132 144L204 144L204 132L132 132M56 140L56 148L52 148L52 156L48 156L48 164L44 164L44 176L40 176L40 184L36 184L36 188L44 188L44 192L48 192L48 180L52 180L52 168L56 168L56 160L60 160L60 152L64 152L64 140L56 140z"/>
<path style="fill:#ff0ec0; stroke:none;" d="M132 152L132 160L204 160L204 152L132 152z"/>
<path style="fill:#3a3f5e; stroke:none;" d="M132 160L132 164L204 164L204 160L132 160M120 164L120 168L128 168L128 164L120 164M128 168L128 172L136 172L136 168L128 168z"/>
<path style="fill:#ffffff; stroke:none;" d="M196 184L196 196L184 196L184 208L196 208L196 220L208 220L208 208L220 208L220 196L208 196L208 184L196 184z"/>
</svg>
