<?xml version="1.0" standalone="yes"?>
<svg xmlns="http://www.w3.org/2000/svg" width="240" height="240">
<path style="fill:#1b1f21; stroke:none;" d="M0 0L0 240L240 240L240 0L0 0z"/>
<path style="fill:#ff0ec0; stroke:none;" d="M44 72L44 80L40 80L40 76L24 76L24 84L28 84L28 88L32 88L32 100L92 100L92 96L96 96L96 92L100 92L100 88L104 88L104 84L108 84L108 80L112 80L112 76L96 76L96 80L92 80L92 84L88 84L88 88L84 88L84 92L80 92L80 96L68 96L68 92L72 92L72 88L76 88L76 84L80 84L80 80L84 80L84 76L88 76L88 72L44 72M124 72L124 76L120 76L120 80L196 80L196 84L212 84L212 72L124 72z"/>
<path style="fill:#3a3f5e; stroke:none;" d="M92 76L92 80L96 80L96 76L92 76z"/>
<path style="fill:#1b1f21; stroke:none;" d="M36 80L36 84L32 84L32 88L36 88L36 84L40 84L40 80L36 80z"/>
<path style="fill:#3a3f5e; stroke:none;" d="M52 80L52 84L48 84L48 88L44 88L44 92L48 92L48 88L52 88L52 84L56 84L56 80L52 80z"/>
<path style="fill:#1b1f21; stroke:none;" d="M56 80L56 84L52 84L52 88L56 88L56 84L60 84L60 80L56 80z"/>
<path style="fill:#3a3f5e; stroke:none;" d="M64 80L64 84L60 84L60 88L56 88L56 92L60 92L60 88L64 88L64 84L68 84L68 80L64 80z"/>
<path style="fill:#1b1f21; stroke:none;" d="M68 80L68 84L72 84L72 80L68 80z"/>
<path style="fill:#3a3f5e; stroke:none;" d="M88 80L88 84L92 84L92 80L88 80z"/>
<path style="fill:#ff0ec0; stroke:none;" d="M56 84L56 88L60 88L60 84L56 84z"/>
<path style="fill:#1b1f21; stroke:none;" d="M64 84L64 88L68 88L68 84L64 84z"/>
<path style="fill:#3a3f5e; stroke:none;" d="M84 84L84 88L88 88L88 84L84 84M104 84L104 88L100 88L100 92L96 92L96 96L92 96L92 100L32 100L32 104L164 104L164 108L36 108L36 112L40 112L40 116L160 116L160 120L52 120L52 124L112 124L112 140L108 140L108 144L112 144L112 148L192 148L192 144L196 144L196 140L200 140L200 116L208 116L208 112L212 112L212 108L172 108L172 104L168 104L168 100L100 100L100 96L104 96L104 92L108 92L108 88L212 88L212 84L104 84z"/>
<path style="fill:#1b1f21; stroke:none;" d="M48 88L48 92L52 92L52 88L48 88M60 88L60 92L64 92L64 88L60 88z"/>
<path style="fill:#3a3f5e; stroke:none;" d="M80 88L80 92L84 92L84 88L80 88z"/>
<path style="fill:#ff0ec0; stroke:none;" d="M108 88L108 92L104 92L104 96L100 96L100 100L168 100L168 104L172 104L172 108L212 108L212 88L108 88z"/>
<path style="fill:#3a3f5e; stroke:none;" d="M68 92L68 96L80 96L80 92L68 92z"/>
<path style="fill:#1b1f21; stroke:none;" d="M164 108L164 112L168 112L168 116L200 116L200 112L168 112L168 108L164 108z"/>
<path style="fill:#3a3f5e; stroke:none;" d="M48 128L48 132L68 132L68 144L60 144L60 148L56 148L56 152L64 152L64 156L52 156L52 160L60 160L60 164L48 164L48 168L56 168L56 172L44 172L44 176L48 176L48 180L56 180L56 184L60 184L60 180L64 180L64 168L68 168L68 160L72 160L72 152L76 152L76 144L80 144L80 128L48 128M84 128L84 136L88 136L88 140L96 140L96 136L92 136L92 128L84 128z"/>
<path style="fill:#1b1f21; stroke:none;" d="M116 128L116 140L112 140L112 144L116 144L116 140L120 140L120 136L124 136L124 128L116 128M128 128L128 140L124 140L124 144L128 144L128 140L132 140L132 136L136 136L136 128L128 128M140 128L140 140L136 140L136 144L140 144L140 140L144 140L144 136L148 136L148 128L140 128M152 128L152 140L148 140L148 144L152 144L152 140L156 140L156 136L160 136L160 128L152 128M164 128L164 140L160 140L160 144L164 144L164 140L168 140L168 136L172 136L172 128L164 128M176 128L176 140L172 140L172 144L176 144L176 140L180 140L180 136L184 136L184 128L176 128M188 128L188 140L184 140L184 144L188 144L188 140L192 140L192 136L196 136L196 128L188 128z"/>
<path style="fill:#ff0ec0; stroke:none;" d="M48 132L48 136L44 136L44 144L40 144L40 152L36 152L36 160L32 160L32 168L28 168L28 176L32 176L32 180L36 180L36 184L44 184L44 188L52 188L52 192L64 192L64 188L68 188L68 180L64 180L64 184L60 184L60 188L56 188L56 184L48 184L48 180L40 180L40 176L44 176L44 172L48 172L48 168L40 168L40 164L52 164L52 160L44 160L44 156L56 156L56 152L48 152L48 148L60 148L60 144L56 144L56 136L64 136L64 144L68 144L68 132L48 132z"/>
<path style="fill:#1b1f21; stroke:none;" d="M56 136L56 144L64 144L64 136L56 136M44 144L44 148L48 148L48 144L44 144z"/>
<path style="fill:#3a3f5e; stroke:none;" d="M84 144L84 148L108 148L108 144L84 144z"/>
<path style="fill:#1b1f21; stroke:none;" d="M48 148L48 152L56 152L56 148L48 148M40 152L40 156L44 156L44 152L40 152M56 152L56 156L64 156L64 152L56 152M44 156L44 160L52 160L52 156L44 156M36 160L36 164L40 164L40 160L36 160M52 160L52 164L60 164L60 160L52 160M40 164L40 168L48 168L48 164L40 164M32 168L32 172L36 172L36 176L40 176L40 172L36 172L36 168L32 168M48 168L48 172L56 172L56 168L48 168M40 176L40 180L48 180L48 176L40 176M48 180L48 184L56 184L56 180L48 180M60 180L60 184L64 184L64 180L60 180M56 184L56 188L60 188L60 184L56 184z"/>
</svg>
