<?xml version="1.0" standalone="yes"?>
<svg xmlns="http://www.w3.org/2000/svg" width="240" height="240">
<path style="fill:#1b1f21; stroke:none;" d="M0 0L0 240L240 240L240 0L0 0z"/>
<path style="fill:#ff0ec0; stroke:none;" d="M148 8L148 12L144 12L144 16L140 16L140 20L136 20L136 24L132 24L132 28L128 28L128 32L124 32L124 36L120 36L120 40L116 40L116 44L112 44L112 48L108 48L108 52L104 52L104 56L100 56L100 60L96 60L96 64L92 64L92 72L88 72L88 80L84 80L84 88L80 88L80 96L76 96L76 104L72 104L72 112L68 112L68 120L64 120L64 128L60 128L60 136L56 136L56 144L52 144L52 148L64 148L64 152L48 152L48 160L44 160L44 172L40 172L40 184L44 184L44 188L48 188L48 192L52 192L52 196L56 196L56 192L60 192L60 188L64 188L64 184L68 184L68 180L72 180L72 176L84 176L84 184L88 184L88 176L92 176L92 180L96 180L96 176L104 176L104 172L112 172L112 168L120 168L120 164L128 164L128 160L136 160L136 156L144 156L144 152L156 152L156 148L160 148L160 144L168 144L168 136L164 136L164 128L160 128L160 120L156 120L156 116L152 116L152 112L156 112L156 108L160 108L160 104L164 104L164 100L168 100L168 96L172 96L172 92L176 92L176 88L180 88L180 84L184 84L184 80L188 80L188 76L192 76L192 72L196 72L196 68L200 68L200 64L204 64L204 60L208 60L208 56L212 56L212 52L216 52L216 48L220 48L220 44L224 44L224 40L228 40L228 36L232 36L232 8L196 8L196 12L188 12L188 8L148 8z"/>
<path style="fill:#3a3f5e; stroke:none;" d="M188 8L188 12L196 12L196 8L188 8M180 12L180 16L184 16L184 20L188 20L188 24L192 24L192 28L196 28L196 24L192 24L192 20L188 20L188 16L184 16L184 12L180 12M196 12L196 16L200 16L200 20L204 20L204 16L200 16L200 12L196 12M172 20L172 24L176 24L176 28L184 28L184 24L176 24L176 20L172 20M164 28L164 32L160 32L160 36L156 36L156 40L160 40L160 44L164 44L164 40L172 40L172 44L168 44L168 48L176 48L176 36L164 36L164 32L168 32L168 28L164 28z"/>
<path style="fill:#ff0ec0; stroke:none;" d="M160 36L160 40L164 40L164 36L160 36z"/>
<path style="fill:#3a3f5e; stroke:none;" d="M228 36L228 40L224 40L224 44L220 44L220 48L216 48L216 52L212 52L212 56L208 56L208 60L204 60L204 64L200 64L200 68L196 68L196 72L192 72L192 76L188 76L188 80L184 80L184 84L180 84L180 88L176 88L176 92L172 92L172 96L168 96L168 100L164 100L164 104L160 104L160 108L156 108L156 112L152 112L152 116L156 116L156 120L160 120L160 128L164 128L164 136L168 136L168 144L160 144L160 148L156 148L156 152L144 152L144 156L136 156L136 160L128 160L128 164L120 164L120 168L112 168L112 172L104 172L104 176L96 176L96 180L92 180L92 176L88 176L88 184L84 184L84 176L72 176L72 180L68 180L68 184L64 184L64 188L60 188L60 192L56 192L56 200L72 200L72 196L80 196L80 192L88 192L88 188L96 188L96 184L104 184L104 180L112 180L112 176L120 176L120 172L128 172L128 168L136 168L136 164L144 164L144 160L152 160L152 156L160 156L160 152L168 152L168 148L176 148L176 140L180 140L180 136L184 136L184 132L188 132L188 128L192 128L192 124L196 124L196 120L200 120L200 116L204 116L204 112L208 112L208 108L212 108L212 104L216 104L216 100L220 100L220 96L224 96L224 92L228 92L228 88L232 88L232 36L228 36M148 44L148 52L156 52L156 56L160 56L160 60L164 60L164 56L160 56L160 52L156 52L156 48L152 48L152 44L148 44M136 56L136 68L140 68L140 60L144 60L144 76L148 76L148 72L152 72L152 68L156 68L156 64L152 64L152 68L148 68L148 56L136 56z"/>
<path style="fill:#ff0ec0; stroke:none;" d="M228 88L228 92L232 92L232 88L228 88M224 92L224 96L228 96L228 92L224 92M220 96L220 100L224 100L224 96L220 96M216 100L216 104L220 104L220 100L216 100M212 104L212 108L216 108L216 104L212 104M208 108L208 112L212 112L212 108L208 108M204 112L204 116L208 116L208 112L204 112M200 116L200 120L204 120L204 116L200 116z"/>
<path style="fill:#3a3f5e; stroke:none;" d="M152 120L152 128L156 128L156 120L152 120z"/>
<path style="fill:#ff0ec0; stroke:none;" d="M196 120L196 124L200 124L200 120L196 120M192 124L192 128L196 128L196 124L192 124M188 128L188 132L192 132L192 128L188 128z"/>
<path style="fill:#3a3f5e; stroke:none;" d="M152 132L152 148L156 148L156 132L152 132z"/>
<path style="fill:#ff0ec0; stroke:none;" d="M184 132L184 136L188 136L188 132L184 132M180 136L180 140L184 140L184 136L180 136M176 140L176 144L180 144L180 140L176 140z"/>
<path style="fill:#3a3f5e; stroke:none;" d="M52 148L52 152L64 152L64 148L52 148M64 152L64 156L52 156L52 168L56 168L56 172L52 172L52 176L48 176L48 180L44 180L44 184L48 184L48 180L52 180L52 176L56 176L56 172L60 172L60 176L64 176L64 180L68 180L68 176L64 176L64 172L60 172L60 168L64 168L64 156L68 156L68 168L72 168L72 172L84 172L84 176L88 176L88 172L84 172L84 168L72 168L72 156L68 156L68 152L64 152z"/>
<path style="fill:#ff0ec0; stroke:none;" d="M32 184L32 188L28 188L28 192L24 192L24 196L28 196L28 200L32 200L32 204L36 204L36 208L40 208L40 204L44 204L44 200L48 200L48 196L44 196L44 192L40 192L40 188L36 188L36 184L32 184z"/>
<path style="fill:#ffffff; stroke:none;" d="M184 196L184 208L220 208L220 196L184 196z"/>
<path style="fill:#3a3f5e; stroke:none;" d="M24 200L24 204L28 204L28 208L32 208L32 212L28 212L28 216L24 216L24 220L20 220L20 224L16 224L16 228L12 228L12 232L24 232L24 228L28 228L28 224L32 224L32 220L36 220L36 216L40 216L40 212L44 212L44 216L56 216L56 220L64 220L64 212L52 212L52 208L56 208L56 204L52 204L52 200L44 200L44 204L40 204L40 208L36 208L36 204L32 204L32 200L24 200z"/>
<path style="fill:#ff0ec0; stroke:none;" d="M20 204L20 208L16 208L16 212L12 212L12 216L8 216L8 232L12 232L12 228L16 228L16 224L20 224L20 220L24 220L24 216L28 216L28 212L32 212L32 208L28 208L28 204L20 204M52 208L52 212L60 212L60 208L52 208z"/>
</svg>
