<?xml version="1.0" standalone="yes"?>
<svg xmlns="http://www.w3.org/2000/svg" width="240" height="240">
<path style="fill:#1b1f21; stroke:none;" d="M0 0L0 240L240 240L240 0L0 0z"/>
<path style="fill:#ff0ec0; stroke:none;" d="M168 40L168 44L160 44L160 48L156 48L156 52L152 52L152 56L148 56L148 60L144 60L144 64L140 64L140 68L136 68L136 72L128 72L128 76L124 76L124 80L128 80L128 84L132 84L132 88L136 88L136 92L140 92L140 96L148 96L148 92L152 92L152 88L156 88L156 92L160 92L160 96L164 96L164 100L168 100L168 92L164 92L164 80L168 80L168 76L172 76L172 72L188 72L188 76L192 76L192 80L196 80L196 88L192 88L192 92L188 92L188 100L192 100L192 96L196 96L196 92L200 92L200 88L204 88L204 84L208 84L208 80L212 80L212 76L216 76L216 72L220 72L220 68L216 68L216 64L212 64L212 60L208 60L208 56L204 56L204 52L200 52L200 48L196 48L196 44L188 44L188 40L168 40z"/>
<path style="fill:#3a3f5e; stroke:none;" d="M172 48L172 52L168 52L168 56L160 56L160 60L176 60L176 56L180 56L180 48L172 48M132 68L132 72L136 72L136 68L132 68M220 68L220 72L216 72L216 76L212 76L212 80L208 80L208 84L204 84L204 88L200 88L200 92L196 92L196 96L192 96L192 100L188 100L188 104L192 104L192 108L196 108L196 112L204 112L204 108L208 108L208 104L212 104L212 100L216 100L216 96L220 96L220 92L224 92L224 88L228 88L228 84L232 84L232 76L228 76L228 72L224 72L224 68L220 68M136 72L136 76L140 76L140 80L144 80L144 84L148 84L148 88L152 88L152 84L148 84L148 80L144 80L144 76L140 76L140 72L136 72M172 72L172 76L168 76L168 80L164 80L164 92L172 92L172 88L184 88L184 92L192 92L192 88L196 88L196 80L192 80L192 76L188 76L188 72L172 72M124 80L124 84L128 84L128 80L124 80M128 84L128 88L132 88L132 84L128 84z"/>
<path style="fill:#ff0ec0; stroke:none;" d="M120 88L120 92L116 92L116 96L112 96L112 100L108 100L108 104L104 104L104 108L100 108L100 112L96 112L96 116L92 116L92 120L88 120L88 124L84 124L84 128L80 128L80 132L76 132L76 136L72 136L72 140L68 140L68 144L64 144L64 148L60 148L60 152L56 152L56 156L52 156L52 160L48 160L48 164L44 164L44 168L40 168L40 172L36 172L36 176L32 176L32 180L28 180L28 184L24 184L24 188L20 188L20 192L16 192L16 196L12 196L12 200L8 200L8 224L12 224L12 220L16 220L16 216L20 216L20 212L24 212L24 208L28 208L28 200L32 200L32 192L36 192L36 188L40 188L40 192L44 192L44 184L48 184L48 176L52 176L52 168L56 168L56 164L60 164L60 172L64 172L64 168L68 168L68 164L72 164L72 160L76 160L76 156L80 156L80 152L84 152L84 148L88 148L88 144L92 144L92 140L96 140L96 136L100 136L100 132L104 132L104 128L108 128L108 124L112 124L112 120L116 120L116 116L120 116L120 108L116 108L116 104L120 104L120 100L124 100L124 96L128 96L128 92L124 92L124 88L120 88z"/>
<path style="fill:#3a3f5e; stroke:none;" d="M132 88L132 92L136 92L136 88L132 88M152 88L152 92L148 92L148 96L140 96L140 100L144 100L144 104L148 104L148 108L152 108L152 112L160 112L160 108L164 108L164 104L168 104L168 100L164 100L164 96L160 96L160 92L156 92L156 88L152 88z"/>
<path style="fill:#1b1f21; stroke:none;" d="M120 92L120 96L116 96L116 100L112 100L112 104L116 104L116 100L120 100L120 96L124 96L124 92L120 92z"/>
<path style="fill:#3a3f5e; stroke:none;" d="M136 92L136 96L140 96L140 92L136 92z"/>
<path style="fill:#1b1f21; stroke:none;" d="M124 96L124 100L120 100L120 104L116 104L116 108L120 108L120 112L124 112L124 116L128 116L128 120L132 120L132 124L136 124L136 120L140 120L140 116L144 116L144 112L140 112L140 108L136 108L136 104L132 104L132 100L128 100L128 96L124 96z"/>
<path style="fill:#3a3f5e; stroke:none;" d="M128 96L128 100L132 100L132 96L128 96M124 100L124 104L120 104L120 108L124 108L124 112L128 112L128 116L132 116L132 120L136 120L136 116L140 116L140 112L136 112L136 108L132 108L132 104L128 104L128 100L124 100M132 100L132 104L136 104L136 100L132 100z"/>
<path style="fill:#1b1f21; stroke:none;" d="M124 104L124 108L128 108L128 112L132 112L132 116L136 116L136 112L132 112L132 108L128 108L128 104L124 104z"/>
<path style="fill:#3a3f5e; stroke:none;" d="M136 104L136 108L140 108L140 104L136 104M140 108L140 112L144 112L144 108L140 108M120 112L120 116L116 116L116 120L112 120L112 124L108 124L108 128L104 128L104 132L100 132L100 136L96 136L96 140L92 140L92 144L88 144L88 148L84 148L84 152L80 152L80 156L76 156L76 160L72 160L72 164L68 164L68 168L64 168L64 172L60 172L60 164L56 164L56 168L52 168L52 176L48 176L48 184L44 184L44 192L40 192L40 188L36 188L36 192L32 192L32 200L28 200L28 208L24 208L24 212L20 212L20 216L16 216L16 220L12 220L12 224L8 224L8 232L32 232L32 228L36 228L36 224L40 224L40 220L44 220L44 216L48 216L48 212L52 212L52 208L56 208L56 204L60 204L60 200L64 200L64 196L68 196L68 192L72 192L72 188L76 188L76 184L80 184L80 180L84 180L84 176L88 176L88 172L92 172L92 168L96 168L96 164L100 164L100 160L104 160L104 156L108 156L108 152L112 152L112 148L116 148L116 144L120 144L120 140L124 140L124 136L128 136L128 132L132 132L132 128L136 128L136 124L132 124L132 120L128 120L128 116L124 116L124 112L120 112M144 112L144 116L148 116L148 112L144 112M140 116L140 120L144 120L144 116L140 116M96 120L96 124L100 124L100 128L104 128L104 124L100 124L100 120L96 120M136 120L136 124L140 124L140 120L136 120M72 140L72 148L76 148L76 152L80 152L80 148L76 148L76 140L72 140M48 164L48 168L52 168L52 164L48 164z"/>
<path style="fill:#ffffff; stroke:none;" d="M196 184L196 196L184 196L184 208L196 208L196 220L208 220L208 208L220 208L220 196L208 196L208 184L196 184z"/>
</svg>
