<?xml version="1.0" standalone="yes"?>
<svg xmlns="http://www.w3.org/2000/svg" width="240" height="240">
<path style="fill:#1b1f21; stroke:none;" d="M0 0L0 240L240 240L240 0L0 0z"/>
<path style="fill:#3a3f5e; stroke:none;" d="M200 8L200 24L204 24L204 48L200 48L200 60L196 60L196 68L192 68L192 76L188 76L188 80L184 80L184 60L180 60L180 64L176 64L176 68L172 68L172 72L168 72L168 76L164 76L164 96L168 96L168 92L172 92L172 88L176 88L176 84L180 84L180 80L184 80L184 92L188 92L188 88L192 88L192 84L196 84L196 80L200 80L200 76L204 76L204 68L208 68L208 56L212 56L212 24L208 24L208 16L204 16L204 8L200 8z"/>
<path style="fill:#ff0ec0; stroke:none;" d="M196 16L196 24L192 24L192 28L188 28L188 32L184 32L184 36L180 36L180 40L176 40L176 52L172 52L172 56L168 56L168 60L164 60L164 64L160 64L160 68L156 68L156 72L152 72L152 76L140 76L140 80L136 80L136 84L132 84L132 88L128 88L128 92L124 92L124 96L120 96L120 100L116 100L116 104L112 104L112 108L108 108L108 112L104 112L104 116L100 116L100 120L96 120L96 140L92 140L92 128L88 128L88 148L84 148L84 136L80 136L80 156L76 156L76 144L72 144L72 164L68 164L68 152L64 152L64 156L60 156L60 160L56 160L56 164L60 164L60 168L64 168L64 172L68 172L68 176L72 176L72 180L76 180L76 164L80 164L80 160L84 160L84 156L88 156L88 160L92 160L92 156L96 156L96 152L100 152L100 136L104 136L104 132L108 132L108 128L112 128L112 124L116 124L116 120L120 120L120 136L124 136L124 132L128 132L128 128L132 128L132 108L136 108L136 104L140 104L140 100L144 100L144 96L148 96L148 92L152 92L152 108L156 108L156 104L160 104L160 100L164 100L164 76L168 76L168 72L172 72L172 68L176 68L176 64L180 64L180 60L184 60L184 80L188 80L188 76L192 76L192 68L196 68L196 60L200 60L200 48L204 48L204 24L200 24L200 16L196 16z"/>
<path style="fill:#3a3f5e; stroke:none;" d="M148 92L148 96L144 96L144 100L140 100L140 104L136 104L136 108L132 108L132 124L136 124L136 120L140 120L140 116L144 116L144 112L148 112L148 108L152 108L152 92L148 92M160 100L160 104L156 104L156 108L152 108L152 116L156 116L156 112L160 112L160 108L164 108L164 100L160 100M116 120L116 124L112 124L112 128L108 128L108 132L104 132L104 136L100 136L100 152L104 152L104 148L108 148L108 144L112 144L112 140L120 140L120 144L124 144L124 140L128 140L128 136L132 136L132 128L128 128L128 132L124 132L124 136L120 136L120 120L116 120M96 152L96 156L92 156L92 160L88 160L88 156L84 156L84 160L80 160L80 164L76 164L76 172L80 172L80 168L84 168L84 164L88 164L88 168L92 168L92 164L96 164L96 160L100 160L100 152L96 152M52 164L52 168L56 168L56 172L60 172L60 184L56 184L56 188L52 188L52 192L48 192L48 196L44 196L44 200L40 200L40 204L36 204L36 208L32 208L32 212L28 212L28 216L24 216L24 224L12 224L12 220L8 220L8 228L12 228L12 232L32 232L32 220L36 220L36 212L40 212L40 208L44 208L44 204L48 204L48 200L52 200L52 196L56 196L56 192L60 192L60 188L64 188L64 184L68 184L68 176L64 176L64 172L60 172L60 168L56 168L56 164L52 164z"/>
<path style="fill:#1b1f21; stroke:none;" d="M56 164L56 168L60 168L60 164L56 164z"/>
<path style="fill:#ff0ec0; stroke:none;" d="M48 168L48 172L44 172L44 176L40 176L40 180L36 180L36 184L32 184L32 188L28 188L28 192L24 192L24 196L20 196L20 200L16 200L16 204L12 204L12 212L8 212L8 220L12 220L12 224L24 224L24 216L28 216L28 212L32 212L32 208L36 208L36 204L40 204L40 200L44 200L44 196L48 196L48 192L52 192L52 188L56 188L56 184L60 184L60 172L56 172L56 168L48 168z"/>
<path style="fill:#1b1f21; stroke:none;" d="M60 168L60 172L64 172L64 168L60 168M64 172L64 176L68 176L68 172L64 172z"/>
<path style="fill:#3a3f5e; stroke:none;" d="M48 180L48 184L52 184L52 180L48 180M40 188L40 192L44 192L44 188L40 188M32 196L32 200L36 200L36 196L32 196z"/>
<path style="fill:#ffffff; stroke:none;" d="M184 196L184 208L220 208L220 196L184 196z"/>
<path style="fill:#3a3f5e; stroke:none;" d="M24 204L24 208L28 208L28 204L24 204z"/>
</svg>
