<?xml version="1.0" encoding="UTF-8" standalone="no"?>
<!-- Generator: Adobe Illustrator 18.0.0, SVG Export Plug-In . SVG Version: 6.00 Build 0)  -->

<svg
   version="1.1"
   id="Capa_1"
   x="0px"
   y="0px"
   viewBox="0 0 512 512"
   height="512"
   width="512"
   style="enable-background:new 0 0 512 512;"
   xml:space="preserve"
   sodipodi:docname="martial_arts.svg"
   inkscape:version="1.1.1 (3bf5ae0d25, 2021-09-20)"
   xmlns:inkscape="http://www.inkscape.org/namespaces/inkscape"
   xmlns:sodipodi="http://sodipodi.sourceforge.net/DTD/sodipodi-0.dtd"
   xmlns="http://www.w3.org/2000/svg"
   xmlns:svg="http://www.w3.org/2000/svg"><defs
   id="defs43"><filter
     style="color-interpolation-filters:sRGB;"
     inkscape:label="Drop Shadow"
     id="filter925"
     x="-0.2500465"
     y="-0.16037961"
     width="1.4869327"
     height="1.3123182"><feFlood
       flood-opacity="1"
       flood-color="rgb(58,63,94)"
       result="flood"
       id="feFlood915" /><feComposite
       in="flood"
       in2="SourceGraphic"
       operator="out"
       result="composite1"
       id="feComposite917" /><feGaussianBlur
       in="composite1"
       stdDeviation="15"
       result="blur"
       id="feGaussianBlur919" /><feOffset
       dx="0"
       dy="0"
       result="offset"
       id="feOffset921" /><feComposite
       in="offset"
       in2="SourceGraphic"
       operator="atop"
       result="composite2"
       id="feComposite923" /></filter><filter
     style="color-interpolation-filters:sRGB;"
     inkscape:label="Drop Shadow"
     id="filter975"
     x="-0.097771604"
     y="-0.062710621"
     width="1.1955432"
     height="1.1254212"><feFlood
       flood-opacity="1"
       flood-color="rgb(58,63,94)"
       result="flood"
       id="feFlood965" /><feComposite
       in="flood"
       in2="SourceGraphic"
       operator="out"
       result="composite1"
       id="feComposite967" /><feGaussianBlur
       in="composite1"
       stdDeviation="12.3821"
       result="blur"
       id="feGaussianBlur969" /><feOffset
       dx="0"
       dy="0"
       result="offset"
       id="feOffset971" /><feComposite
       in="offset"
       in2="SourceGraphic"
       operator="atop"
       result="composite2"
       id="feComposite973" /></filter></defs><sodipodi:namedview
   id="namedview41"
   pagecolor="#505050"
   bordercolor="#eeeeee"
   borderopacity="1"
   inkscape:pageshadow="0"
   inkscape:pageopacity="0"
   inkscape:pagecheckerboard="0"
   showgrid="false"
   inkscape:zoom="1.7050781"
   inkscape:cx="190.31386"
   inkscape:cy="216.11913"
   inkscape:window-width="1716"
   inkscape:window-height="1414"
   inkscape:window-x="3160"
   inkscape:window-y="587"
   inkscape:window-maximized="1"
   inkscape:current-layer="Capa_1" />
<g
   id="g949"
   transform="translate(-372.75144,42.731171)"
   style="fill:#1b1f21;fill-opacity:0"><path
     d="m 372.75144,-42.731172 h 512 V 469.26883 h -512 z"
     fill="#b90202"
     fill-opacity="1"
     id="path902"
     sodipodi:nodetypes="ccccc"
     style="fill:#1b1f21;fill-opacity:0" /><g
     id="g1524"
     transform="matrix(0.65299367,0.65095314,-0.65095314,0.65299367,760.96027,405.16803)"
     style="fill:#1b1f21;fill-opacity:0"><g
       class=""
       id="g1513"
       style="fill:#1b1f21;fill-opacity:0" /></g><g
     id="g1741"
     transform="matrix(0.73148951,-0.72519164,0.72519164,0.73148951,174.72172,-127.52936)"
     style="fill:#1b1f21;fill-opacity:0"><g
       class=""
       id="g1730"
       style="fill:#1b1f21;fill-opacity:0" /></g></g>
<g
   id="g10">
</g>
<g
   id="g12">
</g>
<g
   id="g14">
</g>
<g
   id="g16">
</g>
<g
   id="g18">
</g>
<g
   id="g20">
</g>
<g
   id="g22">
</g>
<g
   id="g24">
</g>
<g
   id="g26">
</g>
<g
   id="g28">
</g>
<g
   id="g30">
</g>
<g
   id="g32">
</g>
<g
   id="g34">
</g>
<g
   id="g36">
</g>
<g
   id="g38">
</g>
<g
   id="g984"
   transform="translate(184.0374,57.853424)"
   style="fill:#ff0ec0;fill-opacity:1;filter:url(#filter975)"><g
     id="g1061"
     transform="matrix(1.2631713,0,0,1.2631713,0.00590226,-54.104753)"
     style="fill:#ff0ec0;fill-opacity:1"><g
       id="g1005"
       style="fill:#ff0ec0;fill-opacity:1">
	<g
   id="g1003"
   transform="matrix(1.1492971,0,0,1.1492971,-130.6087,12.123373)"
   style="fill:#ff0ec0;fill-opacity:1">
		<path
   id="circle999"
   style="fill:#ff0ec0;stroke-width:1.45176;fill-opacity:1"
   d="M 192.83594,16.044922 A 42.992395,42.992395 0 0 0 149.8418,59.037109 42.992395,42.992395 0 0 0 192.83594,102.0293 42.992395,42.992395 0 0 0 235.82812,59.037109 42.992395,42.992395 0 0 0 192.83594,16.044922 Z M 66.701172,81.222656 v 17.921875 l -22.44336,-8.558593 c -9.848733,-2.052791 -19.489627,4.253717 -21.535156,14.093752 -2.061498,9.83131 4.245016,19.48963 14.09375,21.53515 l 29.884766,10.42969 v 17.30859 l 88.999998,35.10938 c 3.03459,20.74656 5.84562,42.33993 8.40039,64.45508 l 100.47852,-1.16406 c -0.95446,-8.73829 -1.94813,-17.47506 -3.00977,-26.19727 l -22.59179,7.11133 c -9.32029,3.79344 -19.93313,-0.67565 -23.72657,-9.97852 -3.79345,-9.31157 0.68541,-19.9331 9.98828,-23.72656 l 27.40821,-11.16602 8.92187,37.75977 c 15.70513,-9.23464 31.06292,-20.03561 46.82031,-32.92578 6.09888,-4.98099 9.60585,-12.61413 9.91797,-21.48438 0.33826,-9.71952 -3.28207,-19.09146 -9.6582,-25.06836 -24.47956,-22.96392 -53.74998,-30.0763 -84.73633,-37.62109 l -2.12304,-0.51953 c -0.88413,-0.30342 -1.81734,-0.45899 -2.78711,-0.45899 -23.9017,24.92562 -21.21542,4.62823 -41.60743,3.6211 -1.41256,0 -2.78918,0.37317 -3.99414,1.0918 -4.9984,3.02256 -9.27649,1.72263 -12.75781,6.05468 z m 197.878908,171.130864 3.63867,13.57617 -102.39258,2.95703 c -29.5041,7.50124 -58.50593,19.53237 -86.251951,35.80078 -8.315676,4.86775 -13.418156,12.22419 -14.414063,20.79102 -0.995907,2.55509 -1.681668,5.27578 -2.009765,8.08203 l -12.160157,99.69531 8.185547,1.55078 -3.59375,21.0918 c -2.148603,12.57804 6.306725,24.50569 18.884766,26.65429 12.578041,2.1399 24.522204,-6.31363 26.662113,-18.90039 l 3.45703,-20.2539 8.31445,1.58594 11.40039,-93.24219 c 27.0274,-14.10239 70.29573,-32.13011 79.70313,-36.00196 4.37415,0.68378 8.90442,0.81454 13.46875,0.39063 l 50.39843,141.36328 5.53516,-2.3125 8.39453,20.41602 c 4.85033,11.79844 18.34609,17.43716 30.14453,12.57812 11.80426,-4.83436 17.43682,-18.33101 12.59375,-30.13672 l -8.49023,-20.66797 3.75976,-1.56836 -1.51562,-4.44335 c -15.5603,-45.67329 -31.54041,-99.22153 -42.62891,-137.6543 l -2.22461,-8.29883 c 3.03998,5.62992 6.41187,11.13237 9.79883,16.55469 3.87182,6.1932 10.33368,-5.17002 7.26758,-10.05664 -5.0158,-8.02097 -3.68131,-20.26087 -1.31641,-15.23633 0.8754,1.84518 1.95884,2.67715 3.99414,2.7207 2.9544,0.0784 6.35893,-0.83195 7.98633,-3.58594 0.8493,-1.41255 1.62937,-2.74652 2.00977,-4.36523 0.1306,-0.48489 0.21634,-0.97125 0.27734,-1.46484 0.061,-0.32955 0.12019,-0.56283 0.17969,-0.76172 1.732,-2.25168 2.35776,-5.49948 1.31836,-8.15039 -1.083,-2.7627 -4.15003,-3.61213 -6.39453,-1.53321 -1.5069,1.38643 -2.59852,3.00368 -3.29102,4.875 -2.2952,-3.65553 -5.2139,-6.73835 -9.44141,-8.48046 -4.79955,-1.97439 -10.04172,-2.12265 -14.5625,-4.8418 -1.21222,-0.72733 -2.34725,-0.74454 -3.38671,-0.35547 -1.10915,-0.10452 -2.27679,0.57203 -3.29883,1.62891 z"
   transform="matrix(0.68881951,0,0,0.68881951,43.143452,-11.052347)" />

	</g>
</g><g
       id="g1007"
       style="fill:#ff0ec0;fill-opacity:1">
</g><g
       id="g1009"
       style="fill:#ff0ec0;fill-opacity:1">
</g><g
       id="g1011"
       style="fill:#ff0ec0;fill-opacity:1">
</g><g
       id="g1013"
       style="fill:#ff0ec0;fill-opacity:1">
</g><g
       id="g1015"
       style="fill:#ff0ec0;fill-opacity:1">
</g><g
       id="g1017"
       style="fill:#ff0ec0;fill-opacity:1">
</g><g
       id="g1019"
       style="fill:#ff0ec0;fill-opacity:1">
</g><g
       id="g1021"
       style="fill:#ff0ec0;fill-opacity:1">
</g><g
       id="g1023"
       style="fill:#ff0ec0;fill-opacity:1">
</g><g
       id="g1025"
       style="fill:#ff0ec0;fill-opacity:1">
</g><g
       id="g1027"
       style="fill:#ff0ec0;fill-opacity:1">
</g><g
       id="g1029"
       style="fill:#ff0ec0;fill-opacity:1">
</g><g
       id="g1031"
       style="fill:#ff0ec0;fill-opacity:1">
</g><g
       id="g1033"
       style="fill:#ff0ec0;fill-opacity:1">
</g><g
       id="g1035"
       style="fill:#ff0ec0;fill-opacity:1">
</g></g></g></svg>
