<?xml version="1.0" standalone="yes"?>
<svg xmlns="http://www.w3.org/2000/svg" width="240" height="240">
<path style="fill:#1b1f21; stroke:none;" d="M0 0L0 240L240 240L240 0L0 0z"/>
<path style="fill:#ff0ec0; stroke:none;" d="M56 76L56 80L52 80L52 104L60 104L60 100L192 100L192 96L196 96L196 76L108 76L108 80L112 80L112 84L108 84L108 88L104 88L104 92L80 92L80 88L76 88L76 80L80 80L80 76L56 76z"/>
<path style="fill:#1b1f21; stroke:none;" d="M76 80L76 88L80 88L80 92L104 92L104 88L108 88L108 84L112 84L112 80L108 80L108 84L104 84L104 88L80 88L80 80L76 80z"/>
<path style="fill:#3a3f5e; stroke:none;" d="M80 80L80 88L104 88L104 84L108 84L108 80L80 80z"/>
<path style="fill:#1b1f21; stroke:none;" d="M160 80L160 88L164 88L164 80L160 80M168 80L168 88L172 88L172 80L168 80M176 80L176 88L180 88L180 80L176 80M184 80L184 84L188 84L188 80L184 80z"/>
<path style="fill:#3a3f5e; stroke:none;" d="M196 80L196 92L200 92L200 80L196 80z"/>
<path style="fill:#1b1f21; stroke:none;" d="M120 84L120 88L116 88L116 92L120 92L120 88L124 88L124 92L128 92L128 88L132 88L132 92L136 92L136 88L140 88L140 84L136 84L136 88L132 88L132 84L128 84L128 88L124 88L124 84L120 84z"/>
<path style="fill:#3a3f5e; stroke:none;" d="M184 84L184 88L188 88L188 84L184 84z"/>
<path style="fill:#ff0ec0; stroke:none;" d="M120 88L120 92L124 92L124 88L120 88M128 88L128 92L132 92L132 88L128 88z"/>
<path style="fill:#3a3f5e; stroke:none;" d="M160 88L160 92L164 92L164 88L160 88M168 88L168 92L172 92L172 88L168 88M176 88L176 92L180 92L180 88L176 88M112 92L112 96L116 96L116 92L112 92M120 92L120 96L124 96L124 92L120 92M128 92L128 96L132 96L132 92L128 92M192 96L192 100L196 100L196 96L192 96M60 100L60 104L192 104L192 100L60 100z"/>
<path style="fill:#ff0ec0; stroke:none;" d="M60 108L60 116L64 116L64 112L68 112L68 108L60 108z"/>
<path style="fill:#3a3f5e; stroke:none;" d="M68 108L68 112L64 112L64 116L184 116L184 112L188 112L188 108L68 108M64 120L64 124L124 124L124 120L64 120z"/>
<path style="fill:#ff0ec0; stroke:none;" d="M124 120L124 140L128 140L128 132L132 132L132 128L136 128L136 124L140 124L140 120L124 120z"/>
<path style="fill:#3a3f5e; stroke:none;" d="M140 120L140 124L156 124L156 120L140 120z"/>
<path style="fill:#ff0ec0; stroke:none;" d="M64 128L64 136L60 136L60 144L56 144L56 152L52 152L52 160L48 160L48 168L44 168L44 180L48 180L48 184L52 184L52 188L56 188L56 192L60 192L60 196L76 196L76 192L64 192L64 188L60 188L60 184L56 184L56 180L52 180L52 176L60 176L60 168L64 168L64 160L68 160L68 152L72 152L72 144L84 144L84 140L88 140L88 132L92 132L92 128L64 128z"/>
<path style="fill:#3a3f5e; stroke:none;" d="M92 128L92 132L88 132L88 140L84 140L84 144L76 144L76 148L72 148L72 156L68 156L68 164L64 164L64 172L60 172L60 176L56 176L56 180L60 180L60 184L64 184L64 188L76 188L76 180L80 180L80 168L84 168L84 160L88 160L88 152L92 152L92 144L96 144L96 128L92 128M100 128L100 136L104 136L104 140L112 140L112 136L108 136L108 128L100 128z"/>
<path style="fill:#1b1f21; stroke:none;" d="M76 132L76 140L84 140L84 132L76 132M64 136L64 140L68 140L68 144L72 144L72 140L68 140L68 136L64 136z"/>
<path style="fill:#ff0ec0; stroke:none;" d="M120 140L120 144L124 144L124 140L120 140z"/>
<path style="fill:#1b1f21; stroke:none;" d="M60 144L60 148L64 148L64 152L68 152L68 148L64 148L64 144L60 144M72 144L72 148L76 148L76 144L72 144z"/>
<path style="fill:#ff0ec0; stroke:none;" d="M100 144L100 148L108 148L108 144L100 144z"/>
<path style="fill:#1b1f21; stroke:none;" d="M76 148L76 152L84 152L84 148L76 148M56 152L56 156L60 156L60 160L64 160L64 156L60 156L60 152L56 152M68 152L68 156L72 156L72 152L68 152M72 156L72 160L80 160L80 156L72 156M52 160L52 164L56 164L56 168L60 168L60 164L56 164L56 160L52 160M64 160L64 164L68 164L68 160L64 160M68 164L68 168L76 168L76 164L68 164M48 168L48 176L52 176L52 168L48 168M60 168L60 172L64 172L64 168L60 168M64 172L64 176L72 176L72 172L64 172M52 176L52 180L56 180L56 176L52 176M56 180L56 184L60 184L60 180L56 180M60 184L60 188L64 188L64 184L60 184z"/>
<path style="fill:#ffffff; stroke:none;" d="M196 184L196 196L184 196L184 208L196 208L196 220L208 220L208 208L220 208L220 196L208 196L208 184L196 184z"/>
</svg>
