<?xml version="1.0" encoding="UTF-8" standalone="no"?>
<svg
   width="512" height="512"
   viewBox="0 0 512 512"
   version="1.1"
   id="svg6"
   sodipodi:docname="microwaver.svg"
   inkscape:version="1.1.2 (0a00cf5339, 2022-02-04, custom)"
   xmlns:inkscape="http://www.inkscape.org/namespaces/inkscape"
   xmlns:sodipodi="http://sodipodi.sourceforge.net/DTD/sodipodi-0.dtd"
   xmlns="http://www.w3.org/2000/svg"
   xmlns:svg="http://www.w3.org/2000/svg">
  <defs
     id="defs10">
    <filter
       style="color-interpolation-filters:sRGB;"
       inkscape:label="Drop Shadow"
       id="filter3143"
       x="-0.19629367"
       y="-0.16333112"
       width="1.3925873"
       height="1.3266622">
      <feFlood
         flood-opacity="1"
         flood-color="rgb(58,63,94)"
         result="flood"
         id="feFlood3133" />
      <feComposite
         in="flood"
         in2="SourceGraphic"
         operator="out"
         result="composite1"
         id="feComposite3135" />
      <feGaussianBlur
         in="composite1"
         stdDeviation="15"
         result="blur"
         id="feGaussianBlur3137" />
      <feOffset
         dx="0"
         dy="0"
         result="offset"
         id="feOffset3139" />
      <feComposite
         in="offset"
         in2="SourceGraphic"
         operator="atop"
         result="composite2"
         id="feComposite3141" />
    </filter>
  </defs>
  <sodipodi:namedview
     id="namedview8"
     pagecolor="#ffffff"
     bordercolor="#666666"
     borderopacity="1.0"
     inkscape:pageshadow="2"
     inkscape:pageopacity="0.0"
     inkscape:pagecheckerboard="0"
     showgrid="false"
     inkscape:zoom="0.70710678"
     inkscape:cx="519.72348"
     inkscape:cy="99.702056"
     inkscape:window-width="1716"
     inkscape:window-height="1413"
     inkscape:window-x="3160"
     inkscape:window-y="673"
     inkscape:window-maximized="1"
     inkscape:current-layer="svg6" />
  <path
     d="M 0.00507541,0.00422205 H 512.00508 V 512.00422 H 0.00507541 Z"
     fill="#1b1f21"
     fill-opacity="0"
     id="path15" />
  <path
     id="path1264"
     style="fill:#ff0ec0;fill-opacity:1;stroke-width:0.948919;filter:url(#filter3143)"
     d="m 48.130653,285.34162 5.611887,7.23546 8.144748,-0.87893 36.373989,-3.20701 177.228973,-137.46038 56.22133,-43.60577 9.67079,12.46865 9.51976,12.27391 88.47905,-68.625151 C 405.67528,47.503521 405.65817,47.500998 399.8357,12.556029 L 254.51392,125.26891 Z M 347.36538,64.715807 c 1.11551,-0.702181 2.48934,-1.053909 4.01311,-0.861336 5.41788,0.684673 7.3056,7.577645 2.98992,10.924945 -2.67225,2.07262 -6.51829,1.58922 -8.59504,-1.07981 l -0.006,-0.007 c -2.09206,-2.69731 -1.49429,-6.133533 0.57186,-8.164207 0.30992,-0.304601 0.6538,-0.578454 1.02564,-0.812514 z m 19.82429,-15.361712 c 1.11518,-0.702591 2.48933,-1.053903 4.0131,-0.861329 5.41789,0.684673 7.30424,7.575873 2.98854,10.923165 -2.67459,2.081693 -6.53044,1.596703 -8.60761,-1.081394 l 0.007,-0.0055 c -2.09208,-2.697319 -1.49293,-6.13175 0.57322,-8.16244 0.30992,-0.304602 0.65392,-0.578318 1.02566,-0.812512 z M 327.5745,80.091316 c 1.1152,-0.7026 2.4911,-1.05528 4.01488,-0.8627 5.41787,0.68467 7.30383,7.57902 2.98814,10.92631 -2.67764,2.08987 -6.54578,1.60381 -8.62333,-1.08339 l 0.0215,-0.006 c -2.09154,-2.69663 -1.49167,-6.13155 0.57324,-8.16242 l 0.002,-10e-4 c 0.3095,-0.30398 0.65278,-0.57736 1.02388,-0.81115 z m 59.43807,-46.100704 c 1.11519,-0.70259 2.48932,-1.053902 4.0131,-0.861335 5.4179,0.684672 7.30561,7.577657 2.98991,10.924949 -2.6775,2.083956 -6.5392,1.593993 -8.61448,-1.09025 l 0.0126,0.0016 c -2.09205,-2.69731 -1.49291,-6.131749 0.57324,-8.162431 0.30992,-0.304602 0.65392,-0.578318 1.02566,-0.812522 z M 52.577698,298.5218 l -3.831699,9.54708 31.854715,41.07059 c 3.905253,5.33958 11.43652,6.4271 16.693566,2.41144 l 20.51139,-15.90882 c 8.42975,-6.53819 35.81024,-0.19207 35.95972,26.89687 0.15978,23.1904 13.48313,82.34906 20.19146,110.78195 1.8769,7.92593 10.81574,11.85412 17.92255,7.87462 l 59.97379,-33.21838 c 5.26328,-2.87323 7.63511,-9.16314 5.58098,-14.79679 l -30.32265,-89.40798 70.85513,-54.95586 7.81243,-16.83658 41.41199,18.0464 6.00014,-13.65317 -41.13489,-17.92676 2.46834,-5.3169 43.70245,19.04005 2.69617,1.1695 -1.18875,2.69692 -6.72569,15.3132 12.03244,5.26677 24.51161,-56.04114 -5.64271,-2.46802 -6.42183,14.67775 c -1.46245,3.34229 -4.49241,5.56415 -7.74212,6.98022 -3.24967,1.41604 -6.85545,2.15351 -10.17279,0.70249 l -27.05897,-11.83489 c -3.10458,-1.35797 -5.50218,-4.05074 -6.91148,-7.28791 -1.40899,-3.23753 -1.78636,-7.18176 -0.1763,-10.86159 l 6.44846,-14.74944 10.10403,-21.77821 3.78309,-28.96276 13.1503,-10.97071 -28.61967,-36.8996 -228.41894,177.16378 z M 368.68561,92.204186 c 1.11553,-0.70217 2.48934,-1.05391 4.01312,-0.86134 5.41789,0.68468 7.30561,7.57766 2.98991,10.924944 -2.66931,2.07036 -6.51093,1.59018 -8.58953,-1.07271 l -0.0115,-0.0141 c -2.09206,-2.697314 -1.49429,-6.133524 0.57186,-8.164204 0.30992,-0.30461 0.65381,-0.57847 1.02564,-0.81252 z m 19.8243,-15.36171 c 1.11518,-0.70259 2.48932,-1.05391 4.0131,-0.86133 5.41788,0.68467 7.30422,7.57587 2.98854,10.92316 -2.67167,2.07943 -6.52172,1.59943 -8.60075,-1.07254 l 0.001,-0.0126 c -2.09206,-2.69732 -1.4943,-6.13352 0.57186,-8.16421 0.30991,-0.3046 0.6539,-0.57832 1.02565,-0.81252 z M 348.89474,107.5797 c 1.11519,-0.7026 2.49109,-1.05529 4.01488,-0.86271 5.41787,0.68468 7.30245,7.57726 2.98676,10.92455 -2.6747,2.08758 -6.53566,1.60829 -8.61509,-1.07277 l 0.016,-0.0124 c -2.09153,-2.69663 -1.49304,-6.13333 0.57186,-8.1642 l 0.002,-10e-4 c 0.3095,-0.30398 0.65279,-0.57736 1.02389,-0.81115 z M 408.3328,61.478992 c 1.11519,-0.702582 2.48933,-1.053902 4.01311,-0.861336 5.41789,0.684672 7.30424,7.575889 2.98854,10.92318 -2.67459,2.08169 -6.52908,1.59848 -8.60624,-1.07962 l 0.007,-0.006 c -2.09205,-2.697311 -1.4943,-6.133527 0.57186,-8.164208 0.30993,-0.304601 0.65392,-0.578317 1.02565,-0.812521 z m -203.59772,215.450078 52.45577,-40.68517 29.5273,38.06983 -65.81668,51.04801 z m 21.64877,2.08114 0.007,0.009 0.0177,-0.0138 z m 0.007,0.009 -2.70157,2.09536 0.59265,5.21671 c 0,0 14.04747,9.42791 23.42631,4.1134 -15.18027,-1.91023 -21.29966,-11.39793 -21.31739,-11.42547 z m 119.06404,-79.59939 -2.48124,5.68415 -0.0411,-0.0164 -12.13389,27.74456 c -0.84982,1.94484 -0.68835,4.16213 0.18735,6.17468 0.87606,2.01286 2.49963,3.65099 3.87769,4.25378 l 27.05898,11.83488 c 0.79921,0.34954 3.22323,0.28109 5.47623,-0.70039 2.25295,-0.98179 4.18649,-2.74548 4.71762,-3.95958 l 2.38977,-5.46576 0.0726,0.0315 12.06369,-27.56819 -10e-4,-0.002 -5.37188,-2.34915 -2.4832,5.67432 -30.44072,-13.30338 2.48437,-5.68374 z m 0.49363,15.95728 c 1.3507,-0.8844 3.06497,-1.07413 4.61083,-0.39777 1.54601,0.67654 2.56971,2.06507 2.83506,3.65894 0.0197,0.11932 0.0377,0.23758 0.0489,0.35907 l 10e-4,0.002 c 0.0791,0.84985 -0.0587,1.74487 -0.43899,2.61443 -1.15943,2.64931 -4.06022,3.79349 -6.53357,2.71132 -2.47398,-1.08211 -3.60795,-3.99036 -2.44864,-6.6409 0.43476,-0.99373 1.11467,-1.77623 1.92509,-2.30687 z m -6.43939,14.72823 c 1.3478,-0.88587 3.05893,-1.07914 4.60397,-0.40663 l 0.0103,-0.002 c 1.54664,0.67645 2.56978,2.06465 2.83506,3.65894 0.0204,0.11991 0.0391,0.23927 0.0503,0.36085 0.0794,0.85199 -0.0569,1.75469 -0.43703,2.62425 -1.1594,2.64963 -4.06217,3.78366 -6.53552,2.7015 -2.47367,-1.08216 -3.60634,-3.98082 -2.44669,-6.63108 0.43417,-0.99269 1.11149,-1.77437 1.92017,-2.30588 z m 17.72093,-3.44368 c 2.49372,-1.58664 5.69947,-1.93124 8.63745,-0.64581 2.93829,1.28502 4.86709,3.87788 5.39714,6.78676 0.0391,0.21828 0.0687,0.43846 0.0922,0.65997 0.16833,1.54953 -0.0527,3.16766 -0.72773,4.70971 -2.05608,4.70071 -7.45389,6.81699 -12.15468,4.7603 -4.70071,-2.05609 -6.80705,-7.45493 -4.75045,-12.15663 0.77116,-1.76278 2.0098,-3.16232 3.50603,-4.1143 z m 35.64627,20.96175 -20.77281,47.48194 c 12.17672,2.95427 25.08907,-3.15587 30.28491,-15.0314 1.87661,-4.28927 2.52959,-8.8086 2.09226,-13.15699 l -10e-4,-0.002 c -0.0292,-0.28967 -0.0661,-0.57823 -0.1045,-0.86593 -0.99009,-7.36173 -5.07962,-14.16085 -11.49843,-18.42586 z"
     transform="rotate(37.194316,229.54181,221.5538)"
     sodipodi:nodetypes="cccccccccccccssccsccsscccssscscccccccsscccsssccccsccccccccccccccccccccsccccccccccccssccscccscccscccsccccccccscccsccccccccccccccccccccccccccccccccccscccccccssccccccccccscccccsssccsccccc" />
  <g
     class=""
     style=""
     transform="translate(0,0)"
     id="g4" />
</svg>
