<?xml version="1.0" standalone="yes"?>
<svg xmlns="http://www.w3.org/2000/svg" width="240" height="240">
<path style="fill:#1b1f21; stroke:none;" d="M0 0L0 240L240 240L240 0L0 0z"/>
<path style="fill:#ff0ec0; stroke:none;" d="M196 8L196 12L192 12L192 16L188 16L188 20L184 20L184 24L180 24L180 28L176 28L176 32L172 32L172 36L168 36L168 48L164 48L164 60L160 60L160 64L156 64L156 68L152 68L152 72L148 72L148 76L144 76L144 84L140 84L140 88L136 88L136 92L132 92L132 96L128 96L128 100L124 100L124 104L120 104L120 108L116 108L116 112L112 112L112 116L108 116L108 120L104 120L104 124L100 124L100 128L96 128L96 132L92 132L92 136L88 136L88 140L84 140L84 144L80 144L80 148L76 148L76 152L72 152L72 160L64 160L64 164L60 164L60 168L56 168L56 172L60 172L60 176L68 176L68 172L72 172L72 168L76 168L76 164L80 164L80 160L88 160L88 156L92 156L92 152L96 152L96 148L100 148L100 144L104 144L104 140L108 140L108 136L112 136L112 132L120 132L120 128L124 128L124 124L128 124L128 120L132 120L132 116L136 116L136 112L140 112L140 108L144 108L144 104L148 104L148 100L152 100L152 96L156 96L156 92L160 92L160 88L164 88L164 84L168 84L168 80L172 80L172 76L176 76L176 72L180 72L180 68L184 68L184 64L188 64L188 60L192 60L192 56L196 56L196 52L200 52L200 48L204 48L204 40L208 40L208 32L212 32L212 24L216 24L216 12L220 12L220 8L196 8z"/>
<path style="fill:#3a3f5e; stroke:none;" d="M220 8L220 12L216 12L216 24L212 24L212 32L208 32L208 40L204 40L204 48L200 48L200 52L196 52L196 56L192 56L192 60L188 60L188 64L184 64L184 68L180 68L180 72L176 72L176 76L172 76L172 80L168 80L168 84L164 84L164 88L160 88L160 92L156 92L156 96L152 96L152 100L148 100L148 104L144 104L144 108L140 108L140 112L136 112L136 116L132 116L132 120L128 120L128 124L124 124L124 128L120 128L120 132L112 132L112 136L108 136L108 140L104 140L104 144L100 144L100 148L96 148L96 152L92 152L92 156L88 156L88 160L80 160L80 164L76 164L76 168L72 168L72 172L68 172L68 176L60 176L60 172L56 172L56 168L52 168L52 176L48 176L48 180L44 180L44 184L40 184L40 188L36 188L36 192L32 192L32 196L28 196L28 200L24 200L24 204L20 204L20 208L16 208L16 212L12 212L12 216L8 216L8 224L12 224L12 228L16 228L16 232L24 232L24 228L28 228L28 224L32 224L32 220L36 220L36 216L40 216L40 212L44 212L44 208L48 208L48 204L52 204L52 200L56 200L56 196L60 196L60 192L64 192L64 188L72 188L72 184L76 184L76 180L80 180L80 176L84 176L84 172L88 172L88 168L92 168L92 164L96 164L96 160L104 160L104 156L108 156L108 152L112 152L112 148L116 148L116 144L120 144L120 140L128 140L128 136L132 136L132 132L136 132L136 128L140 128L140 124L148 124L148 120L152 120L152 116L156 116L156 112L160 112L160 108L164 108L164 104L172 104L172 100L176 100L176 96L180 96L180 92L184 92L184 88L188 88L188 84L196 84L196 80L200 80L200 76L204 76L204 72L208 72L208 68L212 68L212 64L216 64L216 60L220 60L220 56L224 56L224 48L228 48L228 32L232 32L232 8L220 8z"/>
<path style="fill:#ff0ec0; stroke:none;" d="M44 156L44 164L48 164L48 156L44 156z"/>
<path style="fill:#3a3f5e; stroke:none;" d="M68 156L68 160L72 160L72 156L68 156M72 160L72 164L76 164L76 160L72 160z"/>
<path style="fill:#ff0ec0; stroke:none;" d="M48 164L48 168L52 168L52 164L48 164M80 168L80 172L84 172L84 168L80 168M52 180L52 188L60 188L60 180L52 180z"/>
<path style="fill:#3a3f5e; stroke:none;" d="M72 188L72 192L76 192L76 188L72 188z"/>
<path style="fill:#ff0ec0; stroke:none;" d="M40 192L40 200L48 200L48 192L40 192z"/>
<path style="fill:#3a3f5e; stroke:none;" d="M76 192L76 196L84 196L84 192L76 192z"/>
<path style="fill:#ff0ec0; stroke:none;" d="M28 204L28 212L36 212L36 204L28 204M16 216L16 224L24 224L24 216L16 216M8 224L8 232L16 232L16 228L12 228L12 224L8 224z"/>
</svg>
