<?xml version="1.0" standalone="yes"?>
<svg xmlns="http://www.w3.org/2000/svg" width="240" height="240">
<path style="fill:#1b1f21; stroke:none;" d="M0 0L0 240L240 240L240 0L0 0z"/>
<path style="fill:#ff0ec0; stroke:none;" d="M100 8L100 12L88 12L88 20L128 20L128 12L108 12L108 8L100 8M76 12L76 20L84 20L84 12L76 12M132 12L132 20L144 20L144 12L132 12z"/>
<path style="fill:#3a3f5e; stroke:none;" d="M76 20L76 28L84 28L84 20L76 20M88 20L88 24L128 24L128 20L88 20M132 20L132 28L144 28L144 20L132 20z"/>
<path style="fill:#ff0ec0; stroke:none;" d="M68 32L68 36L60 36L60 40L232 40L232 36L228 36L228 32L224 32L224 36L216 36L216 32L212 32L212 36L204 36L204 32L200 32L200 36L192 36L192 32L188 32L188 36L180 36L180 32L176 32L176 36L168 36L168 32L164 32L164 36L156 36L156 32L152 32L152 36L144 36L144 32L140 32L140 36L132 36L132 32L128 32L128 36L120 36L120 32L116 32L116 36L108 36L108 32L104 32L104 36L96 36L96 32L92 32L92 36L84 36L84 32L80 32L80 36L72 36L72 32L68 32z"/>
<path style="fill:#3a3f5e; stroke:none;" d="M60 40L60 44L232 44L232 40L60 40z"/>
<path style="fill:#ff0ec0; stroke:none;" d="M16 48L16 76L44 76L44 48L16 48z"/>
<path style="fill:#3a3f5e; stroke:none;" d="M44 48L44 76L16 76L16 100L196 100L196 96L204 96L204 76L144 76L144 48L140 48L140 52L136 52L136 76L52 76L52 52L48 52L48 48L44 48z"/>
<path style="fill:#ff0ec0; stroke:none;" d="M144 48L144 76L204 76L204 52L196 52L196 48L144 48M8 52L8 76L12 76L12 52L8 52M52 52L52 76L136 76L136 52L52 52M208 56L208 76L232 76L232 56L208 56z"/>
<path style="fill:#3a3f5e; stroke:none;" d="M8 76L8 96L12 96L12 76L8 76M208 76L208 92L232 92L232 76L208 76z"/>
<path style="fill:#ff0ec0; stroke:none;" d="M24 104L24 108L8 108L8 112L32 112L32 116L36 116L36 120L56 120L56 112L216 112L216 116L220 116L220 120L224 120L224 128L228 128L228 112L224 112L224 108L212 108L212 104L24 104z"/>
<path style="fill:#1b1f21; stroke:none;" d="M40 108L40 116L44 116L44 108L40 108M48 108L48 116L52 116L52 108L48 108z"/>
<path style="fill:#3a3f5e; stroke:none;" d="M8 112L8 116L32 116L32 112L8 112M128 112L128 124L212 124L212 116L216 116L216 112L204 112L204 120L144 120L144 112L140 112L140 120L136 120L136 112L128 112z"/>
<path style="fill:#1b1f21; stroke:none;" d="M136 112L136 120L140 120L140 112L136 112M144 112L144 120L204 120L204 112L144 112z"/>
<path style="fill:#3a3f5e; stroke:none;" d="M32 116L32 120L36 120L36 116L32 116z"/>
<path style="fill:#ff0ec0; stroke:none;" d="M60 116L60 124L64 124L64 120L124 120L124 116L60 116z"/>
<path style="fill:#3a3f5e; stroke:none;" d="M216 116L216 120L220 120L220 116L216 116M36 120L36 136L40 136L40 120L36 120z"/>
<path style="fill:#1b1f21; stroke:none;" d="M64 120L64 124L68 124L68 120L64 120z"/>
<path style="fill:#3a3f5e; stroke:none;" d="M68 120L68 124L60 124L60 128L124 128L124 120L116 120L116 124L112 124L112 120L108 120L108 124L72 124L72 120L68 120z"/>
<path style="fill:#1b1f21; stroke:none;" d="M72 120L72 124L108 124L108 120L72 120M112 120L112 124L116 124L116 120L112 120z"/>
<path style="fill:#3a3f5e; stroke:none;" d="M220 120L220 128L224 128L224 120L220 120M64 132L64 136L68 136L68 152L84 152L84 156L88 156L88 188L92 188L92 192L84 192L84 196L92 196L92 200L84 200L84 204L92 204L92 208L84 208L84 212L80 212L80 216L72 216L72 220L100 220L100 216L96 216L96 160L100 160L100 164L120 164L120 160L128 160L128 156L132 156L132 132L128 132L128 156L120 156L120 160L100 160L100 156L96 156L96 148L100 148L100 152L108 152L108 148L104 148L104 140L96 140L96 136L100 136L100 132L64 132z"/>
<path style="fill:#ff0ec0; stroke:none;" d="M216 132L216 136L220 136L220 144L216 144L216 148L220 148L220 156L216 156L216 160L220 160L220 168L216 168L216 172L220 172L220 184L228 184L228 132L216 132z"/>
<path style="fill:#3a3f5e; stroke:none;" d="M228 132L228 184L220 184L220 180L216 180L216 188L232 188L232 132L228 132M32 136L32 140L36 140L36 136L32 136M216 136L216 140L220 140L220 136L216 136M8 140L8 144L32 144L32 140L8 140M216 148L216 152L220 152L220 148L216 148z"/>
<path style="fill:#ff0ec0; stroke:none;" d="M68 152L68 216L80 216L80 212L84 212L84 208L76 208L76 204L84 204L84 200L76 200L76 196L84 196L84 192L76 192L76 188L88 188L88 156L84 156L84 152L68 152z"/>
<path style="fill:#3a3f5e; stroke:none;" d="M216 160L216 164L220 164L220 160L216 160M216 172L216 176L220 176L220 172L216 172z"/>
<path style="fill:#1b1f21; stroke:none;" d="M76 188L76 192L92 192L92 188L76 188M76 196L76 200L92 200L92 196L76 196M76 204L76 208L92 208L92 204L76 204z"/>
</svg>
