<?xml version="1.0" standalone="yes"?>
<svg xmlns="http://www.w3.org/2000/svg" width="240" height="240">
<path style="fill:#1b1f21; stroke:none;" d="M0 0L0 240L240 240L240 0L0 0z"/>
<path style="fill:#ff0ec0; stroke:none;" d="M112 56L112 60L108 60L108 68L128 68L128 64L124 64L124 60L120 60L120 56L112 56z"/>
<path style="fill:#1b1f21; stroke:none;" d="M112 60L112 64L116 64L116 60L112 60z"/>
<path style="fill:#ff0ec0; stroke:none;" d="M136 64L136 68L140 68L140 64L136 64M144 64L144 68L148 68L148 64L144 64M152 64L152 68L156 68L156 64L152 64M160 64L160 68L164 68L164 64L160 64M168 64L168 68L172 68L172 64L168 64M176 64L176 68L180 68L180 64L176 64M184 64L184 68L188 68L188 64L184 64M192 64L192 68L196 68L196 64L192 64M88 72L88 76L80 76L80 80L76 80L76 84L72 84L72 88L68 88L68 92L64 92L64 96L60 96L60 100L52 100L52 104L44 104L44 108L32 108L32 112L28 112L28 116L20 116L20 120L12 120L12 116L16 116L16 112L20 112L20 108L24 108L24 104L28 104L28 100L8 100L8 120L12 120L12 124L8 124L8 140L12 140L12 136L24 136L24 140L28 140L28 144L36 144L36 148L44 148L44 152L60 152L60 148L48 148L48 144L44 144L44 132L48 132L48 128L52 128L52 124L56 124L56 120L60 120L60 116L64 116L64 112L68 112L68 108L72 108L72 104L76 104L76 100L80 100L80 96L84 96L84 92L92 92L92 88L100 88L100 84L148 84L148 80L192 80L192 84L196 84L196 92L192 92L192 96L108 96L108 92L104 92L104 96L108 96L108 100L192 100L192 96L196 96L196 92L200 92L200 84L208 84L208 80L232 80L232 72L204 72L204 76L200 76L200 72L88 72z"/>
<path style="fill:#1b1f21; stroke:none;" d="M204 76L204 80L208 80L208 76L204 76M148 80L148 84L144 84L144 92L108 92L108 96L144 96L144 92L148 92L148 96L192 96L192 92L196 92L196 84L192 84L192 80L148 80M208 80L208 84L212 84L212 80L208 80z"/>
<path style="fill:#3a3f5e; stroke:none;" d="M212 80L212 84L216 84L216 88L232 88L232 80L212 80M100 84L100 88L92 88L92 92L84 92L84 96L80 96L80 100L76 100L76 104L72 104L72 108L68 108L68 112L64 112L64 116L60 116L60 120L56 120L56 124L52 124L52 128L48 128L48 132L44 132L44 144L48 144L48 148L60 148L60 136L64 136L64 128L68 128L68 120L72 120L72 116L76 116L76 112L84 112L84 108L92 108L92 116L96 116L96 120L100 120L100 124L104 124L104 128L116 128L116 124L124 124L124 120L128 120L128 116L132 116L132 112L140 112L140 108L212 108L212 84L200 84L200 92L196 92L196 96L192 96L192 100L108 100L108 96L104 96L104 92L144 92L144 84L100 84M148 84L148 92L168 92L168 84L148 84z"/>
<path style="fill:#ff0ec0; stroke:none;" d="M168 84L168 92L176 92L176 84L168 84z"/>
<path style="fill:#3a3f5e; stroke:none;" d="M176 84L176 92L192 92L192 84L176 84M144 92L144 96L148 96L148 92L144 92M216 92L216 108L220 108L220 112L232 112L232 104L220 104L220 100L224 100L224 96L232 96L232 92L216 92z"/>
<path style="fill:#ff0ec0; stroke:none;" d="M224 96L224 100L232 100L232 96L224 96M196 100L196 104L208 104L208 100L196 100z"/>
<path style="fill:#3a3f5e; stroke:none;" d="M24 104L24 108L20 108L20 112L16 112L16 116L12 116L12 120L20 120L20 116L28 116L28 112L32 112L32 104L24 104z"/>
<path style="fill:#1b1f21; stroke:none;" d="M96 108L96 116L100 116L100 120L104 120L104 124L116 124L116 120L120 120L120 116L124 116L124 112L128 112L128 108L108 108L108 116L112 116L112 120L104 120L104 116L100 116L100 108L96 108z"/>
<path style="fill:#3a3f5e; stroke:none;" d="M8 120L8 124L12 124L12 120L8 120M12 136L12 140L8 140L8 148L12 148L12 144L20 144L20 140L24 140L24 136L12 136z"/>
</svg>
