<?xml version="1.0" standalone="yes"?>
<svg xmlns="http://www.w3.org/2000/svg" width="240" height="240">
<path style="fill:#1b1f21; stroke:none;" d="M0 0L0 240L240 240L240 0L0 0z"/>
<path style="fill:#ff0ec0; stroke:none;" d="M136 8L136 12L132 12L132 16L128 16L128 20L124 20L124 24L120 24L120 28L116 28L116 32L112 32L112 36L108 36L108 60L112 60L112 64L116 64L116 68L120 68L120 72L124 72L124 76L128 76L128 80L132 80L132 76L128 76L128 72L132 72L132 60L136 60L136 80L140 80L140 84L144 84L144 88L148 88L148 92L152 92L152 96L156 96L156 100L176 100L176 104L180 104L180 108L184 108L184 112L188 112L188 116L200 116L200 112L204 112L204 108L208 108L208 104L212 104L212 100L216 100L216 88L212 88L212 84L208 84L208 80L204 80L204 76L200 76L200 56L196 56L196 52L192 52L192 48L188 48L188 44L184 44L184 40L180 40L180 36L160 36L160 32L168 32L168 28L172 28L172 32L176 32L176 28L172 28L172 24L168 24L168 20L164 20L164 16L160 16L160 12L156 12L156 8L136 8z"/>
<path style="fill:#3a3f5e; stroke:none;" d="M152 12L152 16L156 16L156 12L152 12M136 16L136 20L132 20L132 24L136 24L136 20L144 20L144 16L136 16M148 20L148 24L152 24L152 28L156 28L156 32L160 32L160 28L156 28L156 24L152 24L152 20L148 20M160 20L160 24L164 24L164 28L168 28L168 24L164 24L164 20L160 20M124 28L124 32L120 32L120 36L116 36L116 44L120 44L120 36L124 36L124 32L128 32L128 28L124 28M168 28L168 32L160 32L160 36L180 36L180 32L172 32L172 28L168 28M180 36L180 40L184 40L184 36L180 36M184 40L184 44L188 44L188 40L184 40M188 44L188 48L192 48L192 44L188 44M120 48L120 52L124 52L124 56L128 56L128 60L132 60L132 56L128 56L128 52L124 52L124 48L120 48M192 48L192 52L196 52L196 48L192 48M196 52L196 56L200 56L200 52L196 52M112 56L112 60L116 60L116 64L120 64L120 68L124 68L124 72L128 72L128 68L124 68L124 64L120 64L120 60L116 60L116 56L112 56M200 56L200 76L204 76L204 80L208 80L208 84L212 84L212 88L216 88L216 100L212 100L212 104L208 104L208 108L204 108L204 112L200 112L200 116L188 116L188 112L184 112L184 108L180 108L180 104L176 104L176 100L156 100L156 96L152 96L152 92L148 92L148 88L144 88L144 84L140 84L140 80L136 80L136 60L132 60L132 72L128 72L128 76L132 76L132 84L136 84L136 88L140 88L140 100L136 100L136 104L132 104L132 108L128 108L128 112L124 112L124 116L120 116L120 120L116 120L116 124L112 124L112 128L108 128L108 132L104 132L104 136L96 136L96 132L88 132L88 140L92 140L92 148L88 148L88 152L84 152L84 156L80 156L80 160L76 160L76 164L72 164L72 168L68 168L68 172L64 172L64 176L60 176L60 180L56 180L56 184L52 184L52 188L48 188L48 192L44 192L44 196L40 196L40 200L36 200L36 204L32 204L32 208L28 208L28 212L24 212L24 216L20 216L20 220L16 220L16 224L12 224L12 228L8 228L8 232L28 232L28 228L32 228L32 224L36 224L36 220L40 220L40 216L44 216L44 212L48 212L48 208L52 208L52 204L56 204L56 200L60 200L60 196L64 196L64 192L68 192L68 188L72 188L72 184L76 184L76 180L80 180L80 176L84 176L84 172L88 172L88 168L92 168L92 164L96 164L96 160L100 160L100 156L104 156L104 152L108 152L108 148L116 148L116 144L120 144L120 140L124 140L124 136L128 136L128 132L132 132L132 128L136 128L136 124L144 124L144 120L148 120L148 116L152 116L152 112L156 112L156 108L160 108L160 112L164 112L164 116L168 116L168 120L172 120L172 124L176 124L176 128L180 128L180 132L204 132L204 128L208 128L208 124L212 124L212 120L216 120L216 116L220 116L220 112L224 112L224 108L228 108L228 104L232 104L232 84L228 84L228 80L224 80L224 76L220 76L220 72L216 72L216 68L212 68L212 64L208 64L208 60L204 60L204 56L200 56z"/>
<path style="fill:#ff0ec0; stroke:none;" d="M208 68L208 72L212 72L212 76L216 76L216 80L220 80L220 84L224 84L224 80L220 80L220 76L216 76L216 72L212 72L212 68L208 68M128 84L128 88L124 88L124 92L120 92L120 96L116 96L116 104L112 104L112 108L108 108L108 112L104 112L104 116L100 116L100 120L96 120L96 124L92 124L92 132L96 132L96 136L104 136L104 132L108 132L108 128L112 128L112 124L116 124L116 120L120 120L120 116L124 116L124 112L128 112L128 108L132 108L132 104L136 104L136 100L140 100L140 88L136 88L136 84L128 84M164 108L164 112L168 112L168 116L172 116L172 120L176 120L176 124L180 124L180 128L188 128L188 124L180 124L180 120L176 120L176 116L172 116L172 112L168 112L168 108L164 108M84 136L84 140L80 140L80 144L76 144L76 148L72 148L72 152L68 152L68 156L64 156L64 160L60 160L60 164L56 164L56 168L52 168L52 172L48 172L48 176L44 176L44 180L40 180L40 184L36 184L36 188L32 188L32 192L28 192L28 196L24 196L24 200L20 200L20 204L16 204L16 208L12 208L12 212L8 212L8 228L12 228L12 224L16 224L16 220L20 220L20 216L24 216L24 212L28 212L28 208L32 208L32 204L36 204L36 200L40 200L40 196L44 196L44 192L48 192L48 188L52 188L52 184L56 184L56 180L60 180L60 176L64 176L64 172L68 172L68 168L72 168L72 164L76 164L76 160L80 160L80 156L84 156L84 152L88 152L88 148L92 148L92 140L88 140L88 136L84 136z"/>
</svg>
