<?xml version="1.0" standalone="yes"?>
<svg xmlns="http://www.w3.org/2000/svg" width="240" height="240">
<path style="fill:#1b1f21; stroke:none;" d="M0 0L0 240L240 240L240 0L0 0z"/>
<path style="fill:#ff0ec0; stroke:none;" d="M144 40L144 48L156 48L156 40L144 40M28 44L28 48L24 48L24 56L48 56L48 48L44 48L44 44L28 44M180 44L180 48L176 48L176 52L52 52L52 56L192 56L192 48L188 48L188 44L180 44z"/>
<path style="fill:#1b1f21; stroke:none;" d="M32 48L32 52L40 52L40 48L32 48z"/>
<path style="fill:#3a3f5e; stroke:none;" d="M8 56L8 64L20 64L20 56L8 56M24 56L24 60L132 60L132 64L68 64L68 68L132 68L132 72L68 72L68 76L136 76L136 72L144 72L144 68L152 68L152 56L24 56z"/>
<path style="fill:#ff0ec0; stroke:none;" d="M24 60L24 72L28 72L28 76L36 76L36 72L60 72L60 76L68 76L68 72L132 72L132 68L68 68L68 64L132 64L132 60L24 60z"/>
<path style="fill:#1b1f21; stroke:none;" d="M140 60L140 64L136 64L136 68L140 68L140 64L148 64L148 60L140 60z"/>
<path style="fill:#ff0ec0; stroke:none;" d="M156 60L156 68L152 68L152 72L144 72L144 76L136 76L136 80L144 80L144 76L148 76L148 80L152 80L152 72L156 72L156 80L160 80L160 64L164 64L164 80L168 80L168 64L172 64L172 80L176 80L176 64L180 64L180 80L184 80L184 64L188 64L188 80L192 80L192 60L156 60M196 60L196 68L208 68L208 60L196 60z"/>
<path style="fill:#3a3f5e; stroke:none;" d="M36 64L36 68L60 68L60 64L36 64z"/>
<path style="fill:#1b1f21; stroke:none;" d="M160 64L160 84L164 84L164 64L160 64M168 64L168 84L172 84L172 64L168 64M176 64L176 84L180 84L180 64L176 64M184 64L184 80L188 80L188 64L184 64z"/>
<path style="fill:#ff0ec0; stroke:none;" d="M212 64L212 68L232 68L232 64L212 64M8 68L8 80L16 80L16 84L52 84L52 88L12 88L12 84L8 84L8 128L12 128L12 132L16 132L16 92L60 92L60 88L56 88L56 84L64 84L64 80L24 80L24 76L20 76L20 68L8 68z"/>
<path style="fill:#1b1f21; stroke:none;" d="M144 68L144 72L152 72L152 68L144 68z"/>
<path style="fill:#3a3f5e; stroke:none;" d="M196 68L196 76L208 76L208 68L196 68M212 68L212 72L232 72L232 68L212 68z"/>
<path style="fill:#1b1f21; stroke:none;" d="M12 72L12 76L16 76L16 72L12 72z"/>
<path style="fill:#3a3f5e; stroke:none;" d="M36 72L36 76L60 76L60 72L36 72z"/>
<path style="fill:#1b1f21; stroke:none;" d="M136 72L136 76L144 76L144 72L136 72M152 72L152 84L156 84L156 72L152 72M144 76L144 84L148 84L148 76L144 76z"/>
<path style="fill:#ff0ec0; stroke:none;" d="M68 80L68 88L72 88L72 84L132 84L132 80L68 80z"/>
<path style="fill:#3a3f5e; stroke:none;" d="M136 80L136 88L188 88L188 84L192 84L192 80L180 80L180 84L176 84L176 80L172 80L172 84L168 84L168 80L164 80L164 84L160 84L160 80L156 80L156 84L152 84L152 80L148 80L148 84L144 84L144 80L136 80M28 84L28 88L52 88L52 84L28 84z"/>
<path style="fill:#1b1f21; stroke:none;" d="M56 84L56 88L60 88L60 84L56 84z"/>
<path style="fill:#3a3f5e; stroke:none;" d="M60 84L60 92L64 92L64 84L60 84z"/>
<path style="fill:#1b1f21; stroke:none;" d="M72 84L72 88L76 88L76 84L72 84z"/>
<path style="fill:#3a3f5e; stroke:none;" d="M76 84L76 88L68 88L68 92L132 92L132 84L124 84L124 88L120 88L120 84L116 84L116 88L80 88L80 84L76 84z"/>
<path style="fill:#1b1f21; stroke:none;" d="M80 84L80 88L116 88L116 84L80 84M120 84L120 88L124 88L124 84L120 84M16 92L16 108L20 108L20 104L24 104L24 100L28 100L28 92L16 92z"/>
<path style="fill:#3a3f5e; stroke:none;" d="M28 92L28 100L24 100L24 104L20 104L20 108L16 108L16 120L20 120L20 112L24 112L24 108L28 108L28 104L32 104L32 100L44 100L44 96L60 96L60 92L28 92M72 96L72 100L76 100L76 124L80 124L80 104L96 104L96 108L100 108L100 136L92 136L92 140L100 140L100 144L92 144L92 148L100 148L100 152L92 152L92 156L88 156L88 160L80 160L80 164L108 164L108 160L104 160L104 112L108 112L108 116L132 116L132 96L128 96L128 112L108 112L108 108L104 108L104 96L72 96M108 96L108 104L112 104L112 108L120 108L120 104L116 104L116 96L108 96z"/>
<path style="fill:#ff0ec0; stroke:none;" d="M80 104L80 124L76 124L76 128L72 128L72 156L76 156L76 160L88 160L88 156L92 156L92 152L84 152L84 148L92 148L92 144L84 144L84 140L92 140L92 136L84 136L84 132L100 132L100 108L96 108L96 104L80 104z"/>
<path style="fill:#1b1f21; stroke:none;" d="M84 132L84 136L100 136L100 132L84 132M84 140L84 144L100 144L100 140L84 140M84 148L84 152L100 152L100 148L84 148z"/>
<path style="fill:#ff0ec0; stroke:none;" d="M84 168L84 200L96 200L96 168L84 168z"/>
<path style="fill:#3a3f5e; stroke:none;" d="M96 168L96 200L84 200L84 204L100 204L100 168L96 168z"/>
<path style="fill:#ffffff; stroke:none;" d="M184 196L184 208L220 208L220 196L184 196z"/>
</svg>
