<?xml version="1.0" standalone="yes"?>
<svg xmlns="http://www.w3.org/2000/svg" width="240" height="240">
<path style="fill:#1b1f21; stroke:none;" d="M0 0L0 240L240 240L240 0L0 0z"/>
<path style="fill:#ff0ec0; stroke:none;" d="M104 52L104 56L108 56L108 52L104 52z"/>
<path style="fill:#3a3f5e; stroke:none;" d="M108 52L108 56L112 56L112 52L108 52z"/>
<path style="fill:#ff0ec0; stroke:none;" d="M112 52L112 56L116 56L116 52L112 52z"/>
<path style="fill:#3a3f5e; stroke:none;" d="M116 52L116 56L120 56L120 52L116 52z"/>
<path style="fill:#ff0ec0; stroke:none;" d="M120 52L120 56L124 56L124 52L120 52M108 60L108 68L120 68L120 60L108 60M196 60L196 80L216 80L216 76L200 76L200 72L216 72L216 68L200 68L200 64L216 64L216 60L196 60M220 60L220 76L224 76L224 60L220 60M16 64L16 76L20 76L20 64L16 64M24 64L24 84L36 84L36 80L44 80L44 76L52 76L52 72L44 72L44 68L36 68L36 64L24 64M184 64L184 68L168 68L168 72L152 72L152 76L168 76L168 80L184 80L184 84L192 84L192 64L184 64M56 68L56 80L60 80L60 76L64 76L64 80L68 80L68 68L64 68L64 72L60 72L60 68L56 68M72 72L72 76L84 76L84 72L72 72M88 72L88 80L104 80L104 76L108 76L108 80L116 80L116 72L112 72L112 76L108 76L108 72L88 72M120 72L120 76L124 76L124 80L132 80L132 72L120 72M136 72L136 76L148 76L148 72L136 72z"/>
<path style="fill:#3a3f5e; stroke:none;" d="M16 76L16 92L20 92L20 76L16 76M44 76L44 80L36 80L36 84L24 84L24 92L36 92L36 88L44 88L44 84L52 84L52 76L44 76z"/>
<path style="fill:#1b1f21; stroke:none;" d="M60 76L60 80L64 80L64 76L60 76M104 76L104 80L108 80L108 76L104 76z"/>
<path style="fill:#3a3f5e; stroke:none;" d="M116 76L116 80L120 80L120 84L132 84L132 80L120 80L120 76L116 76z"/>
<path style="fill:#1b1f21; stroke:none;" d="M120 76L120 80L124 80L124 76L120 76z"/>
<path style="fill:#3a3f5e; stroke:none;" d="M152 76L152 84L168 84L168 88L184 88L184 92L192 92L192 84L184 84L184 80L168 80L168 76L152 76M220 76L220 96L224 96L224 76L220 76M56 80L56 88L60 88L60 84L64 84L64 88L68 88L68 80L56 80M72 80L72 84L84 84L84 80L72 80M88 80L88 84L108 84L108 80L88 80M112 80L112 84L116 84L116 80L112 80M136 80L136 84L148 84L148 80L136 80M196 80L196 96L216 96L216 92L200 92L200 88L216 88L216 84L200 84L200 80L196 80z"/>
<path style="fill:#ff0ec0; stroke:none;" d="M72 88L72 92L84 92L84 88L72 88M136 88L136 92L148 92L148 88L136 88z"/>
<path style="fill:#3a3f5e; stroke:none;" d="M72 92L72 100L68 100L68 104L168 104L168 100L164 100L164 96L160 96L160 100L156 100L156 96L152 96L152 100L148 100L148 92L136 92L136 100L132 100L132 96L128 96L128 100L124 100L124 96L120 96L120 100L116 100L116 96L112 96L112 100L108 100L108 96L104 96L104 100L100 100L100 96L96 96L96 100L92 100L92 96L88 96L88 100L84 100L84 92L72 92z"/>
<path style="fill:#1b1f21; stroke:none;" d="M76 96L76 100L80 100L80 96L76 96M140 96L140 100L144 100L144 96L140 96z"/>
<path style="fill:#ff0ec0; stroke:none;" d="M52 104L52 108L40 108L40 112L32 112L32 116L24 116L24 120L20 120L20 124L16 124L16 128L12 128L12 132L8 132L8 152L12 152L12 148L16 148L16 144L20 144L20 140L24 140L24 136L28 136L28 132L32 132L32 128L36 128L36 124L44 124L44 120L56 120L56 124L60 124L60 128L64 128L64 132L68 132L68 136L168 136L168 132L176 132L176 128L232 128L232 116L156 116L156 120L152 120L152 124L64 124L64 120L56 120L56 116L52 116L52 108L56 108L56 112L60 112L60 116L68 116L68 120L96 120L96 116L100 116L100 112L104 112L104 108L152 108L152 112L168 112L168 104L52 104M172 104L172 112L232 112L232 104L172 104z"/>
<path style="fill:#3a3f5e; stroke:none;" d="M52 108L52 116L56 116L56 120L64 120L64 124L152 124L152 120L156 120L156 116L168 116L168 112L152 112L152 108L104 108L104 112L100 112L100 116L96 116L96 120L68 120L68 116L60 116L60 112L56 112L56 108L52 108z"/>
<path style="fill:#1b1f21; stroke:none;" d="M80 108L80 112L84 112L84 108L80 108M88 108L88 112L96 112L96 108L88 108z"/>
<path style="fill:#3a3f5e; stroke:none;" d="M80 112L80 116L84 116L84 112L80 112M88 112L88 116L96 116L96 112L88 112z"/>
<path style="fill:#1b1f21; stroke:none;" d="M104 112L104 116L108 116L108 120L148 120L148 116L152 116L152 112L104 112z"/>
<path style="fill:#3a3f5e; stroke:none;" d="M172 112L172 116L232 116L232 112L172 112M44 120L44 124L36 124L36 128L32 128L32 132L28 132L28 136L24 136L24 140L20 140L20 144L16 144L16 148L12 148L12 152L8 152L8 176L12 176L12 168L16 168L16 160L20 160L20 156L24 156L24 152L28 152L28 148L36 148L36 144L44 144L44 140L60 140L60 156L64 156L64 160L88 160L88 156L92 156L92 152L96 152L96 148L100 148L100 144L104 144L104 140L184 140L184 136L232 136L232 128L176 128L176 132L168 132L168 136L68 136L68 132L64 132L64 128L60 128L60 124L56 124L56 120L44 120z"/>
<path style="fill:#1b1f21; stroke:none;" d="M64 140L64 156L88 156L88 152L92 152L92 148L88 148L88 144L84 144L84 140L76 140L76 148L80 148L80 152L72 152L72 148L68 148L68 140L64 140z"/>
<path style="fill:#ff0ec0; stroke:none;" d="M92 140L92 144L100 144L100 140L92 140z"/>
<path style="fill:#ffffff; stroke:none;" d="M196 184L196 196L184 196L184 208L196 208L196 220L208 220L208 208L220 208L220 196L208 196L208 184L196 184z"/>
</svg>
