<?xml version="1.0" standalone="yes"?>
<svg xmlns="http://www.w3.org/2000/svg" width="240" height="240">
<path style="fill:#1b1f21; stroke:none;" d="M0 0L0 240L240 240L240 0L0 0z"/>
<path style="fill:#ff0ec0; stroke:none;" d="M172 16L172 24L168 24L168 28L172 28L172 24L176 24L176 16L172 16z"/>
<path style="fill:#3a3f5e; stroke:none;" d="M172 24L172 28L168 28L168 32L176 32L176 36L180 36L180 40L184 40L184 48L188 48L188 64L184 64L184 68L180 68L180 72L176 72L176 60L172 60L172 56L168 56L168 60L172 60L172 64L168 64L168 68L164 68L164 72L176 72L176 88L172 88L172 80L168 80L168 84L164 84L164 88L160 88L160 108L156 108L156 96L152 96L152 100L148 100L148 120L144 120L144 112L140 112L140 108L136 108L136 112L132 112L132 136L128 136L128 120L124 120L124 124L120 124L120 128L116 128L116 132L108 132L108 136L104 136L104 148L100 148L100 144L96 144L96 148L92 148L92 152L88 152L88 156L84 156L84 160L76 160L76 164L72 164L72 168L64 168L64 164L60 164L60 156L52 156L52 160L56 160L56 164L60 164L60 184L52 184L52 176L48 176L48 168L40 168L40 172L44 172L44 176L48 176L48 192L44 192L44 188L40 188L40 184L36 184L36 180L32 180L32 184L36 184L36 188L40 188L40 192L44 192L44 200L36 200L36 196L28 196L28 192L20 192L20 196L24 196L24 200L32 200L32 204L36 204L36 208L32 208L32 212L24 212L24 208L20 208L20 204L16 204L16 208L20 208L20 212L24 212L24 220L16 220L16 216L8 216L8 220L12 220L12 224L16 224L16 228L12 228L12 232L24 232L24 228L28 228L28 224L32 224L32 220L36 220L36 216L44 216L44 212L48 212L48 208L52 208L52 204L56 204L56 200L60 200L60 196L68 196L68 192L72 192L72 188L76 188L76 184L80 184L80 180L84 180L84 176L88 176L88 172L92 172L92 168L100 168L100 164L104 164L104 160L108 160L108 156L112 156L112 140L116 140L116 148L120 148L120 144L124 144L124 140L132 140L132 136L136 136L136 132L140 132L140 128L144 128L144 132L156 132L156 136L160 136L160 132L156 132L156 124L152 124L152 116L156 116L156 112L164 112L164 108L168 108L168 104L172 104L172 100L176 100L176 96L180 96L180 92L184 92L184 88L192 88L192 84L196 84L196 80L200 80L200 84L204 84L204 88L208 88L208 84L204 84L204 76L200 76L200 72L204 72L204 68L224 68L224 64L212 64L212 60L204 60L204 52L200 52L200 48L196 48L196 40L200 40L200 36L196 36L196 40L188 40L188 36L184 36L184 32L180 32L180 28L176 28L176 24L172 24z"/>
<path style="fill:#ff0ec0; stroke:none;" d="M144 28L144 32L148 32L148 28L144 28M200 28L200 32L204 32L204 28L200 28M148 32L148 36L156 36L156 32L148 32M164 32L164 36L160 36L160 40L156 40L156 44L152 44L152 48L148 48L148 52L144 52L144 56L140 56L140 48L132 48L132 44L128 44L128 40L124 40L124 44L128 44L128 52L132 52L132 56L140 56L140 60L136 60L136 64L132 64L132 68L128 68L128 72L124 72L124 80L120 80L120 76L112 76L112 80L120 80L120 84L116 84L116 88L112 88L112 92L108 92L108 96L104 96L104 100L100 100L100 104L96 104L96 108L84 108L84 112L92 112L92 116L88 116L88 120L84 120L84 124L80 124L80 128L76 128L76 132L72 132L72 136L68 136L68 144L64 144L64 148L60 148L60 152L56 152L56 156L60 156L60 164L64 164L64 168L72 168L72 164L76 164L76 160L84 160L84 156L88 156L88 152L92 152L92 148L96 148L96 144L100 144L100 148L104 148L104 136L108 136L108 132L116 132L116 128L120 128L120 124L124 124L124 120L128 120L128 136L132 136L132 112L136 112L136 108L140 108L140 112L144 112L144 120L148 120L148 100L152 100L152 96L156 96L156 108L160 108L160 88L164 88L164 84L168 84L168 80L172 80L172 88L176 88L176 72L164 72L164 68L168 68L168 64L172 64L172 60L168 60L168 56L172 56L172 60L176 60L176 72L180 72L180 68L184 68L184 64L188 64L188 48L184 48L184 40L180 40L180 36L176 36L176 32L164 32M192 32L192 36L188 36L188 40L196 40L196 36L200 36L200 32L192 32M120 36L120 40L124 40L124 36L120 36z"/>
<path style="fill:#3a3f5e; stroke:none;" d="M148 36L148 40L152 40L152 44L156 44L156 40L160 40L160 36L148 36M124 44L124 48L128 48L128 44L124 44M128 52L128 56L132 56L132 52L128 52M140 52L140 56L144 56L144 52L140 52z"/>
<path style="fill:#ff0ec0; stroke:none;" d="M192 52L192 56L196 56L196 68L192 68L192 72L188 72L188 76L184 76L184 80L188 80L188 76L192 76L192 72L196 72L196 68L200 68L200 56L196 56L196 52L192 52z"/>
<path style="fill:#3a3f5e; stroke:none;" d="M132 56L132 64L136 64L136 60L140 60L140 56L132 56z"/>
<path style="fill:#ff0ec0; stroke:none;" d="M108 72L108 76L112 76L112 72L108 72z"/>
<path style="fill:#3a3f5e; stroke:none;" d="M144 72L144 76L140 76L140 80L136 80L136 84L148 84L148 72L144 72M112 80L112 84L120 84L120 80L112 80z"/>
<path style="fill:#ff0ec0; stroke:none;" d="M196 80L196 84L192 84L192 88L200 88L200 92L208 92L208 88L204 88L204 84L200 84L200 80L196 80M208 92L208 96L212 96L212 92L208 92M76 104L76 108L80 108L80 104L76 104z"/>
<path style="fill:#3a3f5e; stroke:none;" d="M80 108L80 112L84 112L84 108L80 108M84 112L84 116L92 116L92 112L84 112M108 112L108 116L104 116L104 120L112 120L112 112L108 112M92 128L92 132L88 132L88 136L96 136L96 128L92 128z"/>
<path style="fill:#ff0ec0; stroke:none;" d="M152 132L152 136L156 136L156 132L152 132M156 136L156 140L160 140L160 136L156 136M112 140L112 160L116 160L116 140L112 140M160 140L160 144L164 144L164 140L160 140M100 152L100 156L104 156L104 152L100 152M48 160L48 164L44 164L44 168L48 168L48 176L52 176L52 184L60 184L60 164L56 164L56 160L48 160M40 172L40 176L36 176L36 184L40 184L40 188L44 188L44 192L48 192L48 176L44 176L44 172L40 172M64 172L64 180L68 180L68 176L72 176L72 172L64 172M28 184L28 188L24 188L24 192L28 192L28 196L36 196L36 200L44 200L44 192L40 192L40 188L36 188L36 184L28 184M20 196L20 200L16 200L16 204L20 204L20 208L24 208L24 212L32 212L32 208L36 208L36 204L32 204L32 200L24 200L24 196L20 196z"/>
<path style="fill:#ffffff; stroke:none;" d="M184 196L184 208L220 208L220 196L184 196z"/>
<path style="fill:#ff0ec0; stroke:none;" d="M12 204L12 208L8 208L8 216L16 216L16 220L24 220L24 212L20 212L20 208L16 208L16 204L12 204M8 220L8 232L12 232L12 228L16 228L16 224L12 224L12 220L8 220z"/>
</svg>
