<?xml version="1.0" encoding="UTF-8" standalone="no"?>
<svg
   width="512" height="512"
   viewBox="0 0 512 512"
   version="1.1"
   id="svg6"
   sodipodi:docname="stun_gun.svg"
   inkscape:version="1.1.2 (0a00cf5339, 2022-02-04, custom)"
   xmlns:inkscape="http://www.inkscape.org/namespaces/inkscape"
   xmlns:sodipodi="http://sodipodi.sourceforge.net/DTD/sodipodi-0.dtd"
   xmlns="http://www.w3.org/2000/svg"
   xmlns:svg="http://www.w3.org/2000/svg">
  <defs
     id="defs10">
    <filter
       style="color-interpolation-filters:sRGB;"
       inkscape:label="Drop Shadow"
       id="filter4058"
       x="-0.12746707"
       y="-0.21517054"
       width="1.2549341"
       height="1.4303411">
      <feFlood
         flood-opacity="1"
         flood-color="rgb(58,63,94)"
         result="flood"
         id="feFlood4048" />
      <feComposite
         in="flood"
         in2="SourceGraphic"
         operator="out"
         result="composite1"
         id="feComposite4050" />
      <feGaussianBlur
         in="composite1"
         stdDeviation="15"
         result="blur"
         id="feGaussianBlur4052" />
      <feOffset
         dx="0"
         dy="0"
         result="offset"
         id="feOffset4054" />
      <feComposite
         in="offset"
         in2="SourceGraphic"
         operator="atop"
         result="composite2"
         id="feComposite4056" />
    </filter>
  </defs>
  <sodipodi:namedview
     id="namedview8"
     pagecolor="#ffffff"
     bordercolor="#666666"
     borderopacity="1.0"
     inkscape:pageshadow="2"
     inkscape:pageopacity="0.0"
     inkscape:pagecheckerboard="0"
     showgrid="false"
     inkscape:zoom="1.4142136"
     inkscape:cx="200.46477"
     inkscape:cy="131.87541"
     inkscape:window-width="1716"
     inkscape:window-height="1413"
     inkscape:window-x="3160"
     inkscape:window-y="673"
     inkscape:window-maximized="1"
     inkscape:current-layer="svg6" />
  <path
     d="M 0.00439935,0.00194944 H 512.0044 V 512.00194 H 0.00439935 Z"
     fill="#1b1f21"
     fill-opacity="0"
     id="path15" />
  <g
     class=""
     transform="matrix(1.0883561,-0.00596192,0.00596192,1.0883561,-4.553341,36.6842)"
     id="g4"
     style="fill:#ff0ec0;fill-opacity:1;filter:url(#filter4058)">
    <path
       d="M 109.59,98.125487 H 54.98 v -12.32 z M 28.12,333 l 59.06,9.16 c 5.160688,0.83283 10.155061,-2.2318 11.75,-7.21 l 26.88,-77.79 h 40.492 l 37.678,6 h 81 v -47.83 l 18.37242,-18.46 v 0 -40.71 H 65.98 l -36.22,-23.42 -7.74,4.53 v 45.31 c -0.162684,5.76463 4.443232,10.53746 10.21,10.58 h 22.63 c 9.3,0 24.77,19 10.4,37.74 -12.28,16.06 -34.71,63.93 -45.28,87.1 -2.941738,6.46254 1.118347,13.94426 8.14,15 z m 103.25,-91.84 14.74,-42 h 57.87 v 42 z m -93.04,-114.80914 -7.35,-4.53 V 105.16 H 258.17 L 259,146.70785 H 70.69 Z M 312.10848,156.79 v 42.85647 l -18.89037,17.99334 -0.1852,45.54031 43.49894,-0.76884 L 451.98,195.92355 v -29.81052 l -60.65365,0.44947 -0.14148,-26.15391 60.79513,-10.3582 V 105.16 H 258.17 l 0.83,41.54785 h 53.10848 z M 159.93,212.17 h -3 l -2.38,3.91 c 0,0 4.64,14 13.94,15.35 -9.45,-9.44 -8.58,-19.27 -8.58,-19.27 z"
       fill="#ffffff"
       fill-opacity="1"
       id="path2"
       sodipodi:nodetypes="ccccccccccccccccccccscccccccccccccccccccccccccccccccccccc"
       style="fill:#ff0ec0;fill-opacity:1" />
  </g>
</svg>
