<?xml version="1.0" standalone="yes"?>
<svg xmlns="http://www.w3.org/2000/svg" width="240" height="240">
<path style="fill:#1b1f21; stroke:none;" d="M0 0L0 240L240 240L240 0L0 0z"/>
<path style="fill:#ff0ec0; stroke:none;" d="M204 8L204 12L200 12L200 16L196 16L196 20L192 20L192 24L188 24L188 28L184 28L184 32L180 32L180 36L176 36L176 40L172 40L172 44L168 44L168 48L164 48L164 52L160 52L160 56L156 56L156 60L152 60L152 64L148 64L148 68L152 68L152 72L140 72L140 76L144 76L144 80L132 80L132 84L136 84L136 88L124 88L124 92L128 92L128 96L116 96L116 100L120 100L120 104L112 104L112 108L100 108L100 112L108 112L108 116L104 116L104 120L100 120L100 124L96 124L96 128L80 128L80 132L72 132L72 136L68 136L68 144L64 144L64 160L60 160L60 164L56 164L56 168L52 168L52 176L48 176L48 180L44 180L44 184L40 184L40 188L36 188L36 192L32 192L32 196L28 196L28 200L24 200L24 204L20 204L20 208L12 208L12 212L8 212L8 232L12 232L12 220L24 220L24 216L28 216L28 212L20 212L20 208L36 208L36 204L28 204L28 200L44 200L44 196L36 196L36 192L52 192L52 188L44 188L44 184L60 184L60 176L64 176L64 172L68 172L68 160L72 160L72 164L76 164L76 168L96 168L96 164L100 164L100 160L104 160L104 140L100 140L100 136L96 136L96 128L100 128L100 132L104 132L104 136L108 136L108 140L112 140L112 136L116 136L116 132L120 132L120 124L128 124L128 120L132 120L132 116L136 116L136 112L140 112L140 108L144 108L144 104L148 104L148 100L152 100L152 96L156 96L156 92L160 92L160 88L164 88L164 84L172 84L172 80L176 80L176 76L180 76L180 72L184 72L184 68L188 68L188 64L192 64L192 60L196 60L196 56L200 56L200 52L204 52L204 48L208 48L208 44L212 44L212 40L216 40L216 36L220 36L220 32L224 32L224 28L228 28L228 24L232 24L232 20L208 20L208 16L212 16L212 12L216 12L216 16L232 16L232 12L216 12L216 8L204 8z"/>
<path style="fill:#3a3f5e; stroke:none;" d="M216 8L216 12L232 12L232 8L216 8M212 12L212 16L208 16L208 20L232 20L232 16L216 16L216 12L212 12M204 20L204 24L200 24L200 28L196 28L196 32L192 32L192 36L188 36L188 40L184 40L184 44L180 44L180 48L176 48L176 52L172 52L172 56L168 56L168 60L164 60L164 64L160 64L160 68L156 68L156 72L152 72L152 76L148 76L148 80L144 80L144 84L140 84L140 88L136 88L136 92L132 92L132 96L128 96L128 100L124 100L124 104L120 104L120 108L116 108L116 112L112 112L112 116L108 116L108 120L104 120L104 124L100 124L100 128L104 128L104 124L108 124L108 120L116 120L116 124L120 124L120 120L116 120L116 112L120 112L120 108L124 108L124 104L128 104L128 100L132 100L132 96L136 96L136 92L140 92L140 88L144 88L144 84L148 84L148 80L152 80L152 76L156 76L156 80L160 80L160 84L164 84L164 80L160 80L160 76L156 76L156 72L160 72L160 68L164 68L164 64L168 64L168 60L192 60L192 56L176 56L176 52L200 52L200 48L184 48L184 44L208 44L208 40L192 40L192 36L216 36L216 32L200 32L200 28L224 28L224 24L208 24L208 20L204 20M228 24L228 28L224 28L224 32L220 32L220 36L216 36L216 40L212 40L212 44L208 44L208 48L204 48L204 52L200 52L200 56L196 56L196 60L192 60L192 64L188 64L188 68L184 68L184 72L180 72L180 76L176 76L176 80L172 80L172 84L164 84L164 88L160 88L160 92L156 92L156 96L152 96L152 100L148 100L148 104L144 104L144 108L140 108L140 112L136 112L136 116L132 116L132 120L128 120L128 124L120 124L120 132L116 132L116 136L112 136L112 140L108 140L108 136L104 136L104 132L100 132L100 128L96 128L96 136L100 136L100 140L104 140L104 160L100 160L100 164L96 164L96 168L76 168L76 164L72 164L72 160L68 160L68 172L64 172L64 176L60 176L60 184L64 184L64 188L52 188L52 192L56 192L56 196L44 196L44 200L48 200L48 204L36 204L36 208L40 208L40 212L28 212L28 216L24 216L24 220L20 220L20 228L12 228L12 232L28 232L28 228L32 228L32 220L36 220L36 216L40 216L40 212L44 212L44 208L48 208L48 204L52 204L52 200L56 200L56 196L60 196L60 192L64 192L64 188L72 188L72 184L76 184L76 180L80 180L80 176L96 176L96 172L100 172L100 176L104 176L104 180L108 180L108 176L112 176L112 172L116 172L116 168L112 168L112 164L108 164L108 160L112 160L112 144L116 144L116 140L120 140L120 136L124 136L124 132L128 132L128 140L132 140L132 128L136 128L136 120L140 120L140 124L144 124L144 112L148 112L148 116L152 116L152 104L156 104L156 108L160 108L160 96L164 96L164 100L168 100L168 88L172 88L172 92L176 92L176 88L180 88L180 84L184 84L184 80L188 80L188 76L192 76L192 72L196 72L196 68L200 68L200 64L204 64L204 60L208 60L208 56L212 56L212 52L216 52L216 48L220 48L220 44L224 44L224 40L228 40L228 36L232 36L232 24L228 24z"/>
<path style="fill:#ff0ec0; stroke:none;" d="M164 64L164 68L168 68L168 64L164 64z"/>
<path style="fill:#1b1f21; stroke:none;" d="M168 64L168 68L164 68L164 72L168 72L168 76L172 76L172 72L176 72L176 68L172 68L172 64L168 64M148 84L148 92L156 92L156 84L148 84z"/>
<path style="fill:#ff0ec0; stroke:none;" d="M56 108L56 112L52 112L52 116L48 116L48 120L44 120L44 124L48 124L48 128L52 128L52 132L60 132L60 128L64 128L64 124L68 124L68 116L64 116L64 112L60 112L60 108L56 108M116 112L116 120L120 120L120 112L116 112z"/>
<path style="fill:#1b1f21; stroke:none;" d="M120 112L120 120L128 120L128 112L120 112M56 116L56 120L52 120L52 124L56 124L56 128L60 128L60 124L64 124L64 120L60 120L60 116L56 116z"/>
<path style="fill:#3a3f5e; stroke:none;" d="M68 120L68 124L64 124L64 128L60 128L60 132L56 132L56 136L64 136L64 140L68 140L68 136L72 136L72 132L76 132L76 128L72 128L72 120L68 120z"/>
<path style="fill:#1b1f21; stroke:none;" d="M104 128L104 132L108 132L108 136L112 136L112 128L104 128z"/>
<path style="fill:#3a3f5e; stroke:none;" d="M80 132L80 136L72 136L72 144L68 144L68 156L72 156L72 144L76 144L76 140L80 140L80 136L92 136L92 132L80 132M92 140L92 144L96 144L96 160L80 160L80 156L76 156L76 160L80 160L80 164L96 164L96 160L100 160L100 144L96 144L96 140L92 140M80 144L80 148L84 148L84 144L80 144M88 148L88 152L84 152L84 156L92 156L92 148L88 148z"/>
<path style="fill:#ff0ec0; stroke:none;" d="M116 168L116 172L112 172L112 176L108 176L108 180L104 180L104 184L108 184L108 188L112 188L112 192L120 192L120 188L124 188L124 184L128 184L128 176L124 176L124 172L120 172L120 168L116 168z"/>
<path style="fill:#1b1f21; stroke:none;" d="M116 176L116 180L112 180L112 184L116 184L116 188L120 188L120 184L124 184L124 180L120 180L120 176L116 176z"/>
<path style="fill:#3a3f5e; stroke:none;" d="M128 180L128 184L132 184L132 180L128 180z"/>
<path style="fill:#1b1f21; stroke:none;" d="M44 184L44 188L64 188L64 184L44 184z"/>
<path style="fill:#3a3f5e; stroke:none;" d="M124 184L124 188L128 188L128 184L124 184z"/>
<path style="fill:#ffffff; stroke:none;" d="M196 184L196 196L184 196L184 208L196 208L196 220L208 220L208 208L220 208L220 196L208 196L208 184L196 184z"/>
<path style="fill:#3a3f5e; stroke:none;" d="M120 188L120 192L124 192L124 188L120 188z"/>
<path style="fill:#1b1f21; stroke:none;" d="M36 192L36 196L56 196L56 192L36 192z"/>
<path style="fill:#3a3f5e; stroke:none;" d="M116 192L116 196L120 196L120 192L116 192z"/>
<path style="fill:#1b1f21; stroke:none;" d="M28 200L28 204L48 204L48 200L28 200M20 208L20 212L40 212L40 208L20 208M12 220L12 228L20 228L20 220L12 220z"/>
</svg>
