<?xml version="1.0" standalone="yes"?>
<svg xmlns="http://www.w3.org/2000/svg" width="240" height="240">
<path style="fill:#1b1f21; stroke:none;" d="M0 0L0 240L240 240L240 0L0 0z"/>
<path style="fill:#ff0ec0; stroke:none;" d="M104 24L104 28L116 28L116 32L124 32L124 36L132 36L132 40L136 40L136 44L140 44L140 48L144 48L144 52L148 52L148 72L140 72L140 76L136 76L136 80L140 80L140 96L136 96L136 100L132 100L132 104L128 104L128 112L132 112L132 108L136 108L136 104L140 104L140 100L144 100L144 104L148 104L148 108L152 108L152 100L164 100L164 104L168 104L168 124L164 124L164 132L160 132L160 136L172 136L172 132L180 132L180 128L188 128L188 124L196 124L196 120L204 120L204 116L208 116L208 112L212 112L212 108L216 108L216 104L220 104L220 96L224 96L224 88L220 88L220 92L208 92L208 88L200 88L200 84L192 84L192 80L188 80L188 76L184 76L184 72L180 72L180 68L176 68L176 64L172 64L172 60L168 60L168 56L164 56L164 52L160 52L160 48L156 48L156 44L152 44L152 40L148 40L148 36L140 36L140 32L132 32L132 28L120 28L120 24L104 24z"/>
<path style="fill:#3a3f5e; stroke:none;" d="M112 28L112 32L116 32L116 28L112 28M120 32L120 36L124 36L124 32L120 32M128 36L128 40L132 40L132 36L128 36M132 40L132 44L136 44L136 40L132 40M136 44L136 48L140 48L140 44L136 44M140 48L140 56L144 56L144 72L148 72L148 52L144 52L144 48L140 48z"/>
<path style="fill:#1b1f21; stroke:none;" d="M156 68L156 72L152 72L152 80L156 80L156 84L160 84L160 88L164 88L164 92L168 92L168 96L172 96L172 100L176 100L176 104L180 104L180 108L192 108L192 104L196 104L196 96L188 96L188 88L180 88L180 80L172 80L172 72L164 72L164 68L156 68z"/>
<path style="fill:#3a3f5e; stroke:none;" d="M164 68L164 72L172 72L172 68L164 68M172 76L172 80L180 80L180 76L172 76M152 80L152 84L156 84L156 80L152 80z"/>
<path style="fill:#ff0ec0; stroke:none;" d="M132 84L132 88L128 88L128 92L124 92L124 96L120 96L120 100L116 100L116 104L112 104L112 108L108 108L108 112L104 112L104 116L100 116L100 120L96 120L96 124L92 124L92 128L88 128L88 132L84 132L84 136L80 136L80 140L76 140L76 144L72 144L72 148L68 148L68 152L64 152L64 156L60 156L60 160L56 160L56 164L52 164L52 168L48 168L48 172L44 172L44 176L40 176L40 180L36 180L36 184L32 184L32 188L28 188L28 192L24 192L24 196L20 196L20 200L16 200L16 204L12 204L12 208L8 208L8 220L16 220L16 216L20 216L20 204L28 204L28 200L32 200L32 196L36 196L36 192L44 192L44 188L48 188L48 176L60 176L60 172L64 172L64 160L76 160L76 156L80 156L80 148L88 148L88 144L92 144L92 132L96 132L96 136L100 136L100 124L104 124L104 128L108 128L108 116L112 116L112 120L116 120L116 108L120 108L120 112L124 112L124 100L128 100L128 96L132 96L132 92L136 92L136 84L132 84z"/>
<path style="fill:#3a3f5e; stroke:none;" d="M156 84L156 88L160 88L160 84L156 84M180 84L180 88L188 88L188 84L180 84M224 84L224 96L228 96L228 84L224 84M160 88L160 92L164 92L164 88L160 88M164 92L164 96L168 96L168 92L164 92M188 92L188 96L196 96L196 92L188 92M168 96L168 100L172 100L172 96L168 96M220 96L220 104L224 104L224 96L220 96M140 100L140 104L144 104L144 100L140 100M152 100L152 104L156 104L156 100L152 100M172 100L172 104L176 104L176 100L172 100M136 104L136 108L140 108L140 104L136 104M144 104L144 108L148 108L148 104L144 104M176 104L176 108L180 108L180 104L176 104M192 104L192 108L196 108L196 104L192 104M216 104L216 108L212 108L212 112L208 112L208 116L204 116L204 120L196 120L196 124L188 124L188 128L180 128L180 132L172 132L172 136L156 136L156 140L176 140L176 136L188 136L188 132L196 132L196 128L204 128L204 124L208 124L208 120L212 120L212 116L216 116L216 112L220 112L220 104L216 104z"/>
<path style="fill:#1b1f21; stroke:none;" d="M116 108L116 124L120 124L120 108L116 108z"/>
<path style="fill:#3a3f5e; stroke:none;" d="M132 108L132 112L136 112L136 108L132 108M148 108L148 112L152 112L152 108L148 108M180 108L180 112L192 112L192 108L180 108M120 112L120 124L128 124L128 116L124 116L124 112L120 112z"/>
<path style="fill:#1b1f21; stroke:none;" d="M108 116L108 132L112 132L112 116L108 116z"/>
<path style="fill:#3a3f5e; stroke:none;" d="M112 120L112 132L120 132L120 124L116 124L116 120L112 120z"/>
<path style="fill:#1b1f21; stroke:none;" d="M100 124L100 140L104 140L104 124L100 124z"/>
<path style="fill:#3a3f5e; stroke:none;" d="M104 128L104 140L112 140L112 132L108 132L108 128L104 128z"/>
<path style="fill:#1b1f21; stroke:none;" d="M92 132L92 148L96 148L96 132L92 132z"/>
<path style="fill:#3a3f5e; stroke:none;" d="M96 136L96 148L104 148L104 140L100 140L100 136L96 136M88 144L88 148L84 148L84 152L80 152L80 156L76 156L76 160L72 160L72 168L64 168L64 172L60 172L60 176L56 176L56 184L48 184L48 188L44 188L44 192L40 192L40 196L32 196L32 200L28 200L28 212L20 212L20 216L16 216L16 220L8 220L8 224L12 224L12 228L16 228L16 232L28 232L28 228L32 228L32 212L36 212L36 208L40 208L40 204L44 204L44 200L48 200L48 196L52 196L52 192L56 192L56 188L60 188L60 184L64 184L64 180L68 180L68 176L72 176L72 172L76 172L76 168L80 168L80 164L84 164L84 160L88 160L88 156L96 156L96 148L92 148L92 144L88 144z"/>
<path style="fill:#1b1f21; stroke:none;" d="M80 148L80 152L84 152L84 148L80 148M64 160L64 168L72 168L72 160L64 160M48 176L48 184L56 184L56 176L48 176M36 192L36 196L40 196L40 192L36 192z"/>
<path style="fill:#ffffff; stroke:none;" d="M184 196L184 208L220 208L220 196L184 196z"/>
<path style="fill:#1b1f21; stroke:none;" d="M20 204L20 212L28 212L28 204L20 204z"/>
</svg>
