<?xml version="1.0" standalone="yes"?>
<svg xmlns="http://www.w3.org/2000/svg" width="240" height="240">
<path style="fill:#1b1f21; stroke:none;" d="M0 0L0 240L240 240L240 0L0 0z"/>
<path style="fill:#ff0ec0; stroke:none;" d="M104 60L104 68L132 68L132 76L228 76L228 60L220 60L220 64L116 64L116 60L104 60M44 64L44 76L48 76L48 80L52 80L52 84L56 84L56 88L52 88L52 92L44 92L44 96L40 96L40 104L48 104L48 100L56 100L56 96L60 96L60 92L64 92L64 88L76 88L76 72L80 72L80 68L92 68L92 64L76 64L76 68L72 68L72 72L68 72L68 68L60 68L60 72L52 72L52 68L48 68L48 64L44 64z"/>
<path style="fill:#3a3f5e; stroke:none;" d="M72 64L72 68L76 68L76 64L72 64z"/>
<path style="fill:#1b1f21; stroke:none;" d="M64 72L64 76L60 76L60 80L56 80L56 84L60 84L60 80L64 80L64 76L68 76L68 72L64 72z"/>
<path style="fill:#3a3f5e; stroke:none;" d="M84 72L84 76L92 76L92 72L84 72M120 72L120 76L128 76L128 72L120 72z"/>
<path style="fill:#ff0ec0; stroke:none;" d="M80 76L80 80L84 80L84 84L80 84L80 92L84 92L84 96L88 96L88 92L120 92L120 96L128 96L128 76L80 76z"/>
<path style="fill:#3a3f5e; stroke:none;" d="M132 76L132 80L228 80L228 76L132 76M88 80L88 84L92 84L92 88L120 88L120 84L92 84L92 80L88 80z"/>
<path style="fill:#1b1f21; stroke:none;" d="M92 80L92 84L120 84L120 80L92 80z"/>
<path style="fill:#ff0ec0; stroke:none;" d="M136 80L136 100L132 100L132 104L136 104L136 100L140 100L140 92L216 92L216 88L228 88L228 80L216 80L216 88L144 88L144 80L136 80z"/>
<path style="fill:#1b1f21; stroke:none;" d="M144 80L144 88L216 88L216 80L144 80z"/>
<path style="fill:#3a3f5e; stroke:none;" d="M128 84L128 96L132 96L132 84L128 84M64 88L64 92L60 92L60 96L56 96L56 100L48 100L48 104L76 104L76 88L64 88M216 88L216 92L140 92L140 100L136 100L136 104L224 104L224 96L228 96L228 88L216 88M88 92L88 96L80 96L80 104L84 104L84 108L92 108L92 104L120 104L120 108L128 108L128 96L92 96L92 92L88 92z"/>
<path style="fill:#1b1f21; stroke:none;" d="M92 92L92 96L120 96L120 92L92 92z"/>
<path style="fill:#3a3f5e; stroke:none;" d="M40 108L40 112L80 112L80 108L40 108M132 108L132 112L128 112L128 120L124 120L124 124L136 124L136 120L140 120L140 116L184 116L184 112L196 112L196 108L132 108z"/>
<path style="fill:#ff0ec0; stroke:none;" d="M36 112L36 116L32 116L32 120L76 120L76 116L104 116L104 124L108 124L108 116L116 116L116 120L124 120L124 112L36 112z"/>
<path style="fill:#3a3f5e; stroke:none;" d="M76 116L76 120L88 120L88 124L92 124L92 136L96 136L96 132L100 132L100 128L120 128L120 120L116 120L116 124L104 124L104 116L76 116z"/>
<path style="fill:#1b1f21; stroke:none;" d="M108 116L108 124L116 124L116 116L108 116z"/>
<path style="fill:#ff0ec0; stroke:none;" d="M28 124L28 132L24 132L24 140L20 140L20 148L16 148L16 156L12 156L12 172L16 172L16 176L20 176L20 180L28 180L28 184L40 184L40 188L48 188L48 184L52 184L52 176L48 176L48 180L44 180L44 184L40 184L40 180L32 180L32 176L36 176L36 172L32 172L32 176L24 176L24 172L28 172L28 168L32 168L32 164L24 164L24 160L36 160L36 156L28 156L28 152L40 152L40 148L32 148L32 144L44 144L44 140L40 140L40 132L48 132L48 128L36 128L36 124L28 124z"/>
<path style="fill:#3a3f5e; stroke:none;" d="M36 124L36 128L48 128L48 140L44 140L44 144L40 144L40 148L48 148L48 152L36 152L36 156L44 156L44 160L32 160L32 164L40 164L40 168L28 168L28 172L36 172L36 176L40 176L40 180L48 180L48 164L52 164L52 156L56 156L56 148L60 148L60 140L64 140L64 124L36 124M68 124L68 132L72 132L72 136L80 136L80 132L76 132L76 124L68 124z"/>
<path style="fill:#1b1f21; stroke:none;" d="M40 132L40 140L48 140L48 132L40 132z"/>
<path style="fill:#3a3f5e; stroke:none;" d="M88 136L88 140L92 140L92 136L88 136z"/>
<path style="fill:#1b1f21; stroke:none;" d="M28 140L28 144L32 144L32 140L28 140z"/>
<path style="fill:#ff0ec0; stroke:none;" d="M68 140L68 144L80 144L80 140L68 140z"/>
<path style="fill:#1b1f21; stroke:none;" d="M32 144L32 148L40 148L40 144L32 144M24 148L24 152L28 152L28 148L24 148M40 148L40 152L48 152L48 148L40 148M28 152L28 156L36 156L36 152L28 152M20 156L20 160L24 160L24 156L20 156M36 156L36 160L44 160L44 156L36 156M24 160L24 164L32 164L32 160L24 160M16 164L16 168L20 168L20 172L24 172L24 168L20 168L20 164L16 164M32 164L32 168L40 168L40 164L32 164z"/>
<path style="fill:#3a3f5e; stroke:none;" d="M12 172L12 176L16 176L16 172L12 172z"/>
<path style="fill:#1b1f21; stroke:none;" d="M24 172L24 176L32 176L32 172L24 172z"/>
<path style="fill:#3a3f5e; stroke:none;" d="M16 176L16 180L20 180L20 176L16 176z"/>
<path style="fill:#1b1f21; stroke:none;" d="M32 176L32 180L40 180L40 176L32 176z"/>
<path style="fill:#3a3f5e; stroke:none;" d="M20 180L20 184L28 184L28 180L20 180z"/>
<path style="fill:#1b1f21; stroke:none;" d="M40 180L40 184L44 184L44 180L40 180z"/>
<path style="fill:#3a3f5e; stroke:none;" d="M28 184L28 188L40 188L40 184L28 184z"/>
<path style="fill:#ffffff; stroke:none;" d="M196 184L196 196L184 196L184 208L196 208L196 220L208 220L208 208L220 208L220 196L208 196L208 184L196 184z"/>
</svg>
